<?xml version="1.0" encoding="UTF-8" standalone="no"?>
<svg width="12px" height="12px" viewBox="0 0 12 12" version="1.1" xmlns="http://www.w3.org/2000/svg" xmlns:xlink="http://www.w3.org/1999/xlink">
    <!-- Generator: Sketch 43.2 (39069) - http://www.bohemiancoding.com/sketch -->
    <title>plus_2p_12x12</title>
    <desc>Created with Sketch.</desc>
    <defs></defs>
    <g id="Action" stroke="none" stroke-width="1" fill="none" fill-rule="evenodd">
        <g id="Action-icons" transform="translate(-1054.000000, -366.000000)" fill="#868686">
            <g id="btns_2p_12x12_zoom" transform="translate(960.000000, 360.000000)">
                <g id="plus_2p_12x12" transform="translate(94.000000, 6.000000)">
                    <path d="M5,5 L1.00247329,5 C0.455760956,5 0,5.44771525 0,6 C0,6.55613518 0.448822582,7 1.00247329,7 L5,7 L5,10.9975267 C5,11.544239 5.44771525,12 6,12 C6.55613518,12 7,11.5511774 7,10.9975267 L7,7 L10.9975267,7 C11.544239,7 12,6.55228475 12,6 C12,5.44386482 11.5511774,5 10.9975267,5 L7,5 L7,1.00247329 C7,0.455760956 6.55228475,0 6,0 C5.44386482,0 5,0.448822582 5,1.00247329 L5,5 Z"></path>
                </g>
            </g>
        </g>
    </g>
</svg>