<svg xmlns="http://www.w3.org/2000/svg" width="16" height="16" viewBox="0 0 16 16"><g fill="none" fill-rule="evenodd"><path fill="#516072" d="M12.1684271,7 L9.63289322,4.46446609 C9.24236893,4.0739418 9.24236893,3.44077682 9.63289322,3.05025253 C10.0234175,2.65972824 10.6565825,2.65972824 11.0471068,3.05025253 L14.9968542,7 L15,7.00314575 L15.9968542,8 L15,8.99685425 L11.0471068,12.9497475 C10.6565825,13.3402718 10.0234175,13.3402718 9.63289322,12.9497475 C9.24236893,12.5592232 9.24236893,11.9260582 9.63289322,11.5355339 L12.1684271,9 L3,9 L3,7 L12.1684271,7 Z"/><polygon fill="#516072" points="2 14 5 14 5 11 7 11 7 16 0 16 0 0 7 0 7 5 5 5 5 2 2 2"/></g></svg>