<svg width="24" height="24" xmlns="http://www.w3.org/2000/svg"><g fill="none" fill-rule="evenodd"><path d="M6.0703128 8.6875H3.3750003l-1.125-.1875.375 6.375h2.765625l5.7421875 1.6171875c.1640625.046875.328125.0703125.4921875.0703125h2.25c.1640625 0 .3046875-.0234375.4453125-.046875l4.35937504-.7265625c.28125-.046875.5390625-.1640625.75-.3046875l3.65625-2.203125c.890625-.515625 1.171875-1.6640625.65625-2.5546875-.5390625-.890625-1.6875-1.171875-2.578125-.6328125l-3.4453125 2.0625-1.359375.2109375c.0234375-.0234375.046875-.0703125.046875-.1171875.328125-.984375-.21093754-2.015625-1.19531254-2.34375l-5.109375-1.640625c-.328125-.140625-.6796875-.1875-1.0546875-.1171875L6.0703128 8.6875z" fill="#FBBB69" fill-rule="nonzero"/><path d="M3.75 7.75h-1.5v9h1.5c.421875 0 .75-.328125.75-.75V8.5c0-.421875-.328125-.75-.75-.75z" fill="#D8E0E8"/><path d="M2.25 7H0v10.5h2.25c.421875 0 .75-.328125.75-.75v-9C3 7.328125 2.671875 7 2.25 7z" fill="#314051"/></g></svg>