<svg width="16" height="16" xmlns="http://www.w3.org/2000/svg"><g fill="none" fill-rule="evenodd"><path d="M4.0468752 5.79166667h-1.796875l-.75-.125.25 4.25h1.84375l3.828125 1.07812503c.10937503.03125.21875003.046875.32812503.046875h1.5c.109375 0 .203125-.015625.296875-.03125l2.90625-.484375c.1875-.03125.359375-.109375.5-.203125l2.4375-1.46875003c.59375-.34375.78125-1.109375.4375-1.703125-.359375-.59375-1.125-.78125-1.71875-.421875l-2.296875 1.375-.90625.140625c.015625-.015625.03125-.046875.03125-.078125.21875-.65625-.140625-1.34375-.796875-1.5625l-3.40625003-1.09375c-.21875-.09375-.453125-.125-.703125-.078125l-1.984375.359375z" fill="#FBBB69" fill-rule="nonzero"/><path d="M2.5 5.16666667h-1v6.00000003h1c.28125 0 .5-.21875.5-.5V5.66666667c0-.28125-.21875-.5-.5-.5z" fill="#D8E0E8"/><path d="M1.5 4.66666667H0v7.00000003h1.5c.28125 0 .5-.21875.5-.5V5.16666667c0-.28125-.21875-.5-.5-.5z" fill="#314051"/></g></svg>