<svg width="24" height="24" xmlns="http://www.w3.org/2000/svg"><g fill="none" fill-rule="evenodd"><path d="M9.7500009 11.6206897l-3.75 2.275862h-1.5v6.8275862h.4921875c.6796875 0 1.265625.1896552 1.8046875.6163793l1.40625 1.0431035C8.7421884 22.8103448 9.3281259 23 10.0078134 23h5.27343751c1.125 0 2.0859375-.8297414 2.2265625-1.9676724l.9140625-6.8275862c.0703125-.6875-.1171875-1.3038793-.5390625-1.8017242-.4453125-.5215517-1.03125-.7823275-1.7109375-.7823275H9.7500009z" fill="#F2B566" fill-rule="nonzero"/><path d="M14.24999991 10.1034483H10.4999999c-2.296875 0-3.6328125 2.1573276-5.296875 3.5323276.0234375.0948275.046875.1659482.046875.2607758v3.7931035c3.234375 0 5.0859375-.2607759 6-2.0150862v2.0150862c0 .4267241.328125.7586207.75.7586207h5.85937501l.5625-4.2435345c.0703125-.6875-.1171875-1.3038793-.5390625-1.8017242-.4453125-.5215517-1.03125-.7823275-1.7109375-.7823275h-.421875c0-.8297414-.6796875-1.5172414-1.5-1.5172414z" fill="#EC923A" fill-rule="nonzero"/><path d="M23.25 1h-10.5c-.421875 0-.75.33189655-.75.75862069V16.9310345c0 .4267241.328125.7586207.75.7586207h10.5c.421875 0 .75-.3318966.75-.7586207V1.75862069C24 1.33189655 23.671875 1 23.25 1z" fill="red" fill-rule="nonzero"/><path d="M14.249999 9.34482759h-3.75c-2.296875 0-3.6328125 2.15732761-5.296875 3.53232761.0234375.0948276.046875.1659482.046875.2607758v4.5517242c3.234375 0 6-1.5172414 6-4.5517242h2.25c1.2421875 0 2.25-1.0193965 2.25-2.275862 0-.8297414-.6796875-1.51724141-1.5-1.51724141z" fill="#FBBB69" fill-rule="nonzero"/><path d="M4.5 12.3793103h-3v9.1034483h3c.421875 0 .75-.3318965.75-.7586207V13.137931c0-.4267241-.328125-.7586207-.75-.7586207z" fill="#D8E0E8"/><path d="M3 11.6206897H0v10.6206896h3c.421875 0 .75-.3318965.75-.7586207v-9.1034483c0-.4267241-.328125-.7586206-.75-.7586206z" fill="#314051"/></g></svg>