<svg xmlns="http://www.w3.org/2000/svg" width="128" height="128" viewBox="0 0 128 128">
  <g fill="none" fill-rule="evenodd">
    <path fill="#F2B566" fill-rule="nonzero" d="M70.3270245,61.9770115 L90.3270245,74.1149425 L98.3270245,74.1149425 L98.3270245,78.1609195 L98.3270245,110.528736 L95.7020245,110.528736 C92.0770245,110.528736 88.9520245,111.54023 86.0770245,113.816092 L78.5770245,119.37931 C75.7020245,121.655172 72.5770245,122.666667 68.9520245,122.666667 L40.8270245,122.666667 C34.8270245,122.666667 29.7020245,118.241379 28.9520245,112.172414 L24.0770245,75.7586207 C23.7020245,72.091954 24.7020245,68.8045977 26.9520245,66.1494253 C29.3270245,63.3678161 32.4520245,61.9770115 36.0770245,61.9770115 L70.3270245,61.9770115 Z" transform="matrix(-1 0 0 1 122.327 0)"/>
    <path fill="#EC923A" fill-rule="nonzero" d="M50.0770245,53.8850575 L70.0770245,53.8850575 C82.3270245,53.8850575 89.4520245,65.3908046 98.3270245,72.7241379 C98.2020245,73.2298851 98.0770245,73.6091954 98.0770245,74.1149425 L98.0770245,94.3448276 C80.8270245,94.3448276 70.9520245,92.954023 66.0770245,83.5977011 L66.0770245,94.3448276 C66.0770245,96.6206897 64.3270245,98.3908046 62.0770245,98.3908046 L30.8270245,98.3908046 L27.8270245,75.7586207 C27.4520245,72.091954 28.4520245,68.8045977 30.7020245,66.1494253 C33.0770245,63.3678161 36.2020245,61.9770115 39.8270245,61.9770115 L42.0770245,61.9770115 C42.0770245,57.5517241 45.7020245,53.8850575 50.0770245,53.8850575 Z" transform="matrix(-1 0 0 1 126.077 0)"/>
    <path fill="#FF0000" fill-rule="nonzero" d="M68,5.33333333 L124,5.33333333 C126.25,5.33333333 128,7.10344828 128,9.37931034 L128,90.2988506 C128,92.5747126 126.25,94.3448276 124,94.3448276 L68,94.3448276 C65.75,94.3448276 64,92.5747126 64,90.2988506 L64,9.37931034 C64,7.10344828 65.75,5.33333333 68,5.33333333 Z" transform="matrix(-1 0 0 1 192 0)"/>
    <path fill="#FBBB69" fill-rule="nonzero" d="M35.75,49.8390805 L55.75,49.8390805 C68,49.8390805 75.125,61.3448276 84,68.6781609 C83.875,69.183908 83.75,69.5632184 83.75,70.0689655 L83.75,94.3448276 C66.5,94.3448276 51.75,86.2528736 51.75,70.0689655 L47.75,70.0689655 L39.75,70.0689655 C33.125,70.0689655 27.75,64.6321839 27.75,57.9310345 C27.75,53.5057471 31.375,49.8390805 35.75,49.8390805 Z" transform="matrix(-1 0 0 1 111.75 0)"/>
    <path fill="#D8E0E8" d="M12,66.0229885 L28,66.0229885 L28,114.574713 L12,114.574713 C9.75,114.574713 8,112.804598 8,110.528736 L8,70.0689655 C8,67.7931034 9.75,66.0229885 12,66.0229885 Z" transform="matrix(-1 0 0 1 36 0)"/>
    <path fill="#314051" d="M4,61.9770115 L20,61.9770115 L20,118.62069 L4,118.62069 C1.75,118.62069 0,116.850575 0,114.574713 L0,66.0229885 C0,63.7471264 1.75,61.9770115 4,61.9770115 Z" transform="matrix(-1 0 0 1 20 0)"/>
  </g>
</svg>
