<svg width="16" height="16" xmlns="http://www.w3.org/2000/svg"><g fill="none" fill-rule="evenodd"><path d="M6.49999994 7.74712644L3.9999999 9.26436782h-1V13.816092h.328125c.453125 0 .84375.1264367 1.203125.4109195l.93750004.6954023c.359375.2844828.75.4109195 1.203125.4109195h3.515625c.75 0 1.390625-.5531609 1.484375-1.3117816l.609375-4.55172411c.046875-.45833334-.078125-.86925288-.359375-1.20114943-.296875-.34770115-.6875-.52155172-1.140625-.52155172h-4.28125z" fill="#F2B566" fill-rule="nonzero"/><path d="M9.49999994 6.73563218h-2.5c-1.53125004 0-2.42187504 1.43821839-3.53125004 2.35488506.015625.06321839.03125.11063219.03125.17385058v2.52873558c2.15625 0 3.39062504-.1738505 4.00000004-1.3433908v1.3433908c0 .2844828.21875.5057472.5.5057472h3.90625l.375-2.82902301c.046875-.45833334-.078125-.86925288-.359375-1.20114943-.296875-.34770115-.6875-.52155172-1.140625-.52155172h-.28125c0-.55316092-.453125-1.01149426-1-1.01149426z" fill="#EC923A" fill-rule="nonzero"/><path d="M15.5.66666667h-7c-.28125 0-.5.22126436-.5.50574712V11.2873563c0 .2844828.21875.5057471.5.5057471h7c.28125 0 .5-.2212643.5-.5057471V1.17241379c0-.28448276-.21875-.50574712-.5-.50574712z" fill="red" fill-rule="nonzero"/><path d="M9.5 6.22988506H7c-1.53125 0-2.421875 1.43821839-3.53125 2.35488505.015625.0632184.03125.11063219.03125.17385058v3.03448271c2.15625 0 4-1.0114942 4-3.03448271H9c.828125 0 1.5-.6795977 1.5-1.51724138 0-.55316092-.453125-1.01149425-1-1.01149425z" fill="#FBBB69" fill-rule="nonzero"/><path d="M3 8.25287356H1v6.06896554h2c.28125 0 .5-.2212644.5-.5057471V8.75862069c0-.28448276-.21875-.50574713-.5-.50574713z" fill="#D8E0E8"/><path d="M2 7.74712644H0v7.08045976h2c.28125 0 .5-.2212644.5-.5057471V8.25287356c0-.28448276-.21875-.50574712-.5-.50574712z" fill="#314051"/></g></svg>