<svg xmlns="http://www.w3.org/2000/svg" width="24" height="24" viewBox="0 0 24 24">
  <g fill="none" fill-rule="evenodd">
    <path fill="#0D6FE0" d="M12,23 C18.0751325,23 23,18.0751325 23,12 C23,5.92486745 18.0751325,1 12,1 C5.92486745,1 1,5.92486745 1,12 C1,18.0751325 5.92486745,23 12,23 Z"/>
    <path fill="#FFFFFF" d="M10,10.9975446 C10,10.446616 10.4433532,10 11.0093689,10 L12.9906311,10 C13.5480902,10 14,10.4463114 14,10.9975446 L14,18.0024554 C14,18.553384 13.5566468,19 12.9906311,19 L11.0093689,19 C10.4519098,19 10,18.5536886 10,18.0024554 L10,10.9975446 Z M12,8.5 C10.8954305,8.5 10,7.71649831 10,6.75 C10,5.78350169 10.8954305,5 12,5 C13.1045695,5 14,5.78350169 14,6.75 C14,7.71649831 13.1045695,8.5 12,8.5 Z"/>
  </g>
</svg>
