<svg xmlns="http://www.w3.org/2000/svg" width="16" height="16" viewBox="0 0 16 16">
  <g fill="none" fill-rule="evenodd">
    <path fill="#0D6FE0" d="M8,15 C11.8659934,15 15,11.8659934 15,8 C15,4.13400656 11.8659934,1 8,1 C4.13400656,1 1,4.13400656 1,8 C1,11.8659934 4.13400656,15 8,15 Z"/>
    <path fill="#FFFFFF" d="M6.66666667,7.33169643 C6.66666667,6.96441063 6.96223545,6.66666667 7.33957926,6.66666667 L8.66042074,6.66666667 C9.0320601,6.66666667 9.33333333,6.9642076 9.33333333,7.33169643 L9.33333333,12.0016369 C9.33333333,12.3689227 9.03776455,12.6666667 8.66042074,12.6666667 L7.33957926,12.6666667 C6.9679399,12.6666667 6.66666667,12.3691257 6.66666667,12.0016369 L6.66666667,7.33169643 Z M8,5.66666667 C7.26362033,5.66666667 6.66666667,5.14433221 6.66666667,4.5 C6.66666667,3.85566779 7.26362033,3.33333333 8,3.33333333 C8.73637967,3.33333333 9.33333333,3.85566779 9.33333333,4.5 C9.33333333,5.14433221 8.73637967,5.66666667 8,5.66666667 Z"/>
  </g>
</svg>
