<?xml version="1.0" encoding="UTF-8"?><svg xmlns="http://www.w3.org/2000/svg" width="24" height="24" viewBox="0 0 24 24" xmlns:xlink="http://www.w3.org/1999/xlink"><title>f/folder_network/folder_network_24x24</title><defs><path id="a" d="M9 20h2.1v-1h1.812v1H15v4H9v-4z"/></defs><g fill="none" fill-rule="evenodd"><path d="M0 0h24v24H0z"/><path fill="#FAD00A" d="M2 19h20c.62 0 1-.366 1-1V5H1v13c0 .634.38 1 1 1z"/><rect width="14" height="2" x="5" y="21" fill="#262626" rx="1"/><use fill="#DDDDEA" xlink:href="#a"/><path stroke="#7A79A9" stroke-opacity=".2" stroke-width=".5" d="M9.25 20.25v3.5h5.5v-3.5h-2.088v-1H11.35v1h-2.1z"/><path fill="#EEC31D" d="M22.012 4H11C9.05 4 8.628 1 7 1H2c-.637 0-1 .386-1 1v4h22v-.992C23 4.58 22.505 4 22.012 4z"/></g></svg>