<svg xmlns="http://www.w3.org/2000/svg" width="24" height="24" viewBox="0 0 24 24">
  <g fill="none" fill-rule="evenodd">
    <path fill="#DDDDEA" d="M0,4 L0,21 C1.3527075e-16,22.1045695 0.8954305,23 2,23 L22,23 C23.1045695,23 24,22.1045695 24,21 L24,4 L0,4 Z"/>
    <path fill="#7A71BB" d="M1.50130749,2 C0.672158257,2 0,2.66579723 0,3.5 L0,5 L24,5 L24,3.5 C24,2.67157288 23.3330537,2 22.4986925,2 L1.50130749,2 Z"/>
    <path fill="#FFFFFF" d="M2.5,4 C2.22385763,4 2,3.77614237 2,3.5 C2,3.22385763 2.22385763,3 2.5,3 C2.77614237,3 3,3.22385763 3,3.5 C3,3.77614237 2.77614237,4 2.5,4 Z M21.5,4 C21.2238576,4 21,3.77614237 21,3.5 C21,3.22385763 21.2238576,3 21.5,3 C21.7761424,3 22,3.22385763 22,3.5 C22,3.77614237 21.7761424,4 21.5,4 Z"/>
    <polygon fill="#FF520E" points="3 18 6 18 6 21 3 21"/>
    <polygon fill="#91A0AF" points="8 18 11 18 11 21 8 21"/>
    <polygon fill="#91A0AF" points="13 18 16 18 16 21 13 21"/>
    <polygon fill="#FF520E" points="18 18 21 18 21 21 18 21"/>
    <polygon fill="#91A0AF" points="3 14 6 14 6 17 3 17"/>
    <polygon fill="#91A0AF" points="8 14 11 14 11 17 8 17"/>
    <polygon fill="#B5C0CB" points="3 10 6 10 6 13 3 13"/>
    <polygon fill="#B5C0CB" points="8 10 11 10 11 13 8 13"/>
    <polygon fill="#FF520E" points="13 14 16 14 16 17 13 17"/>
    <polygon fill="#91A0AF" points="18 14 21 14 21 17 18 17"/>
    <polygon fill="#FF520E" points="13 10 16 10 16 13 13 13"/>
    <polygon fill="#91A0AF" points="18 10 21 10 21 13 18 13"/>
    <polygon fill="#717F8F" points="3 7 10 7 10 9 3 9"/>
  </g>
</svg>
