<?xml version="1.0" encoding="UTF-8"?><svg xmlns="http://www.w3.org/2000/svg" width="24" height="24" viewBox="0 0 24 24" xmlns:xlink="http://www.w3.org/1999/xlink"><title>r/reservations/reservations_24x24</title><defs><path id="a" d="M0 4v17c0 1.105.895 2 2 2h20c1.105 0 2-.895 2-2V4H0z"/></defs><g fill="none" fill-rule="evenodd"><path d="M0 0h24v24H0z"/><use fill="#DDDDEA" xlink:href="#a"/><path stroke="#7A79A9" stroke-opacity=".2" stroke-width=".5" d="M.25 4.25V21c0 .966.784 1.75 1.75 1.75h20c.966 0 1.75-.784 1.75-1.75V4.25H.25z"/><path fill="#F00" d="M1.5 2C.673 2 0 2.666 0 3.5V5h24V3.5c0-.828-.667-1.5-1.5-1.5h-21z"/><path fill="#FFF" d="M2.5 4c-.276 0-.5-.224-.5-.5s.224-.5.5-.5.5.224.5.5-.224.5-.5.5zm19 0c-.276 0-.5-.224-.5-.5s.224-.5.5-.5.5.224.5.5-.224.5-.5.5z"/><path fill="#262626" fill-rule="nonzero" d="M7.29 14.075c-.397-.384-1.03-.374-1.415.023-.384.397-.374 1.03.023 1.414l3.6 3.486c.39.377 1.01.375 1.396-.005l9.613-9.432c.395-.386.4-1.02.014-1.413-.386-.394-1.02-.4-1.413-.014l-8.918 8.75-2.9-2.808z"/></g></svg>