<svg width="16" height="16" xmlns="http://www.w3.org/2000/svg"><g fill="#1A96F1" fill-rule="nonzero"><path d="M12.5833333 9.07602339c.671875-.15594542 1.28125-.10916179 1.75.1091618V3.22807018l-8.49999997 2.0116959v7.54775832c0 1.325536-1.234375 2.7134503-2.75 3.0877193-1.515625.374269-2.75-.3898636-2.75-1.7153996 0-1.3255361 1.234375-2.7134503 2.75-3.0877193.671875-.1559455 1.28125-.1091618 1.75.1091617V2.49512671L15.3333333 0v10.791423c0 1.3255361-1.234375 2.7134503-2.75 3.0877193-1.515625.374269-2.74999997-.3898635-2.74999997-1.7153996s1.23437497-2.7134503 2.74999997-3.08771931z"/><path d="M15.3333333 10.791423c0 1.3255361-1.234375 2.7134503-2.75 3.0877193-1.515625.374269-2.74999997-.3898635-2.74999997-1.7153996s1.23437497-2.7134503 2.74999997-3.08771931c.671875-.15594542 1.28125-.10916179 1.75.1091618.65625.34307992 1 1.10721251 1 1.60623781zM5.83333333 12.7875244c0 1.325536-1.234375 2.7134503-2.75 3.0877193-1.515625.374269-2.75-.3898636-2.75-1.7153996 0-1.3255361 1.234375-2.7134503 2.75-3.0877193.671875-.1559455 1.28125-.1091618 1.75.1091617.734375.4366472 1 1.294347 1 1.6062379z"/></g></svg>