<svg width="24" height="24" xmlns="http://www.w3.org/2000/svg"><g fill="#1A96F1" fill-rule="nonzero"><path d="M18.875 13.6140351c1.0078125-.2339181 1.921875-.1637427 2.625.1637427V4.84210526L8.75 7.85964912V19.1812865c0 1.9883041-1.8515625 4.0701755-4.125 4.631579C2.3515625 24.374269.5 23.2280702.5 21.2397661c0-1.9883041 1.8515625-4.0701755 4.125-4.631579 1.0078125-.2339181 1.921875-.1637427 2.625.1637427V3.74269006L23 0v16.1871345c0 1.9883041-1.8515625 4.0701754-4.125 4.631579-2.2734375.5614035-4.125-.5847954-4.125-2.5730995 0-1.9883041 1.8515625-4.0701754 4.125-4.6315789z"/><path d="M23 16.1871345c0 1.9883041-1.8515625 4.0701754-4.125 4.631579-2.2734375.5614035-4.125-.5847954-4.125-2.5730995 0-1.9883041 1.8515625-4.0701754 4.125-4.6315789 1.0078125-.2339181 1.921875-.1637427 2.625.1637427.984375.5146199 1.5 1.6608187 1.5 2.4093567zM8.75 19.1812865c0 1.9883041-1.8515625 4.0701755-4.125 4.631579C2.3515625 24.374269.5 23.2280702.5 21.2397661c0-1.9883041 1.8515625-4.0701755 4.125-4.631579 1.0078125-.2339181 1.921875-.1637427 2.625.1637427 1.1015625.6549708 1.5 1.9415205 1.5 2.4093567z"/></g></svg>