<svg width="16" height="16" viewBox="0 0 16 16" fill="none" xmlns="http://www.w3.org/2000/svg">
<path fill-rule="evenodd" clip-rule="evenodd" d="M16 0V12.6654C16 14.507 14.5091 16 12.6654 16H0V3.33465C0 1.49297 1.49087 0 3.33465 0H16Z" fill="#C60450"/>
<path d="M13.8079 8.35705C14.2192 8.31474 14.409 7.89686 14.3635 7.44327L14.0193 4.05619C13.9738 3.6027 13.703 3.23116 13.2917 3.27267C12.8801 3.31409 12.6898 3.73365 12.7367 4.18724L13.0803 7.57264C13.1264 8.02613 13.3962 8.39925 13.8079 8.35705Z" fill="white"/>
<path d="M14.6511 9.53853C14.6047 9.08495 14.2369 8.73253 13.8498 8.77158C13.4634 8.81053 13.174 9.23009 13.2196 9.68368C13.2665 10.1471 13.6342 10.4904 14.0202 10.4506C14.4074 10.4117 14.698 10.002 14.6511 9.53853Z" fill="white"/>
<path fill-rule="evenodd" clip-rule="evenodd" d="M6.77144 7.33026C7.08219 7.29892 7.31692 7.40538 7.4675 7.6585C7.81143 6.49936 8.65433 5.74911 9.84097 5.62895C11.5763 5.45234 12.8636 6.74584 13.0842 8.92561C13.306 11.1063 12.3056 12.6311 10.5694 12.8068C9.03503 12.9629 7.85107 11.97 7.44484 10.2314C7.07158 11.2892 6.2577 12.0341 5.1056 12.151C3.09751 12.3557 1.78823 10.704 1.57101 8.55986C1.34007 6.28879 2.50914 4.51281 4.31183 4.32961C5.51235 4.20852 6.84529 4.66792 6.95218 5.71836C6.99488 6.13881 6.7739 6.45888 6.37061 6.5003C6.14644 6.52277 5.95803 6.40074 5.741 6.26018C5.44576 6.06895 5.09757 5.84344 4.53438 5.90078C3.52122 6.00283 2.99841 7.09725 3.13064 8.40071C3.24798 9.55735 3.85164 10.6858 4.98176 10.5714C5.74328 10.4935 6.21382 9.86165 6.19686 8.98189L5.36276 9.06649C4.90543 9.11294 4.60489 8.82442 4.55716 8.3518C4.50618 7.8576 4.74579 7.53585 5.20224 7.48862L6.77144 7.33026ZM8.7573 9.36509C8.86793 10.4546 9.39409 11.4645 10.4226 11.36C11.4508 11.2555 11.7638 10.161 11.6526 9.07076C11.5424 7.98038 11.0158 6.97135 9.98769 7.07578C8.95954 7.1803 8.64617 8.27472 8.7573 9.36509Z" fill="white"/>
</svg>
