<svg width="24" height="24" viewBox="0 0 24 24" fill="none" xmlns="http://www.w3.org/2000/svg">
<path fill-rule="evenodd" clip-rule="evenodd" d="M24 0V18.998C24 21.7605 21.7637 24 18.998 24H0V5.00197C0 2.23946 2.23631 0 5.00197 0H24Z" fill="#C60450"/>
<path d="M20.7114 12.5356C21.3283 12.4721 21.613 11.8453 21.5447 11.1649L21.0285 6.08427C20.9602 5.40404 20.554 4.84673 19.9371 4.90899C19.3197 4.97112 19.0343 5.60046 19.1045 6.28084L19.62 11.3589C19.689 12.0392 20.0939 12.5989 20.7114 12.5356Z" fill="white"/>
<path d="M21.9761 14.3078C21.9066 13.6274 21.3549 13.0988 20.7742 13.1574C20.1946 13.2158 19.7605 13.8451 19.829 14.5255C19.8992 15.2207 20.4508 15.7355 21.0298 15.6759C21.6107 15.6175 22.0465 15.0029 21.9761 14.3078Z" fill="white"/>
<path fill-rule="evenodd" clip-rule="evenodd" d="M10.1567 10.9954C10.6228 10.9484 10.9749 11.1081 11.2008 11.4877C11.7167 9.74902 12.981 8.62364 14.761 8.4434C17.364 8.1785 19.2949 10.1188 19.6258 13.3884C19.9586 16.6594 18.4579 18.9466 15.8536 19.2102C13.5521 19.4444 11.7761 17.955 11.1668 15.3471C10.6069 16.9338 9.38606 18.0512 7.65792 18.2264C4.64578 18.5335 2.68186 16.056 2.35602 12.8398C2.00962 9.43317 3.76322 6.76921 6.46726 6.49439C8.26803 6.31276 10.2674 7.00186 10.4278 8.57752C10.4918 9.2082 10.1604 9.68831 9.55542 9.75043C9.21918 9.78414 8.93656 9.60109 8.61102 9.39025C8.16816 9.10342 7.64587 8.76514 6.80109 8.85115C5.28134 9.00424 4.49713 10.6459 4.69548 12.6011C4.87149 14.336 5.77698 16.0287 7.47214 15.8571C8.61443 15.7402 9.32025 14.7925 9.29481 13.4728L8.04366 13.5997C7.35766 13.6694 6.90684 13.2366 6.83525 12.5277C6.75879 11.7864 7.1182 11.3038 7.80287 11.2329L10.1567 10.9954ZM13.1355 14.0476C13.3014 15.6819 14.0906 17.1967 15.6335 17.0399C17.1757 16.8833 17.6452 15.2415 17.4785 13.6061C17.3131 11.9706 16.5233 10.457 14.9811 10.6137C13.4388 10.7704 12.9688 12.4121 13.1355 14.0476Z" fill="white"/>
</svg>
