<svg width="64" height="64" viewBox="0 0 64 64" fill="none" xmlns="http://www.w3.org/2000/svg">
<g id="m/mime_text_doc/mime_text_doc_64x64">
<g id="64/baseshape">
<g id="64/baseshape_2">
<path id="OutsideBorder" d="M58 60C58 61.1046 57.1046 62 56 62H15C13.8954 62 13 61.1046 13 60V4C13 2.89543 13.8954 2 15 2H44L58 17V60Z" fill="#ECF0F4"/>
</g>
<path id="Combined Shape" fill-rule="evenodd" clip-rule="evenodd" d="M43.7353 10H18V12H43.7353V10ZM53 16H18V18H53V16ZM18 22H53V24H18V22ZM53 28H18V30H53V28ZM18 34H53V36H18V34ZM53 40H18V42H53V40ZM18 47H53V49H18V47ZM53 53H18V55H53V53Z" fill="#91A0AF"/>
</g>
<g id="64/corner">
<path id="InsideWhite" fill-rule="evenodd" clip-rule="evenodd" d="M44 17V2L58 17H44Z" fill="#D8E0E8"/>
</g>
<g id="64/chard/color/yellow">
<path id="Shape" d="M14 19V56L32 59V16L14 19Z" fill="#ECF0F4"/>
<path id="Chard" d="M30 18.4318V56.6364L6 53V22L30 18.4318Z" fill="#2B579A"/>
</g>
<g id="64/chard/letter/a">
<path id="W" fill-rule="evenodd" clip-rule="evenodd" d="M11.6048 46.12L7.03223 29.2H10.9922L13.3088 40.576L16.4642 29.152H19.6322L22.8349 40.576L25.1467 29.2H29.0107L24.4429 46.12H21.2269L18.0002 35.128L14.8208 46.12H11.6048Z" fill="white"/>
</g>
</g>
</svg>
