<svg width="16" height="16" xmlns="http://www.w3.org/2000/svg"><!--Generator: Sketch 50 (54983) - http://www.bohemiancoding.com/sketch--><g fill="none" fill-rule="evenodd"><path d="M15.5022727 7.09272643V1.9320941c0-.55936923-.4717444-.9320941-1.034209-.9320941H9.2788745c-.29030429 0-.54432054.01184149-.74390474.21032734L1.13221036 8.6264808c-.1995842.19848586-.1995842.5232809 0 .72176676l5.93309393 5.84631074c.1995842.1984859.52617652.1984859.72576072 0l7.40275939-7.36202094c.1995842-.19848586.3084483-.45110422.3084483-.73981093zm-2.3042903-4.65539559c.4173124 0 .7620488.34283921.7620488.75785509 0 .43306006-.3447364.77589927-.7620488.77589927-.4354564 0-.7801928-.34283921-.7801928-.77589927 0-.41501588.3447364-.75785509.7801928-.75785509z" fill="#91A0AF" fill-rule="nonzero"/><path d="M13.1979824 2.05840329c.6350407 0 1.1430732.50523673 1.1430732 1.13678264 0 .63154592-.5080325 1.15482682-1.1430732 1.15482682-.6350406 0-1.1612171-.5232809-1.1612171-1.15482682 0-.63154591.5261765-1.13678264 1.1612171-1.13678264zm0 .5774134c-.3265923 0-.5806086.25261837-.5806086.55936924 0 .32479505.2540163.57741341.5806086.57741341.3084483 0 .5624646-.25261836.5624646-.57741341 0-.30675087-.2540163-.55936924-.5624646-.55936924z" fill="#D8E0E8" fill-rule="nonzero"/><path fill="#ECF0F4" fill-rule="nonzero" d="M14.4680637 7.29121229L9.0792903 1.9320941 2.14827537 8.82496666l5.38877339 5.35911814z"/><path d="M4.04876985 9.18187965l2.15801941-2.08397512.37681939.39020791-2.1580194 2.08397512-.3768194-.39020791zm1.89452283 1.96042275l5.68932392-5.49411615.3768194.39020791-5.68932392 5.49411624-.3768194-.390208zm.94726142.9729134l4.708406-4.54685482.3768194.39020791-4.708406 4.54685481-.3768194-.3902079z" fill="#91A0AF"/></g></svg>