<svg width="64" height="64" viewBox="0 0 64 64" fill="none" xmlns="http://www.w3.org/2000/svg">
<g id="m/mime_bin_msi/mime_bin_msi_64x64">
<g id="64/baseshape">
<g id="64/baseshape_2">
<path id="OutsideBorder" d="M58 60C58 61.1046 57.1046 62 56 62H15C13.8954 62 13 61.1046 13 60V4C13 2.89543 13.8954 2 15 2H44L58 17V60Z" fill="#ECF0F4"/>
</g>
<path id="binary" fill-rule="evenodd" clip-rule="evenodd" d="M27.3571 10.3485L27.9685 9.72458V13.5C27.9685 13.7761 28.1924 14 28.4685 14C28.7446 14 28.9685 13.7761 28.9685 13.5V8.5C28.9685 8.0521 28.4249 7.83014 28.1114 8.15004L26.6429 9.64854C26.4496 9.84577 26.4528 10.1623 26.65 10.3556C26.8473 10.5489 27.1638 10.5457 27.3571 10.3485ZM31.65 10.3556C31.8473 10.5489 32.1638 10.5457 32.3571 10.3485L32.9685 9.72458V13.5C32.9685 13.7761 33.1924 14 33.4685 14C33.7446 14 33.9685 13.7761 33.9685 13.5V8.5C33.9685 8.0521 33.4249 7.83014 33.1114 8.15004L31.6429 9.64854C31.4496 9.84577 31.4528 10.1623 31.65 10.3556ZM32.3571 21.3485C32.1638 21.5457 31.8473 21.5489 31.65 21.3556C31.4528 21.1623 31.4496 20.8458 31.6429 20.6485L33.1114 19.15C33.4249 18.8301 33.9685 19.0521 33.9685 19.5V24.5C33.9685 24.7761 33.7446 25 33.4685 25C33.1924 25 32.9685 24.7761 32.9685 24.5V20.7246L32.3571 21.3485ZM31.65 31.3556C31.8473 31.5489 32.1638 31.5457 32.3571 31.3485L32.9685 30.7246V34.5C32.9685 34.7761 33.1924 35 33.4685 35C33.7446 35 33.9685 34.7761 33.9685 34.5V29.5C33.9685 29.0521 33.4249 28.8301 33.1114 29.15L31.6429 30.6485C31.4496 30.8458 31.4528 31.1623 31.65 31.3556ZM32.3571 42.3485C32.1638 42.5457 31.8473 42.5489 31.65 42.3556C31.4528 42.1623 31.4496 41.8458 31.6429 41.6485L33.1114 40.15C33.4249 39.8301 33.9685 40.0521 33.9685 40.5V45.5C33.9685 45.7761 33.7446 46 33.4685 46C33.1924 46 32.9685 45.7761 32.9685 45.5V41.7246L32.3571 42.3485ZM31.65 53.3556C31.8473 53.5489 32.1638 53.5457 32.3571 53.3485L32.9685 52.7246V56.5C32.9685 56.7761 33.1924 57 33.4685 57C33.7446 57 33.9685 56.7761 33.9685 56.5V51.5C33.9685 51.0521 33.4249 50.8301 33.1114 51.15L31.6429 52.6485C31.4496 52.8458 31.4528 53.1623 31.65 53.3556ZM19.3571 53.3485C19.1638 53.5457 18.8473 53.5489 18.65 53.3556C18.4528 53.1623 18.4496 52.8458 18.6429 52.6485L20.1114 51.15C20.4249 50.8301 20.9685 51.0521 20.9685 51.5V56.5C20.9685 56.7761 20.7446 57 20.4685 57C20.1924 57 19.9685 56.7761 19.9685 56.5V52.7246L19.3571 53.3485ZM37.3571 10.3485L37.9685 9.72458V13.5C37.9685 13.7761 38.1924 14 38.4685 14C38.7446 14 38.9685 13.7761 38.9685 13.5V8.5C38.9685 8.0521 38.4249 7.83014 38.1114 8.15004L36.6429 9.64854C36.4496 9.84577 36.4528 10.1623 36.65 10.3556C36.8473 10.5489 37.1638 10.5457 37.3571 10.3485ZM37.3571 21.3485C37.1638 21.5457 36.8473 21.5489 36.65 21.3556C36.4528 21.1623 36.4496 20.8458 36.6429 20.6485L38.1114 19.15C38.4249 18.8301 38.9685 19.0521 38.9685 19.5V24.5C38.9685 24.7761 38.7446 25 38.4685 25C38.1924 25 37.9685 24.7761 37.9685 24.5V20.7246L37.3571 21.3485ZM44.65 31.3556C44.8473 31.5489 45.1638 31.5457 45.3571 31.3485L45.9685 30.7246V34.5C45.9685 34.7761 46.1924 35 46.4685 35C46.7446 35 46.9685 34.7761 46.9685 34.5V29.5C46.9685 29.0521 46.4249 28.8301 46.1114 29.15L44.6429 30.6485C44.4496 30.8458 44.4528 31.1623 44.65 31.3556ZM37.3571 42.3485C37.1638 42.5457 36.8473 42.5489 36.65 42.3556C36.4528 42.1623 36.4496 41.8458 36.6429 41.6485L38.1114 40.15C38.4249 39.8301 38.9685 40.0521 38.9685 40.5V45.5C38.9685 45.7761 38.7446 46 38.4685 46C38.1924 46 37.9685 45.7761 37.9685 45.5V41.7246L37.3571 42.3485ZM36.65 53.3556C36.8473 53.5489 37.1638 53.5457 37.3571 53.3485L37.9685 52.7246V56.5C37.9685 56.7761 38.1924 57 38.4685 57C38.7446 57 38.9685 56.7761 38.9685 56.5V51.5C38.9685 51.0521 38.4249 50.8301 38.1114 51.15L36.6429 52.6485C36.4496 52.8458 36.4528 53.1623 36.65 53.3556ZM42.3571 53.3485C42.1638 53.5457 41.8473 53.5489 41.65 53.3556C41.4528 53.1623 41.4496 52.8458 41.6429 52.6485L43.1114 51.15C43.4249 50.8301 43.9685 51.0521 43.9685 51.5V56.5C43.9685 56.7761 43.7446 57 43.4685 57C43.1924 57 42.9685 56.7761 42.9685 56.5V52.7246L42.3571 53.3485ZM41.65 21.3556C41.8473 21.5489 42.1638 21.5457 42.3571 21.3485L42.9685 20.7246V24.5C42.9685 24.7761 43.1924 25 43.4685 25C43.7446 25 43.9685 24.7761 43.9685 24.5V19.5C43.9685 19.0521 43.4249 18.8301 43.1114 19.15L41.6429 20.6485C41.4496 20.8458 41.4528 21.1623 41.65 21.3556ZM50.3571 31.3485C50.1638 31.5457 49.8473 31.5489 49.65 31.3556C49.4528 31.1623 49.4496 30.8458 49.6429 30.6485L51.1114 29.15C51.4249 28.8301 51.9685 29.0521 51.9685 29.5V34.5C51.9685 34.7761 51.7446 35 51.4685 35C51.1924 35 50.9685 34.7761 50.9685 34.5V30.7246L50.3571 31.3485ZM49.65 42.3556C49.8473 42.5489 50.1638 42.5457 50.3571 42.3485L50.9685 41.7246V45.5C50.9685 45.7761 51.1924 46 51.4685 46C51.7446 46 51.9685 45.7761 51.9685 45.5V40.5C51.9685 40.0521 51.4249 39.8301 51.1114 40.15L49.6429 41.6485C49.4496 41.8458 49.4528 42.1623 49.65 42.3556ZM48 19H51C51.5523 19 52 19.4477 52 20V24C52 24.5523 51.5523 25 51 25H48C47.4477 25 47 24.5523 47 24V20C47 19.4477 47.4477 19 48 19ZM41 29H38C37.4477 29 37 29.4477 37 30V34C37 34.5523 37.4477 35 38 35H41C41.5523 35 42 34.5523 42 34V30C42 29.4477 41.5523 29 41 29ZM43 40H46C46.5523 40 47 40.4477 47 41V45C47 45.5523 46.5523 46 46 46H43C42.4477 46 42 45.5523 42 45V41C42 40.4477 42.4477 40 43 40ZM51 51H48C47.4477 51 47 51.4477 47 52V56C47 56.5523 47.4477 57 48 57H51C51.5523 57 52 56.5523 52 56V52C52 51.4477 51.5523 51 51 51ZM25 51H28C28.5523 51 29 51.4477 29 52V56C29 56.5523 28.5523 57 28 57H25C24.4477 57 24 56.5523 24 56V52C24 51.4477 24.4477 51 25 51ZM23 8H20C19.4477 8 19 8.44771 19 9V13C19 13.5523 19.4477 14 20 14H23C23.5523 14 24 13.5523 24 13V9C24 8.44771 23.5523 8 23 8ZM48 20V24H51V20H48ZM38 34V30H41V34H38ZM43 41V45H46V41H43ZM48 56V52H51V56H48ZM25 52V56H28V52H25ZM20 13V9H23V13H20Z" fill="#91A0AF"/>
</g>
<g id="64/corner">
<path id="InsideWhite" fill-rule="evenodd" clip-rule="evenodd" d="M44 17V2L58 17H44Z" fill="#D8E0E8"/>
</g>
<g id="64/chard/color/yellow">
<path id="Shape" d="M14 19V56L32 59V16L14 19Z" fill="#ECF0F4"/>
<path id="Chard" fill-rule="evenodd" clip-rule="evenodd" d="M30 18.4318V56.6364L6 53V22L30 18.4318Z" fill="#474744"/>
</g>
<g id="64/chard/letter/a">
<path id="E" fill-rule="evenodd" clip-rule="evenodd" d="M11.976 46V29.2H24.648V32.488H15.648V35.896H23.568V39.184H15.648V42.712H24.768V46H11.976Z" fill="white"/>
</g>
</g>
</svg>
