<svg width="32" height="32" viewBox="0 0 32 32" fill="none" xmlns="http://www.w3.org/2000/svg">
<g id="m/mime_bin_msi/mime_bin_msi_32x32">
<g id="32/baseshape">
<g id="32/baseshape_2">
<path id="OutsideBorder" d="M29 30C29 30.5523 28.5523 31 28 31H7C6.44772 31 6 30.5523 6 30V2C6 1.44772 6.44772 1 7 1H22L29 9V30Z" fill="#ECF0F4"/>
</g>
<path id="binary" fill-rule="evenodd" clip-rule="evenodd" d="M22.6679 7.54712C22.8836 7.71962 23.1327 7.67295 23.3718 7.50608L24 6.92539V11.5C24 11.7761 24.2239 12 24.5 12C24.7761 12 25 11.7761 25 11.5V5.5C25 5.02736 24.2953 4.81858 24 5.18765L22.5899 6.84433C22.4173 7.05996 22.4523 7.37461 22.6679 7.54712ZM13 5H10C9.44772 5 9 5.44771 9 6V11C9 11.5523 9.44772 12 10 12H13C13.5523 12 14 11.5523 14 11V6C14 5.44771 13.5523 5 13 5ZM19 13H16C15.4477 13 15 13.4477 15 14V19C15 19.5523 15.4477 20 16 20H19C19.5523 20 20 19.5523 20 19V14C20 13.4477 19.5523 13 19 13ZM10 21H13C13.5523 21 14 21.4477 14 22V27C14 27.5523 13.5523 28 13 28H10C9.44772 28 9 27.5523 9 27V22C9 21.4477 9.44772 21 10 21ZM10.6679 15.5471C10.8836 15.7196 11.1327 15.6729 11.3718 15.5061L12 14.9254V19.5C12 19.7761 12.2239 20 12.5 20C12.7761 20 13 19.7761 13 19.5V13.5C13 13.0274 12.2953 12.8186 12 13.1876L10.5899 14.8443C10.4173 15.06 10.4523 15.3746 10.6679 15.5471ZM23.3718 15.5061C23.1327 15.6729 22.8836 15.7196 22.6679 15.5471C22.4523 15.3746 22.4173 15.06 22.5899 14.8443L24 13.1876C24.2953 12.8186 25 13.0274 25 13.5V19.5C25 19.7761 24.7761 20 24.5 20C24.2239 20 24 19.7761 24 19.5V14.9254L23.3718 15.5061ZM17.3718 7.50608C17.1327 7.67295 16.8836 7.71962 16.6679 7.54712C16.4523 7.37461 16.4173 7.05996 16.5899 6.84433L18 5.18765C18.2953 4.81858 19 5.02736 19 5.5V11.5C19 11.7761 18.7761 12 18.5 12C18.2239 12 18 11.7761 18 11.5V6.92539L17.3718 7.50608ZM22.6679 23.5471C22.8836 23.7196 23.1327 23.6729 23.3718 23.5061L24 22.9254V27.5C24 27.7761 24.2239 28 24.5 28C24.7761 28 25 27.7761 25 27.5V21.5C25 21.0274 24.2953 20.8186 24 21.1876L22.5899 22.8443C22.4173 23.06 22.4523 23.3746 22.6679 23.5471ZM17.3718 23.5061C17.1327 23.6729 16.8836 23.7196 16.6679 23.5471C16.4523 23.3746 16.4173 23.06 16.5899 22.8443L18 21.1876C18.2953 20.8186 19 21.0274 19 21.5V27.5C19 27.7761 18.7761 28 18.5 28C18.2239 28 18 27.7761 18 27.5V22.9254L17.3718 23.5061ZM10 11V6H13V11H10ZM16 14V19H19V14H16ZM10 27V22H13V27H10Z" fill="#91A0AF"/>
</g>
<g id="32/corner">
<path id="InsideWhite" fill-rule="evenodd" clip-rule="evenodd" d="M22 1L29 9H22V1Z" fill="#D8E0E8"/>
</g>
<g id="64/chard/color/yellow">
<path id="Shape" d="M7 9.5V28L16 29.5V8L7 9.5Z" fill="#ECF0F4"/>
<path id="Chard" fill-rule="evenodd" clip-rule="evenodd" d="M15 9.2159V28.3182L3 26.5V11L15 9.2159Z" fill="#474744"/>
</g>
<g id="64/chard/letter/a">
<path id="E" fill-rule="evenodd" clip-rule="evenodd" d="M5.98801 23V14.6H12.324V16.244H7.82401V17.948H11.784V19.592H7.82401V21.356H12.384V23H5.98801Z" fill="white"/>
</g>
</g>
</svg>
