<svg width="128" height="128" viewBox="0 0 128 128" fill="none" xmlns="http://www.w3.org/2000/svg">
<g id="m/mime_bin_msi/mime_bin_msi_128x128">
<g id="64/baseshape">
<g id="64/baseshape_2">
<path id="OutsideBorder" d="M116 120C116 122.209 114.209 124 112 124H30C27.7909 124 26 122.209 26 120V8C26 5.79086 27.7909 4 30 4H88L116 34V120Z" fill="#ECF0F4"/>
</g>
<path id="binary" fill-rule="evenodd" clip-rule="evenodd" d="M54.7142 20.6969L55.937 19.4492V27C55.937 27.5523 56.3847 28 56.937 28C57.4893 28 57.937 27.5523 57.937 27V17C57.937 16.1042 56.8498 15.6603 56.2228 16.3001L53.2858 19.2971C52.8992 19.6915 52.9056 20.3247 53.3001 20.7112C53.6945 21.0978 54.3277 21.0914 54.7142 20.6969ZM63.3001 20.7112C63.6945 21.0978 64.3277 21.0914 64.7142 20.6969L65.937 19.4492V27C65.937 27.5523 66.3847 28 66.937 28C67.4893 28 67.937 27.5523 67.937 27V17C67.937 16.1042 66.8498 15.6603 66.2228 16.3001L63.2858 19.2971C62.8992 19.6915 62.9056 20.3247 63.3001 20.7112ZM64.7142 42.6969C64.3277 43.0914 63.6945 43.0978 63.3001 42.7112C62.9056 42.3247 62.8992 41.6915 63.2858 41.2971L66.2228 38.3001C66.8498 37.6603 67.937 38.1042 67.937 39V49C67.937 49.5523 67.4893 50 66.937 50C66.3847 50 65.937 49.5523 65.937 49V41.4492L64.7142 42.6969ZM63.3001 62.7112C63.6945 63.0978 64.3277 63.0914 64.7142 62.6969L65.937 61.4492V69C65.937 69.5523 66.3847 70 66.937 70C67.4893 70 67.937 69.5523 67.937 69V59C67.937 58.1042 66.8498 57.6603 66.2228 58.3001L63.2858 61.2971C62.8992 61.6915 62.9056 62.3247 63.3001 62.7112ZM64.7142 84.6969C64.3277 85.0914 63.6945 85.0978 63.3001 84.7112C62.9056 84.3247 62.8992 83.6915 63.2858 83.2971L66.2228 80.3001C66.8498 79.6603 67.937 80.1042 67.937 81V91C67.937 91.5523 67.4893 92 66.937 92C66.3847 92 65.937 91.5523 65.937 91V83.4492L64.7142 84.6969ZM63.3001 106.711C63.6945 107.098 64.3277 107.091 64.7142 106.697L65.937 105.449V113C65.937 113.552 66.3847 114 66.937 114C67.4893 114 67.937 113.552 67.937 113V103C67.937 102.104 66.8498 101.66 66.2228 102.3L63.2858 105.297C62.8992 105.692 62.9056 106.325 63.3001 106.711ZM38.7142 106.697C38.3277 107.091 37.6945 107.098 37.3001 106.711C36.9056 106.325 36.8992 105.692 37.2858 105.297L40.2228 102.3C40.8498 101.66 41.937 102.104 41.937 103V113C41.937 113.552 41.4893 114 40.937 114C40.3847 114 39.937 113.552 39.937 113V105.449L38.7142 106.697ZM74.7142 20.6969L75.937 19.4492V27C75.937 27.5523 76.3847 28 76.937 28C77.4893 28 77.937 27.5523 77.937 27V17C77.937 16.1042 76.8498 15.6603 76.2228 16.3001L73.2858 19.2971C72.8992 19.6915 72.9056 20.3247 73.3001 20.7112C73.6945 21.0978 74.3277 21.0914 74.7142 20.6969ZM74.7142 42.6969C74.3277 43.0914 73.6945 43.0978 73.3001 42.7112C72.9056 42.3247 72.8992 41.6915 73.2858 41.2971L76.2228 38.3001C76.8498 37.6603 77.937 38.1042 77.937 39V49C77.937 49.5523 77.4893 50 76.937 50C76.3847 50 75.937 49.5523 75.937 49V41.4492L74.7142 42.6969ZM89.3001 62.7112C89.6945 63.0978 90.3277 63.0914 90.7142 62.6969L91.937 61.4492V69C91.937 69.5523 92.3847 70 92.937 70C93.4893 70 93.937 69.5523 93.937 69V59C93.937 58.1042 92.8498 57.6603 92.2228 58.3001L89.2858 61.2971C88.8992 61.6915 88.9056 62.3247 89.3001 62.7112ZM74.7142 84.6969C74.3277 85.0914 73.6945 85.0978 73.3001 84.7112C72.9056 84.3247 72.8992 83.6915 73.2858 83.2971L76.2228 80.3001C76.8498 79.6603 77.937 80.1042 77.937 81V91C77.937 91.5523 77.4893 92 76.937 92C76.3847 92 75.937 91.5523 75.937 91V83.4492L74.7142 84.6969ZM73.3001 106.711C73.6945 107.098 74.3277 107.091 74.7142 106.697L75.937 105.449V113C75.937 113.552 76.3847 114 76.937 114C77.4893 114 77.937 113.552 77.937 113V103C77.937 102.104 76.8498 101.66 76.2228 102.3L73.2858 105.297C72.8992 105.692 72.9056 106.325 73.3001 106.711ZM84.7142 106.697C84.3277 107.091 83.6945 107.098 83.3001 106.711C82.9056 106.325 82.8992 105.692 83.2858 105.297L86.2228 102.3C86.8498 101.66 87.937 102.104 87.937 103V113C87.937 113.552 87.4893 114 86.937 114C86.3847 114 85.937 113.552 85.937 113V105.449L84.7142 106.697ZM83.3001 42.7112C83.6945 43.0978 84.3277 43.0914 84.7142 42.6969L85.937 41.4492V49C85.937 49.5523 86.3847 50 86.937 50C87.4893 50 87.937 49.5523 87.937 49V39C87.937 38.1042 86.8498 37.6603 86.2228 38.3001L83.2858 41.2971C82.8992 41.6915 82.9056 42.3247 83.3001 42.7112ZM100.714 62.6969C100.328 63.0914 99.6945 63.0978 99.3001 62.7112C98.9056 62.3247 98.8992 61.6915 99.2858 61.2971L102.223 58.3001C102.85 57.6603 103.937 58.1042 103.937 59V69C103.937 69.5523 103.489 70 102.937 70C102.385 70 101.937 69.5523 101.937 69V61.4492L100.714 62.6969ZM99.3001 84.7112C99.6945 85.0978 100.328 85.0914 100.714 84.6969L101.937 83.4492V91C101.937 91.5523 102.385 92 102.937 92C103.489 92 103.937 91.5523 103.937 91V81C103.937 80.1042 102.85 79.6603 102.223 80.3001L99.2858 83.2971C98.8992 83.6915 98.9056 84.3247 99.3001 84.7112ZM96 38H102C103.105 38 104 38.8954 104 40V48C104 49.1046 103.105 50 102 50H96C94.8954 50 94 49.1046 94 48V40C94 38.8954 94.8954 38 96 38ZM82 58H76C74.8954 58 74 58.8954 74 60V68C74 69.1046 74.8954 70 76 70H82C83.1046 70 84 69.1046 84 68V60C84 58.8954 83.1046 58 82 58ZM86 80H92C93.1046 80 94 80.8954 94 82V90C94 91.1046 93.1046 92 92 92H86C84.8954 92 84 91.1046 84 90V82C84 80.8954 84.8954 80 86 80ZM102 102H96C94.8954 102 94 102.895 94 104V112C94 113.105 94.8954 114 96 114H102C103.105 114 104 113.105 104 112V104C104 102.895 103.105 102 102 102ZM50 102H56C57.1046 102 58 102.895 58 104V112C58 113.105 57.1046 114 56 114H50C48.8954 114 48 113.105 48 112V104C48 102.895 48.8954 102 50 102ZM46 16H40C38.8954 16 38 16.8954 38 18V26C38 27.1046 38.8954 28 40 28H46C47.1046 28 48 27.1046 48 26V18C48 16.8954 47.1046 16 46 16ZM96 40V48H102V40H96ZM76 68V60H82V68H76ZM86 82V90H92V82H86ZM96 112V104H102V112H96ZM50 104V112H56V104H50ZM40 26V18H46V26H40Z" fill="#91A0AF"/>
</g>
<g id="64/corner">
<path id="InsideWhite" fill-rule="evenodd" clip-rule="evenodd" d="M88 34V4L116 34H88Z" fill="#D8E0E8"/>
</g>
<g id="64/chard/color/yellow">
<path id="Shape" d="M28 38V112L64 118V32L28 38Z" fill="#ECF0F4"/>
<path id="Chard" fill-rule="evenodd" clip-rule="evenodd" d="M60 36.8636V113.273L12 106V44L60 36.8636Z" fill="#474744"/>
</g>
<g id="64/chard/letter/a">
<path id="E" fill-rule="evenodd" clip-rule="evenodd" d="M23.952 92V58.4H49.296V64.976H31.296V71.792H47.136V78.368H31.296V85.424H49.536V92H23.952Z" fill="white"/>
</g>
</g>
</svg>
