<svg width="48" height="48" viewBox="0 0 48 48" fill="none" xmlns="http://www.w3.org/2000/svg">
<g id="m/mime_bin_msi/mime_bin_msi_48x48">
<g id="48/baseshape">
<g id="48/baseshape_2">
<path id="OutsideBorder" d="M44 44C44 45.1046 43.1046 46 42 46H12C10.8954 46 10 45.1046 10 44V4C10 2.89543 10.8954 2 12 2H34L44 12V44Z" fill="#ECF0F4"/>
</g>
<path id="binary" fill-rule="evenodd" clip-rule="evenodd" d="M20.854 7.853L21 7.707V10.5C21 10.776 21.224 11 21.5 11C21.776 11 22 10.776 22.001 10.5V6.5C22.001 6.298 21.879 6.115 21.692 6.038C21.506 5.959 21.291 6.003 21.147 6.146L20.147 7.146C19.952 7.341 19.952 7.658 20.147 7.853C20.342 8.048 20.659 8.048 20.854 7.853ZM17.5 6C17.776 6 18 6.224 18 6.5V10.5C18 10.776 17.776 11 17.5 11H14.5C14.224 11 14 10.776 14 10.5V6.5C14 6.224 14.224 6 14.5 6H17.5ZM15.147 14.146C15.29 14.002 15.507 13.959 15.692 14.038C15.879 14.115 16.001 14.298 16.001 14.5V18.5C16 18.776 15.776 19 15.5 19C15.224 19 15 18.776 15 18.5V15.707L14.854 15.853C14.659 16.048 14.342 16.048 14.147 15.853C13.952 15.658 13.952 15.341 14.147 15.146L15.147 14.146ZM17 10H15V7H17V10ZM18.5 14H21.5C21.776 14 22 14.224 22 14.5V18.5C22 18.776 21.776 19 21.5 19H18.5C18.224 19 18 18.776 18 18.5V14.5C18 14.224 18.224 14 18.5 14ZM21 18H19V15H21V18ZM25 15.707L24.854 15.853C24.659 16.048 24.342 16.048 24.147 15.853C23.952 15.658 23.952 15.341 24.147 15.146L25.147 14.146C25.291 14.002 25.506 13.959 25.692 14.038C25.879 14.115 26.001 14.298 26.001 14.5V18.5C26 18.776 25.776 19 25.5 19C25.224 19 25 18.776 25 18.5V15.707ZM25 7.707L24.854 7.853C24.659 8.048 24.342 8.048 24.147 7.853C23.952 7.658 23.952 7.341 24.147 7.146L25.147 6.146C25.291 6.003 25.506 5.959 25.692 6.038C25.879 6.115 26.001 6.298 26.001 6.5V10.5C26 10.776 25.776 11 25.5 11C25.224 11 25 10.776 25 10.5V7.707ZM28.854 7.853L29 7.707V10.5C29 10.776 29.224 11 29.5 11C29.776 11 30 10.776 30.001 10.5V6.5C30.001 6.298 29.879 6.115 29.692 6.038C29.506 5.959 29.29 6.003 29.147 6.146L28.147 7.146C27.952 7.341 27.952 7.658 28.147 7.853C28.342 8.048 28.659 8.048 28.854 7.853ZM29 15.707L28.854 15.853C28.659 16.048 28.342 16.048 28.147 15.853C27.952 15.658 27.952 15.341 28.147 15.146L29.147 14.146C29.29 14.002 29.506 13.959 29.692 14.038C29.879 14.115 30.001 14.298 30.001 14.5V18.5C30 18.776 29.776 19 29.5 19C29.224 19 29 18.776 29 18.5V15.707ZM33.692 14.038C33.507 13.959 33.29 14.002 33.147 14.146L32.147 15.146C31.952 15.341 31.952 15.658 32.147 15.853C32.342 16.048 32.659 16.048 32.854 15.853L33 15.707V18.5C33 18.776 33.224 19 33.5 19C33.776 19 34 18.776 34.001 18.5V14.5C34.001 14.298 33.879 14.115 33.692 14.038ZM36.5 14H39.5C39.776 14 40 14.224 40 14.5V18.5C40 18.776 39.776 19 39.5 19H36.5C36.224 19 36 18.776 36 18.5V14.5C36 14.224 36.224 14 36.5 14ZM15.692 38.038C15.507 37.959 15.29 38.002 15.147 38.146L14.147 39.146C13.952 39.341 13.952 39.658 14.147 39.853C14.342 40.048 14.659 40.048 14.854 39.853L15 39.707V42.5C15 42.776 15.224 43 15.5 43C15.776 43 16 42.776 16.001 42.5V38.5C16.001 38.298 15.879 38.115 15.692 38.038ZM17.5 30C17.776 30 18 30.224 18 30.5V34.5C18 34.776 17.776 35 17.5 35H14.5C14.224 35 14 34.776 14 34.5V30.5C14 30.224 14.224 30 14.5 30H17.5ZM21.5 38H18.5C18.224 38 18 38.224 18 38.5V42.5C18 42.776 18.224 43 18.5 43H21.5C21.776 43 22 42.776 22 42.5V38.5C22 38.224 21.776 38 21.5 38ZM25 39.707L24.854 39.853C24.659 40.048 24.342 40.048 24.147 39.853C23.952 39.658 23.952 39.341 24.147 39.146L25.147 38.146C25.291 38.002 25.506 37.959 25.692 38.038C25.879 38.115 26.001 38.298 26.001 38.5V42.5C26 42.776 25.776 43 25.5 43C25.224 43 25 42.776 25 42.5V39.707ZM20.854 31.853L21 31.707V34.5C21 34.776 21.224 35 21.5 35C21.776 35 22 34.776 22.001 34.5V30.5C22.001 30.298 21.879 30.115 21.692 30.038C21.506 29.959 21.291 30.003 21.147 30.146L20.147 31.146C19.952 31.341 19.952 31.658 20.147 31.853C20.342 32.048 20.659 32.048 20.854 31.853ZM25 31.707L24.854 31.853C24.659 32.048 24.342 32.048 24.147 31.853C23.952 31.658 23.952 31.341 24.147 31.146L25.147 30.146C25.291 30.003 25.506 29.959 25.692 30.038C25.879 30.115 26.001 30.298 26.001 30.5V34.5C26 34.776 25.776 35 25.5 35C25.224 35 25 34.776 25 34.5V31.707ZM28.854 31.853L29 31.707V34.5C29 34.776 29.224 35 29.5 35C29.776 35 30 34.776 30.001 34.5V30.5C30.001 30.298 29.879 30.115 29.692 30.038C29.506 29.959 29.29 30.003 29.147 30.146L28.147 31.146C27.952 31.341 27.952 31.658 28.147 31.853C28.342 32.048 28.659 32.048 28.854 31.853ZM29 39.707L28.854 39.853C28.659 40.048 28.342 40.048 28.147 39.853C27.952 39.658 27.952 39.341 28.147 39.146L29.147 38.146C29.29 38.002 29.506 37.959 29.692 38.038C29.879 38.115 30.001 38.298 30.001 38.5V42.5C30 42.776 29.776 43 29.5 43C29.224 43 29 42.776 29 42.5V39.707ZM33.692 38.038C33.507 37.959 33.29 38.002 33.147 38.146L32.147 39.146C31.952 39.341 31.952 39.658 32.147 39.853C32.342 40.048 32.659 40.048 32.854 39.853L33 39.707V42.5C33 42.776 33.224 43 33.5 43C33.776 43 34 42.776 34.001 42.5V38.5C34.001 38.298 33.879 38.115 33.692 38.038ZM35.5 30C35.776 30 36 30.224 36 30.5V34.5C36 34.776 35.776 35 35.5 35H32.5C32.224 35 32 34.776 32 34.5V30.5C32 30.224 32.224 30 32.5 30H35.5ZM39.5 38H36.5C36.224 38 36 38.224 36 38.5V42.5C36 42.776 36.224 43 36.5 43H39.5C39.776 43 40 42.776 40 42.5V38.5C40 38.224 39.776 38 39.5 38ZM39 31.707L38.854 31.853C38.659 32.048 38.342 32.048 38.147 31.853C37.952 31.658 37.952 31.341 38.147 31.146L39.147 30.146C39.291 30.003 39.506 29.959 39.692 30.038C39.879 30.115 40.001 30.298 40.001 30.5V34.5C40 34.776 39.776 35 39.5 35C39.224 35 39 34.776 39 34.5V31.707ZM25.692 22.038C25.507 21.959 25.29 22.002 25.147 22.146L24.147 23.146C23.952 23.341 23.952 23.658 24.147 23.853C24.342 24.048 24.659 24.048 24.854 23.853L25 23.707V26.5C25 26.776 25.224 27 25.5 27C25.776 27 26 26.776 26.001 26.5V22.5C26.001 22.298 25.879 22.115 25.692 22.038ZM28.5 22H31.5C31.776 22 32 22.224 32 22.5V26.5C32 26.776 31.776 27 31.5 27H28.5C28.224 27 28 26.776 28 26.5V22.5C28 22.224 28.224 22 28.5 22ZM34.854 23.853L35 23.707V26.5C35 26.776 35.224 27 35.5 27C35.776 27 36 26.776 36.001 26.5V22.5C36.001 22.298 35.879 22.115 35.692 22.038C35.506 21.959 35.291 22.002 35.147 22.146L34.147 23.146C33.952 23.341 33.952 23.658 34.147 23.853C34.342 24.048 34.659 24.048 34.854 23.853ZM39 23.707L38.854 23.853C38.659 24.048 38.342 24.048 38.147 23.853C37.952 23.658 37.952 23.341 38.147 23.146L39.147 22.146C39.29 22.002 39.506 21.959 39.692 22.038C39.879 22.115 40.001 22.298 40.001 22.5V26.5C40 26.776 39.776 27 39.5 27C39.224 27 39 26.776 39 26.5V23.707ZM17 34H15V31H17V34ZM19 42H21V39H19V42ZM35 34H33V31H35V34ZM37 42H39V39H37V42ZM31 26H29V23H31V26ZM37 18H39V15H37V18Z" fill="#91A0AF"/>
</g>
<g id="48/corner">
<path id="InsideWhite" fill-rule="evenodd" clip-rule="evenodd" d="M34 2L44 12H34V2Z" fill="#D8E0E8"/>
</g>
<g id="24/chard/color/yellow">
<path id="Shape" d="M14 12V42L24 44V10L14 12Z" fill="#ECF0F4"/>
<path id="Chard" fill-rule="evenodd" clip-rule="evenodd" d="M22 12V42L2 39V15L22 12Z" fill="#474744"/>
</g>
<g id="24/chard/letter/z">
<path id="E" fill-rule="evenodd" clip-rule="evenodd" d="M6.97998 34V20H17.54V22.74H10.04V25.58H16.64V28.32H10.04V31.26H17.64V34H6.97998Z" fill="white"/>
</g>
</g>
</svg>
