<svg width="16" height="16" viewBox="0 0 16 16" fill="none" xmlns="http://www.w3.org/2000/svg">
<g id="m/mime_bin_msi/mime_bin_msi_16x16">
<g id="16/baseshape">
<g id="16/baseshape_2">
<path id="OutsideBorder" d="M3 0V16H16V4L12 0H3Z" fill="#ECF0F4"/>
</g>
<path id="binary" fill-rule="evenodd" clip-rule="evenodd" d="M12 4.70789L11.854 4.85389C11.659 5.04889 11.342 5.04889 11.147 4.85389C10.952 4.65889 10.952 4.34189 11.147 4.14689L12.147 3.14689C12.291 3.00389 12.506 2.95989 12.692 3.03889C12.879 3.11589 13.001 3.29889 13.001 3.50089V7.50089C13 7.77689 12.776 8.00089 12.5 8.00089C12.224 8.00089 12 7.77689 12 7.50089V4.70789ZM9.5 3.00089C9.776 3.00089 10 3.22489 10 3.50089V7.50089C10 7.77689 9.776 8.00089 9.5 8.00089H6.5C6.224 8.00089 6 7.77689 6 7.50089V3.50089C6 3.22489 6.224 3.00089 6.5 3.00089H9.5ZM7.147 9.14689C7.29 9.00289 7.507 8.95989 7.692 9.03889C7.879 9.11589 8.001 9.29889 8.001 9.50089V13.5009C8 13.7769 7.776 14.0009 7.5 14.0009C7.224 14.0009 7 13.7769 7 13.5009V10.7079L6.854 10.8539C6.659 11.0489 6.342 11.0489 6.147 10.8539C5.952 10.6589 5.952 10.3419 6.147 10.1469L7.147 9.14689ZM9 7.00089H7V4.00089H9V7.00089ZM9.5 9.00089H12.5C12.776 9.00089 13 9.22489 13 9.50089V13.5009C13 13.7769 12.776 14.0009 12.5 14.0009H9.5C9.224 14.0009 9 13.7769 9 13.5009V9.50089C9 9.22489 9.224 9.00089 9.5 9.00089ZM12 13.0009H10V10.0009H12V13.0009Z" fill="#91A0AF"/>
</g>
<g id="16/corner">
<path id="InsideWhite" d="M12 4V0V0L16 4V4H12Z" fill="#D8E0E8"/>
</g>
<g id="16/chard/color/aqua">
<path id="Shape" fill-rule="evenodd" clip-rule="evenodd" d="M4 2.66077V14.2205L8 15V2L4 2.66077Z" fill="#ECF0F4"/>
<path id="Chard" fill-rule="evenodd" clip-rule="evenodd" d="M0 4L7 3V14L0 12.9V4Z" fill="#474744"/>
</g>
<g id="16/chard/letter/a">
<path id="E" fill-rule="evenodd" clip-rule="evenodd" d="M1.82666 10.5V5.83333H5.34666V6.74667H2.84666V7.69333H5.04666V8.60667H2.84666V9.58667H5.37999V10.5H1.82666Z" fill="white"/>
</g>
</g>
</svg>
