<svg width="32" height="32" viewBox="0 0 32 32" fill="none" xmlns="http://www.w3.org/2000/svg">
<g id="m/mime_pres_ppt/mime_pres_ppt_32x32">
<g id="32/baseshape">
<g id="32/baseshape_2">
<path id="OutsideBorder" d="M29 30C29 30.5523 28.5523 31 28 31H7C6.44772 31 6 30.5523 6 30V2C6 1.44772 6.44772 1 7 1H22L29 9V30Z" fill="#ECF0F4"/>
</g>
<g id="Group">
<path id="Combined Shape" fill-rule="evenodd" clip-rule="evenodd" d="M25 12.25C25 8.77778 22.265 6 18.8462 6V12.25H25ZM25 20H10V21H25V20ZM25 23H10V24H25V23ZM10 26H25V27H10V26Z" fill="#F5BA9D"/>
<path id="Combined Shape_2" d="M17.6153 7.28433V13.5H22.5045C22.1984 16.3125 19.8507 18.5 16.9999 18.5C13.9411 18.5 11.4614 15.9816 11.4614 12.875C11.4614 9.7684 13.9411 7.25 16.9999 7.25C17.2079 7.25 17.4132 7.26165 17.6153 7.28433Z" fill="#91A0AF"/>
</g>
</g>
<g id="32/corner">
<path id="InsideWhite" fill-rule="evenodd" clip-rule="evenodd" d="M22 1L29 9H22V1Z" fill="#D8E0E8"/>
</g>
<g id="64/chard/color/yellow">
<path id="Shape" d="M7 9.5V28L16 29.5V8L7 9.5Z" fill="#ECF0F4"/>
<path id="Chard" d="M15 9.2159V28.3182L3 26.5V11L15 9.2159Z" fill="#D04727"/>
</g>
<g id="64/chard/letter/a">
<path id="P" fill-rule="evenodd" clip-rule="evenodd" d="M6 23V14.6H9.432C11.436 14.6 12.648 15.788 12.648 17.504V17.528C12.648 19.472 11.136 20.48 9.252 20.48H7.848V23H6ZM7.84801 18.836H9.31201C10.236 18.836 10.776 18.284 10.776 17.564V17.54C10.776 16.712 10.2 16.268 9.27601 16.268H7.84801V18.836Z" fill="white"/>
</g>
</g>
</svg>
