<svg width="48" height="48" viewBox="0 0 48 48" fill="none" xmlns="http://www.w3.org/2000/svg">
<g id="m/mime_pres_ppt/mime_pres_ppt_48x48">
<g id="48/baseshape">
<g id="48/baseshape_2">
<path id="OutsideBorder" d="M44 44C44 45.1046 43.1046 46 42 46H12C10.8954 46 10 45.1046 10 44V4C10 2.89543 10.8954 2 12 2H34L44 12V44Z" fill="#ECF0F4"/>
</g>
<path id="Combined Shape" fill-rule="evenodd" clip-rule="evenodd" d="M38 18C38 13 34 9 29 9V18H38ZM40 32H14V34H40V32ZM40 36H14V38H40V36ZM14 40H40V42H14V40Z" fill="#F5BA9D"/>
<path id="Shape" d="M27 11C22 11 18 15 18 20C18 25 22 29 27 29C32 29 36 25 36 20H27V11Z" fill="#91A0AF"/>
</g>
<g id="48/corner">
<path id="InsideWhite" fill-rule="evenodd" clip-rule="evenodd" d="M34 2L44 12H34V2Z" fill="#D8E0E8"/>
</g>
<g id="24/chard/color/yellow">
<path id="Shape_2" d="M14 12V42L24 44V10L14 12Z" fill="#ECF0F4"/>
<path id="Chard" d="M22 12V42L2 39V15L22 12Z" fill="#D04727"/>
</g>
<g id="24/chard/letter/z">
<path id="P" fill-rule="evenodd" clip-rule="evenodd" d="M7 34V20H12.72C16.06 20 18.08 21.98 18.08 24.84V24.88C18.08 28.12 15.56 29.8 12.42 29.8H10.08V34H7ZM10.08 27.06H12.52C14.06 27.06 14.96 26.14 14.96 24.94V24.9C14.96 23.52 14 22.78 12.46 22.78H10.08V27.06Z" fill="white"/>
</g>
</g>
</svg>
