<svg width="16" height="16" viewBox="0 0 16 16" fill="none" xmlns="http://www.w3.org/2000/svg">
<g id="p/planner/planner_16x16">
<path id="Bottom" fill-rule="evenodd" clip-rule="evenodd" d="M0 2.66667V14C0 14.7364 0.596954 15.3333 1.33333 15.3333H14.6667C15.403 15.3333 16 14.7364 16 14V2.66667H0Z" fill="#DDDDEA"/>
<path id="Top" fill-rule="evenodd" clip-rule="evenodd" d="M1.00087 1.33333C0.448106 1.33333 0 1.7772 0 2.33333V3.33333H16V2.33333C16 1.78105 15.5554 1.33333 14.9991 1.33333H1.00087Z" fill="#FF520E"/>
<path id="Dots" fill-rule="evenodd" clip-rule="evenodd" d="M1.33301 2.33333C1.33301 2.14924 1.48763 2 1.66634 2C1.85044 2 1.99967 2.15462 1.99967 2.33333C1.99967 2.51743 1.84505 2.66667 1.66634 2.66667C1.48225 2.66667 1.33301 2.51204 1.33301 2.33333ZM13.9997 2.33333C13.9997 2.14924 14.1543 2 14.333 2C14.5171 2 14.6663 2.15462 14.6663 2.33333C14.6663 2.51743 14.5117 2.66667 14.333 2.66667C14.1489 2.66667 13.9997 2.51204 13.9997 2.33333Z" fill="white"/>
<path id="Combined Shape" fill-rule="evenodd" clip-rule="evenodd" d="M10.667 5H8.66699V7.57143H10.667V5ZM10.667 12.0714H8.66699V14H10.667V12.0714Z" fill="#FFCC00"/>
<path id="Combined Shape_2" fill-rule="evenodd" clip-rule="evenodd" d="M7.33301 5H5.33301V7.57143H7.33301V5ZM7.33301 8.21429H5.33301V14H7.33301V8.21429Z" fill="#84BA19"/>
<path id="Combined Shape_3" fill-rule="evenodd" clip-rule="evenodd" d="M4 5H2V11.4286H4V5ZM4 12.0714H2V14H4V12.0714Z" fill="#1A96F1"/>
<path id="Rectangle" fill-rule="evenodd" clip-rule="evenodd" d="M12 5H14V14H12V5Z" fill="#FF520E"/>
<path id="Rectangle_2" fill-rule="evenodd" clip-rule="evenodd" d="M8.66699 8H10.667V11.3333H8.66699V8Z" fill="#E62200"/>
</g>
</svg>
