<?xml version="1.0" encoding="UTF-8" standalone="no"?><svg xmlns="http://www.w3.org/2000/svg" width="16" height="16" viewBox="0 0 16 16"><title>gear_ic_action_16x16</title><path fill="#868686" d="M13.944 8.784C13.976 8.528 14 8.272 14 8s-.024-.528-.056-.784l1.688-1.32c.152-.12.192-.336.096-.512l-1.6-2.768c-.096-.176-.312-.24-.488-.176l-1.992.8c-.416-.32-.864-.584-1.352-.784L9.992.336C9.968.144 9.8 0 9.6 0H6.4c-.2 0-.368.144-.392.336l-.304 2.12c-.488.2-.936.472-1.352.784l-1.992-.8c-.184-.072-.392 0-.488.176l-1.6 2.768c-.104.176-.056.392.096.512l1.688 1.32C2.024 7.472 2 7.736 2 8s.024.528.056.784l-1.688 1.32c-.152.12-.192.336-.096.512l1.6 2.768c.096.176.312.24.488.176l1.992-.8c.416.32.864.584 1.352.784l.304 2.12c.024.192.192.336.392.336h3.2c.2 0 .368-.144.392-.336l.304-2.12c.488-.2.936-.472 1.352-.784l1.992.8c.184.072.392 0 .488-.176l1.6-2.768c.096-.176.056-.392-.096-.512l-1.688-1.32zM8 10.8c-1.544 0-2.8-1.256-2.8-2.8 0-1.544 1.256-2.8 2.8-2.8 1.544 0 2.8 1.256 2.8 2.8 0 1.544-1.256 2.8-2.8 2.8z"/></svg>