<svg width="16" height="16" viewBox="0 0 16 16" fill="none" xmlns="http://www.w3.org/2000/svg">
<path fill-rule="evenodd" clip-rule="evenodd" d="M0 1.6V14.4C0 15.3188 0.68119 16 1.6 16H14.4C15.3188 16 16 15.3188 16 14.4V1.6C16 0.68119 15.3188 0 14.4 0H1.6C0.68119 0 0 0.68119 0 1.6Z" fill="#FF520E"/>
<path fill-rule="evenodd" clip-rule="evenodd" d="M4.24805 12.9772C4.88862 13.3644 6.16978 13.7012 7.41631 13.7012C10.4114 13.7012 11.8311 12.1184 11.8311 10.2831C11.8311 8.64979 10.8616 7.65635 8.83597 6.91548C7.27781 6.32615 6.6026 5.92203 6.6026 5.04646C6.6026 4.37293 7.17393 3.68257 8.52434 3.68257C9.61505 3.68257 10.4288 4.0025 10.8616 4.22139L11.3637 2.55443C10.7577 2.25134 9.84012 1.98193 8.57628 1.98193C6.03128 1.98193 4.43849 3.37949 4.43849 5.24851C4.43849 6.8818 5.66771 7.87524 7.60675 8.54877C9.07835 9.07075 9.66699 9.57589 9.66699 10.4346C9.66699 11.3607 8.90522 11.9837 7.55481 11.9837C6.4641 11.9837 5.40801 11.647 4.73281 11.2597L4.24805 12.9772Z" fill="white"/>
</svg>
