<svg width="24" height="24" viewBox="0 0 24 24" fill="none" xmlns="http://www.w3.org/2000/svg">
<g id="a/authenticator_app_usb/authenticator_app_usb_24x24">
<path id="Fill-265" d="M11 0C9.896 0 9 0.768 9 2.08696V21.913C9 23.232 9.896 24 11 24H21C22.105 24 23 23.232 23 21.913V2.08696C23 0.768 22.105 0 21 0H11Z" fill="#262626"/>
<path id="Path" d="M12.2791 2.5C12.2791 2.22386 12.511 2 12.7791 2C13.0552 2 13.2791 2.23193 13.2791 2.5C13.2791 2.77614 13.0471 3 12.7791 3C12.5029 3 12.2791 2.76807 12.2791 2.5Z" fill="#B3B3B0"/>
<path id="Fill-263" d="M14.3256 2.5C14.3256 2.22386 14.5404 2 14.8233 2H18.8279C19.1027 2 19.3256 2.23193 19.3256 2.5C19.3256 2.77614 19.1107 3 18.8279 3H14.8233C14.5484 3 14.3256 2.76807 14.3256 2.5Z" fill="#B3B3B0"/>
<path id="Fill-262" d="M10 4.50021C10 4.22395 10.229 4 10.5003 4H21.4997C21.776 4 22 4.22759 22 4.50021V21.4998C22 21.776 21.771 22 21.4997 22H10.5003C10.224 22 10 21.7724 10 21.4998V4.50021Z" fill="white"/>
<path id="Oval" d="M13 10C13.5523 10 14 9.55228 14 9C14 8.44772 13.5523 8 13 8C12.4477 8 12 8.44772 12 9C12 9.55228 12.4477 10 13 10Z" fill="#FF520E"/>
<path id="Oval_2" d="M16 10C16.5523 10 17 9.55228 17 9C17 8.44772 16.5523 8 16 8C15.4477 8 15 8.44772 15 9C15 9.55228 15.4477 10 16 10Z" fill="#FF520E"/>
<path id="Oval_3" d="M19 10C19.5523 10 20 9.55228 20 9C20 8.44772 19.5523 8 19 8C18.4477 8 18 8.44772 18 9C18 9.55228 18.4477 10 19 10Z" fill="#FF520E"/>
<path id="Combined-Shape" fill-rule="evenodd" clip-rule="evenodd" d="M6 10H1V14H0.503423C0.22539 14 0 14.2277 0 14.5096V23.4904C0 23.7718 0.232903 24 0.503423 24H6.49658C6.77461 24 7 23.7723 7 23.4904V14.5096C7 14.2282 6.7671 14 6.49658 14H6V10Z" fill="#262626"/>
<path id="Rectangle-4" d="M4 11H5V14H4V11Z" fill="#DDB512"/>
<path id="Rectangle-4-Copy" d="M2 11H3V14H2V11Z" fill="#DDB512"/>
<path id="Oval_4" d="M3.5 21.5C4.88071 21.5 6 20.3807 6 19C6 17.6193 4.88071 16.5 3.5 16.5C2.11929 16.5 1 17.6193 1 19C1 20.3807 2.11929 21.5 3.5 21.5Z" fill="#DDB512"/>
<path id="Oval_5" d="M3.5 20C4.05228 20 4.5 19.5523 4.5 19C4.5 18.4477 4.05228 18 3.5 18C2.94772 18 2.5 18.4477 2.5 19C2.5 19.5523 2.94772 20 3.5 20Z" fill="#202020"/>
</g>
</svg>
