<svg xmlns="http://www.w3.org/2000/svg" width="24" height="24" viewBox="0 0 24 24">
  <g fill="none" fill-rule="evenodd">
    <path fill="#FAD00A" d="M10.5071369,3.22248612 C11.3317369,1.68912289 12.6667576,1.68555284 13.4932774,3.22248612 L22.5847854,20.1283622 C23.4093853,21.6617254 22.6747568,22.9047619 20.9199724,22.9047619 L3.08044195,22.9047619 C1.3363912,22.9047619 0.589109165,21.6652954 1.41562896,20.1283622 L10.5071369,3.22248612 Z"/>
    <path fill="#212121" d="M13.0540732,16.6070261 L10.9799292,16.6070261 L10.5463991,8 L13.4876033,8 L13.0540732,16.6070261 Z M12,21 C11.1715729,21 10.5,20.3284271 10.5,19.5 C10.5,18.6715729 11.1715729,18 12,18 C12.8284271,18 13.5,18.6715729 13.5,19.5 C13.5,20.3284271 12.8284271,21 12,21 Z"/>
  </g>
</svg>
