<svg xmlns="http://www.w3.org/2000/svg" width="16" height="16" viewBox="0 0 16 16">
  <g fill="none" fill-rule="evenodd">
    <path fill="#FAD00A" d="M6.88738222,1.84517631 C7.50194796,0.721871042 8.49531798,0.716318301 9.11292165,1.84517631 L15.7443244,13.9660759 C16.3588902,15.0893812 15.828155,16 14.5413131,16 L1.45899077,16 C0.180020215,16 -0.361624231,15.0949339 0.255979444,13.9660759 L6.88738222,1.84517631 Z"/>
    <path fill="#262626" d="M8.77298701,11.1515176 L7.25194805,11.1515176 L6.93402597,5 L9.09090909,5 L8.77298701,11.1515176 Z M8,14 C7.44771525,14 7,13.5522847 7,13 C7,12.4477153 7.44771525,12 8,12 C8.55228475,12 9,12.4477153 9,13 C9,13.5522847 8.55228475,14 8,14 Z"/>
  </g>
</svg>
