<svg width="128" height="128" viewBox="0 0 128 128" fill="none" xmlns="http://www.w3.org/2000/svg">
<g id="m/mime_text_rtf/mime_text_rtf_128x128">
<g id="64/baseshape">
<g id="64/baseshape_2">
<path id="OutsideBorder" d="M116 120C116 122.209 114.209 124 112 124H30C27.7909 124 26 122.209 26 120V8C26 5.79086 27.7909 4 30 4H88L116 34V120Z" fill="#ECF0F4"/>
</g>
<path id="Combined Shape" fill-rule="evenodd" clip-rule="evenodd" d="M87.4706 20H36V24H87.4706V20ZM106 32H36V36H106V32ZM36 44H106V48H36V44ZM106 56H36V60H106V56ZM36 68H106V72H36V68ZM106 80H36V84H106V80ZM36 94H106V98H36V94ZM106 106H36V110H106V106Z" fill="#91A0AF"/>
</g>
<g id="64/corner">
<path id="InsideWhite" fill-rule="evenodd" clip-rule="evenodd" d="M88 34V4L116 34H88Z" fill="#D8E0E8"/>
</g>
<g id="64/chard/color/yellow">
<path id="Shape" d="M28 38V112L64 118V32L28 38Z" fill="#ECF0F4"/>
<path id="Chard" d="M60 36.8636V113.273L12 106V44L60 36.8636Z" fill="#2B579A"/>
</g>
<g id="64/chard/letter/a">
<path id="R" fill-rule="evenodd" clip-rule="evenodd" d="M22.6797 92V58.4H38.0397C42.3117 58.4 45.6237 59.6 47.8317 61.808C49.7037 63.68 50.7117 66.32 50.7117 69.488V69.584C50.7117 75.008 47.7837 78.416 43.5117 80L51.7197 92H43.0797L35.8797 81.248H30.0717V92H22.6797ZM30.0717 74.72H37.5597C41.1597 74.72 43.2237 72.8 43.2237 69.968V69.872C43.2237 66.704 41.0157 65.072 37.4157 65.072H30.0717V74.72Z" fill="white"/>
</g>
</g>
</svg>
