<svg width="16" height="16" xmlns="http://www.w3.org/2000/svg"><g fill="none" fill-rule="evenodd"><path d="M7.433.023c3.535-.245 5.879 1.485 7.219 3.593.672 1.057 1.331 2.662 1.334 4.31a8.104 8.104 0 0 1-1.334 4.483c-.778 1.17-1.785 2.137-3.045 2.771-2.107 1.061-5.051 1.09-6.98.069C2.48 14.11.827 12.487.213 9.672-.032 8.545-.06 7.089.282 5.84c.08-.293.226-.602.342-.89A7.795 7.795 0 0 1 3.293 1.53a9.272 9.272 0 0 1 1.54-.89c.624-.276 1.675-.552 2.6-.616z" fill="#FFF" fill-rule="nonzero"/><path d="M14.138 8.126a6.05 6.05 0 1 1-12.098 0 6.05 6.05 0 0 1 12.098 0z" fill="#262626" fill-rule="nonzero"/><path d="M7.433.023c3.535-.245 5.879 1.485 7.219 3.593.672 1.057 1.331 2.662 1.334 4.31a8.104 8.104 0 0 1-1.334 4.483c-.778 1.17-1.785 2.137-3.045 2.771-2.107 1.061-5.051 1.09-6.98.069C2.48 14.11.827 12.487.213 9.672-.032 8.545-.06 7.089.282 5.84c.08-.293.226-.602.342-.89A7.795 7.795 0 0 1 3.293 1.53a9.272 9.272 0 0 1 1.54-.89c.624-.276 1.675-.552 2.6-.616zM6.235.605c-1.313.34-2.276.95-3.113 1.608-1.208.948-1.978 2.272-2.43 3.866-.501 1.774-.18 3.92.514 5.27.718 1.398 1.683 2.485 3.045 3.25 1.325.744 3.189 1.222 5.132.855 1.726-.326 3.038-1.078 4.106-2.19 1.429-1.487 2.577-4.227 1.813-7.116-.204-.773-.471-1.577-.89-2.259-.225-.368-.557-.73-.89-1.094C12.27 1.418 10.244.232 7.639.4a7.228 7.228 0 0 0-1.403.205z" fill="#3C3C3C" fill-rule="nonzero"/><path d="M8.473 15.4l6.99-6.99-.037-.038-6.99 6.99.037.038zm-.61-.554l7.02-7.02-.037-.038-7.021 7.02.037.038zm-.612-.553l7.052-7.051-.038-.038-7.051 7.051.037.038zm-.61-.554l7.081-7.082-.038-.037L6.603 13.7l.037.038zm-.612-.553l7.113-7.113-.038-.037-7.113 7.112.038.038zm-.611-.554l7.143-7.143-.038-.037-7.143 7.143.038.037zm-.611-.553l7.173-7.174-.037-.038-7.174 7.174.038.037zm-.611-.554L11.4 4.32l-.038-.038-7.204 7.204.038.038zm-.611-.554l7.234-7.234-.038-.038-7.234 7.235.038.037zm-.611-.553l7.264-7.265-.037-.038-7.265 7.265.038.038zm-.612-.554L9.658 2.57 9.62 2.53 2.325 9.826l.037.038zm-.61-.553l7.325-7.326-.037-.038-7.326 7.326.037.038zm-.612-.554l7.357-7.356-.038-.038-7.357 7.356.038.038zm-.61-.554L7.915.817 7.878.779.491 8.166l.038.037z" fill="#FFF" fill-rule="nonzero"/><path d="M.489 8.274l7.13 7.13.038-.037-7.13-7.13-.038.037zm.578-.586l7.144 7.144.038-.038L1.105 7.65l-.038.038zm.578-.587l7.158 7.158.038-.037-7.158-7.159-.038.038zm.579-.586l7.171 7.172.038-.038L2.26 6.477l-.037.038zm.578-.587l7.185 7.186.038-.038L2.839 5.89l-.037.038zm.578-.586l7.2 7.2.037-.038-7.2-7.2-.037.038zm.578-.587l7.213 7.214.038-.038-7.213-7.213-.038.037zm.578-.586l7.228 7.227.037-.038-7.227-7.227-.038.038zm.579-.587l7.24 7.241.038-.037-7.24-7.241-.038.037zm.578-.586l7.255 7.255.037-.038-7.254-7.255-.038.038zm.578-.587l7.269 7.27.038-.038-7.27-7.27-.037.038zm.578-.586l7.283 7.283.038-.038-7.283-7.283-.038.038zm.578-.587l7.297 7.297.038-.038L7.465 1.2l-.038.037zM8.006.65l7.31 7.31.038-.037-7.31-7.31-.038.037z" fill="#FFF" fill-rule="nonzero"/><path d="M13.112 2.829c-.629-.63-1.402-1.196-2.326-1.54C9.828.933 8.745.633 7.466.742c-2.035.173-3.463 1.086-4.55 2.155-.76.749-1.333 1.666-1.71 2.737-.555 1.573-.521 3.43.102 5.03.532 1.365 1.403 2.466 2.635 3.319 1.158.801 2.82 1.423 4.687 1.266 2.274-.192 3.938-1.36 5.03-2.703.279-.344.557-.733.718-1.198.158-.335.236-.562.308-.684.303-.68.464-1.397.513-2.19.152-2.44-.787-4.345-2.087-5.645zm-.67 7.433l-.013.028c-.113.322-.307.592-.502.831-.764.934-1.927 1.744-3.517 1.877a5.097 5.097 0 0 1-3.278-.88 4.926 4.926 0 0 1-1.614-1.802c-.023-.043-.24-.545-.242-.567-.297-.922-.323-2.404-.017-3.293A5.302 5.302 0 0 1 4.25 4.71c.62-.703 1.241-1.153 2.224-1.472.448-.145.85-.293 1.402-.308 1.348-.035 2.72.57 3.456 1.232.677.61 1.448 1.795 1.642 2.908a4.816 4.816 0 0 1-.533 3.191z" fill="#3C3C3C" fill-rule="nonzero"/><path d="M12.924 6.827c-.255-1.039-.963-2.1-1.59-2.664-.737-.663-2.11-1.267-3.457-1.232-.552.015-.954.163-1.402.308-.983.319-1.604.769-2.224 1.472a5.302 5.302 0 0 0-.993 1.745c-.036.106-.068.22-.095.34-.816.279-1.601.625-2.348 1.033a7.076 7.076 0 0 1 .39-2.195c.378-1.07.95-1.988 1.711-2.737C4.003 1.828 5.431.915 7.466.742c1.279-.11 2.362.191 3.32.547.924.344 1.697.91 2.326 1.54 1.186 1.186 2.072 2.876 2.102 5.017-.728-.4-1.494-.743-2.29-1.02z" fill="#9F9F9F" fill-rule="nonzero"/><path d="M3.973 3.316l-.002-.003a.602.602 0 0 1 .15-.848.597.597 0 0 1 .849.116l.002.003a.602.602 0 0 1-.15.848.597.597 0 0 1-.849-.116zm.738-.538l-.002-.003c-.098-.134-.28-.18-.422-.076-.14.102-.151.285-.054.42l.002.002c.098.134.28.18.42.077.143-.103.154-.286.056-.42zm1.138-1.21l.293-.093.82.953-.326.104-.142-.17-.423.135-.015.221-.32.102.113-1.252zm.481.586l-.222-.272-.023.35.245-.078zm1.158-.299l.002-.645h.324l-.003.64c0 .166.083.245.211.245s.212-.074.213-.235l.003-.647.323.001-.002.637c-.002.371-.214.533-.541.532-.327-.002-.532-.168-.53-.528zm2.242-.113l-.33-.1.081-.267.965.294-.082.267-.33-.1-.254.832-.304-.093.254-.833zm1.577.3l.265.176-.238.358.34.227.239-.358.265.176-.637.957-.265-.176.242-.364-.34-.227-.243.364L10.67 3l.637-.957z" fill="#262626" fill-rule="nonzero"/><path d="M12.244 12.504l.002.002a.602.602 0 0 1-.117.854.597.597 0 0 1-.853-.084l-.002-.002a.602.602 0 0 1 .117-.854.597.597 0 0 1 .853.084zm-.717.566l.002.002c.103.13.287.17.425.06.136-.107.14-.29.037-.42l-.002-.003c-.102-.13-.286-.17-.423-.062-.138.11-.141.292-.039.423zm-1.082 1.255l-.287.106-.861-.915.32-.12.15.164.416-.154.005-.22.315-.117-.058 1.256zm-.506-.564l.234.262.008-.351-.242.09zm-1.142.345l.028.645-.323.014-.028-.638c-.007-.166-.094-.24-.222-.235-.128.006-.209.085-.202.246l.029.646-.323.014-.028-.636c-.017-.371.188-.543.514-.557.327-.015.54.142.555.501zm-2.246.211l.333.09-.073.27-.973-.263.073-.27.333.09.226-.84.308.083-.227.84zm-1.574-.234l-.273-.164.221-.369-.35-.21-.222.369-.273-.164.591-.986.273.164-.224.374.35.21.225-.374.273.164-.59.986z" fill="#FFF" fill-rule="nonzero"/><path d="M10.565 9.528v1.805H5.101V11c0-.419.061-.79.186-1.11.122-.314.29-.597.5-.846A4.21 4.21 0 0 1 6.5 8.38c.255-.189.524-.38.806-.575.147-.102.303-.206.47-.311.144-.092.275-.193.394-.303.11-.102.201-.217.275-.344a.71.71 0 0 0 .09-.364c0-.232-.06-.392-.174-.503a.642.642 0 0 0-.473-.172.528.528 0 0 0-.303.078.677.677 0 0 0-.217.24c-.064.115-.11.244-.137.387-.03.157-.045.312-.045.464v.334H5.262l-.011-.323c-.014-.41.034-.793.145-1.15.113-.362.283-.68.51-.954.233-.28.525-.498.873-.652.346-.154.739-.23 1.176-.23.335 0 .656.053.962.159.31.107.584.26.821.462.242.205.434.458.576.755.143.301.214.637.214 1.002 0 .374-.061.703-.188.985-.12.271-.282.513-.482.724a3.903 3.903 0 0 1-.648.546c-.222.15-.446.299-.672.446-.212.139-.419.288-.62.447h2.647z" fill="#262626" fill-rule="nonzero"/><path d="M5.584 6.977h1.27c0-.174.016-.35.05-.527.035-.177.092-.34.173-.485A1.01 1.01 0 0 1 7.4 5.61a.856.856 0 0 1 .49-.135c.287 0 .521.088.705.266.184.177.275.424.275.742 0 .199-.045.376-.135.532-.09.155-.202.295-.336.42a3.041 3.041 0 0 1-.443.34 12.99 12.99 0 0 0-.458.304c-.28.193-.546.382-.798.569-.252.187-.471.39-.658.611-.186.221-.334.472-.443.752-.109.28-.163.61-.163.989h4.797V9.861h-3.09c.162-.224.35-.42.56-.588.212-.168.43-.325.654-.471.224-.146.446-.294.667-.443.221-.15.419-.316.593-.5a2.23 2.23 0 0 0 .42-.63 2.07 2.07 0 0 0 .159-.849c0-.317-.061-.604-.182-.859a1.906 1.906 0 0 0-.49-.644 2.2 2.2 0 0 0-.714-.401 2.601 2.601 0 0 0-.854-.14c-.392 0-.74.067-1.041.2a2.03 2.03 0 0 0-.751.56c-.2.24-.349.52-.448.84-.1.321-.143.668-.131 1.041z" fill="#FFF"/></g></svg>