<svg width="24" height="24" xmlns="http://www.w3.org/2000/svg"><g fill="none" fill-rule="evenodd"><path d="M11.149.035c5.303-.368 8.819 2.227 10.829 5.389 1.008 1.585 1.997 3.992 2.001 6.466a12.156 12.156 0 0 1-2.001 6.723C20.81 20.37 19.3 21.818 17.41 22.77c-3.16 1.592-7.577 1.635-10.47.103C3.72 21.167 1.243 18.73.32 14.508c-.369-1.69-.411-3.875.103-5.748.12-.44.34-.903.513-1.335.834-2.077 2.253-3.883 4.003-5.132A13.907 13.907 0 0 1 7.25.959c.936-.415 2.513-.828 3.9-.924z" fill="#FFF" fill-rule="nonzero"/><path d="M21.207 12.189a9.074 9.074 0 0 1-9.074 9.074 9.074 9.074 0 1 1 0-18.148 9.074 9.074 0 0 1 9.074 9.074z" fill="#262626" fill-rule="nonzero"/><path d="M11.149.035c5.303-.368 8.819 2.227 10.829 5.389 1.008 1.585 1.997 3.992 2.001 6.466a12.156 12.156 0 0 1-2.001 6.723C20.81 20.37 19.3 21.818 17.41 22.77c-3.16 1.592-7.577 1.635-10.47.103C3.72 21.167 1.243 18.73.32 14.508c-.369-1.69-.411-3.875.103-5.748.12-.44.34-.903.513-1.335.834-2.077 2.253-3.883 4.003-5.132A13.907 13.907 0 0 1 7.25.959c.936-.415 2.513-.828 3.9-.924zM9.353.907c-1.97.511-3.414 1.426-4.67 2.412-1.812 1.423-2.968 3.409-3.644 5.8-.753 2.66-.27 5.88.77 7.903 1.077 2.1 2.524 3.728 4.567 4.876 1.988 1.116 4.784 1.833 7.698 1.283 2.59-.489 4.557-1.617 6.159-3.285 2.144-2.231 3.867-6.341 2.72-10.675-.306-1.158-.707-2.365-1.334-3.387-.34-.552-.837-1.095-1.335-1.642-1.88-2.065-4.919-3.844-8.827-3.593-.744.048-1.397.125-2.104.308z" fill="#3C3C3C" fill-rule="nonzero"/><path d="M12.71 23.1l10.486-10.485-.057-.057-10.485 10.485.056.057zm-.916-.83l10.53-10.531-.056-.057-10.531 10.53.057.057zm-.917-.83l10.577-10.578-.057-.056L10.82 21.383l.057.056zm-.917-.831L20.583 9.986l-.056-.056L9.904 20.552l.056.057zm-.916-.83L19.712 9.11l-.056-.057L8.987 19.722l.057.056zm-.917-.83L18.841 8.233l-.056-.057L8.07 18.892l.057.056zm-.917-.831l10.76-10.76-.056-.057-10.76 10.76.056.057zm-.916-.83L17.099 6.481l-.056-.057L6.237 17.231l.057.056zm-.917-.831L16.228 5.605l-.056-.056L5.32 16.4l.057.057zm-.917-.83L15.358 4.729l-.057-.056L4.404 15.57l.056.057zm-.916-.83L14.487 3.852l-.057-.056L3.487 14.74l.057.056zm-.917-.831L13.616 2.977l-.057-.056L2.57 13.909l.057.057zm-.917-.83L12.745 2.1l-.057-.057L1.654 13.08l.056.057zm-.916-.83l11.08-11.081-.057-.057-11.08 11.08.057.057z" fill="#FFF" fill-rule="nonzero"/><path d="M.733 12.411l10.695 10.696.057-.057L.79 12.355l-.057.056zm.868-.88l10.716 10.717.056-.057L1.657 11.475l-.056.056zm.867-.88L13.205 21.39l.056-.057L2.525 10.595l-.057.057zm.867-.879L14.093 20.53l.056-.057L3.392 9.715l-.057.057zm.868-.88L14.98 19.671l.056-.057L4.26 8.836l-.056.056zm.867-.88l10.8 10.8.056-.056-10.8-10.8-.056.057zm.867-.88l10.82 10.821.057-.056-10.82-10.82-.057.056zm.868-.879l10.84 10.841.057-.056L6.862 6.197l-.057.056zm.867-.88l10.862 10.862.056-.056L7.728 5.317l-.056.056zm.867-.88l10.883 10.883.056-.056L8.596 4.437l-.057.057zm.868-.879L20.31 14.517l.056-.056L9.463 3.557l-.056.057zm.867-.88l10.924 10.924.056-.056L10.33 2.678l-.056.056zm.867-.88L22.086 12.8l.057-.057L11.198 1.798l-.057.057zm.867-.88l10.966 10.967.057-.057L12.065.918l-.056.057z" fill="#FFF" fill-rule="nonzero"/><path d="M19.668 4.243c-.943-.944-2.104-1.794-3.49-2.31-1.436-.534-3.061-.984-4.978-.82-3.053.26-5.196 1.63-6.825 3.233-1.142 1.123-2 2.499-2.567 4.106-.832 2.359-.781 5.143.154 7.544.798 2.047 2.104 3.699 3.952 4.978 1.737 1.203 4.23 2.135 7.031 1.899 3.411-.288 5.907-2.038 7.544-4.054.42-.516.836-1.1 1.078-1.797.237-.502.353-.844.462-1.026.455-1.02.696-2.095.77-3.285.227-3.66-1.18-6.518-3.13-8.468zm-1.005 11.15l-.019.041c-.17.485-.46.89-.754 1.248-1.145 1.4-2.89 2.615-5.275 2.815-1.959.164-3.703-.483-4.917-1.319-1.056-.725-1.859-1.624-2.421-2.703a15.622 15.622 0 0 1-.362-.851c-.446-1.383-.485-3.606-.027-4.94.305-.891.814-1.855 1.488-2.618.93-1.054 1.862-1.73 3.336-2.207.673-.218 1.276-.44 2.104-.462 2.02-.054 4.079.854 5.184 1.848 1.015.913 2.172 2.693 2.463 4.362a7.224 7.224 0 0 1-.8 4.786z" fill="#3C3C3C" fill-rule="nonzero"/><path d="M19.386 10.24C19.004 8.683 17.941 7.092 17 6.245c-1.105-.994-3.163-1.902-5.184-1.848-.829.022-1.431.244-2.104.462-1.474.477-2.405 1.153-3.336 2.207-.674.763-1.183 1.727-1.488 2.617-.055.16-.102.33-.143.512a22.375 22.375 0 0 0-3.522 1.549c.024-1.134.22-2.254.585-3.292.567-1.607 1.425-2.983 2.567-4.106C6.004 2.743 8.147 1.373 11.2 1.113c1.917-.164 3.542.286 4.979.82 1.385.516 2.546 1.366 3.49 2.31 1.779 1.78 3.107 4.315 3.153 7.526a22.378 22.378 0 0 0-3.436-1.529z" fill="#9F9F9F" fill-rule="nonzero"/><path d="M5.96 4.974l-.003-.004c-.292-.4-.206-.96.224-1.273.43-.314.982-.226 1.273.174l.003.004c.292.4.207.96-.223 1.273-.43.314-.982.226-1.274-.174zm1.106-.807l-.003-.004c-.146-.201-.42-.27-.632-.115-.211.154-.227.428-.08.63l.002.003c.147.201.42.27.63.116.214-.155.23-.43.083-.63zm1.708-1.814l.438-.141 1.23 1.43-.488.156-.214-.255-.633.203-.023.331-.479.153.169-1.877zm.721.878l-.332-.408-.036.526.368-.118zm1.737-.448l.004-.968.485.001-.004.959c0 .249.124.367.316.368.193 0 .319-.112.32-.353l.003-.97.486.001-.004.956c-.002.557-.321.8-.811.797-.49-.002-.797-.252-.795-.791zm3.362-.17l-.494-.15.122-.401 1.446.442-.122.4-.495-.15-.38 1.248-.458-.14.381-1.249zm2.367.45l.397.264-.357.537.51.34.358-.537.398.265-.956 1.435-.397-.265.363-.545-.511-.34-.363.546-.398-.265.956-1.436z" fill="#262626" fill-rule="nonzero"/><path d="M18.366 18.755l.003.004c.307.389.243.951-.175 1.281-.417.33-.973.263-1.28-.126l-.003-.003c-.307-.389-.242-.951.175-1.281.418-.33.973-.263 1.28.125zm-1.075.85l.003.003c.154.196.43.254.637.09.205-.161.21-.436.056-.631l-.003-.004c-.154-.195-.43-.254-.634-.092-.207.164-.213.438-.059.633zm-1.623 1.882l-.432.16-1.291-1.374.48-.178.225.246.624-.231.009-.332.47-.174-.085 1.883zm-.76-.845l.351.393.012-.528-.362.135zm-1.713.517l.043.968-.485.021-.042-.957c-.01-.249-.142-.361-.334-.353-.191.008-.312.127-.301.368l.042.97-.484.021-.042-.954c-.025-.557.282-.814.771-.836.49-.021.809.213.832.752zm-3.368.317l.5.134-.11.405-1.46-.394.109-.405.5.135.34-1.26.461.124-.34 1.26zm-2.361-.352l-.41-.245.332-.554-.526-.315-.332.553-.41-.245.887-1.48.41.246-.337.562.526.316.337-.563.41.246-.887 1.48z" fill="#FFF" fill-rule="nonzero"/><path d="M15.848 14.292V17H7.652v-.5c0-.628.092-1.184.279-1.665.183-.471.433-.895.75-1.269a6.316 6.316 0 0 1 1.07-.996c.383-.283.787-.571 1.21-.862.22-.154.455-.31.703-.467.217-.138.414-.29.592-.455.165-.153.302-.324.412-.515.09-.155.136-.334.136-.547 0-.348-.09-.588-.26-.753-.18-.173-.406-.259-.71-.259a.793.793 0 0 0-.455.118c-.135.09-.242.208-.325.359a1.955 1.955 0 0 0-.206.58 3.667 3.667 0 0 0-.068.697v.5H7.892l-.016-.483a5.2 5.2 0 0 1 .219-1.726c.168-.542.423-1.02.764-1.432.35-.42.787-.746 1.31-.977.519-.23 1.108-.344 1.763-.344.503 0 .985.079 1.444.237.464.16.875.392 1.231.694.363.307.651.686.864 1.132.214.452.321.955.321 1.503 0 .561-.092 1.055-.282 1.478a3.846 3.846 0 0 1-.723 1.085c-.287.302-.611.575-.972.82-.334.225-.67.448-1.008.669-.318.208-.629.431-.93.67h3.971z" fill="#262626" fill-rule="nonzero"/><path d="M8.376 10.466h1.904c0-.261.026-.525.077-.791.051-.266.138-.509.259-.728.121-.22.282-.397.483-.532.2-.135.446-.203.735-.203.43 0 .782.133 1.057.399.275.266.413.637.413 1.113 0 .299-.068.565-.203.798a2.721 2.721 0 0 1-.504.63c-.2.187-.422.357-.665.511-.243.154-.471.306-.686.455-.42.29-.819.574-1.197.854-.378.28-.707.586-.987.917-.28.331-.502.707-.665 1.127-.163.42-.245.915-.245 1.484h7.196v-1.708h-4.634c.243-.336.523-.63.84-.882.317-.252.644-.488.98-.707.336-.22.67-.441 1.001-.665.331-.224.628-.474.889-.749s.471-.59.63-.945c.159-.355.238-.78.238-1.274 0-.476-.091-.905-.273-1.288a2.859 2.859 0 0 0-.735-.966 3.3 3.3 0 0 0-1.071-.602 3.902 3.902 0 0 0-1.281-.21c-.588 0-1.108.1-1.561.301-.453.2-.828.48-1.127.84-.299.36-.523.78-.672 1.26a4.702 4.702 0 0 0-.196 1.561z" fill="#FFF"/></g></svg>