<svg width="230" height="24" viewBox="0 0 230 24" fill="none" xmlns="http://www.w3.org/2000/svg">
<g clip-path="url(#clip0)">
<circle cx="12" cy="12" r="12" fill="#3BD63D"/>
<path d="M13.2378 17H11.7461V11.0078C11.7461 10.2926 11.763 9.72559 11.7969 9.30664C11.6995 9.4082 11.5789 9.52035 11.4351 9.64307C11.2954 9.76579 10.8215 10.1551 10.0132 10.811L9.26416 9.86523L11.9937 7.71973H13.2378V17Z" fill="white"/>
<path d="M32 11H88V13H32V11Z" fill="#C9C9C9"/>
<path d="M94.75 12L85 16.5V7.5L94.75 12Z" fill="#C9C9C9"/>
<circle cx="114.75" cy="12" r="12" fill="#FF7112"/>
<path d="M117.898 17H111.608V15.8701L114.001 13.4644C114.708 12.7407 115.175 12.2287 115.404 11.9282C115.637 11.6235 115.806 11.3379 115.912 11.0713C116.017 10.8047 116.07 10.519 116.07 10.2144C116.07 9.79541 115.943 9.46533 115.689 9.22412C115.44 8.98291 115.093 8.8623 114.648 8.8623C114.293 8.8623 113.948 8.9279 113.614 9.05908C113.284 9.19027 112.901 9.42725 112.465 9.77002L111.659 8.78613C112.175 8.35026 112.676 8.04134 113.163 7.85938C113.65 7.67741 114.168 7.58643 114.718 7.58643C115.582 7.58643 116.273 7.81283 116.794 8.26562C117.314 8.71419 117.575 9.31934 117.575 10.0811C117.575 10.5 117.499 10.8978 117.346 11.2744C117.198 11.651 116.967 12.0404 116.654 12.4424C116.345 12.8402 115.829 13.3797 115.105 14.061L113.493 15.6226V15.686H117.898V17Z" fill="white"/>
<path d="M134.75 11H190.75V13H134.75V11Z" fill="#C9C9C9"/>
<path d="M197.5 12L187.75 16.5V7.5L197.5 12Z" fill="#C9C9C9"/>
<path fill-rule="evenodd" clip-rule="evenodd" d="M209.5 10H225.5C226.605 10 227.5 10.8954 227.5 12V22C227.5 23.1046 226.605 24 225.5 24H209.5C208.395 24 207.5 23.1046 207.5 22V12C207.5 10.8954 208.395 10 209.5 10Z" fill="#FAD00A"/>
<path fill-rule="evenodd" clip-rule="evenodd" d="M216.5 18.8293C215.335 18.4175 214.5 17.3062 214.5 16C214.5 14.3431 215.843 13 217.5 13C219.157 13 220.5 14.3431 220.5 16C220.5 17.3062 219.665 18.4175 218.5 18.8293V20.75C218.5 20.8881 218.388 21 218.25 21H216.75C216.612 21 216.5 20.8881 216.5 20.75V18.8293Z" fill="#DAAE00"/>
<path d="M209.5 10H212.5V8C212.5 5.23858 214.739 3 217.5 3C218.734 3 219.863 3.44668 220.735 4.18712L222.537 1.78429C221.162 0.668557 219.409 0 217.5 0C213.082 0 209.5 3.58172 209.5 8V10Z" fill="#868686"/>
</g>
<defs>
<clipPath id="clip0">
<rect width="229.5" height="24" fill="white"/>
</clipPath>
</defs>
</svg>
