<?xml version="1.0" encoding="UTF-8" standalone="no"?>
<svg width="12px" height="12px" viewBox="0 0 12 12" version="1.1" xmlns="http://www.w3.org/2000/svg" xmlns:xlink="http://www.w3.org/1999/xlink">
    <!-- Generator: Sketch 44 (41411) - http://www.bohemiancoding.com/sketch -->
    <title>plus_disabled_2p_12x12</title>
    <desc>Created with Sketch.</desc>
    <defs></defs>
    <g id="Action" stroke="none" stroke-width="1" fill="none" fill-rule="evenodd" fill-opacity="0.5">
        <g id="Action-icons" transform="translate(-1214.000000, -398.000000)" fill="#868686">
            <g id="btns_orange_2p_12x12_zoom-copy" transform="translate(1120.000000, 392.000000)">
                <g id="plus_disabled_2p_12x12" transform="translate(94.000000, 6.000000)">
                    <path d="M5,5 L1.00247329,5 C0.455760956,5 0,5.44771525 0,6 C0,6.55613518 0.448822582,7 1.00247329,7 L5,7 L5,10.9975267 C5,11.544239 5.44771525,12 6,12 C6.55613518,12 7,11.5511774 7,10.9975267 L7,7 L10.9975267,7 C11.544239,7 12,6.55228475 12,6 C12,5.44386482 11.5511774,5 10.9975267,5 L7,5 L7,1.00247329 C7,0.455760956 6.55228475,0 6,0 C5.44386482,0 5,0.448822582 5,1.00247329 L5,5 Z"></path>
                </g>
            </g>
        </g>
    </g>
</svg>