<?xml version="1.0" encoding="UTF-8"?><svg xmlns="http://www.w3.org/2000/svg" width="16" height="16" viewBox="0 0 16 16"><title>a/address_book2/address_book2_16x16</title><g fill="none" fill-rule="evenodd"><path d="M0 0h16v16H0z"/><path fill="#F5F118" d="M13 10h2V6h-2"/><path fill="#F00" d="M13 6h2V3c0-.702-.298-1-1-1h-1v4z"/><path fill="#57D31A" d="M13 14h1c.702 0 1-.298 1-1v-3h-2v4z"/><path fill="#FAD00A" d="M2 0h10c.552 0 1 .448 1 1v14c0 .552-.448 1-1 1H2c-.552 0-1-.448-1-1V1c0-.552.448-1 1-1z"/><path fill="#FFF" d="M3.25 2h7.5c.138 0 .25.112.25.25v2.5c0 .138-.112.25-.25.25h-7.5C3.112 5 3 4.888 3 4.75v-2.5c0-.138.112-.25.25-.25z"/></g></svg>