<?xml version="1.0" encoding="UTF-8"?><svg xmlns="http://www.w3.org/2000/svg" width="24" height="24" viewBox="0 0 24 24"><title>a/address_book2/address_book2_24x24</title><g fill="none" fill-rule="evenodd"><path d="M0 0h24v24H0z"/><path fill="#FAD00A" d="M1 2v20c0 1.105.895 2 2 2h14c1.105 0 2-.895 2-2V2c0-1.105-.895-2-2-2H3C1.895 0 1 .895 1 2z"/><path fill="#F5F118" d="M19 15h3V9h-3"/><path fill="#F00" d="M19 9h3V4c0-.552-.448-1-1-1h-2v6z"/><path fill="#57D31A" d="M19 21h2c.552 0 1-.448 1-1v-5h-3v6z"/><path fill="#FFF" d="M4 3.25v3.5c0 .138.112.25.25.25h11.5c.138 0 .25-.112.25-.25v-3.5c0-.138-.112-.25-.25-.25H4.25c-.138 0-.25.112-.25.25z"/></g></svg>