<svg width="24" height="24" xmlns="http://www.w3.org/2000/svg"><g fill="none" fill-rule="evenodd"><path d="M24 19.1671667c-.8017778-.1824167-2.1475556-.385-2.696-.5105834-.0808889-.0320833-.6533333-.4253333-.68-.4546666-.2551111-.2695-4.984-.2695-5.2391111 0-.0266667.0293333-.6871111.2429166-.768.2740833-.5484445.1265-3.3715556.8039167-3.6168889.9148333.0053333 1.3695.0017778 2.8655834.0017778 2.8655834-.0008889 1.0129166.8459304 1.7445 1.8130415 1.7435833H22c1.1045695 0 2-.8954305 2-2v-2.8328333z" fill="#868686"/><path d="M21.1031111 18.9554167C20.112 17.3301667 20.112 15.92675 20.112 14.5765c.5271111-.86075-5.3137778-.86075-4.7866667 0 0 1.35025.2728889 3.421-.7857777 4.7006667-.0293334.03575 4.8843539 2.0500936 6.5635555-.32175z" fill="#9D7036"/><path d="M18.7333332 20.0416667L20.512 17.684l1.2364444 1.0725-2.232 3.2303333-.7831112-1.9451666zm-2.4168888 1.94425l-2.2471111-3.3760834 1.1333334-.8900833 2.2862224 2.3219167-1.1724447 1.94425z" fill="#262626"/><path d="M20.5057778 16.8223333c.6248889-.5921666 1.2426666-1.1568333 1.4168889-2.0029166.2862222-1.386.4382222-3.4714167.3048889-4.2725834.3333333-.3593333 0-1.96441663 0-2.6830833 0-.71866667-1.0177778-2.62625-7.5155556-1.4135-.0782222-.01833333-1.7235556 3.80325-1.4506667 4.0965833-.1342222.8011667.0186667 2.8865834.304 4.2725834.2862223 1.3869166 1.1111111 2.0029166 1.9786667 2.1954166.8675556.1915834 4.3368889.3996667 4.9617778-.1925z" fill="#D19241"/><path d="M14.3813333 9.76858333c.7288889-.61141666 4.6613334-1.12291666 5.3484445-2.30633333.2035555.31991667.2035555.14025.2035555.88275s0 .90016667-.2035555 1.42358333c.7573333-.19158333 1.0142222-.6105 1.2222222-1.0725C22.2497778 9.72916667 22.1955556 11.986 22.1955556 13.0300833c.3351111-.34375.5617777-2.3888333.5617777-3.07541663 0-.68658334.1413334-4.50358334-4.224-5.36708334C18.4551111 4.57016667 18.3742222 4.561 18.296 4.54175c-.312-.07516667-.9555556-.08616667-1.2586667 0-.0773333.022-.1591111.02841667-.2373333.04583333-4.3653333.8635-4.224 4.6805-4.224 5.36708334 0 .68658333.3297778 2.16608333.6648889 2.50983333-.0266667.1494167.4106667-2.0845 1.1404444-2.69591667z" fill="#262626"/><path fill="#FAD00A" d="M17.4888891 20.0416667h1.2444441L19 21.4692586 18.6914265 24h-1.1594731l-.3097312-2.5375671z"/><path d="M14.13 17.546c-.902-.199-1.921-.42-2.538-.557-.091-.035-.735-.464-.765-.496-.287-.294-5.607-.294-5.894 0-.03.032-.773.265-.864.299-.617.138-3.793.877-4.069.998.006 1.494.002 4.217.002 4.217-.001 1.105.903 2 1.991 1.999 0 0 13.11-.006 14.74-.006.291-.922.36-2.277.36-3.435 0-2.037-2.145-2.87-2.963-3.019z" fill="#1A96F1"/><path d="M11.366 17.315c-1.115-1.773-1.115-3.304-1.115-4.777.593-.939-5.978-.939-5.385 0 0 1.473.307 3.732-.884 5.128-.033.039 5.49489819 2.2364658 7.384-.351z" fill="#F2B566"/><path d="M8.69999981 18.5L10.701 15.928l1.391 1.17-2.511 3.524-.88100019-2.122zM5.981 20.621l-2.528-3.683 1.275-.971L7.30000019 18.5 5.981 20.621z" fill="#0D6FE0"/><path d="M10.694 14.988c.703-.646 1.398-1.262 1.594-2.185.322-1.512.493-3.787.343-4.661.375-.392 0-2.143 0-2.927 0-.784-1.145-2.865-8.455-1.542-.088-.02-1.939 4.149-1.632 4.469-.151.874.021 3.149.342 4.661.322 1.513 1.25 2.185 2.226 2.395.976.209 4.879.436 5.582-.21z" fill="#FBBB69"/><path d="M3.804 7.293c.82-.667 5.244-1.225 6.017-2.516.229.349.229.153.229.963 0 .81 0 .982-.229 1.553.852-.209 1.141-.666 1.375-1.17 1.46 1.127 1.399 3.589 1.399 4.728.377-.375.632-2.606.632-3.355 0-.749.159-4.913-4.752-5.855-.088-.019-.179-.029-.267-.05-.351-.082-1.075-.094-1.416 0-.087.024-.179.031-.267.05-4.911.942-4.752 5.106-4.752 5.855 0 .749.371 2.363.748 2.738-.03.163.462-2.274 1.283-2.941z" fill="#B26714"/><path fill="red" d="M7.30000019 18.5h1.39999962L9 20.057373 8.5 24h-1L7 20.0499268z"/></g></svg>