<svg width="16" height="16" xmlns="http://www.w3.org/2000/svg"><g fill="none" fill-rule="evenodd"><path d="M16 12.7781111c-.5345185-.1216111-1.4317037-.2566667-1.7973333-.3403889-.053926-.0213889-.4355556-.2835555-.4533334-.3031111-.170074-.1796667-3.3226666-.1796667-3.4927407 0-.0177778.0195556-.45807408.1619445-.51200001.1827222-.36562963.0843334-2.2477037.5359445-2.41125926.6098889.00355556.913.00118519 1.9103889.00118519 1.9103889-.00059259.6752778.56395363 1.163 1.20869437 1.1623889h6.12345381C15.4030463 16 16 15.4030463 16 14.6666667v-1.8885556z" fill="#868686"/><path d="M14.0687407 12.6369444C13.408 11.5534444 13.408 10.6178333 13.408 9.71766667c.3514074-.57383334-3.54251852-.57383334-3.1911111 0 0 .90016663.1819259 2.28066663-.52385186 3.13377773-.01955556.0238334 3.25623596 1.3667292 4.37570366-.2145z" fill="#9D7036"/><path d="M12.4888888 13.3611111l1.1857779-1.5717778.8242963.715-1.488 2.1535556-.5220742-1.2967778zm-1.6112592 1.2961667l-1.49807404-2.2507222.75555554-.5933889 1.5241483 1.5479444-.7816298 1.2961667z" fill="#262626"/><path d="M13.6705185 11.2148889c.4165926-.3947778.8284445-.7712222.9445926-1.33527779.1908148-.924.2921482-2.31427778.2032593-2.84838889.2222222-.23955555 0-1.30961111 0-1.78872222 0-.47911111-.6785185-1.75083333-5.0103704-.94233333-.05214815-.01222223-1.14903704 2.5355-.96711111 2.73105555-.08948148.53411111.01244444 1.92438889.20266667 2.84838889.19081481.92461109.74074074 1.33527779 1.31911114 1.46361109.5783703.1277222 2.8912592.2664445 3.3078518-.1283333z" fill="#D19241"/><path d="M9.58755556 6.51238889c.48592594-.40761111 3.10755554-.74861111 3.56562964-1.53755556.1357037.21327778.1357037.0935.1357037.5885s0 .60011111-.1357037.94905556c.5048889-.12772222.6761481-.407.8148148-.715.8651852.68872222.829037 2.19327778.829037 2.88933333.2234074-.22916666.3745186-1.59255555.3745186-2.05027778 0-.45772222.0942222-3.00238888-2.816-3.57805555-.0521482-.01161111-.1060741-.01772222-.1582223-.03055556-.208-.05011111-.637037-.05744444-.8391111 0-.0515555.01466667-.1060741.01894445-.1582222.03055556-2.91022222.57566667-2.816 3.12033333-2.816 3.57805555 0 .45772223.21985185 1.44405556.44325926 1.67322223-.01777778.09961111.27377778-1.38966667.7602963-1.79727778z" fill="#262626"/><path fill="#FAD00A" d="M11.6592594 13.3611111h.8296294l.1777779.951728L12.460951 16h-.7729821l-.2064874-1.6917114z"/><path d="M9.42 11.6973333c-.60133333-.1326666-1.28066667-.28-1.692-.3713333-.06066667-.0233333-.49-.3093333-.51-.3306667-.19133333-.196-3.738-.196-3.92933333 0-.02.0213334-.51533334.1766667-.576.1993334C2.30133333 11.2866667.184 11.7793333 0 11.86c.004.996.00133333 2.8113333.00133333 2.8113333-.00066666.7366667.602 1.3333334 1.32733334 1.3326667 0 0 8.74000003-.004 9.82666663-.004.194-.6146667.24-1.518.24-2.29 0-1.358-1.42999997-1.9133333-1.9753333-2.0126667z" fill="#1A96F1"/><path d="M7.57733333 11.5433333C6.834 10.3613333 6.834 9.34066667 6.834 8.35866667c.39533333-.626-3.98533333-.626-3.59 0 0 .982.20466667 2.48800003-.58933333 3.41866663-.022.026 3.66326546 1.4909772 4.92266666-.234z" fill="#F2B566"/><path d="M5.79999987 12.3333333L7.134 10.6186667l.92733333.78-1.674 2.3493333-.58733346-1.4146667zm-1.81266654 1.414L2.302 11.292l.85-.6473333 1.71466679 1.6886666-.87933346 1.414z" fill="#0D6FE0"/><path d="M7.12933333 9.992c.46866667-.43066667.932-.84133333 1.06266667-1.45666667.21466667-1.008.32866667-2.52466666.22866667-3.10733333.25-.26133333 0-1.42866667 0-1.95133333 0-.52266667-.76333334-1.91-5.63666667-1.028-.05866667-.01333334-1.29266667 2.766-1.088 2.97933333-.10066667.58266667.014 2.09933333.228 3.10733333C2.13866667 9.544 2.75733333 9.992 3.408 10.132c.65066667.1393333 3.25266667.2906667 3.72133333-.14z" fill="#FBBB69"/><path d="M2.536 4.862c.54666667-.44466667 3.496-.81666667 4.01133333-1.67733333.15266667.23266666.15266667.102.15266667.642S6.7 4.48133333 6.54733333 4.862c.568-.13933333.76066667-.444.91666667-.78.97333333.75133333.93266667 2.39266667.93266667 3.152C8.648 6.984 8.818 5.49666667 8.818 4.99733333 8.818 4.498 8.924 1.722 5.65 1.094c-.05866667-.01266667-.11933333-.01933333-.178-.03333333-.234-.05466667-.71666667-.06266667-.944 0-.058.016-.11933333.02066666-.178.03333333-3.274.628-3.168 3.404-3.168 3.90333333 0 .49933334.24733333 1.57533334.49866667 1.82533334-.02.10866666.308-1.516.85533333-1.96066667z" fill="#B26714"/><path fill="red" d="M4.86666679 12.3333333h.93333308L6 13.371582 5.66666667 16H5l-.33333333-2.6333822z"/></g></svg>