<svg width="24" height="24" xmlns="http://www.w3.org/2000/svg"><g fill="#2BB6D3" fill-rule="evenodd"><path d="M6.484 13.591a2.25 2.25 0 0 1-1.443.52 2.234 2.234 0 0 1-2.245-2.222c0-.644.276-1.223.718-1.63a5.5 5.5 0 0 1-.27-1.703C3.245 5.487 5.759 3 8.858 3h8.53C20.488 3 23 5.487 23 8.556c0 3.068-2.513 5.555-5.612 5.555h-8.53a5.639 5.639 0 0 1-2.374-.52zm2.373-3.48a1.34 1.34 0 0 0 1.347-1.333 1.34 1.34 0 0 0-1.347-1.334A1.34 1.34 0 0 0 7.51 8.778a1.34 1.34 0 0 0 1.347 1.333zm4.041 0a1.34 1.34 0 0 0 1.347-1.333 1.34 1.34 0 0 0-1.347-1.334 1.34 1.34 0 0 0-1.347 1.334 1.34 1.34 0 0 0 1.347 1.333zm4.04 0a1.34 1.34 0 0 0 1.348-1.333 1.34 1.34 0 0 0-1.347-1.334 1.34 1.34 0 0 0-1.347 1.334 1.34 1.34 0 0 0 1.347 1.333zM1.898 15A.893.893 0 0 1 1 14.111c0-.49.402-.889.898-.889s.898.398.898.89c0 .49-.402.888-.898.888z"/><path d="M1.993 18.14c0 .415.157.705.496.956l-.337.328c-.424-.352-.613-.735-.613-1.284v-1.247h-.521v-.44h.52v-.882h.457v.881h.555v.44h-.555v1.248h-.002zM3.576 18.202s.117.781.717.781c.429 0 .677-.353.677-.353l.351.278s-.326.503-1.028.503c-.828 0-1.212-.71-1.212-1.51s.443-1.511 1.212-1.511c.652 0 .964.353 1.1.87-.286.573-.82.942-1.543.942h-.274zm.274-.396c.41 0 .76-.145 1.056-.547-.104-.264-.293-.441-.613-.441-.691 0-.742.988-.742.988h.299zM6.16 15.006h.469v4.34H6.16zM7.952 18.202s.117.781.717.781c.429 0 .677-.353.677-.353l.351.278s-.326.503-1.028.503c-.828 0-1.21-.71-1.21-1.51s.442-1.511 1.21-1.511c.651 0 .964.353 1.1.87-.287.573-.82.942-1.544.942h-.273zm.273-.396c.41 0 .762-.145 1.054-.547-.103-.264-.292-.441-.612-.441-.69 0-.742.988-.742.988h.3zM11.136 19.14s-.19.239-.287.309l-.795-.39c.338-.251.496-.542.496-.957v-3.096h.912v1.567s.22-.245.585-.245c.976 0 1.505.762 1.505 1.572 0 .811-.638 1.573-1.505 1.573-.572 0-.911-.333-.911-.333m.326-1.24c0 .372.2.755.585.755.377 0 .58-.39.58-.755s-.201-.756-.58-.756c-.384 0-.585.385-.585.756M14.176 15.006h.926v4.34h-.926zM20.348 19.347h-.912v-4.341h.912v2.429l1.081-1.171.834.428-1.224 1.12 1.391 1.284-.845.44-1.237-1.32zM17.245 19.354c-.865 0-1.568-.678-1.568-1.514 0-.835.703-1.514 1.568-1.514.864 0 1.567.679 1.567 1.514 0 .836-.703 1.514-1.567 1.514m0-2.596c-.62 0-1.12.484-1.12 1.082 0 .596.503 1.083 1.12 1.083.618 0 1.12-.485 1.12-1.083 0-.596-.502-1.082-1.12-1.082" fill-rule="nonzero"/><path d="M17.008 17.605a.195.195 0 0 1-.39 0 .195.195 0 0 1 .39 0M17.871 17.605a.195.195 0 0 1-.193.194.194.194 0 1 1 0-.389c.105.002.193.09.193.195M17.252 18.56a.655.655 0 0 1-.564-.32l-.06-.104h1.245l-.06.103a.653.653 0 0 1-.56.321zm-.367-.286a.52.52 0 0 0 .73 0h-.73zM16.94 20.763l-.2-.298-2.144-.247.191-.337 2.143.247.2.298h.232l.199-.298 2.145-.247.191.337-2.145.247-.199.298z" fill-rule="nonzero"/><path d="M17.446 20.148l-.162-.022c.054-.362.583-.423 1.25-.502.213-.024.434-.05.657-.087l.027.157c-.227.038-.449.064-.664.089-.574.064-1.071.122-1.108.365M17.069 20.148c-.037-.24-.533-.3-1.109-.367-.214-.025-.437-.051-.663-.089l.027-.156c.223.037.443.062.656.086.667.078 1.194.14 1.251.502l-.162.024z" fill-rule="nonzero"/></g></svg>