<svg width="64" height="64" viewBox="0 0 64 64" fill="none" xmlns="http://www.w3.org/2000/svg">
<g id="m/mime_sound_wav/mime_sound_wav_64x64">
<g id="64/baseshape">
<g id="64/baseshape_2">
<path id="OutsideBorder" d="M58 60C58 61.1046 57.1046 62 56 62H15C13.8954 62 13 61.1046 13 60V4C13 2.89543 13.8954 2 15 2H44L58 17V60Z" fill="#ECF0F4"/>
</g>
<path id="Combined Shape" fill-rule="evenodd" clip-rule="evenodd" d="M54 28C54 20.2759 45.2992 20.0095 44.9992 20.0003L44.9913 20L45 20H43V48C42.356 47.4683 40.9347 46.9231 39 47C36.388 46.9231 34 48.731 34 51C34 53.1921 36.388 55 39 55C42.2787 55 44.6667 53.1921 45 51V24C50.7586 24.035 53.4858 27.3769 53.9334 27.9253C53.978 27.9801 54 28.007 54 28ZM39 28H14V30H39V28ZM14 34H39V36H14V34ZM39 40H14V42H39V40Z" fill="#91A0AF"/>
</g>
<g id="64/corner">
<path id="InsideWhite" fill-rule="evenodd" clip-rule="evenodd" d="M44 17V2L58 17H44Z" fill="#D8E0E8"/>
</g>
<g id="64/chard/color/yellow">
<path id="Shape" d="M14 19V56L32 59V16L14 19Z" fill="#ECF0F4"/>
<path id="Chard" d="M30 18.4318V56.6364L6 53V22L30 18.4318Z" fill="#00B4E2"/>
</g>
<g id="64/chard/letter/a">
<path id="W" fill-rule="evenodd" clip-rule="evenodd" d="M11.6048 46.12L7.03223 29.2H10.9922L13.3088 40.576L16.4642 29.152H19.6322L22.8349 40.576L25.1467 29.2H29.0107L24.4429 46.12H21.2269L18.0002 35.128L14.8208 46.12H11.6048Z" fill="white"/>
</g>
</g>
</svg>
