<svg width="24" height="24" viewBox="0 0 24 24" fill="none" xmlns="http://www.w3.org/2000/svg">
<path fill-rule="evenodd" clip-rule="evenodd" d="M0 4V21.0026C0 22.1057 0.897026 23 2.00495 23H21.9951C23.1024 23 24 22.1091 24 21.0026V4H0Z" fill="#DDDDEA"/>
<path fill-rule="evenodd" clip-rule="evenodd" d="M19.3813 10.9025C19.5761 10.9658 19.7841 11 20 11C21.1046 11 22 10.1046 22 9C22 7.89543 21.1046 7 20 7C18.8954 7 18 7.89543 18 9C18 9.52743 18.2042 10.0072 18.5378 10.3645L15.7067 15.1284C15.487 15.0454 15.2488 15 15 15C14.3946 15 13.8521 15.2689 13.4854 15.6939L10.972 14.3354C10.9904 14.2263 11 14.1143 11 14C11 12.8954 10.1046 12 9 12C7.89543 12 7 12.8954 7 14C7 14.4198 7.12934 14.8094 7.35035 15.1311L5.13647 17.354C4.81373 17.1308 4.42214 17 4 17C2.89543 17 2 17.8954 2 19C2 20.1046 2.89543 21 4 21C5.10457 21 6 20.1046 6 19C6 18.6812 5.92539 18.3797 5.79268 18.1123L8.10595 15.7895C8.375 15.9242 8.67865 16 9 16C9.63155 16 10.1947 15.7073 10.5613 15.2501L13.0419 16.5909C13.0144 16.723 13 16.8598 13 17C13 18.1046 13.8954 19 15 19C16.1046 19 17 18.1046 17 17C17 16.5071 16.8217 16.0558 16.526 15.7072L19.3813 10.9025Z" fill="#0D6FE0"/>
<path fill-rule="evenodd" clip-rule="evenodd" d="M21 9C21 9.55228 20.5523 10 20 10C19.4477 10 19 9.55228 19 9C19 8.44772 19.4477 8 20 8C20.5523 8 21 8.44772 21 9ZM16 17C16 17.5523 15.5523 18 15 18C14.4477 18 14 17.5523 14 17C14 16.4477 14.4477 16 15 16C15.5523 16 16 16.4477 16 17ZM4 20C4.55228 20 5 19.5523 5 19C5 18.4477 4.55228 18 4 18C3.44772 18 3 18.4477 3 19C3 19.5523 3.44772 20 4 20ZM10 14C10 14.5523 9.55228 15 9 15C8.44772 15 8 14.5523 8 14C8 13.4477 8.44772 13 9 13C9.55228 13 10 13.4477 10 14Z" fill="white"/>
<path fill-rule="evenodd" clip-rule="evenodd" d="M1.50131 2C0.672158 2 0 2.6658 0 3.5V5H24V3.5C24 2.67157 23.3331 2 22.4987 2H1.50131Z" fill="#0D6FE0"/>
<path fill-rule="evenodd" clip-rule="evenodd" d="M2 3.5C2 3.22386 2.23193 3 2.5 3C2.77614 3 3 3.23193 3 3.5C3 3.77614 2.76807 4 2.5 4C2.22386 4 2 3.76807 2 3.5ZM21 3.5C21 3.22386 21.2319 3 21.5 3C21.7761 3 22 3.23193 22 3.5C22 3.77614 21.7681 4 21.5 4C21.2239 4 21 3.76807 21 3.5Z" fill="white"/>
</svg>
