<svg width="64" height="64" viewBox="0 0 64 64" fill="none" xmlns="http://www.w3.org/2000/svg">
<g id="m/mime_calc_xltx/mime_calc_xltx_64x64">
<g id="64/baseshape">
<g id="64/baseshape_2">
<path id="OutsideBorder" d="M58 60C58 61.1046 57.1046 62 56 62H15C13.8954 62 13 61.1046 13 60V4C13 2.89543 13.8954 2 15 2H44L58 17V60Z" fill="#ECF0F4"/>
</g>
<g id="Group">
<path id="Rectangle-path" fill-rule="evenodd" clip-rule="evenodd" d="M31 49H41V57H31V49Z" fill="#86BFA0"/>
<path id="Rectangle-path_2" fill-rule="evenodd" clip-rule="evenodd" d="M43 49H53V57H43V49Z" fill="#86BFA0"/>
<rect id="Rectangle-path_3" x="31" y="39" width="10" height="8" fill="#86BFA0"/>
<rect id="Rectangle-path_4" x="43" y="39" width="10" height="8" fill="#86BFA0"/>
<rect id="Rectangle-path_5" x="31" y="29" width="10" height="8" fill="#86BFA0"/>
<rect id="Rectangle-path_6" x="43" y="29" width="10" height="8" fill="#86BFA0"/>
<path id="Rectangle-path_7" fill-rule="evenodd" clip-rule="evenodd" d="M31 19H41V27H31V19Z" fill="#86BFA0"/>
<path id="Rectangle-path_8" fill-rule="evenodd" clip-rule="evenodd" d="M43 19H53V27H43V19Z" fill="#86BFA0"/>
<path id="Rectangle-path_9" fill-rule="evenodd" clip-rule="evenodd" d="M18 19H29V27H18V19Z" fill="#91A0AF"/>
<rect id="Rectangle-path_10" x="31" y="9" width="10" height="8" fill="#91A0AF"/>
<path id="Rectangle-path_11" fill-rule="evenodd" clip-rule="evenodd" d="M43 9H45.5L53 17H43V9Z" fill="#91A0AF"/>
<rect id="Rectangle-path_12" x="18" y="9" width="11" height="8" fill="#91A0AF"/>
</g>
</g>
<g id="64/corner">
<path id="InsideWhite" fill-rule="evenodd" clip-rule="evenodd" d="M44 17V2L58 17H44Z" fill="#D8E0E8"/>
</g>
<g id="64/chard/color/yellow">
<path id="Shape" d="M14 19V56L32 59V16L14 19Z" fill="#ECF0F4"/>
<path id="Chard" d="M30 18.4318V56.6364L6 53V22L30 18.4318Z" fill="#207347"/>
</g>
<g id="64/chard/letter/a">
<path id="X" fill-rule="evenodd" clip-rule="evenodd" d="M9.95996 46L15.816 37.456L10.2 29.2H14.52L18.024 34.648L21.6 29.2H25.8L20.184 37.408L26.04 46H21.72L17.952 40.24L14.16 46H9.95996Z" fill="white"/>
</g>
</g>
</svg>
