<svg xmlns="http://www.w3.org/2000/svg" width="16" height="16" viewBox="0 0 16 16">
  <defs>
    <linearGradient id="a" x1="50%" x2="50%" y1="100%" y2="0%">
      <stop offset="25%" stop-color="#DBDBDA"/>
      <stop offset="100%" stop-color="#FFFFFF"/>
    </linearGradient>
    <radialGradient id="b" cx="57.025%" cy="39.017%" r="61.032%" fx="57.025%" fy="39.017%">
      <stop offset="0%" stop-color="#2ABCE1"/>
      <stop offset="11.363%" stop-color="#2ABBE1"/>
      <stop offset="100%" stop-color="#3375F8"/>
    </radialGradient>
    <linearGradient id="c" x1="49.05%" x2="25.713%" y1="35.703%" y2="77.572%">
      <stop offset="0%" stop-color="#000000" stop-opacity="0"/>
      <stop offset="100%" stop-color="#000000"/>
    </linearGradient>
  </defs>
  <g fill="none" fill-rule="evenodd">
    <circle cx="8" cy="8" r="8" fill="url(#a)" fill-rule="nonzero"/>
    <circle cx="8" cy="8" r="7.4" fill="url(#b)" fill-rule="nonzero"/>
    <path fill="#FFFFFF" fill-rule="nonzero" d="M8.08733333,13.6873333 L8.08733333,14.994 C8.08733333,15.044 8.044,15.0873333 7.98733333,15.0873333 C7.93133333,15.0873333 7.88733333,15.044 7.88733333,14.994 L7.88733333,13.6873333 C7.88733333,13.6373333 7.93733333,13.594 7.98733333,13.594 C8.044,13.594 8.08733333,13.6373333 8.08733333,13.6873333 Z M7.09866667,13.6186667 L6.872,14.9053333 C6.86266667,14.954 6.812,14.9893333 6.75666667,14.98 C6.70133333,14.97 6.666,14.92 6.67466667,14.87 L6.90133333,13.5833333 C6.91,13.5346667 6.96666667,13.5 7.016,13.5086667 C7.07133333,13.5186667 7.10733333,13.5686667 7.09866667,13.6186667 Z M6.136,13.3786667 L5.68933333,14.606 C5.67266667,14.6526667 5.616,14.6793333 5.56333333,14.66 C5.51,14.6406667 5.48466667,14.5846667 5.50133333,14.538 L5.948,13.31 C5.96533333,13.2633333 6.02733333,13.2393333 6.07466667,13.2566667 C6.12733333,13.2753333 6.15333333,13.332 6.136,13.3786667 Z M5.23066667,12.9753333 L4.57733333,14.1066667 C4.552,14.15 4.49266667,14.1666667 4.444,14.138 C4.39533333,14.11 4.37933333,14.05 4.404,14.0066667 L5.05733333,12.8753333 C5.082,12.832 5.14733333,12.8193333 5.19066667,12.844 C5.23933333,12.8726667 5.25533333,12.932 5.23066667,12.9753333 Z M4.408,12.4213333 L3.568,13.4213333 C3.53666667,13.46 3.47466667,13.4653333 3.432,13.4293333 C3.38866667,13.3933333 3.38333333,13.3313333 3.41533333,13.2933333 L4.25533333,12.2926667 C4.28733333,12.254 4.35333333,12.2526667 4.392,12.2853333 C4.43466667,12.3213333 4.44066667,12.3826667 4.408,12.4213333 Z M3.69466667,11.7326667 L2.69466667,12.5726667 C2.656,12.604 2.59466667,12.5993333 2.558,12.556 C2.522,12.5126667 2.52733333,12.4513333 2.566,12.4186667 L3.566,11.5786667 C3.60466667,11.5473333 3.67,11.5573333 3.70266667,11.5953333 C3.73866667,11.6386667 3.73333333,11.7 3.69466667,11.7326667 Z M3.112,10.9306667 L1.98066667,11.584 C1.93733333,11.6086667 1.878,11.5926667 1.84933333,11.544 C1.82133333,11.4953333 1.83733333,11.4353333 1.88066667,11.4106667 L3.012,10.7573333 C3.05533333,10.732 3.11866667,10.7533333 3.14333333,10.7973333 C3.17133333,10.8453333 3.15533333,10.9053333 3.112,10.9306667 Z M2.67733333,10.0393333 L1.45,10.486 C1.40333333,10.5033333 1.34666667,10.4766667 1.32733333,10.424 C1.308,10.3706667 1.334,10.3153333 1.38133333,10.298 L2.60866667,9.85133333 C2.65533333,9.834 2.714,9.866 2.73133333,9.91333333 C2.75,9.966 2.72466667,10.022 2.67733333,10.0393333 Z M2.404,9.086 L1.11733333,9.31266667 C1.068,9.32133333 1.01733333,9.286 1.008,9.23066667 C0.998,9.17533333 1.03333333,9.12466667 1.08266667,9.116 L2.36933333,8.88933333 C2.418,8.88066667 2.47,8.92266667 2.47866667,8.97133333 C2.48866667,9.02666667 2.45333333,9.078 2.404,9.086 Z M2.3,8.1 L0.993333333,8.1 C0.944,8.1 0.9,8.056 0.9,8 C0.9,7.944 0.944,7.9 0.993333333,7.9 L2.3,7.9 C2.35,7.9 2.39333333,7.95 2.39333333,8 C2.39333333,8.056 2.35,8.1 2.3,8.1 Z M2.36933333,7.11066667 L1.08266667,6.884 C1.03333333,6.87533333 0.998,6.82466667 1.008,6.76933333 C1.01733333,6.714 1.068,6.67866667 1.11733333,6.68733333 L2.404,6.914 C2.45333333,6.92266667 2.48733333,6.97933333 2.47866667,7.02866667 C2.46866667,7.084 2.41866667,7.11933333 2.36933333,7.11066667 Z M2.60933333,6.14866667 L1.38133333,5.702 C1.33466667,5.68466667 1.308,5.62866667 1.328,5.57533333 C1.34666667,5.52333333 1.40266667,5.49666667 1.45,5.514 L2.67666667,5.96066667 C2.724,5.978 2.748,6.04 2.73133333,6.08733333 C2.71133333,6.14 2.656,6.166 2.60866667,6.14866667 L2.60933333,6.14866667 Z M3.012,5.24266667 L1.88066667,4.58933333 C1.83733333,4.56466667 1.82133333,4.50466667 1.84933333,4.456 C1.878,4.40733333 1.93733333,4.39133333 1.98066667,4.416 L3.112,5.06933333 C3.15533333,5.09466667 3.168,5.16 3.14333333,5.20266667 C3.11533333,5.252 3.05533333,5.268 3.012,5.24266667 Z M3.56666667,4.42066667 L2.566,3.58066667 C2.52733333,3.54866667 2.522,3.48733333 2.558,3.444 C2.594,3.40133333 2.656,3.396 2.694,3.428 L3.69466667,4.268 C3.73333333,4.3 3.73466667,4.366 3.70266667,4.40466667 C3.666,4.44733333 3.60466667,4.45266667 3.56666667,4.42066667 Z M4.25533333,3.70733333 L3.41533333,2.70733333 C3.38333333,2.66866667 3.38866667,2.60733333 3.432,2.57066667 C3.47466667,2.53466667 3.53666667,2.54 3.56866667,2.578 L4.40866667,3.57866667 C4.44066667,3.61733333 4.43,3.68266667 4.392,3.71466667 C4.34866667,3.75133333 4.28733333,3.746 4.25533333,3.708 L4.25533333,3.70733333 Z M5.05733333,3.12466667 L4.404,1.99333333 C4.37933333,1.95 4.39533333,1.89 4.444,1.862 C4.49266667,1.834 4.552,1.85 4.57733333,1.89333333 L5.23066667,3.02466667 C5.25533333,3.068 5.234,3.13066667 5.19066667,3.156 C5.142,3.184 5.082,3.168 5.05733333,3.12466667 Z M5.948,2.69 L5.50133333,1.462 C5.48466667,1.41533333 5.51066667,1.35933333 5.56333333,1.34 C5.61666667,1.32066667 5.67266667,1.34666667 5.69,1.39333333 L6.13666667,2.62133333 C6.15333333,2.668 6.12133333,2.72666667 6.074,2.74333333 C6.02133333,2.76333333 5.96533333,2.73666667 5.948,2.69 Z M6.90133333,2.41666667 L6.67466667,1.13 C6.666,1.08066667 6.70133333,1.03 6.75666667,1.02 C6.812,1.01066667 6.86333333,1.046 6.87133333,1.09533333 L7.098,2.382 C7.10733333,2.43066667 7.06533333,2.482 7.016,2.49133333 C6.96066667,2.50066667 6.91,2.46533333 6.90133333,2.416 L6.90133333,2.41666667 Z M7.888,2.31266667 L7.888,1.006 C7.888,0.956 7.93133333,0.912666667 7.988,0.912666667 C8.044,0.912666667 8.088,0.956 8.088,1.006 L8.088,2.31266667 C8.088,2.36266667 8.03733333,2.406 7.988,2.406 C7.93133333,2.406 7.888,2.36266667 7.888,2.31266667 Z M8.87666667,2.38133333 L9.10333333,1.09466667 C9.112,1.046 9.16333333,1.01066667 9.218,1.02 C9.27333333,1.03 9.30933333,1.08 9.30066667,1.13 L9.074,2.41666667 C9.06466667,2.46533333 9.008,2.5 8.95866667,2.49133333 C8.90333333,2.48133333 8.868,2.43133333 8.87666667,2.38133333 Z M9.83866667,2.62133333 L10.2853333,1.394 C10.3026667,1.34733333 10.3586667,1.32066667 10.412,1.34 C10.4646667,1.35933333 10.4906667,1.41533333 10.4733333,1.462 L10.0266667,2.69 C10.0093333,2.73666667 9.94733333,2.76066667 9.90066667,2.74333333 C9.84733333,2.72466667 9.822,2.668 9.83866667,2.62133333 Z M10.7446667,3.02466667 L11.398,1.89333333 C11.4226667,1.85 11.4826667,1.83333333 11.5313333,1.862 C11.58,1.89 11.596,1.95 11.5713333,1.99333333 L10.918,3.12466667 C10.8926667,3.168 10.828,3.18066667 10.7846667,3.156 C10.7353333,3.12733333 10.7193333,3.068 10.7446667,3.02466667 Z M11.5666667,3.57866667 L12.4066667,2.57866667 C12.4386667,2.54 12.5,2.53466667 12.5433333,2.57066667 C12.5866667,2.60666667 12.592,2.66866667 12.5593333,2.70666667 L11.7193333,3.70733333 C11.688,3.746 11.6213333,3.74733333 11.5833333,3.71466667 C11.54,3.67866667 11.5346667,3.61733333 11.5666667,3.57866667 Z M12.28,4.26733333 L13.2806667,3.42733333 C13.3193333,3.396 13.3806667,3.40066667 13.4166667,3.444 C13.4526667,3.48733333 13.4473333,3.54866667 13.4093333,3.58133333 L12.4086667,4.42133333 C12.3706667,4.45266667 12.3046667,4.44266667 12.2726667,4.40466667 C12.2366667,4.36133333 12.242,4.3 12.28,4.26733333 Z M12.8633333,5.06933333 L13.994,4.416 C14.0373333,4.39133333 14.0973333,4.40733333 14.1253333,4.456 C14.1533333,4.50466667 14.1373333,4.56466667 14.094,4.58933333 L12.9633333,5.24266667 C12.92,5.268 12.8566667,5.24666667 12.832,5.20266667 C12.804,5.15466667 12.82,5.09466667 12.8633333,5.06933333 Z M13.298,5.96066667 L14.5246667,5.514 C14.572,5.49666667 14.628,5.52333333 14.6473333,5.576 C14.6673333,5.62933333 14.6406667,5.68466667 14.594,5.702 L13.366,6.14866667 C13.3193333,6.166 13.2613333,6.134 13.244,6.08666667 C13.2246667,6.034 13.2506667,5.978 13.2973333,5.96066667 L13.298,5.96066667 Z M13.5713333,6.914 L14.858,6.68733333 C14.9066667,6.67866667 14.958,6.714 14.9673333,6.76933333 C14.9773333,6.82466667 14.9413333,6.87533333 14.8926667,6.884 L13.606,7.11066667 C13.5566667,7.11933333 13.5046667,7.07733333 13.496,7.02866667 C13.4866667,6.97333333 13.522,6.922 13.5713333,6.914 Z M13.6746667,7.9 L14.9813333,7.9 C15.0313333,7.9 15.0746667,7.944 15.0746667,8 C15.0746667,8.056 15.0313333,8.1 14.9813333,8.1 L13.6746667,8.1 C13.6246667,8.1 13.5813333,8.05 13.5813333,8 C13.5813333,7.944 13.6253333,7.9 13.6746667,7.9 Z M13.606,8.88933333 L14.8926667,9.116 C14.9413333,9.12466667 14.9773333,9.17533333 14.9673333,9.23066667 C14.9573333,9.286 14.9073333,9.32133333 14.8573333,9.31266667 L13.5706667,9.086 C13.522,9.07733333 13.4873333,9.02066667 13.496,8.97133333 C13.506,8.916 13.5566667,8.88066667 13.606,8.88933333 Z M13.366,9.85133333 L14.594,10.298 C14.6406667,10.3153333 14.6673333,10.3713333 14.6473333,10.4246667 C14.628,10.4766667 14.572,10.5033333 14.5253333,10.486 L13.298,10.0393333 C13.2513333,10.022 13.2266667,9.96 13.244,9.91266667 C13.2633333,9.86 13.3193333,9.834 13.366,9.85133333 Z M12.9633333,10.7573333 L14.094,11.4106667 C14.1373333,11.4353333 14.154,11.4953333 14.1253333,11.544 C14.0973333,11.5926667 14.0373333,11.6086667 13.994,11.584 L12.8633333,10.9306667 C12.82,10.9053333 12.8066667,10.84 12.832,10.7973333 C12.86,10.748 12.92,10.732 12.9633333,10.7573333 Z M12.4086667,11.5793333 L13.4093333,12.4193333 C13.4473333,12.4513333 13.4526667,12.5126667 13.4166667,12.556 C13.3806667,12.5986667 13.3193333,12.604 13.2806667,12.572 L12.2806667,11.732 C12.242,11.7 12.2406667,11.634 12.2726667,11.5953333 C12.3086667,11.5526667 12.3706667,11.5473333 12.4086667,11.5793333 Z M11.72,12.2926667 L12.56,13.2926667 C12.592,13.3313333 12.5866667,13.3926667 12.5433333,13.4293333 C12.5,13.4653333 12.4386667,13.46 12.4066667,13.422 L11.5666667,12.4213333 C11.5346667,12.3826667 11.5446667,12.3173333 11.5833333,12.2853333 C11.626,12.2486667 11.688,12.254 11.72,12.292 L11.72,12.2926667 Z M10.918,12.8753333 L11.5713333,14.0066667 C11.596,14.05 11.58,14.11 11.5313333,14.138 C11.4826667,14.166 11.4226667,14.15 11.398,14.1066667 L10.7446667,12.9753333 C10.7193333,12.932 10.7413333,12.8693333 10.7846667,12.844 C10.8333333,12.816 10.8926667,12.832 10.918,12.8753333 Z M10.0266667,13.31 L10.4733333,14.538 C10.4906667,14.5846667 10.4646667,14.6406667 10.4113333,14.66 C10.3586667,14.6793333 10.3026667,14.6533333 10.2853333,14.6066667 L9.83866667,13.3786667 C9.822,13.332 9.854,13.2733333 9.90066667,13.2566667 C9.954,13.2366667 10.0093333,13.2633333 10.0273333,13.31 L10.0266667,13.31 Z M9.07333333,13.5833333 L9.3,14.87 C9.30933333,14.9193333 9.27333333,14.97 9.218,14.98 C9.16266667,14.9893333 9.112,14.954 9.10333333,14.9046667 L8.87666667,13.618 C8.868,13.5693333 8.91,13.518 8.95866667,13.5086667 C9.014,13.4993333 9.06533333,13.5346667 9.07333333,13.584 L9.07333333,13.5833333 Z M7.53333333,14.3386667 L7.47733333,14.976 C7.47333333,15.0253333 7.426,15.0653333 7.37,15.0606667 C7.314,15.0553333 7.274,15.008 7.27866667,14.9586667 L7.334,14.3213333 C7.33866667,14.2713333 7.392,14.232 7.442,14.2366667 C7.498,14.2413333 7.538,14.2886667 7.53333333,14.3386667 Z M6.44,14.1633333 L6.274,14.7813333 C6.26066667,14.8293333 6.20733333,14.8606667 6.15333333,14.846 C6.09866667,14.8313333 6.068,14.778 6.08066667,14.7293333 L6.246,14.112 C6.25933333,14.0633333 6.31933333,14.034 6.36733333,14.0473333 C6.42133333,14.0613333 6.45266667,14.1153333 6.43933333,14.1633333 L6.44,14.1633333 Z M5.39333333,13.8013333 L5.12266667,14.3813333 C5.10133333,14.426 5.04266667,14.4473333 4.992,14.4233333 C4.94133333,14.4 4.92,14.3413333 4.94133333,14.2966667 L5.21133333,13.7166667 C5.23266667,13.6713333 5.29666667,13.6526667 5.342,13.674 C5.39266667,13.6973333 5.414,13.756 5.39266667,13.8006667 L5.39333333,13.8013333 Z M4.42466667,13.2626667 L4.058,13.786 C4.02933333,13.8273333 3.96866667,13.838 3.922,13.806 C3.876,13.7733333 3.86533333,13.7126667 3.894,13.6713333 L4.26066667,13.148 C4.28933333,13.1066667 4.356,13.0993333 4.39666667,13.128 C4.44333333,13.1606667 4.45333333,13.2213333 4.42466667,13.2626667 Z M3.56466667,12.564 L3.11266667,13.016 C3.07733333,13.0513333 3.01533333,13.0513333 2.976,13.0113333 C2.936,12.9713333 2.936,12.91 2.97133333,12.8746667 L3.424,12.4226667 C3.45933333,12.3873333 3.52533333,12.3913333 3.56066667,12.4266667 C3.60066667,12.4666667 3.60066667,12.5286667 3.56533333,12.564 L3.56466667,12.564 Z M2.84,11.7266667 L2.316,12.0933333 C2.27466667,12.122 2.214,12.1113333 2.182,12.0653333 C2.14933333,12.0186667 2.16,11.9586667 2.20133333,11.9293333 L2.72533333,11.5626667 C2.766,11.534 2.83066667,11.5493333 2.85866667,11.5906667 C2.892,11.6373333 2.88066667,11.6973333 2.84,11.7266667 Z M2.27066667,10.776 L1.69066667,11.046 C1.646,11.0673333 1.588,11.046 1.564,10.9953333 C1.54,10.944 1.56133333,10.886 1.60666667,10.8653333 L2.18666667,10.5946667 C2.232,10.5733333 2.29266667,10.6006667 2.31333333,10.646 C2.33733333,10.6966667 2.316,10.7546667 2.27066667,10.776 Z M1.876,9.74133333 L1.258,9.90666667 C1.20933333,9.92 1.156,9.88866667 1.14133333,9.83466667 C1.12666667,9.78 1.158,9.72666667 1.206,9.71333333 L1.824,9.548 C1.872,9.53466667 1.92733333,9.572 1.94066667,9.62 C1.95466667,9.67466667 1.924,9.728 1.876,9.74133333 Z M1.666,8.65333333 L1.02933333,8.70933333 C0.979333333,8.71333333 0.932,8.674 0.926666667,8.618 C0.922,8.562 0.962,8.514 1.01133333,8.51 L1.64866667,8.454 C1.69866667,8.45 1.74666667,8.496 1.75066667,8.54533333 C1.756,8.602 1.716,8.64933333 1.666,8.65333333 Z M1.64866667,7.546 L1.01133333,7.49 C0.962,7.486 0.922,7.438 0.926666667,7.382 C0.932,7.326 0.979333333,7.28666667 1.02933333,7.29066667 L1.666,7.34666667 C1.716,7.35066667 1.75533333,7.40466667 1.75066667,7.45466667 C1.746,7.51066667 1.69866667,7.55 1.64866667,7.546 Z M1.824,6.452 L1.206,6.28666667 C1.158,6.27333333 1.12666667,6.22 1.14133333,6.16533333 C1.156,6.11133333 1.20933333,6.08066667 1.258,6.09333333 L1.876,6.25866667 C1.924,6.272 1.95333333,6.332 1.94066667,6.38 C1.926,6.434 1.872,6.46466667 1.824,6.452 Z M2.18666667,5.40533333 L1.60666667,5.13466667 C1.56133333,5.114 1.54,5.056 1.564,5.00466667 C1.588,4.954 1.646,4.93266667 1.69066667,4.954 L2.27066667,5.224 C2.316,5.24533333 2.33466667,5.30866667 2.31333333,5.354 C2.29,5.40533333 2.232,5.42666667 2.18666667,5.40533333 Z M2.72533333,4.43733333 L2.20133333,4.07066667 C2.16,4.042 2.14933333,3.98066667 2.18133333,3.93466667 C2.214,3.88866667 2.27466667,3.878 2.316,3.90666667 L2.84,4.27333333 C2.88066667,4.302 2.888,4.368 2.85933333,4.40933333 C2.82733333,4.45533333 2.766,4.466 2.72533333,4.43733333 Z M3.424,3.57733333 L2.97133333,3.12533333 C2.936,3.09 2.936,3.028 2.976,2.98866667 C3.016,2.94866667 3.07733333,2.94866667 3.11266667,2.984 L3.56533333,3.436 C3.60066667,3.47133333 3.596,3.538 3.56066667,3.57333333 C3.52066667,3.61333333 3.45933333,3.61333333 3.424,3.57733333 Z M4.26,2.852 L3.89333333,2.32866667 C3.86466667,2.28733333 3.87533333,2.22666667 3.92133333,2.194 C3.968,2.162 4.028,2.17266667 4.05733333,2.214 L4.424,2.73733333 C4.45266667,2.77866667 4.43733333,2.84333333 4.396,2.872 C4.34933333,2.904 4.28933333,2.89333333 4.26,2.852 Z M5.21066667,2.28333333 L4.94066667,1.70333333 C4.91933333,1.65866667 4.94066667,1.6 4.99133333,1.57666667 C5.04266667,1.55266667 5.10066667,1.574 5.122,1.61933333 L5.392,2.19933333 C5.41333333,2.244 5.38666667,2.30533333 5.34133333,2.326 C5.29,2.35 5.232,2.32866667 5.21066667,2.28333333 Z M6.24533333,1.888 L6.08,1.27066667 C6.06666667,1.222 6.098,1.16866667 6.15266667,1.154 C6.20666667,1.13933333 6.26066667,1.17066667 6.27333333,1.21866667 L6.43866667,1.83666667 C6.452,1.88466667 6.41466667,1.94 6.36666667,1.95266667 C6.312,1.96733333 6.25866667,1.93666667 6.24533333,1.888 Z M7.33333333,1.67866667 L7.278,1.04133333 C7.27333333,0.992 7.31333333,0.944666667 7.36933333,0.939333333 C7.42533333,0.934666667 7.47266667,0.974666667 7.47666667,1.024 L7.53266667,1.66133333 C7.53733333,1.71133333 7.49133333,1.75933333 7.44133333,1.76333333 C7.38533333,1.768 7.338,1.72866667 7.33333333,1.67866667 Z M8.44133333,1.66133333 L8.49666667,1.024 C8.50133333,0.974666667 8.54866667,0.934666667 8.60466667,0.939333333 C8.66066667,0.944666667 8.70066667,0.992 8.696,1.04133333 L8.64,1.67866667 C8.636,1.72866667 8.582,1.768 8.53266667,1.76333333 C8.47666667,1.75866667 8.43666667,1.71133333 8.44133333,1.66133333 Z M9.53466667,1.83666667 L9.70066667,1.21866667 C9.71333333,1.17066667 9.76733333,1.13933333 9.82066667,1.154 C9.87533333,1.16866667 9.90666667,1.222 9.894,1.27066667 L9.728,1.888 C9.71466667,1.93666667 9.65533333,1.966 9.60733333,1.95266667 C9.55266667,1.93866667 9.522,1.88466667 9.53466667,1.83666667 Z M10.5813333,2.19866667 L10.852,1.61866667 C10.8733333,1.574 10.9313333,1.55266667 10.982,1.57666667 C11.0333333,1.6 11.054,1.65866667 11.0333333,1.70333333 L10.7626667,2.28333333 C10.742,2.32866667 10.678,2.34733333 10.6326667,2.326 C10.5813333,2.30266667 10.5606667,2.244 10.5813333,2.19933333 L10.5813333,2.19866667 Z M11.5493333,2.73733333 L11.916,2.214 C11.9453333,2.17266667 12.006,2.162 12.052,2.194 C12.0986667,2.22666667 12.1086667,2.28733333 12.08,2.32866667 L11.7133333,2.852 C11.6846667,2.89333333 11.6186667,2.90066667 11.5773333,2.872 C11.5313333,2.83933333 11.5206667,2.77866667 11.5493333,2.73733333 Z M12.4093333,3.436 L12.8613333,2.984 C12.8966667,2.94866667 12.9586667,2.94866667 12.9986667,2.98866667 C13.0386667,3.02866667 13.0386667,3.09 13.0026667,3.12533333 L12.5506667,3.57733333 C12.5153333,3.61266667 12.4486667,3.60866667 12.4133333,3.57333333 C12.3733333,3.53333333 12.3733333,3.47133333 12.4093333,3.436 Z M13.1346667,4.27333333 L13.6586667,3.90666667 C13.6993333,3.878 13.76,3.88866667 13.792,3.93466667 C13.8253333,3.98133333 13.814,4.04133333 13.7733333,4.07066667 L13.2493333,4.43733333 C13.208,4.466 13.144,4.45066667 13.1153333,4.40933333 C13.0826667,4.36266667 13.0933333,4.30266667 13.1346667,4.27333333 Z M13.7033333,5.224 L14.2833333,4.954 C14.3286667,4.93266667 14.3866667,4.954 14.41,5.00466667 C14.434,5.056 14.4126667,5.114 14.3673333,5.13466667 L13.7873333,5.40533333 C13.7426667,5.42666667 13.682,5.39933333 13.6606667,5.354 C13.6366667,5.30333333 13.658,5.24533333 13.7033333,5.224 Z M14.0986667,6.25866667 L14.7166667,6.09333333 C14.7646667,6.08 14.818,6.11133333 14.8326667,6.16533333 C14.8473333,6.22 14.8166667,6.27333333 14.768,6.28666667 L14.1506667,6.452 C14.102,6.46533333 14.0466667,6.428 14.034,6.38 C14.0193333,6.32533333 14.05,6.272 14.0986667,6.25866667 Z M14.308,7.34666667 L14.9453333,7.29066667 C14.9953333,7.28666667 15.0426667,7.326 15.0473333,7.382 C15.052,7.438 15.0126667,7.486 14.9626667,7.49 L14.3253333,7.546 C14.276,7.55 14.228,7.504 14.2233333,7.45466667 C14.2186667,7.398 14.258,7.35066667 14.308,7.34666667 Z M14.3253333,8.454 L14.9626667,8.51 C15.0126667,8.514 15.052,8.562 15.0473333,8.618 C15.0426667,8.674 14.9953333,8.71333333 14.9453333,8.70933333 L14.308,8.65333333 C14.258,8.64933333 14.2193333,8.59533333 14.2233333,8.54533333 C14.228,8.48933333 14.276,8.45 14.3253333,8.454 Z M14.1506667,9.548 L14.768,9.71333333 C14.8166667,9.72666667 14.848,9.78 14.8326667,9.83466667 C14.818,9.88866667 14.7646667,9.91933333 14.7166667,9.90666667 L14.0986667,9.74133333 C14.05,9.728 14.0206667,9.668 14.034,9.62 C14.0486667,9.566 14.102,9.53533333 14.1506667,9.548 Z M13.788,10.5946667 L14.368,10.8653333 C14.4126667,10.886 14.4346667,10.944 14.41,10.9953333 C14.3866667,11.046 14.3286667,11.0673333 14.2833333,11.046 L13.7033333,10.776 C13.658,10.7546667 13.6393333,10.6913333 13.6606667,10.646 C13.6846667,10.5946667 13.7426667,10.5733333 13.7873333,10.5946667 L13.788,10.5946667 Z M13.2493333,11.5626667 L13.7733333,11.9293333 C13.814,11.958 13.8246667,12.0193333 13.7926667,12.0653333 C13.76,12.1113333 13.6993333,12.122 13.6586667,12.0933333 L13.1346667,11.7266667 C13.0933333,11.698 13.0866667,11.632 13.1146667,11.5906667 C13.1473333,11.5446667 13.208,11.534 13.2493333,11.5626667 Z M12.5506667,12.4226667 L13.0026667,12.8746667 C13.038,12.91 13.038,12.972 12.9986667,13.0113333 C12.9586667,13.0513333 12.8966667,13.0513333 12.8613333,13.016 L12.4093333,12.564 C12.374,12.5286667 12.378,12.462 12.4133333,12.4266667 C12.4533333,12.3866667 12.5153333,12.3866667 12.5506667,12.4226667 Z M11.7133333,13.148 L12.08,13.6713333 C12.1086667,13.7126667 12.098,13.7733333 12.052,13.806 C12.006,13.838 11.9453333,13.8273333 11.9166667,13.786 L11.55,13.2626667 C11.5206667,13.2213333 11.5366667,13.1566667 11.5773333,13.128 C11.624,13.096 11.6846667,13.1066667 11.7133333,13.148 Z M10.7626667,13.7166667 L11.0333333,14.2966667 C11.054,14.3413333 11.0333333,14.4 10.982,14.4233333 C10.9313333,14.4473333 10.8733333,14.426 10.852,14.3806667 L10.5813333,13.8006667 C10.5606667,13.756 10.5873333,13.6946667 10.6326667,13.674 C10.6833333,13.65 10.742,13.6713333 10.7626667,13.7166667 Z M9.728,14.112 L9.89333333,14.7293333 C9.90666667,14.778 9.87533333,14.8313333 9.82133333,14.846 C9.76666667,14.8606667 9.71333333,14.8293333 9.70066667,14.7813333 L9.53466667,14.1633333 C9.52133333,14.1153333 9.55866667,14.06 9.60733333,14.0473333 C9.66133333,14.0326667 9.71533333,14.0633333 9.728,14.112 Z M8.64,14.3213333 L8.696,14.9586667 C8.70066667,15.008 8.66066667,15.0553333 8.60466667,15.0606667 C8.54866667,15.0653333 8.50133333,15.0253333 8.49666667,14.976 L8.44133333,14.3386667 C8.43666667,14.2886667 8.48266667,14.2406667 8.53266667,14.2366667 C8.58866667,14.232 8.636,14.2713333 8.64,14.3213333 Z"/>
    <circle cx="8.044" cy="7.994" r="7.4" fill="url(#c)" fill-opacity=".2" fill-rule="nonzero"/>
    <polygon fill="#000000" fill-opacity=".05" fill-rule="nonzero" points="13.169 3.3 7.2 7.125 7.193 7.125 7.193 7.131 7.187 7.138 3.463 13.281 8.937 8.875 8.944 8.869 8.944 8.862"/>
    <polyline fill="#CD151E" fill-rule="nonzero" points="13.056 2.944 7.156 7.137 8.906 8.875 13.056 2.944"/>
    <polygon fill="#FA5153" fill-rule="nonzero" points="7.163 7.125 8.044 7.994 13.056 2.944"/>
    <polygon fill="#ACACAC" fill-rule="nonzero" points="7.163 7.125 8.913 8.863 3.013 13.056"/>
    <polygon fill="#EEEEEE" fill-rule="nonzero" points="3.013 13.056 8.044 7.994 7.163 7.125"/>
  </g>
</svg>
