<svg width="24" height="24" xmlns="http://www.w3.org/2000/svg"><defs><linearGradient x1="50%" y1="100%" x2="50%" y2="0%" id="a"><stop stop-color="#DBDBDA" offset="25%"/><stop stop-color="#FFF" offset="100%"/></linearGradient><radialGradient cx="57.025%" cy="39.017%" fx="57.025%" fy="39.017%" r="61.032%" id="b"><stop stop-color="#2ABCE1" offset="0%"/><stop stop-color="#2ABBE1" offset="11.363%"/><stop stop-color="#3375F8" offset="100%"/></radialGradient><linearGradient x1="49.05%" y1="35.703%" x2="25.713%" y2="77.572%" id="c"><stop stop-opacity="0" offset="0%"/><stop offset="100%"/></linearGradient></defs><g fill="none" fill-rule="nonzero"><circle fill="url(#a)" cx="12" cy="12" r="12"/><circle fill="url(#b)" cx="12" cy="12" r="11.1"/><path d="M12.131 20.531v1.96c0 .075-.065.14-.15.14-.084 0-.15-.065-.15-.14v-1.96c0-.075.075-.14.15-.14.085 0 .15.065.15.14zm-1.483-.103l-.34 1.93c-.014.073-.09.126-.173.112-.083-.015-.136-.09-.123-.165l.34-1.93c.013-.073.098-.125.172-.112.083.015.137.09.124.165zm-1.444-.36l-.67 1.841c-.025.07-.11.11-.189.081-.08-.029-.118-.113-.093-.183l.67-1.842c.026-.07.119-.106.19-.08.079.028.118.113.092.183zm-1.358-.605l-.98 1.697c-.038.065-.127.09-.2.047-.073-.042-.097-.132-.06-.197l.98-1.697c.037-.065.135-.084.2-.047.073.043.097.132.06.197zm-1.234-.831l-1.26 1.5c-.047.058-.14.066-.204.012-.065-.054-.073-.147-.025-.204l1.26-1.501c.048-.058.147-.06.205-.011.064.054.073.146.024.204zm-1.07-1.033l-1.5 1.26c-.058.047-.15.04-.205-.025-.054-.065-.046-.157.012-.206l1.5-1.26c.058-.047.156-.032.205.025.054.065.046.157-.012.206zm-.874-1.203l-1.697.98c-.065.037-.154.013-.197-.06-.042-.073-.018-.163.047-.2l1.697-.98c.065-.038.16-.006.197.06.042.072.018.162-.047.2zm-.652-1.337l-1.841.67c-.07.026-.155-.014-.184-.093-.029-.08.01-.163.081-.189l1.841-.67c.07-.026.158.022.184.093.028.079-.01.163-.081.189zm-.41-1.43l-1.93.34c-.074.013-.15-.04-.164-.123-.015-.083.038-.159.112-.172l1.93-.34c.073-.013.151.05.164.123.015.083-.038.16-.112.172zM3.45 12.15H1.49c-.074 0-.14-.066-.14-.15 0-.084.066-.15.14-.15h1.96c.075 0 .14.075.14.15 0 .084-.065.15-.14.15zm.104-1.484l-1.93-.34c-.074-.013-.127-.089-.112-.172.014-.083.09-.136.164-.123l1.93.34c.074.013.125.098.112.172-.015.083-.09.136-.164.123zm.36-1.443l-1.842-.67c-.07-.026-.11-.11-.08-.19.028-.078.112-.118.183-.092l1.84.67c.071.026.107.119.082.19-.03.079-.113.118-.184.092zm.604-1.359l-1.697-.98c-.065-.037-.089-.127-.047-.2.043-.073.132-.097.197-.06l1.697.98c.065.038.084.136.047.2-.042.074-.132.098-.197.06zm.832-1.233l-1.501-1.26c-.058-.048-.066-.14-.012-.205.054-.064.147-.072.204-.024l1.501 1.26c.058.048.06.147.012.205-.055.064-.147.072-.204.024zm1.033-1.07l-1.26-1.5c-.048-.058-.04-.15.025-.205.064-.054.157-.046.205.011l1.26 1.501c.048.058.032.156-.025.204-.065.055-.157.047-.205-.01zm1.203-.874l-.98-1.697c-.037-.065-.013-.155.06-.197.073-.042.162-.018.2.047l.98 1.697c.037.065.005.159-.06.197-.073.042-.163.018-.2-.047zm1.336-.652l-.67-1.842c-.025-.07.014-.154.093-.183.08-.029.164.01.19.08l.67 1.842c.025.07-.023.158-.094.183-.079.03-.163-.01-.189-.08zm1.43-.41l-.34-1.93c-.013-.074.04-.15.123-.165.083-.014.16.039.172.113l.34 1.93c.014.073-.049.15-.123.164-.083.014-.159-.039-.172-.113zm1.48-.156v-1.96c0-.075.065-.14.15-.14.084 0 .15.065.15.14v1.96c0 .075-.076.14-.15.14-.085 0-.15-.065-.15-.14zm1.483.103l.34-1.93c.013-.073.09-.126.172-.112.083.015.137.09.124.165l-.34 1.93c-.014.073-.099.125-.173.112-.083-.015-.136-.09-.123-.165zm1.443.36l.67-1.841c.026-.07.11-.11.19-.081.079.029.118.113.092.183l-.67 1.842c-.026.07-.119.106-.189.08-.08-.028-.118-.113-.093-.183zm1.359.605l.98-1.697c.037-.065.127-.09.2-.047.073.042.097.132.06.197l-.98 1.697c-.038.065-.135.084-.2.047-.074-.043-.098-.132-.06-.197zm1.233.831l1.26-1.5c.048-.058.14-.066.205-.012.065.054.073.147.024.204l-1.26 1.501c-.047.058-.147.06-.204.011-.065-.054-.073-.146-.025-.204zm1.07 1.033l1.501-1.26c.058-.047.15-.04.204.025.054.065.046.157-.011.206l-1.501 1.26c-.057.047-.156.032-.204-.025-.054-.065-.046-.157.011-.206zm.875 1.203l1.696-.98c.065-.037.155-.013.197.06.042.073.018.163-.047.2l-1.696.98c-.065.038-.16.006-.197-.06-.042-.072-.018-.162.047-.2zm.652 1.337l1.84-.67c.071-.026.155.014.184.093.03.08-.01.163-.08.189l-1.842.67c-.07.026-.157-.022-.183-.093-.029-.079.01-.163.08-.189zm.41 1.43l1.93-.34c.073-.013.15.04.164.123.015.083-.039.159-.112.172l-1.93.34c-.074.013-.152-.05-.165-.123-.014-.083.039-.16.113-.172zm.155 1.479h1.96c.075 0 .14.066.14.15 0 .084-.065.15-.14.15h-1.96c-.075 0-.14-.075-.14-.15 0-.084.066-.15.14-.15zm-.103 1.484l1.93.34c.073.013.127.089.112.172-.015.083-.09.136-.165.123l-1.93-.34c-.073-.013-.125-.098-.112-.172.015-.083.091-.136.165-.123zm-.36 1.443l1.842.67c.07.026.11.11.08.19-.029.078-.113.118-.183.092l-1.841-.67c-.07-.026-.107-.119-.081-.19.029-.079.113-.118.183-.092zm-.604 1.359l1.696.98c.065.037.09.127.047.2-.042.073-.132.097-.197.06l-1.696-.98c-.065-.038-.085-.136-.047-.2.042-.074.132-.098.197-.06zm-.832 1.233l1.501 1.26c.057.048.065.14.011.205-.054.064-.146.072-.204.024l-1.5-1.26c-.058-.048-.06-.147-.012-.205.054-.064.147-.072.204-.024zm-1.033 1.07l1.26 1.5c.048.058.04.15-.025.205-.065.054-.157.046-.205-.011l-1.26-1.501c-.048-.058-.033-.156.025-.204.064-.055.157-.047.205.01zm-1.203.874l.98 1.697c.037.065.013.155-.06.197-.073.042-.163.018-.2-.047l-.98-1.697c-.038-.065-.005-.159.06-.197.073-.042.162-.018.2.047zm-1.337.652l.67 1.842c.026.07-.013.154-.093.183-.079.029-.163-.01-.189-.08l-.67-1.842c-.025-.07.023-.158.093-.183.08-.03.163.01.19.08zm-1.43.41l.34 1.93c.014.074-.04.15-.123.165-.083.014-.159-.039-.172-.113l-.34-1.93c-.013-.073.05-.15.123-.164.083-.014.16.039.172.113zM11.3 21.508l-.084.956c-.006.074-.077.134-.161.127-.084-.008-.144-.079-.137-.153l.083-.956c.007-.075.087-.134.162-.127.084.007.144.078.137.153zm-1.64-.263l-.249.927c-.02.072-.1.119-.181.097-.082-.022-.128-.102-.109-.175l.248-.926c.02-.073.11-.117.182-.097.081.021.128.102.108.174zm-1.57-.543l-.406.87c-.032.067-.12.099-.196.063-.076-.035-.108-.123-.076-.19l.405-.87c.032-.068.128-.096.196-.064.076.035.108.123.076.19zm-1.453-.808l-.55.785c-.043.062-.134.078-.204.03-.069-.049-.085-.14-.042-.202l.55-.785c.043-.062.143-.073.204-.03.07.049.085.14.042.202zm-1.29-1.048l-.678.678c-.053.053-.146.053-.205-.007-.06-.06-.06-.152-.007-.205l.679-.678c.053-.053.152-.047.205.006.06.06.06.153.007.206zM4.26 17.59l-.786.55c-.062.043-.153.027-.201-.042-.049-.07-.033-.16.029-.204l.786-.55c.061-.043.158-.02.2.042.05.07.033.16-.028.204zm-.854-1.426l-.87.405c-.067.032-.154 0-.19-.076-.036-.077-.004-.164.064-.195l.87-.406c.068-.032.159.009.19.077.036.076.004.163-.064.195zm-.592-1.552l-.927.248c-.073.02-.153-.027-.175-.108-.022-.082.025-.162.097-.182l.927-.248c.072-.02.155.036.175.108.021.082-.025.162-.097.182zm-.315-1.632l-.955.084c-.075.006-.146-.053-.154-.137-.007-.084.053-.156.127-.162l.956-.084c.075-.006.147.063.153.137.008.085-.052.156-.127.162zm-.026-1.661l-.956-.084c-.074-.006-.134-.078-.127-.162.008-.084.079-.143.154-.137l.955.084c.075.006.134.087.127.162-.007.084-.078.143-.153.137zm.263-1.641l-.927-.248c-.072-.02-.119-.1-.097-.182.022-.081.102-.127.175-.108l.927.248c.072.02.116.11.097.182-.022.081-.103.127-.175.108zm.544-1.57l-.87-.406c-.068-.031-.1-.118-.064-.195.036-.076.123-.108.19-.076l.87.405c.068.032.096.127.064.195-.035.077-.122.109-.19.077zm.808-1.452l-.786-.55c-.062-.043-.078-.135-.03-.204.049-.069.14-.085.202-.042l.786.55c.061.043.072.142.029.204-.048.069-.14.085-.201.042zm1.048-1.29l-.679-.678c-.053-.053-.053-.146.007-.205.06-.06.152-.06.205-.007l.679.678c.053.053.046.153-.007.206-.06.06-.152.06-.205.006zM6.39 4.278l-.55-.785c-.043-.062-.027-.153.042-.202.07-.048.16-.032.204.03l.55.785c.043.062.02.159-.042.202-.07.048-.16.032-.204-.03zm1.426-.853l-.405-.87c-.032-.067 0-.155.076-.19.077-.036.164-.004.196.064l.405.87c.032.067-.008.159-.076.19-.077.036-.164.004-.196-.064zm1.552-.593l-.248-.926c-.02-.073.027-.153.109-.175.081-.022.162.025.181.097l.248.927c.02.072-.036.155-.108.174-.082.022-.162-.024-.182-.097zm1.632-.314l-.083-.956c-.007-.074.053-.145.137-.153.084-.007.155.053.161.127l.084.956c.007.075-.062.147-.137.153-.084.007-.155-.052-.162-.127zm1.662-.026l.083-.956c.007-.074.078-.134.162-.127.084.008.144.079.137.153l-.084.956c-.006.075-.087.134-.161.127-.084-.007-.144-.078-.137-.153zm1.64.263l.249-.927c.019-.072.1-.119.18-.097.082.022.129.102.11.175l-.249.926c-.02.073-.109.117-.181.097-.082-.021-.128-.102-.109-.174zm1.57.543l.406-.87c.032-.067.119-.099.195-.063.077.035.108.123.077.19l-.406.87c-.031.068-.127.096-.195.064-.077-.035-.108-.123-.077-.19zm1.452.808l.55-.785c.044-.062.135-.078.204-.03.07.049.085.14.042.202l-.55.785c-.043.062-.142.073-.204.03-.069-.049-.085-.14-.042-.202zm1.29 1.048l.678-.678c.053-.053.146-.053.206.007s.06.152.006.205l-.678.678c-.053.053-.153.047-.206-.006-.06-.06-.06-.153-.006-.206zm1.088 1.256l.786-.55c.061-.043.152-.027.2.042.05.07.033.16-.028.204l-.786.55c-.062.043-.158.02-.201-.042-.049-.07-.033-.16.029-.204zm.853 1.426l.87-.405c.068-.032.155 0 .19.076.036.077.004.164-.064.195l-.87.406c-.067.032-.158-.009-.19-.077-.036-.076-.004-.163.064-.195zm.593 1.552l.927-.248c.072-.02.152.027.174.108.022.082-.024.162-.097.182l-.926.248c-.073.02-.156-.036-.175-.108-.022-.082.024-.162.097-.182zm.314 1.632l.956-.084c.075-.006.146.053.153.137.007.084-.052.156-.127.162l-.956.084c-.074.006-.146-.063-.153-.137-.007-.085.052-.156.127-.162zm.026 1.661l.956.084c.075.006.134.078.127.162-.007.084-.078.143-.153.137l-.956-.084c-.075-.006-.133-.087-.127-.162.007-.084.079-.143.153-.137zm-.262 1.641l.926.248c.073.02.12.1.097.182-.022.081-.102.127-.174.108l-.927-.248c-.073-.02-.117-.11-.097-.182.022-.081.102-.127.175-.108zm-.544 1.57l.87.406c.067.031.1.118.063.195-.035.076-.122.108-.19.076l-.87-.405c-.068-.032-.096-.127-.064-.195.036-.077.123-.109.19-.077zm-.808 1.452l.786.55c.061.043.077.135.029.204-.049.069-.14.085-.201.042l-.786-.55c-.062-.043-.072-.142-.03-.204.049-.069.14-.085.202-.042zm-1.048 1.29l.678.678c.053.053.053.146-.006.205-.06.06-.153.06-.206.007l-.678-.678c-.053-.053-.047-.153.006-.206.06-.06.153-.06.206-.006zm-1.256 1.088l.55.785c.043.062.027.153-.042.202-.069.048-.16.032-.203-.03l-.55-.785c-.044-.062-.02-.159.041-.202.07-.048.161-.032.204.03zm-1.426.853l.406.87c.031.067 0 .155-.077.19-.076.036-.163.004-.195-.064l-.406-.87c-.031-.067.009-.159.077-.19.076-.036.164-.004.195.064zm-1.552.593l.248.926c.02.073-.027.153-.108.175-.082.022-.162-.025-.181-.097l-.249-.927c-.02-.072.036-.155.109-.174.081-.022.162.024.181.097zm-1.632.314l.084.956c.007.074-.053.145-.137.153-.084.007-.155-.053-.162-.127l-.083-.956c-.007-.075.062-.147.137-.153.084-.007.155.052.161.127z" fill="#FFF"/><circle fill-opacity=".2" fill="url(#c)" cx="12.066" cy="11.991" r="11.1"/><path fill-opacity=".05" fill="#000" d="M19.753 4.95L10.8 10.687h-.01v.01l-.009.01-5.587 9.215 8.212-6.61.01-.009v-.01z"/><path fill="#CD151E" d="M19.584 4.416l-8.85 6.29 2.625 2.607 6.225-8.897"/><path fill="#FA5153" d="M10.744 10.688l1.322 1.303 7.518-7.575z"/><path fill="#ACACAC" d="M10.744 10.688l2.625 2.606-8.85 6.29z"/><path fill="#EEE" d="M4.519 19.584l7.547-7.593-1.322-1.303z"/></g></svg>