<svg width="64" height="64" viewBox="0 0 64 64" fill="none" xmlns="http://www.w3.org/2000/svg">
<g id="m/mime_pdf/mime_pdf_64x64">
<g id="64/baseshape">
<g id="64/baseshape_2">
<path id="OutsideBorder" d="M58 60C58 61.1046 57.1046 62 56 62H15C13.8954 62 13 61.1046 13 60V4C13 2.89543 13.8954 2 15 2H44L58 17V60Z" fill="#ECF0F4"/>
</g>
<path id="path900" fill-rule="evenodd" clip-rule="evenodd" d="M34.9407 10.051C33.7537 10.227 33.1036 10.7029 32.555 12.7177C32.0065 14.7325 32.5372 18.3595 33.2903 21.1418C33.4958 21.7577 33.7423 22.3602 33.9892 22.9634C34.1133 23.2669 34.2376 23.5705 34.3567 23.876C34.1535 25.2532 33.9064 26.63 33.5569 27.9837C32.2233 33.5116 30.7077 39.069 28.428 44.2863C25.2528 45.8647 22.1659 47.613 19.2366 49.6135C17.4698 50.7334 14.2361 53.8775 17.2053 55.5312C18.8727 56.4869 20.608 56.2937 22.1819 55.5312C22.9688 55.1499 23.7116 54.6162 24.3909 54.0293C25.0701 53.4424 25.6909 52.7985 26.2063 52.1552C27.7942 50.1313 29.1575 47.9692 30.3577 45.7112C35.1149 43.5491 40.0265 41.7298 45.0842 40.461C47.1991 42.3268 50.2993 44.2058 52.93 42.348C55.5673 41.1332 55.1252 37.5289 52.1175 37.4829C50.1236 37.0817 48.1441 37.3296 46.1887 37.7781C45.3364 36.7869 44.5451 35.7212 43.8147 34.723C41.4596 30.9346 39.2865 27.0312 37.2512 23.0545C37.8026 19.4072 38.3682 15.3515 37.9258 12.7155C37.4834 10.0795 36.2079 9.86299 34.9407 10.051ZM34.5471 12.7852C34.867 12.068 35.6913 12.8278 35.6772 13.7875C35.663 14.7472 35.5122 16.8958 34.8391 17.4962C34.3364 15.9419 34.2273 13.5023 34.5471 12.7852ZM43.2053 38.5868C40.3982 35.5356 38.1506 32.0022 36.2991 28.2662C35.2691 33.2008 33.9068 38.104 31.843 42.6945C34.7482 41.4089 37.7025 40.2403 40.7171 39.2672C41.5337 39.0569 42.378 38.8281 43.2053 38.5868ZM49.0579 39.7421C50.1201 39.7319 50.9684 40.0054 50.7591 41.0258C49.8636 40.7945 49.0835 40.3537 48.3469 39.8191C48.432 39.8104 48.5171 39.7985 48.6016 39.7867L48.6018 39.7866C48.7567 39.765 48.9099 39.7435 49.0579 39.7421ZM26.667 47.913C26.756 47.7214 26.8451 47.5296 26.9426 47.3414C26.6464 47.488 26.3493 47.6327 26.0522 47.7773C25.3889 48.1004 24.7259 48.4233 24.0735 48.7663C23.7508 48.9826 23.3593 49.2083 22.9417 49.4492C21.1159 50.5022 18.7902 51.8435 19.5285 53.9395C22.5662 53.994 24.7711 51.0261 26.2952 48.6636C26.4319 48.4189 26.5494 48.166 26.667 47.913Z" fill="#EC0000"/>
</g>
<g id="64/corner">
<path id="InsideWhite" fill-rule="evenodd" clip-rule="evenodd" d="M44 17V2L58 17H44Z" fill="#D8E0E8"/>
</g>
<g id="64/chard/color/yellow">
<path id="Shape" d="M14 19V56L32 59V16L14 19Z" fill="#ECF0F4"/>
<path id="Chard" d="M30 18.4318V56.6364L6 53V22L30 18.4318Z" fill="#EC0000"/>
</g>
<g id="64/chard/letter/a">
<path id="P" fill-rule="evenodd" clip-rule="evenodd" d="M12 46V29.2H18.864C22.872 29.2 25.296 31.576 25.296 35.008V35.056C25.296 38.944 22.272 40.96 18.504 40.96H15.696V46H12ZM15.696 37.672H18.624C20.472 37.672 21.552 36.568 21.552 35.128V35.08C21.552 33.424 20.4 32.536 18.552 32.536H15.696V37.672Z" fill="white"/>
</g>
</g>
</svg>
