<svg width="48" height="48" viewBox="0 0 48 48" fill="none" xmlns="http://www.w3.org/2000/svg">
<g id="m/mime_pdf/mime_pdf_48x48">
<g id="48/baseshape">
<g id="48/baseshape_2">
<path id="OutsideBorder" d="M44 44C44 45.1046 43.1046 46 42 46H12C10.8954 46 10 45.1046 10 44V4C10 2.89543 10.8954 2 12 2H34L44 12V44Z" fill="#ECF0F4"/>
</g>
<path id="path900" fill-rule="evenodd" clip-rule="evenodd" d="M26.2055 8.038C25.3153 8.16929 24.8277 8.52418 24.4163 10.0267C24.0049 11.5293 24.4029 14.2342 24.9677 16.3091C25.1218 16.7684 25.3068 17.2178 25.4919 17.6676L25.4919 17.6676C25.585 17.8939 25.6782 18.1203 25.7675 18.3482C25.6152 19.3753 25.4298 20.4021 25.1677 21.4116C24.1675 25.5341 23.0308 29.6786 21.321 33.5694C18.9396 34.7466 16.6244 36.0504 14.4274 37.5423C13.1024 38.3775 10.6771 40.7222 12.904 41.9555C14.1545 42.6682 15.456 42.5241 16.6364 41.9555C17.2266 41.6711 17.7837 41.2731 18.2931 40.8354C18.8026 40.3977 19.2682 39.9175 19.6547 39.4377C20.8457 37.9284 21.8681 36.316 22.7682 34.6321C26.3362 33.0197 30.0199 31.6629 33.8132 30.7167C35.3993 32.1082 37.7244 33.5094 39.6975 32.1239C41.6755 31.218 41.3439 28.5301 39.0881 28.4957C37.5927 28.1965 36.1081 28.3814 34.6416 28.7159C34.0023 27.9767 33.4088 27.1819 32.861 26.4375C31.0947 23.6122 29.4649 20.7013 27.9384 17.7355C28.352 15.0156 28.7761 11.9909 28.4443 10.0251C28.1126 8.05932 27.1559 7.89782 26.2055 8.038ZM25.9103 10.0771C26.1502 9.54223 26.7685 10.1088 26.7579 10.8246C26.7472 11.5403 26.6341 13.1426 26.1293 13.5904C25.7523 12.4312 25.6705 10.6119 25.9103 10.0771ZM32.404 29.319C30.2986 27.0435 28.6129 24.4084 27.2243 21.6222C26.4518 25.3023 25.4301 28.9589 23.8823 32.3824C26.0611 31.4236 28.2769 30.5521 30.5378 29.8264C31.1503 29.6696 31.7835 29.4989 32.404 29.319ZM36.7934 30.1806C37.5901 30.1729 38.2263 30.3769 38.0693 31.1379C37.3977 30.9654 36.8126 30.6366 36.2602 30.238C36.324 30.2315 36.3878 30.2226 36.4513 30.2138C36.5675 30.1976 36.6824 30.1816 36.7934 30.1806ZM20.0002 36.2741C20.067 36.1312 20.1339 35.9882 20.207 35.8478C19.9848 35.9571 19.7619 36.065 19.5392 36.1729C19.0417 36.4138 18.5444 36.6546 18.0551 36.9104C17.8131 37.0717 17.5195 37.2401 17.2063 37.4197C15.8369 38.205 14.0926 39.2053 14.6464 40.7684C16.9247 40.8091 18.5784 38.5957 19.7214 36.8339C19.8239 36.6514 19.912 36.4628 20.0002 36.2741Z" fill="#EC0000"/>
</g>
<g id="48/corner">
<path id="InsideWhite" fill-rule="evenodd" clip-rule="evenodd" d="M34 2L44 12H34V2Z" fill="#D8E0E8"/>
</g>
<g id="24/chard/color/yellow">
<path id="Shape" d="M14 12V42L24 44V10L14 12Z" fill="#ECF0F4"/>
<path id="Chard" fill-rule="evenodd" clip-rule="evenodd" d="M22 12V42L2 39V15L22 12Z" fill="#EC0000"/>
</g>
<g id="24/chard/letter/z">
<path id="P" fill-rule="evenodd" clip-rule="evenodd" d="M7 34V20H12.72C16.06 20 18.08 21.98 18.08 24.84V24.88C18.08 28.12 15.56 29.8 12.42 29.8H10.08V34H7ZM10.08 27.06H12.52C14.06 27.06 14.96 26.14 14.96 24.94V24.9C14.96 23.52 14 22.78 12.46 22.78H10.08V27.06Z" fill="white"/>
</g>
</g>
</svg>
