<svg width="16" height="16" viewBox="0 0 16 16" fill="none" xmlns="http://www.w3.org/2000/svg">
<g id="m/mime_pdf/mime_pdf_16x16">
<g id="16/baseshape">
<g id="16/baseshape_2">
<path id="OutsideBorder" d="M3 0V16H16V4L12 0H3Z" fill="#ECF0F4"/>
</g>
<path id="path900" fill-rule="evenodd" clip-rule="evenodd" d="M8.89845 2.01324C8.59147 2.05899 8.42335 2.18266 8.28148 2.70624C8.13961 3.22982 8.27687 4.17236 8.47162 4.89538C8.52477 5.05543 8.58854 5.212 8.65237 5.36876L8.65239 5.36881C8.6845 5.44764 8.71662 5.52652 8.74742 5.60591C8.69488 5.9638 8.63097 6.32159 8.54057 6.67337C8.19568 8.10989 7.80371 9.55406 7.21413 10.9099C6.39295 11.32 5.59462 11.7744 4.83704 12.2942C4.38013 12.5853 3.54383 13.4023 4.31172 13.832C4.74293 14.0804 5.19171 14.0302 5.59876 13.832C5.80228 13.733 5.99437 13.5943 6.17005 13.4417C6.34572 13.2892 6.50627 13.1219 6.63956 12.9547C7.05023 12.4288 7.40279 11.8669 7.71319 11.2801C8.9435 10.7183 10.2138 10.2455 11.5218 9.91579C12.0687 10.4007 12.8705 10.8889 13.5509 10.4062C14.2329 10.0905 14.1186 9.15385 13.3407 9.14188C12.8251 9.03763 12.3131 9.10204 11.8074 9.2186C11.587 8.96103 11.3824 8.68408 11.1935 8.42468C10.5844 7.44019 10.0224 6.42585 9.49601 5.39242C9.63861 4.44462 9.78487 3.39066 9.67046 2.70567C9.55606 2.02067 9.22619 1.9644 8.89845 2.01324ZM8.79667 2.72377C8.87939 2.5374 9.09259 2.73484 9.08892 2.98425C9.08526 3.23365 9.04626 3.79199 8.87218 3.94801C8.74218 3.5441 8.71395 2.91013 8.79667 2.72377ZM11.0359 9.42876C10.3099 8.63584 9.7286 7.71764 9.24976 6.74676C8.98339 8.02911 8.63106 9.30329 8.09733 10.4962C8.84867 10.1621 9.61271 9.85843 10.3923 9.60555C10.6035 9.55092 10.8219 9.49145 11.0359 9.42876ZM12.5495 9.72898C12.8242 9.72631 13.0436 9.7974 12.9894 10.0626C12.7578 10.0025 12.5561 9.8879 12.3656 9.74899C12.3876 9.74672 12.4096 9.74363 12.4315 9.74055L12.4315 9.74055C12.4716 9.73492 12.5112 9.72935 12.5495 9.72898ZM6.7587 11.8523C6.78174 11.8025 6.80478 11.7527 6.82999 11.7038C6.75337 11.7419 6.67654 11.7795 6.59972 11.8171C6.42817 11.901 6.25671 11.9849 6.08797 12.0741C6.00452 12.1303 5.90327 12.1889 5.79526 12.2515C5.32308 12.5252 4.72159 12.8737 4.91255 13.4184C5.69817 13.4326 6.2684 12.6613 6.66254 12.0474C6.69789 11.9838 6.72829 11.9181 6.7587 11.8523Z" fill="#EC0000"/>
</g>
<g id="16/corner">
<path id="InsideWhite" d="M12 4V0V0L16 4V4H12Z" fill="#D8E0E8"/>
</g>
<g id="16/chard/color/aqua">
<path id="Shape" fill-rule="evenodd" clip-rule="evenodd" d="M4 2.66077V14.2205L8 15V2L4 2.66077Z" fill="#ECF0F4"/>
<path id="Chard" fill-rule="evenodd" clip-rule="evenodd" d="M0 4L7 3V14L0 12.9V4Z" fill="#EC0000"/>
</g>
<g id="16/chard/letter/a">
<path id="P" fill-rule="evenodd" clip-rule="evenodd" d="M1.8335 10.5V5.83333H3.74016C4.8535 5.83333 5.52683 6.49333 5.52683 7.44667V7.46C5.52683 8.54 4.68683 9.1 3.64016 9.1H2.86016V10.5H1.8335ZM2.86016 8.18667H3.6735C4.18683 8.18667 4.48683 7.88 4.48683 7.48V7.46667C4.48683 7.00667 4.16683 6.76 3.6535 6.76H2.86016V8.18667Z" fill="white"/>
</g>
</g>
</svg>
