<svg width="24" height="24" viewBox="0 0 24 24" fill="none" xmlns="http://www.w3.org/2000/svg">
<g id="m/mime_pdf/mime_pdf_24x24">
<g id="24/baseshape">
<g id="24/baseshape_2">
<path id="OutsideBorder" fill-rule="evenodd" clip-rule="evenodd" d="M24 22.4998C24 22.776 23.7724 23 23.4998 23H6.50021C6.22395 23 6 22.7823 6 22.4992V1.50084C6 1.22423 6.21991 1 6.49827 1H20L24 5V22.4998Z" fill="#ECF0F4"/>
</g>
<path id="PDF ArtLine" fill-rule="evenodd" clip-rule="evenodd" d="M14.3477 4.01876C13.8872 4.08357 13.635 4.25876 13.4222 5.0005C13.2094 5.74224 13.4153 7.07751 13.7074 8.10179C13.7872 8.32852 13.8828 8.55034 13.9786 8.77242L13.9786 8.77244C14.0267 8.88413 14.0749 8.99589 14.1211 9.10838C14.0423 9.61538 13.9465 10.1222 13.8109 10.6206C13.2935 12.6557 12.7056 14.7016 11.8212 16.6223C10.5894 17.2034 9.39193 17.847 8.25556 18.5835C7.5702 18.9958 6.31574 20.1532 7.46757 20.762C8.11439 21.1139 8.78757 21.0428 9.39814 20.762C9.70342 20.6217 9.99156 20.4252 10.2551 20.2091C10.5186 19.9931 10.7594 19.756 10.9593 19.5192C11.5753 18.7741 12.1042 17.9781 12.5698 17.1469C14.4153 16.3509 16.3206 15.6812 18.2827 15.214C19.1031 15.9009 20.3057 16.5927 21.3263 15.9087C22.3494 15.4615 22.1779 14.1346 21.0111 14.1177C20.2376 13.97 19.4697 14.0612 18.7111 14.2263C18.3805 13.8615 18.0735 13.4691 17.7902 13.1016C16.8766 11.7069 16.0336 10.27 15.244 8.80593C15.4579 7.46321 15.6773 5.97011 15.5057 4.99969C15.3341 4.02928 14.8393 3.94956 14.3477 4.01876ZM14.195 5.02534C14.3191 4.76132 14.6389 5.04103 14.6334 5.39435C14.6279 5.74767 14.5694 6.53865 14.3083 6.75968C14.1133 6.18747 14.0709 5.28936 14.195 5.02534ZM17.5538 14.5241C16.4648 13.4008 15.5929 12.1 14.8746 10.7246C14.4751 12.5412 13.9466 14.3463 13.146 16.0363C14.273 15.563 15.4191 15.1328 16.5885 14.7745C16.9053 14.6971 17.2329 14.6129 17.5538 14.5241ZM19.8242 14.9494C20.2362 14.9456 20.5653 15.0463 20.4841 15.422C20.1368 15.3368 19.8341 15.1745 19.5484 14.9777C19.5814 14.9745 19.6144 14.9701 19.6472 14.9658C19.7073 14.9578 19.7668 14.9499 19.8242 14.9494ZM11.138 17.9575C11.1726 17.8869 11.2072 17.8163 11.245 17.747C11.13 17.801 11.0148 17.8543 10.8996 17.9075C10.6422 18.0264 10.3851 18.1453 10.132 18.2716C10.0068 18.3512 9.85491 18.4343 9.69289 18.523C8.98462 18.9106 8.08239 19.4044 8.36883 20.1761C9.54725 20.1961 10.4026 19.1035 10.9938 18.2338C11.0468 18.1437 11.0924 18.0506 11.138 17.9575Z" fill="#EC0000"/>
</g>
<g id="24/corner">
<path id="InsideWhite" fill-rule="evenodd" clip-rule="evenodd" d="M20 1L24 5H20V1Z" fill="#D8E0E8"/>
</g>
<g id="24/chard/color/yellow">
<path id="Shape" d="M7 6V21L12 22V5L7 6Z" fill="#ECF0F4"/>
<path id="Chard" fill-rule="evenodd" clip-rule="evenodd" d="M11 6V21L1 19.5V7.5L11 6Z" fill="#EC0000"/>
</g>
<g id="24/chard/letter/z">
<path id="P" fill-rule="evenodd" clip-rule="evenodd" d="M3.5 17V10H6.36C8.03 10 9.04 10.99 9.04 12.42V12.44C9.04 14.06 7.78 14.9 6.21 14.9H5.04V17H3.5ZM5.04 13.53H6.26C7.03 13.53 7.48 13.07 7.48 12.47V12.45C7.48 11.76 7 11.39 6.23 11.39H5.04V13.53Z" fill="white"/>
</g>
</g>
</svg>
