<svg width="32" height="32" viewBox="0 0 32 32" fill="none" xmlns="http://www.w3.org/2000/svg">
<g id="m/mime_pdf/mime_pdf_32x32">
<g id="32/baseshape">
<g id="32/baseshape_2">
<path id="OutsideBorder" d="M29 30C29 30.5523 28.5523 31 28 31H7C6.44772 31 6 30.5523 6 30V2C6 1.44772 6.44772 1 7 1H22L29 9V30Z" fill="#ECF0F4"/>
</g>
<path id="path900" fill-rule="evenodd" clip-rule="evenodd" d="M17.3071 5.02538C16.7238 5.11307 16.4044 5.35009 16.1348 6.35362C15.8653 7.35715 16.1261 9.16369 16.4961 10.5495C16.5971 10.8562 16.7182 11.1563 16.8395 11.4568C16.9005 11.6079 16.9616 11.7591 17.0201 11.9113C16.9203 12.5973 16.7989 13.283 16.6271 13.9573C15.9718 16.7106 15.227 19.4786 14.1068 22.0772C12.5466 22.8634 11.0298 23.7342 9.59037 24.7306C8.72225 25.2884 7.13328 26.8544 8.59226 27.6781C9.41156 28.1541 10.2643 28.0579 11.0376 27.6781C11.4243 27.4882 11.7893 27.2223 12.1231 26.93C12.4569 26.6377 12.7619 26.317 13.0152 25.9965C13.7954 24.9885 14.4653 23.9116 15.0551 22.7869C17.3927 21.7101 19.8061 20.8039 22.2914 20.1719C23.3306 21.1013 24.8539 22.0371 26.1466 21.1118C27.4426 20.5067 27.2253 18.7115 25.7474 18.6886C24.7676 18.4888 23.795 18.6122 22.8341 18.8356C22.4153 18.342 22.0265 17.8111 21.6676 17.314C20.5103 15.427 19.4425 13.4829 18.4424 11.5021C18.7134 9.68553 18.9912 7.66544 18.7739 6.35253C18.5565 5.03962 17.9298 4.93176 17.3071 5.02538ZM17.1137 6.38722C17.2708 6.03002 17.6759 6.40845 17.6689 6.88647C17.662 7.3645 17.5879 8.43464 17.2572 8.73369C17.0101 7.95952 16.9565 6.74442 17.1137 6.38722ZM21.3681 19.2384C19.9887 17.7187 18.8843 15.9588 17.9745 14.098C17.4684 16.5558 16.799 18.998 15.7849 21.2844C17.2125 20.6441 18.6642 20.062 20.1454 19.5773C20.5467 19.4726 20.9616 19.3586 21.3681 19.2384ZM24.244 19.8139C24.7659 19.8088 25.1827 19.945 25.0799 20.4532C24.6399 20.3381 24.2565 20.1185 23.8946 19.8522C23.9364 19.8479 23.9782 19.842 24.0198 19.8361L24.0198 19.8361L24.0198 19.8361C24.096 19.8253 24.1713 19.8146 24.244 19.8139ZM13.2415 23.8836C13.2853 23.7882 13.3291 23.6927 13.377 23.5989C13.2314 23.6719 13.0854 23.744 12.9395 23.816C12.6135 23.9769 12.2877 24.1378 11.9671 24.3086C11.8086 24.4163 11.6162 24.5288 11.411 24.6488C10.5138 25.1732 9.37103 25.8413 9.73385 26.8853C11.2265 26.9124 12.31 25.4342 13.0588 24.2575C13.126 24.1356 13.1838 24.0096 13.2415 23.8836Z" fill="#EC0000"/>
</g>
<g id="32/corner">
<path id="InsideWhite" fill-rule="evenodd" clip-rule="evenodd" d="M22 1L29 9H22V1Z" fill="#D8E0E8"/>
</g>
<g id="64/chard/color/yellow">
<path id="Shape" d="M7 9.5V28L16 29.5V8L7 9.5Z" fill="#ECF0F4"/>
<path id="Chard" d="M15 9.2159V28.3182L3 26.5V11L15 9.2159Z" fill="#EC0000"/>
</g>
<g id="64/chard/letter/a">
<path id="P" fill-rule="evenodd" clip-rule="evenodd" d="M6 23V14.6H9.432C11.436 14.6 12.648 15.788 12.648 17.504V17.528C12.648 19.472 11.136 20.48 9.252 20.48H7.848V23H6ZM7.84801 18.836H9.31201C10.236 18.836 10.776 18.284 10.776 17.564V17.54C10.776 16.712 10.2 16.268 9.27601 16.268H7.84801V18.836Z" fill="white"/>
</g>
</g>
</svg>
