<svg width="128" height="128" viewBox="0 0 128 128" fill="none" xmlns="http://www.w3.org/2000/svg">
<g id="m/mime_pdf/mime_pdf_128x128">
<g id="64/baseshape">
<g id="64/baseshape_2">
<path id="OutsideBorder" d="M116 120C116 122.209 114.209 124 112 124H30C27.7909 124 26 122.209 26 120V8C26 5.79086 27.7909 4 30 4H88L116 34V120Z" fill="#ECF0F4"/>
</g>
<path id="path900" fill-rule="evenodd" clip-rule="evenodd" d="M69.8814 20.1019C67.5073 20.454 66.2072 21.4058 65.1101 25.4354C64.013 29.465 65.0745 36.719 66.5806 42.2836C66.9916 43.5154 67.4847 44.7204 67.9784 45.9269C68.2267 46.5337 68.4752 47.1409 68.7134 47.752C68.3071 50.5064 67.8129 53.2601 67.1138 55.9675C64.4466 67.0233 61.4153 78.138 56.8559 88.5726C50.5055 91.7294 44.3317 95.226 38.4731 99.227C34.9397 101.467 28.4723 107.755 34.4106 111.062C37.7453 112.974 41.2159 112.587 44.3637 111.062C45.9377 110.3 47.4232 109.232 48.7817 108.059C50.1403 106.885 51.3818 105.597 52.4126 104.31C55.5885 100.263 58.3149 95.9383 60.7153 91.4223C70.2298 87.0982 80.0531 83.4597 90.1685 80.9219C94.3982 84.6537 100.599 88.4115 105.86 84.6959C111.135 82.2663 110.25 75.0579 104.235 74.9657C100.247 74.1634 96.2882 74.6591 92.3775 75.5562C90.6728 73.5739 89.0903 71.4424 87.6294 69.446C82.9192 61.8691 78.5731 54.0625 74.5025 46.1089C75.6052 38.8144 76.7363 30.7029 75.8516 25.431C74.9668 20.1591 72.4159 19.726 69.8814 20.1019ZM69.0942 25.5703C69.7339 24.136 71.3827 25.6555 71.3543 27.575C71.326 29.4945 71.0244 33.7916 69.6782 34.9924C68.6729 31.8838 68.4546 27.0046 69.0942 25.5703ZM86.4107 77.1736C80.7963 71.0712 76.3011 64.0044 72.5982 56.5323C70.5382 66.4016 67.8135 76.208 63.686 85.3891C69.4964 82.8179 75.405 80.4805 81.4341 78.5343C83.0674 78.1139 84.7561 77.6561 86.4107 77.1736ZM98.1157 79.4842C100.24 79.4637 101.937 80.0108 101.518 82.0516C99.7272 81.5891 98.1669 80.7073 96.6939 79.6383C96.8639 79.6208 97.0341 79.597 97.2033 79.5733L97.2035 79.5733C97.5134 79.53 97.8198 79.4871 98.1157 79.4842ZM53.334 95.8261C53.5121 95.4427 53.6903 95.0593 53.8853 94.6828C53.2927 94.976 52.6985 95.2653 52.1045 95.5546C50.7778 96.2008 49.4519 96.8465 48.147 97.5326C47.5017 97.9651 46.7187 98.4167 45.8834 98.8984C42.2318 101.004 37.5803 103.687 39.0571 107.879C45.1325 107.988 49.5423 102.052 52.5903 97.3272C52.8637 96.8379 53.0988 96.3321 53.334 95.8261Z" fill="#EC0000"/>
</g>
<g id="64/corner">
<path id="InsideWhite" fill-rule="evenodd" clip-rule="evenodd" d="M88 34V4L116 34H88Z" fill="#D8E0E8"/>
</g>
<g id="64/chard/color/yellow">
<path id="Shape" d="M28 38V112L64 118V32L28 38Z" fill="#ECF0F4"/>
<path id="Chard" d="M60 36.8636V113.273L12 106V44L60 36.8636Z" fill="#EC0000"/>
</g>
<g id="64/chard/letter/a">
<path id="P" fill-rule="evenodd" clip-rule="evenodd" d="M24 92V58.4H37.728C45.744 58.4 50.592 63.152 50.592 70.016V70.112C50.592 77.888 44.544 81.92 37.008 81.92H31.392V92H24ZM31.392 75.344H37.248C40.944 75.344 43.104 73.136 43.104 70.256V70.16C43.104 66.848 40.8 65.072 37.104 65.072H31.392V75.344Z" fill="white"/>
</g>
</g>
</svg>
