<svg width="32" height="32" viewBox="0 0 32 32" fill="none" xmlns="http://www.w3.org/2000/svg">
<g id="m/mime_unknown/mime_unknown_32x32">
<g id="32/baseshape">
<g id="32/baseshape_2">
<path id="OutsideBorder" d="M29 30C29 30.5523 28.5523 31 28 31H7C6.44772 31 6 30.5523 6 30V2C6 1.44772 6.44772 1 7 1H22L29 9V30Z" fill="#ECF0F4"/>
</g>
<g id="Combined Shape">
<path d="M25 10.5C25 10.2239 25.2239 10 25.5 10C25.7761 10 26 10.2239 26 10.5V14.5C26 14.7761 25.7761 15 25.5 15C25.2239 15 25 14.7761 25 14.5V10.5Z" fill="#91A0AF"/>
<path d="M25 17.5C25 17.2239 25.2239 17 25.5 17C25.7761 17 26 17.2239 26 17.5V21.5C26 21.7761 25.7761 22 25.5 22C25.2239 22 25 21.7761 25 21.5V17.5Z" fill="#91A0AF"/>
<path d="M26 24.5C26 24.2239 25.7761 24 25.5 24C25.2239 24 25 24.2239 25 24.5V28.5C25 28.7761 25.2239 29 25.5 29C25.7761 29 26 28.7761 26 28.5V24.5Z" fill="#91A0AF"/>
</g>
</g>
<g id="32/corner">
<path id="InsideWhite" fill-rule="evenodd" clip-rule="evenodd" d="M22 1L29 9H22V1Z" fill="#D8E0E8"/>
</g>
<g id="64/chard/color/yellow">
<path id="Shape" d="M7 9.5V28L16 29.5V8L7 9.5Z" fill="#ECF0F4"/>
<path id="Chard" d="M15 9.2159V28.3182L3 26.5V11L15 9.2159Z" fill="#B5C0CB"/>
</g>
<g id="64/chard/letter/a">
<path id="." fill-rule="evenodd" clip-rule="evenodd" d="M8.02832 23V21.08H9.97232V23H8.02832Z" fill="white"/>
</g>
</g>
</svg>
