<svg width="24" height="24" viewBox="0 0 24 24" fill="none" xmlns="http://www.w3.org/2000/svg">
<g id="m/mime_calc_ods/mime_calc_ods_24x24">
<g id="24/baseshape">
<g id="24/baseshape_2">
<path id="OutsideBorder" fill-rule="evenodd" clip-rule="evenodd" d="M24 22.4998C24 22.776 23.7724 23 23.4998 23H6.50021C6.22395 23 6 22.7823 6 22.4992V1.50084C6 1.22423 6.21991 1 6.49827 1H20L24 5V22.4998Z" fill="#ECF0F4"/>
</g>
<g id="Group">
<path id="Rectangle-path" fill-rule="evenodd" clip-rule="evenodd" d="M13 18H17V21H13V18Z" fill="#86BFA0"/>
<path id="Rectangle-path_2" fill-rule="evenodd" clip-rule="evenodd" d="M18 18H22V21H18V18Z" fill="#86BFA0"/>
<rect id="Rectangle-path_3" x="13" y="14" width="4" height="3" fill="#86BFA0"/>
<rect id="Rectangle-path_4" x="18" y="14" width="4" height="3" fill="#86BFA0"/>
<rect id="Rectangle-path_5" x="13" y="10" width="4" height="3" fill="#86BFA0"/>
<rect id="Rectangle-path_6" x="18" y="10" width="4" height="3" fill="#86BFA0"/>
<path id="Rectangle-path_7" fill-rule="evenodd" clip-rule="evenodd" d="M13 7H17V9H13V7Z" fill="#86BFA0"/>
<path id="Rectangle-path_8" fill-rule="evenodd" clip-rule="evenodd" d="M18 7H22V9H18V7Z" fill="#86BFA0"/>
<rect id="Rectangle-path_9" x="8" y="7" width="4" height="2" fill="#91A0AF"/>
<rect id="Rectangle-path_10" x="13" y="3" width="4" height="3" fill="#91A0AF"/>
<path id="Rectangle-path_11" fill-rule="evenodd" clip-rule="evenodd" d="M18 3H19L22 6H18V3Z" fill="#91A0AF"/>
<rect id="Rectangle-path_12" x="8" y="3" width="4" height="3" fill="#91A0AF"/>
</g>
</g>
<g id="24/corner">
<path id="InsideWhite" fill-rule="evenodd" clip-rule="evenodd" d="M20 1L24 5H20V1Z" fill="#D8E0E8"/>
</g>
<g id="24/chard/color/yellow">
<path id="Shape" d="M7 6V21L12 22V5L7 6Z" fill="#ECF0F4"/>
<path id="Chard" fill-rule="evenodd" clip-rule="evenodd" d="M11 6V21L1 19.5V7.5L11 6Z" fill="#207347"/>
</g>
<g id="24/chard/letter/z">
<path id="O" fill-rule="evenodd" clip-rule="evenodd" d="M5.99003 17.12C3.83003 17.12 2.28003 15.51 2.28003 13.52V13.5C2.28003 11.51 3.85003 9.88 6.01003 9.88C8.17003 9.88 9.72003 11.49 9.72003 13.48V13.5C9.72003 15.49 8.15003 17.12 5.99003 17.12ZM6.01003 15.7C7.25003 15.7 8.11003 14.72 8.11003 13.52V13.5C8.11003 12.3 7.23003 11.3 5.99003 11.3C4.75003 11.3 3.89003 12.28 3.89003 13.48V13.5C3.89003 14.7 4.77003 15.7 6.01003 15.7Z" fill="white"/>
</g>
</g>
</svg>
