<svg width="64" height="64" viewBox="0 0 64 64" fill="none" xmlns="http://www.w3.org/2000/svg">
<g id="m/mime_calc_ods/mime_calc_ods_64x64">
<g id="64/baseshape">
<g id="64/baseshape_2">
<path id="OutsideBorder" d="M58 60C58 61.1046 57.1046 62 56 62H15C13.8954 62 13 61.1046 13 60V4C13 2.89543 13.8954 2 15 2H44L58 17V60Z" fill="#ECF0F4"/>
</g>
<g id="Group">
<path id="Rectangle-path" fill-rule="evenodd" clip-rule="evenodd" d="M31 49H41V57H31V49Z" fill="#86BFA0"/>
<path id="Rectangle-path_2" fill-rule="evenodd" clip-rule="evenodd" d="M43 49H53V57H43V49Z" fill="#86BFA0"/>
<rect id="Rectangle-path_3" x="31" y="39" width="10" height="8" fill="#86BFA0"/>
<rect id="Rectangle-path_4" x="43" y="39" width="10" height="8" fill="#86BFA0"/>
<rect id="Rectangle-path_5" x="31" y="29" width="10" height="8" fill="#86BFA0"/>
<rect id="Rectangle-path_6" x="43" y="29" width="10" height="8" fill="#86BFA0"/>
<path id="Rectangle-path_7" fill-rule="evenodd" clip-rule="evenodd" d="M31 19H41V27H31V19Z" fill="#86BFA0"/>
<path id="Rectangle-path_8" fill-rule="evenodd" clip-rule="evenodd" d="M43 19H53V27H43V19Z" fill="#86BFA0"/>
<path id="Rectangle-path_9" fill-rule="evenodd" clip-rule="evenodd" d="M18 19H29V27H18V19Z" fill="#91A0AF"/>
<rect id="Rectangle-path_10" x="31" y="9" width="10" height="8" fill="#91A0AF"/>
<path id="Rectangle-path_11" fill-rule="evenodd" clip-rule="evenodd" d="M43 9H45.5L53 17H43V9Z" fill="#91A0AF"/>
<rect id="Rectangle-path_12" x="18" y="9" width="11" height="8" fill="#91A0AF"/>
</g>
</g>
<g id="64/corner">
<path id="InsideWhite" fill-rule="evenodd" clip-rule="evenodd" d="M44 17V2L58 17H44Z" fill="#D8E0E8"/>
</g>
<g id="64/chard/color/yellow">
<path id="Shape" d="M14 19V56L32 59V16L14 19Z" fill="#ECF0F4"/>
<path id="Chard" d="M30 18.4318V56.6364L6 53V22L30 18.4318Z" fill="#207347"/>
</g>
<g id="64/chard/letter/a">
<path id="O" fill-rule="evenodd" clip-rule="evenodd" d="M17.976 46.288C12.792 46.288 9.07202 42.424 9.07202 37.648V37.6C9.07202 32.824 12.84 28.912 18.024 28.912C23.208 28.912 26.928 32.776 26.928 37.552V37.6C26.928 42.376 23.16 46.288 17.976 46.288ZM18.024 42.88C21 42.88 23.064 40.528 23.064 37.648V37.6C23.064 34.72 20.952 32.32 17.976 32.32C15 32.32 12.936 34.672 12.936 37.552V37.6C12.936 40.48 15.048 42.88 18.024 42.88Z" fill="white"/>
</g>
</g>
</svg>
