<svg width="24" height="24" xmlns="http://www.w3.org/2000/svg"><path d="M6.5 22.781c-.44-.218-1.1-.218-1.1 0h-.22l-.44-.437c-1.32-1.094-2.2-1.969-2.64-1.969h-.22v-.438c0-.218-.22-.656-.22-1.312-.44-1.094-.66-2.844-.44-3.5.66-1.75.88-1.969 1.76-3.063 1.76-1.75 5.72-3.5 7.7-3.5h.44v-.437l-.66-.219c-1.1-.437-3.74.219-7.26 1.969-1.76.656-1.98.438-1.76-1.313v-1.53c.22 0 .22-1.095.22-2.188 0-1.75 0-2.188.44-2.407C2.54 2.22 5.84 2 8.92 2c2.86 0 4.62.438 6.16 1.094.22.219.66.437.66.437.22-.219 1.76 1.75 2.42 2.844.22.656.66 1.531 1.1 1.75l.44.438-.22.218c-.22.438-.22 1.75 0 1.75v1.531c0 .876 0 1.094.22 1.313l.44.219-.44.437c-.22.219-.44.656-.44.875v.438h1.54l.22.219c0 .218.22.437.22.437.22.219 1.76 5.031 1.76 5.688v.656h-2.86c-1.54 0-3.08 0-3.52.218-.88 0-1.54-.656-1.54-1.312v-.438h-.22c-3.3 1.75-6.16 2.407-8.36 1.97zM11.34 16c-1.98.656-2.64.656-2.64-.438.22-.874.66-1.53 1.98-2.187 1.1-.656 1.1-.656 1.54-.219.66.219 1.1 1.531.66 1.969-.22.219-.88.656-1.54.875zm1.98-12.688v-.218h-.22s-.22 0-.44.219l-.22.218h.22c.22 0 .44 0 .66-.219zm3.3 18.813h.44l.44.219h-1.1l.22-.219zm-5.28-.656c0-.219 0-.219.22-.219v.438h-.44l.22-.22zm-7.48-.657l-.22-.218h.44v.437c-.22 0-.22 0-.22-.218zm2.64-1.53l.44-.438.22.218-.44.22-.44.437h-.22l.44-.438zm-3.96-.22v-.218h.44v.218c-.22.22-.22.22-.44.22v-.22zm5.94-.875v-.218h.44v.218c-.22.22-.22.22-.44.22v-.22zm.88-.437c.44-.219.66-.438.66-.438h.22c0 .22-.44.22-.66.438l-.44.219.22-.219zm-7.04-.656c.22 0 .44-.438.88-.438l.44-.218-.66.437c-.44.438-.88.656-.88.656h-.22l.44-.437zm0-1.969l.44-.438v.22h.22l-.22.218h-.22v.219l-.66.219.44-.438zm.88-.656s.44-.219.66-.656l.66-.22-.44.438c-.22.219-.66.438-.66.438H3.2zm-.22-.875l.88-.875.88-.219-.22.219c-.22 0-.66.437-1.1.875l-.66.656.22-.656zm2.64-.219l-.22-.219h.66l-.22.219v.219c-.22 0-.22 0-.22-.219zm6.82-.219l-.22-.219h.22s.22 0 .44.22v.218s-.22 0-.44-.219zm3.96 0c.22-.219.44-.437.66-.437l.44-.219v.438h-.44c-.22.218-.44.218-.66.437h-.22l.22-.219zm-6.6-.219s.44-.218.66-.437l.66-.219c0 .219-1.32.875-1.54.875l.22-.219zm5.06.22v-.22h.44l.22-.218-.22.219c0 .218-.22.218-.22.218h-.22zm-.88-.438s.22-.219.66-.438l.66-.437c0 .219-.22.437-.66.656l-.66.438v-.22zm1.76 0V12.5h.44l.22-.219-.22.219c0 .219-.22.219-.22.219h-.22zm1.98-.219v-.219h.44l.22-.219-.22.22c-.22.218-.22.437-.44.437V12.5zm-.66-2.188c0-.218.22-.218.44-.437l.44-.219c0 .219-.22.219-.44.438l-.44.219zM2.98 9c0-.219 1.54-1.313 3.08-2.188l.88-.437c0 .219-.66.656-1.54 1.094-.66.437-1.76 1.093-1.98 1.312L2.98 9zm15.84-.438l-.22-.218h.22s.22 0 .44.219v.218s-.22 0-.44-.219zm-14.3-.218s.22 0 .44-.219l.44-.219v.438h-.44l-.44.219v-.22zm-2.2 0v-.219h.44l.22-.219-.22.219c0 .219-.22.219-.22.219h-.22zm2.2-1.531c.44-.438 1.1-.657 1.32-.657h.22l-1.1.657c-.66.437-1.1.656-1.32.656l.88-.657zm-1.76 0c.22-.22.66-.438.88-.438h.22l-.44.219c-.22.218-.44.437-.66.437l-.44.219.44-.438zm14.96 0l-.44-.438h.22c0 .219.44.656.22.438zm-2.42.218c0-.218.22-.218.44-.437l.44-.219-.44.219c-.22.218-.22.437-.44.437zM3.86 6.594c.22-.219.22-.438.22-.657h.22v.22l-.22.218c.22 0 .66-.219 1.1-.438l.88-.437-.22.219c-.22 0-.66.437-1.1.656l-.88.438v-.22zM7.6 5.062c0-.218.44-.437.88-.656l.66-.437-.22.219c0 .218-.22.437-.66.656l-.66.218zm7.04-1.75l-.44-.218h.22c.22 0 .44 0 .66.219v.218s-.22-.219-.44-.219zM2.98 2.656h.88l.44.219H2.54l.44-.219zm5.28-.437h.44v.219h-.66l.22-.22zM2.76 16c0-.219.66-.656 1.32-1.313.66-.437 1.32-.874 1.32-1.093l-.66.219c-.22.218-.66.656-1.1.874-.22.22-.66.657-1.1.876-.44.218-.88.656-.88.874v.22l.44-.22c.22-.218.44-.437.66-.437zm-.44-1.531H2.1l.44-.656.44-.438h-.22c-.22 0-.88.875-.88 1.313h.44v-.22zm16.5-4.594h-.22l-.22.219h-.22l.22.219.44.218v-.656zm-1.1-2.844l-.44-.437h-.22l.44.437.44.438V7.25l-.22-.219zm-.66-1.093h-.22l-.22.218-.22.219.22-.219h.44v-.218zm-5.5-3.063l.22-.219-1.1.438-1.32.875-.22.219 1.1-.438c.44-.438 1.1-.875 1.32-.875z" fill="#00A0D4" fill-rule="evenodd"/></svg>