<svg width="128" height="128" viewBox="0 0 128 128" fill="none" xmlns="http://www.w3.org/2000/svg">
<g id="m/mime_data_mht/mime_data_mht_128x128">
<g id="64/baseshape">
<g id="64/baseshape_2">
<path id="OutsideBorder" d="M116 120C116 122.209 114.209 124 112 124H30C27.7909 124 26 122.209 26 120V8C26 5.79086 27.7909 4 30 4H88L116 34V120Z" fill="#ECF0F4"/>
</g>
<path id="Shape" fill-rule="evenodd" clip-rule="evenodd" d="M104 54.0294C103.992 46.1624 89.9379 40 72 40C54.057 40 40 46.165 40 54.0345V100.369C40 108.011 54.057 114 72 114C89.943 114 104 108.011 104 100.366V54.0319V54.0294ZM101.44 100.366C101.44 105.72 89.6103 111.448 72 111.448C54.3898 111.448 42.56 105.72 42.56 100.369V90.1108C47.3959 95.1224 58.6138 98.5544 72 98.5544C85.3863 98.5544 96.6042 95.1198 101.44 90.1108V100.366ZM72 96.0027C89.6103 96.0027 101.44 90.0648 101.44 84.5199V74.8004C96.6042 79.8095 85.3863 83.2441 72 83.2441C58.6138 83.2441 47.3959 79.812 42.56 74.8004V84.5199C42.56 90.0648 54.3898 96.0027 72 96.0027ZM101.44 69.2096C101.44 74.7545 89.6103 80.6923 72 80.6923C54.3898 80.6923 42.56 74.7545 42.56 69.2096V59.6253C47.3959 64.6343 58.6138 68.069 72 68.069C85.3863 68.069 96.6042 64.6343 101.44 59.6253V69.2096ZM42.56 54.0345C42.56 59.5794 54.3898 65.5172 72 65.5172C89.6103 65.5172 101.44 59.5794 101.44 54.0345C101.44 48.4896 89.6103 42.5517 72 42.5517C54.3898 42.5517 42.56 48.4896 42.56 54.0345Z" fill="#91A0AF"/>
</g>
<g id="64/corner">
<path id="InsideWhite" fill-rule="evenodd" clip-rule="evenodd" d="M88 34V4L116 34H88Z" fill="#D8E0E8"/>
</g>
<g id="64/chard/color/yellow">
<path id="Shape_2" d="M28 38V112L64 118V32L28 38Z" fill="#ECF0F4"/>
<path id="Chard" d="M60 36.8636V113.273L12 106V44L60 36.8636Z" fill="#951B81"/>
</g>
<g id="64/chard/letter/a">
<path id="M" fill-rule="evenodd" clip-rule="evenodd" d="M19.2 92V58.4H27.168L36 72.608L44.832 58.4H52.7999V92H45.456V70.064L36 84.416H35.808L26.448 70.208V92H19.2Z" fill="white"/>
</g>
</g>
</svg>
