<svg xmlns="http://www.w3.org/2000/svg" width="16" height="16" viewBox="0 0 16 16"><path fill="#516072" fill-rule="evenodd" d="M6.08927872,5.00264069 L12.1684271,5.00264069 L9.63289322,2.46710678 C9.24236893,2.07658249 9.24236893,1.44341751 9.63289322,1.05289322 C10.0234175,0.662368927 10.6565825,0.662368927 11.0471068,1.05289322 L15.9968542,6.00264069 L11.0471068,10.9523882 C10.6565825,11.3429124 10.0234175,11.3429124 9.63289322,10.9523882 C9.24236893,10.5618639 9.24236893,9.92869888 9.63289322,9.53817459 L12.1684271,7.00264069 L6.08927872,7.00264069 C5.86690286,7.00264069 5.65087099,7.0767629 5.47533811,7.21328847 C5.03939092,7.55235851 4.96085647,8.18063411 5.29992651,8.6165813 L7.27877793,11.1608188 C7.68835465,11.6874175 7.91072128,12.3355131 7.91072128,13.0026407 C7.91072128,14.6594949 6.56757553,16.0026407 4.91072128,16.0026407 L0,16.0026407 L0,14.0026407 L4.91072128,14.0026407 C5.46300603,14.0026407 5.91072128,13.5549254 5.91072128,13.0026407 C5.91072128,12.7802648 5.83659907,12.564233 5.70007349,12.3887001 L3.72122207,9.84446253 C2.70401196,8.53662095 2.93961531,6.65179415 4.24745688,5.63458403 C4.77405553,5.22500731 5.42215113,5.00264069 6.08927872,5.00264069 Z"/></svg>