<svg width="16" height="16" xmlns="http://www.w3.org/2000/svg"><g fill="none" fill-rule="nonzero"><path fill="#AFBDC3" d="M14.8599589.02464066l1.1154004 1.11540041-1.8579055 1.85790554-1.1154004-1.11540041z"/><path d="M.17741273 15.8225873c-.2036961-.2053388-.2036961-.5388091 0-.7441479l1.48665298-1.486653.74414784.7441479-1.48665298 1.486653c-.2053388.2036961-.53880903.2036961-.74414784 0z" fill="#788F9B"/><path d="M3.89486653 14.3310062c-.14291581.113347-.28418891.2217659-.42217659.3252566l-.11827516-.1166324c-.22833675.1691992-.46160164.3351129-.70143737.4895277-.29568788.1921971-.62258727.3843943-.95277207.5125257-.03778234.0164271-.07556468.0082135-.10513347-.0213553L.47967146 14.4049281c-.0295688-.0295688-.03778234-.0673511-.02135524-.1051334.12813142-.3301848.32032854-.6570842.51252567-.9544148.15441478-.238193.32032854-.4714579.48952772-.6997947l-.11663244-.1182751c.10513347-.1396304.21355236-.2809035.32854209-.4254621 1.6-2.0271047 6.62833676-7.0045174 7.61232033-7.98850098l1.48665301-1.48665297.1166324.11663244 1.486653-1.48665298c.3449692-.3466119.9084189-.3466119 1.2550308 0l1.1137577 1.1137577c.3466119.34661191.3466119.9100616 0 1.2550308l-1.486653 1.48665298.1166325.11663244-1.486653 1.48665298c-.9856263.98562628-5.96632446 6.01724849-7.99178647 7.61560579z" fill="#1A96F1"/><path d="M7.05379877 5.6c-.20533881-.20533881-.20533881-.53716632 0-.74250513l3.71745383-3.7174538c.4090349-.40903491 1.077618-.40903491 1.4866529 0l-1.1154004 1.11540041c-.2036961-.20533881-.538809-.20533881-.7425051 0l-2.4476386 2.4476386c-.08049282.08049282-.10020534.19712526-.05256674.29897331.0936345.19548254.05913758.43696098-.10184805.59794661-.20533881.20533881-.53880903.20533881-.74414784 0z" fill="#AFBDC3"/><path d="M10.7712526 2.62669405l1.4866529-1.48665298c.409035-.40903491 1.0776181-.40903491 1.486653 0l1.1154004 1.11540041c.4090349.40903491.4090349 1.07761807 0 1.48665298L13.373306 5.22874743l-2.6020534-2.60205338zM3.47268994 14.6562628c-.64394251.4796715-1.23531828.8525668-1.71334702 1.0398358-.09856263.0377823-.20533881.0147844-.28090349-.0591376L.36303901 14.5215606c-.07392197-.0755647-.09691991-.1823409-.05913757-.2809035.187269-.4780288.55852156-1.0677618 1.03983573-1.713347l2.12895277 2.1289527z" fill="#EBEDEF"/></g></svg>