<svg width="24" height="24" xmlns="http://www.w3.org/2000/svg"><g fill="none" fill-rule="nonzero"><path fill="#AFBDC3" d="M22.2899384.03696099L23.963039 1.7100616l-2.7868583 2.78685832-1.6731006-1.67310062z"/><path d="M.2661191 23.7338809c-.30554415-.3080082-.30554415-.8082135 0-1.1162218l2.22997946-2.2299794 1.11622177 1.1162217-2.22997947 2.2299795c-.30800821.3055442-.80821355.3055442-1.11622176 0z" fill="#788F9B"/><path d="M5.84229979 21.4965092c-.21437371.1700206-.42628336.3326489-.63326488.4878851l-.17741273-.1749487c-.34250514.2537988-.69240247.5026694-1.05215606.7342916-.44353183.2882957-.9338809.5765913-1.42915811.7687885-.05667351.0246406-.11334702.0123203-.15770021-.0320329L.71950719 21.6073922C.675154 21.563039.66283368 21.5063655.68747433 21.449692c.19219713-.4952772.48049282-.9856263.7687885-1.4316222.23162218-.3572895.48049282-.7071868.73429158-1.049692l-.17494866-.1774127c.1577002-.2094456.32032854-.4213552.49281314-.638193 2.4-3.0406571 9.94250511-10.50677621 11.41848051-11.98275157l2.2299795-2.22997946.1749486.17494866 2.2299795-2.22997946c.5174538-.51991787 1.3626283-.51991787 1.8825462 0l1.6706365 1.67063655c.5199179.51991786.5199179 1.3650924 0 1.8825462l-2.2299794 2.22997946.1749486.17494867-2.2299794 2.22997945C16.35154 11.55154 8.88049281 19.0989733 5.84229979 21.4965092z" fill="#1A96F1"/><path d="M10.5806982 8.4c-.3080083-.30800821-.3080083-.80574949 0-1.1137577l5.5761807-5.5761807c.6135523-.61355236 1.6164271-.61355236 2.2299794 0l-1.6731006 1.67310062c-.3055441-.30800822-.8082136-.30800822-1.1137577 0l-3.6714579 3.6714579c-.1207392.12073922-.150308.29568789-.0788501.44845996.1404517.29322382.0887064.65544148-.1527721.89691992-.3080082.30800821-.8082135.30800821-1.1162217 0z" fill="#AFBDC3"/><path d="M16.1568789 3.94004107l2.2299794-2.22997947c.6135524-.61355236 1.6164271-.61355236 2.2299795 0l1.6731006 1.67310062c.6135524.61355236.6135524 1.6164271 0 2.22997946l-2.2299795 2.22997947-3.90308-3.90308008zM5.20903491 21.9843943c-.96591376.7195071-1.85297742 1.2788501-2.57002054 1.5597535-.14784394.0566736-.30800821.0221766-.42135523-.0887063L.54455852 21.7823409c-.11088296-.1133471-.14537988-.2735113-.08870636-.4213553.28090349-.7170431.83778234-1.6016427 1.55975359-2.5700205l3.19342916 3.1934292z" fill="#EBEDEF"/></g></svg>