<svg width="24" height="24" fill="none" xmlns="http://www.w3.org/2000/svg"><path fill-rule="evenodd" clip-rule="evenodd" d="M5.748 5.087A7.572 7.572 0 0 0 1.584 17.07c.178.256.408.528.7.82 4.128 4.13 10.912 3.048 10.912 3.048l-1.819-1.953a7.572 7.572 0 0 0-5.63-13.897Z" fill="#1B7074"/><path fill-rule="evenodd" clip-rule="evenodd" d="M18.096 18.977A7.572 7.572 0 0 0 22.26 6.996a6.116 6.116 0 0 0-.7-.82c-4.129-4.13-10.912-3.048-10.912-3.048l1.818 1.953a7.572 7.572 0 0 0 5.63 13.897Z" fill="#39B7BC"/><path fill-rule="evenodd" clip-rule="evenodd" d="M18.846 12.692a5.501 5.501 0 0 1-1.14 1.366h1.89v1.337H15.59v-1.337c.383-.152.789-.411 1.153-.733.364-.316.69-.69.926-1.082.236-.392.378-.789.378-1.153 0-.245-.062-.42-.175-.529a.635.635 0 0 0-.449-.156c-.406 0-.727.095-.982.203a3.021 3.021 0 0 0-.327.161 4.53 4.53 0 0 1-.222.123l-.033-.028V9.592c.444-.307.988-.52 1.777-.52.458 0 .888.124 1.2.412.312.288.515.746.515 1.408 0 .661-.203 1.266-.505 1.8ZM9.712 10.49H7.728V9.167h3.921l-2.286 6.228H7.92l1.791-4.905Zm-5.426.374V9.61c.6 0 1.087-.174 1.45-.444h.993v6.228H5.42v-4.749a3.078 3.078 0 0 1-1.134.218ZM12.3 9.61v1.253c.383 0 .76-.071 1.134-.218v4.749h1.309V9.167h-.993c-.363.27-.85.444-1.45.444Z" fill="#FEFEFE"/></svg>