<svg xmlns="http://www.w3.org/2000/svg" width="24" height="24" viewBox="0 0 24 24">
  <g fill="none" fill-rule="evenodd">
    <path fill="#0D6FE0" d="M24,19.298 C24,18.75 23.563,18.238 23.002,18.15 C23.002,18.15 22.619,18.095 21.968,17.98 C21.251,17.827 20.44,17.657 19.949,17.551 C19.877,17.524 19.669,17.499 19.645,17.475 C19.516,17.346 13.788,17.344 13.656,17.475 C13.632,17.499 13.424,17.524 13.352,17.551 C12.861,17.657 12.051,17.827 11.333,17.98 C10.682,18.095 10.022,18.208 9.569,18.306 C8.402,18.558 8.224,19.163 7.92,19.692 C7.666,20.133 7.049,24 7.049,24 L22.006,24 C23.107,24 24,23.11 24,22.009 L24,19.298 Z"/>
    <path fill="#663600" d="M19.27,16.447 C22.642,17.386 23.572,15.579 23.645,14.826 C22.911,15.008 21.518,15.12 21.694,12.118 C21.758,11.024 21.487,8.756 20.8,7.026 C19.65,4.133 17.247,4.271 16.811,4.271 C16.759,4.271 16.686,4.272 16.598,4.279 C16.509,4.272 16.437,4.271 16.384,4.271 C15.949,4.271 13.546,4.133 12.396,7.026 C11.708,8.756 11.438,11.024 11.502,12.118 C11.678,15.12 9.308,15.008 8.575,14.826 C8.736,15.543 10.539,17.616 14.039,16.504 C13.901,16.881 19.407,16.815 19.27,16.447 L19.27,16.447 Z"/>
    <path fill="#F2B566" d="M16.65,21.909 C18.413,21.383 19.434,19.285 19.565,17.493 C19.576,17.336 18.929,17.54 18.813,16.698 C18.696,15.856 18.191,14.03 16.65,14.03 C15.333,14.03 14.656,15.244 14.365,16.807 C14.316,17.074 14.124,17.339 13.872,17.493 C12.511,18.329 14.659,21.337 16.65,21.909 Z"/>
    <path fill="#FBBB69" d="M20.684,9.884 C20.847,10.442 20.936,11.045 20.936,11.673 C20.936,14.593 19.01,16.96 16.634,16.96 C14.258,16.96 12.331,14.593 12.331,11.673 C12.331,10.957 12.447,10.274 12.657,9.652 C12.817,9.667 12.98,9.675 13.145,9.675 C15.054,9.675 16.656,8.613 17.096,7.179 C17.706,8.64 19.063,9.705 20.684,9.884 Z"/>
    <path fill="#57D31A" d="M14.13,17.546 C13.228,17.347 12.209,17.126 11.592,16.989 C11.501,16.954 10.857,16.525 10.827,16.493 C10.54,16.199 5.22,16.199 4.933,16.493 C4.903,16.525 4.16,16.758 4.069,16.792 C3.452,16.93 0.276,17.669 -1.77635684e-15,17.79 C0.006,19.284 0.002,22.007 0.002,22.007 C0.001,23.112 0.905,24.007 1.993,24.006 C1.993,24.006 15.103,24 16.733,24 C17.024,23.078 17.093,21.723 17.093,20.565 C17.093,18.528 14.948,17.695 14.13,17.546 Z"/>
    <path fill="#F2B566" d="M11.366,17.315 C10.251,15.542 10.251,14.011 10.251,12.538 C10.844,11.599 4.273,11.599 4.866,12.538 C4.866,14.011 5.173,16.27 3.982,17.666 C3.949,17.705 9.66,19.846 11.366,17.315 Z"/>
    <path fill="#FFFFFF" d="M10.701,15.928 L12.092,17.098 L9.581,20.622 L8.709,18.474 L10.701,15.928 Z M5.981,20.621 L3.453,16.938 L4.728,15.967 L7.094,18.44 L5.981,20.621 Z"/>
    <path fill="#FBBB69" d="M10.694,14.988 C11.397,14.342 12.092,13.726 12.288,12.803 C12.61,11.291 12.781,9.016 12.631,8.142 C13.006,7.75 12.631,5.999 12.631,5.215 C12.631,4.431 11.486,2.35 4.176,3.673 C4.088,3.653 2.237,7.822 2.544,8.142 C2.393,9.016 2.565,11.291 2.886,12.803 C3.208,14.316 4.136,14.988 5.112,15.198 C6.088,15.407 9.991,15.634 10.694,14.988 L10.694,14.988 Z"/>
    <path fill="#B26714" d="M3.804,7.293 C4.624,6.626 9.048,6.068 9.821,4.777 C10.05,5.126 10.05,4.93 10.05,5.74 C10.05,6.55 10.05,6.722 9.821,7.293 C10.673,7.084 10.962,6.627 11.196,6.123 C12.656,7.25 12.595,9.712 12.595,10.851 C12.972,10.476 13.227,8.245 13.227,7.496 C13.227,6.747 13.386,2.583 8.475,1.641 C8.387,1.622 8.296,1.612 8.208,1.591 C7.857,1.509 7.133,1.497 6.792,1.591 C6.705,1.615 6.613,1.622 6.525,1.641 C1.614,2.583 1.773,6.747 1.773,7.496 C1.773,8.245 2.144,9.859 2.521,10.234 C2.491,10.397 2.983,7.96 3.804,7.293 L3.804,7.293 Z"/>
  </g>
</svg>
