<svg width="16" height="16" viewBox="0 0 16 16" fill="none" xmlns="http://www.w3.org/2000/svg">
<g id="m/mime_text_pages/mime_text_pages_16x16">
<g id="16/baseshape">
<g id="16/baseshape_2">
<path id="OutsideBorder" d="M3 0V16H16V4L12 0H3Z" fill="#ECF0F4"/>
</g>
<path id="Combined Shape" fill-rule="evenodd" clip-rule="evenodd" d="M12 3H5V4H12V3ZM14 5H5V6H14V5ZM5 7H14V8H5V7ZM14 9H5V10H14V9ZM5 11H14V12H5V11ZM14 13H5V14H14V13Z" fill="#91A0AF"/>
</g>
<g id="16/corner">
<path id="InsideWhite" d="M12 4V0V0L16 4V4H12Z" fill="#D8E0E8"/>
</g>
<g id="16/chard/color/aqua">
<path id="Shape" fill-rule="evenodd" clip-rule="evenodd" d="M4 2.66077V14.2205L8 15V2L4 2.66077Z" fill="#ECF0F4"/>
<path id="Chard" fill-rule="evenodd" clip-rule="evenodd" d="M0 4L7 3V14L0 12.9V4Z" fill="#2B579A"/>
</g>
<g id="16/chard/letter/a">
<path id="P" fill-rule="evenodd" clip-rule="evenodd" d="M1.83301 10.5V5.83333H3.73967C4.85301 5.83333 5.52634 6.49333 5.52634 7.44667V7.46C5.52634 8.54 4.68634 9.1 3.63967 9.1H2.85967V10.5H1.83301ZM2.85967 8.18667H3.67301C4.18634 8.18667 4.48634 7.88 4.48634 7.48V7.46667C4.48634 7.00667 4.16634 6.76 3.65301 6.76H2.85967V8.18667Z" fill="white"/>
</g>
</g>
</svg>
