<svg width="48" height="48" viewBox="0 0 48 48" fill="none" xmlns="http://www.w3.org/2000/svg">
<g id="m/mime_text_pages/mime_text_pages_48x48">
<g id="48/baseshape">
<g id="48/baseshape_2">
<path id="OutsideBorder" d="M44 44C44 45.1046 43.1046 46 42 46H12C10.8954 46 10 45.1046 10 44V4C10 2.89543 10.8954 2 12 2H34L44 12V44Z" fill="#ECF0F4"/>
</g>
<path id="Combined Shape" fill-rule="evenodd" clip-rule="evenodd" d="M14 9H35V11H14V9ZM14 14H40V16H14V14ZM40 19H14V21H40V19ZM14 29H40V31H14V29ZM40 24H14V26H40V24ZM14 39H40V41H14V39ZM40 34H14V36H40V34Z" fill="#91A0AF"/>
</g>
<g id="48/corner">
<path id="InsideWhite" fill-rule="evenodd" clip-rule="evenodd" d="M34 2L44 12H34V2Z" fill="#D8E0E8"/>
</g>
<g id="24/chard/color/yellow">
<path id="Shape" d="M14 12V42L24 44V10L14 12Z" fill="#ECF0F4"/>
<path id="Chard" fill-rule="evenodd" clip-rule="evenodd" d="M22 12V42L2 39V15L22 12Z" fill="#2B579A"/>
</g>
<g id="24/chard/letter/z">
<path id="P" fill-rule="evenodd" clip-rule="evenodd" d="M7 34V20H12.72C16.06 20 18.08 21.98 18.08 24.84V24.88C18.08 28.12 15.56 29.8 12.42 29.8H10.08V34H7ZM10.08 27.06H12.52C14.06 27.06 14.96 26.14 14.96 24.94V24.9C14.96 23.52 14 22.78 12.46 22.78H10.08V27.06Z" fill="white"/>
</g>
</g>
</svg>
