<svg width="16" height="16" viewBox="0 0 16 16" fill="none" xmlns="http://www.w3.org/2000/svg">
<g id="m/mime_img_jpg/mime_img_jpg_16x16">
<g id="16/baseshape">
<g id="16/baseshape_2">
<path id="OutsideBorder" d="M3 0V16H16V4L12 0H3Z" fill="#ECF0F4"/>
</g>
<g id="flower">
<path id="Shape" d="M9.8169 8.15704C10.0518 7.68293 10.3144 7.01159 10.3144 6.37922C10.3144 5.23619 9.93073 5 9.45724 5C8.98375 5 8.6001 5.23619 8.6001 6.37922C8.6001 7.01159 8.86307 7.68293 9.09758 8.15704C9.21278 8.12531 9.3321 8.10325 9.45724 8.10325C9.58238 8.10325 9.7017 8.12566 9.8169 8.15704Z" fill="#FF0000"/>
<path id="Shape_2" d="M9.09758 10.8079C8.86273 11.2813 8.6001 11.9527 8.6001 12.5857C8.6001 13.7281 8.98375 13.9649 9.45724 13.9649C9.93073 13.9649 10.3144 13.7277 10.3144 12.5857C10.3144 11.9527 10.0514 11.2813 9.8169 10.8079C9.7017 10.8393 9.58238 10.8617 9.45724 10.8617C9.3321 10.8617 9.21278 10.8393 9.09758 10.8079Z" fill="#9559CD"/>
<path id="Shape_3" fill-rule="evenodd" clip-rule="evenodd" d="M8.77972 8.28979C8.61275 7.78809 8.32647 7.12607 7.88144 6.67817C7.07812 5.87063 6.6403 5.9758 6.30532 6.31233C5.97035 6.6492 5.86578 7.08952 6.6691 7.89774C7.11412 8.34496 7.77241 8.63321 8.27161 8.80079C8.39298 8.58735 8.5675 8.41254 8.77972 8.28979Z" fill="#FF7100"/>
<path id="Shape_4" d="M10.1348 10.6751C10.3021 11.1768 10.5884 11.8389 11.0334 12.2861C11.8367 13.0943 12.2742 12.9884 12.6092 12.6519C12.9441 12.315 13.0487 11.8754 12.2454 11.0672C11.8004 10.6193 11.1424 10.3317 10.6432 10.1635C10.5215 10.3769 10.347 10.5524 10.1348 10.6751Z" fill="#1A96F1"/>
<path id="Shape_5" fill-rule="evenodd" clip-rule="evenodd" d="M8.13954 9.12077C7.66811 8.88423 7.00057 8.62045 6.37143 8.62045C5.2352 8.62045 5 9.00629 5 9.48247C5 9.95864 5.2352 10.3445 6.37143 10.3445C7.00057 10.3445 7.66811 10.0797 8.13954 9.84417C8.108 9.72831 8.08571 9.60832 8.08571 9.48247C8.08571 9.35661 8.108 9.23662 8.13954 9.12077Z" fill="#91A0AF"/>
<path id="Shape_6" d="M10.7749 9.84417C11.246 10.08 11.9135 10.3445 12.5427 10.3445C13.6786 10.3445 13.9141 9.95864 13.9141 9.48247C13.9141 9.00629 13.6786 8.62045 12.5427 8.62045C11.9135 8.62045 11.246 8.88458 10.7749 9.12077C10.8064 9.23662 10.8284 9.35661 10.8284 9.48247C10.8284 9.60832 10.8061 9.72831 10.7749 9.84417Z" fill="#57D31A"/>
<path id="Shape_7" d="M8.27147 10.1635C7.77227 10.3317 7.11398 10.6193 6.66895 11.0672C5.86564 11.8754 5.97055 12.315 6.30518 12.6519C6.64015 12.9888 7.07764 13.0943 7.8813 12.2861C8.32633 11.8389 8.61261 11.1768 8.77958 10.6751C8.56735 10.5524 8.39284 10.3769 8.27147 10.1635Z" fill="#FF0097"/>
<path id="Shape_8" d="M10.6432 8.80079C11.1421 8.63252 11.8004 8.34496 12.2454 7.89774C13.0487 7.08952 12.9438 6.6492 12.6092 6.31233C12.2742 5.97545 11.8367 5.87063 11.0334 6.67817C10.588 7.12607 10.3021 7.78809 10.1348 8.28979C10.347 8.41185 10.5215 8.58735 10.6432 8.80079Z" fill="#F6B701"/>
</g>
</g>
<g id="16/corner">
<path id="InsideWhite" d="M12 4V0V0L16 4V4H12Z" fill="#D8E0E8"/>
</g>
<g id="16/chard/color/aqua">
<path id="Shape_9" fill-rule="evenodd" clip-rule="evenodd" d="M4 2.66077V14.2205L8 15V2L4 2.66077Z" fill="#ECF0F4"/>
<path id="Chard" d="M0 4L7 3V14L0 12.9V4Z" fill="#E6007E"/>
</g>
<g id="16/chard/letter/a">
<path id="J" fill-rule="evenodd" clip-rule="evenodd" d="M3.24005 10.5667C2.51338 10.5667 2.03338 10.2467 1.71338 9.86667L2.36005 9.14667C2.62671 9.44 2.88671 9.61333 3.21338 9.61333C3.60005 9.61333 3.84005 9.38 3.84005 8.84V5.83333H4.89338V8.88667C4.89338 9.44 4.73338 9.85333 4.45338 10.1333C4.16671 10.42 3.74671 10.5667 3.24005 10.5667Z" fill="white"/>
</g>
</g>
</svg>
