<svg width="16" height="16" viewBox="0 0 16 16" fill="none" xmlns="http://www.w3.org/2000/svg">
<path d="M14.86 0.0246582L15.9754 1.14006L14.1175 2.99796L13.0021 1.88256L14.86 0.0246582Z" fill="#AFBDC3"/>
<path d="M0.17743 15.8226C-0.0262658 15.6173 -0.0262658 15.2838 0.17743 15.0784L1.66408 13.5918L2.40823 14.3359L0.921578 15.8226C0.716239 16.0263 0.382769 16.0263 0.17743 15.8226Z" fill="#793400"/>
<path d="M3.89484 14.331C3.75193 14.4443 3.61065 14.5528 3.47266 14.6563L3.35439 14.5396C3.12605 14.7088 2.89279 14.8747 2.65295 15.0291C2.35726 15.2213 2.03036 15.4135 1.70018 15.5417C1.6624 15.5581 1.62462 15.5499 1.59505 15.5203L0.479646 14.4049C0.450077 14.3753 0.441864 14.3376 0.458291 14.2998C0.586422 13.9696 0.778619 13.6427 0.970816 13.3454C1.12523 13.1072 1.29114 12.8739 1.46034 12.6456L1.34371 12.5273C1.44885 12.3877 1.55726 12.2464 1.67225 12.1018C3.27225 10.0747 8.30059 5.09732 9.28457 4.11334L10.7712 2.62668L10.8879 2.74332L12.3745 1.25666C12.7195 0.910051 13.2829 0.910051 13.6295 1.25666L14.7433 2.37042C15.0899 2.71703 15.0899 3.28048 14.7433 3.62545L13.2566 5.1121L13.3733 5.22874L11.8866 6.71539C10.901 7.70102 5.9203 12.7326 3.89484 14.331Z" fill="#FF7112"/>
<path d="M7.05378 5.59999C6.84845 5.39465 6.84845 5.06282 7.05378 4.85748L10.7712 1.14003C11.1803 0.730993 11.8489 0.730993 12.2579 1.14003L11.1425 2.25543C10.9388 2.05009 10.6037 2.05009 10.4 2.25543L7.95235 4.70307C7.87185 4.78356 7.85214 4.90019 7.89978 5.00204C7.99341 5.19752 7.95892 5.439 7.79793 5.59999C7.59259 5.80533 7.25912 5.80533 7.05378 5.59999Z" fill="#AFBDC3"/>
<path fill-rule="evenodd" clip-rule="evenodd" d="M12.2579 1.14003L10.7713 2.62668L13.3733 5.22873L14.86 3.74208C15.269 3.33305 15.269 2.66446 14.86 2.25543L13.7446 1.14003C13.3356 0.730993 12.667 0.730993 12.2579 1.14003ZM1.75937 15.6961C2.2374 15.5088 2.82878 15.1359 3.47272 14.6562L1.34377 12.5273C0.862455 13.1729 0.491202 13.7626 0.303933 14.2406C0.266151 14.3392 0.289149 14.446 0.363071 14.5215L1.47847 15.6369C1.55404 15.7109 1.66081 15.7339 1.75937 15.6961Z" fill="#EBEDEF"/>
</svg>
