<svg width="24" height="24" viewBox="0 0 24 24" fill="none" xmlns="http://www.w3.org/2000/svg">
<path d="M22.2899 0.0369873L23.963 1.71009L21.1762 4.49695L19.5031 2.82385L22.2899 0.0369873Z" fill="#AFBDC3"/>
<path d="M0.266145 23.7339C-0.0393987 23.4259 -0.0393987 22.9257 0.266145 22.6177L2.49612 20.3877L3.61235 21.5039L1.38237 23.7339C1.07436 24.0394 0.574154 24.0394 0.266145 23.7339Z" fill="#793400"/>
<path d="M5.84226 21.4966C5.62789 21.6666 5.41598 21.8292 5.209 21.9844L5.03158 21.8095C4.68908 22.0633 4.33918 22.3122 3.97943 22.5438C3.5359 22.8321 3.04555 23.1204 2.55027 23.3126C2.4936 23.3372 2.43692 23.3249 2.39257 23.2805L0.719469 21.6074C0.675116 21.5631 0.662795 21.5064 0.687436 21.4497C0.879633 20.9545 1.16793 20.4641 1.45622 20.0181C1.68785 19.6608 1.93672 19.3109 2.19052 18.9684L2.01557 18.791C2.17327 18.5816 2.3359 18.3697 2.50838 18.1528C4.90838 15.1122 12.4509 7.64604 13.9269 6.17007L16.1568 3.94009L16.3318 4.11504L18.5618 1.88506C19.0792 1.36514 19.9244 1.36514 20.4443 1.88506L22.115 3.55569C22.6349 4.07561 22.6349 4.92078 22.115 5.43824L19.885 7.66822L20.0599 7.84317L17.8299 10.0731C16.3515 11.5516 8.88045 19.099 5.84226 21.4966Z" fill="#FF7112"/>
<path d="M10.5807 8.39998C10.2727 8.09197 10.2727 7.59423 10.5807 7.28622L16.1569 1.71004C16.7705 1.09649 17.7733 1.09649 18.3869 1.71004L16.7138 3.38314C16.4083 3.07513 15.9056 3.07513 15.6 3.38314L11.9286 7.0546C11.8078 7.17534 11.7783 7.35029 11.8497 7.50306C11.9902 7.79628 11.9384 8.1585 11.697 8.39998C11.389 8.70799 10.8887 8.70799 10.5807 8.39998Z" fill="#AFBDC3"/>
<path fill-rule="evenodd" clip-rule="evenodd" d="M18.3868 1.71004L16.1569 3.94002L20.0599 7.8431L22.2899 5.61312C22.9035 4.99957 22.9035 3.9967 22.2899 3.38314L20.6168 1.71004C20.0033 1.09649 19.0004 1.09649 18.3868 1.71004ZM2.639 23.5441C3.35604 23.2632 4.24311 22.7039 5.20902 21.9844L2.01559 18.7909C1.29362 19.7593 0.736742 20.6439 0.455839 21.361C0.399165 21.5088 0.433662 21.669 0.544545 21.7823L2.21765 23.4554C2.33099 23.5663 2.49116 23.6008 2.639 23.5441Z" fill="#EBEDEF"/>
</svg>
