<svg width="48" height="48" viewBox="0 0 48 48" fill="none" xmlns="http://www.w3.org/2000/svg">
<g id="m/mime_img_png/mime_img_png_48x48">
<g id="48/baseshape">
<g id="48/baseshape_2">
<path id="OutsideBorder" d="M44 44C44 45.1046 43.1046 46 42 46H12C10.8954 46 10 45.1046 10 44V4C10 2.89543 10.8954 2 12 2H34L44 12V44Z" fill="#ECF0F4"/>
</g>
<g id="flower">
<path id="Shape" d="M28.049 23.156C28.734 21.781 29.5 19.834 29.5 18C29.5 14.685 28.381 14 27 14C25.619 14 24.5 14.685 24.5 18C24.5 19.834 25.267 21.781 25.951 23.156C26.287 23.064 26.635 23 27 23C27.365 23 27.713 23.065 28.049 23.156Z" fill="#FF0000"/>
<path id="Shape_2" d="M25.951 30.844C25.266 32.217 24.5 34.164 24.5 36C24.5 39.313 25.619 40 27 40C28.381 40 29.5 39.312 29.5 36C29.5 34.164 28.733 32.217 28.049 30.844C27.713 30.935 27.365 31 27 31C26.635 31 26.287 30.935 25.951 30.844Z" fill="#9559CD"/>
<path id="Shape_3" fill-rule="evenodd" clip-rule="evenodd" d="M25.0242 23.541C24.5372 22.086 23.7022 20.166 22.4042 18.867C20.0612 16.525 18.7842 16.83 17.8072 17.806C16.8302 18.783 16.5252 20.06 18.8682 22.404C20.1662 23.701 22.0862 24.537 23.5422 25.023C23.8962 24.404 24.4052 23.897 25.0242 23.541Z" fill="#FF7100"/>
<path id="Shape_4" d="M28.9761 30.459C29.4641 31.914 30.2991 33.834 31.5971 35.131C33.9401 37.475 35.2161 37.168 36.1931 36.192C37.1701 35.215 37.4751 33.94 35.1321 31.596C33.8341 30.297 31.9151 29.463 30.4591 28.975C30.1041 29.594 29.5951 30.103 28.9761 30.459Z" fill="#1A96F1"/>
<path id="Shape_5" fill-rule="evenodd" clip-rule="evenodd" d="M23.157 25.951C21.782 25.265 19.835 24.5 18 24.5C14.686 24.5 14 25.619 14 27C14 28.381 14.686 29.5 18 29.5C19.835 29.5 21.782 28.732 23.157 28.049C23.065 27.713 23 27.365 23 27C23 26.635 23.065 26.287 23.157 25.951Z" fill="#91A0AF"/>
<path id="Shape_6" d="M30.8442 28.049C32.2182 28.733 34.1652 29.5 36.0002 29.5C39.3132 29.5 40.0002 28.381 40.0002 27C40.0002 25.619 39.3132 24.5 36.0002 24.5C34.1652 24.5 32.2182 25.266 30.8442 25.951C30.9362 26.287 31.0002 26.635 31.0002 27C31.0002 27.365 30.9352 27.713 30.8442 28.049Z" fill="#57D31A"/>
<path id="Shape_7" d="M23.5418 28.975C22.0858 29.463 20.1658 30.297 18.8678 31.596C16.5248 33.94 16.8308 35.215 17.8068 36.192C18.7838 37.169 20.0598 37.475 22.4038 35.131C23.7018 33.834 24.5368 31.914 25.0238 30.459C24.4048 30.103 23.8958 29.594 23.5418 28.975Z" fill="#FF0097"/>
<path id="Shape_8" d="M30.4591 25.023C31.9141 24.535 33.8341 23.701 35.1321 22.404C37.4751 20.06 37.1691 18.783 36.1931 17.806C35.2161 16.829 33.9401 16.525 31.5971 18.867C30.2981 20.166 29.4641 22.086 28.9761 23.541C29.5951 23.895 30.1041 24.404 30.4591 25.023Z" fill="#F6B701"/>
</g>
</g>
<g id="48/corner">
<path id="InsideWhite" fill-rule="evenodd" clip-rule="evenodd" d="M34 2L44 12H34V2Z" fill="#D8E0E8"/>
</g>
<g id="24/chard/color/yellow">
<path id="Shape_9" d="M14 12V42L24 44V10L14 12Z" fill="#ECF0F4"/>
<path id="Chard" d="M22 12V42L2 39V15L22 12Z" fill="#E6007E"/>
</g>
<g id="24/chard/letter/z">
<path id="P" fill-rule="evenodd" clip-rule="evenodd" d="M7 34V20H12.72C16.06 20 18.08 21.98 18.08 24.84V24.88C18.08 28.12 15.56 29.8 12.42 29.8H10.08V34H7ZM10.08 27.06H12.52C14.06 27.06 14.96 26.14 14.96 24.94V24.9C14.96 23.52 14 22.78 12.46 22.78H10.08V27.06Z" fill="white"/>
</g>
</g>
</svg>
