<svg xmlns="http://www.w3.org/2000/svg" width="24" height="24" viewBox="0 0 24 24">
  <g fill="none" fill-rule="evenodd">
    <polygon fill="#115805" points=".059 18.028 3.046 18.028 3.046 14.549"/>
    <polygon fill="#115805" points="23.941 18.028 20.954 18.028 20.954 14.549"/>
    <path fill="#DDDDEA" d="M4.99508929,0 C3.8932319,0 3,0.892622799 3,1.99508929 L3,19 L21,19 L21,1.99508929 C21,0.893231902 20.1073772,0 19.0049107,0 L4.99508929,0 Z"/>
    <path fill="#FF0000" d="M19.6354975,16.3955687 C19.6354973,14.7946837 17.9374858,14.1395685 17.2899262,14.0224374 C16.5761272,13.8662626 15.769869,13.6926575 15.2813531,13.5845901 C15.2094212,13.5575732 14.7000709,13.2202825 14.6760936,13.1953573 C14.448913,12.9642324 10.2382067,12.9642324 10.0110261,13.1953573 C9.98704883,13.2204568 9.39903412,13.4034753 9.32727472,13.4304921 C8.83875884,13.5385595 7.42404431,13.8662626 6.71076282,14.0224374 C6.06303078,14.1395685 4.44988237,14.8978134 4.44988237,16.3955689 C4.44988237,17.8933243 4.5112915,19.991419 5.74548904,19.993982 C6.97968659,19.996545 10.1572428,19.9989315 12.0000858,19.9914191 C14.2124445,20.0004374 17.470593,20.0013909 18.4682078,19.991419 C19.4658227,19.9814472 19.6354977,17.9964538 19.6354975,16.3955687 Z"/>
    <path fill="#F2B566" d="M15.1632967,13.7652588 C14.2790288,12.3680232 14.2790288,11.1617311 14.2790288,10.0018311 C14.749184,9.26183868 9.53689134,9.26210993 10.0070466,10.001831 C10.0070466,11.1617311 10.2016797,12.9795921 9.25739124,14.0795899 C9.2311701,14.1101348 13.8101307,15.7590431 15.1632967,13.7652588 Z"/>
    <path fill="#FFFFFF" d="M14.6701018,12.3940909 L15.7076593,13.6946377 L13.5768705,16.25 L12.9803922,14.5150563 L14.6701018,12.3940909 Z M10.8744062,16.25 L8.81706276,13.5421208 L9.86676025,12.5118408 L11.6075678,14.4660525 L10.8744062,16.25 Z"/>
    <path fill="#FBBB69" d="M14.4578812,11.919687 C15.0139222,11.4074078 15.563775,10.9180536 15.7190568,10.1861674 C15.9734984,8.98573219 16.1088063,7.18091745 15.9903684,6.48732862 C16.2872459,6.17627222 15.9903684,4.7867675 15.9903684,4.16483565 C15.9903684,3.54254189 15.0847668,1.89168379 9.30120713,2.94108162 C9.23146613,2.9253388 7.76729944,6.23327303 8.00963343,6.48732862 C7.89084765,7.18091745 8.02650345,8.98573219 8.28077111,10.1861674 C8.53521269,11.3862408 9.26935828,11.919687 10.041719,12.0861133 C10.8140797,12.2525396 13.9018402,12.4319663 14.4578812,11.919687 Z"/>
    <path fill="#B26714" d="M9.08947753,5.85509704 C9.73552763,5.32248714 13.2191086,4.87728096 13.8277195,3.84620667 C14.0081964,4.12467957 14.0081962,3.96812187 14.0081962,4.61497919 C14.0081962,5.26183651 14.0081962,5.39932267 13.8277193,5.85509704 C14.4985421,5.68837987 14.7256883,5.32353715 14.9106054,4.92061317 C16.0600399,5.82061275 15.915914,7.77089417 15.915914,8.68041992 C16.2127915,8.38132564 16.5093388,6.61544731 16.5093388,6.01743274 C16.5093388,5.41907018 16.6347334,2.0949304 12.7678475,1.34258388 C12.6981065,1.32744647 12.6269742,1.31961678 12.5572332,1.30291343 C12.2812258,1.237318 11.7111236,1.22757438 11.4427686,1.30291343 C11.3738972,1.32205268 11.3018953,1.32744647 11.2321543,1.34258388 C7.36509448,2.0949304 7.49066305,5.41907018 7.49066305,6.01743274 C7.49066305,6.61544731 7.78242753,7.9037548 8.07930503,8.20302308 C8.05613092,8.33313279 8.44342743,6.38770694 9.08947753,5.85509704 Z"/>
    <path fill="#57D31A" d="M0,18 L0,23 C6.76353751e-17,23.5522847 0.44771525,24 1,24 L23,24 C23.5522847,24 24,23.5522847 24,23 L24,18 L0,18 Z"/>
  </g>
</svg>
