<svg width="16" height="16" xmlns="http://www.w3.org/2000/svg"><path d="M6.53269192.13571222l-.38867329 1.93934326c-.35230667.11035681-.69406885.25192109-1.02121075.4229994L3.47665908 1.4015681c-.81373952.55782414-1.51726421 1.26135935-2.07509098 2.07507257l1.09647889 1.6461751c-.17107831.3271419-.31263207.66890408-.42298888 1.02118445l-1.9393459.38869959c-.18094962.9698294-.18094962 1.96477098 0 2.93460038l1.9393459.38869959c.11035681.35228032.25191057.69404252.42298888 1.02118442L1.4015681 12.523333c.55782677.8137395 1.26135146 1.5172748 2.07509098 2.0750805l1.6461488-1.0964684c.3271419.1710783.66890408.3126268 1.02121075.4229889l.38867329 1.9393433c.9698294.1809654 1.96477098.1809654 2.93460038 0l.38869959-1.9393433c.35228041-.1103621.69404251-.2519106 1.02118441-.4229889l1.6461751 1.0964684c.8137133-.5578057 1.5172485-1.261341 2.0750805-2.0750805l-1.0964947-1.6461488c.1710783-.3271419.3126531-.6689041.4229889-1.02118442l1.9393696-.38869959c.1809391-.9698294.1809391-1.96477098 0-2.93460038l-1.9393696-.38869959c-.1103358-.35228037-.2519106-.69404255-.4229889-1.02118445l1.0964947-1.6461751c-.557832-.81371322-1.2613672-1.51724843-2.0750805-2.07507257l-1.6461751 1.09648678c-.3271419-.17107831-.668904-.31264259-1.02118441-.4229994L9.4672923.13571222c-.9698294-.18094963-1.96477098-.18094963-2.93460038 0zm4.37639988 7.86428844c0 1.60666061-1.30245179 2.90909114-2.90909114 2.90909114-1.60666062 0-2.90909115-1.30243053-2.90909115-2.90909114 0-1.60663935 1.30243053-2.90909115 2.90909115-2.90909115 1.60663935 0 2.90909114 1.3024518 2.90909114 2.90909115z" fill="#7A71BB" fill-rule="evenodd"/></svg>