<svg width="24" height="24" xmlns="http://www.w3.org/2000/svg"><path d="M9.98245065 1.18660429l-.53442573 2.66659676c-.48442162.15174061-.95434458.34639147-1.40416466.58162412L5.78040584 2.92715598c-1.11889174.76700813-2.08623812 1.73436896-2.85324986 2.85322455l1.50765834 2.26349058c-.23523265.44982007-.42986905.91974303-.58160965 1.4041285l-2.66660038.53446189c-.24880572 1.3335153-.24880572 2.7015599 0 4.0350752l2.66660038.5344619c.1517406.4843854.346377.9543084.58160965 1.4041285l-1.50765834 2.2634544c.76701174 1.1188917 1.73435812 2.0862526 2.85324986 2.8532354l2.26345442-1.5076439c.44982008.2352327.91974304.4298618 1.40416466.5816097l.53442573 2.6665967c1.33351535.2488275 2.70155985.2488275 4.03507515 0l.5344619-2.6665967c.4843855-.1517479.9543085-.346377 1.4041285-.5816097l2.2634906 1.5076439c1.1188556-.7669828 2.0862164-1.7343437 2.8532354-2.8532354l-1.50768-2.2634544c.2352326-.4498201.429898-.9197431.5816096-1.4041285l2.666633-.5344619c.2487912-1.3335153.2487912-2.7015599 0-4.0350752l-2.666633-.53446189c-.1517116-.48438547-.346377-.95430843-.5816096-1.4041285l1.50768-2.26349058c-.767019-1.11885559-1.7343798-2.08621642-2.8532354-2.85322455l-2.2634906 1.50766919c-.44982-.23523265-.919743-.42988351-1.4041285-.58162412l-.5344619-2.66659676c-1.3335153-.24880572-2.7015598-.24880572-4.03507515 0zM16 12c0 2.2091582-1.7908711 4-4 4-2.20915816 0-4-1.7908418-4-4 0-2.20912892 1.79084184-4 4-4 2.2091289 0 4 1.79087108 4 4z" fill="#7A71BB" fill-rule="evenodd"/></svg>