<svg width="24" height="24" xmlns="http://www.w3.org/2000/svg"><g fill="none" fill-rule="nonzero"><path d="M12 0c6.625 0 12 5.375 12 12s-5.375 12-12 12S0 18.625 0 12 5.375 0 12 0z" fill="#74D425"/><path d="M14.85 7.275c.325-.1.775-.125.95-.075.85.3.8 1.175 1.675 1.3.1.025.55-.25.65-.225.525.1 1.025.575 1.5.35.275-.15.4-.675.15-.85-.225-.175-.6-.05-.85-.225-.4-.275-.725.1-1.025-.275-.15-.15-.4-.675-.6-.95-.2-.3-.825-.175-.725-.05.325.425.775.5.85.725.05.25-.6.6-.425.125.1-.225-.375-.375-.925-.675-.3-.15-.575-.525-1-.325-.225.1-.625.6-.775.85-.275.4-.925.3-1.325.1-.425-.2-.425-1.225.1-1.65.525-.425.95-.175 1.45-.3.2-.075.3-.3.625-.5.35-.25-.225-.625-.025-1.025.15-.325.675-.375.975-.525.25-.125.55-.35.85-.175.4.225.825.25 1.225.5.55.35.975.55 1.525.475-1.85-1.75-4.3-2.9-7.025-3.05.375.275 1.05 1.05.875 1.45-.2.425-.45.925-1.25 1.2-.575.225-1.35.225-1.925.5-.6.25-1.2.225-1.55.3-.55.15.025-1.775-.125-2-.25-.325-1.7-.05-1.825.275-.3.775.4 1.425.375 1.575-.075.3-.075 1.45-.35 1.75-.4.45-1.475.875-1.625.9-.7.1-.85.8-1.375 1.225-.225.15-1.325 1.325-1.5 1.675-.475.975 0 1.6.2 1.8.375.325.55.375.95.5.175.05 1.75.85 2.175 1.3.425.45.65.9 1.075 1.175.55.325 1.5.675 1.625.925.6 1.125.4 2.7-1.275 3.825-.425.3-1.3.775-1.075 1.575.075.325.075.6.175.85 1.675 1 3.65 1.575 5.75 1.575 6.175 0 11.2-5.025 11.2-11.2 0-.525-.05-1.05-.1-1.575-.175-.225-.35-.425-.475-.375-.2.05-.2.65-.425 1-.15.275-.525.3-.6.4-.4.525.95.975.375 1.725-.25.325-1.025 1.05-1.225 2-.425 2.025-.15.8-.8 2.425-.075.225-.25 1.15-.4 1.375-.625.925-2.35 2-2.775 1.45-.25-.3-.4-.775-.475-1.225-.1-.45-.55-1.025-.5-1.4.05-.55.1-.725.125-1.375 0-.025-.4-1.575-.45-1.7-.3-.6-.75-.875-1.425-.65-.5.175-.95-.075-1.35-.25-.8-.325-1.2-1.4-1.35-2.25 0-.025.125-1.375.125-1.45.025-.35.175-.7.375-.975 1.475-2.1 1.125-1.2 3-1.875zM5.55 21.15c-.625-.725-1.325-1.625-1.525-2.125-.225-.575-.3-1.625-.575-1.95-.575-.65-1.1-1.175-1.2-1.85-.1-.625-.45-1.525-.525-2-.075-.7-.4-1.425-.9-1.975C.8 11.5.8 11.75.8 12c0 3.775 1.875 7.125 4.75 9.15z" fill="#0D6FE0"/></g></svg>