<svg width="16" height="16" xmlns="http://www.w3.org/2000/svg"><g fill="none" fill-rule="nonzero"><path d="M8 0c4.4166667 0 8 3.58333333 8 8 0 4.4166667-3.5833333 8-8 8-4.41666667 0-8-3.5833333-8-8 0-4.41666667 3.58333333-8 8-8z" fill="#74D425"/><path d="M9.9 4.85c.2166667-.06666667.5166667-.08333333.6333333-.05.5666667.2.5333334.78333333 1.1166667.86666667.0666667.01666666.3666667-.16666667.4333333-.15.35.06666666.6833334.38333333 1 .23333333.1833334-.1.2666667-.45.1-.56666667-.15-.11666666-.4-.03333333-.5666666-.15C12.35 4.85 12.1333333 5.1 11.9333333 4.85c-.1-.1-.2666666-.45-.4-.63333333-.1333333-.2-.55-.11666667-.4833333-.03333334.2166667.28333334.5166667.33333334.5666667.48333334.0333333.16666666-.4.4-.2833334.08333333.0666667-.15-.25-.25-.6166666-.45-.2-.1-.3833334-.35-.6666667-.21666667-.15.06666667-.41666667.4-.51666667.56666667C9.35 4.91666667 8.91666667 4.85 8.65 4.71666667c-.28333333-.13333334-.28333333-.81666667.06666667-1.1.35-.28333334.63333333-.11666667.96666666-.2.13333334-.05.2-.2.41666667-.33333334.2333333-.16666666-.15-.41666666-.0166667-.68333333.1-.21666667.45-.25.65-.35C10.9 1.96666667 11.1 1.81666667 11.3 1.93333333c.2666667.15.55.16666667.8166667.33333334.3666666.23333333.65.36666666 1.0166666.31666666C11.9 1.41666667 10.2666667.65 8.45.55c.25.18333333.7.7.58333333.96666667-.13333333.28333333-.3.61666666-.83333333.8-.38333333.15-.9.15-1.28333333.33333333-.4.16666667-.8.15-1.03333334.2C5.51666667 2.95 5.9 1.66666667 5.8 1.51666667 5.63333333 1.3 4.66666667 1.48333333 4.58333333 1.7c-.2.51666667.26666667.95.25 1.05-.05.2-.05.96666667-.23333333 1.16666667-.26666667.3-.98333333.58333333-1.08333333.6C3.05 4.58333333 2.95 5.05 2.6 5.33333333c-.15.1-.88333333.88333334-1 1.11666667-.31666667.65 0 1.06666667.13333333 1.2.25.21666667.36666667.25.63333334.33333333.11666666.03333334 1.16666666.56666667 1.45.86666667.28333333.3.43333333.6.71666666.78333333C4.9 9.85 5.53333333 10.0833333 5.61666667 10.25c.4.75.26666666 1.8-.85 2.55C4.48333333 13 3.9 13.3166667 4.05 13.85c.05.2166667.05.4.11666667.5666667C5.28333333 15.0833333 6.6 15.4666667 8 15.4666667c4.1166667 0 7.4666667-3.35 7.4666667-7.4666667 0-.35-.0333334-.7-.0666667-1.05-.1166667-.15-.2333333-.28333333-.3166667-.25C14.95 6.73333333 14.95 7.13333333 14.8 7.36666667c-.1.18333333-.35.2-.4.26666666-.2666667.35.6333333.65.25 1.15-.1666667.21666667-.6833333.7-.8166667 1.33333337-.2833333 1.35-.1.5333333-.5333333 1.6166666-.05.15-.1666667.7666667-.2666667.9166667-.4166666.6166667-1.5666666 1.3333333-1.85.9666667-.1666666-.2-.2666666-.5166667-.3166666-.8166667-.0666667-.3-.3666667-.6833333-.3333334-.9333333C10.5666667 11.5 10.6 11.3833333 10.6166667 10.95c0-.0166667-.2666667-1.05-.3-1.13333333-.2-.4-.50000003-.58333334-.95000003-.43333334-.33333334.11666667-.63333334-.05-.9-.16666666-.53333334-.21666667-.8-.93333334-.9-1.5C7.56666667 7.7 7.65 6.8 7.65 6.75c.01666667-.23333333.11666667-.46666667.25-.65.98333333-1.4.75-.8 2-1.25zM3.7 14.1c-.41666667-.4833333-.88333333-1.0833333-1.01666667-1.4166667-.15-.3833333-.2-1.0833333-.38333333-1.3C1.91666667 10.95 1.56666667 10.6 1.5 10.15c-.06666667-.41666667-.3-1.01666667-.35-1.33333333C1.1 8.35.88333333 7.86666667.55 7.5c-.01666667.16666667-.01666667.33333333-.01666667.5 0 2.5166667 1.25 4.75 3.16666667 6.1z" fill="#0D6FE0"/></g></svg>