<svg xmlns="http://www.w3.org/2000/svg" width="48" height="48" viewBox="0 0 48 48"><g fill="none" fill-rule="evenodd"><g fill-rule="nonzero"><polygon fill="#A7A5A6" points="44 46 10 46 10 2 34 2 44 12"/><polygon fill="#FFFFFF" points="11 45 11 3 33.5 3 43 12.5 43 45"/></g><path fill="#A7A5A6" d="M1,8 L3,8 L3,10 L1,10 L1,8 Z M3,10 L5,10 L5,12 L3,12 L3,10 Z M1,4 L3,4 L3,6 L1,6 L1,4 Z M3,6 L5,6 L5,8 L3,8 L3,6 Z M1,0 L3,0 L3,2 L1,2 L1,0 Z M3,2 L5,2 L5,4 L3,4 L3,2 Z M1,12 L3,12 L3,14 L1,14 L1,12 Z M3,14 L5,14 L5,16 L3,16 L3,14 Z M1,16 L3,16 L3,18 L1,18 L1,16 Z M3,18 L5,18 L5,20 L3,20 L3,18 Z M1,20 L3,20 L3,22 L1,22 L1,20 Z M3,22 L5,22 L5,24 L3,24 L3,22 Z M0,25.9953976 C0,25.4456547 0.45097518,25 0.990777969,25 L5.00922203,25 C5.55641359,25 6,25.4556644 6,25.9953976 L6,34.0046024 C6,34.5543453 5.54902482,35 5.00922203,35 L0.990777969,35 C0.443586406,35 0,34.5443356 0,34.0046024 L0,25.9953976 Z M2,27.4910052 L2,32.5089948 C2,32.7721195 2.22595492,33 2.50468445,33 L3.49531555,33 C3.78596497,33 4,32.7801695 4,32.5089948 L4,27.4910052 C4,27.2278805 3.77404508,27 3.49531555,27 L2.50468445,27 C2.21403503,27 2,27.2198305 2,27.4910052 Z" transform="translate(26 3)"/><polygon fill="#FFFFFF" points="34 3.5 42.5 12 34 12"/><polygon fill="#A7A5A6" fill-rule="nonzero" points="34 12 34 2.5 33 2.5 33 13 43.5 13 43.5 12"/><polygon fill="#FFFFFF" fill-rule="nonzero" points="14 12 14 42 24 44 24 10"/><polygon fill="#F3AC00" points="22 12 22 42 2 39 2 15"/><polygon fill="#FFFFFF" points="6.18 34 6.18 31.66 13.88 22.7 6.42 22.7 6.42 20 17.84 20 17.84 22.34 10.14 31.3 17.84 31.3 17.84 34"/></g></svg>