<?xml version="1.0" encoding="UTF-8"?><svg xmlns="http://www.w3.org/2000/svg" width="24" height="24" viewBox="0 0 24 24"><title>g/gears_blue_black/gears_blue_black_24x24</title><g fill="none" fill-rule="evenodd"><path d="M0 0h24v24H0z"/><path fill="#868686" d="M17.745.328c-.772-.144-1.565-.144-2.337 0l-.31 1.544c-.28.088-.553.2-.813.337l-1.31-.874c-.65.444-1.21 1.005-1.654 1.653l.874 1.31c-.136.26-.25.533-.337.813l-1.544.31c-.145.772-.145 1.565 0 2.337l1.544.31c.088.28.2.553.337.813l-.873 1.31c.445.65 1.005 1.21 1.654 1.654l1.31-.873c.26.136.534.25.814.337l.31 1.545c.772.144 1.565.144 2.337 0l.31-1.544c.28-.087.552-.2.813-.336l1.31.873c.65-.444 1.21-1.005 1.654-1.653l-.873-1.31c.135-.26.248-.534.336-.814l1.544-.31c.144-.772.144-1.565 0-2.337l-1.544-.31c-.088-.28-.2-.553-.337-.813l.872-1.31c-.444-.65-1.005-1.21-1.653-1.654l-1.312.873c-.26-.137-.533-.25-.813-.338l-.31-1.544zm-1.17 3.398c1.583 0 2.866 1.284 2.866 2.865 0 1.583-1.282 2.867-2.864 2.867-1.58 0-2.865-1.284-2.865-2.866 0-1.58 1.285-2.864 2.866-2.864z"/><path fill="#0D6FE0" d="M12.814 8.49c-.753-.48-1.58-.83-2.447-1.04L9.28 9.1c-.33-.045-.665-.062-1-.053l-.907-1.755c-.884.118-1.743.38-2.543.777l.228 1.96c-.282.18-.55.38-.8.603l-1.822-.76c-.602.658-1.09 1.41-1.45 2.23l1.436 1.356c-.1.317-.176.643-.225.973l-1.885.59c-.038.89.072 1.782.323 2.638l1.972.118c.127.31.28.607.454.892l-1.065 1.663c.545.707 1.2 1.32 1.944 1.814l1.585-1.178c.296.153.604.284.92.39l.253 1.96c.872.19 1.77.238 2.655.14l.458-1.923c.327-.072.647-.17.958-.292l1.452 1.338c.79-.413 1.51-.953 2.124-1.6l-.885-1.765c.203-.265.385-.546.545-.84l1.973.092c.34-.825.542-1.7.598-2.59l-1.812-.784c-.015-.334-.055-.666-.122-.993l1.57-1.2c-.27-.85-.677-1.65-1.206-2.368l-1.893.565c-.226-.247-.47-.475-.732-.683l.434-1.927zM9.88 11.995c1.86.79 2.73 2.942 1.94 4.802-.79 1.86-2.943 2.73-4.803 1.938-1.86-.79-2.73-2.942-1.94-4.802.792-1.86 2.943-2.728 4.803-1.938z"/></g></svg>