<?xml version="1.0" encoding="UTF-8"?><svg xmlns="http://www.w3.org/2000/svg" width="24" height="24" viewBox="0 0 24 24" xmlns:xlink="http://www.w3.org/1999/xlink"><title>c/cal_blue_31/cal_blue_31_24x24</title><defs><path id="a" d="M0 4v17c0 1.105.895 2 2 2h20c1.105 0 2-.895 2-2V4H0z"/></defs><g fill="none" fill-rule="evenodd"><path d="M0 0h24v24H0z"/><use fill="#DDDDEA" xlink:href="#a"/><path stroke="#7A79A9" stroke-opacity=".2" stroke-width=".5" d="M.25 4.25V21c0 .966.784 1.75 1.75 1.75h20c.966 0 1.75-.784 1.75-1.75V4.25H.25z"/><path fill="#F00" d="M7.94 12.158v1.4c.243 0 .498.007.764.02.266.015.51.066.735.155.22.09.4.23.55.427.14.196.212.48.212.854 0 .476-.155.852-.463 1.127-.308.28-.686.42-1.134.42-.29 0-.54-.05-.75-.153-.21-.102-.384-.24-.524-.412s-.25-.377-.323-.615c-.075-.238-.117-.488-.126-.75H5c-.01.57.073 1.073.246 1.51.172.44.417.81.735 1.114.32.303.71.534 1.16.693.45.16.957.238 1.508.238.477 0 .934-.07 1.373-.21.438-.14.826-.344 1.16-.615.337-.27.605-.61.806-1.01.2-.4.3-.86.3-1.37 0-.56-.153-1.04-.46-1.444-.31-.4-.734-.663-1.275-.784v-.03c.456-.13.8-.377 1.03-.74.226-.365.34-.785.34-1.26 0-.44-.1-.827-.294-1.163-.196-.34-.45-.62-.763-.858-.313-.233-.665-.408-1.057-.525C9.41 8.057 9.02 8 8.626 8c-.503 0-.96.082-1.37.245-.41.163-.764.394-1.058.693-.294.3-.523.656-.686 1.07-.164.416-.255.876-.273 1.38h1.89c-.01-.504.11-.922.37-1.253.25-.33.63-.497 1.14-.497.36 0 .68.112.96.336.28.224.42.546.42.966 0 .28-.068.504-.203.672-.136.168-.308.296-.518.385-.21.09-.438.142-.68.16-.243.02-.47.02-.686 0zm10.08 5.838v-9.8h-1.58c-.057.373-.174.686-.35.938-.18.252-.396.455-.652.61-.257.153-.546.26-.868.32-.322.062-.656.087-1 .078v1.498h2.463v6.356h1.988z"/><path fill="#0D6FE0" d="M1.5 2C.673 2 0 2.666 0 3.5V5h24V3.5c0-.828-.667-1.5-1.5-1.5h-21z"/><path fill="#FFF" d="M2.5 4c-.276 0-.5-.224-.5-.5s.224-.5.5-.5.5.224.5.5-.224.5-.5.5zm19 0c-.276 0-.5-.224-.5-.5s.224-.5.5-.5.5.224.5.5-.224.5-.5.5z"/></g></svg>