<svg width="24" height="24" xmlns="http://www.w3.org/2000/svg"><g fill="none" fill-rule="evenodd"><path d="M0 6v12c0 2.209139 1.790861 4 4 4h16c2.209139 0 4-1.790861 4-4V6c0-2.209139-1.790861-4-4-4H4C1.790861 2 0 3.790861 0 6z" fill="#EEC31D"/><path d="M2 7v10c0 1.6568542 1.34314575 3 3 3h14c1.6568542 0 3-1.3431458 3-3V7c0-1.65685425-1.3431458-3-3-3H5C3.34314575 4 2 5.34314575 2 7z" fill="#2B8100"/><path d="M13.5 18h5c.2761424 0 .5.2238576.5.5v1c0 .2761424-.2238576.5-.5.5h-5c-.2761424 0-.5-.2238576-.5-.5v-1c0-.2761424.2238576-.5.5-.5z" fill="#FFF"/></g></svg>