<svg width="16" height="16" xmlns="http://www.w3.org/2000/svg"><g fill="none" fill-rule="evenodd"><path d="M0 4v8c0 1.6568542 1.34314575 3 3 3h10c1.6568542 0 3-1.3431458 3-3V4c0-1.65685425-1.3431458-3-3-3H3C1.34314575 1 0 2.34314575 0 4z" fill="#EEC31D"/><path d="M1 4v8c0 1.1045695.8954305 2 2 2h10c1.1045695 0 2-.8954305 2-2V4c0-1.1045695-.8954305-2-2-2H3c-1.1045695 0-2 .8954305-2 2z" fill="#2B8100"/><path d="M9.40000001 13H12.6c.2209139 0 .4.1790861.4.4v.2c0 .2209139-.1790861.4-.4.4H9.40000001C9.1790861 14 9 13.8209139 9 13.6v-.2c0-.2209139.1790861-.4.40000001-.4z" fill="#FFF"/></g></svg>