<svg width="64" height="64" viewBox="0 0 64 64" fill="none" xmlns="http://www.w3.org/2000/svg">
<g id="m/mime_web/mime_web_64x64">
<g id="64/baseshape">
<g id="64/baseshape_2">
<path id="OutsideBorder" d="M58 60C58 61.1046 57.1046 62 56 62H15C13.8954 62 13 61.1046 13 60V4C13 2.89543 13.8954 2 15 2H44L58 17V60Z" fill="#ECF0F4"/>
</g>
<path id="Shape" fill-rule="evenodd" clip-rule="evenodd" d="M18 37.4318C18 27.8041 25.76 20 35.3333 20C44.9067 20 52.6667 27.8041 52.6667 37.4318C52.6667 47.0595 44.9067 54.8636 35.3333 54.8636C25.76 54.8636 18 47.0595 18 37.4318ZM19.3333 37.4318C19.3333 46.3046 26.5107 53.5227 35.3333 53.5227C44.156 53.5227 51.3333 46.3046 51.3333 37.4318C51.3333 28.5617 44.16 21.3449 35.34 21.3409C35.8178 21.9328 36.8869 22.6984 37.803 23.3545C38.3107 23.7181 38.7715 24.0481 39.0587 24.2963C39.8408 24.9691 38.2082 25.8677 36.5586 26.7757C36.1468 27.0024 35.7339 27.2296 35.3573 27.4541C34.2058 28.1405 33.7834 29.7964 33.5179 30.8374C33.3488 31.5007 33.2433 31.9144 33.0533 31.6686C32.5653 31.037 29.3533 26.8936 28.7253 31.2462C28.2293 34.6872 29.3869 34.0511 30.2751 33.563C30.5114 33.4331 30.7287 33.3137 30.8907 33.2844C31.656 33.1436 31.5867 33.9173 31.308 34.6186C31.0267 35.3185 34.5187 36.3041 35.636 36.4436C36.0247 36.492 36.4215 36.3373 36.8414 36.1737C37.6299 35.8663 38.4995 35.5274 39.548 36.4436C41.152 37.8462 45.1307 39.112 47.088 39.6028C48.5804 39.9785 47.8336 41.54 47.0865 43.102C46.855 43.5859 46.6236 44.0698 46.4587 44.5185C45.9333 45.9426 42.656 48.9878 39.428 50.4467C38.3933 50.7537 37.3107 50.9388 36.1947 51.0085C36.2194 50.7234 36.4181 50.2142 36.6553 49.6062C37.2858 47.9896 38.1892 45.6738 36.824 45.0093C34.6587 43.9567 34.6587 41.2159 34.8693 39.2501C34.9918 38.1075 33.9809 37.7002 32.0574 36.9251C30.6716 36.3666 28.812 35.6173 26.5613 34.2646C23.896 32.6649 23.6507 27.2315 24.872 25.2845C21.4867 28.2372 19.3333 32.5831 19.3333 37.4318Z" fill="#91A0AF"/>
</g>
<g id="64/corner">
<path id="InsideWhite" fill-rule="evenodd" clip-rule="evenodd" d="M44 17V2L58 17H44Z" fill="#D8E0E8"/>
</g>
<g id="64/chard/color/yellow">
<path id="Shape_2" d="M14 19V56L32 59V16L14 19Z" fill="#ECF0F4"/>
<path id="Chard" fill-rule="evenodd" clip-rule="evenodd" d="M30 18.4318V56.6364L6 53V22L30 18.4318Z" fill="#474744"/>
</g>
<g id="64/chard/letter/a">
<path id="W" fill-rule="evenodd" clip-rule="evenodd" d="M11.6048 46.12L7.03223 29.2H10.9922L13.3088 40.576L16.4642 29.152H19.6322L22.8349 40.576L25.1467 29.2H29.0107L24.4429 46.12H21.2269L18.0002 35.128L14.8208 46.12H11.6048Z" fill="white"/>
</g>
</g>
</svg>
