<svg width="48" height="48" viewBox="0 0 48 48" fill="none" xmlns="http://www.w3.org/2000/svg">
<g id="m/mime_web/mime_web_48x48">
<g id="48/baseshape">
<g id="48/baseshape_2">
<path id="OutsideBorder" d="M44 44C44 45.1046 43.1046 46 42 46H12C10.8954 46 10 45.1046 10 44V4C10 2.89543 10.8954 2 12 2H34L44 12V44Z" fill="#ECF0F4"/>
</g>
<path id="Shape" fill-rule="evenodd" clip-rule="evenodd" d="M14 27C14 19.82 19.82 14 27 14C34.18 14 40 19.82 40 27C40 34.18 34.18 40 27 40C19.82 40 14 34.18 14 27ZM15 27C15 33.617 20.383 39 27 39C33.617 39 39 33.617 39 27C39 20.385 33.62 15.003 27.005 15C27.3634 15.4414 28.1651 16.0123 28.8522 16.5016C29.233 16.7728 29.5786 17.0189 29.794 17.204C30.3806 17.7057 29.1561 18.3759 27.9189 19.0531C27.6101 19.2221 27.3005 19.3916 27.018 19.559C26.1543 20.0709 25.8376 21.3058 25.6385 22.0821C25.5116 22.5768 25.4324 22.8853 25.29 22.702C24.924 22.231 22.515 19.141 22.044 22.387C21.672 24.9531 22.5402 24.4788 23.2063 24.1148C23.3836 24.0179 23.5465 23.9289 23.668 23.907C24.242 23.802 24.19 24.379 23.981 24.902C23.77 25.424 26.389 26.159 27.227 26.263C27.5185 26.2991 27.8161 26.1838 28.131 26.0617C28.7225 25.8325 29.3747 25.5798 30.161 26.263C31.364 27.309 34.348 28.253 35.816 28.619C36.9353 28.8992 36.3752 30.0637 35.8148 31.2286C35.6413 31.5895 35.4677 31.9503 35.344 32.285C34.95 33.347 32.492 35.618 30.071 36.706C29.295 36.935 28.483 37.073 27.646 37.125C27.6646 36.9123 27.8135 36.5326 27.9914 36.0792C28.4644 34.8736 29.1419 33.1466 28.118 32.651C26.494 31.866 26.494 29.822 26.652 28.356C26.7438 27.5039 25.9857 27.2001 24.5431 26.6221C23.5037 26.2056 22.109 25.6468 20.421 24.638C18.422 23.445 18.238 19.393 19.154 17.941C16.615 20.143 15 23.384 15 27Z" fill="#91A0AF"/>
</g>
<g id="48/corner">
<path id="InsideWhite" fill-rule="evenodd" clip-rule="evenodd" d="M34 2L44 12H34V2Z" fill="#D8E0E8"/>
</g>
<g id="24/chard/color/yellow">
<path id="Shape_2" d="M14 12V42L24 44V10L14 12Z" fill="#ECF0F4"/>
<path id="Chard" fill-rule="evenodd" clip-rule="evenodd" d="M22 12V42L2 39V15L22 12Z" fill="#474744"/>
</g>
<g id="24/chard/letter/z">
<path id="W" fill-rule="evenodd" clip-rule="evenodd" d="M6.16035 34.1L2.86035 20H6.16035L7.58035 29.48L10.7204 19.96H13.3604L16.5004 29.48L17.7896 20H21.0096L17.8404 34.1H15.1604L12.0004 24.94L8.84035 34.1H6.16035Z" fill="white"/>
</g>
</g>
</svg>
