<?xml version="1.0" encoding="UTF-8"?>
<svg width="24px" height="24px" viewBox="0 0 24 24" version="1.1" xmlns="http://www.w3.org/2000/svg" xmlns:xlink="http://www.w3.org/1999/xlink">
    <!-- Generator: Sketch 50 (54983) - http://www.bohemiancoding.com/sketch -->
    <title>f/funnel/funnel_24x24</title>
    <desc>Created with Sketch.</desc>
    <defs></defs>
    <g id="f/funnel/funnel_24x24" stroke="none" stroke-width="1" fill="none" fill-rule="evenodd">
        <path d="M0.4,1 L22,1 C22.225,1 22.4,1.17576419 22.4,1.40174672 L22.4,3.00873362 C22.4,3.23471616 22.225,3.41048035 22,3.41048035 L21.6,3.41048035 L13.775,14.1572052 C13.65,14.3078603 13.6,14.4836245 13.6,14.6593886 L13.6,20.6604803 C13.6,20.9366812 13.475,21.1626638 13.25,21.3133188 L9.425,23.8744541 C9.3,23.9748908 9.15,23.9748908 9,23.8995633 C8.875,23.8242358 8.8,23.69869 8.8,23.5480349 L8.8,14.6593886 C8.8,14.4836245 8.75,14.3078603 8.625,14.1572052 L0.8,3.41048035 L0.4,3.41048035 C0.175,3.41048035 0,3.23471616 0,3.00873362 L0,1.40174672 C0,1.17576419 0.175,1 0.4,1 Z" id="curve4" fill="#91A0AF" fill-rule="nonzero"></path>
        <path d="M13.775,14.1572052 C13.65,14.3078603 13.6,14.4836245 13.6,14.6593886 L13.6,20.6604803 C13.6,20.9366812 13.475,21.1626638 13.25,21.3133188 L9.425,23.8744541 C9.3,23.9748908 9.15,23.9748908 9,23.8995633 C8.875,23.8242358 8.8,23.69869 8.8,23.5480349 L8.8,14.6593886 C8.8,14.4836245 8.75,14.3078603 8.625,14.1572052 L13.775,14.1572052 Z" id="curve3" fill="#91A0AF" fill-rule="nonzero"></path>
        <polygon id="curve1" fill="#717F8F" fill-rule="nonzero" points="21.6 3.41048035 21.025 4.2139738 1.375 4.2139738 0.8 3.41048035"></polygon>
        <path d="M24,7.4279476 C24,9.18558952 22.55,10.6419214 20.8,10.6419214 L16.325,10.6419214 C16.375,9.98908297 16.8,9.0349345 17.5,9.0349345 L20.8,9.0349345 C21.675,9.0349345 22.4,8.30676856 22.4,7.4279476 C22.4,6.54912664 21.675,5.8209607 20.8,5.8209607 L19.85,5.8209607 C20.225,4.8919214 20.625,4.36462882 21,4.2139738 C22.675,4.33951965 24,5.72052402 24,7.4279476 Z" id="curve0" fill="#717F8F" fill-rule="nonzero"></path>
    </g>
</svg>