<?xml version="1.0" encoding="UTF-8"?>
<svg width="16px" height="16px" viewBox="0 0 16 16" version="1.1" xmlns="http://www.w3.org/2000/svg" xmlns:xlink="http://www.w3.org/1999/xlink">
    <!-- Generator: Sketch 50 (54983) - http://www.bohemiancoding.com/sketch -->
    <title>f/funnel/funnel_16x16</title>
    <desc>Created with Sketch.</desc>
    <defs></defs>
    <g id="f/funnel/funnel_16x16" stroke="none" stroke-width="1" fill="none" fill-rule="evenodd">
        <path d="M0.266666667,1 L14.6666667,1 C14.8166667,1 14.9333333,1.11462882 14.9333333,1.26200873 L14.9333333,2.31004367 C14.9333333,2.45742358 14.8166667,2.5720524 14.6666667,2.5720524 L14.4,2.5720524 L9.18333333,9.58078603 C9.1,9.6790393 9.06666667,9.79366812 9.06666667,9.90829694 L9.06666667,13.8220524 C9.06666667,14.0021834 8.98333333,14.1495633 8.83333333,14.2478166 L6.28333333,15.9181223 C6.2,15.9836245 6.1,15.9836245 6,15.9344978 C5.91666667,15.8853712 5.86666667,15.8034934 5.86666667,15.7052402 L5.86666667,9.90829694 C5.86666667,9.79366812 5.83333333,9.6790393 5.75,9.58078603 L0.533333333,2.5720524 L0.266666667,2.5720524 C0.116666667,2.5720524 0,2.45742358 0,2.31004367 L0,1.26200873 C0,1.11462882 0.116666667,1 0.266666667,1 Z" id="curve4" fill="#91A0AF" fill-rule="nonzero"></path>
        <path d="M9.18333333,9.58078603 C9.1,9.6790393 9.06666667,9.79366812 9.06666667,9.90829694 L9.06666667,13.8220524 C9.06666667,14.0021834 8.98333333,14.1495633 8.83333333,14.2478166 L6.28333333,15.9181223 C6.2,15.9836245 6.1,15.9836245 6,15.9344978 C5.91666667,15.8853712 5.86666667,15.8034934 5.86666667,15.7052402 L5.86666667,9.90829694 C5.86666667,9.79366812 5.83333333,9.6790393 5.75,9.58078603 L9.18333333,9.58078603 Z" id="curve3" fill="#91A0AF" fill-rule="nonzero"></path>
        <path d="M0.266666667,1 L14.6666667,1 C14.8166667,1 14.9333333,1.11462882 14.9333333,1.26200873 L14.9333333,1.52401747 L0,1.52401747 L0,1.26200873 C0,1.11462882 0.116666667,1 0.266666667,1 Z" id="curve2" fill="#717F8F" fill-rule="nonzero"></path>
        <polygon id="curve1" fill="#717F8F" fill-rule="nonzero" points="14.4 2.5720524 14.0166667 3.09606987 0.916666667 3.09606987 0.533333333 2.5720524"></polygon>
        <path d="M16,5.19213974 C16,6.33842795 15.0333333,7.28820961 13.8666667,7.28820961 L10.8833333,7.28820961 C10.9166667,6.86244541 11.2,6.24017467 11.6666667,6.24017467 L13.8666667,6.24017467 C14.45,6.24017467 14.9333333,5.76528384 14.9333333,5.19213974 C14.9333333,4.61899563 14.45,4.1441048 13.8666667,4.1441048 L13.2333333,4.1441048 C13.4833333,3.53820961 13.75,3.19432314 14,3.09606987 C15.1166667,3.1779476 16,4.07860262 16,5.19213974 Z" id="curve0" fill="#717F8F" fill-rule="nonzero"></path>
    </g>
</svg>