<?xml version="1.0" encoding="UTF-8"?><svg xmlns="http://www.w3.org/2000/svg" width="16" height="16" viewBox="0 0 16 16"><title>e/edit_name_ic_action_16x16/edit_name_ic_action_16x16</title><g fill="none" fill-rule="evenodd"><path d="M0 0h16v16H0z"/><path fill="#868686" d="M13.795 12l-.569-1.87h-2.863L9.793 12H8l2.771-7.885h2.036L15.59 12h-1.794zm-.966-3.266a552.87 552.87 0 0 1-.89-2.873 8.111 8.111 0 0 1-.142-.527c-.118.459-.456 1.592-1.015 3.4h2.047z"/><path fill="#868686" fill-rule="nonzero" d="M4 4a1 1 0 0 0-1-1H1V1h2c.768 0 1.47.289 2 .764A2.989 2.989 0 0 1 7 1h2v2H7a1 1 0 0 0-1 1v8a1 1 0 0 0 1 1h2v2H7c-.768 0-1.47-.289-2-.764A2.989 2.989 0 0 1 3 15H1v-2h2a1 1 0 0 0 1-1V4z"/></g></svg>