<?xml version="1.0" encoding="UTF-8" standalone="no"?>
<svg width="16px" height="16px" viewBox="0 0 16 16" version="1.1" xmlns="http://www.w3.org/2000/svg" xmlns:xlink="http://www.w3.org/1999/xlink">
    <!-- Generator: Sketch 43.2 (39069) - http://www.bohemiancoding.com/sketch -->
    <title>eye_ic_action_16x16</title>
    <desc>Created with Sketch.</desc>
    <defs></defs>
    <g id="Action-icons" stroke="none" stroke-width="1" fill="none" fill-rule="evenodd">
        <g transform="translate(-70.000000, -421.000000)" id="eye_ic_action_16" fill-rule="nonzero" fill="#868686">
            <g transform="translate(70.000000, 423.000000)">
                <path d="M8,0.375 C4.36363636,0.375 1.25818182,2.7075 0,6 C1.25818182,9.2925 4.36363636,11.625 8,11.625 C11.6363636,11.625 14.7418182,9.2925 16,6 C14.7418182,2.7075 11.6363636,0.375 8,0.375 Z M8,9.75 C5.99272727,9.75 4.36363636,8.07 4.36363636,6 C4.36363636,3.93 5.99272727,2.25 8,2.25 C10.0072727,2.25 11.6363636,3.93 11.6363636,6 C11.6363636,8.07 10.0072727,9.75 8,9.75 Z M8,3.75 C6.79272727,3.75 5.81818182,4.755 5.81818182,6 C5.81818182,7.245 6.79272727,8.25 8,8.25 C9.20727273,8.25 10.1818182,7.245 10.1818182,6 C10.1818182,4.755 9.20727273,3.75 8,3.75 Z" id="Shape"></path>
            </g>
        </g>
    </g>
</svg>