<svg width="16" height="16" viewBox="0 0 16 16" fill="none" xmlns="http://www.w3.org/2000/svg">
<path d="M15.1503 7.52C15.1503 3.09333 12.1122 0.0533333 8.0789 0C4.01937 0.0533333 1.1908 3.01333 0.666992 7.14667C2.13366 4.69333 5.0408 3.04 7.60747 3.04C9.70271 3.04 10.8289 4.18667 10.8289 6.45333H5.22413C5.3289 5.49333 5.74794 4.50667 6.32413 3.92C4.07175 4.85333 2.50033 6.93333 2.50033 9.73333C2.50033 13.2 5.11937 16 8.94318 16C10.8813 16 12.4527 15.5733 13.8146 14.8533V11.4667C12.5837 12.2133 11.117 12.6667 9.49318 12.6667C7.05747 12.6667 5.30271 11.4667 5.30271 9.28H15.1503V7.52Z" fill="#0078D7"/>
</svg>
