<?xml version="1.0" encoding="UTF-8"?><svg xmlns="http://www.w3.org/2000/svg" width="16" height="16" viewBox="0 0 16 16"><title>c/clock_blue_ic_action/clock_blue_ic_action_16x16</title><g fill="none"><path fill="#4789F5" d="M8 14c3.314 0 6-2.686 6-6s-2.686-6-6-6-6 2.686-6 6 2.686 6 6 6zm0 2c-4.418 0-8-3.582-8-8s3.582-8 8-8 8 3.582 8 8-3.582 8-8 8z"/><path fill="#868686" d="M7.75 3c-.414 0-.75.336-.75.75V9l2.638 1.583c.34.204.78.097.99-.24.204-.328.103-.76-.225-.964C10.4 9.375 9.766 9 8.5 8.25v-4.5c0-.414-.336-.75-.75-.75z"/></g></svg>