<?xml version="1.0" encoding="UTF-8" standalone="no"?>
<svg width="16px" height="16px" viewBox="0 0 16 16" version="1.1" xmlns="http://www.w3.org/2000/svg" xmlns:xlink="http://www.w3.org/1999/xlink">
    <!-- Generator: Sketch 43.2 (39069) - http://www.bohemiancoding.com/sketch -->
    <title>box_ic_action_16x16</title>
    <desc>Created with Sketch.</desc>
    <defs></defs>
    <g id="Action-icons" stroke="none" stroke-width="1" fill="none" fill-rule="evenodd">
        <g transform="translate(-470.000000, -219.000000)" id="box_ic_action_16" fill="#868686">
            <g transform="translate(470.000000, 220.000000)">
                <path d="M15,4 L15,13.0044225 C15,13.555163 14.5492199,14 13.9931545,14 L2.00684547,14 C1.44994876,14 1,13.5542648 1,13.0044225 L1,4 L0,4 L0,1.0093689 C0,0.443353176 0.448105505,1.13686838e-13 1.00087166,1.13686838e-13 L14.9991283,1.13686838e-13 C15.5553691,1.13686838e-13 16,0.451909848 16,1.0093689 L16,4 L15,4 L15,4 Z M5,5 L5,7 L11,7 L11,5 L5,5 Z" id="Shape"></path>
            </g>
        </g>
    </g>
</svg>