<svg width="24" height="24" xmlns="http://www.w3.org/2000/svg"><g fill="none" fill-rule="evenodd"><path fill="#3BB100" fill-rule="nonzero" d="M17 13v4h2v-1h2v1h2v-4z"/><path d="M12.65 9A5.99 5.99 0 0 0 7 5c-3.31 0-6 2.69-6 6s2.69 6 6 6a5.99 5.99 0 0 0 5.65-4H23V9H12.65zM7 13c-1.1 0-2-.9-2-2s.9-2 2-2 2 .9 2 2-.9 2-2 2z" fill="#57D31A" fill-rule="nonzero"/><path d="M7 18A7 7 0 1 1 7 4a7 7 0 0 1 0 14z" fill="#57D31A"/><path d="M7 16A5 5 0 1 0 7 6a5 5 0 0 0 0 10z" fill="#FFF" fill-rule="nonzero"/><path d="M6.686 11.898l.113.045.073.024.091-.002.091-.005.072-.03.108-.054c.21-.16 1.903-1.448 3.515-3.278a26.073 26.073 0 0 0-3.828 2.32 16.533 16.533 0 0 0-3.192-1.495 16.432 16.432 0 0 0 2.957 2.475z" fill="#262626"/></g></svg>