<svg width="24" height="24" xmlns="http://www.w3.org/2000/svg"><g fill="none" fill-rule="evenodd"><path d="M5 5v16h17c1.1045695 0 2-.8954305 2-2V7c0-1.1045695-.8954305-2-2-2H5z" fill="#CCC"/><path d="M0 6v14c0 .5522847.44771525 1 1 1h5V5H1c-.55228475 0-1 .44771525-1 1z" fill="#5D5C65"/><path d="M15 19c-3.314 0-6-2.686-6-6s2.686-6 6-6c3.316 0 6 2.686 6 6s-2.684 6-6 6z" fill="#FFF"/><path d="M15 17.8c-2.6512 0-4.8-2.1488-4.8-4.8s2.1488-4.8 4.8-4.8c2.6528 0 4.8 2.1488 4.8 4.8s-2.1472 4.8-4.8 4.8z" fill="#262626"/><path d="M13.5 12c-.8285 0-1.5-.6715-1.5-1.5S12.6715 9 13.5 9c.829 0 1.5.6715 1.5 1.5s-.671 1.5-1.5 1.5z" fill="#FFF"/><path d="M4.5 3h3c.27614237 0 .5.22385763.5.5V5H4V3.5c0-.27614237.22385763-.5.5-.5z" fill="#FF520E"/></g></svg>