<svg width="16" height="16" xmlns="http://www.w3.org/2000/svg"><!--Generator: Sketch 50 (54983) - http://www.bohemiancoding.com/sketch--><g fill="none" fill-rule="evenodd"><path d="M14.224 13.025c0-1.321-1.392-1.862-1.923-1.959-.585-.129-1.246-.272-1.646-.361-.059-.022-.477-.301-.496-.322-.187-.19-3.638-.19-3.824 0-.02.021-.502.172-.561.195-.4.089-1.56.359-2.145.488-.531.097-1.853.723-1.853 1.959 0 1.237.05 2.969 1.062 2.971 1.012.002 3.616.004 5.127-.002 1.814.008 4.484.008 5.302 0 .818-.008.957-1.647.957-2.969z" fill="red"/><path d="M10.508 10.917c-.723-1.151-.723-2.144-.723-3.099.385-.61-3.879-.61-3.494 0 0 .955.159 2.452-.613 3.358-.022.025 3.723 1.383 4.83-.259z" fill="#F2B566"/><path d="M10.072 9.407c.456-.419.907-.819 1.034-1.418.209-.981.32-2.457.223-3.024.243-.254 0-1.39 0-1.899 0-.509-.743-1.859-5.486-1.001-.057-.012-1.257 2.692-1.059 2.9-.097.567.014 2.043.223 3.024.208.982.81 1.418 1.444 1.554.633.136 3.165.283 3.621-.136z" fill="#FBBB69"/><path d="M5.602 4.414c.532-.433 3.402-.794 3.904-1.632.36025671.3256355.149 1.262 0 1.632.553-.135.74-.432.892-.759.947.731.829 2.316.829 3.055.244-.243.489-1.678.489-2.164 0-.486.103-3.187-3.083-3.799-.058-.012-.116-.018-.174-.032-.227-.053-.697-.061-.918 0-.057.016-.116.02-.174.032-3.186.612-3.083 3.313-3.083 3.799 0 .486.241 1.533.486 1.776-.02.106.3-1.475.832-1.908z" fill="#B26714"/><path d="M10.024 9.868l1.013.904-1.806 2.162-.488-1.421 1.281-1.645zM7.06 12.934l-1.786-2.229.948-.837 1.391 1.638-.553 1.428z" fill="#FFF"/></g></svg>