<svg width="24" height="24" xmlns="http://www.w3.org/2000/svg"><!--Generator: Sketch 50 (54983) - http://www.bohemiancoding.com/sketch--><g fill="none" fill-rule="evenodd"><path d="M12.0679998 15.5463894c1.4262059-.0110902 2.9539268.05878 3.101.2096106.029.03.642.438.728.471.588.131 1.5580001.342 2.4170001.531.779.142 2.8220001.936 2.8220001 2.876s-.204 4.345-1.4040001 4.357c-1.1832261.0118224-5.0055698.0110268-7.6640001.0004818-2.65843021.010545-6.4807739.0113406-7.6640001-.0004818-1.20000004-.012-1.40400005-2.417-1.40400005-4.357 0-1.94 2.04300008-2.734 2.82200011-2.876.85900003-.189 1.82900007-.4 2.41700009-.531.086-.033.69900003-.441.72800003-.471.14707322-.1508306 1.67479412-.2207008 3.10099992-.2096106z" fill="red"/><path d="M15.682 16.538c-1.062-1.689-1.062-3.147-1.062-4.549.565-.895-5.693-.894-5.129 0 0 1.402.234 3.599-.9 4.929-.031.037 5.466 2.03 7.091-.38z" fill="#F2B566"/><path d="M15.042 14.322c.669-.615 1.331-1.202 1.518-2.081.306-1.441.469-3.607.327-4.439.357-.373 0-2.041 0-2.788 0-.747-1.091-2.728-8.053-1.468-.084-.019-1.846 3.951-1.554 4.256-.143.832.02 2.998.326 4.439.306 1.441 1.19 2.081 2.12 2.281.93.199 4.647.415 5.316-.2z" fill="#FBBB69"/><path d="M14.211 4.597s.7852311 1.16423047 0 2.396c.811-.199 1.086-.634 1.309-1.114 1.391 1.073 1.216 3.4 1.216 4.485.359-.357.718-2.464.718-3.177 0-.714.152-4.679-4.525-5.577-.085-.018-.171-.027-.255-.047-.334-.078-1.023-.09-1.348 0-.083.023-.17.029-.255.047-4.677.898-4.525 4.863-4.525 5.577 0 .713.353 2.25.712 2.607-.028.155.44-2.165 1.222-2.801.781-.635 4.994-1.166 5.731-2.396z" fill="#B26714"/><path d="M14.971 14.999l1.487 1.326-2.651 3.175-.716-2.086 1.88-2.415zM10.62 19.5l-2.622-3.273 1.392-1.228 2.042 2.404-.812 2.097z" fill="#FFF"/></g></svg>