<?xml version="1.0" encoding="UTF-8"?><svg xmlns="http://www.w3.org/2000/svg" width="24" height="24" viewBox="0 0 24 24"><title>l/logo_klasse/logo_klasse_24x24</title><g fill="none" fill-rule="evenodd"><path d="M0 0h24v24H0z"/><path fill="#4DC9B5" d="M14.007 12.67c1.563-2.163 7.405-10.353 7.405-10.914 0-.64-.44-.756-.86-.756h-4.588c-1.128 0-1.248.226-1.768 1.204-1.064 2.01-3.926 6.01-5.196 7.973V2.11C9 1.26 8.652 1 7.8 1H4.112C3.26 1 3 1.26 3 2.11v19.777C3 22.74 3.26 23 4.112 23H7.8c.852 0 1.2-.26 1.2-1.113v-5.1c2.3 4.275 7.305 5.952 11.867 6.212.51.028.942-.602.942-1.113V18.59c0-.464-.36-.84-.823-.877-2.622-.207-6.045-1.544-6.98-5.043z"/></g></svg>