<svg xmlns="http://www.w3.org/2000/svg" width="16" height="16" viewBox="0 0 16 16">
  <defs>
    <radialGradient id="a" cx="102.39%" cy="41.287%" r="241.259%" fx="102.39%" fy="41.287%" gradientTransform="matrix(1 0 0 .36288 0 .263)">
      <stop offset="10%" stop-color="#FFEA00"/>
      <stop offset="17%" stop-color="#FFDE00"/>
      <stop offset="28%" stop-color="#FFBF00"/>
      <stop offset="43%" stop-color="#FF8E00"/>
      <stop offset="77%" stop-color="#FF272D"/>
      <stop offset="87%" stop-color="#E0255A"/>
      <stop offset="95%" stop-color="#CC2477"/>
      <stop offset="100%" stop-color="#C42482"/>
    </radialGradient>
    <radialGradient id="b" cx="66.566%" cy="7.887%" r="89.171%" fx="66.566%" fy="7.887%" gradientTransform="scale(1 .99468)">
      <stop offset="0%" stop-color="#00CCDA"/>
      <stop offset="22%" stop-color="#0083FF"/>
      <stop offset="26%" stop-color="#007AF9"/>
      <stop offset="33%" stop-color="#0060E8"/>
      <stop offset="33%" stop-color="#005FE7"/>
      <stop offset="44%" stop-color="#2639AD"/>
      <stop offset="52%" stop-color="#401E84"/>
      <stop offset="57%" stop-color="#4A1475"/>
    </radialGradient>
    <linearGradient id="c" x1="57.34%" x2="35.146%" y1="75.221%" y2="6.804%">
      <stop offset="0%" stop-color="#000F43" stop-opacity=".4"/>
      <stop offset="48%" stop-color="#001962" stop-opacity=".17"/>
      <stop offset="100%" stop-color="#002079" stop-opacity="0"/>
    </linearGradient>
    <radialGradient id="d" cx="134.229%" cy="-12.022%" r="140.231%" fx="134.229%" fy="-12.022%" gradientTransform="matrix(.9234 0 0 1 .103 0)">
      <stop offset="0%" stop-color="#FFEA00"/>
      <stop offset="50%" stop-color="#FF272D"/>
      <stop offset="100%" stop-color="#C42482"/>
    </radialGradient>
    <radialGradient id="e" cx="112.208%" cy="-43.99%" r="370.577%" fx="112.208%" fy="-43.99%" gradientTransform="matrix(1 0 0 .5413 0 -.202)">
      <stop offset="0%" stop-color="#FFE900"/>
      <stop offset="16%" stop-color="#FFAF0E"/>
      <stop offset="32%" stop-color="#FF7A1B"/>
      <stop offset="47%" stop-color="#FF4E26"/>
      <stop offset="62%" stop-color="#FF2C2E"/>
      <stop offset="76%" stop-color="#FF1434"/>
      <stop offset="89%" stop-color="#FF0538"/>
      <stop offset="100%" stop-color="#FF0039"/>
    </radialGradient>
    <radialGradient id="f" cx="200.861%" cy="16.009%" r="308.119%" fx="200.861%" fy="16.009%" gradientTransform="matrix(.53349 0 0 1 .937 0)">
      <stop offset="0%" stop-color="#FF272D"/>
      <stop offset="50%" stop-color="#C42482"/>
      <stop offset="99%" stop-color="#620700"/>
    </radialGradient>
    <radialGradient id="g" cx="79.697%" cy="30.057%" r="97.937%" fx="79.697%" fy="30.057%" gradientTransform="matrix(1 0 0 .95943 0 .012)">
      <stop offset="0%" stop-color="#FFEA00"/>
      <stop offset="23%" stop-color="#FFDE00"/>
      <stop offset="37%" stop-color="#FFBF00"/>
      <stop offset="54%" stop-color="#FF8E00"/>
      <stop offset="76%" stop-color="#FF272D"/>
      <stop offset="80%" stop-color="#F92433"/>
      <stop offset="84%" stop-color="#E91C45"/>
      <stop offset="89%" stop-color="#CF0E62"/>
      <stop offset="100%" stop-color="#B5007F"/>
    </radialGradient>
    <radialGradient id="h" cx="28.74%" cy="3.331%" r="241.106%" fx="28.74%" fy="3.331%" gradientTransform="matrix(1 0 0 .3965 0 .02)">
      <stop offset="28%" stop-color="#FFEA00"/>
      <stop offset="40%" stop-color="#FFDD00"/>
      <stop offset="63%" stop-color="#FFBA00"/>
      <stop offset="86%" stop-color="#FF9100"/>
      <stop offset="93%" stop-color="#FF6711"/>
      <stop offset="99%" stop-color="#FF4A1D"/>
    </radialGradient>
    <linearGradient id="i" x1="-143.122%" x2="141.907%" y1="77.632%" y2="39.429%">
      <stop offset="0%" stop-color="#C42482" stop-opacity=".5"/>
      <stop offset="47%" stop-color="#FF272D" stop-opacity=".5"/>
      <stop offset="49%" stop-color="#FF2C2C" stop-opacity=".51"/>
      <stop offset="68%" stop-color="#FF7A1A" stop-opacity=".72"/>
      <stop offset="83%" stop-color="#FFB20D" stop-opacity=".87"/>
      <stop offset="94%" stop-color="#FFD605" stop-opacity=".96"/>
      <stop offset="100%" stop-color="#FFE302"/>
    </linearGradient>
    <linearGradient id="j" x1="55.543%" x2="18.783%" y1="98.268%" y2="9.229%">
      <stop offset="0%" stop-color="#891551" stop-opacity=".6"/>
      <stop offset="100%" stop-color="#C42482" stop-opacity="0"/>
    </linearGradient>
    <linearGradient id="k" x1="8.07%" x2="47.719%" y1="5.409%" y2="46.416%">
      <stop offset="1%" stop-color="#891551" stop-opacity=".5"/>
      <stop offset="48%" stop-color="#FF272D" stop-opacity=".5"/>
      <stop offset="100%" stop-color="#FF272D" stop-opacity="0"/>
    </linearGradient>
    <linearGradient id="l" x1="47.217%" x2="49.719%" y1="98.375%" y2="27.786%">
      <stop offset="0%" stop-color="#C42482"/>
      <stop offset="8%" stop-color="#C42482" stop-opacity=".81"/>
      <stop offset="21%" stop-color="#C42482" stop-opacity=".57"/>
      <stop offset="33%" stop-color="#C42482" stop-opacity=".36"/>
      <stop offset="45%" stop-color="#C42482" stop-opacity=".2"/>
      <stop offset="56%" stop-color="#C42482" stop-opacity=".09"/>
      <stop offset="67%" stop-color="#C42482" stop-opacity=".02"/>
      <stop offset="77%" stop-color="#C42482" stop-opacity="0"/>
    </linearGradient>
    <linearGradient id="m" x1="6.335%" x2="92.352%" y1="1.647%" y2="89.46%">
      <stop offset="0%" stop-color="#FFF14F"/>
      <stop offset="27%" stop-color="#FFEE4C"/>
      <stop offset="45%" stop-color="#FFE643"/>
      <stop offset="61%" stop-color="#FFD834"/>
      <stop offset="76%" stop-color="#FFC41E"/>
      <stop offset="89%" stop-color="#FFAB02"/>
      <stop offset="90%" stop-color="#FFA900"/>
      <stop offset="95%" stop-color="#FFA000"/>
      <stop offset="100%" stop-color="#FF9100"/>
    </linearGradient>
    <linearGradient id="n" x1="71.788%" x2="42.746%" y1="7.159%" y2="81.948%">
      <stop offset="0%" stop-color="#FF8E00"/>
      <stop offset="4%" stop-color="#FF8E00" stop-opacity=".86"/>
      <stop offset="8%" stop-color="#FF8E00" stop-opacity=".73"/>
      <stop offset="13%" stop-color="#FF8E00" stop-opacity=".63"/>
      <stop offset="18%" stop-color="#FF8E00" stop-opacity=".56"/>
      <stop offset="23%" stop-color="#FF8E00" stop-opacity=".51"/>
      <stop offset="28%" stop-color="#FF8E00" stop-opacity=".5"/>
      <stop offset="39%" stop-color="#FF8E00" stop-opacity=".48"/>
      <stop offset="52%" stop-color="#FF8E00" stop-opacity=".42"/>
      <stop offset="68%" stop-color="#FF8E00" stop-opacity=".31"/>
      <stop offset="84%" stop-color="#FF8E00" stop-opacity=".17"/>
      <stop offset="100%" stop-color="#FF8E00" stop-opacity="0"/>
    </linearGradient>
  </defs>
  <g fill="none" fill-rule="evenodd">
    <path fill="url(#a)" fill-rule="nonzero" d="M12.7393333,1.52866667 C12.3526667,1.97933333 12.1726667,2.99333333 12.5646667,4.022 C12.9573333,5.05 13.5586667,4.82666667 13.9333333,5.87533333 C14.4286667,7.258 14.198,9.11666667 14.198,9.11666667 C14.198,9.11666667 14.7933333,10.8393333 15.208,9.01 C16.1253333,5.572 12.7393333,2.37466667 12.7393333,1.52866667 Z"/>
    <path fill="url(#b)" fill-rule="nonzero" d="M8.01733333,15.8006667 C11.9806667,15.8006667 15.1906667,12.572 15.1906667,8.59266667 C15.1906667,4.61266667 11.9806667,1.384 8.02066667,1.384 C4.06133333,1.384 0.850666667,4.61133333 0.850666667,8.592 C0.843333333,12.5753333 4.05733333,15.8006667 8.01733333,15.8006667 Z"/>
    <path fill="url(#c)" fill-rule="nonzero" d="M13.3926667,13.0366667 C13.2376219,13.1458862 13.0749874,13.2439125 12.906,13.33 C13.1293333,13.002 13.336,12.6626667 13.5246667,12.3126667 C13.678,12.1433333 13.818,11.9786667 13.9313333,11.8006667 C13.9873333,11.714 14.05,11.606 14.116,11.4806667 C14.5193333,10.7546667 14.9626667,9.58066667 14.976,8.374 L14.976,8.372 L14.976,8.28266667 C14.9779455,7.97996841 14.9468729,7.67796072 14.8833333,7.382 L14.8926667,7.45133333 L14.882,7.398 C14.8886667,7.43 14.8926667,7.462 14.8986667,7.49466667 C14.9806667,8.19333333 14.922,8.87466667 14.6286667,9.37666667 L14.6153333,9.398 C14.7666667,8.63466667 14.818,7.79133333 14.6486667,6.948 C14.6486667,6.948 14.5806667,6.538 14.0766667,5.292 C13.786,4.57533333 13.2713333,3.988 12.8166667,3.55933333 C12.4166667,3.066 12.0546667,2.73533333 11.8546667,2.524 C11.4373333,2.08466667 11.2626667,1.75533333 11.1906667,1.54066667 C11.1286667,1.50933333 10.332,0.735333333 10.2686667,0.706 C9.92133333,1.24533333 8.828,2.93133333 9.34733333,4.506 C9.58333333,5.22066667 10.1793333,5.96133333 10.8033333,6.37733333 C10.83,6.40866667 11.1753333,6.78133333 11.338,7.624 C11.5066667,8.49466667 11.4186667,9.17333333 11.0713333,10.1773333 C10.662,11.0586667 9.61533333,11.9293333 8.63466667,12.0186667 C6.53933333,12.2086667 5.772,10.966 5.772,10.966 C6.52066667,11.266 7.34866667,11.2026667 7.852,10.8926667 C8.36,10.5786667 8.66666667,10.346 8.916,10.4373333 C9.16133333,10.5286667 9.35733333,10.2626667 9.18133333,9.988 C8.90426928,9.56130353 8.39909922,9.34139054 7.898,9.42933333 C7.39,9.512 6.92466667,9.914 6.25866667,9.52466667 C6.21566474,9.49959833 6.17404854,9.47222511 6.134,9.44266667 C6.09,9.414 6.27666667,9.48666667 6.23333333,9.454 C6.08680048,9.37204645 5.94682731,9.27887959 5.81466667,9.17533333 C5.80533333,9.16666667 5.91533333,9.21066667 5.90533333,9.202 C5.28333333,8.68933333 5.36066667,8.34333333 5.38066667,8.126 C5.39666667,7.95266667 5.51,7.72933333 5.69933333,7.63933333 C5.79133333,7.68933333 5.84866667,7.728 5.84866667,7.728 C5.84866667,7.728 5.81,7.64733333 5.78866667,7.60533333 C5.79533333,7.602 5.80333333,7.60266667 5.81066667,7.6 C5.886,7.636 6.05266667,7.73066667 6.14066667,7.78866667 C6.254,7.86866667 6.29133333,7.94133333 6.29133333,7.94133333 C6.29133333,7.94133333 6.32133333,7.92466667 6.29866667,7.85466667 C6.26904539,7.76962089 6.21472997,7.69534338 6.14266667,7.64133333 L6.15,7.64133333 C6.218,7.68 6.282,7.72466667 6.342,7.77466667 C6.374,7.65866667 6.43133333,7.53733333 6.41866667,7.32066667 C6.41066667,7.168 6.41466667,7.12866667 6.38733333,7.07 C6.36333333,7.01933333 6.40066667,6.99933333 6.44266667,7.052 C6.43566116,7.01074685 6.423801,6.97046707 6.40733333,6.932 L6.40733333,6.92866667 C6.45933333,6.74733333 7.51,6.27533333 7.58733333,6.21933333 C7.71266667,6.13066667 7.818,6.016 7.896,5.88333333 C7.95466667,5.79 7.99866667,5.65933333 8.00933333,5.46133333 C8.01533333,5.31866667 7.94866667,5.22333333 6.886,5.112 C6.59466667,5.08333333 6.42466667,4.87266667 6.328,4.67866667 C6.31097352,4.63889507 6.29296804,4.59954975 6.274,4.56066667 C6.25679983,4.51644485 6.24298233,4.47098083 6.23266667,4.42466667 C6.406,3.926 6.698,3.50333333 7.12733333,3.18466667 C7.15066667,3.16333333 7.034,3.19066667 7.05733333,3.16866667 C7.08466667,3.144 7.26266667,3.072 7.29666667,3.05533333 C7.33733333,3.036 7.12066667,2.944 6.92933333,2.96666667 C6.734,2.98866667 6.69266667,3.012 6.58866667,3.056 C6.632,3.01333333 6.76866667,2.956 6.73666667,2.95666667 C6.52666667,2.98933333 6.26533333,3.11133333 6.042,3.25 C6.04145541,3.22577136 6.0459976,3.20169776 6.05533333,3.17933333 C5.95133333,3.22333333 5.69533333,3.40266667 5.62133333,3.55333333 C5.624,3.52466667 5.626,3.49533333 5.62533333,3.46666667 C5.546,3.53266667 5.47466667,3.60666667 5.412,3.68933333 L5.40866667,3.69333333 C4.80466667,3.45066667 4.27333333,3.43466667 3.824,3.54333333 C3.72533333,3.44466667 3.67733333,3.51666667 3.45333333,3.02466667 C3.438,2.99533333 3.46533333,3.054 3.45333333,3.02466667 C3.41666667,2.92933333 3.476,3.152 3.45333333,3.02466667 C3.07733333,3.322 2.582,3.658 2.344,3.896 C2.34133333,3.90533333 2.62133333,3.816 2.344,3.896 C2.24733333,3.92333333 2.254,3.98133333 2.23933333,4.502 C2.23533333,4.54133333 2.23933333,4.58533333 2.23533333,4.62133333 C2.04533333,4.86333333 1.91666667,5.068 1.86733333,5.174 C1.622,5.59733333 1.35133333,6.25666667 1.08933333,7.30066667 C1.20466667,7.018 1.34466667,6.74533333 1.506,6.48733333 C1.288,7.04066667 1.07733333,7.91 1.03533333,9.24933333 C1.088,8.97333333 1.15533333,8.7 1.238,8.43066667 C1.186,9.542 1.378,10.6506667 1.79933333,11.6806667 C1.95,12.0493333 2.19933333,12.6086667 2.62333333,13.222 C4.00139603,14.6776288 5.9181947,15.5013531 7.92266667,15.4993333 C10.0973333,15.4993333 12.0506667,14.548 13.3926667,13.0366667 Z"/>
    <path fill="url(#d)" fill-rule="nonzero" d="M11.7833333,14.056 C14.4153333,13.7513333 15.5813333,11.0386667 14.084,10.9853333 C12.7326667,10.9413333 10.5373333,14.2 11.7833333,14.056 Z"/>
    <path fill="url(#e)" fill-rule="nonzero" d="M14.274,10.4313333 C16.0846667,9.37733333 15.612,7.10066667 15.612,7.10066667 C15.612,7.10066667 14.9126667,7.91266667 14.4386667,9.20733333 C13.97,10.4893333 13.1853333,11.0673333 14.274,10.4313333 Z"/>
    <path fill="url(#f)" fill-rule="nonzero" d="M8.524,15.4033333 C11.0493333,16.2086667 13.22,14.22 11.882,13.5553333 C10.6666667,12.9566667 7.326,15.022 8.52466667,15.4033333 L8.524,15.4033333 Z"/>
    <path fill="url(#g)" fill-rule="nonzero" d="M14.462,11.398 C14.5233333,11.3113333 14.6066667,11.034 14.68,10.9093333 C15.1253333,10.19 15.1286667,9.61666667 15.1286667,9.60266667 C15.398,8.258 15.3733333,7.70933333 15.208,6.694 C15.0746667,5.876 14.492,4.70466667 13.9866667,4.14066667 C13.4666667,3.55866667 13.8333333,3.74866667 13.3293333,3.324 C12.8873333,2.83466667 12.4593333,2.34933333 12.226,2.15466667 C10.5406667,0.745333333 10.5786667,0.446 10.6113333,0.394666667 L10.5873333,0.421333333 C10.5673333,0.341333333 10.5533333,0.274666667 10.5533333,0.274666667 C10.5533333,0.274666667 9.632,1.196 9.438,2.73133333 C9.31133333,3.73333333 9.68666667,4.77866667 10.23,5.44666667 C10.5126667,5.79333333 10.8326667,6.10666667 11.1833333,6.384 C11.594,6.97333333 11.82,7.70133333 11.82,8.484 C11.8198804,9.56489978 11.3271301,10.5868158 10.4814583,11.2600048 C9.63578641,11.9331939 8.52940294,12.1842531 7.476,11.942 C6.55133333,11.766 6.01666667,11.2993333 5.75066667,10.982 C5.59733333,10.8006667 5.53266667,10.6686667 5.53266667,10.6686667 C6.36133333,10.9653333 7.278,10.9033333 7.83533333,10.5953333 C8.39733333,10.284 8.73666667,10.0533333 9.01266667,10.144 C9.28466667,10.2346667 9.50066667,9.97133333 9.30666667,9.69866667 C9.11666667,9.42666667 8.62133333,9.036 7.88666667,9.14533333 C7.324,9.22666667 6.80933333,9.62533333 6.07266667,9.23866667 C6.02510292,9.21439599 5.97881951,9.18769402 5.934,9.15866667 C5.886,9.13 6.092,9.202 6.044,9.16933333 C5.88322669,9.08878813 5.72858824,8.99653983 5.58133333,8.89333333 C5.57,8.88466667 5.69266667,8.92866667 5.68133333,8.91933333 C4.99266667,8.41133333 5.07866667,8.068 5.09933333,7.85266667 C5.12621478,7.64169874 5.25968412,7.45937458 5.45266667,7.37 C5.55466667,7.42 5.618,7.458 5.618,7.458 L5.55133333,7.33666667 C5.55933333,7.33333333 5.56733333,7.334 5.57533333,7.33066667 C5.65866667,7.36666667 5.84333333,7.46 5.94066667,7.51733333 C6.06733333,7.59733333 6.10733333,7.66933333 6.10733333,7.66933333 C6.10733333,7.66933333 6.14066667,7.65333333 6.116,7.58266667 C6.10733333,7.55466667 6.06933333,7.46333333 5.94333333,7.372 L5.95133333,7.372 C6.02533333,7.41 6.09666667,7.454 6.16333333,7.504 C6.19866667,7.38866667 6.26266667,7.26866667 6.248,7.05333333 C6.24,6.90266667 6.244,6.86333333 6.21466667,6.80466667 C6.188,6.75466667 6.22866667,6.73533333 6.27466667,6.78733333 C6.26694594,6.74627663 6.25394932,6.70639045 6.236,6.66866667 L6.236,6.66466667 C6.29333333,6.48466667 7.456,6.01666667 7.54133333,5.96133333 C7.67733333,5.876 7.79466667,5.762 7.88333333,5.628 C7.948,5.536 7.99666667,5.406 8.00866667,5.21 C8.01266667,5.12133333 7.98533333,5.05133333 7.67733333,4.98333333 C7.492,4.94333333 7.206,4.904 6.76533333,4.86333333 C6.44333333,4.834 6.25466667,4.62533333 6.14733333,4.43266667 C6.128,4.39133333 6.108,4.35333333 6.088,4.316 C6.06919435,4.27244064 6.05403134,4.22739757 6.04266667,4.18133333 C6.23502928,3.67755723 6.58148509,3.24734544 7.03266667,2.952 C7.05866667,2.93066667 6.92933333,2.95733333 6.95533333,2.93533333 C6.98533333,2.91133333 7.182,2.84 7.22,2.824 C7.26533333,2.804 7.026,2.71333333 6.81333333,2.73533333 C6.59733333,2.75733333 6.55133333,2.78 6.436,2.824 C6.48466667,2.78133333 6.636,2.72533333 6.60066667,2.726 C6.36733333,2.758 6.07866667,2.87933333 5.83133333,3.01666667 C5.83133333,2.99266667 5.836,2.96866667 5.846,2.94733333 C5.73066667,2.99066667 5.448,3.168 5.366,3.31866667 C5.3692983,3.28990201 5.37063473,3.26094619 5.37,3.232 C5.28319542,3.29684223 5.20402305,3.37131794 5.134,3.454 L5.13,3.45733333 C4.46266667,3.21666667 3.87466667,3.2 3.37733333,3.30866667 C3.26866667,3.21066667 3.09333333,3.06266667 2.846,2.57533333 C2.83,2.54533333 2.82,2.63533333 2.80733333,2.60733333 C2.71,2.384 2.65266667,2.01866667 2.662,1.76733333 C2.662,1.76733333 2.462,1.85733333 2.298,2.23666667 C2.26733333,2.30466667 2.248,2.342 2.228,2.38 C2.21933333,2.39066667 2.24866667,2.25533333 2.244,2.26266667 C2.216,2.31133333 2.14133333,2.37933333 2.10933333,2.46666667 C2.08666667,2.53133333 2.05533333,2.568 2.03533333,2.64933333 L2.03066667,2.65666667 C2.02933333,2.63266667 2.03666667,2.55866667 2.03066667,2.574 C1.95336274,2.72950004 1.88676349,2.89009554 1.83133333,3.05466667 C1.70754483,3.44510117 1.63778614,3.85064363 1.624,4.26 C1.62,4.29933333 1.624,4.34266667 1.62,4.378 C1.41,4.618 1.26666667,4.82066667 1.21266667,4.926 C0.94,5.346 0.640666667,6 0.350666667,7.03533333 C0.48,6.75266667 0.634,6.482 0.812,6.22733333 C0.570666667,6.77533333 0.337333333,7.63866667 0.290666667,8.96666667 C0.349333333,8.692 0.424,8.42066667 0.514666667,8.15466667 C0.458795711,9.26349644 0.67196845,10.3693872 1.136,11.378 C1.46866667,12.1046667 2.234,13.5853333 4.104,14.7406667 C4.104,14.7406667 4.74,15.214 5.83333333,15.5686667 C5.91333333,15.598 5.996,15.6273333 6.07933333,15.6553333 C6.05372585,15.6448581 6.02838458,15.6337435 6.00333333,15.622 C6.73133333,15.84 7.48666667,15.9513333 8.24666667,15.952 C11.078,15.954 11.9133333,14.8173333 11.9133333,14.8173333 L11.9046667,14.8233333 C11.9446667,14.786 11.9833333,14.7466667 12.02,14.706 C11.5733333,15.1273333 10.5533333,15.156 10.1726667,15.1253333 C10.8226667,14.9346667 11.2506667,14.7726667 12.0826667,14.454 C12.1793333,14.418 12.2793333,14.3766667 12.3813333,14.3306667 L12.4146667,14.3153333 L12.4746667,14.2873333 C12.8802103,14.0963953 13.2615639,13.8578254 13.6106667,13.5766667 C14.446,12.9086667 14.628,12.258 14.7226667,11.8293333 C14.7093333,11.8706667 14.6686667,11.966 14.6393333,12.0286667 C14.424,12.4886667 13.9466667,12.772 13.4286667,13.0133333 C13.6753333,12.69 13.904,12.3533333 14.1133333,12.0046667 C14.2826667,11.8366667 14.3353333,11.574 14.462,11.398 Z"/>
    <path fill="url(#h)" fill-rule="nonzero" d="M13.4446667,12.994 C13.7993051,12.6082396 14.0953541,12.172477 14.3233333,11.7006667 C14.92,10.4473333 15.8426667,8.36266667 15.1153333,6.18533333 C14.542,4.46466667 13.7533333,3.52333333 12.7533333,2.604 C11.128,1.11133333 10.674,0.444666667 10.674,0.0486666667 C10.674,0.0486666667 8.798,2.14 9.612,4.322 C10.4253333,6.50266667 12.092,6.422 13.1946667,8.69933333 C14.492,11.378 12.1446667,14.3006667 10.2046667,15.1193333 C10.3233333,15.0926667 14.52,14.1433333 14.7393333,11.7433333 C14.734,11.7873333 14.6393333,12.4513333 13.4446667,12.994 Z"/>
    <path fill="url(#i)" fill-rule="nonzero" d="M8.00933333,5.21 C8.016,5.06866667 7.94266667,4.97333333 6.77,4.86333333 C6.288,4.81866667 6.10333333,4.37333333 6.04666667,4.18533333 C5.87533333,4.63066667 5.80466667,5.09866667 5.84266667,5.664 C5.86866667,6.03466667 6.11733333,6.432 6.236,6.666 C6.236,6.666 6.26266667,6.63133333 6.27466667,6.61933333 C6.49866667,6.386 7.43733333,6.03066667 7.526,5.98 C7.62333333,5.918 7.99266667,5.648 8.00933333,5.21 Z"/>
    <path fill="url(#j)" fill-rule="nonzero" d="M2.84933333,2.57733333 C2.83333333,2.548 2.82333333,2.638 2.81066667,2.61 C2.71333333,2.38666667 2.65533333,2.02466667 2.66933333,1.77 C2.66933333,1.77 2.47066667,1.86 2.306,2.23933333 C2.27533333,2.30733333 2.25533333,2.34466667 2.236,2.382 C2.22666667,2.39333333 2.256,2.258 2.252,2.26533333 C2.22333333,2.314 2.14933333,2.38133333 2.11733333,2.46533333 C2.09066667,2.534 2.06266667,2.57066667 2.04266667,2.65533333 C2.036,2.67866667 2.04933333,2.55333333 2.04333333,2.56866667 C1.66,3.30866667 1.58666667,4.42866667 1.62733333,4.38 C2.44266667,3.50933333 3.37733333,3.30266667 3.37733333,3.30266667 C3.278,3.22933333 3.062,3.018 2.84933333,2.57733333 Z"/>
    <path fill="url(#k)" fill-rule="nonzero" d="M5.94466667,11.6866667 C4.818,11.2053333 3.53666667,10.5266667 3.58466667,8.98533333 C3.65133333,6.95533333 5.478,7.35666667 5.478,7.35666667 C5.40933333,7.37266667 5.22466667,7.50466667 5.16,7.64466667 C5.09066667,7.81933333 4.96466667,8.21466667 5.34666667,8.62866667 C5.946,9.27866667 4.11466667,10.17 6.94133333,11.854 C7.012,11.8933333 6.27866667,11.8313333 5.94466667,11.6873333 L5.94466667,11.6866667 Z"/>
    <path fill="url(#l)" fill-rule="nonzero" d="M5.544,10.6753333 C6.34333333,10.9533333 7.27333333,10.904 7.83133333,10.5966667 C8.20466667,10.3886667 8.68333333,10.0566667 8.978,10.138 C8.72266667,10.0373333 8.52933333,9.99 8.29733333,9.97866667 C8.25733333,9.97866667 8.21066667,9.97866667 8.168,9.974 C8.08266667,9.974 7.998,9.978 7.91333333,9.98733333 C7.76933333,10.0006667 7.61,10.0913333 7.46466667,10.0766667 C7.45733333,10.0766667 7.60533333,10.016 7.594,10.0186667 C7.51733333,10.0346667 7.434,10.0386667 7.346,10.0486667 C7.29,10.0553333 7.24133333,10.062 7.186,10.0653333 C5.52133333,10.206 4.11533333,9.16333333 4.11533333,9.16333333 C3.99533333,9.56733333 4.65133333,10.364 5.546,10.6753333 L5.544,10.6753333 Z"/>
    <path fill="url(#m)" fill-rule="nonzero" d="M13.442,13.0046667 C15.1253333,11.3513333 15.9773333,9.34266667 15.6173333,7.08933333 C15.6173333,7.08933333 15.7606667,8.24533333 15.2153333,9.42666667 C15.4773333,8.27333333 15.508,6.83933333 14.8113333,5.354 C13.8826667,3.372 12.3546667,2.32933333 11.7713333,1.894 C10.8873333,1.23533333 10.5206667,0.564 10.514,0.425333333 C10.25,0.966 9.45133333,2.82066667 10.428,4.41733333 C11.3433333,5.91333333 12.7853333,6.35666667 13.7946667,7.72933333 C15.6546667,10.2573333 13.442,13.0046667 13.442,13.0046667 Z"/>
    <path fill="url(#n)" fill-rule="nonzero" d="M13.2006667,8.704 C12.6126667,7.48866667 11.8786667,6.95866667 11.1833333,6.384 C11.2646667,6.49733333 11.284,6.53733333 11.3293333,6.61066667 C11.9406667,7.262 12.842,8.85066667 12.1873333,10.8466667 C10.9553333,14.602 6.028,12.8333333 5.51066667,12.3366667 C5.72,14.51 9.35733333,15.55 11.7266667,14.1406667 C13.0746667,12.8646667 14.1646667,10.696 13.2006667,8.704 Z"/>
  </g>
</svg>
