<svg width="24" height="24" xmlns="http://www.w3.org/2000/svg"><defs><radialGradient cx="102.39%" cy="41.3%" fx="102.39%" fy="41.3%" r="241.259%" gradientTransform="matrix(1 0 0 .36289 0 .263)" id="a"><stop stop-color="#FFEA00" offset="10%"/><stop stop-color="#FFDE00" offset="17%"/><stop stop-color="#FFBF00" offset="28%"/><stop stop-color="#FF8E00" offset="43%"/><stop stop-color="#FF272D" offset="77%"/><stop stop-color="#E0255A" offset="87%"/><stop stop-color="#CC2477" offset="95%"/><stop stop-color="#C42482" offset="100%"/></radialGradient><radialGradient cx="66.566%" cy="7.929%" fx="66.566%" fy="7.929%" r="89.171%" gradientTransform="matrix(1 0 0 .99475 0 0)" id="b"><stop stop-color="#00CCDA" offset="0%"/><stop stop-color="#0083FF" offset="22%"/><stop stop-color="#007AF9" offset="26%"/><stop stop-color="#0060E8" offset="33%"/><stop stop-color="#005FE7" offset="33%"/><stop stop-color="#2639AD" offset="44%"/><stop stop-color="#401E84" offset="52%"/><stop stop-color="#4A1475" offset="57%"/></radialGradient><linearGradient x1="57.34%" y1="75.221%" x2="35.146%" y2="6.804%" id="c"><stop stop-color="#000F43" stop-opacity=".4" offset="0%"/><stop stop-color="#001962" stop-opacity=".17" offset="48%"/><stop stop-color="#002079" stop-opacity="0" offset="100%"/></linearGradient><radialGradient cx="134.217%" cy="-12.022%" fx="134.217%" fy="-12.022%" r="140.237%" gradientTransform="matrix(.92335 0 0 1 .103 0)" id="d"><stop stop-color="#FFEA00" offset="0%"/><stop stop-color="#FF272D" offset="50%"/><stop stop-color="#C42482" offset="100%"/></radialGradient><radialGradient cx="112.208%" cy="-43.949%" fx="112.208%" fy="-43.949%" r="370.577%" gradientTransform="matrix(1 0 0 .54131 0 -.202)" id="e"><stop stop-color="#FFE900" offset="0%"/><stop stop-color="#FFAF0E" offset="16%"/><stop stop-color="#FF7A1B" offset="32%"/><stop stop-color="#FF4E26" offset="47%"/><stop stop-color="#FF2C2E" offset="62%"/><stop stop-color="#FF1434" offset="76%"/><stop stop-color="#FF0538" offset="89%"/><stop stop-color="#FF0039" offset="100%"/></radialGradient><radialGradient cx="200.89%" cy="16.009%" fx="200.89%" fy="16.009%" r="308.154%" gradientTransform="matrix(.53343 0 0 1 .937 0)" id="f"><stop stop-color="#FF272D" offset="0%"/><stop stop-color="#C42482" offset="50%"/><stop stop-color="#620700" offset="99%"/></radialGradient><radialGradient cx="79.697%" cy="29.971%" fx="79.697%" fy="29.971%" r="97.937%" gradientTransform="matrix(1 0 0 .8694 0 .04)" id="g"><stop stop-color="#FFEA00" offset="0%"/><stop stop-color="#FFDE00" offset="23%"/><stop stop-color="#FFBF00" offset="37%"/><stop stop-color="#FF8E00" offset="54%"/><stop stop-color="#FF272D" offset="76%"/><stop stop-color="#F92433" offset="80%"/><stop stop-color="#E91C45" offset="84%"/><stop stop-color="#CF0E62" offset="89%"/><stop stop-color="#B5007F" offset="100%"/></radialGradient><radialGradient cx="28.74%" cy="3.356%" fx="28.74%" fy="3.356%" r="241.106%" gradientTransform="matrix(1 0 0 .3965 0 .02)" id="h"><stop stop-color="#FFEA00" offset="28%"/><stop stop-color="#FD0" offset="40%"/><stop stop-color="#FFBA00" offset="63%"/><stop stop-color="#FF9100" offset="86%"/><stop stop-color="#FF6711" offset="93%"/><stop stop-color="#FF4A1D" offset="99%"/></radialGradient><linearGradient x1="-143.122%" y1="77.632%" x2="141.907%" y2="39.429%" id="i"><stop stop-color="#C42482" stop-opacity=".5" offset="0%"/><stop stop-color="#FF272D" stop-opacity=".5" offset="47%"/><stop stop-color="#FF2C2C" stop-opacity=".51" offset="49%"/><stop stop-color="#FF7A1A" stop-opacity=".72" offset="68%"/><stop stop-color="#FFB20D" stop-opacity=".87" offset="83%"/><stop stop-color="#FFD605" stop-opacity=".96" offset="94%"/><stop stop-color="#FFE302" offset="100%"/></linearGradient><linearGradient x1="55.543%" y1="98.268%" x2="18.783%" y2="9.229%" id="j"><stop stop-color="#891551" stop-opacity=".6" offset="0%"/><stop stop-color="#C42482" stop-opacity="0" offset="100%"/></linearGradient><linearGradient x1="8.07%" y1="5.409%" x2="47.719%" y2="46.416%" id="k"><stop stop-color="#891551" stop-opacity=".5" offset="1%"/><stop stop-color="#FF272D" stop-opacity=".5" offset="48%"/><stop stop-color="#FF272D" stop-opacity="0" offset="100%"/></linearGradient><linearGradient x1="47.217%" y1="98.375%" x2="49.719%" y2="27.786%" id="l"><stop stop-color="#C42482" offset="0%"/><stop stop-color="#C42482" stop-opacity=".81" offset="8%"/><stop stop-color="#C42482" stop-opacity=".57" offset="21%"/><stop stop-color="#C42482" stop-opacity=".36" offset="33%"/><stop stop-color="#C42482" stop-opacity=".2" offset="45%"/><stop stop-color="#C42482" stop-opacity=".09" offset="56%"/><stop stop-color="#C42482" stop-opacity=".02" offset="67%"/><stop stop-color="#C42482" stop-opacity="0" offset="77%"/></linearGradient><linearGradient x1="6.335%" y1="1.647%" x2="92.352%" y2="89.46%" id="m"><stop stop-color="#FFF14F" offset="0%"/><stop stop-color="#FFEE4C" offset="27%"/><stop stop-color="#FFE643" offset="45%"/><stop stop-color="#FFD834" offset="61%"/><stop stop-color="#FFC41E" offset="76%"/><stop stop-color="#FFAB02" offset="89%"/><stop stop-color="#FFA900" offset="90%"/><stop stop-color="#FFA000" offset="95%"/><stop stop-color="#FF9100" offset="100%"/></linearGradient><linearGradient x1="71.788%" y1="7.159%" x2="42.746%" y2="81.948%" id="n"><stop stop-color="#FF8E00" offset="0%"/><stop stop-color="#FF8E00" stop-opacity=".86" offset="4%"/><stop stop-color="#FF8E00" stop-opacity=".73" offset="8%"/><stop stop-color="#FF8E00" stop-opacity=".63" offset="13%"/><stop stop-color="#FF8E00" stop-opacity=".56" offset="18%"/><stop stop-color="#FF8E00" stop-opacity=".51" offset="23%"/><stop stop-color="#FF8E00" stop-opacity=".5" offset="28%"/><stop stop-color="#FF8E00" stop-opacity=".48" offset="39%"/><stop stop-color="#FF8E00" stop-opacity=".42" offset="52%"/><stop stop-color="#FF8E00" stop-opacity=".31" offset="68%"/><stop stop-color="#FF8E00" stop-opacity=".17" offset="84%"/><stop stop-color="#FF8E00" stop-opacity="0" offset="100%"/></linearGradient></defs><g fill-rule="nonzero" fill="none"><path d="M18.673 2.22c-.58.676-.85 2.197-.262 3.74.589 1.542 1.491 1.207 2.053 2.78.743 2.074.397 4.862.397 4.862s.893 2.584 1.515-.16c1.376-5.157-3.703-9.953-3.703-11.222z" fill="url(#a)" transform="translate(.436 .073)"/><path d="M11.59 23.628c5.945 0 10.76-4.843 10.76-10.812 0-5.97-4.815-10.813-10.755-10.813C5.656 2.003.84 6.844.84 12.815.829 18.79 5.65 23.628 11.59 23.628z" fill="url(#b)" transform="translate(.436 .073)"/><path d="M19.653 19.482a5.985 5.985 0 0 1-.73.44c.335-.492.645-1.001.928-1.526.23-.254.44-.501.61-.768.084-.13.178-.292.277-.48.605-1.089 1.27-2.85 1.29-4.66v-.003-.134A6.245 6.245 0 0 0 21.889 11l.014.104-.016-.08c.01.048.016.096.025.145.123 1.048.035 2.07-.405 2.823l-.02.032c.227-1.145.304-2.41.05-3.675 0 0-.102-.615-.858-2.484-.436-1.075-1.208-1.956-1.89-2.599-.6-.74-1.143-1.236-1.443-1.553-.626-.659-.888-1.153-.996-1.475-.093-.047-1.288-1.208-1.383-1.252-.521.809-2.161 3.338-1.382 5.7.354 1.072 1.248 2.183 2.184 2.807.04.047.558.606.802 1.87.253 1.306.121 2.324-.4 3.83-.614 1.322-2.184 2.628-3.655 2.762-3.143.285-4.294-1.579-4.294-1.579 1.123.45 2.365.355 3.12-.11.762-.471 1.222-.82 1.596-.683.368.137.662-.262.398-.674a1.903 1.903 0 0 0-1.925-.838c-.762.124-1.46.727-2.459.143a2.073 2.073 0 0 1-.187-.123c-.066-.043.214.066.149.017a4.883 4.883 0 0 1-.628-.418c-.014-.013.151.053.136.04-.933-.769-.817-1.288-.787-1.614.024-.26.194-.595.478-.73.138.075.224.133.224.133s-.058-.121-.09-.184c.01-.005.022-.004.033-.008.113.054.363.196.495.283.17.12.226.229.226.229s.045-.025.011-.13a.679.679 0 0 0-.234-.32h.011c.102.058.198.125.288.2.048-.174.134-.356.115-.681-.012-.229-.006-.288-.047-.376-.036-.076.02-.106.083-.027a.796.796 0 0 0-.053-.18v-.005c.078-.272 1.654-.98 1.77-1.064.188-.133.346-.305.463-.504.088-.14.154-.336.17-.633.009-.214-.091-.357-1.685-.524-.437-.043-.692-.359-.837-.65a3.944 3.944 0 0 0-.081-.177 1.406 1.406 0 0 1-.062-.204c.26-.748.698-1.382 1.342-1.86.035-.032-.14.009-.105-.024.041-.037.308-.145.359-.17.061-.029-.264-.167-.551-.133-.293.033-.355.068-.511.134.065-.064.27-.15.222-.149-.315.049-.707.232-1.042.44a.26.26 0 0 1 .02-.106c-.156.066-.54.335-.651.561.004-.043.007-.087.006-.13-.119.099-.226.21-.32.334l-.005.006c-.906-.364-1.703-.388-2.377-.225-.148-.148-.22-.04-.556-.778-.023-.044.018.044 0 0-.055-.143.034.191 0 0-.564.446-1.307.95-1.664 1.307-.004.014.416-.12 0 0-.145.041-.135.128-.157.909-.006.059 0 .125-.006.179-.285.363-.478.67-.552.829-.368.635-.774 1.624-1.167 3.19.173-.424.383-.833.625-1.22-.327.83-.643 2.134-.706 4.143.079-.414.18-.824.304-1.228-.078 1.667.21 3.33.842 4.875.226.553.6 1.392 1.236 2.312a10.931 10.931 0 0 0 7.949 3.416c3.262 0 6.192-1.427 8.205-3.694z" fill="url(#c)" transform="translate(.436 .073)"/><path d="M17.239 21.011c3.948-.457 5.697-4.526 3.451-4.606-2.027-.066-5.32 4.822-3.451 4.606z" fill="url(#d)" transform="translate(.436 .073)"/><path d="M20.975 15.574c2.716-1.581 2.007-4.996 2.007-4.996s-1.049 1.218-1.76 3.16c-.703 1.923-1.88 2.79-.247 1.836z" fill="url(#e)" transform="translate(.436 .073)"/><path d="M12.35 23.032c3.788 1.208 7.044-1.775 5.037-2.772-1.823-.898-6.834 2.2-5.036 2.772z" fill="url(#f)" transform="translate(.436 .073)"/><path d="M21.257 17.024c.092-.13.217-.546.327-.733.668-1.079.673-1.939.673-1.96.404-2.017.367-2.84.119-4.363-.2-1.227-1.074-2.984-1.832-3.83-.78-.873-.23-.588-.986-1.225-.663-.734-1.305-1.462-1.655-1.754-2.528-2.114-2.471-2.563-2.422-2.64l-.036.04c-.03-.12-.051-.22-.051-.22s-1.382 1.382-1.673 3.685c-.19 1.503.373 3.071 1.188 4.073.424.52.904.99 1.43 1.406.616.884.955 1.976.955 3.15a5.323 5.323 0 0 1-6.516 5.187c-1.387-.264-2.189-.964-2.588-1.44-.23-.272-.327-.47-.327-.47 1.243.445 2.618.352 3.454-.11.843-.467 1.352-.813 1.766-.677.408.136.732-.259.441-.668-.285-.408-1.028-.994-2.13-.83-.844.122-1.616.72-2.721.14a2.335 2.335 0 0 1-.208-.12c-.072-.043.237.065.165.016a5.507 5.507 0 0 1-.694-.414c-.017-.013.167.053.15.039-1.033-.762-.904-1.277-.873-1.6a.927.927 0 0 1 .53-.724c.153.075.248.132.248.132l-.1-.182c.012-.005.024-.004.036-.009.125.054.402.194.548.28.19.12.25.228.25.228s.05-.024.013-.13c-.013-.042-.07-.179-.259-.316h.012c.111.057.218.123.318.198.053-.173.149-.353.127-.676-.012-.226-.006-.285-.05-.373-.04-.075.021-.104.09-.026a.727.727 0 0 0-.058-.178v-.006c.086-.27 1.83-.972 1.958-1.055.204-.128.38-.299.513-.5.097-.138.17-.333.188-.627.006-.133-.035-.238-.497-.34-.278-.06-.707-.119-1.368-.18-.483-.044-.766-.357-.927-.646-.029-.062-.059-.119-.089-.175a1.288 1.288 0 0 1-.068-.202 3.842 3.842 0 0 1 1.485-1.844c.039-.032-.155.008-.116-.025.045-.036.34-.143.397-.167.068-.03-.291-.166-.61-.133-.324.033-.393.067-.566.133.073-.064.3-.148.247-.147-.35.048-.783.23-1.154.436 0-.036.007-.072.022-.104-.173.065-.597.331-.72.557a.957.957 0 0 0 .006-.13 2.15 2.15 0 0 0-.354.333l-.006.005c-1.001-.361-1.883-.386-2.629-.223-.163-.147-.426-.369-.797-1.1-.024-.045-.039.09-.058.048-.146-.335-.232-.883-.218-1.26 0 0-.3.135-.546.704-.046.102-.075.158-.105.215-.013.016.031-.187.024-.176-.042.073-.154.175-.202.306-.034.097-.081.152-.111.274l-.007.011c-.002-.036.009-.147 0-.124a5.724 5.724 0 0 0-.299.721A6.732 6.732 0 0 0 2 6.317c-.006.059 0 .124-.006.177-.315.36-.53.664-.611.822C.974 7.946.525 8.927.09 10.48c.194-.424.425-.83.692-1.212C.42 10.09.07 11.385 0 13.377c.088-.412.2-.819.336-1.218a10.325 10.325 0 0 0 .932 4.835c.499 1.09 1.647 3.311 4.452 5.044 0 0 .954.71 2.594 1.242.12.044.244.088.369.13a2.487 2.487 0 0 1-.114-.05c1.092.327 2.225.494 3.365.495 4.247.003 5.5-1.702 5.5-1.702l-.013.009c.06-.056.118-.115.173-.176-.67.632-2.2.675-2.771.629.975-.286 1.617-.529 2.865-1.007.145-.054.295-.116.448-.185l.05-.023.09-.042a8.466 8.466 0 0 0 1.704-1.066c1.253-1.002 1.526-1.978 1.668-2.621-.02.062-.081.205-.125.299-.323.69-1.039 1.115-1.816 1.477.37-.485.713-.99 1.027-1.513.254-.252.333-.646.523-.91z" fill="url(#g)" transform="translate(.436 .073)"/><path d="M19.731 19.418a8.026 8.026 0 0 0 1.318-1.94c.895-1.88 2.279-5.007 1.188-8.273-.86-2.581-2.043-3.993-3.543-5.372C16.256 1.594 15.575.594 15.575 0c0 0-2.814 3.137-1.593 6.41 1.22 3.271 3.72 3.15 5.374 6.566 1.946 4.018-1.575 8.402-4.485 9.63.178-.04 6.473-1.464 6.802-5.064-.008.066-.15 1.062-1.942 1.876z" fill="url(#h)" transform="translate(.436 .073)"/><path d="M11.578 7.742c.01-.212-.1-.355-1.859-.52-.723-.067-1-.735-1.085-1.017-.257.668-.363 1.37-.306 2.218.039.556.412 1.152.59 1.503 0 0 .04-.052.058-.07.336-.35 1.744-.883 1.877-.959.146-.093.7-.498.725-1.155z" fill="url(#i)" transform="translate(.436 .073)"/><path d="M3.838 3.793c-.024-.044-.039.091-.058.049-.146-.335-.233-.878-.212-1.26 0 0-.298.135-.545.704-.046.102-.076.158-.105.214-.014.017.03-.186.024-.175-.043.073-.154.174-.202.3-.04.103-.082.158-.112.285-.01.035.01-.153.001-.13-.575 1.11-.685 2.79-.624 2.717C3.228 5.191 4.63 4.881 4.63 4.881c-.149-.11-.473-.427-.792-1.088z" fill="url(#j)" transform="translate(.436 .073)"/><path d="M8.481 17.457c-1.69-.722-3.612-1.74-3.54-4.052.1-3.045 2.84-2.443 2.84-2.443-.103.024-.38.222-.477.432-.104.262-.293.855.28 1.476.899.975-1.848 2.312 2.392 4.838.106.059-.994-.034-1.495-.25v-.001z" fill="url(#k)" transform="translate(.436 .073)"/><path d="M7.88 15.94c1.199.417 2.594.343 3.431-.118.56-.312 1.278-.81 1.72-.688-.383-.151-.673-.222-1.021-.239-.06 0-.13 0-.194-.007-.128 0-.255.006-.382.02-.216.02-.455.156-.673.134-.011 0 .211-.091.194-.087-.115.024-.24.03-.372.045-.084.01-.157.02-.24.025-2.497.211-4.606-1.353-4.606-1.353-.18.606.804 1.801 2.146 2.268H7.88z" fill="url(#l)" transform="translate(.436 .073)"/><path d="M19.727 19.434c2.525-2.48 3.803-5.493 3.263-8.873 0 0 .215 1.734-.603 3.506.393-1.73.439-3.881-.606-6.109-1.393-2.973-3.685-4.537-4.56-5.19C15.895 1.78 15.345.773 15.335.565c-.396.811-1.594 3.593-.129 5.988 1.373 2.244 3.536 2.909 5.05 4.968 2.79 3.792-.529 7.913-.529 7.913z" fill="url(#m)" transform="translate(.436 .073)"/><path d="M19.365 12.983c-.882-1.823-1.983-2.618-3.026-3.48.122.17.151.23.219.34.917.977 2.269 3.36 1.287 6.354-1.848 5.633-9.239 2.98-10.015 2.235.314 3.26 5.77 4.82 9.324 2.706 2.022-1.914 3.657-5.167 2.211-8.155z" fill="url(#n)" transform="translate(.436 .073)"/></g></svg>