<?xml version="1.0" encoding="UTF-8"?><svg width="16" height="16" version="1.1" viewBox="0 0 16 16" xmlns="http://www.w3.org/2000/svg" xmlns:xlink="http://www.w3.org/1999/xlink"><!--Generated by IJSVG (https://github.com/iconjar/IJSVG)--><path d="M11,5v-4.757c0,-0.121965 -0.115427,-0.242996 -0.257812,-0.242996h-5.48438c-0.153671,0 -0.257812,0.108793 -0.257812,0.242996v4.757h-4.757c-0.121965,0 -0.242996,0.115427 -0.242996,0.257812v5.48438c0,0.153671 0.108793,0.257812 0.242996,0.257812h4.757v4.757c0,0.121965 0.115427,0.242996 0.257812,0.242996h5.48438c0.153671,0 0.257812,-0.108793 0.257812,-0.242996v-4.757h4.757c0.121965,0 0.242996,-0.115427 0.242996,-0.257812v-5.48438c0,-0.153671 -0.108793,-0.257812 -0.242996,-0.257812h-4.757Z" fill="#57D31A" fill-rule="evenodd"></path></svg>