<svg width="64" height="64" viewBox="0 0 64 64" fill="none" xmlns="http://www.w3.org/2000/svg">
<g id="m/mime_notebook/mime_notebook_64x64">
<g id="64/baseshape">
<g id="64/baseshape_2">
<path id="OutsideBorder" d="M58 60C58 61.1046 57.1046 62 56 62H15C13.8954 62 13 61.1046 13 60V4C13 2.89543 13.8954 2 15 2H44L58 17V60Z" fill="#ECF0F4"/>
</g>
<path id="Shape" fill-rule="evenodd" clip-rule="evenodd" d="M48.7394 42.0874L30.6515 24L25 29.6518L43.0863 47.7393L49.8697 50L51 48.8712L48.7394 42.0874ZM49.0384 48.0398L43.9512 46.3435L43.0879 45.4801L46.4804 42.089L47.3421 42.9524L49.0384 48.0398Z" fill="#91A0AF"/>
</g>
<g id="64/corner">
<path id="InsideWhite" fill-rule="evenodd" clip-rule="evenodd" d="M44 17V2L58 17H44Z" fill="#D8E0E8"/>
</g>
<g id="64/chard/color/yellow">
<path id="Shape_2" d="M14 19V56L32 59V16L14 19Z" fill="#ECF0F4"/>
<path id="Chard" d="M30 18.4318V56.6364L6 53V22L30 18.4318Z" fill="#00B4E2"/>
</g>
<g id="64/chard/letter/a">
<path id="N" fill-rule="evenodd" clip-rule="evenodd" d="M10.5361 46V29.2H13.9441L21.8161 39.544V29.2H25.4641V46H22.3201L14.1841 35.32V46H10.5361Z" fill="white"/>
</g>
</g>
</svg>
