<svg width="32" height="32" viewBox="0 0 32 32" fill="none" xmlns="http://www.w3.org/2000/svg">
<g id="m/mime_video_avi/mime_video_avi_32x32">
<g id="32/baseshape">
<g id="32/baseshape_2">
<path id="OutsideBorder" d="M29 30C29 30.5523 28.5523 31 28 31H7C6.44772 31 6 30.5523 6 30V2C6 1.44772 6.44772 1 7 1H22L29 9V30Z" fill="#ECF0F4"/>
</g>
<path id="Shape" d="M14.5 25C14.4 25 14.3 25 14.3 24.8918C14.1 24.8918 14 24.6755 14 24.4592V11.4807C14 11.2644 14.1 11.0481 14.3 11.0481C14.5 11.0481 14.7 10.9399 14.8 11.0481L23.8 17.5373C23.9 17.6455 24 17.7536 24 17.97C24 18.1863 23.9 18.2944 23.8 18.4026L14.8 24.8918C14.7 25 14.6 25 14.5 25Z" fill="#91A0AF"/>
</g>
<g id="32/corner">
<path id="InsideWhite" fill-rule="evenodd" clip-rule="evenodd" d="M22 1L29 9H22V1Z" fill="#D8E0E8"/>
</g>
<g id="64/chard/color/yellow">
<path id="Shape_2" d="M7 9.5V28L16 29.5V8L7 9.5Z" fill="#ECF0F4"/>
<path id="Chard" d="M15 9.2159V28.3182L3 26.5V11L15 9.2159Z" fill="#EC0000"/>
</g>
<g id="64/chard/letter/a">
<path id="A" fill-rule="evenodd" clip-rule="evenodd" d="M4.54785 23L8.14785 14.54H9.85185L13.4519 23H11.5199L10.7519 21.116H7.19985L6.43185 23H4.54785ZM7.85984 19.484H10.0918L8.97584 16.76L7.85984 19.484Z" fill="white"/>
</g>
</g>
</svg>
