<svg width="16" height="16" viewBox="0 0 16 16" fill="none" xmlns="http://www.w3.org/2000/svg">
<g id="m/mime_video_avi/mime_video_avi_16x16">
<g id="16/baseshape">
<g id="16/baseshape_2">
<path id="OutsideBorder" d="M3 0V16H16V4L12 0H3Z" fill="#ECF0F4"/>
</g>
<path id="Shape" d="M8.25 13C8.2 13 8.15 13 8.15 12.9459C8.05 12.9459 8 12.8378 8 12.7296V6.24034C8 6.13219 8.05 6.02403 8.15 6.02403C8.25 6.02403 8.35 5.96996 8.4 6.02403L12.9 9.26867C12.95 9.32275 13 9.37682 13 9.48498C13 9.59313 12.95 9.64721 12.9 9.70129L8.4 12.9459C8.35 13 8.3 13 8.25 13Z" fill="#91A0AF"/>
</g>
<g id="16/corner">
<path id="InsideWhite" d="M12 4V0V0L16 4V4H12Z" fill="#D8E0E8"/>
</g>
<g id="16/chard/color/aqua">
<path id="Shape_2" fill-rule="evenodd" clip-rule="evenodd" d="M4 2.66077V14.2205L8 15V2L4 2.66077Z" fill="#ECF0F4"/>
<path id="Chard" fill-rule="evenodd" clip-rule="evenodd" d="M0 4L7 3V14L0 12.9V4Z" fill="#EC0000"/>
</g>
<g id="16/chard/letter/a">
<path id="A" fill-rule="evenodd" clip-rule="evenodd" d="M1.02637 10.5L3.02637 5.8H3.97303L5.97303 10.5H4.8997L4.47303 9.45333H2.4997L2.07303 10.5H1.02637ZM2.86637 8.54667H4.10637L3.48637 7.03333L2.86637 8.54667Z" fill="white"/>
</g>
</g>
</svg>
