<svg width="24" height="24" viewBox="0 0 24 24" fill="none" xmlns="http://www.w3.org/2000/svg">
<g id="m/mime_web_html/mime_web_html_24x24">
<g id="24/baseshape">
<g id="24/baseshape_2">
<path id="OutsideBorder" fill-rule="evenodd" clip-rule="evenodd" d="M24 22.4998C24 22.776 23.7724 23 23.4998 23H6.50021C6.22395 23 6 22.7823 6 22.4992V1.50084C6 1.22423 6.21991 1 6.49827 1H20L24 5V22.4998Z" fill="#ECF0F4"/>
</g>
<path id="Shape" fill-rule="evenodd" clip-rule="evenodd" d="M9 14C9 10.6862 11.6862 8 15 8C18.3138 8 21 10.6862 21 14C21 17.3138 18.3138 20 15 20C11.6862 20 9 17.3138 9 14ZM9.46154 14C9.46154 17.054 11.946 19.5385 15 19.5385C18.054 19.5385 20.5385 17.054 20.5385 14C20.5385 10.9469 18.0554 8.46292 15.0023 8.46154C15.1677 8.66525 15.5378 8.92877 15.8549 9.15461C16.0306 9.27977 16.1901 9.39335 16.2895 9.47877C16.5603 9.71035 15.9951 10.0197 15.4241 10.3322C15.2816 10.4102 15.1387 10.4884 15.0083 10.5657C14.6097 10.8019 14.4635 11.3719 14.3716 11.7302C14.313 11.9585 14.2765 12.1009 14.2108 12.0163C14.0418 11.7989 12.93 10.3728 12.7126 11.8709C12.5409 13.0553 12.9416 12.8364 13.2491 12.6684C13.3309 12.6236 13.4061 12.5826 13.4622 12.5725C13.7271 12.524 13.7031 12.7903 13.6066 13.0317C13.5092 13.2726 14.718 13.6118 15.1048 13.6598C15.2393 13.6765 15.3767 13.6233 15.522 13.567C15.795 13.4612 16.096 13.3445 16.4589 13.6598C17.0142 14.1426 18.3914 14.5783 19.0689 14.7472C19.5855 14.8766 19.327 15.414 19.0684 15.9517C18.9883 16.1182 18.9082 16.2848 18.8511 16.4392C18.6692 16.9294 17.5348 17.9775 16.4174 18.4797C16.0592 18.5854 15.6845 18.6491 15.2982 18.6731C15.3067 18.5749 15.3755 18.3997 15.4576 18.1904C15.6759 17.634 15.9886 16.8369 15.516 16.6082C14.7665 16.2458 14.7665 15.3025 14.8394 14.6258C14.8818 14.2326 14.5319 14.0924 13.866 13.8256C13.3863 13.6334 12.7426 13.3754 11.9635 12.9098C11.0409 12.3592 10.956 10.4891 11.3788 9.81892C10.2069 10.8352 9.46154 12.3311 9.46154 14Z" fill="#91A0AF"/>
</g>
<g id="24/corner">
<path id="InsideWhite" fill-rule="evenodd" clip-rule="evenodd" d="M20 1L24 5H20V1Z" fill="#D8E0E8"/>
</g>
<g id="24/chard/color/yellow">
<path id="Shape_2" d="M7 6V21L12 22V5L7 6Z" fill="#ECF0F4"/>
<path id="Chard" fill-rule="evenodd" clip-rule="evenodd" d="M11 6V21L1 19.5V7.5L11 6Z" fill="#474744"/>
</g>
<g id="24/chard/letter/z">
<path id="H" fill-rule="evenodd" clip-rule="evenodd" d="M3.04004 17V10H4.58004V12.77H7.42004V10H8.96004V17H7.42004V14.19H4.58004V17H3.04004Z" fill="white"/>
</g>
</g>
</svg>
