<svg width="32" height="32" viewBox="0 0 32 32" fill="none" xmlns="http://www.w3.org/2000/svg">
<g id="m/mime_web_html/mime_web_html_32x32">
<g id="32/baseshape">
<g id="32/baseshape_2">
<path id="OutsideBorder" d="M29 30C29 30.5523 28.5523 31 28 31H7C6.44772 31 6 30.5523 6 30V2C6 1.44772 6.44772 1 7 1H22L29 9V30Z" fill="#ECF0F4"/>
</g>
<path id="Shape" fill-rule="evenodd" clip-rule="evenodd" d="M9 18.5C9 13.8054 12.8054 10 17.5 10C22.1946 10 26 13.8054 26 18.5C26 23.1946 22.1946 27 17.5 27C12.8054 27 9 23.1946 9 18.5ZM9.65385 18.5C9.65385 22.8265 13.1735 26.3462 17.5 26.3462C21.8265 26.3462 25.3462 22.8265 25.3462 18.5C25.3462 14.1748 21.8285 10.6558 17.5033 10.6538C17.7376 10.9424 18.2618 11.3158 18.7111 11.6357C18.9601 11.813 19.186 11.9739 19.3268 12.0949C19.7104 12.423 18.9098 12.8612 18.1008 13.3039C17.8989 13.4145 17.6965 13.5253 17.5118 13.6347C16.9471 13.9694 16.74 14.7768 16.6098 15.2845C16.5268 15.6079 16.4751 15.8096 16.3819 15.6898C16.1426 15.3818 14.5675 13.3614 14.2595 15.4838C14.0163 17.1617 14.5839 16.8515 15.0195 16.6135C15.1354 16.5502 15.242 16.4919 15.3214 16.4777C15.6967 16.409 15.6627 16.7863 15.526 17.1282C15.3881 17.4695 17.1005 17.9501 17.6484 18.0181C17.839 18.0417 18.0336 17.9663 18.2395 17.8865C18.6262 17.7367 19.0527 17.5714 19.5668 18.0181C20.3534 18.702 22.3045 19.3193 23.2643 19.5586C23.9961 19.7418 23.6299 20.5032 23.2636 21.2649C23.1501 21.5008 23.0366 21.7368 22.9557 21.9556C22.6981 22.65 21.0909 24.1348 19.508 24.8462C19.0006 24.996 18.4697 25.0862 17.9224 25.1202C17.9345 24.9811 18.0319 24.7329 18.1482 24.4364C18.4575 23.6481 18.9005 22.5189 18.231 22.1949C17.1692 21.6816 17.1692 20.3452 17.2725 19.3866C17.3325 18.8295 16.8368 18.6308 15.8935 18.2529C15.214 17.9806 14.3021 17.6152 13.1983 16.9556C11.8913 16.1756 11.771 13.5262 12.3699 12.5768C10.7098 14.0166 9.65385 16.1357 9.65385 18.5Z" fill="#91A0AF"/>
</g>
<g id="32/corner">
<path id="InsideWhite" fill-rule="evenodd" clip-rule="evenodd" d="M22 1L29 9H22V1Z" fill="#D8E0E8"/>
</g>
<g id="64/chard/color/yellow">
<path id="Shape_2" d="M7 9.5V28L16 29.5V8L7 9.5Z" fill="#ECF0F4"/>
<path id="Chard" fill-rule="evenodd" clip-rule="evenodd" d="M15 9.2159V28.3182L3 26.5V11L15 9.2159Z" fill="#474744"/>
</g>
<g id="64/chard/letter/a">
<path id="H" fill-rule="evenodd" clip-rule="evenodd" d="M5.44824 23V14.6H7.29624V17.924H10.7042V14.6H12.5522V23H10.7042V19.628H7.29624V23H5.44824Z" fill="white"/>
</g>
</g>
</svg>
