<svg width="16" height="16" viewBox="0 0 16 16" fill="none" xmlns="http://www.w3.org/2000/svg">
<g id="m/mime_web_html/mime_web_html_16x16">
<g id="16/baseshape">
<g id="16/baseshape_2">
<path id="OutsideBorder" d="M3 0V16H16V4L12 0H3Z" fill="#ECF0F4"/>
</g>
<path id="Shape" fill-rule="evenodd" clip-rule="evenodd" d="M5 9.5C5 7.01462 7.01462 5 9.5 5C11.9854 5 14 7.01462 14 9.5C14 11.9854 11.9854 14 9.5 14C7.01462 14 5 11.9854 5 9.5ZM5.34615 9.5C5.34615 11.7905 7.2095 13.6538 9.5 13.6538C11.7905 13.6538 13.6538 11.7905 13.6538 9.5C13.6538 7.21019 11.7915 5.34719 9.50173 5.34615C9.62579 5.49894 9.90332 5.69658 10.1412 5.86596C10.273 5.95983 10.3926 6.04501 10.4672 6.10908C10.6702 6.28276 10.2464 6.51474 9.81809 6.74915C9.71119 6.80766 9.60401 6.86632 9.50623 6.92427C9.20726 7.10145 9.09762 7.52892 9.02869 7.79766C8.98478 7.96889 8.95738 8.07568 8.90808 8.01223C8.78138 7.84919 7.9475 6.77958 7.78446 7.90319C7.65569 8.79147 7.95621 8.62726 8.1868 8.50126C8.24816 8.46774 8.30456 8.43691 8.34662 8.42935C8.54531 8.393 8.52731 8.59273 8.45496 8.77377C8.38192 8.95446 9.2885 9.20888 9.57858 9.24488C9.67948 9.25739 9.78251 9.21746 9.89151 9.17522C10.0962 9.09588 10.322 9.00838 10.5942 9.24488C11.0106 9.60696 12.0435 9.93373 12.5517 10.0604C12.9391 10.1574 12.7452 10.5605 12.5513 10.9637C12.4912 11.0887 12.4311 11.2136 12.3883 11.3294C12.2519 11.697 11.4011 12.4832 10.563 12.8598C10.2944 12.939 10.0133 12.9868 9.72362 13.0048C9.73005 12.9312 9.78161 12.7998 9.84319 12.6428C10.0069 12.2255 10.2414 11.6277 9.887 11.4561C9.32485 11.1844 9.32485 10.4768 9.37954 9.96938C9.41133 9.67443 9.14889 9.56927 8.64952 9.36918C8.28974 9.22502 7.80697 9.03158 7.22265 8.68238C6.53069 8.26942 6.467 6.86681 6.78408 6.36419C5.90519 7.12642 5.34615 8.24831 5.34615 9.5Z" fill="#91A0AF"/>
</g>
<g id="16/corner">
<path id="InsideWhite" d="M12 4V0V0L16 4V4H12Z" fill="#D8E0E8"/>
</g>
<g id="16/chard/color/aqua">
<path id="Shape_2" fill-rule="evenodd" clip-rule="evenodd" d="M4 2.66077V14.2205L8 15V2L4 2.66077Z" fill="#ECF0F4"/>
<path id="Chard" fill-rule="evenodd" clip-rule="evenodd" d="M0 4L7 3V14L0 12.9V4Z" fill="#474744"/>
</g>
<g id="16/chard/letter/a">
<path id="H" fill-rule="evenodd" clip-rule="evenodd" d="M1.52637 10.5V5.83333H2.55303V7.68H4.44637V5.83333H5.47303V10.5H4.44637V8.62667H2.55303V10.5H1.52637Z" fill="white"/>
</g>
</g>
</svg>
