<svg width="128" height="128" viewBox="0 0 128 128" fill="none" xmlns="http://www.w3.org/2000/svg">
<g id="m/mime_web_html/mime_web_html_128x128">
<g id="64/baseshape">
<g id="64/baseshape_2">
<path id="OutsideBorder" d="M116 120C116 122.209 114.209 124 112 124H30C27.7909 124 26 122.209 26 120V8C26 5.79086 27.7909 4 30 4H88L116 34V120Z" fill="#ECF0F4"/>
</g>
<path id="Shape" fill-rule="evenodd" clip-rule="evenodd" d="M36 74.8636C36 55.6082 51.52 40 70.6667 40C89.8133 40 105.333 55.6082 105.333 74.8636C105.333 94.1191 89.8133 109.727 70.6667 109.727C51.52 109.727 36 94.1191 36 74.8636ZM38.6667 74.8636C38.6667 92.6092 53.0214 107.045 70.6667 107.045C88.312 107.045 102.667 92.6092 102.667 74.8636C102.667 57.1234 88.32 42.6899 70.68 42.6818C71.6357 43.8655 73.7737 45.3967 75.606 46.709C76.6215 47.4362 77.543 48.0962 78.1174 48.5925C79.6816 49.9382 76.4164 51.7354 73.1172 53.5515C72.2936 54.0048 71.4679 54.4593 70.7147 54.9082C68.4115 56.2809 67.5669 59.5927 67.0359 61.6748C66.6976 63.0014 66.4866 63.8288 66.1067 63.3372C65.1307 62.074 58.7067 53.7872 57.4507 62.4924C56.4587 69.3744 58.7738 68.1021 60.5502 67.126C61.0229 66.8662 61.4574 66.6274 61.7814 66.5688C63.312 66.2872 63.1734 67.8346 62.616 69.2372C62.0534 70.6371 69.0374 72.6082 71.272 72.8871C72.0494 72.984 72.8431 72.6747 73.6828 72.3474C75.2599 71.7327 76.9991 71.0548 79.096 72.8871C82.304 75.6923 90.2614 78.224 94.176 79.2055C97.1608 79.957 95.6671 83.0799 94.173 86.204C93.7101 87.1717 93.2472 88.1396 92.9174 89.0371C91.8667 91.8851 85.312 97.9756 78.856 100.893C76.7867 101.508 74.6214 101.878 72.3894 102.017C72.4389 101.447 72.8362 100.428 73.3105 99.2123C74.5717 95.9791 76.3784 91.3477 73.648 90.0186C69.3174 87.9134 69.3174 82.4317 69.7387 78.5002C69.9836 76.215 67.9618 75.4003 64.1149 73.8501C61.3432 72.7333 57.6241 71.2346 53.1227 68.5292C47.792 65.3298 47.3014 54.463 49.744 50.569C42.9734 56.4744 38.6667 65.1662 38.6667 74.8636Z" fill="#91A0AF"/>
</g>
<g id="64/corner">
<path id="InsideWhite" fill-rule="evenodd" clip-rule="evenodd" d="M88 34V4L116 34H88Z" fill="#D8E0E8"/>
</g>
<g id="64/chard/color/yellow">
<path id="Shape_2" d="M28 38V112L64 118V32L28 38Z" fill="#ECF0F4"/>
<path id="Chard" fill-rule="evenodd" clip-rule="evenodd" d="M60 36.8636V113.273L12 106V44L60 36.8636Z" fill="#474744"/>
</g>
<g id="64/chard/letter/a">
<path id="H" fill-rule="evenodd" clip-rule="evenodd" d="M21.792 92V58.4H29.184V71.696H42.816V58.4H50.208V92H42.816V78.512H29.184V92H21.792Z" fill="white"/>
</g>
</g>
</svg>
