<svg width="48" height="48" viewBox="0 0 48 48" fill="none" xmlns="http://www.w3.org/2000/svg">
<g id="m/mime_text_odt/mime_text_odt_48x48">
<g id="48/baseshape">
<g id="48/baseshape_2">
<path id="OutsideBorder" d="M44 44C44 45.1046 43.1046 46 42 46H12C10.8954 46 10 45.1046 10 44V4C10 2.89543 10.8954 2 12 2H34L44 12V44Z" fill="#ECF0F4"/>
</g>
<path id="Combined Shape" fill-rule="evenodd" clip-rule="evenodd" d="M14 9H35V11H14V9ZM14 14H40V16H14V14ZM40 19H14V21H40V19ZM14 29H40V31H14V29ZM40 24H14V26H40V24ZM14 39H40V41H14V39ZM40 34H14V36H40V34Z" fill="#91A0AF"/>
</g>
<g id="48/corner">
<path id="InsideWhite" fill-rule="evenodd" clip-rule="evenodd" d="M34 2L44 12H34V2Z" fill="#D8E0E8"/>
</g>
<g id="24/chard/color/yellow">
<path id="Shape" d="M14 12V42L24 44V10L14 12Z" fill="#ECF0F4"/>
<path id="Chard" fill-rule="evenodd" clip-rule="evenodd" d="M22 12V42L2 39V15L22 12Z" fill="#2B579A"/>
</g>
<g id="24/chard/letter/z">
<path id="O" fill-rule="evenodd" clip-rule="evenodd" d="M11.9796 34.24C7.65957 34.24 4.55957 31.02 4.55957 27.04V27C4.55957 23.02 7.69957 19.76 12.0196 19.76C16.3396 19.76 19.4396 22.98 19.4396 26.96V27C19.4396 30.98 16.2996 34.24 11.9796 34.24ZM12.0196 31.4C14.4996 31.4 16.2196 29.44 16.2196 27.04V27C16.2196 24.6 14.4596 22.6 11.9796 22.6C9.49956 22.6 7.77956 24.56 7.77956 26.96V27C7.77956 29.4 9.53956 31.4 12.0196 31.4Z" fill="white"/>
</g>
</g>
</svg>
