<svg width="16" height="16" viewBox="0 0 16 16" fill="none" xmlns="http://www.w3.org/2000/svg">
<g id="m/mime_text_odt/mime_text_odt_16x16">
<g id="16/baseshape">
<g id="16/baseshape_2">
<path id="OutsideBorder" d="M3 0V16H16V4L12 0H3Z" fill="#ECF0F4"/>
</g>
<path id="Combined Shape" fill-rule="evenodd" clip-rule="evenodd" d="M12 3H5V4H12V3ZM14 5H5V6H14V5ZM5 7H14V8H5V7ZM14 9H5V10H14V9ZM5 11H14V12H5V11ZM14 13H5V14H14V13Z" fill="#91A0AF"/>
</g>
<g id="16/corner">
<path id="InsideWhite" d="M12 4V0V0L16 4V4H12Z" fill="#D8E0E8"/>
</g>
<g id="16/chard/color/aqua">
<path id="Shape" fill-rule="evenodd" clip-rule="evenodd" d="M4 2.66077V14.2205L8 15V2L4 2.66077Z" fill="#ECF0F4"/>
<path id="Chard" fill-rule="evenodd" clip-rule="evenodd" d="M0 4L7 3V14L0 12.9V4Z" fill="#2B579A"/>
</g>
<g id="16/chard/letter/a">
<path id="O" fill-rule="evenodd" clip-rule="evenodd" d="M3.49286 10.58C2.05286 10.58 1.01953 9.50667 1.01953 8.18V8.16667C1.01953 6.84 2.0662 5.75333 3.5062 5.75333C4.9462 5.75333 5.97953 6.82667 5.97953 8.15333V8.16667C5.97953 9.49333 4.93286 10.58 3.49286 10.58ZM3.5062 9.63333C4.33286 9.63333 4.9062 8.98 4.9062 8.18V8.16667C4.9062 7.36667 4.31953 6.7 3.49286 6.7C2.6662 6.7 2.09286 7.35333 2.09286 8.15333V8.16667C2.09286 8.96667 2.67953 9.63333 3.5062 9.63333Z" fill="white"/>
</g>
</g>
</svg>
