<svg width="32" height="32" viewBox="0 0 32 32" fill="none" xmlns="http://www.w3.org/2000/svg">
<g id="m/mime_ttf/mime_ttf_32x32">
<g id="32/baseshape">
<g id="32/baseshape_2">
<path id="OutsideBorder" d="M29 30C29 30.5523 28.5523 31 28 31H7C6.44772 31 6 30.5523 6 30V2C6 1.44772 6.44772 1 7 1H22L29 9V30Z" fill="#ECF0F4"/>
</g>
<path id="A" fill-rule="evenodd" clip-rule="evenodd" d="M19.5973 19.3859L20.9802 23.7923C21.2316 24.57 21.3888 25.1532 21.3888 25.5096C21.3888 25.8336 20.9488 26.028 20.2887 26.0928L19.3773 26.19C19.1573 26.352 19.1887 26.8704 19.4401 27C19.6342 26.9931 19.841 26.9847 20.061 26.9758C20.8743 26.9429 21.8671 26.9028 23.0546 26.9028C24.4689 26.9028 25.569 26.9352 26.8576 27C27.0147 26.8704 27.0776 26.352 26.8576 26.19L26.009 26.0928C24.6575 25.9308 24.2489 25.4448 23.3374 22.6583L19.0316 9.63328C18.9749 9.46195 18.9178 9.28967 18.8604 9.11669C18.4406 7.85034 18.0081 6.54589 17.6486 5.29161C17.5858 5.0648 17.3658 5 17.1772 5C16.8315 5.42121 16.2972 6.00442 15.5428 6.23122C15.6371 6.74963 15.4485 7.36524 15.0085 8.53166L11.8027 17.2798C10.8895 19.7903 10.1868 21.5719 9.65316 22.9251C9.41541 23.528 9.2112 24.0458 9.03684 24.5052C8.59683 25.6716 7.90537 26.028 7.15105 26.0928L6.11386 26.19C5.92528 26.352 5.98814 26.8704 6.17672 27C6.3868 26.992 6.61422 26.982 6.85325 26.9715C7.57976 26.9395 8.41357 26.9028 9.19399 26.9028C9.57407 26.9111 9.92085 26.9173 10.2402 26.923C11.1622 26.9395 11.8558 26.9519 12.4627 27C12.7456 26.8704 12.7456 26.352 12.5256 26.19L11.4884 26.0928C10.7341 26.028 10.5769 25.8336 10.5769 25.4448C10.5769 25.0884 10.7969 24.2136 11.2684 22.7555L12.3684 19.3535C12.5884 18.673 12.777 18.5758 13.5627 18.5758H18.3087C19.2516 18.5758 19.3773 18.673 19.5973 19.3859ZM13.3742 16.5022L15.3543 10.8645C15.7 9.89249 16.0143 9.11487 16.1086 8.95287H16.1714C16.36 9.34168 16.6429 10.2165 16.8943 10.9941L18.5915 16.2754C18.8744 17.1502 18.8115 17.2798 17.9001 17.2798H14.0342C13.1542 17.2798 13.1227 17.2474 13.3742 16.5022Z" fill="#91A0AF"/>
</g>
<g id="32/corner">
<path id="InsideWhite" fill-rule="evenodd" clip-rule="evenodd" d="M22 1L29 9H22V1Z" fill="#D8E0E8"/>
</g>
<g id="64/chard/color/yellow">
<path id="Shape" d="M7 9.5V28L16 29.5V8L7 9.5Z" fill="#ECF0F4"/>
<path id="Chard" fill-rule="evenodd" clip-rule="evenodd" d="M15 9.2159V28.3182L3 26.5V11L15 9.2159Z" fill="#474744"/>
</g>
<g id="64/chard/letter/a">
<path id="T" fill-rule="evenodd" clip-rule="evenodd" d="M8.07553 23V16.304H5.51953V14.6H12.4795V16.304H9.92353V23H8.07553Z" fill="white"/>
</g>
</g>
</svg>
