<svg width="16" height="16" viewBox="0 0 16 16" fill="none" xmlns="http://www.w3.org/2000/svg">
<g id="m/mime_ttf/mime_ttf_16x16">
<g id="16/baseshape">
<g id="16/baseshape_2">
<path id="OutsideBorder" d="M3 0V16H16V4L12 0H3Z" fill="#ECF0F4"/>
</g>
<path id="A" fill-rule="evenodd" clip-rule="evenodd" d="M10.6224 9.19293L11.3468 11.3962C11.4785 11.785 11.5608 12.0766 11.5608 12.2548C11.5608 12.4168 11.3303 12.514 10.9846 12.5464L10.5071 12.595C10.3919 12.676 10.4084 12.9352 10.5401 13C10.6417 12.9966 10.75 12.9924 10.8653 12.9879C11.2913 12.9715 11.8113 12.9514 12.4334 12.9514C13.1742 12.9514 13.7504 12.9676 14.4254 13C14.5077 12.9352 14.5407 12.676 14.4254 12.595L13.9809 12.5464C13.273 12.4654 13.059 12.2224 12.5815 10.8292L10.3261 4.31664C10.2964 4.23097 10.2665 4.14483 10.2364 4.05833C10.0165 3.42516 9.78997 2.77294 9.60167 2.1458C9.56874 2.0324 9.4535 2 9.35472 2C9.17362 2.2106 8.89375 2.50221 8.49863 2.61561C8.54802 2.87482 8.44924 3.18262 8.21875 3.76583L6.5395 8.13991C6.06114 9.39514 5.6931 10.286 5.41356 10.9626C5.28903 11.264 5.18206 11.5229 5.09073 11.7526C4.86024 12.3358 4.49805 12.514 4.10293 12.5464L3.55964 12.595C3.46086 12.676 3.49379 12.9352 3.59257 13C3.70261 12.996 3.82173 12.991 3.94694 12.9857C4.3275 12.9697 4.76425 12.9514 5.17304 12.9514C5.37213 12.9556 5.55378 12.9587 5.72107 12.9615C6.20399 12.9697 6.56731 12.9759 6.88523 13C7.03339 12.9352 7.03339 12.676 6.91815 12.595L6.37486 12.5464C5.97974 12.514 5.89743 12.4168 5.89743 12.2224C5.89743 12.0442 6.01267 11.6068 6.25962 10.8778L6.83584 9.17673C6.95108 8.83652 7.04986 8.78792 7.46144 8.78792H9.9474C10.4413 8.78792 10.5071 8.83652 10.6224 9.19293ZM7.36266 7.7511L8.39985 4.93225C8.58094 4.44624 8.74558 4.05744 8.79497 3.97644H8.82789C8.92667 4.17084 9.07484 4.60825 9.20655 4.99705L10.0956 7.6377C10.2437 8.07511 10.2108 8.13991 9.73337 8.13991H7.70839C7.24742 8.13991 7.23095 8.12371 7.36266 7.7511Z" fill="#91A0AF"/>
</g>
<g id="16/corner">
<path id="InsideWhite" d="M12 4V0V0L16 4V4H12Z" fill="#D8E0E8"/>
</g>
<g id="16/chard/color/aqua">
<path id="Shape" fill-rule="evenodd" clip-rule="evenodd" d="M4 2.66077V14.2205L8 15V2L4 2.66077Z" fill="#ECF0F4"/>
<path id="Chard" fill-rule="evenodd" clip-rule="evenodd" d="M0 4L7 3V14L0 12.9V4Z" fill="#474744"/>
</g>
<g id="16/chard/letter/a">
<path id="T" fill-rule="evenodd" clip-rule="evenodd" d="M2.98641 10.5V6.78H1.56641V5.83333H5.43307V6.78H4.01307V10.5H2.98641Z" fill="white"/>
</g>
</g>
</svg>
