<svg width="48" height="48" viewBox="0 0 48 48" fill="none" xmlns="http://www.w3.org/2000/svg">
<g id="m/mime_ttf/mime_ttf_48x48">
<g id="48/baseshape">
<g id="48/baseshape_2">
<path id="OutsideBorder" d="M44 44C44 45.1046 43.1046 46 42 46H12C10.8954 46 10 45.1046 10 44V4C10 2.89543 10.8954 2 12 2H34L44 12V44Z" fill="#ECF0F4"/>
</g>
<path id="A" fill-rule="evenodd" clip-rule="evenodd" d="M31.4247 28.9249L33.4003 35.3343C33.7595 36.4654 33.984 37.3137 33.984 37.8321C33.984 38.3034 33.3554 38.5862 32.4125 38.6804L31.1104 38.8218C30.7961 39.0574 30.841 39.8115 31.2002 40C31.4774 39.99 31.7728 39.9778 32.087 39.9649C33.249 39.917 34.6672 39.8586 36.3637 39.8586C38.3842 39.8586 39.9557 39.9057 41.7966 40C42.0211 39.8115 42.1109 39.0574 41.7966 38.8218L40.5843 38.6804C38.6536 38.4448 38.0699 37.7378 36.7678 33.6848L30.6165 14.7393C30.5356 14.4901 30.454 14.2395 30.372 13.9879C29.7723 12.1459 29.1545 10.2486 28.6409 8.42415C28.5511 8.09426 28.2368 8 27.9674 8C27.4735 8.61267 26.7102 9.46097 25.6326 9.79087C25.7673 10.5449 25.4979 11.4404 24.8693 13.137L20.2895 25.8616C18.9849 29.5131 17.9812 32.1046 17.2188 34.0729C16.8792 34.9498 16.5874 35.703 16.3383 36.3711C15.7098 38.0677 14.722 38.5862 13.6444 38.6804L12.1627 38.8218C11.8933 39.0574 11.9831 39.8115 12.2525 40C12.5526 39.9883 12.8774 39.9738 13.2189 39.9585C14.2568 39.912 15.4479 39.8586 16.5628 39.8586C17.1058 39.8707 17.6013 39.8797 18.0576 39.888C19.3746 39.912 20.3654 39.93 21.2324 40C21.6365 39.8115 21.6365 39.0574 21.3222 38.8218L19.8405 38.6804C18.7629 38.5862 18.5384 38.3034 18.5384 37.7379C18.5384 37.2194 18.8527 35.947 19.5262 33.8262L21.0977 28.8778C21.412 27.8881 21.6814 27.7467 22.8039 27.7467H29.5838C30.9308 27.7467 31.1104 27.8881 31.4247 28.9249ZM22.5345 24.7305L25.3632 16.5302C25.8571 15.1163 26.3061 13.9853 26.4408 13.7496H26.5306C26.8 14.3152 27.2041 15.5876 27.5633 16.7187L29.9879 24.4006C30.392 25.673 30.3022 25.8616 29.0001 25.8616H23.4774C22.2202 25.8616 22.1753 25.8144 22.5345 24.7305Z" fill="#91A0AF"/>
</g>
<g id="48/corner">
<path id="InsideWhite" fill-rule="evenodd" clip-rule="evenodd" d="M34 2L44 12H34V2Z" fill="#D8E0E8"/>
</g>
<g id="24/chard/color/yellow">
<path id="Shape" d="M14 12V42L24 44V10L14 12Z" fill="#ECF0F4"/>
<path id="Chard" fill-rule="evenodd" clip-rule="evenodd" d="M22 12V42L2 39V15L22 12Z" fill="#474744"/>
</g>
<g id="24/chard/letter/z">
<path id="T" fill-rule="evenodd" clip-rule="evenodd" d="M10.4602 34V22.84H6.2002V20H17.8002V22.84H13.5402V34H10.4602Z" fill="white"/>
</g>
</g>
</svg>
