<svg width="24" height="24" viewBox="0 0 24 24" fill="none" xmlns="http://www.w3.org/2000/svg">
<g id="m/mime_ttf/mime_ttf_24x24">
<g id="24/baseshape">
<g id="24/baseshape_2">
<path id="OutsideBorder" fill-rule="evenodd" clip-rule="evenodd" d="M24 22.4998C24 22.776 23.7724 23 23.4998 23H6.50021C6.22395 23 6 22.7823 6 22.4992V1.50084C6 1.22423 6.21991 1 6.49827 1H20L24 5V22.4998Z" fill="#ECF0F4"/>
</g>
<path id="A" fill-rule="evenodd" clip-rule="evenodd" d="M17.2123 14.4624L18.2001 17.6672C18.3797 18.2327 18.492 18.6568 18.492 18.9161C18.492 19.1517 18.1777 19.2931 17.7062 19.3402L17.0552 19.4109C16.8981 19.5287 16.9205 19.9057 17.1001 20C17.2387 19.995 17.3864 19.9889 17.5435 19.9824C18.1245 19.9585 18.8336 19.9293 19.6818 19.9293C20.6921 19.9293 21.4778 19.9529 22.3983 20C22.5105 19.9057 22.5554 19.5287 22.3983 19.4109L21.7921 19.3402C20.8268 19.2224 20.5349 18.8689 19.8839 16.8424L16.8083 7.36966C16.7678 7.24505 16.727 7.11976 16.686 6.99395C16.3861 6.07297 16.0772 5.12428 15.8205 4.21208C15.7756 4.04713 15.6184 4 15.4837 4C15.2368 4.30633 14.8551 4.73049 14.3163 4.89543C14.3837 5.27246 14.249 5.72018 13.9347 6.56848L11.6448 12.9308C10.9925 14.7566 10.4906 16.0523 10.1094 17.0365C9.93958 17.4749 9.79372 17.8515 9.66917 18.1856C9.35488 19.0339 8.86098 19.2931 8.32218 19.3402L7.58133 19.4109C7.44663 19.5287 7.49153 19.9057 7.62623 20C7.77628 19.9942 7.9387 19.9869 8.10943 19.9792C8.62838 19.956 9.22397 19.9293 9.78142 19.9293C10.0529 19.9354 10.3006 19.9399 10.5288 19.944C11.1873 19.956 11.6827 19.965 12.1162 20C12.3183 19.9057 12.3183 19.5287 12.1611 19.4109L11.4203 19.3402C10.8815 19.2931 10.7692 19.1517 10.7692 18.8689C10.7692 18.6097 10.9264 17.9735 11.2631 16.9131L12.0489 14.4389C12.206 13.944 12.3407 13.8733 12.902 13.8733H16.2919C16.9654 13.8733 17.0552 13.944 17.2123 14.4624ZM12.7673 12.3652L14.1816 8.2651C14.4286 7.55817 14.6531 6.99264 14.7204 6.87482H14.7653C14.9 7.15758 15.1021 7.79381 15.2817 8.35935L16.494 12.2003C16.696 12.8365 16.6511 12.9308 16.0001 12.9308H13.2387C12.6101 12.9308 12.5877 12.9072 12.7673 12.3652Z" fill="#91A0AF"/>
</g>
<g id="24/corner">
<path id="InsideWhite" fill-rule="evenodd" clip-rule="evenodd" d="M20 1L24 5H20V1Z" fill="#D8E0E8"/>
</g>
<g id="24/chard/color/yellow">
<path id="Shape" d="M7 6V21L12 22V5L7 6Z" fill="#ECF0F4"/>
<path id="Chard" fill-rule="evenodd" clip-rule="evenodd" d="M11 6V21L1 19.5V7.5L11 6Z" fill="#474744"/>
</g>
<g id="24/chard/letter/z">
<path id="T" fill-rule="evenodd" clip-rule="evenodd" d="M5.22961 17V11.42H3.09961V10H8.89961V11.42H6.76961V17H5.22961Z" fill="white"/>
</g>
</g>
</svg>
