<svg width="128" height="128" viewBox="0 0 128 128" fill="none" xmlns="http://www.w3.org/2000/svg">
<g id="m/mime_ttf/mime_ttf_128x128">
<g id="64/baseshape">
<g id="64/baseshape_2">
<path id="OutsideBorder" d="M116 120C116 122.209 114.209 124 112 124H30C27.7909 124 26 122.209 26 120V8C26 5.79086 27.7909 4 30 4H88L116 34V120Z" fill="#ECF0F4"/>
</g>
<path id="A" fill-rule="evenodd" clip-rule="evenodd" d="M81.3757 78.832L87.0077 96.24C88.0317 99.312 88.6717 101.616 88.6717 103.024C88.6717 104.304 86.8797 105.072 84.1917 105.328L80.4797 105.712C79.5837 106.352 79.7117 108.4 80.7357 108.912C81.5259 108.885 82.3682 108.852 83.264 108.817C86.5765 108.687 90.6196 108.528 95.4557 108.528C101.216 108.528 105.696 108.656 110.944 108.912C111.584 108.4 111.84 106.352 110.944 105.712L107.488 105.328C101.984 104.688 100.32 102.768 96.6077 91.76L79.0717 40.304C78.8409 39.6271 78.6083 38.9464 78.3747 38.2629C76.6649 33.2603 74.9037 28.1071 73.4397 23.152C73.1837 22.256 72.2877 22 71.5197 22C70.1117 23.664 67.9357 25.968 64.8637 26.864C65.2477 28.912 64.4797 31.344 62.6877 35.952L49.6317 70.512C45.9126 80.4297 43.0511 87.4682 40.8777 92.8141C39.9095 95.1957 39.0778 97.2413 38.3677 99.056C36.5757 103.664 33.7597 105.072 30.6877 105.328L26.4637 105.712C25.6957 106.352 25.9517 108.4 26.7197 108.912C27.5753 108.88 28.5014 108.841 29.4749 108.799C32.4337 108.673 35.8294 108.528 39.0077 108.528C40.5556 108.561 41.9679 108.585 43.2686 108.608C47.0232 108.673 49.848 108.722 52.3197 108.912C53.4717 108.4 53.4717 106.352 52.5757 105.712L48.3517 105.328C45.2797 105.072 44.6397 104.304 44.6397 102.768C44.6397 101.36 45.5357 97.904 47.4557 92.144L51.9357 78.704C52.8317 76.016 53.5997 75.632 56.7997 75.632H76.1277C79.9677 75.632 80.4797 76.016 81.3757 78.832ZM56.0317 67.44L64.0957 45.168C65.5037 41.328 66.7837 38.256 67.1677 37.616H67.4237C68.1917 39.152 69.3437 42.608 70.3677 45.68L77.2797 66.544C78.4317 70 78.1757 70.512 74.4637 70.512H58.7197C55.1357 70.512 55.0077 70.384 56.0317 67.44Z" fill="#91A0AF"/>
</g>
<g id="64/corner">
<path id="InsideWhite" fill-rule="evenodd" clip-rule="evenodd" d="M88 34V4L116 34H88Z" fill="#D8E0E8"/>
</g>
<g id="64/chard/color/yellow">
<path id="Shape" d="M28 38V112L64 118V32L28 38Z" fill="#ECF0F4"/>
<path id="Chard" fill-rule="evenodd" clip-rule="evenodd" d="M60 36.8636V113.273L12 106V44L60 36.8636Z" fill="#474744"/>
</g>
<g id="64/chard/letter/a">
<path id="T" fill-rule="evenodd" clip-rule="evenodd" d="M32.3041 92V65.216H22.0801V58.4H49.9201V65.216H39.6961V92H32.3041Z" fill="white"/>
</g>
</g>
</svg>
