<svg width="64" height="64" viewBox="0 0 64 64" fill="none" xmlns="http://www.w3.org/2000/svg">
<g id="m/mime_ttf/mime_ttf_64x64">
<g id="64/baseshape">
<g id="64/baseshape_2">
<path id="OutsideBorder" d="M58 60C58 61.1046 57.1046 62 56 62H15C13.8954 62 13 61.1046 13 60V4C13 2.89543 13.8954 2 15 2H44L58 17V60Z" fill="#ECF0F4"/>
</g>
<path id="A" fill-rule="evenodd" clip-rule="evenodd" d="M40.6879 39.416L43.5039 48.12C44.0159 49.656 44.3359 50.808 44.3359 51.512C44.3359 52.152 43.4399 52.536 42.0959 52.664L40.2399 52.856C39.7919 53.176 39.8559 54.2 40.3679 54.456C40.7629 54.4424 41.1841 54.4259 41.632 54.4083C43.2882 54.3433 45.3098 54.264 47.7279 54.264C50.6079 54.264 52.8479 54.328 55.4719 54.456C55.7919 54.2 55.9199 53.176 55.4719 52.856L53.7439 52.664C50.9919 52.344 50.1599 51.384 48.3039 45.88L39.5359 20.152C39.4205 19.8135 39.3042 19.4732 39.1874 19.1315C38.3325 16.6301 37.4519 14.0535 36.7199 11.576C36.5919 11.128 36.1439 11 35.7599 11C35.0559 11.832 33.9679 12.984 32.4319 13.432C32.6239 14.456 32.2399 15.672 31.3439 17.976L24.8159 35.256C22.9563 40.2148 21.5255 43.7341 20.4389 46.407C19.9547 47.5978 19.5389 48.6207 19.1839 49.528C18.2879 51.832 16.8799 52.536 15.3439 52.664L13.2319 52.856C12.8479 53.176 12.9759 54.2 13.3599 54.456C13.7876 54.4402 14.2507 54.4204 14.7374 54.3996C16.2168 54.3365 17.9147 54.264 19.5039 54.264C20.2778 54.2805 20.9839 54.2927 21.6343 54.304C23.5116 54.3365 24.924 54.3609 26.1599 54.456C26.7359 54.2 26.7359 53.176 26.2879 52.856L24.1759 52.664C22.6399 52.536 22.3199 52.152 22.3199 51.384C22.3199 50.68 22.7679 48.952 23.7279 46.072L25.9679 39.352C26.4159 38.008 26.7999 37.816 28.3999 37.816H38.0639C39.9839 37.816 40.2399 38.008 40.6879 39.416ZM28.0159 33.72L32.0479 22.584C32.7519 20.664 33.3919 19.128 33.5839 18.808H33.7119C34.0959 19.576 34.6719 21.304 35.1839 22.84L38.6399 33.272C39.2159 35 39.0879 35.256 37.2319 35.256H29.3599C27.5679 35.256 27.5039 35.192 28.0159 33.72Z" fill="#91A0AF"/>
</g>
<g id="64/corner">
<path id="InsideWhite" fill-rule="evenodd" clip-rule="evenodd" d="M44 17V2L58 17H44Z" fill="#D8E0E8"/>
</g>
<g id="64/chard/color/yellow">
<path id="Shape" d="M14 19V56L32 59V16L14 19Z" fill="#ECF0F4"/>
<path id="Chard" fill-rule="evenodd" clip-rule="evenodd" d="M30 18.4318V56.6364L6 53V22L30 18.4318Z" fill="#474744"/>
</g>
<g id="64/chard/letter/a">
<path id="T" fill-rule="evenodd" clip-rule="evenodd" d="M16.152 46V32.608H11.04V29.2H24.96V32.608H19.848V46H16.152Z" fill="white"/>
</g>
</g>
</svg>
