<svg width="16" height="16" viewBox="0 0 16 16" fill="none" xmlns="http://www.w3.org/2000/svg">
<g id="m/mime_data/mime_data_16x16">
<g id="16/baseshape">
<g id="16/baseshape_2">
<path id="OutsideBorder" d="M3 0V16H16V4L12 0H3Z" fill="#ECF0F4"/>
</g>
<g id="Group">
<path id="Oval 3" d="M9.5 11.5C7.2653 11.5 5.5 10.9956 5.5 10C5.5 9.00437 7.2653 8.5 9.5 8.5C11.7347 8.5 13.5 9.00437 13.5 10C13.5 10.9956 11.7347 11.5 9.5 11.5Z" fill="#91A0AF"/>
<path id="Path" d="M6.52808 9.99412C6.59924 10.0133 6.80697 10.1248 7.16254 10.2263C7.76659 10.3989 8.60293 10.5 9.50006 10.5C10.3972 10.5 11.2335 10.3989 11.8376 10.2263C12.1875 10.1264 12.3942 10.0169 12.4685 9.99511C12.4009 9.98667 12.1931 9.87525 11.8376 9.77366C11.2335 9.60107 10.3972 9.5 9.50006 9.5C8.60293 9.5 7.76659 9.60107 7.16254 9.77366C6.81263 9.87363 6.6059 9.98312 6.53158 10.0049L6.52808 9.99412Z" fill="#ECF0F4"/>
</g>
<g id="Group_2">
<path id="Oval 3_2" d="M9.5 13.5C7.2653 13.5 5.5 12.9956 5.5 12C5.5 11.0044 7.2653 10.5 9.5 10.5C11.7347 10.5 13.5 11.0044 13.5 12C13.5 12.9956 11.7347 13.5 9.5 13.5Z" fill="#91A0AF"/>
<path id="Path_2" d="M6.52808 11.9941C6.59924 12.0133 6.80697 12.1248 7.16254 12.2263C7.76659 12.3989 8.60293 12.5 9.50006 12.5C10.3972 12.5 11.2335 12.3989 11.8376 12.2263C12.1875 12.1264 12.3942 12.0169 12.4685 11.9951C12.4009 11.9867 12.1931 11.8752 11.8376 11.7737C11.2335 11.6011 10.3972 11.5 9.50006 11.5C8.60293 11.5 7.76659 11.6011 7.16254 11.7737C6.81263 11.8736 6.6059 11.9831 6.53158 12.0049L6.52808 11.9941Z" fill="#ECF0F4"/>
</g>
<g id="Group_3">
<path id="Oval 3_3" d="M9.5 9.5C7.2653 9.5 5.5 8.99563 5.5 8C5.5 7.00437 7.2653 6.5 9.5 6.5C11.7347 6.5 13.5 7.00437 13.5 8C13.5 8.99563 11.7347 9.5 9.5 9.5Z" fill="#91A0AF"/>
<path id="Path_3" d="M6.52808 7.99412C6.59924 8.01333 6.80697 8.12475 7.16254 8.22634C7.76659 8.39893 8.60293 8.5 9.50006 8.5C10.3972 8.5 11.2335 8.39893 11.8376 8.22634C12.1875 8.12637 12.3942 8.01688 12.4685 7.99511C12.4009 7.98667 12.1931 7.87525 11.8376 7.77366C11.2335 7.60107 10.3972 7.5 9.50006 7.5C8.60293 7.5 7.76659 7.60107 7.16254 7.77366C6.81263 7.87363 6.6059 7.98312 6.53158 8.00489L6.52808 7.99412Z" fill="#ECF0F4"/>
</g>
</g>
<g id="16/corner">
<path id="InsideWhite" d="M12 4V0V0L16 4V4H12Z" fill="#D8E0E8"/>
</g>
<g id="16/chard/color/aqua">
<path id="Shape" fill-rule="evenodd" clip-rule="evenodd" d="M4 2.66077V14.2205L8 15V2L4 2.66077Z" fill="#ECF0F4"/>
<path id="Chard" fill-rule="evenodd" clip-rule="evenodd" d="M0 4L7 3V14L0 12.9V4Z" fill="#951B81"/>
</g>
<g id="16/chard/letter/a">
<path id="D" fill-rule="evenodd" clip-rule="evenodd" d="M1.45337 10.5V5.83333H3.27337C4.74004 5.83333 5.75337 6.84 5.75337 8.15333V8.16667C5.75337 9.48 4.74004 10.5 3.27337 10.5H1.45337ZM2.48004 9.57333H3.27337C4.11337 9.57333 4.68004 9.00667 4.68004 8.18V8.16667C4.68004 7.34 4.11337 6.76 3.27337 6.76H2.48004V9.57333Z" fill="white"/>
</g>
</g>
</svg>
