<?xml version="1.0" encoding="UTF-8" standalone="no"?>
<svg width="109px" height="120px" viewBox="0 0 109 120" version="1.1" xmlns="http://www.w3.org/2000/svg" xmlns:xlink="http://www.w3.org/1999/xlink">
    <!-- Generator: Sketch 44.1 (41455) - http://www.bohemiancoding.com/sketch -->
    <title>browser_logo_edge_128x128</title>
    <desc>Created with Sketch.</desc>
    <defs></defs>
    <g id="Page-1" stroke="none" stroke-width="1" fill="none" fill-rule="evenodd">
        <g id="browser_logo_edge_128x128" fill-rule="nonzero" fill="#0078D7">
            <path d="M54.9565217,0.923076923 C26.6082609,0.923076923 3.41869565,20.9107692 0.913043478,47.4461538 C0.820325858,48.4760665 1.37988979,49.4542393 2.31365105,49.8945538 C3.24741231,50.3348682 4.35625834,50.1434329 5.08913043,49.4153846 C21.1547826,33.3661538 37.466087,25.5384615 54.9565217,25.5384615 C68.32,25.5384615 74.1173913,32.7261538 74.6086957,50.1538462 L35.3043478,50.1538462 C36.3458479,44.3911909 38.7368221,38.958332 42.2808696,34.3015385 C42.9443209,33.3557819 42.8615905,32.0748293 42.0820195,31.2226515 C41.3024486,30.3704736 40.0361108,30.1767101 39.0382609,30.7569231 C24.3482609,38.88 10.7391304,49.5138462 10.7391304,72.3076923 C10.7391304,98.1046154 34.9604348,119.076923 64.7826087,119.076923 C76.3345486,119.293355 87.7500466,116.548041 97.9456522,111.101538 C98.7164267,110.655738 99.1863001,109.827072 99.173913,108.935385 L99.173913,87.0769231 C99.173913,86.1445611 98.6482116,85.2922211 97.8159812,84.8752561 C96.9837509,84.4582912 95.9878477,84.5482751 95.2434783,85.1076923 C88.0097703,90.9984619 79.0153961,94.2915793 69.6956522,94.4615385 C48.1765217,94.4615385 36.9256522,88.0123077 35.3043478,74.7692308 L106.543478,74.7692308 C107.900178,74.7692308 109,73.6671625 109,72.3076923 L109,52.6153846 C108.275868,23.4070625 84.1074662,0.290111078 54.9565217,0.923076923 Z" id="Shape"></path>
        </g>
    </g>
</svg>