<svg width="24" height="24" xmlns="http://www.w3.org/2000/svg"><g fill="#ACBD1A" fill-rule="evenodd"><path d="M4.304 14.08c-1 0-1.952-.784-1.952-2.216v-.016c0-1.432.936-2.216 1.952-2.216.648 0 1.048.296 1.336.64V8.16h1.216V14H5.64v-.616c-.296.4-.704.696-1.336.696zm.312-1.032c.568 0 1.04-.472 1.04-1.184v-.016c0-.712-.472-1.184-1.04-1.184-.568 0-1.048.464-1.048 1.184v.016c0 .712.48 1.184 1.048 1.184zM7.944 14V9.712H9.16v.864c.248-.592.648-.976 1.368-.944v1.272h-.064c-.808 0-1.304.488-1.304 1.512V14H7.944zm4.768.08c-.92 0-1.456-.608-1.456-1.592V9.712h1.216v2.392c0 .576.272.872.736.872.464 0 .76-.296.76-.872V9.712h1.216V14h-1.216v-.608c-.28.36-.64.688-1.256.688zm5.48 1.216c-.696 0-1.352-.16-1.896-.448l.416-.912c.44.248.88.392 1.448.392.832 0 1.224-.4 1.224-1.168v-.208c-.36.432-.752.696-1.4.696-1 0-1.904-.728-1.904-2v-.016c0-1.28.92-2 1.904-2 .664 0 1.056.28 1.384.64v-.56h1.216v3.32c0 .768-.184 1.328-.544 1.688-.4.4-1.016.576-1.848.576zm.144-2.656c.592 0 1.048-.408 1.048-.992v-.016c0-.584-.456-.992-1.048-.992-.592 0-1.04.408-1.04.992v.016c0 .592.448.992 1.04.992zM2.6 21v-5.84h1.216V21H2.6zm2.384-4.76v-1.08h1.28v1.08h-1.28zM5.016 21v-4.288h1.216V21H5.016zM7.4 16.24v-1.08h1.28v1.08H7.4zm-.128 6.064a2.53 2.53 0 0 1-.528-.048v-.952c.096.016.168.024.256.024.256 0 .432-.136.432-.496v-4.12h1.216v4.216c0 .944-.48 1.376-1.376 1.376zM9.792 21v-4.288h1.216v.608c.28-.36.64-.688 1.256-.688.92 0 1.456.608 1.456 1.592V21h-1.216v-2.392c0-.576-.272-.872-.736-.872-.464 0-.76.296-.76.872V21H9.792zM3.728 7.06c-.75 0-1.464-.588-1.464-1.662v-.012c0-1.074.702-1.662 1.464-1.662.486 0 .786.222 1.002.48V2.62h.912V7H4.73v-.462c-.222.3-.528.522-1.002.522zm.234-.774c.426 0 .78-.354.78-.888v-.012c0-.534-.354-.888-.78-.888-.426 0-.786.348-.786.888v.012c0 .534.36.888.786.888zm4.02.786c-.966 0-1.68-.678-1.68-1.662v-.012c0-.918.654-1.674 1.59-1.674 1.074 0 1.566.834 1.566 1.746 0 .072-.006.156-.012.24H7.208c.09.414.378.63.786.63.306 0 .528-.096.78-.33l.522.462c-.3.372-.732.6-1.314.6zM7.196 5.14H8.57c-.054-.408-.294-.684-.678-.684-.378 0-.624.27-.696.684z"/></g></svg>