<svg xmlns="http://www.w3.org/2000/svg" width="256" height="256" viewBox="0 0 256 256">
  <g fill="none" fill-rule="evenodd">
    <path fill="#46BC95" fill-rule="nonzero" d="M157.72,141.78 C200.23,141.78 239.52,164.46 260.78,201.28 L233.06,217.28 C217.52,190.36 188.8,173.78 157.72,173.78 L157.72,141.78 Z" transform="rotate(90 209.25 179.53)"/>
    <path fill="#7CCDCF" fill-rule="nonzero" d="M133.8875,165.6725 C155.1475,202.4925 155.1475,247.8525 133.8875,284.6725 L106.1675,268.6725 C121.7075,241.7525 121.7075,208.5925 106.1675,181.6725 L133.8875,165.6725 Z" transform="rotate(90 128 225.173)"/>
    <path fill="#0A82BE" fill-rule="nonzero" d="M98.28,157.78 C77.02,194.6 37.73,217.28 -4.78,217.28 L-4.78,185.28 C26.3,185.28 55.02,168.7 70.56,141.78 L98.28,157.78 Z" transform="rotate(90 46.75 179.53)"/>
    <path fill="#5B54A4" fill-rule="nonzero" d="M98.28,114.22 C55.77,114.22 16.48,91.54 -4.78,54.72 L22.94,38.72 C38.48,65.64 67.2,82.22 98.28,82.22 L98.28,114.22 Z" transform="rotate(90 46.75 76.47)"/>
    <path fill="#B1D03D" fill-rule="nonzero" d="M122.1125,90.3275 C100.8525,53.5075 100.8525,8.1475 122.1125,-28.6725 L149.8325,-12.6725 C134.2925,14.2475 134.2925,47.4075 149.8325,74.3275 L122.1125,90.3275 Z" transform="rotate(90 128 30.828)"/>
    <path fill="#8CB83A" fill-rule="nonzero" d="M157.72,98.22 C178.98,61.4 218.27,38.72 260.78,38.72 L260.78,70.72 C229.7,70.72 200.98,87.3 185.44,114.22 L157.72,98.22 Z" transform="rotate(90 209.25 76.47)"/>
    <path fill="#ED7928" d="M128,58 C153.01,58 176.12,71.34 188.62,93 C194.76,103.64 198,115.71 198,128 L166,128 C166,114.42 158.76,101.88 147,95.09 C141.22,91.75 134.67,90 128,90 L128,58 Z"/>
    <path fill="#F79739" d="M198,128 C198,153.01 184.66,176.12 163,188.62 C152.36,194.76 140.29,198 128,198 L128,166 C141.58,166 154.12,158.76 160.91,147 C164.25,141.22 166,134.67 166,128 L198,128 Z"/>
    <path fill="#F6BD16" d="M128,198 C102.99,198 79.88,184.66 67.38,163 C61.24,152.36 58,140.29 58,128 L90,128 C90,141.58 97.24,154.12 109,160.91 C114.78,164.25 121.33,166 128,166 L128,198 Z"/>
    <path fill="#E9252D" d="M58,128 C58,102.99 71.34,79.88 93,67.38 C103.64,61.24 115.71,58 128,58 L128,90 C114.42,90 101.88,97.24 95.09,109 C91.75,114.78 90,121.33 90,128 L58,128 Z"/>
    <path fill="#FFFFFF" fill-rule="nonzero" d="M12,0.5 C5.648,0.5 0.5,5.649 0.5,12 C0.5,18.351 5.648,23.5 12,23.5 C18.351,23.5 23.5,18.351 23.5,12 C23.5,5.649 18.351,0.5 12,0.5 Z M16.087,2.516 C17.827,3.268 19.315,4.489 20.404,6.014 C20.144,6.629 19.812,7.196 19.304,7.66 C19.241,7.718 19.172,7.768 19.107,7.825 C18.944,7.966 18.773,8.003 18.545,7.983 C17.4,7.881 16.342,8.151 15.389,8.805 C15.29,8.872 15.2,8.954 15.122,9.043 C14.8,9.42 14.936,9.919 15.409,10.074 C15.531,10.114 15.583,10.178 15.613,10.293 C15.721,10.717 15.841,11.139 15.951,11.563 C16.032,11.872 16.265,12.025 16.536,12.136 C16.853,12.266 17.185,12.23 17.515,12.191 C17.554,12.186 17.591,12.18 17.631,12.174 C17.65,12.186 17.67,12.198 17.69,12.21 C17.641,12.336 17.619,12.483 17.54,12.586 C17.212,13.016 16.871,13.434 16.524,13.849 C16.258,14.167 15.965,14.465 15.706,14.789 C15.338,15.247 15.416,15.631 15.829,16.06 C15.922,16.158 16.027,16.242 16.139,16.342 C15.815,16.682 15.455,16.937 15.054,17.131 C15.007,17.153 14.961,17.177 14.912,17.193 C14.636,17.292 14.514,17.491 14.509,17.779 C14.501,18.389 14.284,18.894 13.749,19.222 C13.292,19.504 12.778,19.568 12.255,19.568 C12.187,19.568 12.095,19.499 12.053,19.437 C11.734,18.95 11.486,18.423 11.307,17.869 C11.254,17.704 11.33,17.562 11.397,17.414 C11.511,17.161 11.622,16.906 11.715,16.644 C11.832,16.324 11.769,16.007 11.598,15.725 C11.412,15.419 11.215,15.118 10.989,14.842 C10.85,14.673 10.789,14.496 10.749,14.293 C10.627,13.645 10.296,13.136 9.653,12.927 C9.341,12.825 8.992,12.82 8.659,12.81 C8.301,12.798 7.939,12.82 7.582,12.848 C6.983,12.895 6.722,12.604 6.571,12.071 C6.429,11.575 6.486,11.074 6.581,10.581 C6.694,9.984 6.881,9.412 7.262,8.923 C7.58,8.514 7.991,8.253 8.501,8.17 C8.866,8.11 9.234,8.074 9.603,8.039 C9.705,8.03 9.814,8.062 9.92,8.08 C10.081,8.107 10.177,8.185 10.254,8.348 C10.4,8.649 10.692,8.802 10.989,8.925 C11.566,9.162 12.163,9.129 12.757,9.023 C13.283,8.929 13.804,8.801 14.328,8.692 C14.428,8.671 14.53,8.665 14.632,8.656 C14.88,8.635 15.096,8.45 15.117,8.204 C15.17,7.62 15.228,7.035 15.245,6.449 C15.257,5.994 15.187,5.54 14.988,5.118 C14.76,4.641 14.386,4.51 13.903,4.723 C13.726,4.801 13.545,4.872 13.36,4.923 C13.128,4.988 12.928,4.901 12.837,4.681 C12.644,4.22 12.675,3.965 13.053,3.669 C13.476,3.338 13.967,3.134 14.472,2.974 C15.005,2.805 15.546,2.658 16.087,2.516 Z M12,22.331 C6.304,22.331 1.669,17.696 1.669,12 C1.669,6.303 6.304,1.669 12,1.669 C12.757,1.669 13.493,1.756 14.205,1.912 C13.887,2.069 13.634,2.193 13.582,2.218 C13.013,2.485 12.464,2.785 12.035,3.262 C11.552,3.8 11.521,4.35 11.808,4.971 C12.134,5.676 12.892,6.056 13.66,5.93 C13.822,5.903 13.982,5.866 14.183,5.824 C14.155,6.404 14.127,6.955 14.092,7.506 C14.088,7.548 14.015,7.611 13.965,7.623 C13.589,7.714 13.213,7.818 12.831,7.873 C12.434,7.931 12.029,7.954 11.628,7.96 C11.417,7.964 11.245,7.858 11.136,7.65 C10.976,7.347 10.702,7.165 10.377,7.082 C9.476,6.853 8.585,6.954 7.723,7.257 C6.932,7.536 6.4,8.122 6.022,8.856 C5.711,9.46 5.545,10.106 5.446,10.776 C5.342,11.48 5.391,12.162 5.683,12.816 C5.925,13.361 6.309,13.758 6.908,13.886 C7.154,13.94 7.417,13.935 7.672,13.936 C8.161,13.938 8.652,13.91 9.142,13.923 C9.507,13.935 9.648,14.086 9.697,14.444 C9.711,14.547 9.718,14.65 9.711,14.752 C9.696,14.974 9.787,15.141 9.938,15.298 C10.155,15.53 10.351,15.784 10.556,16.027 C10.683,16.178 10.699,16.342 10.598,16.514 C10.536,16.618 10.482,16.726 10.429,16.831 C10.223,17.245 10.101,17.674 10.275,18.131 C10.378,18.402 10.485,18.672 10.613,18.931 C10.871,19.453 11.174,19.949 11.594,20.362 C11.832,20.596 12.109,20.716 12.445,20.666 C12.822,20.61 13.206,20.573 13.572,20.479 C14.223,20.31 14.774,19.968 15.159,19.396 C15.395,19.042 15.514,18.647 15.576,18.233 C15.592,18.122 15.644,18.054 15.746,18.001 C16.181,17.765 16.572,17.475 16.913,17.116 C17.233,16.784 17.363,16.39 17.169,15.96 C17.074,15.751 16.899,15.57 16.738,15.398 C16.645,15.302 16.639,15.262 16.738,15.173 C16.945,14.985 17.146,14.794 17.339,14.591 C17.795,14.111 18.236,13.619 18.518,13.009 C18.791,12.414 18.881,11.825 18.474,11.243 C18.279,10.965 17.986,10.867 17.672,10.996 C17.521,11.058 17.36,11.103 17.202,11.151 C17.063,11.193 16.984,11.136 16.929,11 C16.739,10.538 16.534,10.082 16.343,9.622 C16.327,9.584 16.352,9.494 16.383,9.479 C17.097,9.12 17.845,8.941 18.647,9.105 C18.868,9.15 19.066,9.136 19.27,9.022 C20.024,8.601 20.581,7.987 21.007,7.25 C21.031,7.21 21.072,7.171 21.111,7.132 C21.889,8.583 22.334,10.24 22.334,11.999 C22.331,17.696 17.696,22.331 12,22.331 Z" transform="translate(116 12.408)"/>
    <path fill="#FFFFFF" fill-rule="nonzero" d="M9.607,15.881 L10.243,12.716 L9.054,12.028 L8.15,18.405 L13.22,14.434 L12.029,13.746 L9.607,15.881 Z M12.683,12.339 C12.683,11.77 12.222,11.308 11.652,11.308 C11.084,11.308 10.621,11.77 10.621,12.339 C10.621,12.908 11.084,13.371 11.652,13.371 C12.222,13.371 12.683,12.909 12.683,12.339 Z M11.274,10.932 L13.696,8.799 L13.059,11.963 L14.248,12.651 L15.152,6.274 L10.082,10.245 L11.274,10.932 Z M11.999,1.694 C6.308,1.694 1.693,6.309 1.693,12 C1.693,17.692 6.307,22.307 11.999,22.307 C17.691,22.307 22.306,17.691 22.306,12 C22.306,6.309 17.69,1.694 11.999,1.694 Z M11.995,20.932 C7.06,20.932 3.059,16.932 3.059,11.996 C3.059,7.061 7.06,3.061 11.995,3.061 C16.931,3.061 20.931,7.061 20.931,11.996 C20.931,16.932 16.931,20.932 11.995,20.932 Z" transform="translate(155.746 79.542)"/>
    <path fill="#FFFFFF" fill-rule="nonzero" d="M20.363,3.083 C19.718,3.397 3.048,11.462 3.048,11.462 C3.048,11.462 8.662,14.846 8.634,14.813 C8.625,14.803 11.986,20.959 11.986,20.959 C11.986,20.959 20.784,3.92 20.923,3.641 C21.045,3.293 20.783,2.909 20.363,3.083 Z M5.281,11.462 L18.129,5.317 L9.192,13.695 C9.19,13.694 5.281,11.462 5.281,11.462 Z M11.985,18.724 C11.985,18.724 10.238,15.359 9.751,14.255 L18.73,5.753 L11.985,18.724 Z" transform="translate(155.746 152.458)"/>
    <path fill="#FFFFFF" fill-rule="nonzero" d="M17.062,2.473 C14.954,2.473 13.357,3.711 12,5.004 C10.708,3.632 9.046,2.473 6.938,2.473 C3.967,2.473 1.876,5.027 1.876,7.813 C1.876,9.308 2.487,10.383 3.157,11.394 L11.024,20.827 C11.908,21.762 12.075,21.762 12.958,20.827 L20.843,11.394 C21.631,10.383 22.124,9.308 22.124,7.813 C22.124,5.027 20.032,2.473 17.062,2.473 Z M19.593,11.131 L12,20.192 L4.406,11.093 C3.498,9.832 3.142,8.98 3.142,7.813 C3.142,5.637 4.695,3.678 6.939,3.66 C8.782,3.644 10.874,5.529 12,6.95 C13.096,5.579 15.217,3.659 17.062,3.659 C19.247,3.659 20.859,5.636 20.859,7.812 C20.858,8.98 20.576,9.895 19.593,11.131 Z" transform="translate(76.86 79.542)"/>
    <path fill="#FFFFFF" fill-rule="nonzero" d="M22.499,20.945 L15.524,7.838 C15.698,7.834 15.866,7.847 16.01,7.873 C16.713,7.998 17.315,8.382 17.905,9.081 L18.038,9.241 C18.229,9.472 18.427,9.711 18.673,9.927 C19.187,10.38 19.851,10.488 20.452,10.217 C21.04,9.953 21.395,9.437 21.454,8.765 C21.507,8.182 21.329,7.625 20.911,7.064 C19.813,5.588 18.368,4.589 16.616,4.094 C15.042,3.649 13.518,3.718 12.13,4.296 C12.308,3.91 12.415,3.484 12.415,3.032 C12.415,1.359 11.056,0 9.385,0 C7.714,0 6.355,1.359 6.355,3.031 C6.355,4.42 7.3,5.581 8.577,5.938 C8.224,6.022 7.878,6.077 7.528,6.079 C6.712,6.079 6.178,5.954 5.749,5.657 C5.503,5.488 5.274,5.266 5.032,5.031 C4.919,4.921 4.806,4.812 4.689,4.706 C4.61,4.633 4.534,4.556 4.458,4.479 C4.27,4.289 4.058,4.073 3.792,3.906 C3.513,3.733 3.199,3.642 2.884,3.642 C2.09,3.642 1.413,4.209 1.238,5.02 C1.112,5.607 1.259,6.182 1.685,6.777 C2.349,7.704 3.061,8.431 3.863,9.001 C5.603,10.234 7.486,10.65 9.643,10.184 L11.613,13.76 L8.849,15.667 C8.072,16.206 7.768,17.147 8.095,18.009 C8.358,18.702 8.796,19.213 9.398,19.529 C10.502,20.108 11.605,20.684 12.717,21.249 L12.946,21.366 C13.493,21.644 14.059,21.932 14.655,22.162 C15.481,22.482 16.313,22.277 16.833,21.647 C17.204,21.194 17.368,20.569 17.261,20.014 C17.148,19.434 16.802,18.972 16.206,18.6 L14.157,17.317 L15.475,16.688 L18.942,22.641 C19.229,23.135 19.661,23.735 20.438,23.973 L21.249,24 L21.538,23.859 C21.696,23.787 21.876,23.707 22.048,23.576 C22.862,22.959 23.034,21.95 22.499,20.945 Z M7.579,3.031 C7.579,2.035 8.39,1.225 9.385,1.225 C10.38,1.225 11.191,2.035 11.191,3.031 C11.191,4.026 10.38,4.837 9.385,4.837 C8.39,4.837 7.579,4.026 7.579,3.031 Z M21.31,22.6 C21.248,22.647 21.144,22.694 21.035,22.743 C21.012,22.755 20.988,22.765 20.965,22.776 L20.723,22.776 C20.459,22.671 20.25,22.452 20.002,22.025 L16.402,15.842 L15.958,15.1 L11.677,17.144 L15.558,19.64 C15.863,19.83 16.013,20.012 16.06,20.248 C16.097,20.447 16.029,20.696 15.888,20.868 C15.699,21.097 15.429,21.148 15.097,21.019 C14.56,20.812 14.046,20.55 13.501,20.273 L13.271,20.156 C12.166,19.594 11.066,19.021 9.967,18.444 C9.634,18.269 9.396,17.985 9.239,17.574 C9.11,17.233 9.223,16.896 9.546,16.674 L13.216,14.132 L10.712,9.59 C10.548,9.292 10.343,8.92 9.833,8.92 C9.696,8.92 9.565,8.949 9.376,8.99 C7.642,9.367 6.034,9.04 4.571,8.002 C3.882,7.513 3.264,6.879 2.681,6.065 C2.456,5.753 2.384,5.517 2.435,5.278 C2.511,4.933 2.849,4.763 3.144,4.946 C3.289,5.036 3.433,5.183 3.587,5.339 C3.679,5.432 3.77,5.523 3.864,5.611 C3.971,5.708 4.075,5.81 4.179,5.911 C4.448,6.17 4.726,6.439 5.056,6.666 C5.876,7.23 6.806,7.303 7.585,7.303 C7.586,7.303 7.587,7.303 7.588,7.303 C8.929,7.294 10.056,6.773 10.888,6.319 L11.308,6.087 C11.749,5.84 12.165,5.608 12.599,5.427 C13.736,4.954 14.974,4.904 16.283,5.272 C17.769,5.692 18.996,6.541 19.929,7.795 C20.165,8.113 20.261,8.378 20.236,8.656 C20.21,8.944 20.083,9.04 19.95,9.1 C19.78,9.178 19.639,9.147 19.481,9.008 C19.309,8.857 19.151,8.665 18.983,8.462 L18.84,8.292 C18.065,7.375 17.211,6.844 16.225,6.667 C15.663,6.567 14.914,6.614 14.393,6.784 L13.705,7.007 L21.418,21.52 C21.591,21.844 21.712,22.295 21.31,22.6 Z" transform="translate(76.86 152.458)"/>
    <path fill="#FFFFFF" fill-rule="nonzero" d="M12,7.622 C9.237,7.622 6.996,9.862 6.996,12.625 C6.996,15.39 9.237,17.631 12,17.631 C14.763,17.631 17.004,15.39 17.004,12.625 C17.005,9.861 14.763,7.622 12,7.622 Z M12,16.379 C9.926,16.379 8.247,14.699 8.247,12.625 C8.247,10.552 9.927,8.872 12,8.872 C14.073,8.872 15.754,10.552 15.754,12.625 C15.754,14.699 14.073,16.379 12,16.379 Z M22.01,18.881 C22.01,19.572 21.449,20.133 20.759,20.133 L3.242,20.133 C2.551,20.133 1.991,19.571 1.991,18.881 L1.991,7.622 C1.991,6.932 2.552,6.371 3.242,6.371 L5.744,6.371 C8.246,6.371 8.246,3.869 10.124,3.869 L12,3.869 L13.876,3.869 C15.754,3.869 15.754,6.371 18.256,6.371 L20.757,6.371 C21.449,6.371 22.009,6.932 22.009,7.622 L22.01,18.881 Z M23.26,13.876 L23.26,7.621 C23.26,6.239 22.141,5.119 20.759,5.119 L18.256,5.119 C16.379,5.119 16.379,2.617 13.876,2.617 L10.124,2.617 C7.622,2.617 7.622,5.12 5.745,5.12 L3.242,5.12 C1.859,5.12 0.74,6.24 0.74,7.622 L0.74,13.876 L0.74,15.129 L0.74,18.881 C0.74,20.265 1.86,21.384 3.242,21.384 L20.757,21.384 C22.14,21.384 23.259,20.265 23.259,18.881 L23.259,15.129 L23.26,13.876 Z M12,10.125 C10.618,10.125 9.498,11.245 9.498,12.626 C9.498,14.007 10.619,15.129 12,15.129 C13.381,15.129 14.503,14.008 14.503,12.626 C14.503,11.243 13.381,10.125 12,10.125 Z M12,13.876 C11.31,13.876 10.749,13.316 10.749,12.625 C10.749,11.936 11.31,11.375 12,11.375 C12.689,11.375 13.251,11.937 13.251,12.625 C13.251,13.316 12.689,13.876 12,13.876 Z M19.506,7.622 C18.816,7.622 18.256,8.183 18.256,8.873 C18.256,9.564 18.817,10.124 19.506,10.124 C20.196,10.124 20.757,9.564 20.757,8.873 C20.759,8.181 20.197,7.622 19.506,7.622 Z" transform="translate(205.972 66.052)"/>
    <path fill="#FFFFFF" fill-rule="nonzero" d="M23.012,18.146 C22.75,18.146 22.498,17.998 22.371,17.739 C22.348,17.694 21.236,15.475 19.335,13.131 C17.302,15.317 14.625,17.342 11.473,17.772 C7.8,18.267 4.167,16.5 0.704,12.502 L0.269,12 L0.705,11.498 C4.167,7.5 7.79,5.729 11.473,6.229 C14.627,6.658 17.303,8.685 19.337,10.872 C21.237,8.526 22.348,6.307 22.371,6.262 C22.553,5.893 22.984,5.749 23.34,5.937 C23.694,6.126 23.834,6.578 23.652,6.947 C23.555,7.143 22.366,9.517 20.323,12 C22.366,14.483 23.554,16.857 23.651,17.054 C23.834,17.423 23.694,17.874 23.339,18.064 C23.235,18.12 23.123,18.146 23.012,18.146 Z M2.22,12 C5.205,15.256 8.253,16.706 11.286,16.283 C14.073,15.904 16.498,14.029 18.362,12.002 C16.496,9.971 14.07,8.093 11.282,7.715 C8.253,7.301 5.204,8.745 2.22,12 Z" transform="translate(26.028 66.052)"/>
    <g fill="#FFFFFF" fill-rule="nonzero" transform="translate(26.028 167.53)">
      <path d="M20.584,0.418 L3.415,0.418 C1.744,0.418 0.385,1.777 0.385,3.449 L0.385,20.553 C0.385,22.223 1.744,23.582 3.415,23.582 L20.584,23.582 C22.255,23.582 23.615,22.223 23.615,20.553 L23.615,3.449 C23.615,1.777 22.255,0.418 20.584,0.418 Z M22.402,3.449 L22.402,11.394 L12.605,11.394 L12.605,1.63 L20.584,1.63 C21.587,1.63 22.402,2.445 22.402,3.449 Z M1.597,3.449 C1.597,2.445 2.412,1.63 3.415,1.63 L11.394,1.63 L11.394,11.395 L1.597,11.395 L1.597,3.449 Z M1.597,20.553 L1.597,12.608 L11.394,12.608 L11.394,22.37 L3.415,22.37 C2.412,22.369 1.597,21.555 1.597,20.553 Z M20.584,22.369 L12.605,22.369 L12.605,12.607 L22.402,12.607 L22.402,20.552 C22.402,21.555 21.587,22.369 20.584,22.369 Z"/>
      <path d="M14.629 7.379L16.799 7.379 16.799 9.549C16.799 9.885 17.07 10.155 17.405 10.155 17.739 10.155 18.011 9.884 18.011 9.549L18.011 7.379 20.181 7.379C20.515 7.379 20.786 7.108 20.786 6.773 20.786 6.439 20.515 6.168 20.181 6.168L18.011 6.168 18.011 3.998C18.011 3.664 17.739 3.393 17.405 3.393 17.07 3.393 16.799 3.664 16.799 3.998L16.799 6.168 14.629 6.168C14.295 6.168 14.024 6.439 14.024 6.774 14.024 7.109 14.295 7.379 14.629 7.379zM3.847 9.515C3.965 9.634 4.119 9.693 4.276 9.693 4.43 9.693 4.586 9.634 4.705 9.515L6.589 7.63 8.474 9.516C8.592 9.634 8.746 9.693 8.902 9.693 9.058 9.693 9.213 9.634 9.332 9.516 9.568 9.28 9.568 8.896 9.332 8.659L7.445 6.772 9.331 4.888C9.567 4.651 9.567 4.268 9.331 4.031 9.094 3.794 8.711 3.794 8.474 4.031L6.589 5.917 4.704 4.031C4.468 3.794 4.084 3.794 3.848 4.031 3.611 4.268 3.611 4.651 3.848 4.888L5.732 6.772 3.847 8.658C3.609 8.895 3.609 9.278 3.847 9.515zM8.857 16.967L4.319 16.967C3.984 16.967 3.714 17.238 3.714 17.572 3.714 17.906 3.985 18.177 4.319 18.177L8.857 18.177C9.193 18.177 9.463 17.906 9.463 17.572 9.463 17.238 9.193 16.967 8.857 16.967zM19.674 18.254L15.136 18.254C14.801 18.254 14.531 18.525 14.531 18.859 14.531 19.195 14.802 19.466 15.136 19.466L19.674 19.466C20.008 19.466 20.279 19.195 20.279 18.859 20.279 18.525 20.009 18.254 19.674 18.254zM19.674 15.678L15.136 15.678C14.801 15.678 14.531 15.951 14.531 16.285 14.531 16.619 14.802 16.89 15.136 16.89L19.674 16.89C20.008 16.89 20.279 16.619 20.279 16.285 20.279 15.951 20.009 15.678 19.674 15.678z"/>
    </g>
    <path fill="#FFFFFF" fill-rule="nonzero" d="M22.5872727,2.299 C22.4792727,2.299 22.3821818,2.324 22.2916364,2.361 L10.5938182,4.886 C10.2043636,4.886 9.88909091,5.175 9.88909091,5.532 L9.88909091,14.588 C8.40763636,13.704 6.024,13.706 3.89781818,14.741 C1.21527273,16.05 -0.0163636364,18.487 1.14545455,20.188 C2.30618182,21.885 5.424,22.204 8.10545455,20.895 C9.83563636,20.051 11.0301818,18.456 11.3007273,17.174 C11.3007273,17.006 11.3007273,6.027 11.3007273,6.027 L21.8836364,3.745 L21.8836364,12 C20.4021818,11.117 18.0196364,11.117 15.8934545,12.154 C13.2098182,13.463 11.9781818,15.9 13.14,17.599 C14.3007273,19.297 17.5385455,19.697 20.2330909,18.408 C22.2490909,17.444 23.1338182,15.949 23.2963636,14.586 C23.2963636,14.357 23.2963636,2.945 23.2963636,2.945 C23.2941818,2.588 22.9767273,2.299 22.5872727,2.299 Z M7.77163636,19.76 C5.72945455,20.778 3.39818182,20.797 2.41527273,19.679 C1.43236364,18.561 2.29527273,16.838 4.34290909,15.831 C6.39054545,14.824 8.18836364,14.862 9.39927273,15.684 C10.7258182,16.583 9.51163636,18.896 7.77163636,19.76 Z M19.872,17.295 C17.8527273,18.33 15.3807273,18.179 14.4098182,17.06 C13.4389091,15.94 14.3116364,14.231 16.3581818,13.242 C18.4058182,12.253 20.2767273,12.213 21.3938182,13.128 C22.5970909,14.109 21.5661818,16.427 19.872,17.295 Z" transform="translate(205.972 167.53)"/>
    <path fill="#FFFFFF" fill-rule="nonzero" d="M15.582,12.716 L8.418,12.716 C8.022,12.716 7.701,13.036 7.701,13.432 C7.701,13.829 8.021,14.149 8.418,14.149 L15.582,14.149 C15.978,14.149 16.299,13.83 16.299,13.432 C16.299,13.036 15.979,12.716 15.582,12.716 Z M17.016,8.416 L6.984,8.416 C6.588,8.416 6.267,8.737 6.267,9.132 C6.267,9.528 6.587,9.849 6.984,9.849 L17.015,9.849 C17.411,9.849 17.732,9.529 17.732,9.132 C17.732,8.737 17.412,8.416 17.016,8.416 Z M12,0.534 C5.668,0.534 0.535,5.026 0.535,10.565 C0.535,13.731 2.217,16.551 4.834,18.39 L4.834,23.465 L9.857,20.417 C10.552,20.531 11.267,20.598 12,20.598 C18.332,20.598 23.465,16.107 23.465,10.565 C23.465,5.026 18.332,0.534 12,0.534 Z M12,19.166 C11.164,19.166 10.355,19.068 9.578,18.902 L6.205,20.93 L6.25,17.606 C3.664,16.052 1.969,13.481 1.969,10.566 C1.969,5.818 6.459,1.966 12,1.966 C17.541,1.966 22.031,5.818 22.031,10.566 C22.031,15.315 17.541,19.166 12,19.166 Z" transform="translate(116 219.06)"/>
  </g>
</svg>
