<svg width="24" height="24" viewBox="0 0 24 24" fill="none" xmlns="http://www.w3.org/2000/svg">
<g id="m/mime_bin_exe/mime_bin_exe_24x24">
<g id="24/baseshape">
<g id="24/baseshape_2">
<path id="OutsideBorder" fill-rule="evenodd" clip-rule="evenodd" d="M24 22.4998C24 22.776 23.7724 23 23.4998 23H6.50021C6.22395 23 6 22.7823 6 22.4992V1.50084C6 1.22423 6.21991 1 6.49827 1H20L24 5V22.4998Z" fill="#ECF0F4"/>
</g>
<path id="binary" fill-rule="evenodd" clip-rule="evenodd" d="M15.854 5.85389L16 5.70789V8.50089C16 8.77689 16.224 9.00089 16.5 9.00089C16.776 9.00089 17 8.77689 17.001 8.50089V4.50089C17.001 4.29889 16.879 4.11589 16.692 4.03889C16.506 3.95989 16.291 4.00389 16.147 4.14689L15.147 5.14689C14.952 5.34189 14.952 5.65889 15.147 5.85389C15.342 6.04889 15.659 6.04889 15.854 5.85389ZM10.147 10.1469C10.29 10.0029 10.507 9.95989 10.692 10.0389C10.879 10.1159 11.001 10.2989 11.001 10.5009V14.5009C11 14.7769 10.776 15.0009 10.5 15.0009C10.224 15.0009 10 14.7769 10 14.5009V11.7079L9.854 11.8539C9.659 12.0489 9.342 12.0489 9.147 11.8539C8.952 11.6589 8.952 11.3419 9.147 11.1469L10.147 10.1469ZM13.5 10.0009H16.5C16.776 10.0009 17 10.2249 17 10.5009V14.5009C17 14.7769 16.776 15.0009 16.5 15.0009H13.5C13.224 15.0009 13 14.7769 13 14.5009V10.5009C13 10.2249 13.224 10.0009 13.5 10.0009ZM16 14.0009H14V11.0009H16V14.0009ZM20 11.7079L19.854 11.8539C19.659 12.0489 19.342 12.0489 19.147 11.8539C18.952 11.6589 18.952 11.3419 19.147 11.1469L20.147 10.1469C20.291 10.0029 20.506 9.95989 20.692 10.0389C20.879 10.1159 21.001 10.2989 21.001 10.5009V14.5009C21 14.7769 20.776 15.0009 20.5 15.0009C20.224 15.0009 20 14.7769 20 14.5009V11.7079ZM20 8.50089V7.04504L21.001 7.03638V8.50089C21 8.77689 20.776 9.00089 20.5 9.00089C20.224 9.00089 20 8.77689 20 8.50089ZM13 4.50089C13 4.22489 12.776 4.00089 12.5 4.00089H9.5C9.224 4.00089 9 4.22489 9 4.50089V8.50089C9 8.77689 9.224 9.00089 9.5 9.00089H12.5C12.776 9.00089 13 8.77689 13 8.50089V4.50089ZM10 8.00089H12V5.00089H10V8.00089ZM15.854 17.8539L16 17.7079V20.5009C16 20.7769 16.224 21.0009 16.5 21.0009C16.776 21.0009 17 20.7769 17.001 20.5009V16.5009C17.001 16.2989 16.879 16.1159 16.692 16.0389C16.506 15.9599 16.291 16.0039 16.147 16.1469L15.147 17.1469C14.952 17.3419 14.952 17.6589 15.147 17.8539C15.342 18.0489 15.659 18.0489 15.854 17.8539ZM20 17.7079L19.854 17.8539C19.659 18.0489 19.342 18.0489 19.147 17.8539C18.952 17.6589 18.952 17.3419 19.147 17.1469L20.147 16.1469C20.291 16.0039 20.506 15.9599 20.692 16.0389C20.879 16.1159 21.001 16.2989 21.001 16.5009V20.5009C21 20.7769 20.776 21.0009 20.5 21.0009C20.224 21.0009 20 20.7769 20 20.5009V17.7079ZM13 16.5009C13 16.2249 12.776 16.0009 12.5 16.0009H9.5C9.224 16.0009 9 16.2249 9 16.5009V20.5009C9 20.7769 9.224 21.0009 9.5 21.0009H12.5C12.776 21.0009 13 20.7769 13 20.5009V16.5009ZM10 20.0009H12V17.0009H10V20.0009Z" fill="#91A0AF"/>
</g>
<g id="24/corner">
<path id="InsideWhite" fill-rule="evenodd" clip-rule="evenodd" d="M20 1L24 5H20V1Z" fill="#D8E0E8"/>
</g>
<g id="24/chard/color/yellow">
<path id="Shape" d="M7 6V21L12 22V5L7 6Z" fill="#ECF0F4"/>
<path id="Chard" fill-rule="evenodd" clip-rule="evenodd" d="M11 6V21L1 19.5V7.5L11 6Z" fill="#474744"/>
</g>
<g id="24/chard/letter/z">
<path id="E" fill-rule="evenodd" clip-rule="evenodd" d="M3.49001 17V10H8.77001V11.37H5.02001V12.79H8.32001V14.16H5.02001V15.63H8.82001V17H3.49001Z" fill="white"/>
</g>
</g>
</svg>
