<svg width="24" height="24" xmlns="http://www.w3.org/2000/svg"><g fill="#73B9FD" fill-rule="evenodd"><path d="M2.138 11.214h6.416V9.968l-2.121-.32V1.16H5.277L2 2.868l.483 1.175L4.31 3.49v6.14l-2.173.355v1.228zm7.744-2.473c0 1.459 1.242 2.615 3.45 2.615 2.225 0 3.467-1.263 3.467-2.882 0-1.121-.57-2.029-1.673-2.634.845-.57 1.31-1.406 1.31-2.278C16.437 2.174 15.385 1 13.333 1c-1.984 0-3.122 1.246-3.122 2.758 0 .925.466 1.797 1.328 2.331-1.104.587-1.656 1.566-1.656 2.652zm3.398-3.595c-.81-.267-1.12-.836-1.12-1.388 0-.694.5-1.192 1.19-1.192.74 0 1.207.48 1.207 1.174 0 .552-.31 1.175-.828 1.566l-.449-.16zM11.831 8.42c0-.694.38-1.37 1.052-1.726l.587.196c.983.32 1.345.854 1.345 1.566 0 .818-.569 1.37-1.466 1.37-1.035 0-1.518-.658-1.518-1.406zm-9.32 14.42h6.417v-1.246l-2.122-.32v-8.488H5.651l-3.295 1.69.483 1.175 1.829-.552v6.14l-2.174.355v1.246h.018zm7.78-.676c.793.533 1.949.836 2.897.836C15.551 23 17 21.754 17 19.833c0-1.282-.655-2.065-1.604-2.51.69-.498 1.156-1.174 1.156-2.153 0-1.566-1.311-2.49-3.105-2.49-1.035 0-2.139.355-2.88.889l.569 1.228h.241c.362-.232 1.018-.516 1.621-.516.88 0 1.501.32 1.501 1.12 0 .908-.724 1.406-1.604 1.406h-.483l-.224 1.477h.62c1.156 0 2.07.463 2.07 1.477 0 1.14-.827 1.602-1.793 1.602-.69 0-1.45-.231-1.984-.57h-.241l-.57 1.37zM19.505 14.394h-1.72s-.403-.114-.47-1.645c-.022-.457.09-.8.335-1.006.269-.228.648-.297.94-.297.2 0 .357.023.357.023h.044l.045-.023c1.475-.594 1.721-2.514 1.878-3.68.022-.16.044-.296.044-.41.067-.48.045-.755-.111-.937-.202-.252-.604-.275-1.118-.275-.201 0-.335-.045-.425-.137-.2-.228-.2-.754-.178-1.485v-.594c0-1.212 0-1.212 1.206-1.486.157-.023.336-.068.515-.114.424-.091.76.206.983.457.916 1.165 1.453 4.41.09 7.473-.582 1.28-1.051 1.76-1.431 2.125-.47.457-.805.777-.984 2.011zm2.638-3.999c1.319-2.902.983-6.376-.112-7.793-.38-.48-.827-.685-1.274-.571-.179.046-.357.091-.514.114-1.274.297-1.43.389-1.43 1.783v.594c-.023.823-.023 1.394.268 1.714.156.16.357.228.648.228.492 0 .76.023.872.16.09.115.09.32.044.686a7.824 7.824 0 0 0-.067.411c-.134 1.074-.38 2.88-1.631 3.405-.201-.023-.984-.114-1.498.343-.313.274-.47.708-.447 1.257.09 1.851.648 1.942.76 1.942h1.699c-.134.983-.179 2.446-.201 4.777-.023 5.987.268 3.313.29-.023 0-2.377.067-3.84.201-4.776h.94c.2 0 .312-.046.312-.16 0-.16-.402-.16-.514-.16h-.693c.201-1.029.492-1.326.872-1.714.402-.389.894-.892 1.475-2.217z"/><path d="M16.058 1.244c.024.022.072.022.12.043.362.152 1.182.564 1.978.977.193.13.362.173.458.065.024-.022-.241-.239-.579-.434-.747-.456-1.11-.651-1.712-.868-.169-.065-.241 0-.29.065-.048.043-.048.109.025.152zm.217 4.73c.386-.087 1.326-.195 2.219-.282.24 0 .41-.065.41-.195 0-.044-.362-.065-.748-.044-.892.044-1.327.087-1.93.217-.168.044-.192.13-.192.217-.025.065 0 .13.12.109.024 0 .073 0 .12-.022zm.554-1.931c0 .065.025.108.097.13h.096c.29.022.99.152 1.664.26.17.044.314.044.314-.065 0-.043-.265-.13-.555-.217-.675-.151-.988-.217-1.447-.238-.12 0-.144.065-.169.13z" fill-rule="nonzero"/></g></svg>