<svg width="16" height="16" viewBox="0 0 16 16" fill="none" xmlns="http://www.w3.org/2000/svg">
<g id="m/mime_pres_odp/mime_pres_odp_16x16">
<g id="16/baseshape">
<g id="16/baseshape_2">
<path id="OutsideBorder" d="M3 0V16H16V4L12 0H3Z" fill="#ECF0F4"/>
</g>
<path id="Path" d="M6 11H13V12H6V11Z" fill="#F5BA9D"/>
<path id="Path_2" d="M6 13H13V14H6V13Z" fill="#F5BA9D"/>
<path id="Oval" d="M10 10C11.6569 10 13 8.65685 13 7C13 5.34315 11.6569 4 10 4C8.34315 4 7 5.34315 7 7C7 8.65685 8.34315 10 10 10Z" fill="#91A0AF"/>
<path id="Combined Shape" d="M10 4C11.6569 4 13 5.34315 13 7H10V4Z" fill="#F5BA9D"/>
</g>
<g id="16/corner">
<path id="InsideWhite" d="M12 4V0V0L16 4V4H12Z" fill="#D8E0E8"/>
</g>
<g id="16/chard/color/aqua">
<path id="Shape" fill-rule="evenodd" clip-rule="evenodd" d="M4 2.66077V14.2205L8 15V2L4 2.66077Z" fill="#ECF0F4"/>
<path id="Chard" d="M0 4L7 3V14L0 12.9V4Z" fill="#D04727"/>
</g>
<g id="16/chard/letter/a">
<path id="O" fill-rule="evenodd" clip-rule="evenodd" d="M3.49335 10.58C2.05335 10.58 1.02002 9.50667 1.02002 8.18V8.16667C1.02002 6.84 2.06669 5.75333 3.50669 5.75333C4.94669 5.75333 5.98002 6.82667 5.98002 8.15333V8.16667C5.98002 9.49333 4.93335 10.58 3.49335 10.58ZM3.50669 9.63333C4.33335 9.63333 4.90669 8.98 4.90669 8.18V8.16667C4.90669 7.36667 4.32002 6.7 3.49335 6.7C2.66669 6.7 2.09335 7.35333 2.09335 8.15333V8.16667C2.09335 8.96667 2.68002 9.63333 3.50669 9.63333Z" fill="white"/>
</g>
</g>
</svg>
