<svg width="32" height="32" xmlns="http://www.w3.org/2000/svg"><g fill="none" fill-rule="evenodd"><circle fill="#FFF" cx="16" cy="16" r="15"/><path d="M5.9 15.09l2.28-4.255H6.055V9.812h3.562v.945l-2.314 4.22h2.349V16H5.9v-.91zm4.455.91V9.812h1.248V16h-1.248zm3.614-6.188l1.508 4.238h.017V9.812h1.144V16h-1.421l-1.526-4.333h-.017V16H12.53V9.812h1.439zM19.9 16V9.812h1.248V16H19.9zm3.614-6.188l1.508 4.238h.017V9.812h1.144V16h-1.421l-1.525-4.333h-.018V16h-1.144V9.812h1.439z" fill="#0095F9"/><path d="M5.767 22.667v-6.188h1.248v5.165h2.21v1.023H5.767zm7.47-6.188V17.5h-2.21v1.456h2.08v1.023h-2.08v1.664h2.297v1.023H9.779v-6.188h3.458zm8.178 0V17.5h-2.21v1.456h2.08v1.023h-2.08v1.664H21.5v1.023h-3.544v-6.188h3.458zm2.149 0l1.508 4.238h.017v-4.238h1.144v6.188h-1.421l-1.525-4.334h-.018v4.334h-1.144v-6.188h1.439zM14.2 16.45h1.649c.372 0 .66.06.868.182a.6.6 0 0 1 .31.554.64.64 0 0 1-.18.47c-.12.121-.306.2-.558.234v.008c.223.021.386.068.49.14.103.072.167.188.192.348a2 2 0 0 1 .018.174l.013.21c.008.152.02.268.037.348.025.08.078.135.161.164v.024h-.967a.264.264 0 0 1-.087-.138 1.022 1.022 0 0 1-.025-.162l-.024-.548a.358.358 0 0 0-.13-.264c-.079-.064-.211-.096-.397-.096h-.477v1.208H14.2V16.45zm.893 1.248h.371c.215 0 .38-.033.496-.098.116-.065.174-.175.174-.33 0-.264-.207-.396-.62-.396h-.421v.824zm.007 2.112l.591 2.113h.018l.62-2.112h.871l-.96 2.856h-1.08l-.96-2.856z" fill="#62BE31"/><path d="M4.686 4.686A15.993 15.993 0 0 1 20.14.547a16.023 16.023 0 0 1 11.314 11.314 15.993 15.993 0 0 1-4.14 15.453l-1.885-1.886a13.354 13.354 0 0 0 3.45-12.879 13.31 13.31 0 0 0-9.427-9.428 13.354 13.354 0 0 0-12.88 3.45L4.687 4.687z" fill="#2196F3"/><path d="M27.314 27.314a15.993 15.993 0 0 1-15.453 4.139A16.023 16.023 0 0 1 .547 20.139a15.993 15.993 0 0 1 4.14-15.453l1.885 1.886a13.354 13.354 0 0 0-3.45 12.879 13.31 13.31 0 0 0 9.427 9.428 13.354 13.354 0 0 0 12.88-3.45l1.885 1.885z" fill="#62BE31"/></g></svg>