<svg width="24" height="24" xmlns="http://www.w3.org/2000/svg"><g fill="none" fill-rule="evenodd"><circle fill="#FFF" cx="12" cy="12" r="11"/><path d="M4.156 11.318l1.71-3.192H4.272v-.767h2.671v.709L5.21 11.233h1.762V12H4.155v-.682zM7.497 12V7.359h.936V12h-.936zm2.71-4.641l1.131 3.178h.014V7.36h.857V12h-1.066L10 8.75h-.013V12H9.13V7.359h1.079zM14.963 12V7.359h.936V12h-.936zm2.71-4.641l1.131 3.178h.013V7.36h.858V12h-1.066l-1.144-3.25h-.013V12h-.858V7.359h1.079z" fill="#0095F9"/><path d="M4.325 17v-4.641h.936v3.874h1.657V17H4.325zm5.603-4.641v.767H8.27v1.092h1.56v.767H8.27v1.248h1.723V17H7.334v-4.641h2.594zm6.133 0v.767h-1.658v1.092h1.56v.767h-1.56v1.248h1.723V17h-2.659v-4.641h2.594zm1.612 0l1.131 3.178h.013V12.36h.858V17h-1.066l-1.144-3.25h-.013V17h-.858v-4.641h1.079zM10.5 12.35h1.346c.304 0 .54.045.71.137.168.09.252.229.252.415a.46.46 0 0 1-.147.353c-.097.09-.25.149-.455.175v.006c.182.016.315.051.4.105a.363.363 0 0 1 .157.261c.006.04.012.084.015.13l.01.158c.007.114.017.201.03.261.02.06.065.101.132.123v.018h-.79a.196.196 0 0 1-.07-.103.709.709 0 0 1-.02-.122l-.021-.411a.262.262 0 0 0-.106-.198c-.064-.048-.172-.072-.324-.072h-.39v.906H10.5V12.35zm.729.936h.304c.175 0 .31-.024.405-.073.094-.05.141-.132.141-.248 0-.198-.168-.297-.506-.297h-.344v.618zm.033 1.572l.5 1.584h.015l.525-1.584h.738L12.228 17h-.916l-.812-2.142z" fill="#62BE31"/><path d="M3.515 3.515A11.994 11.994 0 0 1 15.105.41a12.017 12.017 0 0 1 8.484 8.485 11.994 11.994 0 0 1-3.104 11.59l-1.414-1.415a10.016 10.016 0 0 0 2.588-9.659 9.982 9.982 0 0 0-7.071-7.071c-3.45-.92-7.135.064-9.66 2.588L3.516 3.515z" fill="#2196F3"/><path d="M20.485 20.485a11.994 11.994 0 0 1-11.59 3.104 12.017 12.017 0 0 1-8.484-8.485 11.994 11.994 0 0 1 3.104-11.59L4.929 4.93a10.016 10.016 0 0 0-2.588 9.659 9.982 9.982 0 0 0 7.071 7.071c3.45.92 7.135-.064 9.66-2.588l1.413 1.414z" fill="#62BE31"/></g></svg>