<svg width="24" height="24" viewBox="0 0 24 24" fill="none" xmlns="http://www.w3.org/2000/svg">
<path fill-rule="evenodd" clip-rule="evenodd" d="M22.0117 6H11C9.05115 6 8.62756 3 7 3H2C1.36346 3 1 3.38571 1 4V10H23C23 10 23 7.43663 23 7.00806C23 6.57966 22.5054 6 22.0117 6Z" fill="#DDDDEA"/>
<path fill-rule="evenodd" clip-rule="evenodd" d="M2 21H22C22.6192 21 23 20.6344 23 20V9H1V20C1 20.6344 1.38077 21 2 21Z" fill="#0D6FE0"/>
<path fill-rule="evenodd" clip-rule="evenodd" d="M11 11V14H21V11H11Z" fill="white"/>
<path fill-rule="evenodd" clip-rule="evenodd" d="M13 12.5C13 12.7761 13.2239 13 13.5 13H18.5C18.7761 13 19 12.7761 19 12.5C19 12.2239 18.7761 12 18.5 12H13.5C13.2239 12 13 12.2239 13 12.5Z" fill="#868686"/>
</svg>
