<svg width="32" height="32" viewBox="0 0 32 32" fill="none" xmlns="http://www.w3.org/2000/svg">
<g id="m/mime_zip_tar/mime_zip_tar_32x32">
<g id="32/baseshape">
<g id="32/baseshape_2">
<path id="OutsideBorder" d="M29 30C29 30.5523 28.5523 31 28 31H7C6.44772 31 6 30.5523 6 30V2C6 1.44772 6.44772 1 7 1H22L29 9V30Z" fill="#ECF0F4"/>
</g>
<path id="Combined Shape" fill-rule="evenodd" clip-rule="evenodd" d="M18 2H16.5V3.5H18V5H16.5V6.5H18V8H16.5V9.5H18V11H16.5V12.5H18V14H16.5V15.5H18V17H16.5V18.5H18V17H19.5V15.5H18V14H19.5V12.5H18V11H19.5V9.5H18V8H19.5V6.5H18V5H19.5V3.5H18V2ZM16 20.1667C16 19.7985 16.2985 19.5 16.6667 19.5H19.3333C19.7015 19.5 20 19.7985 20 20.1667V25.3333C20 25.7015 19.7015 26 19.3333 26H16.6667C16.2985 26 16 25.7015 16 25.3333V20.1667ZM17.3333 20.5C17.1492 20.5 17 20.6492 17 20.8333V24.6667C17 24.8508 17.1492 25 17.3333 25H18.6667C18.8508 25 19 24.8508 19 24.6667V20.8333C19 20.6492 18.8508 20.5 18.6667 20.5H17.3333Z" fill="#91A0AF"/>
</g>
<g id="32/corner">
<path id="InsideWhite" fill-rule="evenodd" clip-rule="evenodd" d="M22 1L29 9H22V1Z" fill="#D8E0E8"/>
</g>
<g id="64/chard/color/yellow">
<path id="Shape" d="M7 9.5V28L16 29.5V8L7 9.5Z" fill="#ECF0F4"/>
<path id="Chard" d="M15 9.2159V28.3182L3 26.5V11L15 9.2159Z" fill="#F3AC00"/>
</g>
<g id="64/chard/letter/a">
<path id="T" fill-rule="evenodd" clip-rule="evenodd" d="M8.07553 23V16.304H5.51953V14.6H12.4795V16.304H9.92353V23H8.07553Z" fill="white"/>
</g>
</g>
</svg>
