<?xml version="1.0" encoding="UTF-8"?><svg xmlns="http://www.w3.org/2000/svg" width="24" height="24" viewBox="0 0 24 24" xmlns:xlink="http://www.w3.org/1999/xlink"><title>d/dictionary_open/dictionary_open_24x24</title><defs><path id="a" d="M22.5 2H15c-.94.645-1.94 1.312-3 2v15l3-2h8V2.5c0-.276-.224-.5-.5-.5z"/><path id="b" d="M1 2.625C1 2.28 1.28 2 1.616 2H9c1.16.968 3 2 3 2v15l-3-2H1V2.625z"/></defs><g fill="none" fill-rule="evenodd"><path d="M0 0h24v24H0z"/><path fill="#0D6FE0" d="M0 5.627C0 5.28.27 5 .617 5h22.766c.34 0 .617.278.617.627v14.746c0 .346-.27.627-.617.627H.617C.277 21 0 20.722 0 20.373V5.627z"/><path fill="#868686" d="M1 17h22l-2 2H3"/><path fill="#FF2709" d="M15 17h4v6l-2-1-2 1"/><use fill="#FFF" xlink:href="#a"/><path stroke="#A1BCE3" stroke-width=".5" d="M15.078 2.25c-.89.61-1.832 1.238-2.828 1.886v14.397l2.61-1.74.14-.043h7.75V2.5c0-.138-.112-.25-.25-.25h-7.422z"/><path fill="#868686" d="M19 8c-.093.063-.186.115-.28.154-.094.04-.224.076-.388.11l-.33.067c-.308.06-.53.133-.663.22-.227.145-.34.37-.34.677 0 .273.07.47.208.59.14.122.308.183.507.183.315 0 .605-.1.87-.303.267-.2.405-.57.415-1.103V8zm-1.05-.637c.31-.034.53-.078.664-.13.24-.09.36-.23.36-.423 0-.233-.093-.393-.275-.482-.183-.09-.45-.133-.803-.133-.396 0-.676.087-.84.26-.118.13-.196.303-.235.522h-1.616c.035-.497.192-.906.47-1.226.443-.5 1.203-.75 2.28-.75.7 0 1.324.123 1.87.37.543.247.816.713.816 1.4v2.607c0 .18.003.4.01.658.013.195.046.327.1.396.056.07.138.128.248.173v.22h-1.822c-.05-.115-.086-.223-.106-.324-.02-.102-.035-.217-.047-.345-.23.222-.497.412-.8.568-.36.185-.767.277-1.22.277-.58 0-1.06-.147-1.438-.44-.378-.295-.567-.71-.567-1.25 0-.7.304-1.206.91-1.52.334-.17.824-.29 1.47-.364l.57-.063z"/><use fill="#FFF" xlink:href="#b"/><path stroke="#A1BCE3" stroke-width=".5" d="M1.25 16.75H9l.14.042 2.61 1.74V4.146c-.125-.07-.293-.17-.492-.29-.463-.28-.927-.574-1.36-.872-.31-.212-.592-.418-.843-.616L8.91 2.25H1.616c-.2 0-.366.168-.366.375V16.75z"/><path fill="#D8D8D8" d="M9 2l3 2v15l-.35-.392"/><path fill="#CCC" d="M15 12h6v1h-6v-1zm0 2h6v1h-6v-1zM3 12h6v1H3v-1zm0 2h6v1H3v-1z"/><path fill="#8D8D8D" d="M5 9h2l-.984-3L5 9zm.26-5h1.496L9 11H7.564l-.408-1.44H4.822L4.384 11H3l2.26-7z"/></g></svg>