<svg width="24" height="24" xmlns="http://www.w3.org/2000/svg"><!--Generator: Sketch 50 (54983) - http://www.bohemiancoding.com/sketch--><g fill="none" fill-rule="evenodd"><path d="M20.6458333 8H3.35416667C1.50458333 8 0 9.57 0 11.5v6c0 .827.64495833 1.5 1.4375 1.5h3.57796224v4.5c0 .276.21466667.5.47916667.5H18.5137533C18.7782533 24 19 23.776 19 23.5V19h3.5625C23.3550417 19 24 18.327 24 17.5v-6C24 9.57 22.4954167 8 20.6458333 8z" fill="#868686" fill-rule="nonzero"/><path fill="#DDDDEA" fill-rule="nonzero" d="M19 0H5v9h14z"/><path fill="#FFF" d="M18 23H6v-8h12z"/><path d="M7.23733333 21h9.52199997c.292008 0 .529-.224.529-.5s-.236992-.5-.529-.5H7.23733333c-.292008 0-.529.224-.529.5s.236992.5.529.5zM7.23733333 18h9.52199997c.292008 0 .529-.224.529-.5s-.236992-.5-.529-.5H7.23733333c-.292008 0-.529.224-.529.5s.236992.5.529.5z" fill="#5A5A5A" fill-rule="nonzero"/></g></svg>