<svg width="16" height="16" xmlns="http://www.w3.org/2000/svg"><!--Generator: Sketch 50 (54983) - http://www.bohemiancoding.com/sketch--><g fill="none" fill-rule="evenodd"><path d="M13.7638889 5H2.23611111C1.00305556 5 0 6.05333349 0 7.34000015v4.32666655c0 .5513333.42997222 1 .95833333 1H3.5v3c0 .184.1436666.3333333.31999993.3333333h8.35000017c.1763333 0 .3299999-.1493333.3299999-.3333333v-3h2.5416667c.5283611 0 .9583333-.4486667.9583333-1V7.34000015C16 6.05333349 14.9969444 5 13.7638889 5z" fill="#868686" fill-rule="nonzero"/><path fill="#DDDDEA" fill-rule="nonzero" d="M12 0H4v6h8z"/><path fill="#FFF" d="M12 15.5H4V10h8z"/><path d="M5.3499999 14h5.2900004C10.8346723 14 11 13.8506667 11 13.6666667s-.1653277-.3333334-.3599997-.3333334H5.3499999c-.19467199 0-.3499999.1493334-.3499999.3333334S5.15532791 14 5.3499999 14zM5.39044189 12h5.24955841C10.8346723 12 11 11.8506667 11 11.6666667s-.1653277-.3333334-.3599997-.3333334H5.39044189c-.19467199 0-.35266666.1493334-.35266666.3333334S5.1957699 12 5.39044189 12z" fill="#5A5A5A" fill-rule="nonzero"/></g></svg>