<svg xmlns="http://www.w3.org/2000/svg" width="128" height="128" viewBox="0 0 128 128"><g fill="none" fill-rule="evenodd"><g fill-rule="nonzero"><polygon fill="#A7A5A6" points="116 124 26 124 26 4 88 4 116 34"/><polygon fill="#FFFFFF" points="28 122 28 6 87 6 114 35 114 122"/></g><path fill="#A7A5A6" d="M70,30 L76,30 L76,36 L70,36 L70,30 Z M76,36 L82,36 L82,42 L76,42 L76,36 Z M70,18 L76,18 L76,24 L70,24 L70,18 Z M76,24 L82,24 L82,30 L76,30 L76,24 Z M70,6 L76,6 L76,12 L70,12 L70,6 Z M76,12 L82,12 L82,18 L76,18 L76,12 Z M70,42 L76,42 L76,48 L70,48 L70,42 Z M76,48 L82,48 L82,54 L76,54 L76,48 Z M70,54 L76,54 L76,60 L70,60 L70,54 Z M76,60 L82,60 L82,66 L76,66 L76,60 Z M70,66 L76,66 L76,72 L70,72 L70,66 Z M70.6666667,76 L81.3333333,76 C82.8060927,76 84,77.1939073 84,78.6666667 L84,99.3333333 C84,100.806093 82.8060927,102 81.3333333,102 L70.6666667,102 C69.1939073,102 68,100.806093 68,99.3333333 L68,78.6666667 C68,77.1939073 69.1939073,76 70.6666667,76 Z M73.3333333,80 C72.5969537,80 72,80.5969537 72,81.3333333 L72,96.6666667 C72,97.4030463 72.5969537,98 73.3333333,98 L78.6666667,98 C79.4030463,98 80,97.4030463 80,96.6666667 L80,81.3333333 C80,80.5969537 79.4030463,80 78.6666667,80 L73.3333333,80 Z"/><g fill-rule="nonzero"><polygon fill="#FFFFFF" points="88 34 88 7 113 34"/><polygon fill="#A7A5A6" points="88 34 88 5 86 5 86 36 115 36 115 34"/></g><g fill-rule="nonzero"><polygon fill="#FFFFFF" points="28 38 28 112 64 118 64 32"/><polygon fill="#F3AC00" points="60 36.864 60 113.273 12 106 12 44"/></g><path fill="#FFFFFF" d="M36.624,92.48 C31.536,92.48 26.4,90.704 22.368,87.104 L26.736,81.872 C29.76,84.368 32.928,85.952 36.768,85.952 C39.792,85.952 41.616,84.752 41.616,82.784 L41.616,82.688 C41.616,80.816 40.464,79.856 34.848,78.416 C28.08,76.688 23.712,74.816 23.712,68.144 L23.712,68.048 C23.712,61.952 28.608,57.92 35.472,57.92 C40.368,57.92 44.544,59.456 47.952,62.192 L44.112,67.76 C41.136,65.696 38.208,64.448 35.376,64.448 C32.544,64.448 31.056,65.744 31.056,67.376 L31.056,67.472 C31.056,69.68 32.496,70.4 38.304,71.888 C45.12,73.664 48.96,76.112 48.96,81.968 L48.96,82.064 C48.96,88.736 43.872,92.48 36.624,92.48 Z"/><g transform="translate(76 76)"><rect width="52" height="52" fill="#57D31A" rx="26"/><path fill="#FFFFFF" d="M20.4181368,32.1328684 L15.65373,27.3820734 C14.5466163,26.2781227 12.7657268,26.2771463 11.6588857,27.3972136 C10.5597079,28.509526 10.5518056,30.2918676 11.6732548,31.4101129 L18.4560752,38.1735549 C19.5631889,39.2775056 21.3440784,39.278482 22.4509195,38.1584147 C22.5292157,38.0791829 22.6019748,37.9965515 22.6691831,37.9110025 L40.3456323,20.0233298 C41.439949,18.9159366 41.4436716,17.1242645 40.3368305,16.0041973 C39.2376526,14.8918849 37.4612616,14.886088 36.3651572,15.9952903 L20.4181368,32.1328684 L20.4181368,32.1328684 Z"/></g></g></svg>