<svg xmlns="http://www.w3.org/2000/svg" width="16" height="16" viewBox="0 0 16 16"><path fill="#516072" fill-rule="evenodd" d="M5,9.17157288 L5,5.5 C5,2.46243388 7.46243388,-3.33066907e-16 10.5,-3.33066907e-16 C13.5375661,-3.33066907e-16 16,2.46243388 16,5.5 L16,8.5 C16,12.6421356 12.6421356,16 8.5,16 L-7.72715225e-13,16 L-7.72715225e-13,14 L8.5,14 C11.5375661,14 14,11.5375661 14,8.5 L14,5.5 C14,3.56700338 12.4329966,2 10.5,2 C8.56700338,2 7,3.56700338 7,5.5 L7,9.17157288 L9.77817459,6.63603897 C10.1686989,6.24551468 10.8018639,6.24551468 11.1923882,6.63603897 C11.5829124,7.02656326 11.5829124,7.65972824 11.1923882,8.05025253 L6.24264069,13 L1.29289322,8.05025253 C0.902368927,7.65972824 0.902368927,7.02656326 1.29289322,6.63603897 C1.68341751,6.24551468 2.31658249,6.24551468 2.70710678,6.63603897 L5,9.17157288 Z"/></svg>