<svg width="64" height="64" viewBox="0 0 64 64" fill="none" xmlns="http://www.w3.org/2000/svg">
<g id="m/mime_video_mov/mime_video_mov_64x64">
<g id="64/baseshape">
<g id="64/baseshape_2">
<path id="OutsideBorder" d="M58 60C58 61.1046 57.1046 62 56 62H15C13.8954 62 13 61.1046 13 60V4C13 2.89543 13.8954 2 15 2H44L58 17V60Z" fill="#ECF0F4"/>
</g>
<path id="Shape" d="M30 51C29.8 51 29.6 51 29.6 50.7837C29.2 50.7837 29 50.3511 29 49.9185V23.9614C29 23.5288 29.2 23.0961 29.6 23.0961C30 23.0961 30.4 22.8798 30.6 23.0961L48.6 36.0747C48.8 36.291 49 36.5073 49 36.9399C49 37.3725 48.8 37.5888 48.6 37.8052L30.6 50.7837C30.4 51 30.2 51 30 51Z" fill="#91A0AF"/>
</g>
<g id="64/corner">
<path id="InsideWhite" fill-rule="evenodd" clip-rule="evenodd" d="M44 17V2L58 17H44Z" fill="#D8E0E8"/>
</g>
<g id="64/chard/color/yellow">
<path id="Shape_2" d="M14 19V56L32 59V16L14 19Z" fill="#ECF0F4"/>
<path id="Chard" d="M30 18.4318V56.6364L6 53V22L30 18.4318Z" fill="#EC0000"/>
</g>
<g id="64/chard/letter/a">
<path id="M" fill-rule="evenodd" clip-rule="evenodd" d="M9.59961 46V29.2H13.5836L17.9996 36.304L22.4156 29.2H26.3996V46H22.7276V35.032L17.9996 42.208H17.9036L13.2236 35.104V46H9.59961Z" fill="white"/>
</g>
</g>
</svg>
