<svg xmlns="http://www.w3.org/2000/svg" width="24" height="24" viewBox="0 0 24 24">
  <g fill="none" fill-rule="evenodd">
    <path fill="#007AE6" d="M18,22 L18,2.00246167 C18,1.44881738 18.4438648,1 19,1 C19.5522847,1 20,1.43945834 20,2.00246167 L20,22 L24,22 L24,24 L0,24 L0,22 L4,22 L4,2.00246167 C4,1.44881738 4.44386482,1 5,1 C5.55228475,1 6,1.43945834 6,2.00246167 L6,22 L11,22 L11,2.00246167 C11,1.44881738 11.4438648,1 12,1 C12.5522847,1 13,1.43945834 13,2.00246167 L13,22 L18,22 Z"/>
    <path fill="#FF0000" d="M5,21 C3.34314575,21 2,19.6568542 2,18 C2,16.3431458 3.34314575,15 5,15 C6.65685425,15 8,16.3431458 8,18 C8,19.6568542 6.65685425,21 5,21 Z M12,15 C10.3431458,15 9,13.6568542 9,12 C9,10.3431458 10.3431458,9 12,9 C13.6568542,9 15,10.3431458 15,12 C15,13.6568542 13.6568542,15 12,15 Z"/>
    <path fill="#FFD531" d="M5,15 C3.34314575,15 2,13.6568542 2,12 C2,10.3431458 3.34314575,9 5,9 C6.65685425,9 8,10.3431458 8,12 C8,13.6568542 6.65685425,15 5,15 Z M19,21 C17.3431458,21 16,19.6568542 16,18 C16,16.3431458 17.3431458,15 19,15 C20.6568542,15 22,16.3431458 22,18 C22,19.6568542 20.6568542,21 19,21 Z"/>
    <path fill="#1A96F1" d="M5,9 C3.34314575,9 2,7.65685425 2,6 C2,4.34314575 3.34314575,3 5,3 C6.65685425,3 8,4.34314575 8,6 C8,7.65685425 6.65685425,9 5,9 Z M12,21 C10.3431458,21 9,19.6568542 9,18 C9,16.3431458 10.3431458,15 12,15 C13.6568542,15 15,16.3431458 15,18 C15,19.6568542 13.6568542,21 12,21 Z"/>
  </g>
</svg>
