<svg width="16" height="16" xmlns="http://www.w3.org/2000/svg"><g fill="none" fill-rule="evenodd"><path d="M8 16c4.4182782 0 8-3.5817218 8-8 0-4.41827822-3.5817218-8-8-8-4.41827822 0-8 3.58172178-8 8 0 4.4182782 3.58172178 8 8 8z" fill="#AED4FF"/><path d="M7.58072464 9.19724638l.15176811.05994203.09692754.03252173.1217971-.00255072.12115942-.00765217.09501449-.03953624.14475363-.07142029c.27994203-.2129855 2.53669567-1.93153623 4.68695647-4.37130434C10.6205507 5.95655072 8.68455072 7.31034783 7.89446377 7.89c-.71228986-.43489855-2.28098551-1.32191304-4.25588406-1.99275362 1.79826087 1.91750724 3.64626087 3.10933333 3.94214493 3.3z" fill="#262626"/></g></svg>