<svg width="24" height="24" xmlns="http://www.w3.org/2000/svg"><g fill="none" fill-rule="evenodd"><path d="M12 24c6.6274173 0 12-5.3725827 12-12 0-6.62741733-5.3725827-12-12-12C5.37258267 0 0 5.37258267 0 12c0 6.6274173 5.37258267 12 12 12z" fill="#AED4FF"/><path d="M11.371087 13.7958696l.2276521.089913.1453913.0487826.1826957-.0038261.1817391-.0114782.1425218-.0593044.2171304-.1071304c.419913-.3194783 3.8050435-2.8973044 7.0304348-6.55695653C15.9308261 8.93482609 13.0268261 10.9655217 11.8416957 11.835c-1.0684348-.6523478-3.42147831-1.98286957-6.38382613-2.98913043 2.6973913 2.87626083 5.46939133 4.66400003 5.91321743 4.95000003z" fill="#262626"/></g></svg>