<svg width="64" height="64" viewBox="0 0 64 64" fill="none" xmlns="http://www.w3.org/2000/svg">
<g id="m/mime_data_sql/mime_data_sql_64x64">
<g id="64/baseshape">
<g id="64/baseshape_2">
<path id="OutsideBorder" d="M58 60C58 61.1046 57.1046 62 56 62H15C13.8954 62 13 61.1046 13 60V4C13 2.89543 13.8954 2 15 2H44L58 17V60Z" fill="#ECF0F4"/>
</g>
<path id="Shape" fill-rule="evenodd" clip-rule="evenodd" d="M52 27.0147C51.9962 23.0812 44.969 20 36 20C27.0285 20 20 23.0825 20 27.0172V50.1843C20 54.0056 27.0285 57 36 57C44.9715 57 52 54.0056 52 50.1831V27.016V27.0147ZM50.72 50.1831C50.72 52.8598 44.8051 55.7241 36 55.7241C27.1949 55.7241 21.28 52.8598 21.28 50.1843V45.0554C23.6979 47.5612 29.3069 49.2772 36 49.2772C42.6931 49.2772 48.3021 47.5599 50.72 45.0554V50.1831ZM36 48.0013C44.8051 48.0013 50.72 45.0324 50.72 42.26V37.4002C48.3021 39.9047 42.6931 41.622 36 41.622C29.3069 41.622 23.6979 39.906 21.28 37.4002V42.26C21.28 45.0324 27.1949 48.0013 36 48.0013ZM50.72 34.6048C50.72 37.3772 44.8051 40.3462 36 40.3462C27.1949 40.3462 21.28 37.3772 21.28 34.6048V29.8127C23.6979 32.3172 29.3069 34.0345 36 34.0345C42.6931 34.0345 48.3021 32.3172 50.72 29.8127V34.6048ZM21.28 27.0172C21.28 29.7897 27.1949 32.7586 36 32.7586C44.8051 32.7586 50.72 29.7897 50.72 27.0172C50.72 24.2448 44.8051 21.2759 36 21.2759C27.1949 21.2759 21.28 24.2448 21.28 27.0172Z" fill="#91A0AF"/>
</g>
<g id="64/corner">
<path id="InsideWhite" fill-rule="evenodd" clip-rule="evenodd" d="M44 17V2L58 17H44Z" fill="#D8E0E8"/>
</g>
<g id="64/chard/color/yellow">
<path id="Shape_2" d="M14 19V56L32 59V16L14 19Z" fill="#ECF0F4"/>
<path id="Chard" d="M30 18.4318V56.6364L6 53V22L30 18.4318Z" fill="#951B81"/>
</g>
<g id="64/chard/letter/a">
<path id="S" fill-rule="evenodd" clip-rule="evenodd" d="M18.3121 46.24C15.7681 46.24 13.2001 45.352 11.1841 43.552L13.3681 40.936C14.8801 42.184 16.4641 42.976 18.3841 42.976C19.8961 42.976 20.8081 42.376 20.8081 41.392V41.344C20.8081 40.408 20.2321 39.928 17.4241 39.208C14.0401 38.344 11.8561 37.408 11.8561 34.072V34.024C11.8561 30.976 14.3041 28.96 17.7361 28.96C20.1841 28.96 22.2721 29.728 23.9761 31.096L22.0561 33.88C20.5681 32.848 19.1041 32.224 17.6881 32.224C16.2721 32.224 15.5281 32.872 15.5281 33.688V33.736C15.5281 34.84 16.2481 35.2 19.1521 35.944C22.5601 36.832 24.4801 38.056 24.4801 40.984V41.032C24.4801 44.368 21.9361 46.24 18.3121 46.24Z" fill="white"/>
</g>
</g>
</svg>
