<svg width="16" height="16" xmlns="http://www.w3.org/2000/svg"><g fill="none" fill-rule="evenodd"><path d="M14.108398 13.116455c-1e-7-1.2807081-1.3584094-1.8048002-1.876457-1.8985051-.5710392-.1249399-1.2160458-.2638239-1.6068585-.3502778-.0575455-.0216135-.4650258-.2914461-.4842076-.3113863-.18174451-.1848998-3.55030953-.1848998-3.732054 0-.01918184.0200796-.48959361.1664944-.54700112.1881079-.39081271.0864539-1.52258433.3486163-2.09320952.4735562-.51818564.0937049-1.80870436.7003008-1.80870436 1.8985052 0 1.1982043.0491273 2.8766801 1.03648534 2.8787305.98735803.0020504 3.52940298.0039596 5.00367738-.0020504 1.76988696.0072148 4.37640578.0079775 5.17449768 0 .7980919-.0079775.9338319-1.5959721.9338317-2.8766802z" fill="#0D6FE0"/><path d="M10.6068929 10.8532715c-.70741432-1.11778849-.78366986-1.9238866-.78366986-2.85180666.37612416-.59199389-3.79370997-.5917769-3.41758579 0 0 .92792005-.15417378 1.94436294-.90960454 2.82436116-.02097691.0244359 2.81831869 3.5798543 5.11086019.0274455z" fill="#F2B566"/><path d="M9.96630497 9.53574963c.44483283-.40982341.88471503-.80130677 1.00894043-1.38681569.2035533-.96034819.3117997-2.40419998.2170493-2.95907104.237502-.24884512 0-1.3604489 0-1.85799438 0-.49783501-.7244813-1.81852149-5.351329-.97900322-.05579279-.01259426-1.22712614 2.63375312-1.03325895 2.8369976-.09502863.55487106.01349601 1.99872285.21691014 2.95907104.20355326.96005866.79086973 1.38681569 1.4087583 1.51995673.61788857.13314105 3.08809698.27668238 3.53292978-.13314104z" fill="#FBBB69"/><path d="M5.67158203 4.68407763c.51684008-.42608792 3.30370487-.78225287 3.7905936-1.6071123.14438152.22277832.14438131.09753217.14438131.61501802 0 .51748586 0 .62747479-.14438153.99209428.53665829-.13337374.71837519-.42524791.86630899-.7475871.9195475.71999967.8042468 2.28022481.8042468 3.00784541.237502-.23927543.4747398-1.65197809.4747398-2.13038975 0-.47869005.1003157-3.13800187-2.99319299-3.73987909-.0557928-.01210992-.11269866-.01837368-.16849146-.03173635-.2208059-.05247635-.67688765-.06027124-.89157164 0-.05509713.0153114-.11269867.01962643-.16849146.03173635-3.09364787.60187722-2.99319301 3.26118904-2.99319301 3.73987909 0 .47841166.23341159 1.50905765.47091358 1.74847227-.01853929.10408777.29129793-1.45225291.80813801-1.87834083z" fill="#B26714"/><path d="M11.3401693 5.19976194v-.31268189c0-1.90379011-1.55857956-3.4530655-3.3401693-3.4530655-1.78123077 0-3.33015951 1.54927539-3.33015951 3.4530655v2.44625328H4.6666611c-.00210005.74437926-.59824654 1.33333334-1.33332777 1.33333334C2.59181976 8.66666667 2 8.0679463 2 7.3293873V5.33727937C2 4.59103656 2.59695367 4 3.33333333 4c.24766408 0 .47862911.06679006.6764219.18327269C4.34064552 2.19005483 6.04712345.66666667 8 .66666667c1.9514018 0 3.6643202 1.52058672 3.9990469 3.51110655C12.1953777 4.06449444 12.423415 4 12.6666667 4 13.4081802 4 14 4.59872037 14 5.33727937V7.3293873c0 .6098434-.3986731 1.11603292-.9463117 1.28070281-.068558.10010628-.141505.19883527-.2189837.29559931-.7310329.91299445-1.7135937 1.47276208-2.96417703 1.48865678-.12241639.1655835-.32023748.2723205-.54344017.2723205H8.00624593c-.37734381 0-.6729126-.2984769-.6729126-.6666667 0-.37075679.30127324-.66666667.6729126-.66666667H9.3270874c.27718279 0 .51024119.16105296.61443643.3924866.94880887-.03351939 1.69998547-.44719389 2.28646057-1.13251972-.5231329-.18136161-.8946511-.67874502-.8946511-1.26391291V5.33727937c0-.04647626.0023155-.09235049.006836-.13751743z" fill="#262626"/></g></svg>