<?xml version="1.0" encoding="UTF-8"?><svg xmlns="http://www.w3.org/2000/svg" width="24" height="24" viewBox="0 0 24 24"><title>u/user_headset/user_headset_24x24</title><g fill="none" fill-rule="evenodd"><path d="M0 0h24v24H0z"/><path fill="#0D6FE0" d="M21.163 19.675c0-1.92-2.038-2.708-2.815-2.848-.857-.187-1.824-.396-2.41-.525-.087-.033-.698-.438-.727-.468-.27-.277-5.324-.277-5.597 0-.03.03-.734.25-.82.283-.586.13-2.284.523-3.14.71-.777.14-2.713 1.05-2.713 2.848 0 1.797.074 4.315 1.555 4.318 1.48.003 5.294.006 7.505-.003 2.655.01 6.565.012 7.762 0 1.197-.012 1.4-2.394 1.4-4.315z"/><path fill="#F2B566" d="M15.91 16.28c-1.06-1.677-1.175-2.886-1.175-4.278.564-.888-5.69-.887-5.127 0 0 1.392-.23 2.917-1.364 4.237-.03.035 4.228 5.37 7.666.04z"/><path fill="#FBBB69" d="M14.95 14.304c.667-.615 1.327-1.202 1.513-2.08.305-1.44.468-3.607.325-4.44.357-.372 0-2.04 0-2.786 0-.747-1.086-2.728-8.027-1.47C8.68 3.51 6.92 7.48 7.213 7.786c-.143.832.02 2.998.325 4.438.305 1.44 1.186 2.08 2.113 2.28.927.2 4.632.415 5.3-.2z"/><path fill="#B26714" d="M8.507 7.026c.776-.64 4.956-1.173 5.686-2.41.217.334.217.146.217.922s0 .94-.217 1.488c.805-.2 1.078-.638 1.3-1.12 1.38 1.08 1.206 3.42 1.206 4.51.355-.358.71-2.477.71-3.195 0-.717.152-4.706-4.49-5.61-.082-.017-.168-.026-.25-.047-.333-.078-1.017-.09-1.34 0-.08.023-.168.03-.25.048-4.642.904-4.49 4.893-4.49 5.61 0 .72.35 2.265.705 2.624-.028.156.437-2.18 1.212-2.818z"/><path fill="#262626" d="M17.01 7.8v-.47c0-2.855-2.338-5.18-5.01-5.18-2.672 0-4.995 2.325-4.995 5.18V11H7c-.003 1.117-.897 2-2 2-1.112 0-2-.898-2-2.006V8.006C3 6.886 3.895 6 5 6c.37 0 .718.1 1.015.275C6.51 3.285 9.07 1 12 1c2.927 0 5.496 2.28 6 5.267.293-.17.635-.267 1-.267 1.112 0 2 .898 2 2.006v2.988c0 .915-.598 1.674-1.42 1.92-.102.15-.212.3-.328.445-1.096 1.368-2.57 2.208-4.446 2.232-.184.248-.48.408-.815.408h-1.98c-.567 0-1.01-.448-1.01-1 0-.556.452-1 1.01-1h1.98c.416 0 .766.242.922.59 1.423-.052 2.55-.672 3.43-1.7-.785-.272-1.342-1.018-1.342-1.896V8.006c0-.07.003-.14.01-.206z"/></g></svg>