<svg width="64" height="64" viewBox="0 0 64 64" fill="none" xmlns="http://www.w3.org/2000/svg">
<g id="m/mime_data_mdb/mime_data_mdb_64x64">
<g id="64/baseshape">
<g id="64/baseshape_2">
<path id="OutsideBorder" d="M58 60C58 61.1046 57.1046 62 56 62H15C13.8954 62 13 61.1046 13 60V4C13 2.89543 13.8954 2 15 2H44L58 17V60Z" fill="#ECF0F4"/>
</g>
<path id="Shape" fill-rule="evenodd" clip-rule="evenodd" d="M52 27.0147C51.9962 23.0812 44.969 20 36 20C27.0285 20 20 23.0825 20 27.0172V50.1843C20 54.0056 27.0285 57 36 57C44.9715 57 52 54.0056 52 50.1831V27.016V27.0147ZM50.72 50.1831C50.72 52.8598 44.8051 55.7241 36 55.7241C27.1949 55.7241 21.28 52.8598 21.28 50.1843V45.0554C23.6979 47.5612 29.3069 49.2772 36 49.2772C42.6931 49.2772 48.3021 47.5599 50.72 45.0554V50.1831ZM36 48.0013C44.8051 48.0013 50.72 45.0324 50.72 42.26V37.4002C48.3021 39.9047 42.6931 41.622 36 41.622C29.3069 41.622 23.6979 39.906 21.28 37.4002V42.26C21.28 45.0324 27.1949 48.0013 36 48.0013ZM50.72 34.6048C50.72 37.3772 44.8051 40.3462 36 40.3462C27.1949 40.3462 21.28 37.3772 21.28 34.6048V29.8127C23.6979 32.3172 29.3069 34.0345 36 34.0345C42.6931 34.0345 48.3021 32.3172 50.72 29.8127V34.6048ZM21.28 27.0172C21.28 29.7897 27.1949 32.7586 36 32.7586C44.8051 32.7586 50.72 29.7897 50.72 27.0172C50.72 24.2448 44.8051 21.2759 36 21.2759C27.1949 21.2759 21.28 24.2448 21.28 27.0172Z" fill="#91A0AF"/>
</g>
<g id="64/corner">
<path id="InsideWhite" fill-rule="evenodd" clip-rule="evenodd" d="M44 17V2L58 17H44Z" fill="#D8E0E8"/>
</g>
<g id="64/chard/color/yellow">
<path id="Shape_2" d="M14 19V56L32 59V16L14 19Z" fill="#ECF0F4"/>
<path id="Chard" d="M30 18.4318V56.6364L6 53V22L30 18.4318Z" fill="#951B81"/>
</g>
<g id="64/chard/letter/a">
<path id="M" fill-rule="evenodd" clip-rule="evenodd" d="M9.6001 46V29.2H13.5841L18.0001 36.304L22.4161 29.2H26.4001V46H22.7281V35.032L18.0001 42.208H17.9041L13.2241 35.104V46H9.6001Z" fill="white"/>
</g>
</g>
</svg>
