<svg xmlns="http://www.w3.org/2000/svg" width="16" height="16" viewBox="0 0 16 16"><g fill="none" fill-rule="evenodd"><path fill="#4789F5" d="M9.14285714,1 C5.35619048,1 2.28571429,4.13444444 2.28571429,8 L0,8 L3.01714286,11.1344444 L6.0952381,8 L3.80952381,8 C3.80952381,4.99 6.19428571,2.55555556 9.14285714,2.55555556 C12.0914286,2.55555556 14.4761905,4.99 14.4761905,8 C14.4761905,11.01 12.0914286,13.4444444 9.14285714,13.4444444 C7.67238095,13.4444444 6.33904762,12.83 5.37904762,11.8422222 L4.29714286,12.9466667 C5.53904762,14.2144444 7.24571429,15 9.14285714,15 C12.9295238,15 16,11.8655556 16,8 C16,4.13444444 12.9295238,1 9.14285714,1 Z"/><path fill="#868686" d="M8,5.50280762 L8,8.97877984 L11.0086742,10.7548292 C11.2287248,10.8847272 11.5124143,10.811644 11.6423123,10.5915934 C11.6455662,10.5860812 11.6487054,10.5805021 11.6517278,10.5748596 L11.6517278,10.5748596 C11.7796384,10.3360659 11.6993966,10.0389614 11.4686602,9.89703082 L9.00561523,8.38196286 L9.00561523,5.50280762 C9.00561523,5.22511464 8.7805006,5 8.50280762,5 L8.50280762,5 C8.22511464,5 8,5.22511464 8,5.50280762 Z"/></g></svg>