<svg xmlns="http://www.w3.org/2000/svg" width="16" height="16" viewBox="0 0 16 16"><path fill="#516072" fill-rule="evenodd" d="M6.96992481,10.3571429 L6.96992481,9.96428571 C6.96992481,9.39682256 7.06014947,8.93000624 7.2406015,8.56382275 C7.42105353,8.19763926 7.75688977,7.8108486 8.2481203,7.40343915 C8.92982797,6.84567622 9.35964823,6.42614779 9.53759398,6.14484127 C9.71553974,5.86353475 9.80451128,5.52403197 9.80451128,5.12632275 C9.80451128,4.63161128 9.64035252,4.24967066 9.31203008,3.98048942 C8.98370763,3.71130818 8.51128128,3.57671958 7.89473684,3.57671958 C7.49874489,3.57671958 7.11278383,3.62158244 6.73684211,3.71130952 C6.36090038,3.8010366 5.92982699,3.96472544 5.44360902,4.20238095 L5,3.2202381 C5.94737316,2.74007696 6.9373382,2.5 7.96992481,2.5 C8.92732308,2.5 9.67167654,2.72795187 10.2030075,3.18386243 C10.7343385,3.639773 11,4.28240326 11,5.11177249 C11,5.46583069 10.9511283,5.77744574 10.8533835,6.04662698 C10.7556386,6.31580822 10.6115298,6.57043531 10.4210526,6.81051587 C10.2305755,7.05059644 9.81955203,7.4373871 9.18796992,7.97089947 C8.68170173,8.38800914 8.34711861,8.73478698 8.18421053,9.01124339 C8.02130244,9.28769979 7.93984962,9.65630281 7.93984962,10.1170635 L7.93984962,10.3571429 L6.96992481,10.3571429 Z M6.60150376,12.5178571 C6.60150376,11.8582419 6.90225263,11.5284392 7.5037594,11.5284392 C7.79448767,11.5284392 8.0187962,11.6133148 8.17669173,11.7830688 C8.33458726,11.9528227 8.41353383,12.1977497 8.41353383,12.5178571 C8.41353383,12.8282643 8.33333414,13.0695538 8.17293233,13.2417328 C8.01253053,13.4139118 7.78947511,13.5 7.5037594,13.5 C7.24310647,13.5 7.02756977,13.4236119 6.85714286,13.2708333 C6.68671594,13.1180548 6.60150376,12.8670652 6.60150376,12.5178571 Z"/></svg>