<svg width="24" height="24" xmlns="http://www.w3.org/2000/svg"><g fill="none" fill-rule="nonzero"><path d="M9.75 1.5c3.3046875 0 6 2.6953125 6 6s-2.6953125 6-6 6-6-2.6953125-6-6 2.6953125-6 6-6z" fill="red"/><path d="M16.5 18.75c4.1015625 0 8.15625-1.5234375 7.40625-2.8828125L16.5 2.6015625l-7.40625 13.265625C8.34375 17.2265625 12.3984375 18.75 16.5 18.75z" fill="#FAD00A"/><path d="M10.546875 13.2421875l4.5703125 1.171875-.703125 4.21875c-3.2578125-.3984375-5.953125-1.640625-5.3203125-2.765625l1.453125-2.625z" fill="#DAAE00"/><path fill="#57D31A" d="M0 11.25l6.75-3 6.75 3v8.25l-6.75 3-6.75-3z"/><path fill="#57D31A" d="M0 11.25l6.75-3 6.75 3-6.75 3z"/><path fill="#3BB100" d="M13.5 11.25l-6.75 3v8.25l6.75-3z"/></g></svg>