<svg width="16" height="16" xmlns="http://www.w3.org/2000/svg"><g fill="none" fill-rule="nonzero"><path d="M6.5 1c2.203125 0 4 1.796875 4 4s-1.796875 4-4 4-4-1.796875-4-4 1.796875-4 4-4z" fill="red"/><path d="M11 12.5c2.734375 0 5.4375-1.015625 4.9375-1.921875L11 1.734375l-4.9375 8.84375C5.5625 11.484375 8.265625 12.5 11 12.5z" fill="#FAD00A"/><path d="M7.03125 8.828125l3.046875.78125-.46875 2.8125c-2.171875-.265625-3.96875-1.09375-3.546875-1.84375l.96875-1.75z" fill="#DAAE00"/><path fill="#57D31A" d="M0 7.5l4.5-2 4.5 2V13l-4.5 2L0 13z"/><path fill="#57D31A" d="M0 7.5l4.5-2 4.5 2-4.5 2z"/><path fill="#3BB100" d="M9 7.5l-4.5 2V15L9 13z"/></g></svg>