<?xml version="1.0" encoding="UTF-8" standalone="no"?>
<svg width="16px" height="16px" viewBox="0 0 16 16" version="1.1" xmlns="http://www.w3.org/2000/svg" xmlns:xlink="http://www.w3.org/1999/xlink">
    <!-- Generator: Sketch 43.2 (39069) - http://www.bohemiancoding.com/sketch -->
    <title>photo_portrait_user_16x16</title>
    <desc>Created with Sketch.</desc>
    <defs>
        <circle id="path-1" cx="8" cy="8" r="8"></circle>
    </defs>
    <g id="16,-24,-32-en-48-svg" stroke="none" stroke-width="1" fill="none" fill-rule="evenodd">
        <g id="photo_portrait_user_16x16">
            <g id="Oval-Copy-2">
                <use fill="#D1D4E6" fill-rule="evenodd" xlink:href="#path-1"></use>
                <circle stroke-opacity="0.2" stroke="#6B72A2" stroke-width="0.5" cx="8" cy="8" r="7.75"></circle>
            </g>
            <path d="M2,13.213758 C3.45072698,14.9196724 5.60061063,16 7.99999615,16 C10.3993859,16 12.5492729,14.9196685 14,13.2137489 C13.5850736,12.6384714 12.9764419,12.2081699 12.2530007,12.0255556 L10.1484721,11.4938889 L9.96938668,10.7694444 C10.5330114,10.2055556 10.9186494,9.43111111 11.0329125,8.63611111 C11.3449387,8.54777778 11.5866491,8.27611111 11.6283991,7.93722222 L11.7657345,6.82611111 C11.7948496,6.59166667 11.7234352,6.355 11.5701688,6.17666667 C11.4800768,6.07166667 11.3658137,5.99277778 11.2400144,5.94444444 L11.2905538,4.89833333 L11.4960077,4.69055556 C11.8058365,4.35777778 12.0623791,3.78666667 11.5256721,2.95944444 C11.1136658,2.32277778 10.4138042,2 9.44531455,2 C9.06352197,2 8.18292699,2 7.36275961,2.55666667 C5.02201399,2.60611111 4.70394506,3.705 4.70394506,4.77777778 C4.70394506,5.02722222 4.76382332,5.58888889 4.80337593,5.92722222 C4.66219508,5.97277778 4.53419842,6.05555556 4.43421821,6.17 C4.27820512,6.34944444 4.20514266,6.58777778 4.23425778,6.82555556 L4.37159324,7.93666667 C4.41608993,8.29833333 4.68856348,8.58333333 5.03190214,8.65111111 C5.14616524,9.41444444 5.51147757,10.1644444 6.0421418,10.7188889 L5.85097084,11.4933333 L3.74644221,12.025 C3.02332815,12.2078963 2.41485989,12.6383001 2,13.213758 Z" id="Peep-Copy" fill="#5D5C65"></path>
        </g>
    </g>
</svg>