<?xml version="1.0" encoding="UTF-8" standalone="no"?>
<svg width="24px" height="24px" viewBox="0 0 24 24" version="1.1" xmlns="http://www.w3.org/2000/svg" xmlns:xlink="http://www.w3.org/1999/xlink">
    <!-- Generator: Sketch 43.2 (39069) - http://www.bohemiancoding.com/sketch -->
    <title>photo_portrait_user_24x24</title>
    <desc>Created with Sketch.</desc>
    <defs>
        <circle id="path-1" cx="12" cy="12" r="12"></circle>
    </defs>
    <g id="16,-24,-32-en-48-svg" stroke="none" stroke-width="1" fill="none" fill-rule="evenodd">
        <g id="photo_portrait_user_24x24">
            <g id="Oval">
                <use fill="#D1D4E6" fill-rule="evenodd" xlink:href="#path-1"></use>
                <circle stroke-opacity="0.2" stroke="#6B72A2" stroke-width="0.5" cx="12" cy="12" r="11.75"></circle>
            </g>
            <path d="M2.89820519,19.820637 C5.09890982,22.3795085 8.36021188,24 12,24 C15.6397946,24 18.9011017,22.3795028 21.1018065,19.8206234 C20.4723769,18.9577071 19.5491029,18.3122548 18.4516667,18.0383333 L15.2591667,17.2408333 L14.9875,16.1541667 C15.8425,15.3083333 16.4275,14.1466667 16.6008333,12.9541667 C17.0741667,12.8216667 17.4408333,12.4141667 17.5041667,11.9058333 L17.7125,10.2391667 C17.7566667,9.8875 17.6483333,9.5325 17.4158333,9.265 C17.2791667,9.1075 17.1058333,8.98916667 16.915,8.91666667 L16.9916667,7.3475 L17.3033333,7.03583333 C17.7733333,6.53666667 18.1625,5.68 17.3483333,4.43916667 C16.7233333,3.48416667 15.6616667,3 14.1925,3 C13.6133333,3 12.2775,3 11.0333333,3.835 C7.4825,3.90916667 7,5.5575 7,7.16666667 C7,7.54083333 7.09083333,8.38333333 7.15083333,8.89083333 C6.93666667,8.95916667 6.7425,9.08333333 6.59083333,9.255 C6.35416667,9.52416667 6.24333333,9.88166667 6.2875,10.2383333 L6.49583333,11.905 C6.56333333,12.4475 6.97666667,12.875 7.4975,12.9766667 C7.67083333,14.1216667 8.225,15.2466667 9.03,16.0783333 L8.74,17.24 L5.5475,18.0375 C4.45056,18.3118444 3.52753386,18.9574501 2.89820519,19.820637 Z" id="Peep" fill="#5D5C65"></path>
        </g>
    </g>
</svg>