<?xml version="1.0" encoding="UTF-8"?><svg xmlns="http://www.w3.org/2000/svg" width="24" height="25" viewBox="0 0 24 25"><title>u/users2/users2_24x24</title><g fill="none" fill-rule="evenodd"><path d="M0 0h24v24H0z"/><path fill="#663600" d="M19.27 16.447c3.372.94 4.302-.868 4.375-1.62-.734.18-2.127.293-1.95-2.71.063-1.093-.208-3.36-.895-5.09-1.15-2.894-3.553-2.756-3.99-2.756-.05 0-.124.002-.212.01-.09-.008-.16-.01-.214-.01-.435 0-2.838-.137-3.988 2.756-.688 1.73-.958 3.998-.894 5.092.176 3.002-2.194 2.89-2.927 2.708.16.717 1.964 2.79 5.464 1.678-.14.377 5.367.31 5.23-.057z"/><path fill="#0D6FE0" d="M24 19.298c0-.548-.437-1.06-.998-1.148 0 0-.383-.055-1.034-.17-.717-.153-1.528-.323-2.02-.43-.07-.026-.28-.05-.303-.075-.13-.13-5.857-.13-5.99 0-.023.024-.23.05-.303.076-.49.107-1.3.277-2.02.43-.65.115-1.31.228-1.763.326-1.168.252-1.346.857-1.65 1.386-.254.44-.87 4.308-.87 4.308h14.956c1.1 0 1.994-.89 1.994-1.99v-2.712z"/><path fill="#F2B566" d="M16.65 21.91c1.763-.527 2.784-2.625 2.915-4.417.01-.157-.636.047-.752-.795-.117-.842-.622-2.668-2.163-2.668-1.317 0-1.994 1.214-2.285 2.777-.05.267-.24.532-.493.686-1.36.836.787 3.844 2.778 4.416z"/><path fill="#FBBB69" d="M20.684 9.884c.163.558.252 1.16.252 1.79 0 2.92-1.926 5.286-4.302 5.286-2.376 0-4.303-2.367-4.303-5.287 0-.716.117-1.4.327-2.02.16.014.323.022.488.022 1.91 0 3.51-1.062 3.95-2.496.61 1.46 1.968 2.525 3.59 2.704z"/><path fill="#F00" d="M14.13 17.546c-.902-.2-1.92-.42-2.538-.557-.09-.036-.735-.465-.765-.497-.287-.294-5.607-.294-5.894 0-.03.032-.773.265-.864.3-.618.137-3.794.876-4.07.997.006 1.494.002 4.217.002 4.217 0 1.105.903 2 1.99 2L16.733 24c.292-.922.36-2.277.36-3.435 0-2.037-2.144-2.87-2.962-3.02z"/><path fill="#F2B566" d="M11.366 17.315c-1.115-1.773-1.115-3.304-1.115-4.777.594-.94-5.977-.94-5.384 0 0 1.473.307 3.732-.884 5.128-.033.04 5.678 2.18 7.384-.35z"/><path fill="#FBBB69" d="M10.694 14.988c.703-.646 1.398-1.262 1.594-2.185.322-1.512.493-3.787.343-4.66.376-.393 0-2.144 0-2.928 0-.784-1.144-2.865-8.454-1.542-.088-.02-1.94 4.15-1.632 4.47-.15.873.02 3.148.342 4.66.322 1.513 1.25 2.185 2.226 2.395.976.21 4.88.436 5.582-.21z"/><path fill="#B26714" d="M3.804 7.293c.82-.667 5.244-1.225 6.017-2.516.23.35.23.153.23.963 0 .81 0 .982-.23 1.553.853-.21 1.142-.666 1.376-1.17 1.46 1.127 1.4 3.59 1.4 4.728.376-.374.63-2.605.63-3.354 0-.75.16-4.913-4.75-5.855-.09-.018-.18-.028-.268-.05-.35-.08-1.075-.093-1.416 0-.087.025-.18.032-.267.05-4.91.943-4.752 5.107-4.752 5.856 0 .75.37 2.363.748 2.738-.03.163.463-2.274 1.284-2.94z"/><path fill="#FFF" d="M10.7 15.928l1.392 1.17-2.51 3.524-.873-2.148 1.99-2.546zM5.98 20.62L3.454 16.94l1.275-.97 2.366 2.472-1.113 2.18z"/></g></svg>