<svg width="16" height="16" xmlns="http://www.w3.org/2000/svg"><g fill="none" fill-rule="evenodd"><path d="M0 0h16v16H0z"/><path d="M12.847 10.965c2.248.626 2.868-.579 2.916-1.081-.489.121-1.418.196-1.3-1.805.042-.73-.138-2.242-.596-3.395-.767-1.929-2.369-1.837-2.66-1.837-.034 0-.083.001-.142.006a1.775 1.775 0 0 0-.142-.006c-.29 0-1.892-.092-2.659 1.837-.459 1.153-.639 2.665-.596 3.395.117 2.001-1.463 1.926-1.951 1.805.107.478 1.309 1.86 3.642 1.119-.092.251 3.579.207 3.488-.038z" fill="#663600"/><path d="M16 12.865a.8.8 0 0 0-.665-.765s-.256-.037-.69-.113L13.3 11.7c-.048-.018-.186-.035-.202-.051-.086-.086-3.905-.087-3.993 0-.016.016-.155.033-.203.05-.327.071-.867.185-1.346.287-.434.076-.874.152-1.176.217-.778.168-.896.571-1.099.924C5.11 13.422 4.7 16 4.7 16h9.97c.735 0 1.33-.593 1.33-1.327v-1.808z" fill="#0D6FE0"/><path d="M11.1 14.606c1.175-.35 1.856-1.75 1.943-2.944.008-.105-.424.031-.501-.53-.078-.561-.415-1.779-1.442-1.779-.878 0-1.33.81-1.523 1.852a.716.716 0 0 1-.329.457c-.907.557.525 2.563 1.852 2.944z" fill="#F2B566"/><path d="M13.79 6.59c.108.371.167.773.167 1.192 0 1.947-1.284 3.525-2.868 3.525-1.584 0-2.868-1.578-2.868-3.525 0-.477.077-.933.217-1.347.107.01.215.015.325.015 1.273 0 2.341-.708 2.634-1.664a2.953 2.953 0 0 0 2.392 1.803z" fill="#FBBB69"/><path d="M9.42 11.697l-1.692-.371c-.06-.023-.49-.31-.51-.33-.191-.197-3.738-.197-3.93 0-.02.02-.515.176-.575.199-.412.092-2.529.584-2.713.665.004.996.001 2.811.001 2.811 0 .737.602 1.334 1.328 1.333L11.155 16c.194-.615.24-1.518.24-2.29 0-1.358-1.43-1.913-1.975-2.013z" fill="red"/><path d="M7.577 11.543c-.743-1.182-.743-2.202-.743-3.184.395-.626-3.985-.626-3.59 0 0 .982.205 2.488-.59 3.418-.021.026 3.786 1.454 4.923-.234z" fill="#F2B566"/><path d="M7.134 10.619l.927.78-1.674 2.349-.581-1.432 1.328-1.697zm-3.147 3.128l-1.685-2.455.85-.647 1.577 1.648-.742 1.454z" fill="#FFF"/><path d="M7.13 9.992c.468-.43.931-.841 1.062-1.457.215-1.008.329-2.524.229-3.107.25-.261 0-1.429 0-1.951 0-.523-.764-1.91-5.637-1.028-.059-.014-1.293 2.766-1.088 2.979-.1.583.014 2.1.228 3.107.215 1.009.833 1.457 1.484 1.597.65.14 3.253.29 3.721-.14z" fill="#FBBB69"/><path d="M2.536 4.862c.547-.445 3.496-.817 4.011-1.677.153.232.153.102.153.642s0 .654-.153 1.035c.568-.14.761-.444.917-.78.973.751.933 2.393.933 3.152.251-.25.421-1.737.421-2.237 0-.499.106-3.275-3.168-3.903-.059-.013-.12-.02-.178-.033-.234-.055-.717-.063-.944 0-.058.016-.12.02-.178.033-3.274.628-3.168 3.404-3.168 3.903 0 .5.247 1.576.499 1.826-.02.108.308-1.516.855-1.961z" fill="#B26714"/></g></svg>