<svg width="24" height="24" xmlns="http://www.w3.org/2000/svg"><g fill="none" fill-rule="evenodd"><path d="M23.9993253 11.8714929C22.5028651 8.97784627 19.4824081 7 16 7c-4.970563 0-9 4.029437-9 9 0 3.4824081 1.97784627 6.5028651 4.8714929 7.9993253C5.30563268 23.930355 0 18.5821116 0 12 0 5.375 5.375 0 12 0c6.5821116 0 11.930355 5.30563268 11.9993253 11.8714929z" fill="#74D425" fill-rule="nonzero"/><path d="M22.7876144 10.0897834c.0962823.0669003.204334.1962931.3123856.3352166.0015737.0165233.0031473.0330467.0047194.04957-.1021946-.1312157-.2079445-.2595261-.317105-.3847866zM10.4637051 23.0962442C8.93908358 22.888744 7.5097024 22.3770611 6.25 21.625c-.1-.25-.1-.525-.175-.85-.225-.8.65-1.275 1.075-1.575.12227168-.0821228.23668351-.1666435.34349805-.253212.57346595 1.6556748 1.61667711 3.091969 2.97020705 4.1494562zm-3.35788807-8.4806375C6.99644212 14.5600936 6.89255705 14.5046928 6.8 14.45c-.425-.275-.65-.725-1.075-1.175-.425-.45-2-1.25-2.175-1.3-.4-.125-.575-.175-.95-.5-.2-.2-.675-.825-.2-1.8C2.575 9.325 3.675 8.15 3.9 8c.525-.425.675-1.125 1.375-1.225.15-.025 1.225-.45 1.625-.9.275-.3.275-1.45.35-1.75.025-.15-.675-.8-.375-1.575C7 2.225 8.45 1.95 8.7 2.275c.15.225-.425 2.15.125 2 .35-.075.95-.05 1.55-.3.575-.275 1.35-.275 1.925-.5.8-.275 1.05-.775 1.25-1.2.175-.4-.5-1.175-.875-1.45 2.725.15 5.175 1.3 7.025 3.05-.55.075-.975-.125-1.525-.475-.4-.25-.825-.275-1.225-.5-.3-.175-.6.05-.85.175-.3.15-.825.2-.975.525-.2.4.375.775.025 1.025-.325.2-.425.425-.625.5-.5.125-.925-.125-1.45.3-.525.425-.525 1.45-.1 1.65.4.2 1.05.3 1.325-.1.15-.25.55-.75.775-.85.425-.2.7.175 1 .325.4922823.26851763.9244799.41686573.9380634.60638248C16.6805174 7.01913093 16.3424928 7 16 7c-4.4997813 0-8.22826955 3.3022962-8.89418297 7.6156067zM17.408473 7.10956804C17.4251272 7.07279088 17.4320787 7.03539329 17.425 7c-.075-.225-.525-.3-.85-.725-.1-.125.525-.25.725.05.1703486.23422938.3769706.64982539.5271792.86059354-.1384337-.02854757-.278029-.05391597-.4187062-.0760255zm1.996202.55671263c.1371236.01192479.2689495.02987169.370325.10871933.0348593.02440153.0624276.05560803.0833149.09165399-.1490047-.07081084-.3002636-.1376476-.4536399-.20037332z" fill="#0D6FE0" fill-rule="nonzero"/><path d="M5.55 21.15c-.625-.725-1.325-1.625-1.525-2.125-.225-.575-.3-1.625-.575-1.95-.575-.65-1.1-1.175-1.2-1.85-.1-.625-.45-1.525-.525-2-.075-.7-.4-1.425-.9-1.975C.8 11.5.8 11.75.8 12c0 3.775 1.875 7.125 4.75 9.15z" fill="#0D6FE0"/><path d="M16 24c4.4182782 0 8-3.5817218 8-8s-3.5817218-8-8-8-8 3.5817218-8 8 3.5817218 8 8 8z" fill="#AED4FF"/><path d="M15.5807246 17.1972464l.1517682.059942.0969275.0325217.1217971-.0025507.1211594-.0076522.0950145-.0395362.1447536-.0714203c.2799421-.2129855 2.5366957-1.9315362 4.6869565-4.3713043-2.3785507 1.1593043-4.3145507 2.5131014-5.1046376 3.0927536-.7122899-.4348986-2.2809855-1.321913-4.2558841-1.9927536 1.7982609 1.9175072 3.6462609 3.1093333 3.9421449 3.3z" fill="#262626"/></g></svg>