<svg width="16" height="16" xmlns="http://www.w3.org/2000/svg"><g fill="none" fill-rule="evenodd"><circle fill="#717F8F" cx="8" cy="8" r="8"/><path d="M7.7123724 15.9949257c-2.322754-.0820829-4.39348068-1.1543894-5.80291654-2.8076559-.00008734-.0329635-.00012253-.0656228-.00012253-.0979365 0-1.21 1.294-1.8226666 1.81333334-1.9173333.4133126-.0910444 1.12074936-.2548366 1.62934914-.3716576L6.26 9.99933333l.00551419.00649177c.02048619-.12209516.03571826-.24564542.04690379-.36939797-.55450985-.17224103-1.05668805-.60426973-1.24175131-1.47576046-.10410794-.49025994-.18338729-1.10639911-.22339504-1.66597498-.00802143.03431395-.01097224.04774623-.00860496.03464164-.23933334-.238-.47466667-1.26266666-.47466667-1.738 0-.476-.10133333-3.11933333 3.01666667-3.718.05666666-.012.11466666-.016.17-.03133333.21666666-.06.676-.052.89866666 0 .056.01333333.11333334.01933333.17.03133333C11.7373333 1.672 11.636 4.31533333 11.636 4.79133333c0 .42053396-.1873306 1.56847431-.3962579 1.99237909-.0439914.47614829-.1133101.96993288-.1997421 1.37695425-.1246667.586-.566.97733333-1.012 1.38733333-.03731189.03430017-.08884539.06472299-.15232284.09159948.02708155.1207339.05984799.24293333.09949268.36679492l.00549683-.00706107.99133333.88399997-.0122232.0146393c.3699164.0813545.8296314.1816341 1.2495565.2740274.5193334.0946667 1.8813334.624 1.8813334 1.9173333 0 .0325159-.000086.0652277-.0002663.0981051-1.4110132 1.6550244-3.484742 2.7278109-5.81058652 2.8077596-.10703959-.000377-.21181203-.0007765-.31381388-.001198-.08144293.0003305-.16613187.0006387-.2536276.0009257z" fill="#D8E0E8"/><path d="M7.32161458 6.98177083v-.39192708c0-.29774454.06076328-.54915262.18229167-.75423177.12152839-.20507915.33723803-.40483844.64713542-.59928386.24609498-.15494869.42306803-.29470423.53092448-.41927083.10785644-.12456659.16178385-.2673603.16178385-.42838541 0-.12760481-.05772512-.22862376-.17317708-.3030599-.11545197-.07443614-.26584109-.11165365-.45117188-.11165365-.45876965 0-.99500561.16254178-1.60872396.48763021l-.63346354-1.23958333c.7565142-.43142577 1.54643686-.64713542 2.36979167-.64713542.67752075 0 1.20919946.14887004 1.59505208.44661459.38585261.29774454.57877601.70333944.57877601 1.21679687 0 .36762337-.0858281.68587105-.2574869.9547526-.1716589.26888156-.4458532.5233278-.82259119.76334636-.31901201.20659825-.5187713.35774692-.59928386.45345052-.08051255.0957036-.12076823.20887521-.12076823.33951823v.23242187H7.32161458zm-.19596354 1.59505209c0-.27951529.08127089-.49522494.24381511-.64713542.16254421-.15191048.40179963-.22786458.71777343-.22786458.30382097 0 .53700006.07671364.69954427.23014323.16254422.15342958.24381511.36837969.24381511.64485677 0 .27647707-.08430905.49066764-.25292969.64257812-.16862063.15191048-.39876156.22786458-.69042969.22786458-.30078275 0-.53624047-.07519456-.70638021-.22558593-.17013973-.15039138-.25520833-.36534149-.25520833-.64485677z" fill="#717F8F"/></g></svg>