<svg width="24" height="24" xmlns="http://www.w3.org/2000/svg"><g fill="none" fill-rule="evenodd"><circle fill="#717F8F" cx="12" cy="12" r="12"/><path d="M11.5685586 23.9923885c-3.484131-.1231243-6.59022102-1.731584-8.70437481-4.2114838C2.86405278 19.7314595 2.864 19.6824705 2.864 19.634c0-1.815 1.941-2.734 2.72-2.876.6199689-.1365666 1.68112404-.382255 2.44402372-.5574864L9.39 14.999l.00827128.0097376c.0307293-.1831427.05357739-.3684681.07035569-.5540969C8.63686219 14.1962792 7.8835949 13.5482361 7.606 12.241c-.15616191-.7353899-.27508092-1.6595987-.33509255-2.49896246C7.2588753 9.79350847 7.25444908 9.81365687 7.258 9.794c-.359-.357-.712-1.894-.712-2.607 0-.714-.152-4.679 4.525-5.577.085-.018.172-.024.255-.047.325-.09 1.014-.078 1.348 0 .084.02.17.029.255.047 4.677.898 4.525 4.863 4.525 5.577 0 .63080094-.2809959 2.35271146-.5943868 2.9885686-.0659871.7142225-.1699652 1.4548994-.2996132 2.0654314-.187.879-.849 1.466-1.518 2.081-.0559678.0514503-.1332681.0970845-.2284843.1373992.0406224.1811009.089772.3644.1492391.5501924L14.971 14.999l1.487 1.326-.0183349.021959c.5548748.1220317 1.2444472.272451 1.8743349.411041.779.142 2.822.936 2.822 2.876 0 .0487738-.0001289.0978415-.0003994.1471576-2.1165198 2.4825366-5.227113 4.0917163-8.7158798 4.2116395-.1605594-.0005656-.317718-.0011649-.4707208-.0017971-.1221644.0004957-.2491978.000958-.3804414.0013885z" fill="#D8E0E8"/><path d="M10.9824219 10.4726562v-.58789058c0-.44661681.0911449-.82372893.2734375-1.13134765.1822926-.30761873.505857-.60725766.9707031-.89892578.3691425-.23242304.6346021-.44205636.7963867-.62890625.1617847-.1868499.2426758-.40104046.2426758-.64257813 0-.1914072-.0865877-.34293564-.2597656-.45458984-.173178-.11165421-.3987617-.16748047-.6767578-.16748047-.6881545 0-1.4925085.24381267-2.41308598.73144531l-.95019531-1.859375c1.13477129-.64713865 2.31965529-.97070312 3.55468749-.97070312 1.0162811 0 1.8137992.22330506 2.3925781.66992187.578779.44661682.8681641 1.05500917.8681641 1.82519532 0 .55143504-.1287422 1.02880657-.3862305 1.4321289-.2574882.40332233-.6687797.78499169-1.2338867 1.14501953-.478518.30989739-.7781569.53662038-.8989258.68017578-.1207688.14355541-.1811523.31331283-.1811523.50927731v.3486328h-2.0986328zm-.2939453 2.3925782c0-.419273.1219063-.7428374.3657226-.9707032.2438163-.2278657.6026995-.3417968 1.0766602-.3417968.4557314 0 .8055001.1150704 1.0493164.3452148.2438163.2301444.3657226.5525696.3657226.9672852 0 .4147156-.1264635.7360014-.3793945.9638672-.2529309.2278657-.5981423.3417968-1.0356445.3417968-.4511742 0-.8043607-.1127918-1.0595703-.3383789-.2552096-.225587-.3828125-.5480122-.3828125-.9672851z" fill="#717F8F"/></g></svg>