<svg width="48" height="48" viewBox="0 0 48 48" fill="none" xmlns="http://www.w3.org/2000/svg">
<g id="m/mime_calc/mime_calc_48x48">
<g id="48/baseshape">
<g id="48/baseshape_2">
<path id="OutsideBorder" d="M44 44C44 45.1046 43.1046 46 42 46H12C10.8954 46 10 45.1046 10 44V4C10 2.89543 10.8954 2 12 2H34L44 12V44Z" fill="#ECF0F4"/>
</g>
<g id="Group">
<rect id="Rectangle-path" x="23" y="37" width="8" height="5" fill="#86BFA0"/>
<rect id="Rectangle-path_2" x="32" y="37" width="8" height="5" fill="#86BFA0"/>
<rect id="Rectangle-path_3" x="23" y="31" width="8" height="5" fill="#86BFA0"/>
<rect id="Rectangle-path_4" x="32" y="31" width="8" height="5" fill="#86BFA0"/>
<rect id="Rectangle-path_5" x="23" y="25" width="8" height="5" fill="#86BFA0"/>
<rect id="Rectangle-path_6" x="32" y="25" width="8" height="5" fill="#86BFA0"/>
<rect id="Rectangle-path_7" x="23" y="19" width="8" height="5" fill="#86BFA0"/>
<rect id="Rectangle-path_8" x="32" y="19" width="8" height="5" fill="#86BFA0"/>
<rect id="Rectangle-path_9" x="23" y="13" width="8" height="5" fill="#86BFA0"/>
<rect id="Rectangle-path_10" x="32" y="13" width="8" height="5" fill="#86BFA0"/>
<rect id="Rectangle-path_11" x="14" y="13" width="8" height="5" fill="#91A0AF"/>
<rect id="Rectangle-path_12" x="23" y="7" width="8" height="5" fill="#91A0AF"/>
<path id="Rectangle-path_13" fill-rule="evenodd" clip-rule="evenodd" d="M32 7H35L40 12H32V7Z" fill="#91A0AF"/>
<rect id="Rectangle-path_14" x="14" y="7" width="8" height="5" fill="#91A0AF"/>
</g>
</g>
<g id="48/corner">
<path id="InsideWhite" fill-rule="evenodd" clip-rule="evenodd" d="M34 2L44 12H34V2Z" fill="#D8E0E8"/>
</g>
<g id="24/chard/color/yellow">
<path id="Shape" d="M14 12V42L24 44V10L14 12Z" fill="#ECF0F4"/>
<path id="Chard" fill-rule="evenodd" clip-rule="evenodd" d="M22 12V42L2 39V15L22 12Z" fill="#207347"/>
</g>
<g id="24/chard/letter/z">
<path id="C" fill-rule="evenodd" clip-rule="evenodd" d="M12.8601 34.24C8.74005 34.24 5.68005 31.06 5.68005 27.04V27C5.68005 23.02 8.68005 19.76 12.9801 19.76C15.6201 19.76 17.2001 20.64 18.5001 21.92L16.5401 24.18C15.4601 23.2 14.3601 22.6 12.9601 22.6C10.6001 22.6 8.90005 24.56 8.90005 26.96V27C8.90005 29.4 10.5601 31.4 12.9601 31.4C14.5601 31.4 15.5401 30.76 16.6401 29.76L18.6001 31.74C17.1601 33.28 15.5601 34.24 12.8601 34.24Z" fill="white"/>
</g>
</g>
</svg>
