<svg width="32" height="32" viewBox="0 0 32 32" fill="none" xmlns="http://www.w3.org/2000/svg">
<g id="m/mime_calc/mime_calc_32x32">
<g id="32/baseshape">
<g id="32/baseshape_2">
<path id="OutsideBorder" d="M29 30C29 30.5523 28.5523 31 28 31H7C6.44772 31 6 30.5523 6 30V2C6 1.44772 6.44772 1 7 1H22L29 9V30Z" fill="#ECF0F4"/>
</g>
<g id="Group">
<path id="Rectangle-path" fill-rule="evenodd" clip-rule="evenodd" d="M15 24H20V28H15V24Z" fill="#86BFA0"/>
<path id="Rectangle-path_2" fill-rule="evenodd" clip-rule="evenodd" d="M21 24H26V28H21V24Z" fill="#86BFA0"/>
<rect id="Rectangle-path_3" x="15" y="19" width="5" height="4" fill="#86BFA0"/>
<rect id="Rectangle-path_4" x="21" y="19" width="5" height="4" fill="#86BFA0"/>
<rect id="Rectangle-path_5" x="15" y="14" width="5" height="4" fill="#86BFA0"/>
<rect id="Rectangle-path_6" x="21" y="14" width="5" height="4" fill="#86BFA0"/>
<path id="Rectangle-path_7" fill-rule="evenodd" clip-rule="evenodd" d="M15 9H20V13H15V9Z" fill="#86BFA0"/>
<path id="Rectangle-path_8" fill-rule="evenodd" clip-rule="evenodd" d="M21 9H26V13H21V9Z" fill="#86BFA0"/>
<path id="Rectangle-path_9" fill-rule="evenodd" clip-rule="evenodd" d="M9 9H14V13H9V9Z" fill="#91A0AF"/>
<rect id="Rectangle-path_10" x="15" y="4" width="5" height="4" fill="#91A0AF"/>
<path id="Rectangle-path_11" fill-rule="evenodd" clip-rule="evenodd" d="M21 4H22.25L26 8H21V4Z" fill="#91A0AF"/>
<rect id="Rectangle-path_12" x="9" y="4" width="5" height="4" fill="#91A0AF"/>
</g>
</g>
<g id="32/corner">
<path id="InsideWhite" fill-rule="evenodd" clip-rule="evenodd" d="M22 1L29 9H22V1Z" fill="#D8E0E8"/>
</g>
<g id="64/chard/color/yellow">
<path id="Shape" d="M7 9.5V28L16 29.5V8L7 9.5Z" fill="#ECF0F4"/>
<path id="Chard" d="M15 9.2159V28.3182L3 26.5V11L15 9.2159Z" fill="#207347"/>
</g>
<g id="64/chard/letter/a">
<path id="C" fill-rule="evenodd" clip-rule="evenodd" d="M9.51601 23.144C7.04401 23.144 5.20801 21.236 5.20801 18.824V18.8C5.20801 16.412 7.00801 14.456 9.58801 14.456C11.172 14.456 12.12 14.984 12.9 15.752L11.724 17.108C11.076 16.52 10.416 16.16 9.57601 16.16C8.16001 16.16 7.14001 17.336 7.14001 18.776V18.8C7.14001 20.24 8.13601 21.44 9.57601 21.44C10.536 21.44 11.124 21.056 11.784 20.456L12.96 21.644C12.096 22.568 11.136 23.144 9.51601 23.144Z" fill="white"/>
</g>
</g>
</svg>
