<svg width="24" height="24" xmlns="http://www.w3.org/2000/svg"><g fill="none" fill-rule="evenodd"><path d="M12 23c-4.69476209 0-8.586631-1.7063955-9-2.6268657V2.77947998s2.33333333 1.55804443 9 1.55804443c6.6666667 0 9-1.55804443 9-1.55804443V20.3731343C20.5499413 21.2936045 16.6947621 23 12 23z" fill="#7A71BB"/><ellipse fill="#DDDDEA" cx="12" cy="2.80597015" rx="9" ry="1.80597015"/><path d="M3 14c2.16342668 1.3571484 5.15438215 2.0494996 8.9829102 2.0494996 3.7063538 0 6.7106705-.5872158 9.0170898-1.7436175v2.1999027c-2.4589616 1.0333502-5.4656241 1.5437148-9.0170898 1.5437148-3.61360015 0-6.61007246-.5809467-8.9829102-1.7606909V14zM3 7c2.16342668 1.35714841 5.15438215 2.04949963 8.9829102 2.04949963 3.7063538 0 6.7106705-.58721581 9.0170898-1.74361758v2.1999028c-2.4589616 1.03335015-5.4656241 1.54371475-9.0170898 1.54371475-3.61360015 0-6.61007246-.5809467-8.9829102-1.76069089V7z" fill="#DDDDEA"/></g></svg>