<svg width="16" height="16" viewBox="0 0 16 16" fill="none" xmlns="http://www.w3.org/2000/svg">
<path fill-rule="evenodd" clip-rule="evenodd" d="M14 5.84375V11.6875H2V5.84375C2 2.61634 4.68629 0 8 0C11.3137 0 14 2.61634 14 5.84375ZM12 5.79167V9.6875H4V5.79167C4 3.64006 5.79086 1.89583 8 1.89583C10.2091 1.89583 12 3.64006 12 5.79167Z" fill="#868686"/>
<path fill-rule="evenodd" clip-rule="evenodd" d="M2 6H14C14.5523 6 15 6.44772 15 7V15C15 15.5523 14.5523 16 14 16H2C1.44772 16 1 15.5523 1 15V7C1 6.44772 1.44772 6 2 6Z" fill="#FAD00A"/>
<path fill-rule="evenodd" clip-rule="evenodd" d="M7 11.7324C6.4022 11.3866 6 10.7403 6 10C6 8.89543 6.89543 8 8 8C9.10457 8 10 8.89543 10 10C10 10.7403 9.5978 11.3866 9 11.7324V13.75C9 13.8881 8.88807 14 8.75 14H7.25C7.11193 14 7 13.8881 7 13.75V11.7324Z" fill="#DAAE00"/>
</svg>
