<svg xmlns="http://www.w3.org/2000/svg" width="16" height="16" viewBox="0 0 16 16">
  <g fill="none" fill-rule="evenodd">
    <path fill="#DDDDEA" d="M1,4 L1.82808241,13.7595427 C1.88621089,14.4446284 2.48620613,15 3.18611334,15 L12.8138867,15 C13.505778,15 14.114234,14.4393855 14.1719176,13.7595427 L15,4 L1,4 Z"/>
    <path fill="#E4E6F5" d="M2.50034732,1 C2.22401312,1 1.84306335,1.15693665 1.65162659,1.34837341 L0,3 L0,4 L16,4 L16,3 L14.3483734,1.34837341 C14.1559721,1.15597209 13.7709994,1 13.4996527,1 L2.50034732,1 Z"/>
    <path fill="#D1D4E6" d="M0,3 L0,4.49531555 C0,4.77404508 0.22618103,5 0.496393204,5 L15.5036068,5 C15.7777572,5 16,4.78596497 16,4.49531555 L16,3 L0,3 Z"/>
    <rect width="6" height="2" x="5" y="6" fill="#6E6E90" rx="1"/>
  </g>
</svg>
