<svg xmlns="http://www.w3.org/2000/svg" width="24" height="24" viewBox="0 0 24 24">
  <g fill="none" fill-rule="evenodd">
    <path fill="#DDDDEA" d="M1,6 L1.8823467,20.9998938 C1.94732482,22.104522 2.89821238,23 3.99079514,23 L20.0092049,23 C21.1086907,23 22.0523564,22.1099416 22.1176533,20.9998938 L23,6 L1,6 Z"/>
    <path fill="#E4E6F5" d="M3.99339768,1 C3.44475929,1 2.67894745,1.32105255 2.28904188,1.71095812 L0,4 L0,5 L24,5 L24,4 L21.7109581,1.71095812 C21.3183068,1.31830679 20.5550537,1 20.0066023,1 L3.99339768,1 Z"/>
    <path fill="#D1D4E6" d="M0,4 L0,6.00104344 C0,6.55275191 0.44746922,7 1.00069463,7 L22.9993054,7 C23.5519738,7 24,6.55733967 24,6.00104344 L24,4 L0,4 Z"/>
    <rect width="10" height="3" x="7" y="9" fill="#6E6E90" rx="1.5"/>
  </g>
</svg>
