<svg width="24" height="24" viewBox="0 0 24 24" fill="none" xmlns="http://www.w3.org/2000/svg">
<g clip-path="url(#clip0)">
<path fill-rule="evenodd" clip-rule="evenodd" d="M24.0001 19.298C24.0001 18.75 23.5631 18.238 23.0021 18.15C23.0021 18.15 22.6191 18.095 21.9681 17.98C21.2511 17.827 20.4401 17.657 19.9491 17.551C19.8771 17.524 19.6691 17.499 19.6451 17.475C19.5161 17.346 13.7881 17.344 13.6561 17.475C13.6321 17.499 13.4241 17.524 13.3521 17.551C12.8611 17.657 12.0511 17.827 11.3331 17.98C10.6821 18.095 10.0221 18.208 9.56907 18.306C8.40207 18.558 8.22407 19.163 7.92007 19.692C7.66607 20.133 7.04907 24 7.04907 24H22.0061C23.1071 24 24.0001 23.11 24.0001 22.009V19.298Z" fill="#0D6FE0"/>
<path fill-rule="evenodd" clip-rule="evenodd" d="M19.27 16.447C22.642 17.386 23.572 15.579 23.645 14.826C22.911 15.008 21.518 15.12 21.694 12.118C21.758 11.024 21.487 8.75601 20.8 7.02601C19.65 4.13301 17.247 4.27101 16.811 4.27101C16.759 4.27101 16.686 4.27201 16.598 4.27901C16.509 4.27201 16.437 4.27101 16.384 4.27101C15.949 4.27101 13.546 4.13301 12.396 7.02601C11.708 8.75601 11.438 11.024 11.502 12.118C11.678 15.12 9.30795 15.008 8.57495 14.826C8.73595 15.543 10.539 17.616 14.039 16.504C13.901 16.881 19.407 16.815 19.27 16.447Z" fill="#663600"/>
<path fill-rule="evenodd" clip-rule="evenodd" d="M16.6499 21.909C18.4129 21.383 19.4339 19.285 19.5649 17.493C19.5759 17.336 18.9289 17.54 18.8129 16.698C18.6959 15.856 18.1909 14.03 16.6499 14.03C15.3329 14.03 14.6559 15.244 14.3649 16.807C14.3159 17.074 14.1239 17.339 13.8719 17.493C12.5109 18.329 14.6589 21.337 16.6499 21.909Z" fill="#F2B566"/>
<path fill-rule="evenodd" clip-rule="evenodd" d="M20.6841 9.884C20.8471 10.442 20.9361 11.045 20.9361 11.673C20.9361 14.593 19.0101 16.96 16.6341 16.96C14.2581 16.96 12.3311 14.593 12.3311 11.673C12.3311 10.957 12.4471 10.274 12.6571 9.652C12.8171 9.667 12.9801 9.675 13.1451 9.675C15.0541 9.675 16.6561 8.613 17.0961 7.179C17.7061 8.64 19.0631 9.705 20.6841 9.884Z" fill="#FBBB69"/>
<path fill-rule="evenodd" clip-rule="evenodd" d="M14.13 17.546C13.228 17.347 12.209 17.126 11.592 16.989C11.501 16.954 10.857 16.525 10.827 16.493C10.54 16.199 5.22 16.199 4.933 16.493C4.903 16.525 4.16 16.758 4.069 16.792C3.452 16.93 0.276 17.669 0 17.79C0.006 19.284 0.002 22.007 0.002 22.007C0.001 23.112 0.905 24.007 1.993 24.006C1.993 24.006 15.103 24 16.733 24C17.024 23.078 17.093 21.723 17.093 20.565C17.093 18.528 14.948 17.695 14.13 17.546Z" fill="#FAD00A"/>
<path fill-rule="evenodd" clip-rule="evenodd" d="M11.3661 17.315C10.2511 15.542 10.2511 14.011 10.2511 12.538C10.8441 11.599 4.27308 11.599 4.86608 12.538C4.86608 14.011 5.17308 16.27 3.98208 17.666C3.94908 17.705 9.66008 19.846 11.3661 17.315Z" fill="#7B4F12"/>
<path fill-rule="evenodd" clip-rule="evenodd" d="M10.7009 15.928L12.0919 17.098L9.58088 20.622L8.70888 18.474L10.7009 15.928ZM4.72788 15.967L7.09388 18.44L5.98088 20.621L3.45288 16.938L4.72788 15.967Z" fill="white"/>
<path fill-rule="evenodd" clip-rule="evenodd" d="M10.6939 14.988C11.3969 14.342 12.0919 13.726 12.2879 12.803C12.6099 11.291 12.7809 9.016 12.6309 8.142C13.0059 7.75 12.6309 5.999 12.6309 5.215C12.6309 4.431 11.4859 2.35 4.17593 3.673C4.08793 3.653 2.23693 7.822 2.54393 8.142C2.39293 9.016 2.56493 11.291 2.88593 12.803C3.20793 14.316 4.13593 14.988 5.11193 15.198C6.08793 15.407 9.99093 15.634 10.6939 14.988Z" fill="#A06C23"/>
<path fill-rule="evenodd" clip-rule="evenodd" d="M3.80405 7.293C4.62405 6.626 9.04805 6.068 9.82105 4.777C10.05 5.126 10.05 4.93 10.05 5.74C10.05 6.55 10.05 6.722 9.82105 7.293C10.673 7.084 10.962 6.627 11.196 6.123C12.656 7.25 12.595 9.712 12.595 10.851C12.972 10.476 13.227 8.245 13.227 7.496C13.227 6.747 13.386 2.583 8.47505 1.641C8.38705 1.622 8.29605 1.612 8.20805 1.591C7.85705 1.509 7.13305 1.497 6.79205 1.591C6.70505 1.615 6.61305 1.622 6.52505 1.641C1.61405 2.583 1.77305 6.747 1.77305 7.496C1.77305 8.245 2.14405 9.859 2.52105 10.234C2.49105 10.397 2.98305 7.96 3.80405 7.293Z" fill="#362600"/>
</g>
<defs>
<clipPath id="clip0">
<rect width="24" height="24" fill="white"/>
</clipPath>
</defs>
</svg>
