<svg width="16" height="16" viewBox="0 0 16 16" fill="none" xmlns="http://www.w3.org/2000/svg">
<g clip-path="url(#clip0)">
<path fill-rule="evenodd" clip-rule="evenodd" d="M15.9999 12.8653C15.9999 12.5 15.7086 12.1587 15.3346 12.1C15.3346 12.1 15.0792 12.0633 14.6452 11.9867C14.1672 11.8847 13.6266 11.7713 13.2992 11.7007C13.2512 11.6827 13.1126 11.666 13.0966 11.65C13.0106 11.564 9.19189 11.5627 9.10389 11.65C9.08789 11.666 8.94922 11.6827 8.90122 11.7007C8.57388 11.7713 8.03389 11.8847 7.55522 11.9867C7.12122 12.0633 6.68122 12.1387 6.37922 12.204C5.60122 12.372 5.48255 12.7753 5.27989 13.128C5.11055 13.422 4.69922 16 4.69922 16H14.6706C15.4046 16 15.9999 15.4067 15.9999 14.6727V12.8653Z" fill="#0D6FE0"/>
<path fill-rule="evenodd" clip-rule="evenodd" d="M12.8466 10.9647C15.0946 11.5907 15.7146 10.386 15.7632 9.884C15.2739 10.0053 14.3452 10.08 14.4626 8.07867C14.5052 7.34933 14.3246 5.83733 13.8666 4.684C13.0999 2.75533 11.4979 2.84733 11.2072 2.84733C11.1726 2.84733 11.1239 2.848 11.0652 2.85266C11.0059 2.848 10.9579 2.84733 10.9226 2.84733C10.6326 2.84733 9.03055 2.75533 8.26389 4.684C7.80522 5.83733 7.62522 7.34933 7.66789 8.07867C7.78522 10.08 6.20522 10.0053 5.71655 9.884C5.82389 10.362 7.02589 11.744 9.35922 11.0027C9.26722 11.254 12.9379 11.21 12.8466 10.9647Z" fill="#663600"/>
<path fill-rule="evenodd" clip-rule="evenodd" d="M11.1001 14.606C12.2754 14.2553 12.9561 12.8567 13.0434 11.662C13.0508 11.5573 12.6194 11.6933 12.5421 11.132C12.4641 10.5707 12.1274 9.35333 11.1001 9.35333C10.2221 9.35333 9.77076 10.1627 9.57676 11.2047C9.54409 11.3827 9.41609 11.5593 9.24809 11.662C8.34076 12.2193 9.77276 14.2247 11.1001 14.606Z" fill="#F2B566"/>
<path fill-rule="evenodd" clip-rule="evenodd" d="M13.7894 6.58934C13.898 6.96134 13.9574 7.36334 13.9574 7.782C13.9574 9.72867 12.6734 11.3067 11.0894 11.3067C9.50537 11.3067 8.2207 9.72867 8.2207 7.782C8.2207 7.30467 8.29804 6.84934 8.43804 6.43467C8.5447 6.44467 8.65337 6.45 8.76337 6.45C10.036 6.45 11.104 5.742 11.3974 4.786C11.804 5.76 12.7087 6.47 13.7894 6.58934Z" fill="#FBBB69"/>
<path fill-rule="evenodd" clip-rule="evenodd" d="M9.42 11.6973C8.81867 11.5647 8.13933 11.4173 7.728 11.326C7.66733 11.3027 7.238 11.0167 7.218 10.9953C7.02667 10.7993 3.48 10.7993 3.28867 10.9953C3.26867 11.0167 2.77333 11.172 2.71267 11.1947C2.30133 11.2867 0.184 11.7793 0 11.86C0.004 12.856 0.00133333 14.6713 0.00133333 14.6713C0.000666667 15.408 0.603333 16.0047 1.32867 16.004C1.32867 16.004 10.0687 16 11.1553 16C11.3493 15.3853 11.3953 14.482 11.3953 13.71C11.3953 12.352 9.96533 11.7967 9.42 11.6973Z" fill="#FAD00A"/>
<path fill-rule="evenodd" clip-rule="evenodd" d="M7.5773 11.5433C6.83397 10.3613 6.83397 9.34067 6.83397 8.35867C7.2293 7.73267 2.84864 7.73267 3.24397 8.35867C3.24397 9.34067 3.44864 10.8467 2.65464 11.7773C2.63264 11.8033 6.43997 13.2307 7.5773 11.5433Z" fill="#7B4F12"/>
<path fill-rule="evenodd" clip-rule="evenodd" d="M7.134 10.6187L8.06134 11.3987L6.38734 13.748L5.806 12.316L7.134 10.6187ZM3.152 10.6447L4.72934 12.2933L3.98734 13.7473L2.302 11.292L3.152 10.6447Z" fill="white"/>
<path fill-rule="evenodd" clip-rule="evenodd" d="M7.12945 9.992C7.59812 9.56134 8.06145 9.15067 8.19212 8.53534C8.40678 7.52734 8.52078 6.01067 8.42078 5.428C8.67078 5.16667 8.42078 3.99934 8.42078 3.47667C8.42078 2.954 7.65745 1.56667 2.78412 2.44867C2.72545 2.43534 1.49145 5.21467 1.69612 5.428C1.59545 6.01067 1.71012 7.52734 1.92412 8.53534C2.13878 9.544 2.75745 9.992 3.40812 10.132C4.05878 10.2713 6.66078 10.4227 7.12945 9.992Z" fill="#A06C23"/>
<path fill-rule="evenodd" clip-rule="evenodd" d="M2.53603 4.862C3.0827 4.41733 6.03203 4.04533 6.54737 3.18467C6.70003 3.41733 6.70003 3.28667 6.70003 3.82667C6.70003 4.36667 6.70003 4.48133 6.54737 4.862C7.11537 4.72267 7.30803 4.418 7.46403 4.082C8.43737 4.83333 8.3967 6.47467 8.3967 7.234C8.64803 6.984 8.81803 5.49667 8.81803 4.99733C8.81803 4.498 8.92403 1.722 5.65003 1.094C5.59137 1.08133 5.5307 1.07467 5.47203 1.06067C5.23803 1.006 4.75537 0.998001 4.52803 1.06067C4.47003 1.07667 4.4087 1.08133 4.35003 1.094C1.07603 1.722 1.18203 4.498 1.18203 4.99733C1.18203 5.49667 1.42937 6.57267 1.6807 6.82267C1.6607 6.93133 1.9887 5.30667 2.53603 4.862Z" fill="#362600"/>
</g>
<defs>
<clipPath id="clip0">
<rect width="16" height="16" fill="white"/>
</clipPath>
</defs>
</svg>
