<?xml version="1.0" encoding="UTF-8"?><svg xmlns="http://www.w3.org/2000/svg" width="24" height="24" viewBox="0 0 24 24"><title>k/keychain_2keys/keychain_2keys_24x24</title><g fill="none" fill-rule="evenodd"><path d="M0 0h24v24H0z"/><path fill="#868686" fill-rule="nonzero" d="M9.747 4.29c0-.026-.003-.05-.003-.077 0-1.257 1.012-2.28 2.256-2.28 1.244 0 2.256 1.023 2.256 2.28 0 .025-.003.05-.004.075.38 0 .753.04 1.115.128.145.034.287.077.428.125.01-.1.016-.21.016-.32C15.81 2.1 14.1.37 12 .37S8.19 2.096 8.19 4.22c0 .11.01.22.02.33.14-.05.283-.093.428-.128.362-.086.736-.13 1.114-.13z"/><path fill="#F00" fill-rule="nonzero" d="M14.506 9.118c-.054-.394-.156-.777-.3-1.142-.05-.12-.103-.24-.16-.357-.175-.36-.396-.69-.65-.99-.523-.63-1.202-1.13-2.014-1.42-.54-.2-1.092-.29-1.636-.29-.378-.01-.752.04-1.114.12-.145.03-.287.07-.428.12-.353.12-.692.28-1.01.473-.886.554-1.605 1.4-1.99 2.47-.606 1.68-.233 3.476.82 4.764l-2.807 7.79c-.352.98.075 2.03.952 2.354l1.39.515c.73.27 1.55-.06 2-.746l-.98-1.18c-.35-.416-.08-1.16.45-1.257l1.57-.28.36-.996-1.03-1.235c-.346-.417-.078-1.165.454-1.26l1.57-.28.63-1.755c1.626-.3 3.055-1.436 3.66-3.12.28-.77.35-1.567.244-2.33zm-2.403-.137c-.12.33-.316.61-.562.83-.51.45-1.25.61-1.94.36C8.75 9.85 8.24 9 8.33 8.13c.015-.163.048-.327.107-.49.09-.252.23-.47.4-.655.094-.1.19-.2.303-.276.337-.248.746-.378 1.168-.37.21 0 .427.034.636.11.366.135.663.37.88.66.258.344.406.763.405 1.2 0 .123-.02.25-.04.37-.02.106-.05.205-.08.3z"/><path fill="#1A96F1" fill-rule="nonzero" d="M20.895 21.157l-1.5-.267c-.53-.095-.8-.84-.454-1.258l1.03-1.232-.35-.995-1.57-.28c-.53-.095-.8-.84-.45-1.258.28-.334.69-.834 1.028-1.234l-.63-1.75c1.05-1.29 1.425-3.086.82-4.768-.386-1.07-1.105-1.917-1.995-2.472-.32-.197-.657-.356-1.01-.477-.14-.047-.283-.09-.43-.124-.36-.086-.734-.13-1.114-.128-.54 0-1.094.092-1.63.29-.107.04-.106.04-.208.085.54.24.915.61 1.31 1.01l.028.02c.408 0 .798.13 1.12.36.11.077.21.17.3.272.17.185.316.404.407.656.058.16.09.324.106.49.05.56-.14 1.117-.51 1.525.015.596-.07 1.206-.287 1.8-.465 1.293-1.282 2.276-2.35 2.874.348.156.49.175.865.245l2.807 7.79c.354.976 1.35 1.507 2.23 1.185l1.397-.51c.738-.27 1.15-1.05 1.067-1.87z"/></g></svg>