<?xml version="1.0" encoding="UTF-8"?><svg xmlns="http://www.w3.org/2000/svg" width="16" height="16" viewBox="0 0 16 16"><title>k/keychain_2keys/keychain_2keys_16x16</title><g fill="none" fill-rule="evenodd"><path d="M0 0h16v16H0z"/><path fill="#868686" fill-rule="nonzero" d="M6.498 2.86l-.002-.05c0-.84.675-1.52 1.504-1.52.83 0 1.504.68 1.504 1.52l-.003.05c.26 0 .51.026.75.084.1.023.19.05.29.083.01-.07.01-.145.01-.218C10.54 1.39 9.4.24 8 .24S5.46 1.39 5.46 2.806c0 .073.004.146.01.218.094-.032.19-.06.285-.084.24-.057.49-.085.743-.085z"/><path fill="#F00" fill-rule="nonzero" d="M9.67 6.08c-.035-.264-.103-.52-.2-.763-.032-.08-.068-.16-.106-.238-.116-.24-.264-.46-.434-.66-.348-.42-.8-.75-1.342-.95-.36-.13-.728-.2-1.09-.2-.252 0-.502.02-.743.08-.097.02-.19.05-.286.08-.24.08-.47.18-.68.32-.59.37-1.07.93-1.33 1.64-.41 1.12-.16 2.32.54 3.18l-1.87 5.19c-.24.65.05 1.35.63 1.57l.93.34c.49.18 1.03-.04 1.33-.5l-.65-.787c-.23-.28-.05-.775.3-.84l1.045-.185.24-.66c-.22-.27-.5-.6-.683-.825-.23-.272-.05-.77.3-.833l1.046-.19.42-1.17c1.09-.19 2.04-.95 2.45-2.07.18-.516.23-1.047.16-1.554zm-1.6-.093c-.08.22-.212.406-.376.548-.346.3-.837.408-1.296.24-.57-.21-.905-.78-.85-1.362.01-.11.032-.218.07-.326.062-.17.155-.314.27-.438.06-.07.126-.14.2-.19.225-.16.497-.25.78-.25.14 0 .282.02.422.07.244.09.442.24.588.44.17.23.27.5.27.8-.002.08-.01.16-.027.24-.01.064-.02.13-.05.2z"/><path fill="#1A96F1" fill-rule="nonzero" d="M13.93 14.105l-1-.178c-.354-.064-.534-.56-.303-.84.185-.22.46-.554.683-.82l-.238-.662-1.046-.186c-.354-.07-.534-.57-.303-.84l.683-.83-.42-1.17c.7-.86.95-2.06.546-3.18-.257-.72-.736-1.28-1.33-1.65-.21-.13-.437-.24-.672-.32l-.285-.09c-.24-.06-.49-.09-.744-.09-.36 0-.72.06-1.08.19-.07.03-.07.03-.13.06.36.16.61.41.88.675l.02.015c.27 0 .53.09.75.245.07.05.14.113.2.18.12.124.21.27.27.44.04.106.06.215.07.324.04.375-.09.745-.34 1.02.01.4-.05.802-.19 1.2-.31.86-.85 1.52-1.56 1.914.23.104.327.117.578.164l1.87 5.194c.234.65.9 1.003 1.485.79l.93-.345c.49-.18.77-.7.71-1.25z"/></g></svg>