<?xml version="1.0" encoding="UTF-8"?><svg xmlns="http://www.w3.org/2000/svg" width="24" height="24" viewBox="0 0 24 24"><title>n/nautilus/nautilus_24x24</title><defs><linearGradient id="a" x1="70.856%" x2="89.129%" y1="46.112%" y2="27.123%"><stop stop-color="#D69413" offset="0%"/><stop stop-color="#FFD531" offset="100%"/></linearGradient></defs><g fill="none" fill-rule="evenodd"><path d="M0 0h24v24H0z"/><g transform="translate(1 -.5)"><circle cx="8.818" cy="13.091" r="5.455" fill="#FFD531"/><path fill="#FFD531" d="M16.81 1.134c5.74 4.702 6.54 13.117 1.788 18.796-3.802 4.543-10.605 5.177-15.197 1.416-3.672-3.01-4.184-8.395-1.143-12.03 2.433-2.908 6.787-3.314 9.726-.906 2.35 1.926 2.68 5.373.732 7.7-1.557 1.86-4.344 2.12-6.224.58-1.504-1.234-1.714-3.44-.468-4.93.997-1.19 2.78-1.356 3.983-.37.964.79 1.098 2.2.3 3.154-.637.762-1.78.868-2.55.237"/><path fill="url(#a)" fill-rule="nonzero" d="M16.656 1.327c5.63 4.613 6.414 12.87 1.75 18.443-3.713 4.438-10.36 5.057-14.846 1.382-3.566-2.92-4.063-8.148-1.11-11.676 2.344-2.802 6.542-3.193 9.374-.873 2.244 1.838 2.557 5.126.7 7.346-1.47 1.754-4.1 2-5.875.545-1.398-1.144-1.593-3.19-.436-4.573.908-1.086 2.536-1.238 3.633-.338.856.7.975 1.953.267 2.8-.55.657-1.535.748-2.2.204l-.316.386c.876.72 2.173.598 2.9-.27.886-1.06.736-2.63-.334-3.507-1.31-1.073-3.25-.892-4.334.404-1.335 1.596-1.11 3.962.502 5.282 1.987 1.628 4.93 1.354 6.575-.612 2.036-2.433 1.693-6.04-.766-8.053-3.043-2.495-7.554-2.075-10.075.938-3.13 3.742-2.603 9.287 1.178 12.384 4.697 3.847 11.657 3.2 15.547-1.45 4.842-5.786 4.03-14.36-1.817-19.15l-.317.387z"/><path d="M16.815 1.135l-4.788 7.29"/></g></g></svg>