<svg width="16" height="16" viewBox="0 0 16 16" fill="none" xmlns="http://www.w3.org/2000/svg">
<rect width="16" height="16" rx="8" fill="url(#paint0_radial_2915_26599)"/>
<rect width="16" height="16" rx="8" fill="url(#paint1_radial_2915_26599)"/>
<path d="M5.79121 2.70393C5.22374 2.7307 4.83621 2.82126 4.49743 2.95438C4.14682 3.09102 3.84964 3.27438 3.55396 3.57113C3.25828 3.86788 3.07619 4.16526 2.94051 4.51641C2.8092 4.85593 2.72024 5.24378 2.69518 5.81156C2.67011 6.37935 2.66456 6.56186 2.66734 8.01018C2.67011 9.45851 2.67651 9.64006 2.70403 10.209C2.73112 10.7764 2.82136 11.1638 2.95449 11.5027C3.09134 11.8533 3.27449 12.1504 3.57134 12.4461C3.8682 12.7419 4.16538 12.9236 4.51738 13.0595C4.85658 13.1906 5.24454 13.28 5.81222 13.3048C6.37991 13.3297 6.56263 13.3354 8.01054 13.3327C9.45845 13.3299 9.64074 13.3235 10.2096 13.2965C10.7785 13.2695 11.1638 13.1786 11.5028 13.0461C11.8535 12.909 12.1507 12.7261 12.4463 12.4292C12.7419 12.1322 12.9239 11.8346 13.0594 11.4833C13.1909 11.1441 13.2801 10.7561 13.3048 10.1889C13.3296 9.61958 13.3355 9.43782 13.3327 7.9897C13.33 6.54159 13.3234 6.36005 13.2965 5.7913C13.2695 5.22255 13.1791 4.83631 13.0461 4.49721C12.909 4.1466 12.7261 3.84974 12.4294 3.55374C12.1326 3.25774 11.8348 3.07587 11.4835 2.94062C11.1441 2.80931 10.7564 2.71982 10.1887 2.69529C9.62101 2.67075 9.43828 2.66446 7.98984 2.66723C6.5414 2.67001 6.36007 2.67619 5.79121 2.70393ZM5.8535 12.3453C5.3335 12.3227 5.05115 12.2363 4.86298 12.164C4.61381 12.068 4.43631 11.952 4.24879 11.7663C4.06127 11.5805 3.94607 11.4024 3.84879 11.1538C3.77572 10.9656 3.68772 10.6836 3.6634 10.1636C3.63695 9.60155 3.6314 9.4328 3.62831 8.0089C3.62521 6.58501 3.63065 6.41647 3.65529 5.85423C3.67748 5.33466 3.76441 5.05199 3.83663 4.86393C3.93263 4.61444 4.04826 4.43727 4.23439 4.24985C4.42053 4.06244 4.59813 3.94702 4.84698 3.84974C5.03493 3.77636 5.31696 3.6891 5.83675 3.66436C6.39921 3.63769 6.56775 3.63236 7.99144 3.62926C9.41514 3.62617 9.5841 3.6315 10.1468 3.65625C10.6664 3.67886 10.9491 3.76494 11.137 3.83758C11.3863 3.93358 11.5636 4.04889 11.7511 4.23535C11.9385 4.4218 12.054 4.59876 12.1513 4.84815C12.2248 5.03556 12.312 5.31748 12.3366 5.83759C12.3633 6.40005 12.3694 6.56869 12.372 7.99226C12.3745 9.41584 12.3695 9.58491 12.3449 10.1469C12.3222 10.6669 12.236 10.9494 12.1635 11.1378C12.0675 11.3868 11.9518 11.5644 11.7656 11.7517C11.5793 11.9391 11.4019 12.0545 11.153 12.1517C10.9652 12.225 10.6829 12.3125 10.1635 12.3372C9.60106 12.3637 9.43252 12.3692 8.0083 12.3723C6.58407 12.3754 6.41607 12.3697 5.85361 12.3453M10.2014 5.14948C10.2016 5.27607 10.2393 5.39975 10.3099 5.50489C10.3804 5.61002 10.4805 5.69189 10.5975 5.74013C10.7145 5.78837 10.8433 5.80081 10.9674 5.77589C11.0915 5.75097 11.2054 5.68981 11.2948 5.60013C11.3841 5.51046 11.4449 5.3963 11.4693 5.27209C11.4938 5.14789 11.4809 5.01922 11.4322 4.90236C11.3835 4.7855 11.3013 4.6857 11.1959 4.61558C11.0905 4.54545 10.9667 4.50816 10.8401 4.50841C10.6704 4.50875 10.5078 4.57648 10.388 4.69669C10.2682 4.81691 10.2011 4.97978 10.2014 5.14948ZM5.2616 8.00528C5.26459 9.51782 6.49297 10.7412 8.0052 10.7383C9.51743 10.7354 10.7417 9.50715 10.7388 7.99461C10.7359 6.48207 9.50719 5.25839 7.99475 5.26138C6.48231 5.26436 5.25872 6.49295 5.2616 8.00528ZM6.22225 8.00336C6.22156 7.65174 6.32514 7.30781 6.51992 7.01506C6.71469 6.72232 6.9919 6.4939 7.31648 6.3587C7.64107 6.2235 7.99846 6.18758 8.34346 6.2555C8.68847 6.32341 9.00558 6.49211 9.2547 6.74025C9.50383 6.98839 9.67378 7.30483 9.74306 7.64955C9.81234 7.99428 9.77784 8.35181 9.64393 8.67693C9.51001 9.00205 9.28269 9.28016 8.99072 9.47608C8.69874 9.67201 8.35522 9.77696 8.0036 9.77766C7.77013 9.77815 7.53884 9.73264 7.32296 9.64373C7.10707 9.55483 6.91081 9.42426 6.74539 9.2595C6.57997 9.09473 6.44863 8.899 6.35887 8.68347C6.26911 8.46794 6.22269 8.23683 6.22225 8.00336Z" fill="white"/>
<defs>
<radialGradient id="paint0_radial_2915_26599" cx="0" cy="0" r="1" gradientUnits="userSpaceOnUse" gradientTransform="translate(13.52 18.16) rotate(-115.776) scale(21.8189 32.4532)">
<stop offset="0.24392" stop-color="#FF1B90"/>
<stop offset="0.436673" stop-color="#F80261"/>
<stop offset="0.688476" stop-color="#ED00C0"/>
<stop offset="0.776787" stop-color="#C500E9"/>
<stop offset="0.893155" stop-color="#7017FF"/>
</radialGradient>
<radialGradient id="paint1_radial_2915_26599" cx="0" cy="0" r="1" gradientUnits="userSpaceOnUse" gradientTransform="translate(5.8 15.448) rotate(-57.4396) scale(9.45393 9.83345)">
<stop stop-color="#FFD600"/>
<stop offset="0.484375" stop-color="#FF6930"/>
<stop offset="0.734375" stop-color="#FE3B36"/>
<stop offset="1" stop-color="#FE3B36" stop-opacity="0"/>
</radialGradient>
</defs>
</svg>
