<svg width="16" height="16" viewBox="0 0 16 16" fill="none" xmlns="http://www.w3.org/2000/svg">
<g clip-path="url(#clip0_2442_28000)">
<path d="M8 16C12.4183 16 16 12.4183 16 8C16 3.58172 12.4183 0 8 0C3.58172 0 0 3.58172 0 8C0 12.4183 3.58172 16 8 16Z" fill="black"/>
<path d="M6.93868 6.85595V6.42128C6.79201 6.40262 6.64535 6.38928 6.49601 6.38928C4.67735 6.38928 3.20001 7.86662 3.20001 9.68262C3.20001 10.7973 3.75735 11.7839 4.60535 12.3786C4.05601 11.7893 3.73068 11.0026 3.73068 10.1359C3.73335 8.34662 5.15735 6.89862 6.93868 6.85595Z" fill="#25F4EE"/>
<path d="M7.01603 11.6507C7.8267 11.6507 8.49603 10.9973 8.52803 10.1947L8.53603 3.03199H9.8347L9.83203 3.02133C9.80536 2.87466 9.78936 2.72266 9.78936 2.56799H8.00003L7.99736 9.74133C7.96803 10.544 7.3067 11.1893 6.49603 11.1893C6.24536 11.1893 6.00803 11.1253 5.79736 11.016C6.06936 11.3947 6.5147 11.6507 7.01603 11.6507Z" fill="#25F4EE"/>
<path d="M12.2773 5.47732V5.05599C11.7787 5.05599 11.312 4.90665 10.9227 4.65332C11.2693 5.05332 11.7413 5.36265 12.2773 5.47732Z" fill="#25F4EE"/>
<path d="M10.9227 4.65336C10.5414 4.21603 10.3094 3.64536 10.3094 3.02136H9.82135C9.94935 3.70403 10.3627 4.28803 10.9227 4.65336Z" fill="#FE2C55"/>
<path d="M6.49337 8.16532C5.66403 8.16532 4.9787 8.85332 4.9787 9.68265C4.9787 10.2613 5.31737 10.7627 5.7947 11.0133C5.61603 10.7653 5.50937 10.464 5.50937 10.136C5.50937 9.30665 6.18403 8.63198 7.01337 8.63198C7.16803 8.63198 7.31737 8.65865 7.45603 8.70132V6.87465C7.30937 6.85598 7.1627 6.84265 7.01337 6.84265C6.9867 6.84265 6.9627 6.84532 6.93603 6.84532H6.92803L6.9227 8.22932C6.7867 8.18398 6.64803 8.16532 6.49337 8.16532Z" fill="#FE2C55"/>
<path d="M12.2773 5.45604L12.2693 5.45337V6.8347C11.3413 6.8347 10.48 6.52804 9.77601 6.0267V9.6827C9.77601 11.4987 8.30935 12.968 6.49335 12.968C5.79201 12.968 5.14135 12.7547 4.60535 12.3814C5.20801 13.0267 6.06401 13.432 7.01601 13.432C8.83201 13.432 10.3093 11.9547 10.3093 10.1387V6.50137C11.0107 7.00537 11.872 7.30137 12.8 7.30137V5.51204C12.6213 5.51204 12.4453 5.49337 12.2773 5.45604Z" fill="#FE2C55"/>
<path d="M9.78936 9.6827V6.04803C10.4907 6.55203 11.352 6.84803 12.28 6.84803V5.45603C11.744 5.34136 11.272 5.05336 10.9254 4.65336C10.3654 4.28803 9.96003 3.70403 9.83469 3.02136H8.52536L8.52269 10.1947C8.49336 10.9974 7.83203 11.6427 7.02136 11.6427C6.52003 11.6427 6.07469 11.3947 5.80269 11.016C5.32269 10.7627 4.99736 10.2614 4.99736 9.68536C4.99736 8.85603 5.67203 8.18136 6.50136 8.18136C6.65603 8.18136 6.80536 8.20803 6.94403 8.2507V6.84803C5.16269 6.8907 3.72803 8.34936 3.72803 10.1414C3.72803 11.008 4.06403 11.7947 4.61336 12.384C5.14936 12.76 5.80003 12.9814 6.50136 12.9814C8.30936 12.9787 9.78936 11.5014 9.78936 9.6827Z" fill="white"/>
</g>
<defs>
<clipPath id="clip0_2442_28000">
<rect width="16" height="16" fill="white"/>
</clipPath>
</defs>
</svg>
