<svg width="16" height="17" viewBox="0 0 16 17" fill="none" xmlns="http://www.w3.org/2000/svg">
<path fill-rule="evenodd" clip-rule="evenodd" d="M8 16.6404C12.4183 16.6404 16 13.0587 16 8.64038C16 4.2221 12.4183 0.640381 8 0.640381C3.58172 0.640381 0 4.2221 0 8.64038C0 13.0587 3.58172 16.6404 8 16.6404ZM4.49741 3.59476C4.83619 3.46164 5.22371 3.37108 5.79118 3.34431C6.36004 3.31657 6.54138 3.31039 7.98982 3.30761C9.43826 3.30484 9.62098 3.31113 10.1887 3.33567C10.7564 3.3602 11.1441 3.44969 11.4835 3.581C11.8348 3.71625 12.1326 3.89812 12.4293 4.19412C12.7261 4.49012 12.909 4.78698 13.0461 5.13759C13.1791 5.47669 13.2694 5.86293 13.2964 6.43168C13.3234 7.00043 13.3299 7.18197 13.3327 8.63009C13.3355 10.0782 13.3296 10.26 13.3048 10.8292C13.2801 11.3965 13.1908 11.7844 13.0594 12.1236C12.9238 12.475 12.7419 12.7726 12.4463 13.0696C12.1507 13.3665 11.8534 13.5494 11.5028 13.6865C11.1638 13.819 10.7784 13.9099 10.2096 13.9369C9.64072 13.9639 9.45842 13.9703 8.01051 13.973C6.56261 13.9758 6.37988 13.9701 5.8122 13.9452C5.24451 13.9203 4.85656 13.831 4.51736 13.6999C4.16535 13.564 3.86818 13.3823 3.57132 13.0865C3.27447 12.7907 3.09132 12.4937 2.95446 12.1431C2.82134 11.8042 2.7311 11.4168 2.70401 10.8494C2.67649 10.2804 2.67009 10.0989 2.66731 8.65057C2.66454 7.20224 2.67009 7.01973 2.69515 6.45194C2.72022 5.88416 2.80918 5.49631 2.94049 5.15679C3.07617 4.80565 3.25825 4.50826 3.55394 4.21151C3.84962 3.91476 4.14679 3.7314 4.49741 3.59476ZM4.86296 12.8044C5.05112 12.8767 5.33347 12.9631 5.85348 12.9857H5.85359C6.41604 13.01 6.58405 13.0158 8.00827 13.0127C9.4325 13.0096 9.60104 13.0041 10.1635 12.9776C10.6829 12.9529 10.9652 12.8654 11.1529 12.7921C11.4019 12.6948 11.5793 12.5794 11.7655 12.3921C11.9518 12.2048 12.0675 12.0272 12.1635 11.7781C12.2359 11.5898 12.3221 11.3073 12.3449 10.7873C12.3695 10.2253 12.3745 10.0562 12.3719 8.63265C12.3694 7.20907 12.3633 7.04043 12.3365 6.47797C12.312 5.95786 12.2247 5.67594 12.1512 5.48853C12.054 5.23914 11.9384 5.06218 11.751 4.87573C11.5636 4.68927 11.3862 4.57396 11.1369 4.47796C10.9491 4.40532 10.6663 4.31924 10.1467 4.29663C9.58408 4.27188 9.41512 4.26655 7.99142 4.26964C6.56773 4.27274 6.39919 4.27807 5.83673 4.30474C5.31694 4.32948 5.03491 4.41674 4.84696 4.49012C4.59811 4.5874 4.4205 4.70282 4.23437 4.89023C4.04823 5.07765 3.93261 5.25482 3.8366 5.50431C3.76439 5.69237 3.67746 5.97504 3.65527 6.49461C3.63063 7.05685 3.62519 7.22539 3.62828 8.64929C3.63138 10.0732 3.63692 10.2419 3.66338 10.804C3.6877 11.324 3.7757 11.606 3.84876 11.7941C3.94605 12.0428 4.06125 12.2209 4.24877 12.4066C4.43629 12.5923 4.61379 12.7084 4.86296 12.8044ZM10.3098 6.14527C10.2393 6.04013 10.2016 5.91645 10.2014 5.78986C10.2011 5.62016 10.2682 5.45729 10.388 5.33707C10.5078 5.21686 10.6704 5.14913 10.8401 5.14879C10.9667 5.14854 11.0905 5.18583 11.1959 5.25596C11.3013 5.32608 11.3835 5.42588 11.4322 5.54274C11.4809 5.6596 11.4938 5.78827 11.4693 5.91248C11.4448 6.03668 11.3841 6.15084 11.2948 6.24051C11.2054 6.33019 11.0915 6.39136 10.9674 6.41627C10.8432 6.44119 10.7145 6.42875 10.5975 6.38051C10.4804 6.33227 10.3803 6.2504 10.3098 6.14527ZM8.00518 11.3787C6.49295 11.3816 5.26457 10.1582 5.26158 8.64566C5.2587 7.13333 6.48229 5.90474 7.99473 5.90176C9.50717 5.89877 10.7359 7.12245 10.7388 8.63499C10.7416 10.1475 9.51741 11.3758 8.00518 11.3787ZM6.51989 7.65545C6.32512 7.94819 6.22153 8.29212 6.22223 8.64374C6.22266 8.87721 6.26909 9.10832 6.35885 9.32385C6.44861 9.53938 6.57995 9.73512 6.74537 9.89988C6.91079 10.0646 7.10705 10.1952 7.32293 10.2841C7.53882 10.373 7.7701 10.4185 8.00358 10.418C8.3552 10.4173 8.69872 10.3124 8.99069 10.1165C9.28267 9.92054 9.50999 9.64243 9.6439 9.31731C9.77782 8.99219 9.81232 8.63466 9.74304 8.28993C9.67376 7.94521 9.50381 7.62877 9.25468 7.38063C9.00556 7.13249 8.68844 6.96379 8.34344 6.89588C7.99844 6.82797 7.64105 6.86388 7.31646 6.99908C6.99187 7.13428 6.71466 7.3627 6.51989 7.65545Z" fill="#00000080"/>
</svg>
