<svg width="16" height="16" viewBox="0 0 16 16" fill="none" xmlns="http://www.w3.org/2000/svg">
<path fill-rule="evenodd" clip-rule="evenodd" d="M8 0C3.49336 0 0 3.30112 0 7.76C0 10.0923 0.95584 12.1076 2.51245 13.4997C2.64312 13.6166 2.722 13.7805 2.72736 13.9558L2.77093 15.3789C2.78485 15.8328 3.25371 16.1282 3.66907 15.9448L5.25696 15.2438C5.39157 15.1845 5.5424 15.1734 5.68424 15.2125C6.41392 15.4131 7.19053 15.52 8 15.52C12.5066 15.52 16 12.2189 16 7.76C16 3.30112 12.5066 0 8 0Z" fill="url(#paint0_radial_2442_27993)"/>
<path fill-rule="evenodd" clip-rule="evenodd" d="M3.19573 10.0294L5.54573 6.3011C5.91954 5.70798 6.72002 5.5603 7.2809 5.98094L9.14997 7.38275C9.32146 7.51139 9.55741 7.5107 9.72818 7.3811L12.2525 5.46534C12.5894 5.20966 13.0292 5.61286 12.8037 5.97067L10.4537 9.69902C10.0799 10.2921 9.27938 10.4398 8.71853 10.0192L6.84941 8.61731C6.67794 8.4887 6.44197 8.48939 6.27122 8.61899L3.74693 10.5348C3.41002 10.7904 2.97021 10.3872 3.19573 10.0294Z" fill="white"/>
<defs>
<radialGradient id="paint0_radial_2442_27993" cx="0" cy="0" r="1" gradientUnits="userSpaceOnUse" gradientTransform="translate(3.07959 15.9144) scale(17.4335 17.4335)">
<stop stop-color="#0099FF"/>
<stop offset="0.609754" stop-color="#A033FF"/>
<stop offset="0.934823" stop-color="#FF5280"/>
<stop offset="1" stop-color="#FF7061"/>
</radialGradient>
</defs>
</svg>
