<svg width="16" height="17" viewBox="0 0 16 17" fill="none" xmlns="http://www.w3.org/2000/svg">
<path fill-rule="evenodd" clip-rule="evenodd" d="M8 16.6404C12.4183 16.6404 16 13.0587 16 8.64038C16 4.2221 12.4183 0.640381 8 0.640381C3.58172 0.640381 0 4.2221 0 8.64038C0 13.0587 3.58172 16.6404 8 16.6404ZM8.28698 6.54625C7.50886 6.8699 5.95372 7.53977 3.62156 8.55585C3.24286 8.70645 3.04447 8.85378 3.02641 8.99784C2.99589 9.2413 3.30078 9.33717 3.71595 9.46772C3.77242 9.48548 3.83094 9.50388 3.89092 9.52338C4.29939 9.65615 4.84885 9.81149 5.13449 9.81766C5.3936 9.82326 5.68279 9.71644 6.00206 9.4972C8.18107 8.0263 9.30589 7.28284 9.37651 7.26681C9.42633 7.25551 9.49537 7.24129 9.54214 7.28287C9.58892 7.32444 9.58432 7.40318 9.57937 7.4243C9.54916 7.55306 8.35239 8.66569 7.73306 9.24148C7.53998 9.42099 7.40302 9.54832 7.37502 9.5774C7.3123 9.64254 7.24838 9.70415 7.18695 9.76337C6.80748 10.1292 6.52291 10.4035 7.20271 10.8515C7.52939 11.0668 7.79081 11.2448 8.0516 11.4224C8.33642 11.6164 8.62049 11.8098 8.98804 12.0508C9.08168 12.1121 9.17112 12.1759 9.25822 12.238C9.58968 12.4743 9.88747 12.6866 10.2554 12.6527C10.4691 12.6331 10.6899 12.432 10.8021 11.8325C11.0671 10.4157 11.5881 7.34594 11.7084 6.08095C11.719 5.97012 11.7057 5.82828 11.6951 5.76602C11.6844 5.70375 11.6621 5.61504 11.5812 5.54937C11.4854 5.47159 11.3374 5.45519 11.2712 5.45636C10.9703 5.46166 10.5087 5.62218 8.28698 6.54625Z" fill="#00000080"/>
</svg>
