<svg width="72" height="26" viewBox="0 0 72 26" fill="none" xmlns="http://www.w3.org/2000/svg">
<path d="M5.04894 9.92705C5.3483 9.00574 6.6517 9.00574 6.95106 9.92705L7.12257 10.4549C7.25644 10.8669 7.6404 11.1459 8.07363 11.1459H8.62865C9.59738 11.1459 10.0002 12.3855 9.21644 12.9549L8.76741 13.2812C8.41693 13.5358 8.27027 13.9872 8.40414 14.3992L8.57565 14.927C8.87501 15.8484 7.82053 16.6145 7.03681 16.0451L6.58779 15.7188C6.2373 15.4642 5.7627 15.4642 5.41221 15.7188L4.96319 16.0451C4.17947 16.6145 3.12499 15.8484 3.42435 14.9271L3.59586 14.3992C3.72973 13.9872 3.58307 13.5358 3.23259 13.2812L2.78356 12.9549C1.99985 12.3855 2.40262 11.1459 3.37135 11.1459H3.92637C4.3596 11.1459 4.74356 10.8669 4.87743 10.4549L5.04894 9.92705Z" fill="#5021FF"/>
<path d="M19.0489 9.92705C19.3483 9.00574 20.6517 9.00574 20.9511 9.92705L21.1226 10.4549C21.2564 10.8669 21.6404 11.1459 22.0736 11.1459H22.6287C23.5974 11.1459 24.0002 12.3855 23.2164 12.9549L22.7674 13.2812C22.4169 13.5358 22.2703 13.9872 22.4041 14.3992L22.5757 14.927C22.875 15.8484 21.8205 16.6145 21.0368 16.0451L20.5878 15.7188C20.2373 15.4642 19.7627 15.4642 19.4122 15.7188L18.9632 16.0451C18.1795 16.6145 17.125 15.8484 17.4243 14.9271L17.5959 14.3992C17.7297 13.9872 17.5831 13.5358 17.2326 13.2812L16.7836 12.9549C15.9998 12.3855 16.4026 11.1459 17.3713 11.1459H17.9264C18.3596 11.1459 18.7436 10.8669 18.8774 10.4549L19.0489 9.92705Z" fill="#5021FF"/>
<path d="M33.0489 9.92705C33.3483 9.00574 34.6517 9.00574 34.9511 9.92705L35.1226 10.4549C35.2564 10.8669 35.6404 11.1459 36.0736 11.1459H36.6287C37.5974 11.1459 38.0002 12.3855 37.2164 12.9549L36.7674 13.2812C36.4169 13.5358 36.2703 13.9872 36.4041 14.3992L36.5757 14.927C36.875 15.8484 35.8205 16.6145 35.0368 16.0451L34.5878 15.7188C34.2373 15.4642 33.7627 15.4642 33.4122 15.7188L32.9632 16.0451C32.1795 16.6145 31.125 15.8484 31.4243 14.9271L31.5959 14.3992C31.7297 13.9872 31.5831 13.5358 31.2326 13.2812L30.7836 12.9549C29.9998 12.3855 30.4026 11.1459 31.3713 11.1459H31.9264C32.3596 11.1459 32.7436 10.8669 32.8774 10.4549L33.0489 9.92705Z" fill="#5021FF"/>
<path d="M47.0489 9.92705C47.3483 9.00574 48.6517 9.00574 48.9511 9.92705L49.1226 10.4549C49.2564 10.8669 49.6404 11.1459 50.0736 11.1459H50.6287C51.5974 11.1459 52.0002 12.3855 51.2164 12.9549L50.7674 13.2812C50.4169 13.5358 50.2703 13.9872 50.4041 14.3992L50.5757 14.927C50.875 15.8484 49.8205 16.6145 49.0368 16.0451L48.5878 15.7188C48.2373 15.4642 47.7627 15.4642 47.4122 15.7188L46.9632 16.0451C46.1795 16.6145 45.125 15.8484 45.4243 14.9271L45.5959 14.3992C45.7297 13.9872 45.5831 13.5358 45.2326 13.2812L44.7836 12.9549C43.9998 12.3855 44.4026 11.1459 45.3713 11.1459H45.9264C46.3596 11.1459 46.7436 10.8669 46.8774 10.4549L47.0489 9.92705Z" fill="#5021FF"/>
<path d="M61.0489 9.92705C61.3483 9.00574 62.6517 9.00574 62.9511 9.92705L63.1226 10.4549C63.2564 10.8669 63.6404 11.1459 64.0736 11.1459H64.6287C65.5974 11.1459 66.0002 12.3855 65.2164 12.9549L64.7674 13.2812C64.4169 13.5358 64.2703 13.9872 64.4041 14.3992L64.5757 14.927C64.875 15.8484 63.8205 16.6145 63.0368 16.0451L62.5878 15.7188C62.2373 15.4642 61.7627 15.4642 61.4122 15.7188L60.9632 16.0451C60.1795 16.6145 59.125 15.8484 59.4243 14.9271L59.5959 14.3992C59.7297 13.9872 59.5831 13.5358 59.2326 13.2812L58.7836 12.9549C57.9998 12.3855 58.4026 11.1459 59.3713 11.1459H59.9264C60.3596 11.1459 60.7436 10.8669 60.8774 10.4549L61.0489 9.92705Z" fill="#5021FF"/>
<mask id="mask0_139_18728" style="mask-type:alpha" maskUnits="userSpaceOnUse" x="63" y="7" width="5" height="12">
<rect x="63" y="7" width="5" height="12" fill="#D9D9D9"/>
</mask>
<g mask="url(#mask0_139_18728)">
<path d="M61.0489 9.92705C61.3483 9.00574 62.6517 9.00574 62.9511 9.92705L63.1226 10.4549C63.2564 10.8669 63.6404 11.1459 64.0736 11.1459H64.6287C65.5974 11.1459 66.0002 12.3855 65.2164 12.9549L64.7674 13.2812C64.4169 13.5358 64.2703 13.9872 64.4041 14.3992L64.5757 14.927C64.875 15.8484 63.8205 16.6145 63.0368 16.0451L62.5878 15.7188C62.2373 15.4642 61.7627 15.4642 61.4122 15.7188L60.9632 16.0451C60.1795 16.6145 59.125 15.8484 59.4243 14.9271L59.5959 14.3992C59.7297 13.9872 59.5831 13.5358 59.2326 13.2812L58.7836 12.9549C57.9998 12.3855 58.4026 11.1459 59.3713 11.1459H59.9264C60.3596 11.1459 60.7436 10.8669 60.8774 10.4549L61.0489 9.92705Z" fill="white"/>
</g>
</svg>
