<svg width="16" height="16" viewBox="0 0 16 16" fill="none" xmlns="http://www.w3.org/2000/svg">
<path d="M0.0379944 16L1.16266 11.8913C0.468661 10.6887 0.103994 9.32533 0.104661 7.92733C0.106661 3.55667 3.66333 0 8.03333 0C10.154 0.000666667 12.1447 0.826667 13.642 2.32533C15.1387 3.824 15.9627 5.816 15.962 7.93467C15.96 12.306 12.4033 15.8627 8.03333 15.8627C6.70666 15.862 5.39933 15.5293 4.24133 14.8973L0.0379944 16ZM4.43599 13.462C5.55333 14.1253 6.61999 14.5227 8.03066 14.5233C11.6627 14.5233 14.6213 11.5673 14.6233 7.93333C14.6247 4.292 11.68 1.34 8.03599 1.33867C4.40133 1.33867 1.44466 4.29467 1.44333 7.928C1.44266 9.41133 1.87733 10.522 2.60733 11.684L1.94133 14.116L4.43599 13.462ZM12.0273 9.81933C11.978 9.73667 11.846 9.68733 11.6473 9.588C11.4493 9.48867 10.4753 9.00933 10.2933 8.94333C10.112 8.87733 9.97999 8.844 9.84733 9.04267C9.71533 9.24067 9.33533 9.68733 9.21999 9.81933C9.10466 9.95133 8.98866 9.968 8.79066 9.86867C8.59266 9.76933 7.95399 9.56067 7.19733 8.88533C6.60866 8.36 6.21066 7.71133 6.09533 7.51267C5.97999 7.31467 6.08333 7.20733 6.18199 7.10867C6.27133 7.02 6.37999 6.87733 6.47933 6.76133C6.57999 6.64667 6.61266 6.564 6.67933 6.43133C6.74533 6.29933 6.71266 6.18333 6.66266 6.084C6.61266 5.98533 6.21666 5.01 6.05199 4.61333C5.89066 4.22733 5.72733 4.27933 5.60599 4.27333L5.22599 4.26667C5.09399 4.26667 4.87933 4.316 4.69799 4.51467C4.51666 4.71333 4.00466 5.192 4.00466 6.16733C4.00466 7.14267 4.71466 8.08467 4.81333 8.21667C4.91266 8.34867 6.20999 10.35 8.19733 11.208C8.66999 11.412 9.03933 11.534 9.32666 11.6253C9.80133 11.776 10.2333 11.7547 10.5747 11.704C10.9553 11.6473 11.7467 11.2247 11.912 10.762C12.0773 10.2987 12.0773 9.902 12.0273 9.81933Z" fill="#00000080"/>
</svg>
