<svg width="16" height="16" viewBox="0 0 16 16" fill="none" xmlns="http://www.w3.org/2000/svg">
<g clip-path="url(#clip0_2915_29058)">
<path d="M4.22894 13.7033L4.49052 13.8326C5.58045 14.479 6.80118 14.7806 8.02191 14.7806C11.8585 14.7806 14.9975 11.678 14.9975 7.88587C14.9975 6.07599 14.2563 4.3092 12.9484 3.01643C11.6405 1.72366 9.89659 0.991089 8.02191 0.991089C4.18534 0.991089 1.04633 4.09374 1.08993 7.92896C1.08993 9.22173 1.4823 10.4714 2.13626 11.5487L2.31065 11.8073L1.61309 14.3497L4.22894 13.7033Z" fill="#00E676"/>
<path d="M13.6896 2.32699C12.2073 0.818755 10.1582 0 8.06551 0C3.61858 0 0.0435974 3.57667 0.0871947 7.929C0.0871947 9.30795 0.479571 10.6438 1.13353 11.8504L0 15.9442L4.22894 14.8669C5.40607 15.5133 6.71399 15.8149 8.02191 15.8149C12.4252 15.8149 16.0002 12.2382 16.0002 7.8859C16.0002 5.77438 15.1719 3.79213 13.6896 2.32699ZM8.06551 14.479C6.88838 14.479 5.71125 14.1774 4.70852 13.5741L4.44693 13.4448L1.91828 14.0912L2.57224 11.6349L2.39785 11.3764C0.479571 8.31683 1.39512 4.26615 4.53413 2.37008C7.67314 0.474016 11.7277 1.37896 13.646 4.48161C15.5643 7.58426 14.6487 11.5918 11.5097 13.4879C10.507 14.1343 9.28624 14.479 8.06551 14.479ZM11.9021 9.69578L11.4225 9.48032C11.4225 9.48032 10.725 9.17868 10.289 8.96321C10.2454 8.96321 10.2018 8.92012 10.1582 8.92012C10.0274 8.92012 9.9402 8.96321 9.853 9.00631C9.853 9.00631 9.80941 9.0494 9.19904 9.73888C9.15545 9.82506 9.06825 9.86815 8.98106 9.86815H8.93746C8.89386 9.86815 8.80667 9.82506 8.76307 9.78197L8.54508 9.69578C8.06551 9.48032 7.62954 9.22177 7.28076 8.87703C7.19356 8.79084 7.06277 8.70466 6.97558 8.61847C6.6704 8.31683 6.36521 7.97209 6.14723 7.58426L6.10363 7.49807C6.06003 7.45498 6.06003 7.41189 6.01644 7.3257C6.01644 7.23952 6.01644 7.15333 6.06003 7.11024C6.06003 7.11024 6.23442 6.89478 6.36521 6.7655C6.45241 6.67932 6.49601 6.55004 6.5832 6.46386C6.6704 6.33458 6.71399 6.16221 6.6704 6.03293C6.6268 5.81747 6.10363 4.65398 5.97284 4.39542C5.88564 4.26615 5.79845 4.22305 5.66766 4.17996H5.53686C5.44967 4.17996 5.31888 4.17996 5.18809 4.17996C5.10089 4.17996 5.0137 4.22305 4.9265 4.22305L4.8829 4.26615C4.79571 4.30924 4.70852 4.39542 4.62132 4.43851C4.53413 4.5247 4.49053 4.61088 4.40333 4.69707C4.09815 5.0849 3.92376 5.55892 3.92376 6.03293C3.92376 6.37767 4.01096 6.72241 4.14175 7.02406L4.18535 7.15333C4.57772 7.97209 5.10089 8.70466 5.79845 9.35105L5.97284 9.52341C6.10363 9.65269 6.23442 9.73888 6.32162 9.86815C7.23716 10.6438 8.2835 11.204 9.46063 11.5057C9.59142 11.5488 9.76581 11.5488 9.8966 11.5918C10.0274 11.5918 10.2018 11.5918 10.3326 11.5918C10.5506 11.5918 10.8121 11.5057 10.9865 11.4195C11.1173 11.3333 11.2045 11.3333 11.2917 11.2471L11.3789 11.1609C11.4661 11.0747 11.5533 11.0316 11.6405 10.9455C11.7277 10.8593 11.8149 10.7731 11.8585 10.6869C11.9457 10.5145 11.9893 10.2991 12.0329 10.0836C12.0329 9.99743 12.0329 9.86815 12.0329 9.78197C12.0329 9.78197 11.9893 9.73888 11.9021 9.69578Z" fill="white"/>
</g>
<defs>
<clipPath id="clip0_2915_29058">
<rect width="16" height="16" fill="white"/>
</clipPath>
</defs>
</svg>
