<svg width="26" height="26" viewBox="0 0 26 26" fill="none" xmlns="http://www.w3.org/2000/svg">
<path d="M25.5 13.0156C25.5 16.7204 23.8831 20.0517 21.3334 22.3556C18.1306 23.9122 15.1455 22.8226 14.1505 22.1376C17.2911 21.4527 19.6853 17.6233 19.6853 13.0156C19.6853 8.40786 17.2911 4.57847 14.1505 3.89354C15.1455 3.20861 18.1306 2.11894 21.3334 3.67561C23.8831 5.97947 25.5 9.31072 25.5 13.0156Z" fill="#FF1D53"/>
<path d="M8.89553 5.94832C7.52737 7.56725 6.62563 9.99564 6.56344 12.7042V13.2958C6.62563 16.0044 7.52737 18.4328 8.89553 20.0517C10.699 22.3867 13.3421 23.8499 16.3271 23.8499C18.1617 23.8499 19.8719 23.2895 21.3334 22.3244C19.1256 24.3169 16.2028 25.5 13 25.5C12.8134 25.5 12.5958 25.5 12.4092 25.5C5.78607 25.2198 0.5 19.7403 0.5 13.0156C0.5 6.10398 6.09702 0.5 13 0.5C13.0311 0.5 13.0311 0.5 13.0622 0.5C16.2338 0.5 19.1256 1.7142 21.3334 3.67559C19.8719 2.71046 18.1617 2.15006 16.3271 2.15006C13.3421 2.15006 10.6679 3.64446 8.89553 5.94832Z" fill="#FF1D53"/>
</svg>
