<svg width="16" height="17" viewBox="0 0 16 17" fill="none" xmlns="http://www.w3.org/2000/svg">
<path fill-rule="evenodd" clip-rule="evenodd" d="M16 8.64038C16 13.0587 12.4183 16.6404 7.99998 16.6404C3.58171 16.6404 -1.52588e-05 13.0587 -1.52588e-05 8.64038C-1.52588e-05 4.2221 3.58171 0.640381 7.99998 0.640381C12.4183 0.640381 16 4.2221 16 8.64038ZM9.66373 3.15283C9.66373 3.15283 9.61277 5.49726 12.28 5.75209V7.51891C10.6661 7.48493 9.72101 6.66948 9.72101 6.66948V10.5261C9.63572 12.2821 8.18716 13.662 6.4291 13.662C4.60888 13.662 3.1333 12.1864 3.1333 10.3662C3.1333 8.54599 4.60888 7.07041 6.4291 7.07041C6.61373 7.07041 6.79805 7.08593 6.98008 7.1168L6.96321 9.07156C6.79964 9.01208 6.62693 8.98165 6.45288 8.98165C5.62816 8.98165 4.95959 9.65021 4.95959 10.4749C4.95959 11.2997 5.62816 11.9682 6.45288 11.9682C7.24587 11.9682 7.90057 11.3484 7.94393 10.5566V3.15283H9.66373Z" fill="#00000080"/>
</svg>
