<svg xmlns="http://www.w3.org/2000/svg" width="16" height="16" viewBox="0 0 16 16"><path fill="#516072" fill-rule="evenodd" d="M12.1684271,11 L6.08927872,11 C5.42215113,11 4.77405553,10.7776334 4.24745688,10.3680567 C2.93961531,9.35084654 2.70401196,7.46601974 3.72122207,6.15817816 L5.70007349,3.61394061 C5.83659907,3.43840773 5.91072128,3.22237586 5.91072128,3 C5.91072128,2.44771525 5.46300603,2 4.91072128,2 L0,2 L0,7.10542736e-15 L4.91072128,7.54951657e-15 C6.56757553,7.21644966e-15 7.91072128,1.34314575 7.91072128,3 C7.91072128,3.66712759 7.68835465,4.3152232 7.27877793,4.84182184 L5.29992651,7.38605939 C4.96085647,7.82200658 5.03939092,8.45028218 5.47533811,8.78935222 C5.65087099,8.92587779 5.86690286,9 6.08927872,9 L7,9 L12.1684271,9 L9.63289322,6.46446609 C9.24236893,6.0739418 9.24236893,5.44077682 9.63289322,5.05025253 C10.0234175,4.65972824 10.6565825,4.65972824 11.0471068,5.05025253 L14.9968542,9 L15,9 L15,9.00314575 L15.9968542,10 L15,10.9968542 L15,11 L14.9968542,11 L11.0471068,14.9497475 C10.6565825,15.3402718 10.0234175,15.3402718 9.63289322,14.9497475 C9.24236893,14.5592232 9.24236893,13.9260582 9.63289322,13.5355339 L12.1684271,11 Z"/></svg>