<svg xmlns="http://www.w3.org/2000/svg" width="16" height="16" viewBox="0 0 16 16"><path fill="#516072" fill-rule="evenodd" d="M7,9.16842712 L7,4 C7,2.8954305 6.1045695,2 5,2 L-1.59161573e-12,2 L-1.59161573e-12,3.28626015e-14 L5,3.28626015e-14 C7.209139,3.25665421e-14 9,1.790861 9,4 L9,9.16842712 L11.5355339,6.63289322 C11.9260582,6.24236893 12.5592232,6.24236893 12.9497475,6.63289322 C13.3402718,7.02341751 13.3402718,7.65658249 12.9497475,8.04710678 L8,12.9968542 L7.00314575,12 L7,12 L3.05025253,8.04710678 C2.65972824,7.65658249 2.65972824,7.02341751 3.05025253,6.63289322 C3.44077682,6.24236893 4.0739418,6.24236893 4.46446609,6.63289322 L7,9.16842712 Z M-1.31450406e-13,16 L-1.31450406e-13,10 L2,10 L2,14 L14,14 L14,10 L16,10 L16,16 L-1.31450406e-13,16 Z"/></svg>