<svg width="24" height="24" xmlns="http://www.w3.org/2000/svg"><g fill="none" fill-rule="evenodd"><path d="M7.739 15.062c-.021 0-.19-.042-.357-.084-.378-.084-.483-.126-.588-.252-.042-.063-.042-.063-.042-3.173v-3.11l.084-.022c.168-.042.315-.063.672-.084h.336v6.746h-.021c-.021 0-.042-.02-.084-.02zm9.887-.02c-1.05-.064-1.743-.568-2.036-1.45-.19-.59-.231-1.598-.105-2.186.23-1.01.881-1.597 1.91-1.745.23-.02.84-.02 1.07 0 .525.084.966.253 1.28.568.337.315.547.693.652 1.26.041.21.041.295.041.82 0 .547 0 .589-.041.84-.19.82-.546 1.325-1.176 1.64-.399.21-.966.294-1.595.252zm.65-.736c.4-.084.777-.484.924-1.009.105-.378.147-.82.105-1.282-.084-.672-.23-1.072-.504-1.345a1.034 1.034 0 0 0-.504-.294c-.147-.021-.524-.021-.671.02-.504.127-.84.547-.966 1.22-.063.231-.084.714-.084.988.063.882.357 1.45.882 1.639.23.105.545.126.818.063zm-8.312.714c-.105 0-.19-.02-.21-.02a.458.458 0 0 1-.084-.106c-.042-.105-.042-.105-.042-2.92V9.135c.021 0 .42-.105.546-.147.252-.042.357-.021.671.084.504.168.945.273 1.428.378.084 0 .189.042.23.042l.043.021-.021.042c-.021.021-.063.084-.105.126-.063.063-.063.063-.819.063H10.7v1.681h.881l.903.022-.021.126c0 .189-.063.378-.126.462-.084.147-.063.147-.86.168-.379.021-.714.021-.735.021h-.042v.673c.02.357.02.82.02 1.008v.337h2.016l.02.042c.022.042-.041.378-.083.441a.455.455 0 0 1-.21.231c-.084.042-.147.042-.924.063-.923.021-1.301.021-1.574 0zm-6.15-5.106c-.169-.042-.273-.127-.273-.253 0-.063.167-.336.314-.525.231-.315.546-.61.882-.84.567-.358 1.155-.568 1.952-.694.273-.042.378-.042.945-.042.881 0 1.154.042 2.414.378 1.784.505 2.645.673 4.114.778.714.063 2.267.084 2.834.042 1.238-.084 1.89-.168 2.897-.379.944-.21 2.099-.63 2.75-.987.188-.126.251-.147.377-.105.19.042.294.168.294.336 0 .126-.042.168-.378.378-.44.252-.86.463-1.322.652-.147.042-.63.21-.84.273-.755.231-2.015.483-2.917.546a24.63 24.63 0 0 1-2.184.084c-1.826 0-3.001-.147-4.597-.567-.084-.021-.42-.147-.776-.252-1.26-.42-1.743-.526-2.561-.526-.483 0-.86.021-1.26.126A3.53 3.53 0 0 0 4.38 9.703c-.126.148-.168.19-.23.21a.895.895 0 0 1-.337 0z" fill="#E82510" fill-rule="nonzero"/><path d="M.833 17.122c-.168-.063-.19-.231-.063-.462.168-.337.65-.862 1.028-1.114.882-.61 1.826-.862 3.044-.778.462.042.714.084 1.931.441.336.106 1.386.4 1.617.463 1.007.294 1.679.462 2.057.504a.892.892 0 0 0 .23.042c.043.021.21.042.378.042.147.021.315.042.4.063.272.021.902 0 1.133-.02.609-.127.923-.358 1.112-.841.063-.168.063-.168.063-2.964V9.703h.19c.104.021.335.021.524.042h.336v2.46c0 2.437 0 2.48-.042 2.71-.147.715-.525 1.282-1.113 1.597-.587.337-1.175.379-2.414.232-1.154-.148-2.645-.42-3.337-.652-.588-.189-.798-.231-1.176-.336-1.196-.294-2.14-.336-3.023-.19-.986.169-1.763.652-2.246 1.346-.084.126-.147.21-.168.21a1.697 1.697 0 0 1-.461 0zm13.203-8.616c-.21-.042-.378-.19-.483-.42-.063-.127-.063-.148-.063-.337 0-.168 0-.21.042-.315a.916.916 0 0 1 .4-.4c.125-.063.167-.063.335-.063s.21 0 .336.063c.294.148.483.463.462.757a.794.794 0 0 1-1.029.715z" fill="#004893"/></g></svg>