<svg width="24" height="24" xmlns="http://www.w3.org/2000/svg"><g fill="none" fill-rule="nonzero"><path d="M9.75 4.5c5.390625 0 9.75 4.359375 9.75 9.75S15.140625 24 9.75 24 0 19.640625 0 14.25 4.359375 4.5 9.75 4.5z" fill="#74D425"/><path d="M16.4296875 7.1484375c.4453125.421875.8671875.890625 1.21875 1.3828125L15.75 9.6328125c-.375.2109375-.890625.1640625-1.1484375-.09375-.2578125-.28125-.140625-.5859375.1640625-.8671875l1.6640625-1.5234375z" fill="#115805"/><path d="M12.046875 10.453125c.2578125-.09375.609375-.09375.75-.046875.6796875.234375.65625.9140625 1.3359375 1.03125.09375.0234375.4453125-.2109375.5390625-.1875.421875.0703125.8203125.46875 1.1953125.28125.2109375-.09375.328125-.515625.140625-.6796875-.1875-.140625-.4921875-.046875-.703125-.1875-.3046875-.2109375-.5625.09375-.8203125-.2109375-.1171875-.1171875-.328125-.5390625-.46875-.7734375-.1640625-.234375-.65625-.140625-.5859375-.0234375.2578125.328125.6328125.3984375.6796875.5859375s-.4921875.46875-.3515625.09375c.09375-.1875-.3046875-.3046875-.7265625-.5390625-.234375-.1171875-.46875-.4453125-.8203125-.28125-.1640625.09375-.4921875.4921875-.6328125.703125-.2109375.328125-.703125.234375-1.0546875.0703125-.328125-.1640625-.328125-.9609375.09375-1.3125s.75-.140625 1.171875-.2578125c.1640625-.046875.234375-.234375.4921875-.3984375.28125-.1875-.1875-.4921875-.0234375-.8203125.1171875-.2578125.5625-.3046875.7734375-.421875.2109375-.09375.4453125-.28125.6796875-.140625.328125.1875.6796875.2109375.984375.3984375.46875.28125.796875.4453125 1.2421875.3984375-1.4765625-1.4296875-3.46875-2.34375-5.6484375-2.4609375.3046875.2109375.84375.84375.703125 1.171875s-.3515625.7265625-.984375.9609375c-.46875.1875-1.1015625.1875-1.5703125.3984375s-.9609375.1875-1.2421875.2578125c-.4453125.09375.0234375-1.453125-.09375-1.6171875-.1875-.2578125-1.359375-.046875-1.4765625.2109375-.234375.6328125.328125 1.1484375.3046875 1.265625-.046875.234375-.046875 1.171875-.28125 1.40625-.328125.375-1.1953125.703125-1.3125.7265625C3.796875 10.125 3.65625 10.6875 3.234375 11.015625c-.1640625.140625-1.0546875 1.078125-1.1953125 1.359375-.375.796875 0 1.2890625.1640625 1.453125.3046875.2578125.421875.3046875.7734375.3984375.1171875.046875 1.3828125.6796875 1.734375 1.0546875.3515625.3515625.515625.7265625.8671875.9375.421875.2578125 1.1953125.5390625 1.3125.75.46875.890625.3046875 2.15625-1.03125 3.0703125-.3515625.234375-1.0546875.609375-.8671875 1.265625.0703125.2578125.046875.46875.140625.6796875C6.4921875 22.78125 8.0625 23.25 9.75 23.25c4.96875 0 9-4.03125 9-9 0-.421875-.0234375-.84375-.09375-1.265625-.140625-.1875-.28125-.328125-.375-.3046875-.1640625.046875-.1640625.5390625-.328125.796875-.140625.234375-.4453125.2578125-.4921875.328125-.3046875.4453125.7734375.796875.3046875 1.3828125-.2109375.28125-.8203125.8671875-.984375 1.6171875-.3515625 1.6171875-.1171875.6328125-.6328125 1.9453125-.0703125.1875-.2109375.9375-.328125 1.1015625-.4921875.75-1.8984375 1.6171875-2.25 1.171875-.1875-.2578125-.3046875-.6328125-.375-.984375-.0703125-.375-.4453125-.84375-.3984375-1.125.046875-.4453125.09375-.5859375.09375-1.1015625 0-.0234375-.3046875-1.265625-.3515625-1.3828125-.234375-.46875-.609375-.703125-1.1484375-.515625-.3984375.140625-.75-.0703125-1.078125-.1875-.65625-.28125-.9609375-1.125-1.1015625-1.828125 0 0 .1171875-1.1015625.1171875-1.1484375.0234375-.3046875.140625-.5625.3046875-.796875 1.171875-1.6640625.890625-.9609375 2.4140625-1.5zm-7.4765625 11.15625c-.515625-.5859375-1.0546875-1.3125-1.21875-1.7109375-.1875-.46875-.234375-1.3125-.46875-1.5703125-.46875-.515625-.890625-.9609375-.9609375-1.5-.09375-.4921875-.375-1.21875-.421875-1.59375-.0703125-.5625-.328125-1.1484375-.7265625-1.59375C.75 13.8515625.75 14.0390625.75 14.25c0 3.046875 1.5 5.71875 3.8203125 7.359375z" fill="#0D6FE0"/><path d="M20.90625 5.2265625L18.7734375 3.09375l-4.359375 5.3203125C14.1328125 8.765625 14.25 9.1875 14.53125 9.46875s.703125.3984375 1.0546875.1171875l5.3203125-4.359375z" fill="#3C3C3C"/><path d="M20.25 0C22.3125 0 24 1.6875 24 3.75S22.3125 7.5 20.25 7.5 16.5 5.8125 16.5 3.75 18.1875 0 20.25 0z" fill="red"/></g></svg>