<svg width="16" height="16" xmlns="http://www.w3.org/2000/svg"><g fill="none" fill-rule="nonzero"><path d="M6.5 3C10.09375 3 13 5.90625 13 9.5S10.09375 16 6.5 16 0 13.09375 0 9.5 2.90625 3 6.5 3z" fill="#74D425"/><path d="M10.953125 4.765625c.296875.28125.578125.59375.8125.921875L10.5 6.421875c-.25.140625-.59375.109375-.765625-.0625-.171875-.1875-.09375-.390625.109375-.578125l1.109375-1.015625z" fill="#115805"/><path d="M8.03125 6.96875c.171875-.0625.40625-.0625.5-.03125.453125.15625.4375.609375.890625.6875.0625.015625.296875-.140625.359375-.125.28125.046875.546875.3125.796875.1875.140625-.0625.21875-.34375.09375-.453125-.125-.09375-.328125-.03125-.46875-.125-.203125-.140625-.375.0625-.546875-.140625-.078125-.078125-.21875-.359375-.3125-.515625-.109375-.15625-.4375-.09375-.390625-.015625.171875.21875.421875.265625.453125.390625s-.328125.3125-.234375.0625c.0625-.125-.203125-.203125-.484375-.359375-.15625-.078125-.3125-.296875-.546875-.1875-.109375.0625-.328125.328125-.421875.46875-.140625.21875-.46875.15625-.703125.046875-.21875-.109375-.21875-.640625.0625-.875s.5-.09375.78125-.171875c.109375-.03125.15625-.15625.328125-.265625.1875-.125-.125-.328125-.015625-.546875.078125-.171875.375-.203125.515625-.28125.140625-.0625.296875-.1875.453125-.09375.21875.125.453125.140625.65625.265625.3125.1875.53125.296875.828125.265625-.984375-.953125-2.3125-1.5625-3.765625-1.640625.203125.140625.5625.5625.46875.78125s-.234375.484375-.65625.640625c-.3125.125-.734375.125-1.046875.265625s-.640625.125-.828125.171875c-.296875.0625.015625-.96875-.0625-1.078125-.125-.171875-.90625-.03125-.984375.140625-.15625.421875.21875.765625.203125.84375-.03125.15625-.03125.78125-.1875.9375-.21875.25-.796875.46875-.875.484375C2.53125 6.75 2.4375 7.125 2.15625 7.34375c-.109375.09375-.703125.71875-.796875.90625-.25.53125 0 .859375.109375.96875.203125.171875.28125.203125.515625.265625.078125.03125.921875.453125 1.15625.703125.234375.234375.34375.484375.578125.625.28125.171875.796875.359375.875.5.3125.59375.203125 1.4375-.6875 2.046875-.234375.15625-.703125.40625-.578125.84375.046875.171875.03125.3125.09375.453125C4.328125 15.1875 5.375 15.5 6.5 15.5c3.3125 0 6-2.6875 6-6 0-.28125-.015625-.5625-.0625-.84375-.09375-.125-.1875-.21875-.25-.203125-.109375.03125-.109375.359375-.21875.53125-.09375.15625-.296875.171875-.328125.21875-.203125.296875.515625.53125.203125.921875-.140625.1875-.546875.578125-.65625 1.078125-.234375 1.078125-.078125.421875-.421875 1.296875-.046875.125-.140625.625-.21875.734375-.328125.5-1.265625 1.078125-1.5.78125-.125-.171875-.203125-.421875-.25-.65625-.046875-.25-.296875-.5625-.265625-.75.03125-.296875.0625-.390625.0625-.734375 0-.015625-.203125-.84375-.234375-.921875-.15625-.3125-.40625-.46875-.765625-.34375-.265625.09375-.5-.046875-.71875-.125-.4375-.1875-.640625-.75-.734375-1.21875 0 0 .078125-.734375.078125-.765625.015625-.203125.09375-.375.203125-.53125.78125-1.109375.59375-.640625 1.609375-1zm-4.984375 7.4375c-.34375-.390625-.703125-.875-.8125-1.140625-.125-.3125-.15625-.875-.3125-1.046875-.3125-.34375-.59375-.640625-.640625-1-.0625-.328125-.25-.8125-.28125-1.0625-.046875-.375-.21875-.765625-.484375-1.0625C.5 9.234375.5 9.359375.5 9.5c0 2.03125 1 3.8125 2.546875 4.90625z" fill="#0D6FE0"/><path d="M13.9375 3.484375L12.515625 2.0625l-2.90625 3.546875C9.421875 5.84375 9.5 6.125 9.6875 6.3125s.46875.265625.703125.078125l3.546875-2.90625z" fill="#3C3C3C"/><path d="M13.5 0C14.875 0 16 1.125 16 2.5S14.875 5 13.5 5 11 3.875 11 2.5 12.125 0 13.5 0z" fill="red"/></g></svg>