<?xml version="1.0" encoding="UTF-8" standalone="no"?>
<svg width="24px" height="24px" viewBox="0 0 24 24" version="1.1" xmlns="http://www.w3.org/2000/svg" xmlns:xlink="http://www.w3.org/1999/xlink">
    <!-- Generator: Sketch 43.2 (39069) - http://www.bohemiancoding.com/sketch -->
    <title>triangle_rainbow_24x24</title>
    <desc>Created with Sketch.</desc>
    <defs></defs>
    <g id="16,-24,-32-en-48-svg" stroke="none" stroke-width="1" fill="none" fill-rule="evenodd">
        <g id="triangle_rainbow_24x24" transform="translate(1.000000, 1.000000)">
            <path d="M2.107,16.978 L19.904,16.999 L21.534,20.111 C21.792,20.602 21.561,21 20.998,21 L1.002,21 C0.449,21 0.21,20.599 0.466,20.111 L2.107,16.978 L2.107,16.978 Z" id="Shape" fill="#1A96F1"></path>
            <polygon id="Shape" fill="#57D31A" points="4.205 12.972 17.803 12.987 19.904 16.999 2.107 16.978 4.205 12.972"></polygon>
            <polygon id="Yellow" fill="#FFCC00" points="17.803 12.987 4.205 12.972 6.291 8.989 15.713 8.998 17.803 12.987"></polygon>
            <polygon id="Orange" fill="#FF7000" points="13.613 4.988 15.713 8.998 6.291 8.989 8.387 4.988"></polygon>
            <polygon id="Red" fill="#FF0000" points="11 0 13.618 4.999 8.39 4.983"></polygon>
        </g>
    </g>
</svg>