<svg width="48" height="48" viewBox="0 0 48 48" fill="none" xmlns="http://www.w3.org/2000/svg">
<g id="m/mime_pres_key/mime_pres_key_48x48">
<g id="48/baseshape">
<g id="48/baseshape_2">
<path id="OutsideBorder" d="M44 44C44 45.1046 43.1046 46 42 46H12C10.8954 46 10 45.1046 10 44V4C10 2.89543 10.8954 2 12 2H34L44 12V44Z" fill="#ECF0F4"/>
</g>
<path id="Combined Shape" fill-rule="evenodd" clip-rule="evenodd" d="M38 18C38 13 34 9 29 9V18H38ZM40 32H14V34H40V32ZM40 36H14V38H40V36ZM14 40H40V42H14V40Z" fill="#F5BA9D"/>
<path id="Shape" d="M27 11C22 11 18 15 18 20C18 25 22 29 27 29C32 29 36 25 36 20H27V11Z" fill="#91A0AF"/>
</g>
<g id="48/corner">
<path id="InsideWhite" fill-rule="evenodd" clip-rule="evenodd" d="M34 2L44 12H34V2Z" fill="#D8E0E8"/>
</g>
<g id="24/chard/color/yellow">
<path id="Shape_2" d="M14 12V42L24 44V10L14 12Z" fill="#ECF0F4"/>
<path id="Chard" d="M22 12V42L2 39V15L22 12Z" fill="#D04727"/>
</g>
<g id="24/chard/letter/z">
<path id="K" fill-rule="evenodd" clip-rule="evenodd" d="M6.37988 34V20H9.45988V26.12L15.1399 20H18.8599L13.1599 25.94L19.1199 34H15.4199L11.0799 28.04L9.45988 29.72V34H6.37988Z" fill="white"/>
</g>
</g>
</svg>
