<svg width="64" height="64" viewBox="0 0 64 64" fill="none" xmlns="http://www.w3.org/2000/svg">
<g id="m/mime_sound_ram/mime_sound_ram_64x64">
<g id="64/baseshape">
<g id="64/baseshape_2">
<path id="OutsideBorder" d="M58 60C58 61.1046 57.1046 62 56 62H15C13.8954 62 13 61.1046 13 60V4C13 2.89543 13.8954 2 15 2H44L58 17V60Z" fill="#ECF0F4"/>
</g>
<path id="Combined Shape" fill-rule="evenodd" clip-rule="evenodd" d="M54 28C54 20.2759 45.2992 20.0095 44.9992 20.0003L44.9913 20L45 20H43V48C42.356 47.4683 40.9347 46.9231 39 47C36.388 46.9231 34 48.731 34 51C34 53.1921 36.388 55 39 55C42.2787 55 44.6667 53.1921 45 51V24C50.7586 24.035 53.4858 27.3769 53.9334 27.9253C53.978 27.9801 54 28.007 54 28ZM39 28H14V30H39V28ZM14 34H39V36H14V34ZM39 40H14V42H39V40Z" fill="#91A0AF"/>
</g>
<g id="64/corner">
<path id="InsideWhite" fill-rule="evenodd" clip-rule="evenodd" d="M44 17V2L58 17H44Z" fill="#D8E0E8"/>
</g>
<g id="64/chard/color/yellow">
<path id="Shape" d="M14 19V56L32 59V16L14 19Z" fill="#ECF0F4"/>
<path id="Chard" d="M30 18.4318V56.6364L6 53V22L30 18.4318Z" fill="#00B4E2"/>
</g>
<g id="64/chard/letter/a">
<path id="R" fill-rule="evenodd" clip-rule="evenodd" d="M11.3398 46V29.2H19.0198C21.1558 29.2 22.8118 29.8 23.9158 30.904C24.8518 31.84 25.3558 33.16 25.3558 34.744V34.792C25.3558 37.504 23.8918 39.208 21.7558 40L25.8598 46H21.5398L17.9398 40.624H15.0358V46H11.3398ZM15.0358 37.36H18.7798C20.5798 37.36 21.6118 36.4 21.6118 34.984V34.936C21.6118 33.352 20.5078 32.536 18.7078 32.536H15.0358V37.36Z" fill="white"/>
</g>
</g>
</svg>
