<svg width="16" height="16" viewBox="0 0 16 16" fill="none" xmlns="http://www.w3.org/2000/svg">
<g id="m/mime_sound_ram/mime_sound_ram_16x16">
<g id="16/baseshape">
<g id="16/baseshape_2">
<path id="OutsideBorder" d="M3 0V16H16V4L12 0H3Z" fill="#ECF0F4"/>
</g>
<path id="music_note" fill-rule="evenodd" clip-rule="evenodd" d="M10 11C10.3643 11 10.7058 11.073 11 11.2007V7H12H13V8H12V12.5C12 13.3284 11.1046 14 10 14C8.89543 14 8 13.3284 8 12.5C8 11.6716 8.89543 11 10 11Z" fill="#91A0AF"/>
</g>
<g id="16/corner">
<path id="InsideWhite" d="M12 4V0V0L16 4V4H12Z" fill="#D8E0E8"/>
</g>
<g id="16/chard/color/aqua">
<path id="Shape" fill-rule="evenodd" clip-rule="evenodd" d="M4 2.66077V14.2205L8 15V2L4 2.66077Z" fill="#ECF0F4"/>
<path id="Chard" fill-rule="evenodd" clip-rule="evenodd" d="M0 4L7 3V14L0 12.9V4Z" fill="#00B4E2"/>
</g>
<g id="16/chard/letter/a">
<path id="R" fill-rule="evenodd" clip-rule="evenodd" d="M1.6499 10.5V5.83333H3.78324C4.37657 5.83333 4.83657 6 5.14324 6.30667C5.40324 6.56667 5.54324 6.93333 5.54324 7.37333V7.38667C5.54324 8.14 5.13657 8.61333 4.54324 8.83333L5.68324 10.5H4.48324L3.48324 9.00667H2.67657V10.5H1.6499ZM2.67657 8.1H3.71657C4.21657 8.1 4.50324 7.83333 4.50324 7.44V7.42667C4.50324 6.98667 4.19657 6.76 3.69657 6.76H2.67657V8.1Z" fill="white"/>
</g>
</g>
</svg>
