<?xml version="1.0" encoding="UTF-8" standalone="no"?>
<svg width="12px" height="12px" viewBox="0 0 12 12" version="1.1" xmlns="http://www.w3.org/2000/svg" xmlns:xlink="http://www.w3.org/1999/xlink">
    <!-- Generator: Sketch 43.2 (39069) - http://www.bohemiancoding.com/sketch -->
    <title>status_user_dark_12x12</title>
    <desc>Created with Sketch.</desc>
    <defs></defs>
    <g id="Action" stroke="none" stroke-width="1" fill="none" fill-rule="evenodd">
        <g id="Action-icons" transform="translate(-817.000000, -420.000000)" fill="#868686">
            <g id="status_user_12x12" transform="translate(817.000000, 420.000000)">
                <path d="M8.24970537,7.33333333 C8.24970537,7.33333333 6.74933038,6.6 7.50016071,5.86666667 C7.80314989,5.5704 7.98014357,5.0327619 8.08813971,4.45070476 C8.26299061,4.44651429 8.49483947,4.07691429 8.62083497,3.5824381 C8.75454448,3.05904762 8.71897432,2.59893333 8.53983786,2.55535238 C8.4515553,2.53398095 8.34441627,2.61904762 8.24327703,2.77451429 C8.24884826,2.54655238 8.24970537,2.3408 8.24970537,2.2 C8.24970537,1.46666667 7.50016071,0 5.99978572,0 C4.49983929,0 3.74986608,1.46666667 3.74986608,2.2 C3.74986608,2.3408 3.75115174,2.54655238 3.75672297,2.77451429 C3.65515517,2.61904762 3.5484447,2.53398095 3.45973358,2.55535238 C3.28102568,2.59893333 3.24502696,3.05904762 3.37873647,3.5824381 C3.50473197,4.07691429 3.73700939,4.44651429 3.91143173,4.45070476 C4.01942788,5.0327619 4.19685011,5.5704 4.49983929,5.86666667 C5.25024106,6.6 3.74986608,7.33333333 3.74986608,7.33333333 C3.74986608,7.33333333 1.4065212,8.25020952 0.750401771,8.8 C0.332846255,9.14992572 0.142888477,10.3490869 0.0599226093,11.1757419 C0.0410003848,11.3642791 0.0599226093,12 0.722900391,12 L11.4539185,12 C11.8573608,12.0079956 11.9622651,11.4085472 11.9483597,11.2617296 C11.8700296,10.4346943 11.6815923,9.1622622 11.2495982,8.8 C10.5934788,8.25020952 8.24970537,7.33333333 8.24970537,7.33333333 Z"></path>
            </g>
        </g>
    </g>
</svg>