<svg width="24" height="24" xmlns="http://www.w3.org/2000/svg"><defs><linearGradient x1="50%" y1="1.632%" x2="50%" y2="98.544%" id="a"><stop stop-color="#FF1B2D" offset="0%"/><stop stop-color="#FF1B2D" offset="30%"/><stop stop-color="#FF1B2D" offset="61%"/><stop stop-color="#A70014" offset="100%"/></linearGradient><linearGradient x1="49.999%" y1=".848%" x2="49.999%" y2="99.613%" id="b"><stop stop-color="#9C0000" offset="0%"/><stop stop-color="#FF4B4B" offset="70%"/><stop stop-color="#FF4B4B" offset="100%"/></linearGradient></defs><g fill="none" fill-rule="nonzero"><path d="M12 .176C5.47.176.176 5.471.176 12c0 6.341 4.993 11.515 11.262 11.81a11.78 11.78 0 0 0 8.442-2.995 8.526 8.526 0 0 1-4.739 1.446c-2.816 0-5.336-1.397-7.033-3.6-1.308-1.543-2.153-3.823-2.212-6.383v-.558c.06-2.56.904-4.842 2.212-6.384 1.697-2.202 4.22-3.6 7.033-3.6 1.732 0 3.353.53 4.739 1.45a11.784 11.784 0 0 0-7.835-3.01H12z" fill="url(#a)"/><path d="M8.108 5.336c1.085-1.28 2.487-2.054 4.017-2.054 3.442 0 6.233 3.904 6.233 8.716 0 4.814-2.79 8.715-6.233 8.715-1.532 0-2.932-.772-4.017-2.052 1.697 2.203 4.217 3.6 7.033 3.6 1.732 0 3.353-.53 4.739-1.447A11.787 11.787 0 0 0 23.824 12c0-3.501-1.523-6.65-3.944-8.814a8.526 8.526 0 0 0-4.739-1.447c-2.816 0-5.336 1.397-7.033 3.6" fill="url(#b)"/></g></svg>