<svg width="64" height="64" viewBox="0 0 64 64" fill="none" xmlns="http://www.w3.org/2000/svg">
<g id="m/mime_pres_potx/mime_pres_potx_64x64">
<g id="64/baseshape">
<g id="64/baseshape_2">
<path id="OutsideBorder" d="M58 60C58 61.1046 57.1046 62 56 62H15C13.8954 62 13 61.1046 13 60V4C13 2.89543 13.8954 2 15 2H44L58 17V60Z" fill="#ECF0F4"/>
</g>
<path id="Combined Shape" fill-rule="evenodd" clip-rule="evenodd" d="M49 26C49 19.3333 43.6667 14 37 14V26H49ZM53 45H18V47H53V45ZM53 50H18V52H53V50ZM18 55H53V57H18V55Z" fill="#F5BA9D"/>
<path id="Shape" d="M35 16C28.3333 16 23 21.3333 23 28C23 34.6667 28.3333 40 35 40C41.6667 40 47 34.6667 47 28H35V16Z" fill="#91A0AF"/>
</g>
<g id="64/corner">
<path id="InsideWhite" fill-rule="evenodd" clip-rule="evenodd" d="M44 17V2L58 17H44Z" fill="#D8E0E8"/>
</g>
<g id="64/chard/color/yellow">
<path id="Shape_2" d="M14 19V56L32 59V16L14 19Z" fill="#ECF0F4"/>
<path id="Chard" d="M30 18.4318V56.6364L6 53V22L30 18.4318Z" fill="#D04727"/>
</g>
<g id="64/chard/letter/a">
<path id="P" fill-rule="evenodd" clip-rule="evenodd" d="M12 46V29.2H18.864C22.872 29.2 25.296 31.576 25.296 35.008V35.056C25.296 38.944 22.272 40.96 18.504 40.96H15.696V46H12ZM15.696 37.672H18.624C20.472 37.672 21.552 36.568 21.552 35.128V35.08C21.552 33.424 20.4 32.536 18.552 32.536H15.696V37.672Z" fill="white"/>
</g>
</g>
</svg>
