<svg width="16" height="16" xmlns="http://www.w3.org/2000/svg"><g fill="none" fill-rule="nonzero"><path d="M0 8c0 4.4166667 3.58333333 8 8 8 4.4166667 0 8-3.5833333 8-8 0-4.41666667-3.5833333-8-8-8-4.41666667 0-8 3.58333333-8 8z" fill="#516072"/><path d="M9.58333333 6.41666667L8.51666667 5.33333333H5.33333333V2.66666667h3.73333334C9.4 2.66666667 9.75 2.8 10.0166667 3.05l1.4666666 1.46666667 1.5833334-1.58333334V8H8l1.58333333-1.58333333zM6.41666667 9.58333333l1.06666666 1.08333337h3.18333337v2.6666666H6.93333333C6.6 13.3333333 6.25 13.2 5.98333333 12.95l-1.46666666-1.4666667-1.58333334 1.5833334V8H8L6.41666667 9.58333333z" fill="#FFF"/></g></svg>