<svg width="16" height="16" viewBox="0 0 16 16" fill="none" xmlns="http://www.w3.org/2000/svg">
<path fill-rule="evenodd" clip-rule="evenodd" d="M1 4L1.83624 13.8557C1.89114 14.5027 2.43238 15 3.08176 15H12.9182C13.5676 15 14.1089 14.5027 14.1638 13.8557L15 4H1Z" fill="#DDDDEA"/>
<path fill-rule="evenodd" clip-rule="evenodd" d="M2.20711 1C2.0745 1 1.94732 1.05268 1.85355 1.14645L0 3V4H16V3L14.1464 1.14645C14.0527 1.05268 13.9255 1 13.7929 1H2.20711Z" fill="#FFAF70"/>
<path fill-rule="evenodd" clip-rule="evenodd" d="M0 3V4.5C0 4.77614 0.223858 5 0.5 5H15.5C15.7761 5 16 4.77614 16 4.5V3H0Z" fill="#FF7112"/>
<path d="M5 7C5 6.44772 5.44772 6 6 6H10C10.5523 6 11 6.44772 11 7C11 7.55228 10.5523 8 10 8H6C5.44772 8 5 7.55228 5 7Z" fill="#6E6E90"/>
</svg>
