<svg width="16" height="16" xmlns="http://www.w3.org/2000/svg"><g fill="none" fill-rule="evenodd"><path fill="#DDDDEA" d="M4 2.66666667L.66666667 6v4.6666667h6.66666666V6z"/><path fill="#1A96F1" d="M2.66666667 7.33333333v3.33333337h2.66666666V7.33333333zM0 6.26880573l.66666667.60608494L4 3.25810904 7.33333333 6.875 8 6.26880573 4 2z"/><path fill="#DDDDEA" d="M12 2.66666667L8.66666667 6v4.6666667h6.66666663V6z"/><path fill="#57D31A" d="M10.6666667 7.33333333v3.33333337h2.6666666V7.33333333z"/><path fill="#3BB100" d="M8 6.26880573l.66666667.60608494L12 3.25810904 15.3333333 6.875 16 6.26880573 12 2z"/><path fill="#DDDDEA" d="M8 6L4.66666667 9.33333333V14h6.66666663V9.33333333z"/><path fill="red" d="M6.66666667 10.6666667V14h2.66666666v-3.3333333zM4 9.60213906l.66666667.60608494L8 6.59144237l3.3333333 3.61689093L12 9.60213906 8 5.33333333z"/></g></svg>