<svg width="24" height="24" xmlns="http://www.w3.org/2000/svg"><g fill="none" fill-rule="evenodd"><path fill="#DDDDEA" d="M6 4L1 9v7h10V9z"/><path fill="#1A96F1" d="M4 11v5h4v-5zM0 9.40320859l1 .90912741 5-5.42517244L11 10.3125l1-.90929141L6 3z"/><path fill="#DDDDEA" d="M18 4l-5 5v7h10V9z"/><path fill="#57D31A" d="M16 11v5h4v-5z"/><path fill="#3BB100" d="M12 9.40320859l1 .90912741 5-5.42517244L23 10.3125l1-.90929141L18 3z"/><path fill="#DDDDEA" d="M12 9l-5 5v7h10v-7z"/><path fill="red" d="M10 16v5h4v-5zM6 14.4032086l1 .9091274 5-5.42517244L17 15.3125l1-.9092914L12 8z"/></g></svg>