<svg xmlns="http://www.w3.org/2000/svg" width="16" height="16" viewBox="0 0 16 16"><g fill="none" fill-rule="evenodd"><path fill="#FAD00A" d="M4.5,3 C6.45932824,3 8.12618683,4.25221144 8.74394144,6 L16,6 L16,9 L12,9 L8.74394144,9 C8.12618683,10.7477886 6.45932824,12 4.5,12 C2.01471863,12 0,9.98528137 0,7.5 C0,5.01471863 2.01471863,3 4.5,3 Z M4.5,9.5 C5.6045695,9.5 6.5,8.6045695 6.5,7.5 C6.5,6.3954305 5.6045695,5.5 4.5,5.5 C3.3954305,5.5 2.5,6.3954305 2.5,7.5 C2.5,8.6045695 3.3954305,9.5 4.5,9.5 Z"/><polygon fill="#DAAE00" points="12 9 12 12 13.25 12 13.25 11 14.75 11 14.75 12 16 12 16 9"/></g></svg>