<svg width="24" height="24" xmlns="http://www.w3.org/2000/svg"><g fill-rule="nonzero" fill="none"><path d="M17.968 13.467L17.934 6.8c0-2-1.527-3.667-3.38-3.633h-2.047v5.666l-3.023 2.9v3.7s-.13.6-.747.6c-.618 0-.65-.566-.65-.566s-.033-5.534-.033-6c0-.467.195-.534.357-.734.228-.233.325-.433.325-.433V1.5c0-.7-.194-1.267-.845-1.267-.65 0-.942.567-.91 1.3V3.6c-1.072.633-1.82 1.833-1.82 3.267l.033 6.833c0 2.033.325 5.1.715 6.833.162.7.553 1.367 1.072 1.9v-4.566l-.487-.834V10.9s-.065-.8.715-.8.65.8.65.8v4.733s.032.6.845.6.975-.766.975-.766l.033-3.667 2.86-2.733s.39-.067.65.3c.357.5-.098.866-.098.866l-1.723 1.734s.066.366.228.2c.162-.167 1.82-1.834 1.82-1.834s.325-.366.78.134c0 0 .52.433.098.866-.39.434-1.755 1.767-1.755 1.767s-.098.3.13.233c.227-.033 1.852-1.8 1.852-1.8s.357-.366.813.067c.422.433.064.867.064.867l-1.787 1.9s.065.366.228.233l1.787-1.833s.455-.4.878.033c.357.333.195.667-.098.967-.293.3-5.72 6.066-5.72 6.066l-.033 3.867h2.698c1.853 0 3.64-1.5 3.998-3.3.325-1.8.617-4.933.585-6.933m-4.583 5.6c-.357.366-.715.266-.813.166-.097-.1-.454-.533-.454-.533l.91-.933.487.6c0-.034.195.366-.13.7m1.105-1.134c-.357.367-.715.267-.813.167-.097-.1-.454-.533-.454-.533l.91-.934.487.6c0-.033.195.367-.13.7m1.105-1.133c-.357.367-.715.267-.813.167-.097-.1-.454-.534-.454-.534l.91-.933.487.6c.033-.033.228.333-.13.7m1.072-1.167c-.357.367-.715.267-.812.167-.098-.1-.455-.533-.455-.533l.91-.934.488.6c.032-.033.227.367-.13.7" fill="#1D1D1B"/><path d="M8.77 8.333s-.098.2-.325.434c-.162.166-.357.266-.357.733 0 .467.032 6 .032 6s.033.567.65.567.748-.6.748-.6v-3.734l3.022-2.9V3.167L8.803 3.2v-.033 5.166H8.77z" fill="#40BFEF"/><path d="M16.505 13.767c.293-.3.422-.634.098-.967-.423-.433-.878-.033-.878-.033L13.938 14.6c-.13.133-.228-.233-.228-.233l1.787-1.9s.358-.434-.065-.867c-.422-.433-.812-.067-.812-.067s-1.625 1.767-1.852 1.8c-.228.034-.13-.233-.13-.233s1.364-1.333 1.755-1.767c.39-.433-.098-.866-.098-.866-.488-.5-.78-.134-.78-.134s-1.658 1.667-1.82 1.834c-.162.166-.228-.2-.228-.2l1.723-1.734s.455-.366.098-.866c-.26-.367-.65-.3-.65-.3L9.777 11.8l-.033 3.667s-.162.766-.975.766-.845-.6-.845-.6V10.9s.13-.8-.65-.8-.715.8-.715.8v6.133l.488.834v4.566c.78.767 1.852 1.267 2.957 1.267h.682l.033-3.867s5.492-5.766 5.785-6.066" fill="#FFF"/><path d="M13.027 17.767l-.91.933s.358.433.455.533c.098.1.456.167.813-.166.357-.367.162-.734.162-.734l-.52-.566z" fill="#E1071C"/><path d="M14.133 16.633l-.91.934s.357.433.454.533c.098.1.456.167.813-.167.357-.366.162-.733.162-.733l-.52-.567z" fill="#F29606"/><path d="M15.27 15.467l-.91.933s.357.433.455.533c.098.1.455.167.813-.166.357-.367.162-.734.162-.734l-.52-.566z" fill="#FDEA14"/><path d="M16.31 14.333l-.91.934s.357.433.455.533c.098.1.455.167.813-.167.357-.366.162-.733.162-.733l-.52-.567z" fill="#AEC60E"/></g></svg>