<svg width="24" height="24" xmlns="http://www.w3.org/2000/svg"><g fill-rule="nonzero" fill="none"><path d="M22.379 11.68c0 2.301-.874 4.415-2.333 6.066-.435.494.634 4.214.634 4.214s-3.211-2.087-3.836-1.782a11.013 11.013 0 0 1-4.853 1.109c-5.735 0-10.388-4.304-10.388-9.612s4.653-9.607 10.388-9.607c5.74 0 10.388 4.303 10.388 9.611z" fill="#77b829"/><path d="M6.079 6.219c2.182 0 3.956 1.79 3.956 4.002 0 2.208-1.77 4.003-3.956 4.003-2.183 0-3.957-1.79-3.957-4.003 0-2.212 1.77-4.002 3.957-4.002zm0-1.122a5.003 5.003 0 0 0-3.58 1.499 5.125 5.125 0 0 0-1.486 3.625c0 1.369.528 2.657 1.482 3.621a4.993 4.993 0 0 0 3.58 1.499 5.003 5.003 0 0 0 3.579-1.499 5.11 5.11 0 0 0 1.481-3.62A5.122 5.122 0 0 0 9.654 6.6a4.972 4.972 0 0 0-3.575-1.503zM17.908 6.106c2.182 0 3.957 1.79 3.957 4.003 0 2.208-1.77 4.003-3.957 4.003-2.182 0-3.956-1.79-3.956-4.003 0-2.212 1.77-4.003 3.956-4.003zm0-1.121a5.003 5.003 0 0 0-3.58 1.498 5.125 5.125 0 0 0-1.485 3.626c0 1.369.528 2.656 1.481 3.621a4.993 4.993 0 0 0 3.58 1.499 5.003 5.003 0 0 0 3.58-1.499 5.11 5.11 0 0 0 1.48-3.621 5.122 5.122 0 0 0-1.48-3.621 4.998 4.998 0 0 0-3.576-1.503zM8.232 17.393a.333.333 0 0 1 .608-.271c.465 1.043 5.665 1.067 6.325-.036a.333.333 0 1 1 .571.342c-.926 1.548-6.81 1.52-7.504-.035zM13.674 1.004a.277.277 0 1 1 .555 0c0 1.855-1.635 2.485-2.476 1.062-.512-.865-1.593-.623-1.596.617a.277.277 0 0 1-.554-.001C9.607.86 11.44.449 12.23 1.783c.532.9 1.444.55 1.444-.779z" fill="#010202"/><path fill="#010202" d="M4.64 11.72l-.503-.233 1.384-2.993.503-.001 1.397 2.993-.502.234-1.145-2.452zM16.696 11.832l-.503-.233 1.384-2.993h.503l1.392 2.992-.502.234-1.141-2.45z"/></g></svg>