<svg xmlns="http://www.w3.org/2000/svg" width="16" height="16" viewBox="0 0 16 16"><g fill="none" fill-rule="evenodd"><polygon fill="#516072" points="11 21 5 21 5 19 9 19 9 7 5 7 5 5 11 5" transform="rotate(90 8 13)"/><path fill="#516072" d="M4.46710678,5.63603897 L7.00264069,8.17157288 L7.00264069,5.55111512e-16 L9.00264069,5.55111512e-16 L9.00264069,8.17157288 L11.5381746,5.63603897 C11.9286989,5.24551468 12.5618639,5.24551468 12.9523882,5.63603897 C13.3429124,6.02656326 13.3429124,6.65972824 12.9523882,7.05025253 L8.00264069,12 L3.05289322,7.05025253 C2.66236893,6.65972824 2.66236893,6.02656326 3.05289322,5.63603897 C3.44341751,5.24551468 4.07658249,5.24551468 4.46710678,5.63603897 Z"/></g></svg>