<svg xmlns="http://www.w3.org/2000/svg" width="32" height="32" viewBox="0 0 32 32"><g fill="none" fill-rule="evenodd"><g fill-rule="nonzero"><polygon fill="#A7A5A6" points="29 31 6 31 6 1 22 1 29 9"/><polygon fill="#FFFFFF" points="7 30 7 2 21.5 2 28 9.5 28 30"/></g><path fill="#A7A5A6" d="M16,15 L18,15 L18,16 L16,16 L9,16 L9,15 L16,15 Z M21,13 L26,13 L26,14 L21,14 L18,14 L18,13 L21,13 Z M12,13 L17,13 L17,14 L12,14 L9,14 L9,13 L12,13 Z M14,9 L20,9 L20,10 L14,10 L14,9 Z M9,11 L19,11 L19,12 L9,12 L9,11 Z M19,15 L22,15 L22,16 L19,16 L19,15 Z M23,15 L26,15 L26,16 L23,16 L23,15 Z M20,11 L26,11 L26,12 L20,12 L20,11 Z M9,5 L18,5 L18,6 L9,6 L9,5 Z"/><g transform="translate(9 18)"><rect width="17" height="2" fill="#1A96F1"/><rect width="17" height="2" y="2" fill="#5EAFEA"/><rect width="17" height="2" y="4" fill="#86E6FF"/><rect width="17" height="2" y="6" fill="#339A00"/><rect width="17" height="2" y="8" fill="#57D31A"/><rect width="5" height="1" x="2" y="1" fill="#FFFFFF" rx=".5"/><rect width="5" height="1" x="11" y="3" fill="#FFFFFF" rx=".5"/><circle cx="12.5" cy="4.5" r="2.5" fill="#115805"/><rect width="1" height="3" x="12" y="6" fill="#115805"/><rect width="8" height="1" x="2" y="7" fill="#86E6FF" rx=".5"/></g><polygon fill="#FFFFFF" points="22 2.5 27.5 9 22 9"/><polygon fill="#A7A5A6" points="22 9 29 9 29 10 21 10 21 1.5 22 1.5"/><g fill-rule="nonzero"><polygon fill="#FFFFFF" points="7 9.5 7 28 16 29.5 16 8"/><polygon fill="#FF520E" points="15 9.216 15 28.318 3 26.5 3 11"/></g><polygon fill="#FFFFFF" points="8.028 23 8.028 21.08 9.972 21.08 9.972 23"/></g></svg>