<svg xmlns="http://www.w3.org/2000/svg" width="48" height="48" viewBox="0 0 48 48"><g fill="none" fill-rule="evenodd"><g fill-rule="nonzero"><polygon fill="#A7A5A6" points="44 46 10 46 10 2 34 2 44 12"/><polygon fill="#FFFFFF" points="11 45 11 3 33.5 3 43 12.5 43 45"/></g><path fill="#A7A5A6" d="M13,15 L20,15 L20,16 L13,16 L13,15 Z M21,15 L30,15 L30,16 L21,16 L21,15 Z M13,18 L27,18 L27,19 L13,19 L13,18 Z M13,21 L17,21 L17,22 L13,22 L13,21 Z M18,21 L25,21 L25,22 L18,22 L18,21 Z M26,21 L30,21 L30,22 L26,22 L26,21 Z M31,21 L41,21 L41,22 L31,22 L31,21 Z M13,24 L23,24 L23,25 L13,25 L13,24 Z M24,24 L27,24 L27,25 L24,25 L24,24 Z M28,24 L32,24 L32,25 L28,25 L28,24 Z M33,24 L41,24 L41,25 L33,25 L33,24 Z M28,18 L41,18 L41,19 L28,19 L28,18 Z M32,15 L41,15 L41,16 L32,16 L32,15 Z M14,7 L27,7 L27,8 L14,8 L14,7 Z"/><rect width="28" height="3" x="13" y="28" fill="#1A96F1"/><rect width="28" height="3" x="13" y="31" fill="#5EAFEA"/><rect width="28" height="3" x="13" y="34" fill="#86E6FF"/><rect width="28" height="3" x="13" y="37" fill="#339A00"/><rect width="19" height="3" x="22" y="40" fill="#57D31A"/><rect width="7" height="2" x="22" y="30" fill="#FFFFFF" rx="1"/><rect width="7" height="2" x="32" y="33" fill="#FFFFFF" rx="1"/><ellipse cx="32.5" cy="35" fill="#115805" rx="3.5" ry="3"/><rect width="1" height="4" x="32" y="37" fill="#115805"/><path fill="#86E6FF" d="M18,39 L28,39 C28.5522847,39 29,39.4477153 29,40 L29,40 C29,40.5522847 28.5522847,41 28,41 L18,41 C17.4477153,41 17,40.5522847 17,40 L17,40 C17,39.4477153 17.4477153,39 18,39 Z"/><polygon fill="#FFFFFF" points="34 3.5 42.5 12 34 12"/><polygon fill="#A7A5A6" fill-rule="nonzero" points="34 12 34 2.5 33 2.5 33 13 43.5 13 43.5 12"/><polygon fill="#FFFFFF" fill-rule="nonzero" points="14 12 14 42 24 44 24 10"/><polygon fill="#FF520E" points="22 12 22 42 2 39 2 15"/><polygon fill="#FFFFFF" points="10.38 34 10.38 30.8 13.62 30.8 13.62 34"/></g></svg>