<svg xmlns="http://www.w3.org/2000/svg" width="24" height="24" viewBox="0 0 24 24"><g fill="none" fill-rule="evenodd"><g fill-rule="nonzero"><polygon fill="#A7A5A6" points="24 23 6 23 6 1 19 1 24 6"/><polygon fill="#FFFFFF" points="7 22 7 2 18.509 2 23 6.534 23 22"/></g><g transform="translate(7 12)"><rect width="14" height="2" fill="#1A96F1"/><polygon fill="#5EAFEA" points="0 2 14 2 14 4 0 4"/><polygon fill="#86E6FF" points="0 3 14 3 14 5 0 5"/><polygon fill="#339A00" points="0 5 14 5 14 7 0 7"/><polygon fill="#57D31A" points="0 6 14 6 14 8 0 8"/><path fill="#FFFFFF" d="M2.5 1L5.5 1C5.77614237 1 6 1.22385763 6 1.5 6 1.77614237 5.77614237 2 5.5 2L2.5 2C2.22385763 2 2 1.77614237 2 1.5 2 1.22385763 2.22385763 1 2.5 1zM9.5 3L12.5 3C12.7761424 3 13 3.22385763 13 3.5 13 3.77614237 12.7761424 4 12.5 4L9.5 4C9.22385763 4 9 3.77614237 9 3.5 9 3.22385763 9.22385763 3 9.5 3z"/><path fill="#86E6FF" d="M2.5,6 L7.5,6 C7.77614237,6 8,6.22385763 8,6.5 C8,6.77614237 7.77614237,7 7.5,7 L2.5,7 C2.22385763,7 2,6.77614237 2,6.5 C2,6.22385763 2.22385763,6 2.5,6 Z"/></g><path fill="#A7A5A6" d="M7,6 L9,6 L9,7 L7,7 L7,6 Z M7,8 L15,8 L15,9 L7,9 L7,8 Z M16,8 L21,8 L21,9 L16,9 L16,8 Z M7,10 L12,10 L12,11 L7,11 L7,10 Z M13,10 L17,10 L17,11 L13,11 L13,10 Z M18,10 L21,10 L21,11 L18,11 L18,10 Z M10,6 L16,6 L16,7 L10,7 L10,6 Z M8,3 L14,3 L14,4 L8,4 L8,3 Z"/><polygon fill="#FFFFFF" points="19 2.5 22.5 6 19 6"/><polygon fill="#A7A5A6" fill-rule="nonzero" points="19 6 19 1.5 18 1.5 18 7 23.5 7 23.5 6"/><polygon fill="#FFFFFF" fill-rule="nonzero" points="7 6 7 21 12 22 12 5"/><polygon fill="#FF520E" points="11 6 11 21 1 19.5 1 7.5"/><polygon fill="#FFFFFF" points="5.19 17 5.19 15.4 6.81 15.4 6.81 17"/><circle cx="17.5" cy="16.5" r="1.5" fill="#115805"/><rect width="1" height="2" x="17" y="17" fill="#115805"/></g></svg>