<svg xmlns="http://www.w3.org/2000/svg" width="24" height="24" viewBox="0 0 24 24">
  <g fill="none" fill-rule="evenodd">
    <path fill="#B5C0CB" fill-rule="nonzero" d="M17.7879418,7.58419958 L15.2182952,0.923076923 C14.9438669,0.174636175 14.1205821,-0.174636175 13.3721414,0.0997920998 L6.71101871,2.66943867 C6.36174636,2.79417879 6.08731809,3.04365904 5.93762994,3.41787942 L0.0997920998,16.6403326 C-0.0498960499,16.989605 0.124740125,17.4137214 0.474012474,17.5634096 L10.977131,22.1787942 C11.3264033,22.3534304 11.7505198,22.1787942 11.9251559,21.8295218 L17.7629938,8.65696466 C17.9126819,8.30769231 17.9376299,7.93347193 17.7879418,7.58419958 Z M12.4989605,2.69438669 C13.047817,2.49480249 13.6715177,2.76923077 13.8711019,3.31808732 C14.0956341,3.86694387 13.8212058,4.46569647 13.2723493,4.69022869 C12.7234927,4.88981289 12.0997921,4.61538462 11.9002079,4.06652807 C11.6756757,3.51767152 11.950104,2.91891892 12.4989605,2.69438669 Z"/>
    <path fill="#D8E0E8" fill-rule="nonzero" d="M12.3243243,2.22037422 C13.1226611,1.8960499 14.045738,2.32016632 14.3700624,3.11850312 C14.6694387,3.94178794 14.2702703,4.83991684 13.4469854,5.16424116 C12.6486486,5.48856549 11.7255717,5.06444906 11.4012474,4.26611227 C11.1018711,3.44282744 11.5010395,2.51975052 12.3243243,2.22037422 Z M12.5987526,2.96881497 C12.1995842,3.11850312 12,3.56756757 12.1496881,3.96673597 C12.2993763,4.36590437 12.7733888,4.56548857 13.1725572,4.41580042 C13.5717256,4.26611227 13.7713098,3.81704782 13.6216216,3.41787942 C13.4719335,2.99376299 12.997921,2.79417879 12.5987526,2.96881497 Z"/>
    <polygon fill="#ECF0F4" fill-rule="nonzero" points="16.565 8.333 6.985 4.067 1.497 16.416 11.077 20.657"/>
    <path fill="#91A0AF" fill-rule="nonzero" d="M24,12.5488565 L24,5.41372141 C24,4.64033264 23.3513514,3.99168399 22.5779626,3.99168399 L15.4428274,3.99168399 C15.043659,3.99168399 14.6943867,4.14137214 14.4199584,4.41580042 L4.24116424,14.6694387 C3.96673597,14.9438669 3.96673597,15.3929314 4.24116424,15.6673597 L12.3991684,23.7505198 C12.6735967,24.024948 13.1226611,24.024948 13.3970894,23.7505198 L23.5758836,13.5717256 C23.8503119,13.2972973 24,12.9480249 24,12.5488565 Z M20.8316008,6.11226611 C21.4054054,6.11226611 21.8794179,6.58627859 21.8794179,7.16008316 C21.8794179,7.75883576 21.4054054,8.23284823 20.8316008,8.23284823 C20.2328482,8.23284823 19.7588358,7.75883576 19.7588358,7.16008316 C19.7588358,6.58627859 20.2328482,6.11226611 20.8316008,6.11226611 Z"/>
    <path fill="#D8E0E8" fill-rule="nonzero" d="M20.8316008,5.58835759 C21.7047817,5.58835759 22.4033264,6.28690229 22.4033264,7.16008316 C22.4033264,8.03326403 21.7047817,8.75675676 20.8316008,8.75675676 C19.95842,8.75675676 19.2349272,8.03326403 19.2349272,7.16008316 C19.2349272,6.28690229 19.95842,5.58835759 20.8316008,5.58835759 Z M20.8316008,6.38669439 C20.3825364,6.38669439 20.033264,6.73596674 20.033264,7.16008316 C20.033264,7.60914761 20.3825364,7.95841996 20.8316008,7.95841996 C21.2557173,7.95841996 21.6049896,7.60914761 21.6049896,7.16008316 C21.6049896,6.73596674 21.2557173,6.38669439 20.8316008,6.38669439 Z"/>
    <polygon fill="#ECF0F4" fill-rule="nonzero" points="22.578 12.823 15.168 5.414 5.638 14.944 13.048 22.353"/>
    <rect width="4.125" height="1" x="7.932" y="14.266" fill="#91A0AF" transform="rotate(-44 9.994 14.641)"/>
    <rect width="10.875" height="1" x="9.589" y="14.619" fill="#91A0AF" transform="rotate(-44 15.027 14.994)"/>
    <rect width="9" height="1" x="11.155" y="16.619" fill="#91A0AF" transform="rotate(-44 15.655 16.994)"/>
  </g>
</svg>
