<svg xmlns="http://www.w3.org/2000/svg" width="16" height="16" viewBox="0 0 16 16">
  <g fill="none" fill-rule="evenodd">
    <path fill="#B5C0CB" fill-rule="nonzero" d="M11.8586279,5.05613306 L10.1455301,0.615384615 C9.96257796,0.116424116 9.41372141,-0.116424116 8.91476091,0.0665280665 L4.47401247,1.77962578 C4.24116424,1.86278586 4.05821206,2.02910603 3.95841996,2.27858628 L0.0665280665,11.0935551 C-0.0332640333,11.3264033 0.0831600832,11.6091476 0.316008316,11.7089397 L7.31808732,14.7858628 C7.55093555,14.9022869 7.83367983,14.7858628 7.95010395,14.5530146 L11.8419958,5.77130977 C11.9417879,5.53846154 11.95842,5.28898129 11.8586279,5.05613306 Z M8.33264033,1.7962578 C8.6985447,1.66320166 9.11434511,1.84615385 9.24740125,2.21205821 C9.3970894,2.57796258 9.21413721,2.97713098 8.84823285,3.12681913 C8.48232848,3.25987526 8.06652807,3.07692308 7.93347193,2.71101871 C7.78378378,2.34511435 7.96673597,1.94594595 8.33264033,1.7962578 Z"/>
    <path fill="#D8E0E8" fill-rule="nonzero" d="M8.21621622,1.48024948 C8.74844075,1.26403326 9.36382536,1.54677755 9.58004158,2.07900208 C9.77962578,2.62785863 9.51351351,3.22661123 8.96465696,3.44282744 C8.43243243,3.65904366 7.81704782,3.37629938 7.6008316,2.84407484 C7.4012474,2.2952183 7.66735967,1.67983368 8.21621622,1.48024948 Z M8.3991684,1.97920998 C8.13305613,2.07900208 8,2.37837838 8.0997921,2.64449064 C8.1995842,2.91060291 8.51559252,3.04365904 8.78170478,2.94386694 C9.04781705,2.84407484 9.18087318,2.54469854 9.08108108,2.27858628 C8.98128898,1.995842 8.66528067,1.86278586 8.3991684,1.97920998 Z"/>
    <polygon fill="#ECF0F4" fill-rule="nonzero" points="11.044 5.555 4.657 2.711 .998 10.944 7.385 13.771"/>
    <path fill="#91A0AF" fill-rule="nonzero" d="M16,8.36590437 L16,3.60914761 C16,3.09355509 15.5675676,2.66112266 15.0519751,2.66112266 L10.2952183,2.66112266 C10.029106,2.66112266 9.7962578,2.76091476 9.61330561,2.94386694 L2.82744283,9.77962578 C2.64449064,9.96257796 2.64449064,10.2619543 2.82744283,10.4449064 L8.26611227,15.8336798 C8.44906445,16.016632 8.74844075,16.016632 8.93139293,15.8336798 L15.7172557,9.04781705 C15.9002079,8.86486486 16,8.63201663 16,8.36590437 Z M13.8877339,4.07484407 C14.2702703,4.07484407 14.5862786,4.39085239 14.5862786,4.77338877 C14.5862786,5.17255717 14.2702703,5.48856549 13.8877339,5.48856549 C13.4885655,5.48856549 13.1725572,5.17255717 13.1725572,4.77338877 C13.1725572,4.39085239 13.4885655,4.07484407 13.8877339,4.07484407 Z"/>
    <path fill="#D8E0E8" fill-rule="nonzero" d="M13.8877339,3.72557173 C14.4698545,3.72557173 14.9355509,4.19126819 14.9355509,4.77338877 C14.9355509,5.35550936 14.4698545,5.83783784 13.8877339,5.83783784 C13.3056133,5.83783784 12.8232848,5.35550936 12.8232848,4.77338877 C12.8232848,4.19126819 13.3056133,3.72557173 13.8877339,3.72557173 Z M13.8877339,4.25779626 C13.5883576,4.25779626 13.3555094,4.49064449 13.3555094,4.77338877 C13.3555094,5.07276507 13.5883576,5.30561331 13.8877339,5.30561331 C14.1704782,5.30561331 14.4033264,5.07276507 14.4033264,4.77338877 C14.4033264,4.49064449 14.1704782,4.25779626 13.8877339,4.25779626 Z"/>
    <polygon fill="#ECF0F4" fill-rule="nonzero" points="15.052 8.549 10.112 3.609 3.759 9.963 8.699 14.902"/>
    <rect width="2.75" height="1" x="5.288" y="9.511" fill="#91A0AF" transform="rotate(-44 6.663 9.761)"/>
    <rect width="7.25" height="1" x="6.393" y="9.746" fill="#91A0AF" transform="rotate(-44 10.018 9.996)"/>
    <rect width="6" height="1" x="7.437" y="11.08" fill="#91A0AF" transform="rotate(-44 10.437 11.33)"/>
  </g>
</svg>
