<?xml version="1.0" encoding="UTF-8"?><svg xmlns="http://www.w3.org/2000/svg" width="16" height="16" viewBox="0 0 16 16"><title>p/printer_ic_action/printer_ic_action_16x16</title><g fill="none" fill-rule="evenodd"><path d="M0 0h16v16H0z"/><path fill="#868686" fill-rule="nonzero" d="M13.6 5H2.4C1.072 5 0 6.04 0 7.33V12h3v3h10v-3h3V7.33C16 6.04 14.928 5 13.6 5zM11 13H5V8.996h6V13zm2.486-4.784c-.44 0-.8-.35-.8-.778 0-.428.36-.778.8-.778.44 0 .8.35.8.778 0 .428-.36.778-.8.778zM13 1H3v3h10V1z"/></g></svg>