<svg xmlns="http://www.w3.org/2000/svg" width="24" height="24" viewBox="0 0 24 24"><path fill="#4789F5" d="M12,3.5625 C6.54545455,3.5625 1.88727273,7.06125 0,12 C1.88727273,16.93875 6.54545455,20.4375 12,20.4375 C17.4545455,20.4375 22.1127273,16.93875 24,12 C22.1127273,7.06125 17.4545455,3.5625 12,3.5625 Z M12,17.625 C8.98909091,17.625 6.54545455,15.105 6.54545455,12 C6.54545455,8.895 8.98909091,6.375 12,6.375 C15.0109091,6.375 17.4545455,8.895 17.4545455,12 C17.4545455,15.105 15.0109091,17.625 12,17.625 Z M12,8.625 C10.1890909,8.625 8.72727273,10.1325 8.72727273,12 C8.72727273,13.8675 10.1890909,15.375 12,15.375 C13.8109091,15.375 15.2727273,13.8675 15.2727273,12 C15.2727273,10.1325 13.8109091,8.625 12,8.625 Z"/></svg>