<svg xmlns="http://www.w3.org/2000/svg" width="16" height="16" viewBox="0 0 16 16"><path fill="#4789F5" d="M8,2.375 C4.36363636,2.375 1.25818182,4.7075 0,8 C1.25818182,11.2925 4.36363636,13.625 8,13.625 C11.6363636,13.625 14.7418182,11.2925 16,8 C14.7418182,4.7075 11.6363636,2.375 8,2.375 Z M8,11.75 C5.99272727,11.75 4.36363636,10.07 4.36363636,8 C4.36363636,5.93 5.99272727,4.25 8,4.25 C10.0072727,4.25 11.6363636,5.93 11.6363636,8 C11.6363636,10.07 10.0072727,11.75 8,11.75 Z M8,5.75 C6.79272727,5.75 5.81818182,6.755 5.81818182,8 C5.81818182,9.245 6.79272727,10.25 8,10.25 C9.20727273,10.25 10.1818182,9.245 10.1818182,8 C10.1818182,6.755 9.20727273,5.75 8,5.75 Z"/></svg>