<svg width="32" height="32" viewBox="0 0 32 32" fill="none" xmlns="http://www.w3.org/2000/svg">
<g id="m/mime_zip_gz/mime_zip_gz_32x32">
<g id="32/baseshape">
<g id="32/baseshape_2">
<path id="OutsideBorder" d="M29 30C29 30.5523 28.5523 31 28 31H7C6.44772 31 6 30.5523 6 30V2C6 1.44772 6.44772 1 7 1H22L29 9V30Z" fill="#ECF0F4"/>
</g>
<path id="Combined Shape" fill-rule="evenodd" clip-rule="evenodd" d="M18 2H16.5V3.5H18V5H16.5V6.5H18V8H16.5V9.5H18V11H16.5V12.5H18V14H16.5V15.5H18V17H16.5V18.5H18V17H19.5V15.5H18V14H19.5V12.5H18V11H19.5V9.5H18V8H19.5V6.5H18V5H19.5V3.5H18V2ZM16 20.1667C16 19.7985 16.2985 19.5 16.6667 19.5H19.3333C19.7015 19.5 20 19.7985 20 20.1667V25.3333C20 25.7015 19.7015 26 19.3333 26H16.6667C16.2985 26 16 25.7015 16 25.3333V20.1667ZM17.3333 20.5C17.1492 20.5 17 20.6492 17 20.8333V24.6667C17 24.8508 17.1492 25 17.3333 25H18.6667C18.8508 25 19 24.8508 19 24.6667V20.8333C19 20.6492 18.8508 20.5 18.6667 20.5H17.3333Z" fill="#91A0AF"/>
</g>
<g id="32/corner">
<path id="InsideWhite" fill-rule="evenodd" clip-rule="evenodd" d="M22 1L29 9H22V1Z" fill="#D8E0E8"/>
</g>
<g id="64/chard/color/yellow">
<path id="Shape" d="M7 9.5V28L16 29.5V8L7 9.5Z" fill="#ECF0F4"/>
<path id="Chard" d="M15 9.2159V28.3182L3 26.5V11L15 9.2159Z" fill="#F3AC00"/>
</g>
<g id="64/chard/letter/a">
<path id="G" fill-rule="evenodd" clip-rule="evenodd" d="M9.34764 23.144C6.73164 23.144 4.93164 21.308 4.93164 18.824V18.8C4.93164 16.412 6.79164 14.456 9.33564 14.456C10.8476 14.456 11.7596 14.864 12.6356 15.608L11.4716 17.012C10.8236 16.472 10.2476 16.16 9.27564 16.16C7.93164 16.16 6.86364 17.348 6.86364 18.776V18.8C6.86364 20.336 7.91964 21.464 9.40764 21.464C10.0796 21.464 10.6796 21.296 11.1476 20.96V19.76H9.28764V18.164H12.9356V21.812C12.0716 22.544 10.8836 23.144 9.34764 23.144Z" fill="white"/>
</g>
</g>
</svg>
