<svg width="24" height="24" viewBox="0 0 24 24" fill="none" xmlns="http://www.w3.org/2000/svg">
<g id="m/mime_zip_gz/mime_zip_gz_24x24">
<g id="24/baseshape">
<g id="24/baseshape_2">
<path id="OutsideBorder" fill-rule="evenodd" clip-rule="evenodd" d="M24 22.4998C24 22.776 23.7724 23 23.4998 23H6.50021C6.22395 23 6 22.7823 6 22.4992V1.50084C6 1.22423 6.21991 1 6.49827 1H20L24 5V22.4998Z" fill="#ECF0F4"/>
</g>
<path id="Combined Shape" fill-rule="evenodd" clip-rule="evenodd" d="M15 2H17V4H15V2ZM13 4H15V6H13V4ZM15 6H17V8H15V6ZM13 8H15V10H13V8ZM15 10H17V12H15V10ZM13 12H15V14H13V12ZM13 15.9908C13 15.4436 13.4434 15 14.0094 15H15.9906C16.5481 15 17 15.451 17 15.9908V20.0092C17 20.5564 16.5566 21 15.9906 21H14.0094C13.4519 21 13 20.549 13 20.0092V15.9908ZM14 16.4905V19.5095C14 19.7849 14.226 20 14.5047 20H15.4953C15.786 20 16 19.7804 16 19.5095V16.4905C16 16.2151 15.774 16 15.4953 16H14.5047C14.214 16 14 16.2196 14 16.4905Z" fill="#91A0AF"/>
</g>
<g id="24/corner">
<path id="InsideWhite" fill-rule="evenodd" clip-rule="evenodd" d="M20 1L24 5H20V1Z" fill="#D8E0E8"/>
</g>
<g id="24/chard/color/yellow">
<path id="Shape" d="M7 6V21L12 22V5L7 6Z" fill="#ECF0F4"/>
<path id="Chard" fill-rule="evenodd" clip-rule="evenodd" d="M11 6V21L1 19.5V7.5L11 6Z" fill="#F3AC00"/>
</g>
<g id="24/chard/letter/z">
<path id="G" fill-rule="evenodd" clip-rule="evenodd" d="M6.29035 17.12C4.11035 17.12 2.61035 15.59 2.61035 13.52V13.5C2.61035 11.51 4.16035 9.88 6.28035 9.88C7.54035 9.88 8.30035 10.22 9.03035 10.84L8.06035 12.01C7.52035 11.56 7.04035 11.3 6.23035 11.3C5.11035 11.3 4.22035 12.29 4.22035 13.48V13.5C4.22035 14.78 5.10035 15.72 6.34035 15.72C6.90035 15.72 7.40035 15.58 7.79035 15.3V14.3H6.24035V12.97H9.28035V16.01C8.56035 16.62 7.57035 17.12 6.29035 17.12Z" fill="white"/>
</g>
</g>
</svg>
