<svg width="64" height="64" viewBox="0 0 64 64" fill="none" xmlns="http://www.w3.org/2000/svg">
<g id="m/mime_zip_gz/mime_zip_gz_64x64">
<g id="64/baseshape">
<g id="64/baseshape_2">
<path id="OutsideBorder" d="M58 60C58 61.1046 57.1046 62 56 62H15C13.8954 62 13 61.1046 13 60V4C13 2.89543 13.8954 2 15 2H44L58 17V60Z" fill="#ECF0F4"/>
</g>
<path id="Combined Shape" fill-rule="evenodd" clip-rule="evenodd" d="M38 3H35V6H38V9H35V12H38V15H35V18H38V21H35V24H38V27H35V30H38V33H35V36H38V33H41V30H38V27H41V24H38V21H41V18H38V15H41V12H38V9H41V6H38V3ZM34 39.3333C34 38.597 34.597 38 35.3333 38H40.6667C41.403 38 42 38.597 42 39.3333V49.6667C42 50.403 41.403 51 40.6667 51H35.3333C34.597 51 34 50.403 34 49.6667V39.3333ZM36.6667 40C36.2985 40 36 40.2985 36 40.6667V48.3333C36 48.7015 36.2985 49 36.6667 49H39.3333C39.7015 49 40 48.7015 40 48.3333V40.6667C40 40.2985 39.7015 40 39.3333 40H36.6667Z" fill="#91A0AF"/>
</g>
<g id="64/corner">
<path id="InsideWhite" fill-rule="evenodd" clip-rule="evenodd" d="M44 17V2L58 17H44Z" fill="#D8E0E8"/>
</g>
<g id="64/chard/color/yellow">
<path id="Shape" d="M14 19V56L32 59V16L14 19Z" fill="#ECF0F4"/>
<path id="Chard" d="M30 18.4318V56.6364L6 53V22L30 18.4318Z" fill="#F3AC00"/>
</g>
<g id="64/chard/letter/a">
<path id="G" fill-rule="evenodd" clip-rule="evenodd" d="M18.6963 46.288C13.4643 46.288 9.86426 42.616 9.86426 37.648V37.6C9.86426 32.824 13.5843 28.912 18.6723 28.912C21.6963 28.912 23.5203 29.728 25.2723 31.216L22.9443 34.024C21.6483 32.944 20.4963 32.32 18.5523 32.32C15.8643 32.32 13.7283 34.696 13.7283 37.552V37.6C13.7283 40.672 15.8403 42.928 18.8163 42.928C20.1603 42.928 21.3603 42.592 22.2963 41.92V39.52H18.5763V36.328H25.8723V43.624C24.1443 45.088 21.7683 46.288 18.6963 46.288Z" fill="white"/>
</g>
</g>
</svg>
