<svg width="24" height="24" xmlns="http://www.w3.org/2000/svg"><!--Generator: Sketch 50 (54983) - http://www.bohemiancoding.com/sketch--><g fill="none" fill-rule="evenodd"><path d="M12 0c3.175 0 6.05 1.225 8.2 3.25l-.1.225C21.7 5.025 22.875 7 23.425 9.25l.275.025c.2.875.3 1.775.3 2.725 0 5.425-3.6 10-8.525 11.475l-.15-.2c-1.05.3-2.175.475-3.325.475-1.15 0-2.275-.175-3.325-.475l-.15.2C3.6 22 0 17.425 0 12c0-.95.1-1.85.3-2.725l.275-.025C1.125 7 2.3 5.025 3.9 3.475l-.1-.225C5.95 1.225 8.825 0 12 0z" fill="#ECF0F4"/><path d="M14.425 7.425l-.2-.325.65-.375.2.325 2.75 4.75.175.325-.65.375-.175-.325-2.75-4.75zM12 0h.375v1.5c0 .2-.175.375-.375.375s-.375-.175-.375-.375V0H12zm10.575 17.675c-.125.225-.25.425-.375.65l-1.3-.75c-.175-.1-.225-.325-.125-.5.1-.2.325-.25.5-.15l1.3.75zm-20.775.65c-.125-.225-.25-.425-.375-.65l1.3-.75c.175-.1.4-.05.5.15.1.175.05.4-.125.5l-1.3.75zm4.5 1.7l-.275-.25.55-.525.25.25 2.85 2.925.275.275-.525.525-.275-.275-2.85-2.925zM7.9 3.05l.35-.1.2.725-.375.1-3.95 1-.35.1-.2-.725.375-.1 3.95-1zm-4.975 9.675l.1.35-.725.2-.1-.35L1.1 9 1 8.625l.725-.2.1.375 1.1 3.925zm18.875.2l-.1.35-.725-.2.1-.35 1.1-3.925.1-.375.725.2-.1.375-1.1 3.925zM17.175 19.5l.25-.25.55.525-.275.25-2.85 2.925-.275.275-.525-.525.275-.275 2.85-2.925zm-1.25-15.725l-.375-.1.2-.725.35.1 3.95 1 .375.1-.2.725-.35-.1-3.95-1zm-1.175 12.6h.375v.75h-6.25v-.75h5.875zm-7.925-4.2l-.175.325-.65-.375.175-.325 2.75-4.75.2-.325.65.375-.2.325-2.75 4.75z" fill="#B5C0CB" fill-rule="nonzero"/><path d="M8.525 23.475l.6-.825c.05-.1.175-.15.35-.15h5.05c.175 0 .3.05.35.15l.6.825c-1.1.35-2.275.525-3.475.525-1.2 0-2.375-.175-3.475-.525zm-5.975-6.2l-.3-4.475c-.025-.2.125-.375.325-.4L6.25 12c.15-.025.275.05.35.175l2.55 4.4c.075.125.075.3-.025.4l-2.2 2.975c-.125.175-.35.2-.5.1L2.7 17.55c-.1-.075-.15-.175-.15-.275zm9.625-16.1l4 1.975c.175.075.25.3.175.475l-1.475 3.4c-.05.125-.175.225-.35.225h-5.05c-.175 0-.3-.1-.35-.225l-1.475-3.4c-.075-.175 0-.4.175-.475l4-1.975c.125-.05.225-.05.35 0zM21.3 17.55l-3.725 2.5c-.15.1-.375.075-.5-.1l-2.2-2.975c-.1-.1-.1-.275-.025-.4l2.55-4.4c.075-.125.2-.2.35-.175l3.675.4c.2.025.35.2.325.4l-.3 4.475c0 .1-.05.2-.15.275zm-1.1-14.3c1.7 1.6 2.95 3.675 3.5 6.025l-1.05-.1c-.1 0-.225-.1-.3-.225l-2.525-4.4c-.075-.125-.1-.275-.05-.375l.425-.925zM.3 9.275C.85 6.925 2.1 4.85 3.8 3.25l.425.925c.05.1.025.25-.05.375L1.65 8.95c-.075.125-.2.225-.3.225l-1.05.1z" fill="#314051"/></g></svg>