<svg width="16" height="16" xmlns="http://www.w3.org/2000/svg"><!--Generator: Sketch 50 (54983) - http://www.bohemiancoding.com/sketch--><g fill="none" fill-rule="evenodd"><path d="M8 0c2.1166667 0 4.0333333.81666667 5.4666667 2.16666667l-.0666667.15c1.0666667 1.03333333 1.85 2.35 2.2166667 3.85L15.8 6.18333333C15.9333333 6.76666667 16 7.36666667 16 8c0 3.6166667-2.4 6.6666667-5.6833333 7.65l-.1-.1333333c-.70000003.2-1.45000003.3166666-2.2166667.3166666-.76666667 0-1.51666667-.1166666-2.21666667-.3166666l-.1.1333333C2.4 14.6666667 0 11.6166667 0 8c0-.63333333.06666667-1.23333333.2-1.81666667l.18333333-.01666666c.36666667-1.5 1.15-2.81666667 2.21666667-3.85l-.06666667-.15C3.96666667.81666667 5.88333333 0 8 0z" fill="#ECF0F4"/><path d="M9.61666667 4.95l-.13333334-.21666667.43333334-.25L10.05 4.7l1.8333333 3.16666667L12 8.08333333l-.4333333.25L11.45 8.11666667 9.61666667 4.95zM8 0h.25v1c0 .13333333-.11666667.25-.25.25s-.25-.11666667-.25-.25V0H8zm7.05 11.7833333c-.0833333.15-.1666667.2833334-.25.4333334l-.8666667-.5c-.1166666-.0666667-.15-.2166667-.0833333-.3333334.0666667-.1333333.2166667-.1666666.3333333-.1l.8666667.5zm-13.85.4333334c-.08333333-.15-.16666667-.2833334-.25-.4333334l.86666667-.5c.11666666-.0666666.26666666-.0333333.33333333.1.06666667.1166667.03333333.2666667-.08333333.3333334l-.86666667.5zM4.2 13.35l-.18333333-.1666667.36666666-.35L4.55 13l1.9 1.95.18333333.1833333-.35.35L6.1 15.3l-1.9-1.95zM5.26666667 2.03333333L5.5 1.96666667 5.63333333 2.45l-.25.06666667L2.75 3.18333333 2.51666667 3.25l-.13333334-.48333333.25-.06666667 2.63333334-.66666667zM1.95 8.48333333l.06666667.23333334L1.53333333 8.85l-.06666666-.23333333L.73333333 6l-.06666666-.25L1.15 5.61666667l.06666667.25L1.95 8.48333333zm12.5833333.13333334L14.4666667 8.85l-.4833334-.13333333L14.05 8.48333333l.7333333-2.61666666.0666667-.25L15.3333333 5.75l-.0666666.25-.7333334 2.61666667zM11.45 13l.1666667-.1666667.3666666.35L11.8 13.35 9.9 15.3l-.18333333.1833333-.35-.35L9.55 14.95l1.9-1.95zm-.8333333-10.48333333l-.25-.06666667L10.5 1.96666667l.2333333.06666666L13.3666667 2.7l.25.06666667L13.4833333 3.25 13.25 3.18333333l-2.6333333-.66666666zm-.78333337 8.40000003h.24999997v.5H5.91666667v-.5h3.91666666zM4.55 8.11666667l-.11666667.21666666L4 8.08333333l.11666667-.21666666L5.95 4.7l.13333333-.21666667.43333334.25L6.38333333 4.95 4.55 8.11666667z" fill="#B5C0CB" fill-rule="nonzero"/><path d="M5.68333333 15.65l.4-.55c.03333334-.0666667.11666667-.1.23333334-.1h3.36666666c.11666667 0 .2.0333333.23333334.1l.40000003.55C9.58333333 15.8833333 8.8 16 8 16c-.8 0-1.58333333-.1166667-2.31666667-.35zM1.7 11.5166667l-.2-2.98333337c-.01666667-.13333333.08333333-.25.21666667-.26666666L4.16666667 8c.1-.01666667.18333333.03333333.23333333.11666667L6.1 11.05c.05.0833333.05.2-.01666667.2666667L4.61666667 13.3c-.08333334.1166667-.23333334.1333333-.33333334.0666667L1.8 11.7c-.06666667-.05-.1-.1166667-.1-.1833333zM8.11666667.78333333L10.7833333 2.1C10.9 2.15 10.95 2.3 10.9 2.41666667l-.98333333 2.26666666c-.03333334.08333334-.11666667.15-.23333334.15H6.31666667c-.11666667 0-.2-.06666666-.23333334-.15L5.1 2.41666667C5.05 2.3 5.1 2.15 5.21666667 2.1L7.88333333.78333333c.08333334-.03333333.15-.03333333.23333334 0zM14.2 11.7l-2.4833333 1.6666667c-.1.0666666-.25.05-.3333334-.0666667l-1.46666663-1.9833333C9.85 11.25 9.85 11.1333333 9.9 11.05l1.7-2.93333333c.05-.08333334.1333333-.13333334.2333333-.11666667l2.45.26666667c.1333334.01666666.2333334.13333333.2166667.26666666l-.2 2.98333337c0 .0666666-.0333333.1333333-.1.1833333zm-.7333333-9.53333333C14.6 3.23333333 15.4333333 4.61666667 15.8 6.18333333l-.7-.06666666c-.0666667 0-.15-.06666667-.2-.15l-1.6833333-2.93333334c-.05-.08333333-.0666667-.18333333-.0333334-.25l.2833334-.61666666zM.2 6.18333333c.36666667-1.56666666 1.2-2.95 2.33333333-4.01666666l.28333334.61666666C2.85 2.85 2.83333333 2.95 2.78333333 3.03333333L1.1 5.96666667c-.05.08333333-.13333333.15-.2.15l-.7.06666666z" fill="#314051"/></g></svg>