<svg width="24" height="24" xmlns="http://www.w3.org/2000/svg"><path d="M1.7962578 21.6208241c-2.3950104-2.4304009-2.3950104-6.3641426 0-8.7945435L12.3243243 2.12750557l1.2474013 1.25278396L3.04365904 14.0790646c-1.72141372 1.7288419-1.72141372 4.5601336 0 6.2889755 1.6964657 1.7288419 4.46569647 1.7288419 6.18711019 0L21.3056133 8.09075724c1.1975052-1.20267261 1.1975052-3.18207127 0-4.40979956-1.1975052-1.2026726-3.1434511-1.2026726-4.3409563 0L7.35966736 13.4526726c-.67359667.6765033-.67359667 1.8040089 0 2.5055679.6985447.7015591 1.7962578.7015591 2.49480249 0l8.03326405-8.16815141 1.2474012 1.25278396-8.058212 8.16815145c-1.34719337 1.403118-3.56756759 1.403118-4.93970896 0-1.37214137-1.3780624-1.37214137-3.6330735 0-5.0361915l9.60498956-9.74665928c1.8711019-1.90423163 4.914761-1.90423163 6.8108109 0 1.8711018 1.90423163 1.8711018 5.01113586 0 6.91536748L10.4781705 21.6208241c-2.39501042 2.4304008-6.28690231 2.4304008-8.6819127 0z" fill="#1A96F1" fill-rule="nonzero"/></svg>