<svg xmlns="http://www.w3.org/2000/svg" width="12" height="12" viewBox="0 0 12 12"><path fill="#868686" d="M6,11 C8.76142375,11 11,8.76142375 11,6 C11,3.23857625 8.76142375,1 6,1 C3.23857625,1 1,3.23857625 1,6 C1,8.76142375 3.23857625,11 6,11 Z M6,12 C2.6862915,12 0,9.3137085 0,6 C0,2.6862915 2.6862915,0 6,0 C9.3137085,0 12,2.6862915 12,6 C12,9.3137085 9.3137085,12 6,12 Z M6,6 L8.50952148,6 C8.78040529,6 9,6.23193359 9,6.5 C9,6.77614237 8.78494263,7 8.50952148,7 L5,7 L5,2.49769878 C5,2.22282734 5.23193359,2 5.5,2 C5.77614237,2 6,2.21484375 6,2.49769878 L6,6 Z"/></svg>