<svg width="128" height="128" viewBox="0 0 128 128" fill="none" xmlns="http://www.w3.org/2000/svg">
<g id="m/mime_img/mime_img_128x128">
<g id="64/baseshape">
<g id="64/baseshape_2">
<path id="OutsideBorder" d="M116 120C116 122.209 114.209 124 112 124H30C27.7909 124 26 122.209 26 120V8C26 5.79086 27.7909 4 30 4H88L116 34V120Z" fill="#ECF0F4"/>
</g>
<g id="flower">
<path id="Shape" d="M73.464 64.5547C75.2907 60.8672 77.3333 55.6457 77.3333 50.7273C77.3333 41.837 74.3493 40 70.6667 40C66.984 40 64 41.837 64 50.7273C64 55.6457 66.0453 60.8672 67.8693 64.5547C68.7653 64.308 69.6933 64.1364 70.6667 64.1364C71.64 64.1364 72.568 64.3107 73.464 64.5547Z" fill="#FF0000"/>
<path id="Shape_2" d="M67.8693 85.1725C66.0427 88.8547 64 94.0762 64 99C64 107.885 66.984 109.727 70.6667 109.727C74.3493 109.727 77.3333 107.882 77.3333 99C77.3333 94.0762 75.288 88.8547 73.464 85.1725C72.568 85.4166 71.64 85.5909 70.6667 85.5909C69.6933 85.5909 68.7653 85.4166 67.8693 85.1725Z" fill="#9559CD"/>
<path id="Shape_3" fill-rule="evenodd" clip-rule="evenodd" d="M65.3974 65.5872C64.0987 61.6852 61.872 56.5361 58.4107 53.0524C52.1627 46.7716 48.7574 47.5895 46.152 50.207C43.5467 52.8271 42.7334 56.2518 48.9814 62.538C52.4427 66.0163 57.5627 68.2583 61.4454 69.5617C62.3894 67.9016 63.7467 66.5419 65.3974 65.5872Z" fill="#FF7100"/>
<path id="Shape_4" d="M75.936 84.14C77.2374 88.0421 79.464 93.1912 82.9254 96.6695C89.1734 102.956 92.576 102.132 95.1814 99.5149C97.7867 96.8948 98.6 93.4754 92.352 87.1893C88.8907 83.7056 83.7734 81.4689 79.8907 80.1602C78.944 81.8203 77.5867 83.1853 75.936 84.14Z" fill="#1A96F1"/>
<path id="Shape_5" fill-rule="evenodd" clip-rule="evenodd" d="M60.4187 72.0504C56.752 70.2107 51.56 68.1591 46.6667 68.1591C37.8293 68.1591 36 71.16 36 74.8636C36 78.5672 37.8293 81.5682 46.6667 81.5682C51.56 81.5682 56.752 79.5085 60.4187 77.6769C60.1733 76.7758 60 75.8425 60 74.8636C60 73.8848 60.1733 72.9515 60.4187 72.0504Z" fill="#91A0AF"/>
<path id="Shape_6" d="M80.9175 77.6769C84.5815 79.5112 89.7735 81.5682 94.6668 81.5682C103.501 81.5682 105.333 78.5672 105.333 74.8636C105.333 71.16 103.501 68.1591 94.6668 68.1591C89.7735 68.1591 84.5815 70.2134 80.9175 72.0504C81.1628 72.9515 81.3335 73.8848 81.3335 74.8636C81.3335 75.8425 81.1601 76.7758 80.9175 77.6769Z" fill="#57D31A"/>
<path id="Shape_7" d="M61.4452 80.1602C57.5626 81.4689 52.4426 83.7056 48.9812 87.1893C42.7332 93.4754 43.5492 96.8948 46.1519 99.5149C48.7572 102.135 52.1599 102.956 58.4106 96.6695C61.8719 93.1912 64.0986 88.0421 65.3972 84.14C63.7466 83.1853 62.3892 81.8203 61.4452 80.1602Z" fill="#FF0097"/>
<path id="Shape_8" d="M79.8907 69.5617C83.7707 68.253 88.8907 66.0163 92.352 62.538C98.6 56.2518 97.784 52.8271 95.1814 50.207C92.576 47.5869 89.1734 46.7716 82.9254 53.0524C79.4614 56.5361 77.2374 61.6852 75.936 65.5872C77.5867 66.5366 78.944 67.9016 79.8907 69.5617Z" fill="#F6B701"/>
</g>
</g>
<g id="64/corner">
<path id="InsideWhite" fill-rule="evenodd" clip-rule="evenodd" d="M88 34V4L116 34H88Z" fill="#D8E0E8"/>
</g>
<g id="64/chard/color/yellow">
<path id="Shape_9" d="M28 38V112L64 118V32L28 38Z" fill="#ECF0F4"/>
<path id="Chard" d="M60 36.8636V113.273L12 106V44L60 36.8636Z" fill="#E6007E"/>
</g>
<g id="64/chard/letter/a">
<path id="I" fill-rule="evenodd" clip-rule="evenodd" d="M32.3042 92V58.4H39.6962V92H32.3042Z" fill="white"/>
</g>
</g>
</svg>
