<svg width="32" height="32" viewBox="0 0 32 32" fill="none" xmlns="http://www.w3.org/2000/svg">
<g id="m/mime_img/mime_img_32x32">
<g id="32/baseshape">
<g id="32/baseshape_2">
<path id="OutsideBorder" d="M29 30C29 30.5523 28.5523 31 28 31H7C6.44772 31 6 30.5523 6 30V2C6 1.44772 6.44772 1 7 1H22L29 9V30Z" fill="#ECF0F4"/>
</g>
<g id="flower">
<path id="Shape" d="M18.1689 15.6649C18.6647 14.664 19.2191 13.2467 19.2191 11.9117C19.2191 9.49863 18.4092 9 17.4096 9C16.41 9 15.6001 9.49863 15.6001 11.9117C15.6001 13.2467 16.1553 14.664 16.6503 15.6649C16.8935 15.5979 17.1454 15.5513 17.4096 15.5513C17.6738 15.5513 17.9257 15.5986 18.1689 15.6649Z" fill="#FF0000"/>
<path id="Shape_2" d="M16.6503 21.2611C16.1545 22.2606 15.6001 23.6778 15.6001 25.0143C15.6001 27.4259 16.41 27.926 17.4096 27.926C18.4092 27.926 19.2191 27.4252 19.2191 25.0143C19.2191 23.6778 18.664 22.2606 18.1689 21.2611C17.9257 21.3274 17.6738 21.3747 17.4096 21.3747C17.1454 21.3747 16.8935 21.3274 16.6503 21.2611Z" fill="#9559CD"/>
<path id="Shape_3" fill-rule="evenodd" clip-rule="evenodd" d="M15.9794 15.9451C15.6269 14.886 15.0225 13.4884 14.083 12.5428C12.3872 10.838 11.4628 11.06 10.7557 11.7705C10.0485 12.4817 9.82776 13.4112 11.5236 15.1175C12.4632 16.0616 13.8529 16.6701 14.9067 17.0239C15.163 16.5733 15.5314 16.2042 15.9794 15.9451Z" fill="#FF7100"/>
<path id="Shape_4" d="M18.8398 20.9809C19.1931 22.04 19.7974 23.4376 20.7369 24.3817C22.4328 26.088 23.3564 25.8645 24.0636 25.154C24.7707 24.4429 24.9915 23.5148 23.2956 21.8085C22.3561 20.8629 20.9671 20.2559 19.9133 19.9006C19.6563 20.3512 19.2879 20.7217 18.8398 20.9809Z" fill="#1A96F1"/>
<path id="Shape_5" fill-rule="evenodd" clip-rule="evenodd" d="M14.6279 17.6994C13.6327 17.2 12.2234 16.6432 10.8952 16.6432C8.49653 16.6432 8 17.4577 8 18.463C8 19.4682 8.49653 20.2828 10.8952 20.2828C12.2234 20.2828 13.6327 19.7237 14.6279 19.2266C14.5613 18.982 14.5143 18.7287 14.5143 18.463C14.5143 18.1973 14.5613 17.944 14.6279 17.6994Z" fill="#91A0AF"/>
<path id="Shape_6" d="M20.1919 19.2266C21.1864 19.7245 22.5957 20.2828 23.9239 20.2828C26.3218 20.2828 26.8191 19.4682 26.8191 18.463C26.8191 17.4577 26.3218 16.6432 23.9239 16.6432C22.5957 16.6432 21.1864 17.2008 20.1919 17.6994C20.2585 17.944 20.3048 18.1973 20.3048 18.463C20.3048 18.7287 20.2578 18.982 20.1919 19.2266Z" fill="#57D31A"/>
<path id="Shape_7" d="M14.9064 19.9006C13.8526 20.2559 12.4629 20.8629 11.5233 21.8085C9.82746 23.5148 10.0489 24.4429 10.7554 25.154C11.4625 25.8652 12.3861 26.088 14.0827 24.3817C15.0222 23.4376 15.6266 22.04 15.9791 20.9809C15.5311 20.7217 15.1627 20.3512 14.9064 19.9006Z" fill="#FF0097"/>
<path id="Shape_8" d="M19.9133 17.0239C20.9664 16.6687 22.3561 16.0616 23.2956 15.1175C24.9915 13.4112 24.77 12.4816 24.0636 11.7705C23.3564 11.0593 22.4328 10.838 20.7369 12.5428C19.7967 13.4884 19.1931 14.886 18.8398 15.9451C19.2879 16.2028 19.6563 16.5733 19.9133 17.0239Z" fill="#F6B701"/>
</g>
</g>
<g id="32/corner">
<path id="InsideWhite" fill-rule="evenodd" clip-rule="evenodd" d="M22 1L29 9H22V1Z" fill="#D8E0E8"/>
</g>
<g id="64/chard/color/yellow">
<path id="Shape_9" d="M7 9.5V28L16 29.5V8L7 9.5Z" fill="#ECF0F4"/>
<path id="Chard" d="M15 9.2159V28.3182L3 26.5V11L15 9.2159Z" fill="#E6007E"/>
</g>
<g id="64/chard/letter/a">
<path id="I" fill-rule="evenodd" clip-rule="evenodd" d="M8.07617 23V14.6H9.92417V23H8.07617Z" fill="white"/>
</g>
</g>
</svg>
