<svg width="24" height="24" xmlns="http://www.w3.org/2000/svg"><g fill="none" fill-rule="evenodd"><path d="M19.27 16.447c3.372.939 4.302-.868 4.375-1.621-.734.182-2.127.294-1.951-2.708.064-1.094-.207-3.362-.894-5.092-1.15-2.893-3.553-2.755-3.989-2.755-.052 0-.125.001-.213.008-.089-.007-.161-.008-.214-.008-.435 0-2.838-.138-3.988 2.755-.688 1.73-.958 3.998-.894 5.092.176 3.002-2.194 2.89-2.927 2.708.161.717 1.964 2.79 5.464 1.678-.138.377 5.368.311 5.231-.057zM24 19.298c0-.548-.437-1.06-.998-1.148 0 0-.383-.055-1.034-.17-.717-.153-1.528-.323-2.019-.429-.072-.027-.28-.052-.304-.076-.129-.129-5.857-.131-5.989 0-.024.024-.232.049-.304.076-.491.106-1.301.276-2.019.429-.651.115-1.311.228-1.764.326-1.167.252-1.345.857-1.649 1.386-.254.441-.871 4.308-.871 4.308h14.957C23.107 24 24 23.11 24 22.009v-2.711z" fill="#CCC"/><path d="M16.65 21.909c1.763-.526 2.784-2.624 2.915-4.416.011-.157-.636.047-.752-.795-.117-.842-.622-2.668-2.163-2.668-1.317 0-1.994 1.214-2.285 2.777-.049.267-.241.532-.493.686-1.361.836.787 3.844 2.778 4.416z" fill="#EFEFEF"/><path d="M20.684 9.884c.163.558.252 1.161.252 1.789 0 2.92-1.926 5.287-4.302 5.287-2.376 0-4.303-2.367-4.303-5.287 0-.716.116-1.399.326-2.021.16.015.323.023.488.023 1.909 0 3.511-1.062 3.951-2.496.61 1.461 1.967 2.526 3.588 2.705z" fill="#EFEFEF"/><path d="M14.13 17.546c-.902-.199-1.921-.42-2.538-.557-.091-.035-.735-.464-.765-.496-.287-.294-5.607-.294-5.894 0-.03.032-.773.265-.864.299-.617.138-3.793.877-4.069.998.006 1.494.002 4.217.002 4.217-.001 1.105.903 2 1.991 1.999 0 0 13.11-.006 14.74-.006.291-.922.36-2.277.36-3.435 0-2.037-2.145-2.87-2.963-3.019z" fill="#CCC"/><path d="M11.366 17.315c-1.115-1.773-1.115-3.304-1.115-4.777.593-.939-5.978-.939-5.385 0 0 1.473.307 3.732-.884 5.128-.033.039 5.678 2.18 7.384-.351z" fill="#EFEFEF"/><path d="M10.701 15.928l1.391 1.17-2.511 3.524-.872-2.148 1.992-2.546zm-4.72 4.693l-2.528-3.683 1.275-.971 2.366 2.473-1.113 2.181z" fill="#FFF"/><path d="M10.694 14.988c.703-.646 1.398-1.262 1.594-2.185.322-1.512.493-3.787.343-4.661.375-.392 0-2.143 0-2.927 0-.784-1.145-2.865-8.455-1.542-.088-.02-1.939 4.149-1.632 4.469-.151.874.021 3.149.342 4.661.322 1.513 1.25 2.185 2.226 2.395.976.209 4.879.436 5.582-.21z" fill="#EFEFEF"/><path d="M3.804 7.293c.82-.667 5.244-1.225 6.017-2.516.229.349.229.153.229.963 0 .81 0 .982-.229 1.553.852-.209 1.141-.666 1.375-1.17 1.46 1.127 1.399 3.589 1.399 4.728.377-.375.632-2.606.632-3.355 0-.749.159-4.913-4.752-5.855-.088-.019-.179-.029-.267-.05-.351-.082-1.075-.094-1.416 0-.087.024-.179.031-.267.05-4.911.942-4.752 5.106-4.752 5.855 0 .749.371 2.363.748 2.738-.03.163.462-2.274 1.283-2.941z" fill="#CCC"/></g></svg>