<svg width="16" height="16" xmlns="http://www.w3.org/2000/svg"><g fill="none" fill-rule="evenodd"><path d="M12.8466667 10.9646667c2.248.626 2.868-.5786667 2.9166666-1.0806667-.4893333.1213333-1.418.196-1.3006666-1.80533333.0426666-.72933334-.138-2.24133334-.596-3.39466667C13.1 2.75533333 11.498 2.84733333 11.2073333 2.84733333c-.0346666 0-.0833333.00066667-.142.00533334C11.006 2.848 10.958 2.84733333 10.9226667 2.84733333c-.29 0-1.89200003-.092-2.6586667 1.83666667-.45866667 1.15333333-.63866667 2.66533333-.596 3.39466667C7.78533333 10.08 6.20533333 10.0053333 5.71666667 9.884 5.824 10.362 7.026 11.744 9.35933333 11.0026667c-.092.2513333 3.57866667.2073333 3.48733337-.038zM16 12.8653333C16 12.5 15.7086667 12.1586667 15.3346667 12.1c0 0-.2553334-.0366667-.6893334-.1133333-.478-.102-1.0186666-.2153334-1.346-.286-.048-.018-.1866666-.0346667-.2026666-.0506667-.086-.086-3.9046667-.0873333-3.9926667 0-.016.016-.15466667.0326667-.20266667.0506667-.32733333.0706666-.86733333.184-1.346.286-.434.0766666-.874.152-1.176.2173333-.778.168-.89666666.5713333-1.09933333.924-.16933333.294-.58066667 2.872-.58066667 2.872h9.97133337C15.4046667 16 16 15.4066667 16 14.6726667v-1.8073334z" fill="#CCC"/><path d="M11.1 14.606c1.1753333-.3506667 1.856-1.7493333 1.9433333-2.944.0073334-.1046667-.424.0313333-.5013333-.53-.078-.5613333-.4146667-1.77866667-1.442-1.77866667-.878 0-1.32933333.80933337-1.52333333 1.85133337C9.544 11.3826667 9.416 11.5593333 9.248 11.662c-.90733333.5573333.52466667 2.5626667 1.852 2.944z" fill="#EFEFEF"/><path d="M13.7893333 6.58933333c.1086667.372.168.774.168 1.19266667 0 1.94666667-1.284 3.5246667-2.868 3.5246667-1.58399997 0-2.86866663-1.57800003-2.86866663-3.5246667 0-.47733333.07733333-.93266667.21733333-1.34733333.10666667.01.21533333.01533333.32533333.01533333C10.036 6.45 11.104 5.742 11.3973333 4.786c.4066667.974 1.3113334 1.684 2.392 1.80333333z" fill="#EFEFEF"/><path d="M9.42 11.6973333c-.60133333-.1326666-1.28066667-.28-1.692-.3713333-.06066667-.0233333-.49-.3093333-.51-.3306667-.19133333-.196-3.738-.196-3.92933333 0-.02.0213334-.51533334.1766667-.576.1993334C2.30133333 11.2866667.184 11.7793333 0 11.86c.004.996.00133333 2.8113333.00133333 2.8113333-.00066666.7366667.602 1.3333334 1.32733334 1.3326667 0 0 8.74000003-.004 9.82666663-.004.194-.6146667.24-1.518.24-2.29 0-1.358-1.42999997-1.9133333-1.9753333-2.0126667z" fill="#CCC"/><path d="M7.57733333 11.5433333C6.834 10.3613333 6.834 9.34066667 6.834 8.35866667c.39533333-.626-3.98533333-.626-3.59 0 0 .982.20466667 2.48800003-.58933333 3.41866663-.022.026 3.78533333 1.4533334 4.92266666-.234z" fill="#EFEFEF"/><path d="M7.134 10.6186667l.92733333.78-1.674 2.3493333L5.806 12.316l1.328-1.6973333zm-3.14666667 3.1286666L2.302 11.292l.85-.6473333 1.57733333 1.6486666-.742 1.454z" fill="#FFF"/><path d="M7.12933333 9.992c.46866667-.43066667.932-.84133333 1.06266667-1.45666667.21466667-1.008.32866667-2.52466666.22866667-3.10733333.25-.26133333 0-1.42866667 0-1.95133333 0-.52266667-.76333334-1.91-5.63666667-1.028-.05866667-.01333334-1.29266667 2.766-1.088 2.97933333-.10066667.58266667.014 2.09933333.228 3.10733333C2.13866667 9.544 2.75733333 9.992 3.408 10.132c.65066667.1393333 3.25266667.2906667 3.72133333-.14z" fill="#EFEFEF"/><path d="M2.536 4.862c.54666667-.44466667 3.496-.81666667 4.01133333-1.67733333.15266667.23266666.15266667.102.15266667.642S6.7 4.48133333 6.54733333 4.862c.568-.13933333.76066667-.444.91666667-.78.97333333.75133333.93266667 2.39266667.93266667 3.152C8.648 6.984 8.818 5.49666667 8.818 4.99733333 8.818 4.498 8.924 1.722 5.65 1.094c-.05866667-.01266667-.11933333-.01933333-.178-.03333333-.234-.05466667-.71666667-.06266667-.944 0-.058.016-.11933333.02066666-.178.03333333-3.274.628-3.168 3.404-3.168 3.90333333 0 .49933334.24733333 1.57533334.49866667 1.82533334-.02.10866666.308-1.516.85533333-1.96066667z" fill="#CCC"/></g></svg>