<svg xmlns="http://www.w3.org/2000/svg" width="16" height="16" viewBox="0 0 16 16">
  <path fill="#FFFFFF" d="M13.944,8.784 C13.976,8.528 14,8.272 14,8 C14,7.728 13.976,7.472 13.944,7.216 L15.632,5.896 C15.784,5.776 15.824,5.56 15.728,5.384 L14.128,2.616 C14.032,2.44 13.816,2.376 13.64,2.44 L11.648,3.24 C11.232,2.92 10.784,2.656 10.296,2.456 L9.992,0.336 C9.968,0.144 9.8,0 9.6,0 L6.4,0 C6.2,0 6.032,0.144 6.008,0.336 L5.704,2.456 C5.216,2.656 4.768,2.928 4.352,3.24 L2.36,2.44 C2.176,2.368 1.968,2.44 1.872,2.616 L0.272,5.384 C0.168,5.56 0.216,5.776 0.368,5.896 L2.056,7.216 C2.024,7.472 2,7.736 2,8 C2,8.264 2.024,8.528 2.056,8.784 L0.368,10.104 C0.216,10.224 0.176,10.44 0.272,10.616 L1.872,13.384 C1.968,13.56 2.184,13.624 2.36,13.56 L4.352,12.76 C4.768,13.08 5.216,13.344 5.704,13.544 L6.008,15.664 C6.032,15.856 6.2,16 6.4,16 L9.6,16 C9.8,16 9.968,15.856 9.992,15.664 L10.296,13.544 C10.784,13.344 11.232,13.072 11.648,12.76 L13.64,13.56 C13.824,13.632 14.032,13.56 14.128,13.384 L15.728,10.616 C15.824,10.44 15.784,10.224 15.632,10.104 L13.944,8.784 L13.944,8.784 Z M8,10.8 C6.456,10.8 5.2,9.544 5.2,8 C5.2,6.456 6.456,5.2 8,5.2 C9.544,5.2 10.8,6.456 10.8,8 C10.8,9.544 9.544,10.8 8,10.8 Z"/>
</svg>
