<?xml version="1.0" encoding="UTF-8" standalone="no"?><!DOCTYPE svg PUBLIC "-//W3C//DTD SVG 1.1//EN" "http://www.w3.org/Graphics/SVG/1.1/DTD/svg11.dtd"><svg width="100%" height="100%" viewBox="0 0 16 16" version="1.1" xmlns="http://www.w3.org/2000/svg" xmlns:xlink="http://www.w3.org/1999/xlink" xml:space="preserve" style="fill-rule:evenodd;clip-rule:evenodd;stroke-linejoin:round;stroke-miterlimit:1.41421;"><g id="state_empty_blue_16x16"><path id="Shape" d="M16,6c0,-1.656 -1.344,-3 -3,-3l-10,0c-1.656,0 -3,1.344 -3,3l0,4c0,1.656 1.344,3 3,3l10,0c1.656,0 3,-1.344 3,-3l0,-4Z" style="fill:#4789f5;"/><path id="Shape1" d="M14,6c0,-0.552 -0.448,-1 -1,-1l-10,0c-0.552,0 -1,0.448 -1,1l0,4c0,0.552 0.448,1 1,1l10,0c0.552,0 1,-0.448 1,-1l0,-4Z" style="fill:#fff;"/></g></svg>