<svg xmlns="http://www.w3.org/2000/svg" width="16" height="16" viewBox="0 0 16 16"><g fill="none" fill-rule="evenodd"><path fill="#5D5C65" d="M1 11.6666667L1 15.3333333C1 15.7015232 1.29847683 16 1.66666667 16L14.3333333 16C14.7015232 16 15 15.7015232 15 15.3333333L15 11.6666667C15 11.2984768 14.7015232 11 14.3333333 11L1.66666667 11C1.29847683 11 1 11.2984768 1 11.6666667L1 11.6666667zM9.75 1L6.25 1C5.83578644 1 5.5 1.33578644 5.5 1.75L5.5 3 4.5 3 4.5 1.5C4.5.671572875 5.17157288 1.52179594e-16 6 0L10 0C10.8284271-1.52179594e-16 11.5.671572875 11.5 1.5L11.5 3 10.5 3 10.5 1.75C10.5 1.33578644 10.1642136 1 9.75 1z"/><path fill="#868686" d="M2.22044605e-16,4.33333333 L2.22044605e-16,10.6666667 C7.44217029e-16,11.4030463 0.596953667,12 1.33333333,12 L14.6666667,12 C15.4030463,12 16,11.4030463 16,10.6666667 L16,4.33333333 C16,3.59695367 15.4030463,3 14.6666667,3 L1.33333333,3 C0.596953667,3 -9.01805001e-17,3.59695367 2.22044605e-16,4.33333333 Z"/><polygon fill="#CCCCCC" points="3 3 5 3 5 12 3 12"/><polygon fill="#CCCCCC" points="11 3 13 3 13 12 11 12"/><path fill="#FAD00A" d="M3 11.5L3 12.5C3 12.7761424 3.22385763 13 3.5 13L4.5 13C4.77614237 13 5 12.7761424 5 12.5L5 11.5C5 11.2238576 4.77614237 11 4.5 11L3.5 11C3.22385763 11 3 11.2238576 3 11.5zM11 11.5L11 12.5C11 12.7761424 11.2238576 13 11.5 13L12.5 13C12.7761424 13 13 12.7761424 13 12.5L13 11.5C13 11.2238576 12.7761424 11 12.5 11L11.5 11C11.2238576 11 11 11.2238576 11 11.5z"/></g></svg>