<svg xmlns="http://www.w3.org/2000/svg" width="24" height="24" viewBox="0 0 24 24"><g fill="none" fill-rule="evenodd"><path fill="#5D5C65" d="M2.00246167 16C1.44881738 16 1 16.4530363 1 16.9970301L1 23.0029699C1 23.5536144 1.43945834 24 2.00246167 24L21.9975383 24C22.5511826 24 23 23.5469637 23 23.0029699L23 16.9970301C23 16.4463856 22.5605417 16 21.9975383 16L2.00246167 16zM14.5 0L9.5 0C8.11928813 2.53632657e-16 7 1.11928813 7 2.5L7 4 9 4 9 3C9 2.44771525 9.44771525 2 10 2L14 2C14.5522847 2 15 2.44771525 15 3L15 4 17 4 17 2.5C17 1.11928813 15.8807119-2.53632657e-16 14.5 0z"/><path fill="#868686" d="M2.00494659,4 C0.897645164,4 0,4.89706013 0,6.00585866 L0,15.9941413 C0,17.1019465 0.897026226,18 2.00494659,18 L21.9950534,18 C23.1023548,18 24,17.1029399 24,15.9941413 L24,6.00585866 C24,4.89805351 23.1029738,4 21.9950534,4 L2.00494659,4 Z"/><path fill="#CCCCCC" d="M4,4 L8,4 L8,18 L4,18 L4,4 Z M16,4 L20,4 L20,18 L16,18 L16,4 Z"/><path fill="#FAD00A" d="M4 17L4 19C4 19.5522847 4.44771525 20 5 20L7 20C7.55228475 20 8 19.5522847 8 19L8 17C8 16.4477153 7.55228475 16 7 16L5 16C4.44771525 16 4 16.4477153 4 17zM16 17L16 19C16 19.5522847 16.4477153 20 17 20L19 20C19.5522847 20 20 19.5522847 20 19L20 17C20 16.4477153 19.5522847 16 19 16L17 16C16.4477153 16 16 16.4477153 16 17z"/></g></svg>