<?xml version="1.0" encoding="UTF-8"?><svg xmlns="http://www.w3.org/2000/svg" width="24" height="24" viewBox="0 0 24 24"><title>s/schoolbord_config/schoolbord_config_24x24</title><g fill="none" fill-rule="evenodd"><path d="M0 0h24v24H0z"/><path fill="#EEC31D" d="M0 6v12c0 2.21 1.79 4 4 4h16c2.21 0 4-1.79 4-4V6c0-2.21-1.79-4-4-4H4C1.79 2 0 3.79 0 6z"/><path fill="#2B8100" d="M2 7v10c0 1.657 1.343 3 3 3h14c1.657 0 3-1.343 3-3V7c0-1.657-1.343-3-3-3H5C3.343 4 2 5.343 2 7z"/><path fill="#FFF" d="M14.958 12.895l-.854.625c.037.177.06.357.068.538l1.025.425c-.032.482-.146.956-.338 1.403l-1.117-.05c-.09.16-.193.31-.308.455l.5.957c-.348.35-.753.643-1.2.867l-.82-.725c-.177.065-.358.118-.542.157l-.26 1.04c-.5.055-1.007.03-1.5-.075l-.142-1.06c-.178-.058-.352-.13-.52-.213l-.896.637c-.42-.267-.79-.6-1.098-.982l.602-.9c-.1-.155-.185-.317-.257-.484l-1.113-.062c-.142-.464-.204-.947-.183-1.43l1.066-.32c.027-.178.07-.354.127-.527l-.81-.734c.2-.443.477-.85.818-1.207l1.03.41c.14-.12.292-.228.452-.325l-.13-1.063c.453-.215.938-.357 1.438-.42l.513.95c.19-.005.378.004.565.028l.566-.823c-.064-.388-.058-.783.017-1.17l.873-.166c.05-.15.113-.3.19-.44l-.493-.71c.25-.35.567-.655.934-.895l.742.473c.147-.074.3-.135.46-.183l.175-.836c.436-.08.884-.08 1.32 0l.176.835c.158.048.312.11.46.183l.74-.473c.367.24.684.544.935.895l-.494.71c.077.14.14.29.19.44l.874.168c.08.42.08.848 0 1.267l-.874.167c-.05.152-.113.3-.19.44l.494.71c-.25.352-.568.656-.935.896l-.74-.473c-.148.074-.302.135-.46.183l-.175.836c-.298.054-.6.07-.9.05zm.24-4.995c-.895 0-1.62.695-1.62 1.55 0 .858.725 1.553 1.62 1.553.893 0 1.618-.695 1.618-1.552 0-.855-.725-1.55-1.62-1.55zm-3.786 4.478c-1.05-.428-2.267.043-2.714 1.05-.446 1.008.044 2.173 1.096 2.6 1.05.43 2.267-.04 2.714-1.05.447-1.006-.044-2.172-1.096-2.6z"/></g></svg>