<svg width="24" height="24" viewBox="0 0 24 24" fill="none" xmlns="http://www.w3.org/2000/svg">
<g clip-path="url(#clip0_391_54)">
<path fill-rule="evenodd" clip-rule="evenodd" d="M16.4954 4.42094C17.0022 3.34106 18.1815 2.54747 19.4948 2.40432C20.5571 2.29131 21.639 2.59267 22.4333 3.22805C23.1058 3.76297 23.5395 4.48373 23.6759 5.27732C23.732 5.61384 23.71 6.2015 23.6272 6.52546C23.5444 6.84943 23.3957 7.19599 23.2154 7.47475C23.0376 7.75352 22.6696 8.15533 22.4065 8.35624C21.4733 9.07198 20.255 9.33567 19.0611 9.08202L18.8369 9.03431L18.681 9.10714C18.296 9.28796 17.6041 9.49389 17.0485 9.59685C16.7001 9.66215 16.683 9.63452 16.8268 9.23522C16.9291 8.95394 17.0388 8.52701 17.0826 8.2357L17.1119 8.02976L17.0168 7.92178C16.6465 7.5074 16.3882 7.01266 16.2566 6.47272C16.2006 6.24168 16.1933 6.15378 16.1933 5.8047C16.1909 5.24467 16.2615 4.91819 16.4954 4.42094ZM18.4568 5.51338C18.4154 5.45562 18.335 5.38028 18.2765 5.34763C17.8501 5.11659 17.4018 5.61384 17.6552 6.03575C17.8404 6.34464 18.2497 6.34967 18.4568 6.0483C18.5202 5.95287 18.5299 5.9152 18.5299 5.77959C18.5299 5.64397 18.5178 5.60379 18.4568 5.51338ZM20.4085 5.65402C20.389 5.54603 20.2721 5.40288 20.1478 5.33759C20.0309 5.27732 19.8749 5.27732 19.7482 5.33759C19.2682 5.56612 19.4534 6.30446 19.9821 6.26428C20.2818 6.24168 20.467 5.97798 20.4085 5.65402ZM22.0629 6.21405C22.3772 6.0257 22.3992 5.59124 22.1068 5.38028C21.9825 5.28987 21.7681 5.26476 21.6487 5.32503C21.4635 5.42046 21.3685 5.57114 21.3685 5.77456C21.3685 6.05835 21.5415 6.2467 21.8168 6.26177C21.9362 6.2693 21.9825 6.25926 22.0629 6.21405Z" fill="#F24D00"/>
<path d="M14.8751 12.0555L15.1431 11.3171H15.7157V12.0454H16.666V12.7486L16.1982 12.7536L15.7279 12.7612V13.6828C15.7279 14.5794 15.7303 14.6045 15.7791 14.6748C15.8717 14.8029 15.974 14.8456 16.1787 14.8406C16.2786 14.8381 16.4418 14.8155 16.5393 14.7878L16.7147 14.7426V15.4307L16.6124 15.4709C16.4053 15.5463 16.3078 15.5638 16.0057 15.5789C15.36 15.609 15.0335 15.4307 14.8824 14.9636C14.8313 14.8029 14.8288 14.7502 14.8191 13.7707L14.8118 12.7486H14.3756V12.5527L14.3781 12.3593L14.6266 12.2087L14.8751 12.0555Z" fill="#F24D00"/>
<path fill-rule="evenodd" clip-rule="evenodd" d="M2.05888 12.0304C1.85421 12.0806 1.70314 12.1735 1.54233 12.3393C1.45949 12.4272 1.38395 12.4975 1.37177 12.4975C1.36203 12.4975 1.32548 12.3995 1.29137 12.2765L1.22802 12.058L0.487305 12.0429V17.0681H1.3937L1.38639 16.1013C1.38152 15.5689 1.37908 15.1344 1.38395 15.1344C1.38883 15.1344 1.4473 15.1922 1.51309 15.26C1.72263 15.4759 2.00284 15.5864 2.33908 15.5864C2.69238 15.5839 2.92629 15.486 3.16994 15.2374C3.35999 15.0415 3.47939 14.8079 3.56223 14.4689C3.60852 14.2755 3.61827 14.1776 3.61827 13.7783C3.61827 13.379 3.60852 13.281 3.56223 13.0876C3.3868 12.3694 2.96284 11.9902 2.34639 11.9977C2.25624 11.9977 2.12467 12.0128 2.05888 12.0304ZM2.33908 12.8039C2.47065 12.8742 2.59248 13.0324 2.64609 13.2082C2.70456 13.4041 2.71918 13.9892 2.67045 14.2278C2.62416 14.4614 2.52182 14.6497 2.39269 14.7426C2.30741 14.8054 2.26355 14.818 2.10274 14.8255C1.93218 14.8355 1.9005 14.8305 1.77868 14.7652C1.49604 14.6145 1.40101 14.3559 1.40588 13.728C1.40832 13.3086 1.45461 13.1052 1.58619 12.9395C1.69827 12.8013 1.82497 12.7486 2.0467 12.7486C2.19045 12.7486 2.25624 12.7612 2.33908 12.8039Z" fill="#F24D00"/>
<path d="M5.39207 12.4824C5.54558 12.2689 5.77461 12.1032 6.01827 12.0304C6.1206 12.0002 6.56162 11.9927 6.58598 12.0203C6.59085 12.0279 6.58111 12.2011 6.56405 12.4096C6.55298 12.5433 6.54293 12.6717 6.53658 12.7529C6.53315 12.7968 6.5308 12.8268 6.52994 12.8365C6.52994 12.8842 6.51289 12.8867 6.23025 12.8867C5.96223 12.8867 5.9208 12.8943 5.79898 12.952C5.53827 13.0776 5.38964 13.2735 5.33847 13.5623C5.32141 13.6527 5.31167 14.0771 5.31167 14.6246V15.5362H4.41014V12.0454H5.08994L5.11431 12.1383C5.12893 12.1911 5.1606 12.3242 5.18497 12.4347C5.21177 12.5452 5.24344 12.6356 5.25563 12.6356C5.27025 12.6356 5.33116 12.5678 5.39207 12.4824Z" fill="#F24D00"/>
<path fill-rule="evenodd" clip-rule="evenodd" d="M8.17461 12.0128C7.9139 12.053 7.334 12.2514 7.334 12.2966C7.334 12.3116 7.59715 12.9018 7.61177 12.9169C7.61421 12.9194 7.71411 12.8842 7.8335 12.8365C8.21603 12.6883 8.58395 12.6356 8.774 12.7009C8.98598 12.7737 9.07857 12.9118 9.10294 13.1931L9.11999 13.3689L8.69603 13.3865C7.7068 13.4267 7.26091 13.6125 7.0806 14.0595C6.96852 14.3333 6.98314 14.7627 7.11228 15.0515C7.27553 15.4107 7.58984 15.5864 8.06497 15.5864C8.48893 15.5839 8.78619 15.4684 9.0274 15.2072C9.10294 15.1244 9.17116 15.0591 9.18091 15.0591C9.19065 15.0591 9.23695 15.1645 9.28324 15.2901L9.36852 15.5237L10.0142 15.5387V14.3885C10.0142 13.7557 10.0045 13.1479 9.99228 13.0374C9.9338 12.5251 9.7072 12.2338 9.23938 12.0756C9.0737 12.0203 9.00548 12.0128 8.64974 12.0052C8.42801 12.0027 8.21603 12.0052 8.17461 12.0128ZM9.09806 14.16C9.09319 14.4488 9.0469 14.5719 8.88121 14.7301C8.63025 14.9687 8.13563 14.9687 7.99187 14.7276C7.93096 14.6246 7.92609 14.3885 7.98213 14.2655C8.07959 14.052 8.28426 13.9591 8.72284 13.9289C8.76064 13.9265 8.79469 13.924 8.82537 13.9218C8.98349 13.9103 9.0518 13.9053 9.08049 13.9377C9.10232 13.9623 9.10123 14.0085 9.09933 14.0898C9.09883 14.1108 9.09829 14.1341 9.09806 14.16Z" fill="#F24D00"/>
<path fill-rule="evenodd" clip-rule="evenodd" d="M11.1959 12.2338C11.386 12.1459 11.6199 12.0705 11.8246 12.0304C12.0633 11.9852 12.7261 12.0002 12.921 12.0555C13.3596 12.181 13.63 12.4598 13.7153 12.8692C13.7324 12.9571 13.7421 13.4267 13.7421 14.268V15.5362H13.1208L13.038 15.3152C12.9941 15.1947 12.9478 15.0867 12.9381 15.0766C12.9283 15.0666 12.8503 15.1294 12.7651 15.2148C12.497 15.4835 12.2412 15.5839 11.8246 15.5864C11.5687 15.5864 11.4006 15.5488 11.2252 15.4533C10.8914 15.2725 10.7135 14.8732 10.7525 14.391C10.7939 13.8963 11.0473 13.6251 11.6053 13.4794C11.7953 13.4292 12.3289 13.3765 12.6652 13.3765H12.8406V13.2057C12.8406 12.7737 12.5507 12.5979 12.0146 12.7084C11.8489 12.7436 11.5565 12.839 11.403 12.9093C11.3738 12.9219 11.3299 12.8516 11.213 12.6105L11.0619 12.2941L11.1959 12.2338ZM12.7821 14.5216C12.8309 14.4136 12.8406 14.3534 12.8406 14.1474C12.8406 13.9315 12.8357 13.9038 12.7992 13.9089C12.7805 13.9089 12.6876 13.9147 12.5729 13.922C12.5378 13.9242 12.5006 13.9266 12.4629 13.9289C12.1048 13.9516 11.9342 14.0118 11.8075 14.155C11.598 14.3936 11.6491 14.7627 11.9074 14.8732C12.0122 14.9184 12.2412 14.9184 12.3923 14.8707C12.5507 14.823 12.7115 14.6798 12.7821 14.5216Z" fill="#F24D00"/>
<path d="M1.95169 5.13229C2.17341 4.85102 2.42499 4.66204 2.70641 4.56535C2.99636 4.46866 3.26499 4.42032 3.5123 4.42032C3.89605 4.42032 4.22438 4.48624 4.49727 4.61809C4.77016 4.74114 4.99189 4.91254 5.16245 5.13229C5.33301 5.34324 5.45666 5.58936 5.53341 5.87063C5.61016 6.1519 5.64854 6.45075 5.64854 6.76718V9.62825C5.64854 9.71615 5.6059 9.7601 5.52062 9.7601H4.54844C4.46316 9.7601 4.42052 9.71615 4.42052 9.62825V6.96495C4.42052 6.78037 4.40773 6.60457 4.38214 6.43757C4.36509 6.26177 4.31392 6.11235 4.22864 5.98929C4.14336 5.85744 4.01971 5.75636 3.85768 5.68604C3.70417 5.60694 3.49098 5.56738 3.21808 5.56738C2.83433 5.56738 2.5529 5.70802 2.37382 5.98929C2.19473 6.26177 2.10519 6.58699 2.10519 6.96495V9.62825C2.10519 9.71615 2.06255 9.7601 1.97727 9.7601H1.00509C0.919808 9.7601 0.877168 9.71615 0.877168 9.62825V4.61809C0.877168 4.53019 0.919808 4.48624 1.00509 4.48624H1.70864C1.77686 4.48624 1.8195 4.53019 1.83656 4.61809L1.95169 5.13229Z" fill="black"/>
<path d="M10.8795 9.11405C10.6578 9.39532 10.402 9.5843 10.112 9.68099C9.83058 9.77767 9.56622 9.82602 9.31891 9.82602C8.93515 9.82602 8.60683 9.76449 8.33393 9.64143C8.06104 9.50959 7.83931 9.33819 7.66876 9.12723C7.4982 8.90749 7.37454 8.65698 7.29779 8.37571C7.22104 8.09444 7.18266 7.79559 7.18266 7.47915V4.61809C7.18266 4.53019 7.2253 4.48624 7.31058 4.48624H8.28277C8.36804 4.48624 8.41068 4.53019 8.41068 4.61809V7.33412C8.41068 7.51871 8.41921 7.6989 8.43627 7.87469C8.46185 8.0417 8.51728 8.19112 8.60256 8.32297C8.68784 8.44603 8.80723 8.54711 8.96074 8.62622C9.12277 8.69653 9.34023 8.73169 9.61312 8.73169C9.99688 8.73169 10.2783 8.59545 10.4574 8.32297C10.6365 8.0417 10.726 7.71208 10.726 7.33412V4.61809C10.726 4.53019 10.7687 4.48624 10.8539 4.48624H11.8261C11.9114 4.48624 11.954 4.53019 11.954 4.61809V9.62825C11.954 9.71615 11.9114 9.7601 11.8261 9.7601H11.1226C11.0543 9.7601 11.0117 9.71615 10.9946 9.62825L10.8795 9.11405Z" fill="black"/>
<path d="M21.6679 13.7629L23.2381 15.4898C23.2381 15.55 23.2088 15.5802 23.1503 15.5802H22.2381C22.2089 15.5802 22.1884 15.5772 22.1767 15.5711C22.1708 15.5591 22.1533 15.538 22.1241 15.5078L20.8346 14.1246V15.4898C20.8346 15.55 20.8054 15.5802 20.7469 15.5802H20.0803C20.0218 15.5802 19.9926 15.55 19.9926 15.4898V10.5354C19.9926 10.4751 20.0218 10.4449 20.0803 10.4449H20.7469C20.8054 10.4449 20.8346 10.4751 20.8346 10.5354V13.4194L22.1328 12.0542C22.1562 12.0241 22.1738 12.003 22.1855 11.9909C22.1972 11.9729 22.2176 11.9638 22.2469 11.9638H23.1679C23.2264 11.9638 23.2556 11.9939 23.2556 12.0542L21.6679 13.7629Z" fill="black"/>
<path d="M17.8407 11.0507C17.8407 10.906 17.8904 10.7795 17.9898 10.671C18.095 10.5625 18.2149 10.5082 18.3494 10.5082C18.4956 10.5082 18.6184 10.5625 18.7178 10.671C18.8231 10.7795 18.8757 10.906 18.8757 11.0507C18.8757 11.1953 18.8231 11.3189 18.7178 11.4214C18.6184 11.5238 18.4956 11.5751 18.3494 11.5751C18.2149 11.5751 18.095 11.5238 17.9898 11.4214C17.8904 11.3189 17.8407 11.1953 17.8407 11.0507Z" fill="black"/>
<path d="M17.9196 12.0542C17.9196 11.9939 17.9488 11.9638 18.0073 11.9638H18.674C18.7324 11.9638 18.7617 11.9939 18.7617 12.0542V15.4898C18.7617 15.55 18.7324 15.5802 18.674 15.5802H18.0073C17.9488 15.5802 17.9196 15.55 17.9196 15.4898V12.0542Z" fill="black"/>
<path fill-rule="evenodd" clip-rule="evenodd" d="M3.13073 21.4635C3.24915 21.4025 3.35112 21.3245 3.43664 21.2296C3.46295 21.2093 3.47611 21.1821 3.47611 21.1482C3.47611 21.1347 3.46624 21.1075 3.44651 21.0669L3.16033 20.599C3.12744 20.5651 3.09126 20.5481 3.05179 20.5481C3.02547 20.5481 3.00245 20.5583 2.98271 20.5787C2.85114 20.6736 2.68996 20.7414 2.49918 20.7821C2.31497 20.816 2.15051 20.8329 2.00578 20.8329C1.92025 20.8329 1.81499 20.8228 1.69 20.8024C1.57158 20.7753 1.45317 20.7312 1.33475 20.6702C1.22291 20.6092 1.12423 20.5244 1.03871 20.4159C0.959765 20.3074 0.920293 20.1684 0.920293 19.9989H3.65373C3.71952 19.9989 3.75242 19.965 3.75242 19.8972V19.5005C3.75242 19.1751 3.70308 18.8869 3.60439 18.636C3.50571 18.3851 3.37085 18.1783 3.19981 18.0156C3.02876 17.846 2.82811 17.7206 2.59786 17.6392C2.3676 17.5511 2.11761 17.507 1.84789 17.507C1.51237 17.507 1.22291 17.5646 0.979501 17.6799C0.742669 17.7952 0.545309 17.9511 0.38742 18.1478C0.236111 18.3376 0.124273 18.5614 0.0519076 18.8191C-0.0204579 19.07 -0.0566406 19.3378 -0.0566406 19.6226C-0.0566406 19.982 -0.00401119 20.2905 0.101248 20.5481C0.213085 20.8058 0.361106 21.0194 0.545309 21.1889C0.73609 21.3584 0.956476 21.4839 1.20647 21.5652C1.46303 21.6398 1.73276 21.6771 2.01564 21.6771C2.13406 21.6771 2.25905 21.6703 2.39063 21.6568C2.5222 21.65 2.65049 21.6297 2.77548 21.5958C2.90048 21.5618 3.01889 21.5178 3.13073 21.4635ZM1.52224 18.4631C1.64066 18.4292 1.75579 18.4122 1.86762 18.4122C1.98604 18.4122 2.10117 18.4258 2.213 18.4529C2.32484 18.48 2.42681 18.5241 2.51891 18.5851C2.61101 18.6462 2.68338 18.7275 2.73601 18.8292C2.79522 18.9242 2.82482 19.0428 2.82482 19.1852H0.920293C0.920293 19.0564 0.946608 18.9445 0.999237 18.8496C1.05845 18.7479 1.13081 18.6665 1.21633 18.6055C1.30844 18.5377 1.4104 18.4902 1.52224 18.4631Z" fill="black"/>
<path d="M6.22983 18.4834C6.3614 18.4224 6.52916 18.3919 6.7331 18.3919H6.9798C7.04558 18.3919 7.07848 18.358 7.07848 18.2902V17.6087C7.07848 17.5409 7.04558 17.507 6.9798 17.507H6.75283C6.59494 17.507 6.41732 17.5375 6.21996 17.5985C6.0226 17.6596 5.83182 17.7952 5.64761 18.0054L5.56867 17.6596C5.55551 17.5918 5.52262 17.5579 5.46999 17.5579H4.88778C4.82199 17.5579 4.7891 17.5918 4.7891 17.6596V21.5246C4.7891 21.5924 4.82199 21.6263 4.88778 21.6263H5.63775C5.70353 21.6263 5.73643 21.5924 5.73643 21.5246V19.47C5.73643 19.3344 5.74958 19.2022 5.7759 19.0733C5.80221 18.9445 5.85155 18.8292 5.92392 18.7275C6.00286 18.6258 6.10483 18.5445 6.22983 18.4834Z" fill="black"/>
<path fill-rule="evenodd" clip-rule="evenodd" d="M9.56051 21.6771C9.27763 21.6771 9.0112 21.6229 8.76121 21.5144C8.51779 21.3991 8.30399 21.2465 8.11978 21.0567C7.93558 20.8668 7.78756 20.6431 7.67572 20.3854C7.57046 20.1277 7.51784 19.8565 7.51784 19.5717C7.51784 19.2869 7.57046 19.0225 7.67572 18.7784C7.78756 18.5275 7.93558 18.3071 8.11978 18.1173C8.30399 17.9274 8.51779 17.7782 8.76121 17.6697C9.0112 17.5613 9.27763 17.507 9.56051 17.507C9.8434 17.507 10.1065 17.5613 10.35 17.6697C10.5999 17.7782 10.817 17.9274 11.0012 18.1173C11.1854 18.3071 11.3302 18.5275 11.4354 18.7784C11.5473 19.0225 11.6032 19.2869 11.6032 19.5717C11.6032 19.8565 11.5473 20.1277 11.4354 20.3854C11.3302 20.6431 11.1854 20.8668 11.0012 21.0567C10.817 21.2465 10.5999 21.3991 10.35 21.5144C10.1065 21.6229 9.8434 21.6771 9.56051 21.6771ZM9.55065 20.8329C9.70196 20.8329 9.8434 20.8024 9.97497 20.7414C10.1131 20.6804 10.2315 20.5956 10.3302 20.4871C10.4289 20.3718 10.5078 20.2396 10.5671 20.0904C10.6263 19.9345 10.6559 19.765 10.6559 19.5819C10.6559 19.2157 10.5473 18.9276 10.3302 18.7174C10.1197 18.5072 9.85984 18.4021 9.55065 18.4021C9.39934 18.4021 9.2579 18.4292 9.12632 18.4834C8.99475 18.5377 8.87962 18.6156 8.78094 18.7174C8.68226 18.8191 8.60332 18.9445 8.54411 19.0937C8.49148 19.2361 8.46517 19.3988 8.46517 19.5819C8.46517 19.765 8.49148 19.9345 8.54411 20.0904C8.60332 20.2396 8.68226 20.3718 8.78094 20.4871C8.87962 20.5956 8.99475 20.6804 9.12632 20.7414C9.2579 20.8024 9.39934 20.8329 9.55065 20.8329Z" fill="black"/>
<path d="M12.0039 17.6596L13.5137 21.7016H14.6467L16.0564 17.6596C16.0564 17.5918 16.0235 17.5579 15.9577 17.5579H15.1091C15.0762 17.5579 15.0531 17.568 15.04 17.5884C15.0334 17.6019 15.0203 17.6257 15.0005 17.6596L14.0576 20.518L13.1329 17.6596C13.1132 17.6257 13.0967 17.6019 13.0836 17.5884C13.077 17.568 13.0572 17.5579 13.0244 17.5579H12.1026C12.0368 17.5579 12.0039 17.5918 12.0039 17.6596Z" fill="black"/>
<path fill-rule="evenodd" clip-rule="evenodd" d="M19.8769 21.2296C19.7914 21.3245 19.6894 21.4025 19.571 21.4635C19.4592 21.5178 19.3407 21.5618 19.2158 21.5958C19.0908 21.6297 18.9625 21.65 18.8309 21.6568C18.6993 21.6703 18.5743 21.6771 18.4559 21.6771C18.173 21.6771 17.9033 21.6398 17.6467 21.5652C17.3968 21.4839 17.1764 21.3584 16.9856 21.1889C16.8014 21.0194 16.6534 20.8058 16.5415 20.5481C16.4363 20.2905 16.3836 19.982 16.3836 19.6226C16.3836 19.3378 16.4198 19.07 16.4922 18.8191C16.5645 18.5614 16.6764 18.3376 16.8277 18.1478C16.9856 17.9511 17.1829 17.7952 17.4198 17.6799C17.6632 17.5646 17.9526 17.507 18.2882 17.507C18.5579 17.507 18.8079 17.5511 19.0381 17.6392C19.2684 17.7206 19.469 17.846 19.6401 18.0156C19.8111 18.1783 19.946 18.3851 20.0447 18.636C20.1433 18.8869 20.1927 19.1751 20.1927 19.5005V19.8972C20.1927 19.965 20.1598 19.9989 20.094 19.9989H17.3606C17.3606 20.1684 17.4 20.3074 17.479 20.4159C17.5645 20.5244 17.6632 20.6092 17.775 20.6702C17.8934 20.7312 18.0119 20.7753 18.1303 20.8024C18.2553 20.8228 18.3605 20.8329 18.446 20.8329C18.5908 20.8329 18.7552 20.816 18.9395 20.7821C19.1302 20.7414 19.2914 20.6736 19.423 20.5787C19.4427 20.5583 19.4657 20.5481 19.4921 20.5481C19.5315 20.5481 19.5677 20.5651 19.6006 20.599L19.8868 21.0669C19.9065 21.1075 19.9164 21.1347 19.9164 21.1482C19.9164 21.1821 19.9032 21.2093 19.8769 21.2296ZM18.3079 18.4122C18.1961 18.4122 18.0809 18.4292 17.9625 18.4631C17.8507 18.4902 17.7487 18.5377 17.6566 18.6055C17.5711 18.6665 17.4987 18.7479 17.4395 18.8496C17.3869 18.9445 17.3606 19.0564 17.3606 19.1852H19.2651C19.2651 19.0428 19.2355 18.9242 19.1763 18.8292C19.1237 18.7275 19.0513 18.6462 18.9592 18.5851C18.8671 18.5241 18.7651 18.48 18.6533 18.4529C18.5414 18.4258 18.4263 18.4122 18.3079 18.4122Z" fill="black"/>
<path d="M22.6701 18.4834C22.8017 18.4224 22.9694 18.3919 23.1734 18.3919H23.4201C23.4859 18.3919 23.5188 18.358 23.5188 18.2902V17.6087C23.5188 17.5409 23.4859 17.507 23.4201 17.507H23.1931C23.0352 17.507 22.8576 17.5375 22.6602 17.5985C22.4629 17.6596 22.2721 17.7952 22.0879 18.0054L22.0089 17.6596C21.9958 17.5918 21.9629 17.5579 21.9103 17.5579H21.328C21.2623 17.5579 21.2294 17.5918 21.2294 17.6596V21.5246C21.2294 21.5924 21.2623 21.6263 21.328 21.6263H22.078C22.1438 21.6263 22.1767 21.5924 22.1767 21.5246V19.47C22.1767 19.3344 22.1899 19.2022 22.2162 19.0733C22.2425 18.9445 22.2918 18.8292 22.3642 18.7275C22.4431 18.6258 22.5451 18.5445 22.6701 18.4834Z" fill="black"/>
</g>
<defs>
<clipPath id="clip0_391_54">
<rect width="24" height="24" fill="white"/>
</clipPath>
</defs>
</svg>
