<svg width="16" height="16" fill="none" xmlns="http://www.w3.org/2000/svg"><g fill-rule="evenodd" clip-rule="evenodd"><path d="M3.749 8.636a8.148 8.148 0 0 0-1.837-.234c-.682 0-1.31.112-1.912.338V1.117A4.1 4.1 0 0 1 1.91.666c.607 0 1.22.11 1.846.271 0 .687 0 6.75-.007 7.699z" fill="#0D6FE0"/><path d="M7.156 9.63c-.497-.127-1.003-.287-1.52-.451-.62-.196-1.25-.395-1.887-.543 0-.78 0-6.553.007-7.699.494.127.996.287 1.51.45.623.198 1.256.399 1.898.547 0 .656 0 6.84-.008 7.697z" fill="#ECF0F4"/><path d="M8.99 9.898c-.603 0-1.212-.108-1.834-.267.008-1.145.008-6.056.008-7.697a8.127 8.127 0 0 0 1.828.232c.678 0 1.31-.112 1.912-.339v7.619c-.59.304-1.22.452-1.913.452z" fill="red"/><path d="M8.415 13.969a8.15 8.15 0 0 0-1.837-.234c-.681 0-1.309.112-1.911.338V6.451a4.1 4.1 0 0 1 1.91-.452c.607 0 1.22.11 1.846.271 0 .688 0 6.75-.008 7.699z" fill="#262626"/><path d="M11.823 14.964c-.497-.128-1.003-.288-1.521-.452-.619-.196-1.248-.395-1.887-.543 0-.78 0-6.553.008-7.699.493.128.996.287 1.51.45.622.198 1.255.4 1.898.548 0 .655 0 6.84-.008 7.696z" fill="#FFD531"/><path d="M13.657 15.232c-.603 0-1.212-.109-1.834-.268.008-1.145.008-6.056.008-7.696a8.127 8.127 0 0 0 1.828.231c.678 0 1.31-.111 1.911-.338v7.618c-.59.304-1.22.453-1.913.453z" fill="red"/><path d="M13.923 6.051c-.212-.98-1.104-1.718-2.167-1.718a.169.169 0 0 1-.17-.166c0-.092.075-.167.17-.167 1.253 0 2.299.887 2.514 2.053l.246-.32a.173.173 0 0 1 .238-.033c.075.055.09.16.035.233l-.512.667a.17.17 0 0 1-.124.066h-.012a.173.173 0 0 1-.12-.048l-.682-.667a.164.164 0 0 1 0-.235.173.173 0 0 1 .24 0l.344.335zM1.567 9.949c.212.98 1.103 1.718 2.167 1.718.094 0 .17.074.17.166a.169.169 0 0 1-.17.167c-1.254 0-2.3-.887-2.515-2.053l-.245.32a.173.173 0 0 1-.239.033.165.165 0 0 1-.034-.233l.51-.667a.17.17 0 0 1 .125-.066h.012c.045 0 .089.017.121.048l.681.667a.164.164 0 0 1 0 .235.173.173 0 0 1-.24 0l-.343-.335z" fill="#29A5FF"/></g></svg>