<svg width="24" height="24" fill="none" xmlns="http://www.w3.org/2000/svg"><g fill-rule="evenodd" clip-rule="evenodd"><path d="M5.623 12.954c-.907-.21-1.827-.35-2.756-.35A8.031 8.031 0 0 0 0 13.11V1.676A6.149 6.149 0 0 1 2.865 1c.91 0 1.83.164 2.77.407 0 1.03 0 10.125-.012 11.548z" fill="#0D6FE0"/><path d="M10.734 14.446c-.745-.191-1.504-.431-2.281-.678-.928-.293-1.872-.593-2.83-.814 0-1.17 0-9.83.011-11.548.74.19 1.494.43 2.266.675.933.296 1.883.598 2.846.82 0 .984 0 10.261-.012 11.545z" fill="#ECF0F4"/><path d="M13.486 14.847c-.905 0-1.819-.162-2.752-.401.012-1.717.012-9.083.012-11.545.903.209 1.818.348 2.742.348a8.02 8.02 0 0 0 2.867-.508V14.17a6.138 6.138 0 0 1-2.869.678z" fill="red"/><path d="M12.623 20.954c-.907-.21-1.827-.35-2.756-.35A8.031 8.031 0 0 0 7 21.11V9.676A6.149 6.149 0 0 1 9.865 9c.91 0 1.83.164 2.77.407 0 1.03 0 10.125-.012 11.548z" fill="#262626"/><path d="M17.734 22.446c-.745-.191-1.504-.431-2.281-.678-.928-.293-1.872-.593-2.83-.814 0-1.17 0-9.83.011-11.548.74.19 1.494.43 2.266.675.933.296 1.883.598 2.847.82 0 .984 0 10.261-.013 11.545z" fill="#FFD531"/><path d="M20.486 22.847c-.905 0-1.819-.162-2.752-.401.012-1.717.012-9.083.012-11.545.903.209 1.818.348 2.742.348a8.02 8.02 0 0 0 2.867-.508V22.17a6.138 6.138 0 0 1-2.869.678z" fill="red"/><path d="M20.884 9.076c-.318-1.47-1.655-2.576-3.25-2.576a.253.253 0 0 1-.256-.25c0-.138.114-.25.255-.25 1.88 0 3.449 1.33 3.772 3.08l.368-.48a.26.26 0 0 1 .358-.05c.113.083.136.24.052.35l-.767 1a.254.254 0 0 1-.187.1h-.018a.259.259 0 0 1-.18-.073l-1.023-1a.246.246 0 0 1 0-.354.26.26 0 0 1 .361 0l.515.503zM2.35 14.924c.318 1.47 1.654 2.576 3.25 2.576.141 0 .256.112.256.25S5.74 18 5.6 18c-1.88 0-3.448-1.33-3.772-3.08l-.368.48a.26.26 0 0 1-.358.05.247.247 0 0 1-.051-.35l.766-1a.254.254 0 0 1 .187-.1h.018a.26.26 0 0 1 .181.073l1.023 1c.1.098.1.256 0 .354a.26.26 0 0 1-.362 0l-.514-.503z" fill="#29A5FF"/></g></svg>