<svg width="24" height="24" xmlns="http://www.w3.org/2000/svg"><!--Generator: Sketch 50 (54983) - http://www.bohemiancoding.com/sketch--><g fill="none" fill-rule="evenodd"><path d="M24.0036364 10.7483623V2.49135057C24.0036364 1.59635979 23.2488452 1 22.3489019 1h-8.3027027c-.4644869 0-.8709129.01894638-1.1902476.33652375L1.01153657 13.2023693c-.31933472.3175774-.31933472.8372494 0 1.1548268l9.49295033 9.3540972c.3193347.3175774.8418824.3175774 1.1612171 0l11.8444151-11.7792335c.3193347-.3175774.4935173-.7217668.4935173-1.1836975zm-3.6868645-7.44863296c.6676998 0 1.219278.54854273 1.219278 1.21256815 0 .69289609-.5515782 1.24143883-1.219278 1.24143883-.6967303 0-1.2483085-.54854274-1.2483085-1.24143883 0-.66402542.5515782-1.21256815 1.2483085-1.21256815z" fill="#1A96F1" fill-rule="nonzero"/><path d="M20.3167719 2.69344526c1.016065 0 1.828917.80837877 1.828917 1.81885223 0 1.01047347-.812852 1.84772291-1.828917 1.84772291-1.016065 0-1.8579475-.83724944-1.8579475-1.84772291 0-1.01047346.8418825-1.81885223 1.8579475-1.81885223zm0 .92386145c-.5225477 0-.9289738.40418939-.9289738.89499078 0 .51967207.4064261.92386146.9289738.92386146.4935173 0 .8999433-.40418939.8999433-.92386146 0-.49080139-.406426-.89499078-.8999433-.89499078z" fill="#AED4FF" fill-rule="nonzero"/><path fill="#D1ECFF" fill-rule="nonzero" d="M22.3489019 11.0659397l-8.6220374-8.57458913L2.63724059 13.5199467l8.62203741 8.5745891z"/><path d="M5.67803177 14.0910074l3.45283104-3.3343601.60291104.6243326-3.45283104 3.3343602-.60291104-.6243327zm3.03123652 3.1366765l9.10291821-8.79058591.602911.62433266-9.10291817 8.79058595-.60291104-.6243327zm1.51561831 1.5566613l7.5334495-7.2749676.602911.6243326-7.5334495 7.2749677-.602911-.6243327z" fill="#1A96F1"/></g></svg>