<svg xmlns="http://www.w3.org/2000/svg" width="24" height="24" viewBox="0 0 24 24"><g fill="none" fill-rule="evenodd"><path fill="#DDDDEA" d="M24,11.8727977 L24,4 L0,4 L0,21 C1.3527075e-16,22.1045695 0.8954305,23 2,23 L10.3426655,23 C8.30366681,21.3500445 7,18.8272662 7,16 C7,11.029437 11.029437,7 16,7 C19.4829315,7 22.5037731,8.97844085 24,11.8727977 Z"/><path fill="#AED4FF" d="M16,24 C20.4182782,24 24,20.4182782 24,16 C24,11.5817218 20.4182782,8 16,8 C11.5817218,8 8,11.5817218 8,16 C8,20.4182782 11.5817218,24 16,24 Z"/><path fill="#7A71BB" d="M1.50130749,2 C0.672158257,2 0,2.66579723 0,3.5 L0,5 L24,5 L24,3.5 C24,2.67157288 23.3330537,2 22.4986925,2 L1.50130749,2 Z"/><path fill="#FFFFFF" d="M2.5,4 C2.22385763,4 2,3.77614237 2,3.5 C2,3.22385763 2.22385763,3 2.5,3 C2.77614237,3 3,3.22385763 3,3.5 C3,3.77614237 2.77614237,4 2.5,4 Z M21.5,4 C21.2238576,4 21,3.77614237 21,3.5 C21,3.22385763 21.2238576,3 21.5,3 C21.7761424,3 22,3.22385763 22,3.5 C22,3.77614237 21.7761424,4 21.5,4 Z"/><path fill="#262626" d="M15.5807246,17.1972464 L15.7324928,17.2571884 L15.8294203,17.2897101 L15.9512174,17.2871594 L16.0723768,17.2795072 L16.1673913,17.239971 L16.3121449,17.1685507 C16.592087,16.9555652 18.8488406,15.2370145 20.9991014,12.7972464 C18.6205507,13.9565507 16.6845507,15.3103478 15.8944638,15.89 C15.1821739,15.4551014 13.6134783,14.568087 11.6385797,13.8972464 C13.4368406,15.8147536 15.2848406,17.0065797 15.5807246,17.1972464 Z"/></g></svg>