<svg width="24" height="24" viewBox="0 0 24 24" xmlns="http://www.w3.org/2000/svg"><title>s/search_dark/search_dark_24x24</title><g fill="none" fill-rule="evenodd"><path d="M0 0h24v24H0z"/><path d="M15.836 16.738c-1.544 1.126-3.45 1.79-5.512 1.79C5.174 18.53 1 14.382 1 9.266 1 4.148 5.175 0 10.324 0c5.15 0 9.324 4.148 9.324 9.265 0 2.55-1.036 4.858-2.713 6.533l5.74 6.654c.26.303.244.758-.04 1.04-.262.26-.684.26-.943-.002l-.03-.033-5.826-6.72zM2.533 9.265c0 4.293 3.494 7.764 7.79 7.764 4.298 0 7.792-3.472 7.792-7.765 0-4.294-3.494-7.765-7.79-7.765-4.298 0-7.792 3.47-7.792 7.765z" fill="#262626" fill-rule="nonzero"/></g></svg>