<svg width="16" height="16" viewBox="0 0 16 16" xmlns="http://www.w3.org/2000/svg"><title>s/search_dark/search_dark_16x16</title><path d="M7.08 12.353C3.724 12.353 1 9.588 1 6.176 1 2.766 3.723 0 7.08 0c3.36 0 6.082 2.765 6.082 6.176 0 1.7-.676 3.24-1.77 4.356l3.75 4.445c.17.2.163.494-.016.686-.154.165-.413.174-.578.02l-.032-.033-3.842-4.49c-1.006.75-2.25 1.193-3.593 1.193zM2 6.176c0 2.863 2.278 5.177 5.08 5.177 2.804 0 5.082-2.314 5.082-5.177C12.162 3.314 9.884 1 7.082 1 4.277 1 2 3.314 2 6.176z" fill-rule="nonzero" fill="#262626"/></svg>