<svg width="24" height="24" viewBox="0 0 24 24" fill="none" xmlns="http://www.w3.org/2000/svg">
<path fill-rule="evenodd" clip-rule="evenodd" d="M0 4V21C0 22.1046 0.89543 23 2 23H22C23.1046 23 24 22.1046 24 21V4H0Z" fill="#DDDDEA"/>
<path fill-rule="evenodd" clip-rule="evenodd" d="M7.94072 12.158V13.558C8.18339 13.558 8.43772 13.565 8.70372 13.579C8.96972 13.593 9.21472 13.6443 9.43872 13.733C9.66272 13.8217 9.84705 13.964 9.99172 14.16C10.1364 14.356 10.2087 14.6407 10.2087 15.014C10.2087 15.49 10.0547 15.8657 9.74672 16.141C9.43872 16.4163 9.06072 16.554 8.61272 16.554C8.32338 16.554 8.07372 16.5027 7.86372 16.4C7.65372 16.2973 7.47872 16.1597 7.33872 15.987C7.19872 15.8143 7.09138 15.609 7.01672 15.371C6.94205 15.133 6.90005 14.8833 6.89072 14.622H5.00072C4.99138 15.1913 5.07305 15.6953 5.24572 16.134C5.41839 16.5727 5.66338 16.9437 5.98072 17.247C6.29805 17.5503 6.68305 17.7813 7.13572 17.94C7.58839 18.0987 8.09005 18.178 8.64072 18.178C9.11672 18.178 9.57405 18.108 10.0127 17.968C10.4514 17.828 10.8387 17.6227 11.1747 17.352C11.5107 17.0813 11.779 16.7453 11.9797 16.344C12.1804 15.9427 12.2807 15.4853 12.2807 14.972C12.2807 14.412 12.1267 13.9313 11.8187 13.53C11.5107 13.1287 11.0861 12.8673 10.5447 12.746V12.718C11.0021 12.5873 11.3451 12.34 11.5737 11.976C11.8024 11.612 11.9167 11.192 11.9167 10.716C11.9167 10.2773 11.8187 9.89 11.6227 9.554C11.4267 9.218 11.1724 8.93333 10.8597 8.7C10.547 8.46667 10.1947 8.29167 9.80272 8.175C9.41072 8.05833 9.01872 8 8.62672 8C8.12272 8 7.66539 8.08167 7.25472 8.245C6.84405 8.40833 6.49172 8.63933 6.19772 8.938C5.90372 9.23667 5.67505 9.59366 5.51172 10.009C5.34838 10.4243 5.25738 10.884 5.23872 11.388H7.12872C7.11938 10.884 7.24305 10.4663 7.49972 10.135C7.75639 9.80367 8.13672 9.638 8.64072 9.638C9.00472 9.638 9.32672 9.75 9.60672 9.974C9.88672 10.198 10.0267 10.52 10.0267 10.94C10.0267 11.22 9.95905 11.444 9.82372 11.612C9.68838 11.78 9.51572 11.9083 9.30572 11.997C9.09572 12.0857 8.86939 12.1393 8.62672 12.158C8.38405 12.1767 8.15539 12.1767 7.94072 12.158ZM18.0207 17.996V8.196H16.4387C16.3827 8.56934 16.2661 8.882 16.0887 9.134C15.9114 9.386 15.6944 9.589 15.4377 9.743C15.1811 9.897 14.8917 10.0043 14.5697 10.065C14.2477 10.1257 13.9141 10.1513 13.5687 10.142V11.64H16.0327V17.996H18.0207Z" fill="#FF520E"/>
<path fill-rule="evenodd" clip-rule="evenodd" d="M1.50131 2C0.672158 2 0 2.6658 0 3.5V5H24V3.5C24 2.67157 23.3331 2 22.4987 2H1.50131Z" fill="#7A71BB"/>
<path fill-rule="evenodd" clip-rule="evenodd" d="M3 3.5C3 3.77614 2.77614 4 2.5 4C2.22386 4 2 3.77614 2 3.5C2 3.22386 2.22386 3 2.5 3C2.77614 3 3 3.22386 3 3.5ZM22 3.5C22 3.77614 21.7761 4 21.5 4C21.2239 4 21 3.77614 21 3.5C21 3.22386 21.2239 3 21.5 3C21.7761 3 22 3.22386 22 3.5Z" fill="white"/>
</svg>
