<?xml version="1.0" encoding="UTF-8"?><svg xmlns="http://www.w3.org/2000/svg" width="24" height="24" viewBox="0 0 24 24" xmlns:xlink="http://www.w3.org/1999/xlink"><title>p/pencil3/pencil3_24x24</title><defs><path id="a" d="M11.297 6.822L7.26 2.785 3.013 7.033 7.05 11.07z"/><path id="b" d="M15.137 19.158l8.014 3.765-3.765-8.013z"/></defs><g fill="none" fill-rule="evenodd"><path d="M0 0h24v24H0z"/><use fill="#FFF" xlink:href="#a"/><path stroke="#979797" stroke-opacity=".63" stroke-width=".5" d="M10.943 6.822L7.26 3.14 3.366 7.032l3.683 3.683 3.893-3.894z"/><path fill="#57D31A" d="M9.28 4.804L5.03 9.05 15.138 19.16l4.248-4.248"/><use fill="#FEC98F" xlink:href="#b"/><path stroke="#BF830E" stroke-opacity=".2" stroke-width=".5" d="M15.565 19.083l7.064 3.32-3.32-7.065-3.745 3.745z"/><path fill="#414141" d="M19.346 21.135l3.805 1.788-1.796-3.822"/><path fill="#F00" d="M7.926 3.45L6.012 1.538c-.78-.78-2.047-.78-2.828 0l-1.42 1.42c-.78.78-.78 2.047 0 2.828L3.678 7.7l4.248-4.25z"/></g></svg>