<svg xmlns="http://www.w3.org/2000/svg" width="24" height="24" viewBox="0 0 24 24">
  <g fill="none" fill-rule="evenodd">
    <polygon fill="#ECF0F4" fill-rule="nonzero" points="1.5 3 22.5 3 22.5 16.304 1.5 16.304"/>
    <path fill="#B5C0CB" fill-rule="nonzero" d="M1.5,3 L22.5,3 L22.5,3.7826087 L1.5,3.7826087 L1.5,3 Z M1.5,4.56521739 L22.5,4.56521739 L22.5,5.34782609 L1.5,5.34782609 L1.5,4.56521739 Z M1.5,6.13043478 L22.5,6.13043478 L22.5,6.91304348 L1.5,6.91304348 L1.5,6.13043478 Z M1.5,7.69565217 L22.5,7.69565217 L22.5,8.47826087 L1.5,8.47826087 L1.5,7.69565217 Z M1.5,9.26086957 L22.5,9.26086957 L22.5,10.0434783 L1.5,10.0434783 L1.5,9.26086957 Z M1.5,10.826087 L22.5,10.826087 L22.5,11.6086957 L1.5,11.6086957 L1.5,10.826087 Z M1.5,12.3913043 L22.5,12.3913043 L22.5,13.173913 L1.5,13.173913 L1.5,12.3913043 Z M1.5,13.9565217 L22.5,13.9565217 L22.5,14.7391304 L1.5,14.7391304 L1.5,13.9565217 Z"/>
    <path fill="#717F8F" fill-rule="nonzero" d="M0,10.0434783 L1.6875,10.0434783 C2.53125,10.0434783 3.234375,10.4836957 3.65625,11.2173913 L5.34375,14.3478261 C5.765625,15.0815217 6.46875,15.5217391 7.3125,15.5217391 L16.6875,15.5217391 C17.53125,15.5217391 18.234375,15.0815217 18.65625,14.3478261 L20.34375,11.2173913 C20.765625,10.4836957 21.46875,10.0434783 22.3125,10.0434783 L24,10.0434783 L24,21 L0,21 L0,10.0434783 Z"/>
    <polygon fill="#516072" fill-rule="nonzero" points="0 20.217 24 20.217 24 21 0 21"/>
  </g>
</svg>
