<svg width="16" height="16" viewBox="0 0 16 16" xmlns="http://www.w3.org/2000/svg"><title>s/search_light/search_light_16x16</title><g fill="none" fill-rule="evenodd"><path d="M0 0h16v16H0z"/><path d="M10.676 11.16c-1.007.75-2.25 1.193-3.595 1.193C3.724 12.353 1 9.588 1 6.176 1 2.766 3.723 0 7.08 0c3.36 0 6.082 2.765 6.082 6.176 0 1.7-.676 3.24-1.77 4.356l3.744 4.436c.17.204.16.505-.027.694-.168.17-.44.17-.61.005l-.025-.03-3.8-4.478zM2 6.175c0 2.863 2.278 5.177 5.08 5.177 2.804 0 5.082-2.314 5.082-5.177C12.162 3.314 9.884 1 7.082 1 4.277 1 2 3.314 2 6.176z" fill="#CCC" fill-rule="nonzero"/></g></svg>