<svg width="16" height="16" fill="none" xmlns="http://www.w3.org/2000/svg"><g clip-path="url(#a)"><path d="M16 0H0v16h16V0Z" fill="#fff"/><path d="M10.4 0H0v16h16L10.4 0Z" fill="#15465B"/><path d="M6.7 1.5c.1.1.1.3.1.6 0 .2 0 .4-.1.5-.3.1-.7.2-1.1.2v10.1h4.6c.1-.5.1-.9.2-1.3.1 0 .3-.1.5-.1.3 0 .5 0 .6.1 0 .1.1.7.1 1.2v1.4H4.3c-.6 0-1.2 0-1.2-.1-.1.1-.1-.2-.1-.5 0-.2 0-.4.1-.5.3-.1.6-.1 1-.2V2.8c-.4 0-.7-.1-1-.2-.1-.1-.1-.3-.1-.5 0-.3 0-.5.1-.6.1 0 .7-.1 1.2-.1h1.1c.6.1 1.2.1 1.3.1Z" fill="#fff"/></g><defs><clipPath id="a"><path fill="#fff" d="M0 0h16v16H0z"/></clipPath></defs></svg>