<?xml version="1.0" encoding="UTF-8"?><svg xmlns="http://www.w3.org/2000/svg" width="16" height="16" viewBox="0 0 16 16" xmlns:xlink="http://www.w3.org/1999/xlink"><title>g/garbage/garbage_16x16</title><defs><path id="a" d="M1 1l.938 14.067c.035.525.47.933.998.933h9.128c.527 0 .963-.408.998-.933L14 1H1z"/></defs><g fill="none" fill-rule="evenodd"><path d="M0 0h24v24H0z"/><path d="M0 0h16v16H0z"/><use fill="#DDDDEA" xlink:href="#a"/><path stroke="#7A79A9" stroke-opacity=".2" stroke-width=".25" d="M1.134 1.125l.928 13.933c.03.46.413.817.874.817h9.128c.46 0 .843-.357.874-.817l.928-13.933H1.134z"/><path fill="#5B597F" d="M7.5 5c.166 0 .3.134.3.3v7.4c0 .166-.134.3-.3.3-.166 0-.3-.134-.3-.3V5.3c0-.166.134-.3.3-.3z"/><path fill="#5B597F" d="M10.7 5c.166 0 .3.134.3.3v7.4c0 .166-.134.3-.3.3-.166 0-.3-.134-.3-.3V5.3c0-.166.134-.3.3-.3z"/><path fill="#5B597F" d="M4.3 5c.166 0 .3.134.3.3v7.4c0 .166-.134.3-.3.3-.166 0-.3-.134-.3-.3V5.3c0-.166.134-.3.3-.3z"/><path fill="#737373" d="M1 1h3.652V.5c0-.276.224-.5.5-.5h4.696c.276 0 .5.224.5.5V1H14c.552 0 1 .448 1 1v1H0V2c0-.552.448-1 1-1z"/></g></svg>
