<?xml version="1.0" encoding="UTF-8"?><svg xmlns="http://www.w3.org/2000/svg" width="24" height="24" viewBox="0 0 24 24" xmlns:xlink="http://www.w3.org/1999/xlink"><title>g/garbage/garbage_24x24</title><defs><path id="a" d="M3 3l.91 19.01c.05 1.1.983 1.99 2.082 1.99h11.016c1.1 0 2.032-.89 2.083-1.99L20 3H3z"/></defs><g fill="none" fill-rule="evenodd"><path d="M0 0h24v24H0z"/><use fill="#DDDDEA" xlink:href="#a"/><path stroke="#7A79A9" stroke-opacity=".2" stroke-width=".5" d="M3.262 3.25l.897 18.747c.04.966.864 1.753 1.83 1.753h11.015c.967 0 1.79-.785 1.833-1.753l.9-18.747H3.26z"/><path fill="#5B597F" fill-rule="nonzero" d="M15 7.5v12c0 .276.224.5.5.5s.5-.224.5-.5v-12c0-.276-.224-.5-.5-.5s-.5.224-.5.5z"/><path fill="#5B597F" fill-rule="nonzero" d="M11 7.5v12c0 .276.224.5.5.5s.5-.224.5-.5v-12c0-.276-.224-.5-.5-.5s-.5.224-.5.5z"/><path fill="#5B597F" fill-rule="nonzero" d="M7 7.5v12c0 .276.224.5.5.5s.5-.224.5-.5v-12c0-.276-.224-.5-.5-.5s-.5.224-.5.5z"/><path fill="#737373" d="M3 2h4v-.5c0-.268.228-.5.51-.5h7.98c.288 0 .51.224.51.5V2h4c.556 0 1 .448 1 1v1H2V3c0-.556.448-1 1-1z"/></g></svg>
