<svg width="128" height="128" viewBox="0 0 128 128" xmlns="http://www.w3.org/2000/svg" xmlns:xlink="http://www.w3.org/1999/xlink"><title>g/garbage/garbage_128x128</title><defs><path d="M20 11l4.553 103.8c.25 5.705 4.947 10.2 10.656 10.2h58.58c5.71 0 10.407-4.495 10.657-10.2L109 11H20z" id="a"/></defs><g fill="none" fill-rule="evenodd"><path d="M0 0h128v128H0z"/><use fill="#DDDDEA" xlink:href="#a"/><path stroke-opacity=".2" stroke="#7A79A9" d="M20.522 11.5l4.53 103.28c.24 5.435 4.715 9.72 10.157 9.72h58.58c5.443 0 9.92-4.285 10.158-9.72l4.53-103.28H20.522z"/><path d="M14 12.333C14 9.388 16.388 7 19.333 7H41V4.667C41 3.194 42.194 2 43.667 2h41.666C86.806 2 88 3.194 88 4.667V7h21.667C112.612 7 115 9.388 115 12.333V22H14v-9.667z" fill="#868686"/><path d="M44.5 34c1.38 0 2.5 1.12 2.5 2.5v65c0 1.38-1.12 2.5-2.5 2.5s-2.5-1.12-2.5-2.5v-65c0-1.38 1.12-2.5 2.5-2.5zM64.5 34c1.38 0 2.5 1.12 2.5 2.5v65c0 1.38-1.12 2.5-2.5 2.5s-2.5-1.12-2.5-2.5v-65c0-1.38 1.12-2.5 2.5-2.5zM84.5 34c1.38 0 2.5 1.12 2.5 2.5v65c0 1.38-1.12 2.5-2.5 2.5s-2.5-1.12-2.5-2.5v-65c0-1.38 1.12-2.5 2.5-2.5z" fill="#5B597F"/></g></svg>