<?xml version="1.0" encoding="UTF-8" standalone="no"?>
<svg width="16px" height="16px" viewBox="0 0 16 16" version="1.1" xmlns="http://www.w3.org/2000/svg" xmlns:xlink="http://www.w3.org/1999/xlink">
    <!-- Generator: Sketch 43.2 (39069) - http://www.bohemiancoding.com/sketch -->
    <title>list_darkgrey_ic_action_16x16</title>
    <desc>Created with Sketch.</desc>
    <defs></defs>
    <g id="Action-icons" stroke="none" stroke-width="1" fill="none" fill-rule="evenodd">
        <g transform="translate(-70.000000, -917.000000)" id="list_darkgrey_ic_action_16x16" fill-rule="nonzero" fill="#868686">
            <g transform="translate(70.000000, 920.000000)">
                <g id="Group">
                    <path d="M0,6 L2,6 L2,4 L0,4 L0,6 Z M0,10 L2,10 L2,8 L0,8 L0,10 Z M0,2 L2,2 L2,0 L0,0 L0,2 Z M4,6 L16,6 L16,4 L4,4 L4,6 Z M4,10 L16,10 L16,8 L4,8 L4,10 Z M4,0 L4,2 L16,2 L16,0 L4,0 Z" id="Shape"></path>
                </g>
            </g>
        </g>
    </g>
</svg>