<?xml version="1.0" encoding="UTF-8" standalone="no"?>
<svg width="16px" height="16px" viewBox="0 0 16 16" version="1.1" xmlns="http://www.w3.org/2000/svg" xmlns:xlink="http://www.w3.org/1999/xlink">
    <!-- Generator: Sketch 43.2 (39069) - http://www.bohemiancoding.com/sketch -->
    <title>cut_blue_ic_action_16x16</title>
    <desc>Created with Sketch.</desc>
    <defs></defs>
    <g id="Action-icons" stroke="none" stroke-width="1" fill="none" fill-rule="evenodd">
        <g transform="translate(-19.000000, -168.000000)" id="cut_ic_action_16-copy">
            <g transform="translate(19.000000, 168.000000)">
                <circle id="Oval" cx="3.2" cy="12.8" r="1.6"></circle>
                <circle id="Oval" cx="8" cy="8" r="1"></circle>
                <circle id="Oval" cx="3.2" cy="3.2" r="1.6"></circle>
                <path d="M6.112,4.512 C6.296,4.112 6.4,3.672 6.4,3.2 C6.4,1.432 4.968,0 3.2,0 C1.432,0 0,1.432 0,3.2 C0,4.968 1.432,6.4 3.2,6.4 C3.672,6.4 4.112,6.296 4.512,6.112 L6.4,8 L4.512,9.888 C4.112,9.704 3.672,9.6 3.2,9.6 C1.432,9.6 0,11.032 0,12.8 C0,14.568 1.432,16 3.2,16 C4.968,16 6.4,14.568 6.4,12.8 C6.4,12.328 6.296,11.888 6.112,11.488 L8,9.6 L13.6,15.2 L16,15.2 L16,14.4 L6.112,4.512 Z M3.2,4.8 C2.32,4.8 1.6,4.088 1.6,3.2 C1.6,2.312 2.32,1.6 3.2,1.6 C4.08,1.6 4.8,2.312 4.8,3.2 C4.8,4.088 4.08,4.8 3.2,4.8 Z M3.2,14.4 C2.32,14.4 1.6,13.688 1.6,12.8 C1.6,11.912 2.32,11.2 3.2,11.2 C4.08,11.2 4.8,11.912 4.8,12.8 C4.8,13.688 4.08,14.4 3.2,14.4 Z M8,8.4 C7.776,8.4 7.6,8.224 7.6,8 C7.6,7.776 7.776,7.6 8,7.6 C8.224,7.6 8.4,7.776 8.4,8 C8.4,8.224 8.224,8.4 8,8.4 Z M13.6,0.8 L8.8,5.6 L10.4,7.2 L16,1.6 L16,0.8 L13.6,0.8 Z" id="Shape" fill="#4789F5" fill-rule="nonzero"></path>
            </g>
        </g>
    </g>
</svg>