<?xml version="1.0" encoding="UTF-8"?><svg xmlns="http://www.w3.org/2000/svg" width="16" height="16" viewBox="0 0 16 16"><title>a/add2_ic_action/add2_ic_action_16x16</title><g fill="none" fill-rule="evenodd"><path d="M0 0h16v16H0z"/><path fill="#57D31A" d="M11 5V.243C11 .12 10.885 0 10.742 0H5.258C5.104 0 5 .11 5 .243V5H.243C.12 5 0 5.115 0 5.258v5.484c0 .154.11.258.243.258H5v4.757c0 .122.115.243.258.243h5.484c.154 0 .258-.11.258-.243V11h4.757c.122 0 .243-.115.243-.258V5.258c0-.154-.11-.258-.243-.258H11z"/></g></svg>