<svg width="24" height="24" viewBox="0 0 24 24" fill="none" xmlns="http://www.w3.org/2000/svg">
<g id="w/woman3/woman3_24x24">
<path id="Trui" fill-rule="evenodd" clip-rule="evenodd" d="M21.951 20.814C21.951 18.771 19.1639 18.265 18.343 18.116C17.439 17.916 15.146 17.695 14.527 17.36C14.435 17.522 9.61695 17.326 9.52595 17.36C8.90695 17.498 5.84295 17.916 4.93895 18.116C4.11895 18.265 2.07495 18.903 2.07495 20.814C2.07495 22.725 2.11595 23.839 3.63795 24C5.25395 24.006 19.198 23.982 20.739 24C21.734 23.826 21.951 22.857 21.951 20.814Z" fill="#57D31A"/>
<path id="Mask" fill-rule="evenodd" clip-rule="evenodd" d="M11.9831 21.81C14.4211 21.082 15.5321 18.98 15.5321 16.422C15.5321 15.268 14.6751 16.422 14.6751 13.236C14.6751 10.051 13.0591 11.789 11.9831 11.789C10.9681 11.789 9.40611 10.051 9.40611 13.236C9.40611 16.422 8.43311 15.188 8.43311 16.422C8.43311 18.98 9.45111 21.082 11.9831 21.81Z" fill="#F2B566"/>
<path id="Haar" fill-rule="evenodd" clip-rule="evenodd" d="M15.1498 18.6126C14.7235 20.9322 16.3115 20.3842 15.3491 22.123C16.4609 21.9479 16.6371 19.468 18.8661 19.468C21.0951 19.468 21.7391 21.149 21.9153 21.9176C21.9829 21.417 22.2259 20.6145 21.5562 19.536C21.0855 18.778 18.3167 17.4219 17.6567 15.9879C16.8027 14.1349 17.9061 10.603 17.9861 9.237C18.0671 7.846 18.4321 5.346 17.3991 3.236C16.2771 0.945001 13.4731 0.0450004 12.0341 0.0440004C10.5951 0.0430004 8.0041 0.48 6.7111 3.236C5.7121 5.367 6.0541 7.846 6.1361 9.237C6.2451 11.1 6.75869 13.199 5.77769 15.919C4.79669 18.639 2.10282 18.2932 2.1001 20.6934C2.61032 20.1895 3.5601 19.225 5.0151 19.468C6.4701 19.71 6.6841 21.149 8.0041 21.149C9.2371 21.149 8.8621 17.136 9.2371 15.005C9.4591 13.74 9.36737 13.6858 9.62937 13.6028C9.45337 14.0828 14.5301 14.46 14.3551 13.991C14.5191 14.037 15.4314 17.0803 15.1498 18.6126Z" fill="#9F7403"/>
<path id="Gezicht" fill-rule="evenodd" clip-rule="evenodd" d="M7.76191 5.357C7.05191 6.336 6.62891 7.562 6.62891 8.892C6.62891 12.097 9.07891 14.696 12.1009 14.696C15.1229 14.696 17.5719 12.097 17.5719 8.892C17.5719 7.944 17.3579 7.05 16.9779 6.259C16.7319 5.832 16.4199 5.444 16.0059 5.129C15.1569 4.482 14.6089 4.285 13.0139 4.865C10.2369 5.875 9.25891 4.214 7.76191 5.357Z" fill="#FBBB69"/>
</g>
</svg>
