<svg width="16" height="16" viewBox="0 0 16 16" fill="none" xmlns="http://www.w3.org/2000/svg">
<g id="w/woman3/woman3_16x16">
<path id="Trui" fill-rule="evenodd" clip-rule="evenodd" d="M14.634 13.876C14.634 12.514 12.776 12.1767 12.2286 12.0773C11.626 11.944 10.0973 11.7967 9.68463 11.5733C9.6233 11.6813 6.4113 11.5507 6.35063 11.5733C5.93797 11.6653 3.8953 11.944 3.29263 12.0773C2.74597 12.1767 1.3833 12.602 1.3833 13.876C1.3833 15.15 1.41063 15.8927 2.4253 16C3.50263 16.004 12.7986 15.988 13.826 16C14.4893 15.884 14.634 15.238 14.634 13.876Z" fill="#57D31A"/>
<path id="Mask" fill-rule="evenodd" clip-rule="evenodd" d="M7.98874 14.54C9.61407 14.0547 10.3547 12.6533 10.3547 10.948C10.3547 10.1787 9.7834 10.948 9.7834 8.824C9.7834 6.70067 8.70607 7.85933 7.98874 7.85933C7.31207 7.85933 6.27074 6.70067 6.27074 8.824C6.27074 10.948 5.62207 10.1253 5.62207 10.948C5.62207 12.6533 6.30074 14.0547 7.98874 14.54Z" fill="#F2B566"/>
<path id="Haar" fill-rule="evenodd" clip-rule="evenodd" d="M10.0997 12.4084C9.81552 13.9548 10.8742 13.5895 10.2326 14.7487C10.9738 14.6319 11.0912 12.9787 12.5772 12.9787C14.0632 12.9787 14.4926 14.0993 14.6101 14.6117C14.6551 14.278 14.8171 13.743 14.3706 13.024C14.0568 12.5187 12.211 11.6146 11.771 10.6586C11.2016 9.42324 11.9372 7.06867 11.9906 6.158C12.0446 5.23067 12.2879 3.564 11.5992 2.15733C10.8512 0.63 8.9819 0.03 8.02257 0.0293333C7.06324 0.0286667 5.3359 0.32 4.4739 2.15733C3.8079 3.578 4.0359 5.23067 4.09057 6.158C4.16324 7.4 4.50563 8.79933 3.85163 10.6127C3.19763 12.426 1.40172 12.1955 1.3999 13.7956C1.74005 13.4597 2.37324 12.8167 3.34324 12.9787C4.31324 13.14 4.4559 14.0993 5.3359 14.0993C6.1579 14.0993 5.9079 11.424 6.1579 10.0033C6.3059 9.16 6.24475 9.12386 6.41942 9.06852C6.30208 9.38852 9.68657 9.64 9.5699 9.32733C9.67924 9.358 10.2875 11.3868 10.0997 12.4084Z" fill="#9F7403"/>
<path id="Gezicht" fill-rule="evenodd" clip-rule="evenodd" d="M5.17477 3.57133C4.70143 4.224 4.41943 5.04133 4.41943 5.928C4.41943 8.06467 6.05277 9.79733 8.06743 9.79733C10.0821 9.79733 11.7148 8.06467 11.7148 5.928C11.7148 5.296 11.5721 4.7 11.3188 4.17267C11.1548 3.888 10.9468 3.62933 10.6708 3.41933C10.1048 2.988 9.73943 2.85667 8.6761 3.24333C6.82477 3.91667 6.17277 2.80933 5.17477 3.57133Z" fill="#FBBB69"/>
</g>
</svg>
