<?xml version="1.0" encoding="UTF-8" standalone="no"?>
<svg width="24px" height="24px" viewBox="0 0 24 24" version="1.1" xmlns="http://www.w3.org/2000/svg" xmlns:xlink="http://www.w3.org/1999/xlink">
    <!-- Generator: Sketch 43.2 (39069) - http://www.bohemiancoding.com/sketch -->
    <title>window_settings_24x24</title>
    <desc>Created with Sketch.</desc>
    <defs>
        <path d="M24,2 L0,2 L0,19.21875 C0,20.2008125 0.734181818,21 1.63636364,21 L22.3636364,21 C23.2658182,21 24,20.2008125 24,19.21875 L24,2 Z" id="path-1"></path>
        <path d="M0,1.5 C0,0.671572875 0.666946292,0 1.50130749,0 L22.4986925,0 C23.3278417,0 24,0.665797234 24,1.5 L24,3 L0,3 L0,1.5 Z" id="path-2"></path>
    </defs>
    <g id="16,-24,-32-en-48-svg" stroke="none" stroke-width="1" fill="none" fill-rule="evenodd">
        <g id="window_settings_24" transform="translate(0.000000, 2.000000)">
            <g id="Shape-Copy" fill-rule="nonzero">
                <use fill="#E4E7F5" fill-rule="evenodd" xlink:href="#path-1"></use>
                <path stroke-opacity="0.2" stroke="#6B72A2" stroke-width="0.5" d="M23.75,2.25 L23.75,19.21875 C23.75,20.0672543 23.1227887,20.75 22.3636364,20.75 L1.63636364,20.75 C0.87721134,20.75 0.25,20.0672543 0.25,19.21875 L0.25,2.25 L23.75,2.25 Z"></path>
            </g>
            <g id="Rectangle-55">
                <use fill="#4789F5" fill-rule="evenodd" xlink:href="#path-2"></use>
                <path stroke-opacity="0.2" stroke="#2C65C2" stroke-width="0.5" d="M23.75,2.75 L0.25,2.75 L0.25,1.5 C0.25,0.807755711 0.806903221,0.25 1.50130749,0.25 L22.4986925,0.25 C23.1919698,0.25 23.75,0.806061355 23.75,1.5 L23.75,2.75 Z"></path>
            </g>
            <rect id="Rectangle-3-Copy" fill="#4789F5" x="3" y="5" width="5" height="5"></rect>
            <rect id="Rectangle-3-Copy-6" fill="#4789F5" x="3" y="13" width="5" height="5"></rect>
        </g>
        <rect id="Rectangle-56" fill="#868686" x="12" y="7" width="9" height="1" rx="0.5"></rect>
        <rect id="Rectangle-56-Copy" fill="#868686" x="12" y="11" width="9" height="1" rx="0.5"></rect>
        <rect id="Rectangle-56-Copy-2" fill="#868686" x="12" y="15" width="9" height="1" rx="0.5"></rect>
        <rect id="Rectangle-56-Copy-3" fill="#868686" x="12" y="19" width="9" height="1" rx="0.5"></rect>
    </g>
</svg>