<svg width="64" height="64" viewBox="0 0 64 64" fill="none" xmlns="http://www.w3.org/2000/svg">
<g id="m/mime_img_tif/mime_img_tif_64x64">
<g id="64/baseshape">
<g id="64/baseshape_2">
<path id="OutsideBorder" d="M58 60C58 61.1046 57.1046 62 56 62H15C13.8954 62 13 61.1046 13 60V4C13 2.89543 13.8954 2 15 2H44L58 17V60Z" fill="#ECF0F4"/>
</g>
<g id="flower">
<path id="Shape" d="M36.732 32.2774C37.6453 30.4336 38.6667 27.8229 38.6667 25.3636C38.6667 20.9185 37.1747 20 35.3333 20C33.492 20 32 20.9185 32 25.3636C32 27.8229 33.0227 30.4336 33.9347 32.2774C34.3827 32.154 34.8467 32.0682 35.3333 32.0682C35.82 32.0682 36.284 32.1553 36.732 32.2774Z" fill="#FF0000"/>
<path id="Shape_2" d="M33.9347 42.5863C33.0213 44.4273 32 47.0381 32 49.5C32 53.9424 33.492 54.8636 35.3333 54.8636C37.1747 54.8636 38.6667 53.9411 38.6667 49.5C38.6667 47.0381 37.644 44.4273 36.732 42.5863C36.284 42.7083 35.82 42.7955 35.3333 42.7955C34.8467 42.7955 34.3827 42.7083 33.9347 42.5863Z" fill="#9559CD"/>
<path id="Shape_3" fill-rule="evenodd" clip-rule="evenodd" d="M32.6984 32.7936C32.0491 30.8426 30.9358 28.268 29.2051 26.5262C26.0811 23.3858 24.3784 23.7948 23.0758 25.1035C21.7731 26.4136 21.3664 28.1259 24.4904 31.269C26.2211 33.0082 28.7811 34.1292 30.7224 34.7808C31.1944 33.9508 31.8731 33.271 32.6984 32.7936Z" fill="#FF7100"/>
<path id="Shape_4" d="M37.9678 42.07C38.6184 44.021 39.7318 46.5956 41.4624 48.3347C44.5864 51.4778 46.2878 51.0662 47.5904 49.7574C48.8931 48.4474 49.2998 46.7377 46.1758 43.5946C44.4451 41.8528 41.8864 40.7345 39.9451 40.0801C39.4718 40.9101 38.7931 41.5927 37.9678 42.07Z" fill="#1A96F1"/>
<path id="Shape_5" fill-rule="evenodd" clip-rule="evenodd" d="M30.2093 36.0252C28.376 35.1053 25.78 34.0795 23.3333 34.0795C18.9147 34.0795 18 35.58 18 37.4318C18 39.2836 18.9147 40.7841 23.3333 40.7841C25.78 40.7841 28.376 39.7543 30.2093 38.8384C30.0867 38.3879 30 37.9212 30 37.4318C30 36.9424 30.0867 36.4757 30.2093 36.0252Z" fill="#91A0AF"/>
<path id="Shape_6" d="M40.4585 38.8384C42.2905 39.7556 44.8865 40.7841 47.3332 40.7841C51.7505 40.7841 52.6665 39.2836 52.6665 37.4318C52.6665 35.58 51.7505 34.0795 47.3332 34.0795C44.8865 34.0795 42.2905 35.1067 40.4585 36.0252C40.5812 36.4757 40.6665 36.9424 40.6665 37.4318C40.6665 37.9212 40.5798 38.3879 40.4585 38.8384Z" fill="#57D31A"/>
<path id="Shape_7" d="M30.7229 40.0801C28.7815 40.7345 26.2215 41.8528 24.4909 43.5946C21.3669 46.7377 21.7749 48.4474 23.0762 49.7574C24.3789 51.0675 26.0802 51.4778 29.2055 48.3347C30.9362 46.5956 32.0495 44.021 32.6989 42.07C31.8735 41.5927 31.1949 40.9101 30.7229 40.0801Z" fill="#FF0097"/>
<path id="Shape_8" d="M39.9451 34.7808C41.8851 34.1265 44.4451 33.0082 46.1758 31.269C49.2998 28.1259 48.8918 26.4136 47.5904 25.1035C46.2878 23.7934 44.5864 23.3858 41.4624 26.5262C39.7304 28.268 38.6184 30.8426 37.9678 32.7936C38.7931 33.2683 39.4718 33.9508 39.9451 34.7808Z" fill="#F6B701"/>
</g>
</g>
<g id="64/corner">
<path id="InsideWhite" fill-rule="evenodd" clip-rule="evenodd" d="M44 17V2L58 17H44Z" fill="#D8E0E8"/>
</g>
<g id="64/chard/color/yellow">
<path id="Shape_9" d="M14 19V56L32 59V16L14 19Z" fill="#ECF0F4"/>
<path id="Chard" d="M30 18.4318V56.6364L6 53V22L30 18.4318Z" fill="#E6007E"/>
</g>
<g id="64/chard/letter/a">
<path id="T" fill-rule="evenodd" clip-rule="evenodd" d="M16.152 46V32.608H11.04V29.2H24.96V32.608H19.848V46H16.152Z" fill="white"/>
</g>
</g>
</svg>
