<svg xmlns="http://www.w3.org/2000/svg" width="16" height="16" viewBox="0 0 16 16"><g fill="none" fill-rule="evenodd"><path fill="#1A96F1" d="M0.799188852,0 L13.0909091,0 L16,2.83333333 L16,15.1961862 C16,15.6478235 15.6447637,16 15.2065575,16 L0.793442488,16 C0.364244461,16 0,15.6447637 0,15.2065575 L0,0.793442488 C0,0.364244461 0.357809037,0 0.799188852,0 Z"/><rect width="1" height="2" x="1" y="13" fill="#0D6FE0"/><path fill="#DDDDEA" d="M3,9.81890647 C3,9.65592893 3.14136314,9.52380952 3.29928014,9.52380952 L12.7007199,9.52380952 C12.8660077,9.52380952 13,9.65907397 13,9.81890647 L13,16 L3,16 L3,9.81890647 Z"/><path fill="#FFFFFF" d="M3,0.25 L13,0.25 L13,6.28999996 L3,6.28999996 L3,0.25 Z M8,1 L8,5 L11,5 L11,1 L8,1 Z"/></g></svg>