<svg xmlns="http://www.w3.org/2000/svg" width="24" height="24" viewBox="0 0 24 24"><g fill="none" fill-rule="evenodd"><path fill="#1A96F1" d="M2.99898607,2 L18.3636364,2 L22,5.33333333 L22,21.0073363 C22,21.5542069 21.5559546,22 21.0081969,22 L2.99180311,22 C2.45530558,22 2,21.5559546 2,21.0081969 L2,2.99180311 C2,2.45530558 2.4472613,2 2.99898607,2 Z"/><rect width="1" height="2" x="3" y="19" fill="#0D6FE0"/><path fill="#DDDDEA" d="M5,14.5004358 C5,14.2240528 5.22563934,14 5.49374104,14 L17.506259,14 C17.7789446,14 18,14.2307968 18,14.5004358 L18,22 L5,22 L5,14.5004358 Z"/><path fill="#FFFFFF" d="M5,2.5 L18,2.5 L18,10 L5,10 L5,2.5 Z M12,4 L12,8 L16,8 L16,4 L12,4 Z"/></g></svg>