<?xml version="1.0" encoding="UTF-8"?><svg xmlns="http://www.w3.org/2000/svg" width="16" height="16" viewBox="0 0 16 16"><title>p/paperclip_blue_ic_action/paperclip_blue_ic_action_16x16</title><g fill="none" fill-rule="evenodd"><path d="M0 0h16v16H0z"/><path fill="#4789F5" fill-rule="nonzero" d="M7.5 16C4.46 16 2 13.54 2 10.5V4c0-2.21 1.79-4 4-4s4 1.79 4 4v6.5c0 1.38-1.12 2.5-2.5 2.5S5 11.88 5 10.5V6c0-.552.448-1 1-1s1 .448 1 1v4.59c0 .55 1 .55 1 0V4c0-1.1-.9-2-2-2s-2 .9-2 2v6.5C4 12.43 5.57 14 7.5 14s3.5-1.57 3.5-3.5V4c0-.552.448-1 1-1s1 .448 1 1v6.5c0 3.04-2.46 5.5-5.5 5.5z"/></g></svg>