<?xml version="1.0" encoding="UTF-8" standalone="no"?>
<svg width="16px" height="16px" viewBox="0 0 16 16" version="1.1" xmlns="http://www.w3.org/2000/svg" xmlns:xlink="http://www.w3.org/1999/xlink">
    <!-- Generator: Sketch 43.2 (39069) - http://www.bohemiancoding.com/sketch -->
    <title>copy_ic_action_16x16</title>
    <desc>Created with Sketch.</desc>
    <defs></defs>
    <g id="Action-icons" stroke="none" stroke-width="1" fill="none" fill-rule="evenodd">
        <g transform="translate(-70.000000, -218.000000)" id="copy_ic_action_16" fill-rule="nonzero" fill="#868686">
            <g transform="translate(71.000000, 218.000000)">
                <path d="M13,4 L5,4 C4.66,4 4,4.65 4,5 L4,15 C4,15.35 4.66,16 5,16 L13,16 C13.34,16 14,15.35 14,15 L14,5 C14,4.65 13.34,4 13,4 Z M12,14 L6,14 L6,6 L12,6 L12,14 Z M10,8.8817842e-16 L10,2 L2,2 L2,12 L0,12 L0,2 C0,0.675 0.642857143,8.8817842e-16 1,8.8817842e-16 L10,8.8817842e-16 Z" id="Shape"></path>
            </g>
        </g>
    </g>
</svg>