<svg width="16" height="16" xmlns="http://www.w3.org/2000/svg"><g fill="none" fill-rule="evenodd"><path fill="#DDDDEA" d="M8.05456543 2L2 8.01206462v7.99999998h12V8.01206462z"/><path d="M.56186206 8.57375463l.19764151.19764151c.25984949.25984949.68097197.26042158.9415265.00127906l6.3548849-6.32044603 6.24423353 6.31292185c.2589215.26176973.6810252.26407866.9427949.00515714l.0025856-.00257152.1970591-.19705902c.2584938-.25849386.260605-.67693945.0047326-.93802843L8.05591497.09055213.56041144 7.63240068c-.25898046.26058175-.25833171.68157162.00145062.94135395z" fill="red"/><path d="M6.98387191 12.2712116l-1.15183463-1.1960043c-.26765386-.2779177-.69819856-.2781635-.96578652.0038115-.26573531.2800227-.26764575.7287241.00347385 1.0102404l1.63980274 1.7026847c.26765386.2779177.69819855.2781634.96578652-.0038115.01892874-.0199465.03651886-.0407488.05276701-.0622856l4.27342732-4.50319034c.2645601-.2787843.26546-.72983462-.0021279-1.01180959-.2657353-.2800227-.6951925-.28148206-.9601848-.00224232L6.98387191 12.2712116z" fill="#717F8F"/></g></svg>