<svg width="24" height="24" xmlns="http://www.w3.org/2000/svg"><g fill="none" fill-rule="evenodd"><path fill="#DDDDEA" d="M12.0818481 3L3 12.0180969v12h18v-12z"/><path d="M.84279309 12.8606319l.29646227.2964623c.38977422.3897742 1.02145795.3906324 1.41228975.0019186l9.53232739-9.48066904 9.3663502 9.46938274c.3883823.3926546 1.0215378.396118 1.4141924.0077357l.0038785-.0038572.2955885-.2955886c.3877408-.3877408.3909076-1.0154091.0070989-1.4070426L12.0838725.1358282.84061716 11.448601c-.38847068.3908726-.38749757 1.0223574.00217593 1.4120309z" fill="red"/><path d="M10.4758079 18.4068174l-1.72775198-1.7940065c-.40148079-.4168765-1.04729784-.4172452-1.44867978.0057173-.39860296.4200341-.40146863 1.0930861.00521078 1.5153606l2.4597041 2.554027c.40148078.4168765 1.04729788.4172452 1.44867978-.0057172.0283931-.0299197.0547783-.0611232.0791505-.0934284l6.410141-6.7547855c.3968401-.4181765.39819-1.0947519-.0031919-1.5177144-.398603-.420034-1.0427887-.4222231-1.4402771-.0033635l-5.7829854 6.0939106z" fill="#717F8F"/></g></svg>