<?xml version="1.0" encoding="UTF-8" standalone="no"?><!DOCTYPE svg PUBLIC "-//W3C//DTD SVG 1.1//EN" "http://www.w3.org/Graphics/SVG/1.1/DTD/svg11.dtd"><svg width="16px" height="16px" viewBox="0 0 16 16" version="1.1" xmlns="http://www.w3.org/2000/svg" xmlns:xlink="http://www.w3.org/1999/xlink" xml:space="preserve" style="fill-rule:evenodd;clip-rule:evenodd;stroke-linejoin:round;stroke-miterlimit:1.41421;"><path id="Combined-Shape" d="M6.4,2l1.6,2l6.4,0c0.88,0 1.6,0.699 1.6,1.593l0,7.782c0,0.894 -0.72,1.625 -1.6,1.625l-12.8,0c-0.88,0 -1.6,-0.731 -1.6,-1.625l0.008,-9.75c0,-0.894 0.712,-1.625 1.592,-1.625l4.8,0Zm5,8.063l0,-1.626l-2.4,0l0,-2.437l-1.6,0l0,2.437l-2.4,0l0,1.625l2.4,0l0,2.438l1.6,0l0,-2.438l2.4,0Z" style="fill:#868686;fill-rule:nonzero;"/></svg>