<svg xmlns="http://www.w3.org/2000/svg" width="16" height="16" viewBox="0 0 16 16">
  <g fill="none" fill-rule="evenodd">
    <path fill="#FBBC05" d="M1.24767507,11.5447488 C0.733065527,10.4778257 0.444444444,9.27495267 0.444444444,8 C0.444444444,6.72504733 0.733065527,5.52217426 1.24767507,4.45525122 L3.88619367,6.51281723 C3.73532616,6.98010795 3.65374677,7.4800136 3.65374677,8 C3.65374677,8.5199864 3.73532616,9.01989205 3.88619367,9.48718277 L1.24767507,11.5447488 Z"/>
    <path fill="#EA4335" d="M8.28940568,0 C10.2863049,0 12.0692506,0.763636364 13.4599483,2 L11.1777778,4.32727273 C10.3932817,3.67272727 9.39483204,3.27272727 8.28940568,3.27272727 C6.23187297,3.27272727 4.49495863,4.62725396 3.88619367,6.51281723 L1.24767507,4.45525122 C2.52371634,1.8096768 5.18926238,0 8.28940568,0 Z"/>
    <path fill="#34A853" d="M1.24661336,11.5425467 L3.88405628,9.4805459 C4.49088465,11.3695668 6.2294597,12.7272727 8.28940568,12.7272727 C10.4645995,12.7272727 12.1049096,11.6 12.4971576,9.63636364 L8.28940568,9.63636364 L8.28940568,6.54545455 L15.5994832,6.54545455 C15.7064599,7.01818182 15.7777778,7.52727273 15.7777778,8 C15.7777778,13.0909091 12.2118863,16 8.28940568,16 C5.18840231,16 2.52223739,14.189319 1.24661336,11.5425467 Z"/>
    <path fill="#4285F4" d="M10.8978219,12.030003 C11.7168364,11.5029077 12.2866784,10.6900455 12.4971576,9.63636364 L8.28940568,9.63636364 L8.28940568,6.54545455 L15.5994832,6.54545455 C15.7064599,7.01818182 15.7777778,7.52727273 15.7777778,8 C15.7777778,10.6074469 14.842354,12.6425476 13.4026989,14.0075879 L10.8978219,12.030003 Z"/>
  </g>
</svg>
