<?xml version="1.0" encoding="UTF-8"?><svg xmlns="http://www.w3.org/2000/svg" width="24" height="24" viewBox="0 0 24 24"><title>l/lvs_icon/lvs_icon_24x24</title><g fill="none" fill-rule="evenodd"><path d="M0 0h24v24H0z"/><path fill="#FF520E" d="M1.933 18.515C.713 16.64 0 14.405 0 12 0 5.372 5.372 0 12 0c.36 0 .718.016 1.07.047l-.096 5.48c-.318-.048-.643-.072-.974-.072-3.615 0-6.545 2.93-6.545 6.545 0 1.312.388 2.53 1.053 3.553-.55.358-3.7 2.387-4.575 2.962z"/><path fill="#57D31A" d="M1.932 18.515c.535.82 1.167 1.573 1.88 2.24C5.956 22.76 8.83 24 12 24c3.17 0 6.043-1.24 8.19-3.246.71-.667 1.343-1.42 1.878-2.24l-4.576-2.96c-.292.447-.637.857-1.025 1.22-1.17 1.096-2.738 1.77-4.467 1.77-1.73 0-3.296-.674-4.467-1.77-.388-.363-.733-.773-1.025-1.22l-4.576 2.96z"/><path fill="#1A96F1" d="M24 12c0-6.628-5.372-12-12-12v5.455c3.615 0 6.545 2.93 6.545 6.545 0 1.6-1.2 3.777-1.053 3.553l4.576 2.96C21.533 19.336 24 15.46 24 12z"/><path fill="#FFF" d="M5.455 12c0 1.886.802 3.58 2.078 4.775 1.17 1.095 2.738 1.77 4.467 1.77 1.73 0 3.296-.675 4.467-1.77 1.276-1.195 2.078-2.89 2.078-4.775 0-3.615-2.93-6.545-6.545-6.545-3.615 0-6.545 2.93-6.545 6.545z"/><path fill="#262626" d="M16.764 16.478c-.37-.37-.885-.55-1.146-.598-.48-.106-1.02-.224-1.348-.298-.025-.01-.134-.08-.233-.144-.176-.336-.282-.657-.345-.966l.025-.02c.374-.35.743-.682.847-1.18.065-.312.12-.684.156-1.05.19-.27.374-1.392.374-1.782 0-.407.085-2.666-2.51-3.177-.048-.01-.095-.016-.142-.027-.186-.045-.568-.05-.748 0-.047.013-.095.017-.142.027-2.595.51-2.51 2.77-2.51 3.177 0 .37.162 1.133.342 1.418.034.475.1.998.187 1.415.168.795.64 1.16 1.145 1.282-.027.288-.08.574-.18.836l-.26.087c-.33.074-1.28.297-1.757.403-.28.05-.823.28-1.178.706.063.064.128.127.193.19 1.17 1.094 2.738 1.77 4.467 1.77 1.73 0 3.296-.676 4.467-1.77.102-.097.2-.196.297-.298z"/></g></svg>