<svg width="24" height="24" xmlns="http://www.w3.org/2000/svg" xmlns:xlink="http://www.w3.org/1999/xlink"><defs><path id="a" d="M12.703 6.822l4.037-4.037 4.247 4.248-4.036 4.037z"/><path id="b" d="M8.863 19.158L.849 22.923l3.766-8.013z"/></defs><g fill="none" fill-rule="evenodd"><path d="M24 0H0v24h24z"/><path d="M16.074 3.451l1.914-1.914a2 2 0 0 1 2.828 0l1.42 1.42a2 2 0 0 1 0 2.828l-1.914 1.914-4.248-4.248z" fill="red"/><use fill="#FFF" xlink:href="#a"/><path stroke-opacity=".63" stroke="#979797" stroke-width=".5" d="M13.057 6.822l3.894 3.894 3.683-3.683L16.74 3.14l-3.683 3.683z"/><path fill="#57D31A" d="M14.721 4.804L18.97 9.05 8.863 19.158 4.615 14.91z"/><use fill="#FEC98F" xlink:href="#b"/><path stroke-opacity=".2" stroke="#BF830E" stroke-width=".5" d="M8.435 19.083L4.69 15.338l-3.32 7.064 7.065-3.32z"/><path fill="#414141" d="M4.654 21.135L.85 22.923l1.797-3.822z"/></g></svg>