<svg width="16" height="16" xmlns="http://www.w3.org/2000/svg" xmlns:xlink="http://www.w3.org/1999/xlink"><defs><path id="a" d="M8.469 4.548l2.69-2.691 2.833 2.832-2.691 2.69z"/></defs><g fill="none" fill-rule="evenodd"><path d="M16 0H0v16h16z"/><path d="M10.716 2.3l1.276-1.275c.52-.52 1.365-.52 1.886 0l.946.946c.52.52.52 1.365 0 1.886l-1.276 1.276L10.716 2.3z" fill="red"/><use fill="#FFF" xlink:href="#a"/><path stroke-opacity=".63" stroke="#979797" stroke-width=".25" d="M8.646 4.548L11.3 7.203l2.514-2.514-2.655-2.655-2.514 2.514z"/><path fill="#57D31A" d="M9.814 3.202l2.832 2.832-6.737 6.738L3.077 9.94z"/><path fill="#FEC98F" d="M5.909 12.772l-5.343 2.51 2.51-5.342z"/><path fill="#414141" d="M3.103 14.09L.566 15.282l1.198-2.548z"/></g></svg>