<svg width="14" height="14" viewBox="0 0 14 14" fill="none" xmlns="http://www.w3.org/2000/svg">
<path fill-rule="evenodd" clip-rule="evenodd" d="M2.00586 0H11.9941C13.1029 0 14 0.898054 14 2.00586V11.9941C14 13.1029 13.1019 14 11.9941 14H2.00586C0.89706 14 0 13.1019 0 11.9941V2.00586C0 0.89706 0.898054 0 2.00586 0Z" fill="#DCDCDC"/>
<path fill-rule="evenodd" clip-rule="evenodd" d="M3 7C3 6.44772 3.45304 6 3.99703 6H10.003C10.5536 6 11 6.44386 11 7C11 7.55228 10.547 8 10.003 8H3.99703C3.44639 8 3 7.55614 3 7Z" fill="white"/>
</svg>
