<svg width="24" height="24" xmlns="http://www.w3.org/2000/svg"><g fill="none" fill-rule="evenodd"><path d="M12 24c6.6274173 0 12-5.3725827 12-12 0-6.62741733-5.3725827-12-12-12C5.37258267 0 0 5.37258267 0 12c0 6.6274173 5.37258267 12 12 12z" fill="#DDDDEA"/><path d="M14.6063154 10.8402784l2.0908707 5.9478168-5.9478168-2.0908707 3.8569461-3.8569461zm-1-1.00000002L9.74936929 13.6972245 7.43520165 7.52611074l6.17111375 2.31416764z" fill="#000"/><path d="M12 4.36363636c-.6024925 0-1.0909091-.48841663-1.0909091-1.09090909 0-.60249245.4884166-1.09090909 1.0909091-1.09090909s1.0909091.48841664 1.0909091 1.09090909c0 .60249246-.4884166 1.09090909-1.0909091 1.09090909zM3.27272727 13.0909091c-.60249245 0-1.09090909-.4884166-1.09090909-1.0909091s.48841664-1.0909091 1.09090909-1.0909091c.60249246 0 1.09090909.4884166 1.09090909 1.0909091s-.48841663 1.0909091-1.09090909 1.0909091zM12 21.8181818c-.6024925 0-1.0909091-.4884166-1.0909091-1.0909091 0-.6024924.4884166-1.0909091 1.0909091-1.0909091s1.0909091.4884167 1.0909091 1.0909091c0 .6024925-.4884166 1.0909091-1.0909091 1.0909091zm8.7272727-8.7272727c-.6024924 0-1.0909091-.4884166-1.0909091-1.0909091s.4884167-1.0909091 1.0909091-1.0909091c.6024925 0 1.0909091.4884166 1.0909091 1.0909091s-.4884166 1.0909091-1.0909091 1.0909091z" fill="#868686"/><path fill="red" d="M10.2312869 9.91176702L5.21725699 18.782743l8.87097601-5.0140299z"/><path fill="#0D6FE0" d="M10.2312869 9.91176702l9.2566706-5.39972451-5.3997245 9.25667059z"/></g></svg>