<svg width="24" height="24" xmlns="http://www.w3.org/2000/svg"><g fill="none" fill-rule="nonzero"><path fill="#ECF0F4" d="M1.5 3h21v13.3043478h-21z"/><path d="M1.5 3h21v.7826087h-21V3zm0 1.56521739h21v.7826087h-21v-.7826087zm0 1.56521739h21v.7826087h-21v-.7826087zm0 1.56521739h21v.7826087h-21v-.7826087zm0 1.5652174h21v.78260873h-21v-.78260873zm0 1.56521743h21v.7826087h-21v-.7826087zm0 1.5652173h21v.7826087h-21v-.7826087zm0 1.5652174h21v.7826087h-21v-.7826087z" fill="#B5C0CB"/><path d="M0 10.0434783h1.6875c.84375 0 1.546875.4402174 1.96875 1.173913l1.6875 3.1304348c.421875.7336956 1.125 1.173913 1.96875 1.173913h9.375c.84375 0 1.546875-.4402174 1.96875-1.173913l1.6875-3.1304348c.421875-.7336956 1.125-1.173913 1.96875-1.173913H24V21H0V10.0434783z" fill="#DD8523"/><path fill="#B26714" d="M0 20.2173913h24V21H0z"/></g></svg>