<svg width="16" height="16" xmlns="http://www.w3.org/2000/svg"><g fill="none" fill-rule="nonzero"><path fill="#ECF0F4" d="M1 2h14v8.8695652H1z"/><path d="M1 2h14v.52173913H1V2zm0 1.04347826h14v.52173913H1v-.52173913zm0 1.04347826h14v.52173913H1v-.52173913zm0 1.04347826h14v.52173913H1v-.52173913zm0 1.04347826h14v.52173913H1v-.52173913zM1 7.2173913h14v.52173913H1V7.2173913zm0 1.04347827h14v.52173913H1v-.52173913zm0 1.04347826h14v.52173913H1v-.52173913z" fill="#B5C0CB"/><path d="M0 6.69565217h1.125c.5625 0 1.03125.29347826 1.3125.7826087l1.125 2.08695652c.28125.48913041.75.78260871 1.3125.78260871h6.25c.5625 0 1.03125-.2934783 1.3125-.78260871l1.125-2.08695652c.28125-.48913044.75-.7826087 1.3125-.7826087H16V14H0V6.69565217z" fill="#DD8523"/><path fill="#B26714" d="M0 13.4782609h16V14H0z"/></g></svg>