<svg width="48" height="48" viewBox="0 0 48 48" fill="none" xmlns="http://www.w3.org/2000/svg">
<path fill-rule="evenodd" clip-rule="evenodd" d="M0 43.2V4.8C0 2.04357 2.04357 0 4.8 0H43.2C45.9564 0 48 2.04357 48 4.8V43.2C48 45.9564 45.9564 48 43.2 48H4.8C2.04357 48 0 45.9564 0 43.2ZM22.2486 41.1036C18.509 41.1036 14.6656 40.0933 12.7438 38.9315L14.1981 33.7791C16.2237 34.9409 19.392 35.9512 22.6641 35.9512C26.7154 35.9512 29.0007 34.0822 29.0007 31.3039C29.0007 28.7277 27.2348 27.2122 22.82 25.6463C17.0028 23.6257 13.3152 20.6454 13.3152 15.7455C13.3152 10.1385 18.0935 5.94581 25.7285 5.94581C29.5201 5.94581 32.2728 6.75403 34.0907 7.66329L32.5844 12.6642C31.286 12.0075 28.8449 11.0477 25.5727 11.0477C21.5215 11.0477 19.8075 13.1188 19.8075 15.1394C19.8075 17.7661 21.8331 18.9784 26.5076 20.7464C32.5844 22.9691 35.493 25.9494 35.493 30.8493C35.493 36.3553 31.234 41.1036 22.2486 41.1036Z" fill="black"/>
</svg>
