<?xml version="1.0" encoding="UTF-8" standalone="no"?>
<svg width="16px" height="16px" viewBox="0 0 16 16" version="1.1" xmlns="http://www.w3.org/2000/svg" xmlns:xlink="http://www.w3.org/1999/xlink">
    <!-- Generator: Sketch 43.2 (39069) - http://www.bohemiancoding.com/sketch -->
    <title>mime_video_m_16x16</title>
    <desc>Created with Sketch.</desc>
    <defs></defs>
    <g id="MimeType-icons---Converted-to-outlines" stroke="none" stroke-width="1" fill="none" fill-rule="evenodd">
        <g id="mime_video_m_16x16">
            <g id="Label" transform="translate(3.000000, 0.000000)" fill-rule="nonzero">
                <polygon id="Shape" fill="#231F20" opacity="0.4" points="0 0 0 16 13 16 13 4.6 8.4 0"></polygon>
                <polygon id="Shape" fill="#FFFFFF" points="1 15 1 1 8 1 12 5 12 15"></polygon>
                <path d="M4.3,13 C4.24,13 4.18,13 4.18,12.9381974 C4.06,12.9381974 4,12.8145923 4,12.6909871 L4,5.27467811 C4,5.15107296 4.06,5.02746781 4.18,5.02746781 C4.3,5.02746781 4.42,4.96566524 4.48,5.02746781 L9.88,8.73562232 C9.94,8.79742489 10,8.85922747 10,8.98283262 C10,9.10643777 9.94,9.16824034 9.88,9.23004292 L4.48,12.9381974 C4.42,13 4.36,13 4.3,13 Z" id="Shape" fill="#999999"></path>
                <polygon id="Shape" fill="#FFFFFF" points="8 5 8 1 8 1 12 5 12 5"></polygon>
                <polygon id="Shape" fill="#231F20" opacity="0.4" points="8 5 8 1 7 1 7 5 7 6 8 6 12 6 12 5"></polygon>
            </g>
            <g id="Label" transform="translate(0.000000, 2.000000)">
                <polygon id="Shape" fill="#FFFFFF" points="4 0.5 4 12.4 8 13 8 0"></polygon>
                <polygon id="Shape" fill="#EC0000" points="0 2 7 1 7 12 0 10.9"></polygon>
                <polygon id="Combined-Shape-Copy" fill="#FFFFFF" points="2 5.5 3 7 3.5 7.79998779 4 7 5 5.5 5 9 6 9 6 4 5 4 3.5 6.25 2 4 1 4 1 9 2 9 2 5.5"></polygon>
            </g>
        </g>
    </g>
</svg>