<?xml version="1.0" encoding="UTF-8" standalone="no"?>
<svg width="24px" height="24px" viewBox="0 0 24 24" version="1.1" xmlns="http://www.w3.org/2000/svg" xmlns:xlink="http://www.w3.org/1999/xlink">
    <!-- Generator: Sketch 43.2 (39069) - http://www.bohemiancoding.com/sketch -->
    <title>mime_video_m_24x24</title>
    <desc>Created with Sketch.</desc>
    <defs></defs>
    <g id="MimeType-icons---Converted-to-outlines" stroke="none" stroke-width="1" fill="none" fill-rule="evenodd">
        <g id="mime_video_m_24x24" transform="translate(1.000000, 1.000000)">
            <polygon id="Shape" fill="#A7A5A6" fill-rule="nonzero" points="23 22 5 22 5 0 18 0 23 5"></polygon>
            <polygon id="Shape" fill="#FFFFFF" fill-rule="nonzero" points="6 21 6 1 17.508728 1 22 5.53411865 22 21"></polygon>
            <path d="M11.4,17.6666667 C11.32,17.6666667 11.24,17.6666667 11.24,17.5842632 C11.08,17.5842632 11,17.4194564 11,17.2546495 L11,7.36623748 C11,7.20143062 11.08,7.03662375 11.24,7.03662375 C11.4,7.03662375 11.56,6.95422031 11.64,7.03662375 L18.84,11.9808298 C18.92,12.0632332 19,12.1456366 19,12.3104435 C19,12.4752504 18.92,12.5576538 18.84,12.6400572 L11.64,17.5842632 C11.56,17.6666667 11.48,17.6666667 11.4,17.6666667 Z" id="Shape" fill="#999999" fill-rule="nonzero"></path>
            <g id="Group-2" transform="translate(17.000000, 1.000000)" fill-rule="nonzero" fill="#A7A5A6">
                <polygon id="Shape" points="1 4 1 0 0 0 0 5 5 5 5 4"></polygon>
            </g>
            <g id="Label" transform="translate(0.000000, 3.500000)">
                <polygon id="Shape" fill="#FFFFFF" fill-rule="nonzero" points="6 1.5 6 16.5 11 16.5 11 0.5"></polygon>
                <polygon id="Shape" fill="#EC0000" fill-rule="nonzero" points="10 1 10 16 0 15 0 2"></polygon>
                <polygon id="M" fill="#FFFFFF" points="1.5 12 3.01 12 3.01 7.46 4.96 10.42 5 10.42 6.97 7.43 6.97 12 8.5 12 8.5 5 6.84 5 5 7.96 3.16 5 1.5 5"></polygon>
            </g>
        </g>
    </g>
</svg>