<svg width="16" height="16" viewBox="0 0 16 16" fill="none" xmlns="http://www.w3.org/2000/svg">
<g id="e/earth_connector/earth_connector_16x16">
<path id="curve4" fill-rule="evenodd" clip-rule="evenodd" d="M7.48708 12H8.51272V14.5H11.5896V15.5H4.41016V14.5H7.48708V12Z" fill="#5F5F5F"/>
<path id="curve3" fill-rule="evenodd" clip-rule="evenodd" d="M7.4873 12H8.51295V13.4844C8.33666 13.5 8.17641 13.5 8.00013 13.5C7.82384 13.5 7.66359 13.5 7.4873 13.4844V12Z" fill="#314051"/>
<path id="curve2" fill-rule="evenodd" clip-rule="evenodd" d="M6.46155 14H9.53847C9.82694 14 10.0513 14.2188 10.0513 14.5V15.5C10.0513 15.7812 9.82694 16 9.53847 16H6.46155C6.17309 16 5.94873 15.7812 5.94873 15.5V14.5C5.94873 14.2188 6.17309 14 6.46155 14Z" fill="#D1D4E6"/>
<path id="curve1" d="M8.00016 0C11.6861 0 14.6668 2.90625 14.6668 6.5C14.6668 10.0938 11.6861 13 8.00016 13C4.31427 13 1.3335 10.0938 1.3335 6.5C1.3335 2.90625 4.31427 0 8.00016 0Z" fill="#74D425"/>
<path id="curve0" fill-rule="evenodd" clip-rule="evenodd" d="M10.0834 3.9375C9.98722 3.90625 9.74683 3.90625 9.57055 3.96875C9.2493 4.07958 9.04541 4.11165 8.89355 4.13553C8.553 4.1891 8.47407 4.20151 7.91991 4.96875C7.80773 5.125 7.7276 5.29688 7.71158 5.5C7.71158 5.53125 7.63145 6.26562 7.63145 6.26562C7.7276 6.73438 7.93594 7.29688 8.38465 7.48438C8.42622 7.49885 8.46834 7.51547 8.51111 7.53235C8.69919 7.60656 8.89987 7.68576 9.12183 7.60938C9.49042 7.48438 9.74683 7.64062 9.90709 7.95312C9.93914 8.03125 10.1475 8.85938 10.1475 8.875C10.1475 9.11759 10.1315 9.23567 10.1109 9.3885C10.1022 9.45223 10.0928 9.52201 10.0834 9.60938C10.0654 9.71446 10.1381 9.85882 10.2139 10.0094C10.2733 10.1275 10.3347 10.2495 10.3558 10.3594C10.4039 10.5938 10.484 10.8438 10.6122 11.0156C10.8526 11.3125 11.8141 10.7344 12.1507 10.2344C12.202 10.1644 12.2598 9.93433 12.3074 9.74502C12.3342 9.63857 12.3577 9.54499 12.375 9.5C12.544 9.08066 12.5952 9.01301 12.6291 8.9376C12.666 8.85567 12.6825 8.76456 12.8077 8.20312C12.8982 7.80002 13.1865 7.46801 13.3705 7.25621C13.4147 7.2053 13.4529 7.16134 13.4808 7.125C13.655 6.91269 13.5168 6.74654 13.3877 6.59142C13.2793 6.46114 13.1774 6.33864 13.2725 6.20312C13.2837 6.18672 13.3165 6.17415 13.3585 6.15803C13.4366 6.1281 13.5465 6.08595 13.609 5.98438C13.6592 5.90754 13.6869 5.79948 13.7122 5.70068C13.7436 5.57846 13.7713 5.47041 13.8334 5.45312C13.8975 5.4375 13.9936 5.53125 14.0898 5.65625C14.1379 5.9375 14.1539 6.21875 14.1539 6.5C14.1539 9.8125 11.3975 12.5 8.00004 12.5C6.84619 12.5 5.77247 12.1875 4.84299 11.6562C4.80634 11.5759 4.79588 11.4955 4.78466 11.4092C4.77626 11.3446 4.76743 11.2767 4.74683 11.2031C4.63033 10.8056 5.01669 10.5628 5.26858 10.4046C5.29389 10.3887 5.31784 10.3736 5.33978 10.3594C6.25324 9.75 6.36542 8.90625 6.04491 8.3125C5.99463 8.22425 5.76764 8.11755 5.53424 8.00783C5.39571 7.9427 5.25492 7.87652 5.14747 7.8125C5.00226 7.72755 4.90383 7.60268 4.79566 7.46546C4.72477 7.37553 4.64969 7.28029 4.55452 7.1875C4.31414 6.9375 3.44876 6.51562 3.36863 6.48438C3.12824 6.42188 3.04811 6.39062 2.83978 6.21875C2.7276 6.10938 2.47119 5.78125 2.7276 5.25C2.82376 5.0625 3.43273 4.4375 3.54491 4.34375C3.65245 4.2622 3.73327 4.15892 3.81144 4.05903C3.94293 3.89099 4.06694 3.73252 4.29811 3.70312C4.37824 3.6875 4.97119 3.46875 5.19555 3.21875C5.31354 3.10371 5.34466 2.73459 5.36566 2.48552C5.37318 2.39629 5.3794 2.32246 5.38786 2.28125C5.39237 2.25927 5.36517 2.21627 5.32731 2.15643C5.23061 2.00354 5.06435 1.74069 5.17952 1.4375C5.25965 1.26562 6.06094 1.125 6.18914 1.29688C6.21826 1.33662 6.19447 1.49813 6.16699 1.68465C6.11885 2.01136 6.05941 2.41479 6.25324 2.375C6.31693 2.35948 6.39643 2.35081 6.48593 2.34105C6.66669 2.32134 6.88823 2.29718 7.1026 2.20312C7.27107 2.12921 7.47052 2.09415 7.66839 2.05936C7.84698 2.02797 8.02427 1.9968 8.17632 1.9375C8.60901 1.78125 8.75324 1.51562 8.8494 1.29688C8.94555 1.07812 8.57696 0.65625 8.36863 0.515625C9.85901 0.59375 11.2212 1.20312 12.2308 2.15625C11.9263 2.1875 11.702 2.07812 11.3814 1.89062C11.2751 1.8268 11.1604 1.7915 11.0437 1.75558C10.9318 1.72116 10.8182 1.68618 10.7084 1.625C10.58 1.54991 10.4516 1.61516 10.3315 1.67622C10.3017 1.6914 10.2723 1.70631 10.2436 1.71875C10.198 1.74349 10.1362 1.76352 10.0706 1.78481C9.92908 1.83076 9.76954 1.88254 9.71478 2C9.66101 2.10486 9.70666 2.20613 9.74759 2.29693C9.79205 2.39554 9.83093 2.4818 9.73081 2.54688C9.6464 2.59924 9.59139 2.65519 9.54466 2.70272C9.49379 2.75446 9.45274 2.79621 9.39427 2.8125C9.28792 2.8413 9.19028 2.84037 9.09492 2.83946C8.93165 2.83791 8.77509 2.83641 8.59299 2.98438C8.30452 3.21875 8.30452 3.75 8.52888 3.85938C8.76927 3.96875 9.10581 4.03125 9.25004 3.8125C9.34619 3.67188 9.57055 3.40625 9.68273 3.34375C9.85892 3.26358 9.99206 3.35969 10.1137 3.4475C10.158 3.4795 10.2008 3.51039 10.2436 3.53125C10.3165 3.57072 10.3883 3.6052 10.454 3.63671C10.6482 3.72996 10.7883 3.7972 10.7404 3.89062C10.6443 4.14062 11.0129 3.96875 10.9808 3.82812C10.965 3.76653 10.8947 3.7239 10.8064 3.67033C10.7155 3.61519 10.6055 3.54845 10.5161 3.4375C10.468 3.35938 10.8045 3.29688 10.9167 3.45312C10.9465 3.50148 10.9808 3.5618 11.0165 3.62437C11.096 3.764 11.1819 3.9148 11.2372 3.96875C11.3323 4.07835 11.4274 4.06968 11.5276 4.06055C11.6131 4.05275 11.7022 4.04463 11.7981 4.10938C11.8699 4.15604 11.9576 4.16399 12.0434 4.17177C12.1299 4.17962 12.2145 4.18729 12.2789 4.23438C12.4071 4.34375 12.327 4.625 12.1827 4.6875C12.0214 4.76614 11.8538 4.69018 11.6798 4.61134C11.5772 4.56486 11.4724 4.51739 11.3654 4.5C11.3334 4.49219 11.2572 4.52734 11.1811 4.5625C11.105 4.59766 11.0289 4.63281 10.9968 4.625C10.7549 4.58433 10.6432 4.44203 10.5262 4.29289C10.4185 4.15555 10.3062 4.01241 10.0834 3.9375ZM3.62504 10.2656C3.73722 10.5312 4.10581 11.0156 4.45837 11.4062C2.87183 10.3125 1.84619 8.53125 1.84619 6.5C1.84619 6.35938 1.84619 6.23438 1.86222 6.09375C2.13465 6.39062 2.31094 6.78125 2.35901 7.15625C2.37578 7.28705 2.43642 7.48202 2.49962 7.68519C2.5572 7.87034 2.61691 8.0623 2.64747 8.21875C2.69374 8.56456 2.96258 8.85251 3.26839 9.18003C3.28038 9.19287 3.29243 9.20578 3.30452 9.21875C3.39842 9.31945 3.4483 9.55425 3.4993 9.79429C3.53535 9.96394 3.57195 10.1362 3.62504 10.2656Z" fill="#0D6FE0"/>
</g>
</svg>
