<svg width="24" height="24" viewBox="0 0 24 24" fill="none" xmlns="http://www.w3.org/2000/svg">
<g id="e/earth_connector/earth_connector_24x24">
<path id="curve4" fill-rule="evenodd" clip-rule="evenodd" d="M11.2306 18H12.7691V21.75H17.3845V23.25H6.61523V21.75H11.2306V18Z" fill="#5F5F5F"/>
<path id="curve3" fill-rule="evenodd" clip-rule="evenodd" d="M11.231 18H12.7694V20.2266C12.505 20.25 12.2646 20.25 12.0002 20.25C11.7358 20.25 11.4954 20.25 11.231 20.2266V18Z" fill="#314051"/>
<path id="curve2" fill-rule="evenodd" clip-rule="evenodd" d="M9.69208 21H14.3075C14.7402 21 15.0767 21.3281 15.0767 21.75V23.25C15.0767 23.6719 14.7402 24 14.3075 24H9.69208C9.25939 24 8.92285 23.6719 8.92285 23.25V21.75C8.92285 21.3281 9.25939 21 9.69208 21Z" fill="#D1D4E6"/>
<path id="curve1" d="M12 0C17.5288 0 22 4.35938 22 9.75C22 15.1406 17.5288 19.5 12 19.5C6.47115 19.5 2 15.1406 2 9.75C2 4.35938 6.47115 0 12 0Z" fill="#74D425"/>
<path id="curve0" fill-rule="evenodd" clip-rule="evenodd" d="M15.1248 5.90625C14.9806 5.85938 14.62 5.85938 14.3556 5.95312C13.8737 6.11937 13.5679 6.16747 13.3401 6.2033C12.8293 6.28364 12.7109 6.30226 11.8796 7.45312C11.7114 7.6875 11.5912 7.94531 11.5671 8.25C11.5671 8.29688 11.4469 9.39844 11.4469 9.39844C11.5912 10.1016 11.9037 10.9453 12.5767 11.2266C12.6391 11.2483 12.7023 11.2732 12.7664 11.2985C13.0485 11.4098 13.3496 11.5286 13.6825 11.4141C14.2354 11.2266 14.62 11.4609 14.8604 11.9297C14.9085 12.0469 15.221 13.2891 15.221 13.3125C15.221 13.6764 15.197 13.8535 15.166 14.0828C15.1531 14.1784 15.139 14.283 15.1248 14.4141C15.0979 14.5717 15.2068 14.7882 15.3205 15.0141C15.4097 15.1913 15.5018 15.3742 15.5335 15.5391C15.6056 15.8906 15.7258 16.2656 15.9181 16.5234C16.2787 16.9688 17.721 16.1016 18.2258 15.3516C18.3027 15.2466 18.3895 14.9015 18.4609 14.6175C18.5011 14.4578 18.5364 14.3175 18.5623 14.25C18.8158 13.621 18.8925 13.5195 18.9435 13.4064C18.9988 13.2835 19.0236 13.1468 19.2114 12.3047C19.347 11.7 19.7795 11.202 20.0554 10.8843C20.1218 10.808 20.179 10.742 20.221 10.6875C20.4823 10.369 20.2749 10.1198 20.0813 9.88713C19.9187 9.69171 19.7658 9.50797 19.9085 9.30469C19.9253 9.28008 19.9745 9.26122 20.0375 9.23705C20.1546 9.19215 20.3195 9.12893 20.4133 8.97656C20.4885 8.86131 20.5301 8.69923 20.5681 8.55102C20.6152 8.3677 20.6568 8.20561 20.7498 8.17969C20.846 8.15625 20.9902 8.29688 21.1344 8.48438C21.2065 8.90625 21.2306 9.32812 21.2306 9.75C21.2306 14.7188 17.096 18.75 11.9998 18.75C10.269 18.75 8.65847 18.2812 7.26424 17.4844C7.20927 17.3638 7.19358 17.2432 7.17675 17.1139C7.16414 17.0169 7.15089 16.9151 7.12 16.8047C6.94525 16.2083 7.5248 15.8442 7.90263 15.6069C7.94059 15.583 7.97651 15.5605 8.00943 15.5391C9.37962 14.625 9.54789 13.3594 9.06712 12.4688C8.99169 12.3364 8.65121 12.1763 8.30111 12.0117C8.09331 11.9141 7.88213 11.8148 7.72097 11.7188C7.50314 11.5913 7.3555 11.404 7.19324 11.1982C7.08691 11.0633 6.97429 10.9204 6.83154 10.7812C6.47097 10.4062 5.17289 9.77344 5.0527 9.72656C4.69212 9.63281 4.57193 9.58594 4.25943 9.32812C4.09116 9.16406 3.70654 8.67188 4.09116 7.875C4.23539 7.59375 5.14885 6.65625 5.31712 6.51562C5.47844 6.39329 5.59966 6.23839 5.71691 6.08855C5.91416 5.83649 6.10017 5.59879 6.44693 5.55469C6.56712 5.53125 7.45654 5.20312 7.79308 4.82812C7.97006 4.65557 8.01674 4.10189 8.04824 3.72828C8.05953 3.59443 8.06886 3.48369 8.08154 3.42188C8.08831 3.38891 8.04751 3.32441 7.99073 3.23464C7.84567 3.0053 7.59628 2.61104 7.76904 2.15625C7.88924 1.89844 9.09116 1.6875 9.28347 1.94531C9.32715 2.00494 9.29145 2.2472 9.25023 2.52698C9.17803 3.01703 9.08888 3.62218 9.37962 3.5625C9.47515 3.53922 9.5944 3.52621 9.72864 3.51157C9.99979 3.48201 10.3321 3.44577 10.6537 3.30469C10.9064 3.19382 11.2055 3.14122 11.5023 3.08904C11.7702 3.04195 12.0362 2.9952 12.2642 2.90625C12.9133 2.67188 13.1296 2.27344 13.2739 1.94531C13.4181 1.61719 12.8652 0.984375 12.5527 0.773438C14.7883 0.890625 16.8315 1.80469 18.346 3.23438C17.8892 3.28125 17.5527 3.11719 17.0719 2.83594C16.9124 2.74021 16.7403 2.68724 16.5653 2.63338C16.3975 2.58174 16.227 2.52927 16.0623 2.4375C15.8698 2.32486 15.6772 2.42274 15.497 2.51434C15.4523 2.53709 15.4083 2.55947 15.3652 2.57812C15.2967 2.61523 15.2041 2.64528 15.1057 2.67722C14.8934 2.74614 14.6541 2.82381 14.5719 3C14.4913 3.15729 14.5597 3.3092 14.6211 3.44539C14.6878 3.59331 14.7462 3.72269 14.596 3.82031C14.4694 3.89887 14.3868 3.98279 14.3167 4.05408C14.2404 4.13169 14.1789 4.19432 14.0912 4.21875C13.9316 4.26196 13.7852 4.26056 13.6421 4.25919C13.3972 4.25686 13.1624 4.25462 12.8892 4.47656C12.4565 4.82812 12.4565 5.625 12.7931 5.78906C13.1537 5.95312 13.6585 6.04688 13.8748 5.71875C14.019 5.50781 14.3556 5.10938 14.5239 5.01562C14.7881 4.89538 14.9879 5.03954 15.1703 5.17125C15.2368 5.21924 15.301 5.26558 15.3652 5.29688C15.4745 5.35608 15.5822 5.4078 15.6807 5.45507C15.9721 5.59494 16.1823 5.6958 16.1104 5.83594C15.9662 6.21094 16.519 5.95312 16.471 5.74219C16.4473 5.64979 16.3419 5.58585 16.2094 5.50549C16.073 5.42278 15.908 5.32268 15.7739 5.15625C15.7017 5.03906 16.2065 4.94531 16.3748 5.17969C16.4194 5.25222 16.471 5.3427 16.5244 5.43656C16.6437 5.64599 16.7726 5.8722 16.8556 5.95312C16.9983 6.11752 17.1409 6.10452 17.2912 6.09082C17.4193 6.07913 17.553 6.06694 17.6969 6.16406C17.8046 6.23406 17.9361 6.24599 18.0648 6.25766C18.1946 6.26943 18.3215 6.28094 18.4181 6.35156C18.6104 6.51562 18.4902 6.9375 18.2739 7.03125C18.0319 7.14921 17.7804 7.03526 17.5194 6.91701C17.3655 6.84729 17.2084 6.77608 17.0479 6.75C16.9998 6.73828 16.8856 6.79102 16.7714 6.84375C16.6573 6.89648 16.5431 6.94922 16.495 6.9375C16.1321 6.87649 15.9646 6.66304 15.7891 6.43934C15.6275 6.23332 15.459 6.01861 15.1248 5.90625ZM5.43731 15.3984C5.60558 15.7969 6.15847 16.5234 6.68731 17.1094C4.3075 15.4688 2.76904 12.7969 2.76904 9.75C2.76904 9.53906 2.76904 9.35156 2.79308 9.14062C3.20174 9.58594 3.46616 10.1719 3.53827 10.7344C3.56343 10.9306 3.65439 11.223 3.74918 11.5278C3.83556 11.8055 3.92512 12.0935 3.97097 12.3281C4.04036 12.8468 4.44363 13.2788 4.90234 13.77C4.92033 13.7893 4.9384 13.8087 4.95654 13.8281C5.09738 13.9792 5.17221 14.3314 5.24871 14.6914C5.30278 14.9459 5.35768 15.2043 5.43731 15.3984Z" fill="#0D6FE0"/>
</g>
</svg>
