<svg xmlns="http://www.w3.org/2000/svg" width="16" height="16" viewBox="0 0 16 16"><path fill="#516072" fill-rule="evenodd" d="M6.109375,9.796875 L6.109375,9.21875 C6.109375,8.7187475 6.21614477,8.28385602 6.4296875,7.9140625 C6.64323023,7.54426898 7.03385133,7.15104375 7.6015625,6.734375 C8.14844023,6.34374805 8.50911371,6.02604289 8.68359375,5.78125 C8.85807379,5.53645711 8.9453125,5.26302234 8.9453125,4.9609375 C8.9453125,4.62239414 8.82031375,4.36458422 8.5703125,4.1875 C8.32031125,4.01041578 7.97135641,3.921875 7.5234375,3.921875 C6.74218359,3.921875 5.8515675,4.17708078 4.8515625,4.6875 L4,2.9765625 C5.16146414,2.32551758 6.39322266,2 7.6953125,2 C8.76823453,2 9.62109059,2.25780992 10.2539062,2.7734375 C10.8867219,3.28906508 11.203125,3.9765582 11.203125,4.8359375 C11.203125,5.40885703 11.072918,5.90364375 10.8125,6.3203125 C10.552082,6.73698125 10.0572953,7.20572656 9.328125,7.7265625 C8.8281225,8.09635602 8.51171941,8.3776032 8.37890625,8.5703125 C8.24609309,8.7630218 8.1796875,9.01562344 8.1796875,9.328125 L8.1796875,9.796875 L6.109375,9.796875 Z M5.859375,12.46875 C5.859375,12.0312478 5.97656133,11.700522 6.2109375,11.4765625 C6.44531367,11.252603 6.78645609,11.140625 7.234375,11.140625 C7.66666883,11.140625 8.0013009,11.2552072 8.23828125,11.484375 C8.4752616,11.7135428 8.59375,12.0416645 8.59375,12.46875 C8.59375,12.8802104 8.47395953,13.2044259 8.234375,13.4414062 C7.99479047,13.6783866 7.66146047,13.796875 7.234375,13.796875 C6.79687281,13.796875 6.45833453,13.6809907 6.21875,13.4492188 C5.97916547,13.2174468 5.859375,12.8906271 5.859375,12.46875 Z"/></svg>