<?xml version="1.0" encoding="UTF-8"?><svg xmlns="http://www.w3.org/2000/svg" width="24" height="24" viewBox="0 0 24 24"><title>f/folder_mydoc/folder_mydoc_24x24</title><g fill="none" fill-rule="evenodd"><path d="M0 0h24v24H0z"/><path fill="#FFD531" d="M2 21h20c.62 0 1-.366 1-1V7H1v13c0 .634.38 1 1 1z"/><path fill="#EEC31D" d="M22.012 6H11C9.05 6 8.628 3 7 3H2c-.637 0-1 .386-1 1v4h22v-.992C23 6.58 22.505 6 22.012 6z"/><path fill="#7C6400" fill-opacity=".493" d="M17.97 20.083c-.122-.357-.383-1.19-.536-1.442-.183-.3-.29-.643-.99-.786-.274-.056-.764-.12-1.156-.185-.43-.088-.918-.185-1.214-.245-.043-.015-.074-.03-.09-.044-.136-.128-.38-.557-.38-.973.282-.265.564-.286.717-.93.153-.645.234-1.613.163-1.986.178-.166.312-.486.312-.82 0-.334.075-2.19-2.244-2.61-.094-.058-.504-.1-.92 0-2.318.42-2.243 2.276-2.243 2.61 0 .334.133.654.31.82-.07.374.01 1.342.164 1.987.153.644.435.666.718.93 0 .416-.244.845-.382.974-.014.015-.045.03-.09.045l-1.213.244c-.392.064-.882.128-1.155.184-.7.143-.808.487-.99.787-.154.252-.575 1.086-.7 1.443-.024.06-.095.59 0 .917.644 0 11.266-.005 11.923 0 0-.02.092-.402 0-.917z"/></g></svg>