<svg width="24" height="24" viewBox="0 0 24 24" fill="none" xmlns="http://www.w3.org/2000/svg">
<g id="m/mime_img_eps/mime_img_eps_24x24">
<g id="24/baseshape">
<g id="24/baseshape_2">
<path id="OutsideBorder" fill-rule="evenodd" clip-rule="evenodd" d="M24 22.4998C24 22.776 23.7724 23 23.4998 23H6.50021C6.22395 23 6 22.7823 6 22.4992V1.50084C6 1.22423 6.21991 1 6.49827 1H20L24 5V22.4998Z" fill="#ECF0F4"/>
</g>
<g id="flower">
<path id="Shape" d="M15.5648 10.9302C15.9337 10.1898 16.3461 9.14138 16.3461 8.15385C16.3461 6.36885 15.7436 6 15 6C14.2563 6 13.6538 6.36885 13.6538 8.15385C13.6538 9.14138 14.0668 10.1898 14.4351 10.9302C14.616 10.8806 14.8034 10.8462 15 10.8462C15.1965 10.8462 15.3839 10.8812 15.5648 10.9302Z" fill="#FF0000"/>
<path id="Shape_2" d="M14.4351 15.0698C14.0663 15.8092 13.6538 16.8575 13.6538 17.8462C13.6538 19.6301 14.2563 20 15 20C15.7436 20 16.3461 19.6295 16.3461 17.8462C16.3461 16.8575 15.9331 15.8092 15.5648 15.0698C15.3839 15.1188 15.1965 15.1538 15 15.1538C14.8034 15.1538 14.616 15.1188 14.4351 15.0698Z" fill="#9559CD"/>
<path id="Shape_3" fill-rule="evenodd" clip-rule="evenodd" d="M13.936 11.1375C13.6737 10.354 13.2241 9.32015 12.5252 8.62069C11.2636 7.35962 10.576 7.52385 10.0499 8.04938C9.5238 8.57546 9.35957 9.26308 10.6212 10.5252C11.3201 11.2236 12.354 11.6738 13.138 11.9355C13.3286 11.6022 13.6026 11.3292 13.936 11.1375Z" fill="#FF7100"/>
<path id="Shape_4" d="M16.064 14.8625C16.3267 15.646 16.7763 16.6798 17.4753 17.3782C18.7369 18.6404 19.424 18.4751 19.95 17.9495C20.4761 17.4235 20.6403 16.7369 19.3787 15.4748C18.6798 14.7753 17.6465 14.3262 16.8625 14.0635C16.6713 14.3968 16.3973 14.6708 16.064 14.8625Z" fill="#1A96F1"/>
<path id="Shape_5" fill-rule="evenodd" clip-rule="evenodd" d="M12.9307 12.4352C12.1903 12.0658 11.1419 11.6538 10.1538 11.6538C8.36938 11.6538 8 12.2564 8 13C8 13.7436 8.36938 14.3462 10.1538 14.3462C11.1419 14.3462 12.1903 13.9326 12.9307 13.5648C12.8812 13.3839 12.8462 13.1965 12.8462 13C12.8462 12.8035 12.8812 12.6161 12.9307 12.4352Z" fill="#91A0AF"/>
<path id="Shape_6" d="M17.0698 13.5648C17.8097 13.9332 18.8581 14.3462 19.8461 14.3462C21.6301 14.3462 22 13.7436 22 13C22 12.2564 21.6301 11.6538 19.8461 11.6538C18.8581 11.6538 17.8097 12.0663 17.0698 12.4352C17.1194 12.6161 17.1538 12.8035 17.1538 13C17.1538 13.1965 17.1188 13.3839 17.0698 13.5648Z" fill="#57D31A"/>
<path id="Shape_7" d="M13.1382 14.0635C12.3542 14.3262 11.3204 14.7753 10.6215 15.4748C9.35984 16.7369 9.52461 17.4235 10.0501 17.9495C10.5762 18.4756 11.2633 18.6404 12.5255 17.3782C13.2244 16.6798 13.674 15.646 13.9362 14.8625C13.6029 14.6708 13.3288 14.3968 13.1382 14.0635Z" fill="#FF0097"/>
<path id="Shape_8" d="M16.8625 11.9355C17.646 11.6727 18.6798 11.2236 19.3787 10.5252C20.6403 9.26308 20.4756 8.57546 19.95 8.04939C19.424 7.52331 18.7369 7.35962 17.4753 8.62069C16.7758 9.32016 16.3267 10.354 16.064 11.1375C16.3973 11.3281 16.6713 11.6022 16.8625 11.9355Z" fill="#F6B701"/>
</g>
</g>
<g id="24/corner">
<path id="InsideWhite" fill-rule="evenodd" clip-rule="evenodd" d="M20 1L24 5H20V1Z" fill="#D8E0E8"/>
</g>
<g id="24/chard/color/yellow">
<path id="Shape_9" d="M7 6V21L12 22V5L7 6Z" fill="#ECF0F4"/>
<path id="Chard" d="M11 6V21L1 19.5V7.5L11 6Z" fill="#E6007E"/>
</g>
<g id="24/chard/letter/z">
<path id="E" fill-rule="evenodd" clip-rule="evenodd" d="M3.49023 17V10H8.77023V11.37H5.02023V12.79H8.32023V14.16H5.02023V15.63H8.82023V17H3.49023Z" fill="white"/>
</g>
</g>
</svg>
