<?xml version="1.0" encoding="UTF-8"?><svg xmlns="http://www.w3.org/2000/svg" width="24" height="24" viewBox="0 0 24 24"><title>n/notification_msg_red/notification_msg_red_24x24</title><g fill="none" fill-rule="evenodd"><path d="M0 0h24v24H0z"/><path fill="#F00" d="M12 2.334c-6.63 0-12 3.794-12 8.475 0 3.053 2.294 5.72 5.724 7.212l-3.108 4.882 7.954-3.687c.47.04.945.066 1.43.066 6.63 0 12-3.794 12-8.475 0-4.682-5.37-8.476-12-8.476"/><path fill="#FFF" d="M6.5 12c-.828 0-1.5-.672-1.5-1.5S5.672 9 6.5 9 8 9.672 8 10.5 7.328 12 6.5 12zm6 0c-.828 0-1.5-.672-1.5-1.5S11.672 9 12.5 9s1.5.672 1.5 1.5-.672 1.5-1.5 1.5zm6 0c-.828 0-1.5-.672-1.5-1.5S17.672 9 18.5 9s1.5.672 1.5 1.5-.672 1.5-1.5 1.5z"/></g></svg>