<?xml version="1.0" encoding="UTF-8"?><svg xmlns="http://www.w3.org/2000/svg" width="16" height="16" viewBox="0 0 16 16"><title>n/notification_msg_red/notification_msg_red_16x16</title><g fill="none" fill-rule="evenodd"><path d="M0 0h16v16H0z"/><path fill="#F00" d="M8 2C3.58 2 0 4.398 0 7.356c0 1.93 1.53 3.615 3.816 4.56L1.744 15l5.303-2.33c.312.025.63.042.953.042 4.42 0 8-2.398 8-5.356C16 4.398 12.42 2 8 2"/><path fill="#FFF" d="M4 8c-.552 0-1-.448-1-1s.448-1 1-1 1 .448 1 1-.448 1-1 1zm4 0c-.552 0-1-.448-1-1s.448-1 1-1 1 .448 1 1-.448 1-1 1zm4 0c-.552 0-1-.448-1-1s.448-1 1-1 1 .448 1 1-.448 1-1 1z"/></g></svg>