<svg width="24" height="24" viewBox="0 0 24 24" fill="none" xmlns="http://www.w3.org/2000/svg">
<path fill-rule="evenodd" clip-rule="evenodd" d="M18.193 13.5009C16.6 13.5009 14.981 13.0459 13.269 12.5659C11.501 12.0699 9.673 11.5559 7.805 11.5559C6.805 11.5559 5.884 11.7009 5 11.9949V2.0859C5.865 1.6929 6.787 1.4989 7.803 1.4989C9.396 1.4989 11.015 1.9549 12.728 2.4369C14.496 2.9339 16.325 3.4489 18.195 3.4489C19.19 3.4489 20.118 3.3039 21 3.0089V12.9129C20.134 13.3079 19.21 13.5009 18.193 13.5009Z" fill="#FAD00A"/>
<path fill-rule="evenodd" clip-rule="evenodd" d="M4 0C4.55228 0 5 0.447715 5 1V23C5 23.5523 4.55228 24 4 24C3.44772 24 3 23.5523 3 23V1C3 0.447715 3.44772 0 4 0Z" fill="#A68E19"/>
</svg>
