<svg width="16" height="16" viewBox="0 0 16 16" fill="none" xmlns="http://www.w3.org/2000/svg">
<path fill-rule="evenodd" clip-rule="evenodd" d="M12.1287 9.0006C11.0667 9.0006 9.98733 8.69727 8.846 8.37727C7.66733 8.0466 6.44867 7.70393 5.20333 7.70393C4.53667 7.70393 3.58933 7.8006 3 7.9966V1.3906C3.57667 1.1286 4.52467 0.999268 5.202 0.999268C6.264 0.999268 7.34333 1.30327 8.48533 1.6246C9.664 1.95593 10.8833 2.29927 12.13 2.29927C12.7933 2.29927 13.412 2.2026 14 2.00593V8.6086C13.4227 8.87193 12.8067 9.0006 12.1287 9.0006Z" fill="#FAD00A"/>
<path fill-rule="evenodd" clip-rule="evenodd" d="M3 0.97467V15.0213C3 15.2974 2.77614 15.5213 2.5 15.5213C2.22386 15.5213 2 15.2974 2 15.0213V0.97467C2 0.698528 2.22386 0.47467 2.5 0.47467C2.77614 0.47467 3 0.698528 3 0.97467Z" fill="#A68E19"/>
</svg>
