<svg xmlns="http://www.w3.org/2000/svg" width="128" height="128" viewBox="0 0 128 128"><g fill="none" fill-rule="evenodd"><path fill="#FF0000" d="M20.0851278,2 L79.5,2 L110.5,38.1666667 L110.5,123.418883 C110.5,124.841113 109.342917,126 107.915583,126 L20.0844169,126 C18.6590297,126 17.5,124.840455 17.5,123.410084 L17.5,4.58991623 C17.5,3.14837104 18.6574011,2 20.0851278,2 Z"/><polygon fill="#FFAFAF" points="79.5 2 79.5 38.167 110.5 38.167"/><path fill="#6A1414" d="M49.68152,46.5003773 C50.5099472,46.5003773 51.18152,47.1719501 51.18152,48.0003773 L51.18152,53.0003773 C51.18152,53.8288044 50.5099472,54.5003773 49.68152,54.5003773 C48.8530929,54.5003773 48.18152,53.8288044 48.18152,53.0003773 L48.18152,48.0003773 C48.18152,47.1719501 48.8530929,46.5003773 49.68152,46.5003773 Z M76.68152,46.5003773 C77.5099472,46.5003773 78.18152,47.1719501 78.18152,48.0003773 L78.18152,53.0003773 C78.18152,53.8288044 77.5099472,54.5003773 76.68152,54.5003773 C75.8530929,54.5003773 75.18152,53.8288044 75.18152,53.0003773 L75.18152,48.0003773 C75.18152,47.1719501 75.8530929,46.5003773 76.68152,46.5003773 Z M68.1322036,61.0003773 C68.9606307,61.0003773 69.6322036,61.6719501 69.6322036,62.5003773 C69.6322036,63.3288044 68.9606307,64.0003773 68.1322036,64.0003773 L58.4992377,64.0003773 L63.3998207,46.1042108 C63.6186174,45.3051992 64.443714,44.8348421 65.2427256,45.0536388 C66.0417372,45.2724356 66.5120942,46.0975322 66.2932975,46.8965438 L62.4311852,61.0003773 L68.1322036,61.0003773 Z M50.120162,76.5001294 C49.3657614,76.8424323 48.4767076,76.5083612 48.1344046,75.7539606 C47.7921017,74.9995601 48.1261728,74.1105062 48.8805734,73.7682033 C58.7339589,69.2973122 68.7415814,69.2973122 78.7907106,73.7634414 C79.5477411,74.099888 79.8886916,74.9863264 79.552245,75.7433569 C79.2157983,76.5003874 78.32936,76.8413379 77.5723295,76.5048913 C68.3024483,72.3850829 59.1893025,72.3850829 50.120162,76.5001294 Z"/><g transform="translate(74 82)"><path fill="#FAD00A" d="M21.0142739,6.44497224 C22.6634737,3.37824578 25.3335153,3.37110569 26.9865548,6.44497224 L45.1695708,40.2567243 C46.8187707,43.3234508 45.3495137,45.8095238 41.8399448,45.8095238 L6.16088391,45.8095238 C2.67278241,45.8095238 1.17821833,43.3305909 2.83125792,40.2567243 L21.0142739,6.44497224 Z"/><path fill="#212121" d="M26.1081464,33.2140521 L21.9598583,33.2140521 L21.0927981,16 L26.9752066,16 L26.1081464,33.2140521 Z M24,42 C22.3431458,42 21,40.6568542 21,39 C21,37.3431458 22.3431458,36 24,36 C25.6568542,36 27,37.3431458 27,39 C27,40.6568542 25.6568542,42 24,42 Z"/></g></g></svg>