<svg xmlns="http://www.w3.org/2000/svg" width="32" height="32" viewBox="0 0 32 32"><g fill="none" fill-rule="evenodd"><g fill-rule="nonzero"><polygon fill="#A7A5A6" points="29 31 6 31 6 1 22 1 29 9"/><polygon fill="#FFFFFF" points="7 30 7 2 21.5 2 28 9.5 28 30"/><path fill="#A7A5A6" d="M9,5 L19,5 L19,6 L9,6 L9,5 Z M9,8 L20,8 L20,9 L9,9 L9,8 Z M9,11 L26,11 L26,12 L9,12 L9,11 Z M9,14 L26,14 L26,15 L9,15 L9,14 Z M9,17 L26,17 L26,18 L9,18 L9,17 Z M9,20 L26,20 L26,21 L9,21 L9,20 Z M9,23 L26,23 L26,24 L9,24 L9,23 Z M9,26 L26,26 L26,27 L9,27 L9,26 Z"/></g><polygon fill="#FFFFFF" points="22 2.5 27.5 9 22 9"/><polygon fill="#A7A5A6" points="22 9 29 9 29 10 21 10 21 1.5 22 1.5"/><g fill-rule="nonzero"><polygon fill="#FFFFFF" points="7 9.5 7 28 16 29.5 16 8"/><polygon fill="#2B579A" points="15 9.216 15 28.318 3 26.5 3 11"/></g><polygon fill="#FFFFFF" points="8.028 23 8.028 21.08 9.972 21.08 9.972 23"/></g></svg>