<svg width="24" height="24" viewBox="0 0 24 24" fill="none" xmlns="http://www.w3.org/2000/svg">
<g id="m/message_purple/message_purple_24x24">
<path id="MainShape" fill-rule="evenodd" clip-rule="evenodd" d="M12 2C18.6286 2 24 5.87328 24 10.6517C24 13.7698 21.7062 16.4922 18.276 18.0158L21.384 23L13.4298 19.2359C12.9609 19.2758 12.4846 19.3033 12 19.3033C5.37046 19.3033 0 15.43 0 10.6517C0 5.87328 5.37046 2 12 2Z" fill="#7A71BB"/>
<path id="Text" fill-rule="evenodd" clip-rule="evenodd" d="M6 7.5C6 7.22386 6.22386 7 6.5 7H17.5C17.7761 7 18 7.22386 18 7.5C18 7.77614 17.7761 8 17.5 8H6.5C6.22386 8 6 7.77614 6 7.5ZM6 10.5C6 10.2239 6.22386 10 6.5 10H17.5C17.7761 10 18 10.2239 18 10.5C18 10.7761 17.7761 11 17.5 11H6.5C6.22386 11 6 10.7761 6 10.5ZM6 13.5C6 13.2239 6.22386 13 6.5 13H17.5C17.7761 13 18 13.2239 18 13.5C18 13.7761 17.7761 14 17.5 14H6.5C6.22386 14 6 13.7761 6 13.5Z" fill="white"/>
</g>
</svg>
