<?xml version="1.0" encoding="UTF-8"?><svg xmlns="http://www.w3.org/2000/svg" width="24" height="24" viewBox="0 0 24 24"><title>u/user_portal/user_portal_24x24</title><g fill="none" fill-rule="evenodd"><path d="M0 0h24v24H0z"/><path fill="#0D6FE0" d="M4.705 14.03C1.845 14.944 0 16.382 0 18c0 2.76 5.373 5 12 5s12-2.24 12-5c0-1.577-1.75-2.983-4.487-3.9.11.32.173.668.173 1.046v.292c.833.455 1.314.99 1.314 1.562 0 1.657-4.03 3-9 3s-9-1.343-9-3c0-.614.553-1.184 1.5-1.66v-.194c0-.404.073-.776.205-1.116z"/><path fill="#F00" d="M18.686 15.146c0-1.6-1.698-2.256-2.346-2.374-.648-.117-.778-.178-1.174-.347-.072-.027-.416-.455-.44-.48-.227-.23-4.438-.23-4.665 0-.023.025-.554.295-.625.322-.49.158-.96.35-1.674.505-.712.157-2.26.876-2.26 2.374 0 1.497.124 3.21 1.296 3.598 1.17.388 3.41.633 5.254.626 2.213.01 4.29-.306 5.468-.63 1.18-.32 1.168-1.994 1.168-3.594z"/><path fill="#F2B566" d="M15.213 12.515c-.884-1.397-.884-2.603-.884-3.763.47-.74-4.743-.74-4.273 0 0 1.16.195 2.978-.75 4.078-.026.03 4.553 1.68 5.906-.315z"/><path fill="#FBBB69" d="M14.508 10.67c.556-.513 1.106-1.002 1.26-1.734.256-1.2.39-3.005.272-3.7.297-.31 0-1.7 0-2.32 0-.623-.905-2.274-6.69-1.225-.068-.015-1.533 3.293-1.29 3.547-.12.694.017 2.5.27 3.7.255 1.2.99 1.733 1.762 1.9.772.166 3.86.345 4.416-.167z"/><path fill="#B26714" d="M9.14 4.605c.646-.533 4.13-.978 4.738-2.01.18.28.18.123.18.77s0 .784-.18 1.24c.67-.167.898-.53 1.083-.934 1.15.9 1.006 2.85 1.006 3.76.297-.3.593-2.065.593-2.663 0-.598.125-3.922-3.742-4.674-.07-.016-.14-.023-.21-.04-.277-.066-.847-.075-1.115 0-.07.02-.14.024-.21.04C7.414.845 7.54 4.17 7.54 4.767c0 .598.293 1.887.59 2.186-.024.13.364-1.815 1.01-2.348z"/><path fill="#FFF" d="M11.03 15.018l-2.085-2.663 1.005-.98 1.642 1.906-.563 1.738zm2.633 0L13.1 13.28l1.642-1.906.91 1.162-1.99 2.482z"/></g></svg>