<?xml version="1.0" encoding="UTF-8"?><svg xmlns="http://www.w3.org/2000/svg" width="16" height="16" viewBox="0 0 16 16"><title>f/file_preview_ic_action/file_preview_ic_action_16x16</title><g fill="none" fill-rule="evenodd"><path d="M0 0h16v16H0z"/><path fill="#4789F5" fill-rule="nonzero" d="M15 14.584V4l-4-4H2c-.552 0-1 .45-1 1L.99 15c0 .552.457 1 1.01 1h11.58l-3.7-3.7c-.69.44-1.51.7-2.39.7C5.01 13 3 10.99 3 8.5S5.01 4 7.5 4 12 6.01 12 8.5c0 .88-.26 1.69-.7 2.39l3.7 3.694zM7.5 6C8.88 6 10 7.12 10 8.5S8.88 11 7.5 11 5 9.88 5 8.5 6.12 6 7.5 6z"/></g></svg>