<svg width="16" height="16" viewBox="0 0 16 16" fill="none" xmlns="http://www.w3.org/2000/svg">
<g id="r/refresh_green_darkgreen_arrow/refresh_green_darkgreen_arrow_16x16">
<path id="path-2" fill-rule="evenodd" clip-rule="evenodd" d="M13.1393 5.09014L10.2937 8.62776H12.0086C11.846 10.7041 10.0947 12.3445 7.96596 12.3445C7.06764 12.3445 6.21386 12.0545 5.49774 11.5064L5.4765 11.4902L4.06836 13.2671L4.08511 13.2797C5.2081 14.1491 6.54965 14.6086 7.96596 14.6086C11.3505 14.6086 14.1238 11.9537 14.2897 8.62776H15.9397L13.1393 5.09014Z" fill="#3BB100"/>
<path id="path-1" fill-rule="evenodd" clip-rule="evenodd" d="M10.4434 5.12589L11.865 3.35789C10.7396 2.48079 9.39394 2.01442 7.96497 2.01442C4.58046 2.01442 1.80668 4.66926 1.64082 7.99523H0.0214844L2.81202 11.5361L5.61849 7.99523H3.92194C4.08494 5.91889 5.83582 4.27845 7.96538 4.27845C8.8735 4.27845 9.72688 4.57298 10.4434 5.12589Z" fill="#57D31A"/>
</g>
</svg>
