<svg width="24" height="24" viewBox="0 0 24 24" fill="none" xmlns="http://www.w3.org/2000/svg">
<g id="m/mime_calc_generic/mime_calc_generic_24x24">
<g id="24/baseshape">
<g id="24/baseshape_2">
<path id="OutsideBorder" fill-rule="evenodd" clip-rule="evenodd" d="M24 22.4998C24 22.776 23.7724 23 23.4998 23H6.50021C6.22395 23 6 22.7823 6 22.4992V1.50084C6 1.22423 6.21991 1 6.49827 1H20L24 5V22.4998Z" fill="#ECF0F4"/>
</g>
<g id="Group">
<path id="Rectangle-path" fill-rule="evenodd" clip-rule="evenodd" d="M13 18H17V21H13V18Z" fill="#86BFA0"/>
<path id="Rectangle-path_2" fill-rule="evenodd" clip-rule="evenodd" d="M18 18H22V21H18V18Z" fill="#86BFA0"/>
<rect id="Rectangle-path_3" x="13" y="14" width="4" height="3" fill="#86BFA0"/>
<rect id="Rectangle-path_4" x="18" y="14" width="4" height="3" fill="#86BFA0"/>
<rect id="Rectangle-path_5" x="13" y="10" width="4" height="3" fill="#86BFA0"/>
<rect id="Rectangle-path_6" x="18" y="10" width="4" height="3" fill="#86BFA0"/>
<path id="Rectangle-path_7" fill-rule="evenodd" clip-rule="evenodd" d="M13 7H17V9H13V7Z" fill="#86BFA0"/>
<path id="Rectangle-path_8" fill-rule="evenodd" clip-rule="evenodd" d="M18 7H22V9H18V7Z" fill="#86BFA0"/>
<rect id="Rectangle-path_9" x="8" y="7" width="4" height="2" fill="#91A0AF"/>
<rect id="Rectangle-path_10" x="13" y="3" width="4" height="3" fill="#91A0AF"/>
<path id="Rectangle-path_11" fill-rule="evenodd" clip-rule="evenodd" d="M18 3H19L22 6H18V3Z" fill="#91A0AF"/>
<rect id="Rectangle-path_12" x="8" y="3" width="4" height="3" fill="#91A0AF"/>
</g>
</g>
<g id="24/corner">
<path id="InsideWhite" fill-rule="evenodd" clip-rule="evenodd" d="M20 1L24 5H20V1Z" fill="#D8E0E8"/>
</g>
<g id="24/chard/color/yellow">
<path id="Shape" d="M7 6V21L12 22V5L7 6Z" fill="#ECF0F4"/>
<path id="Chard" fill-rule="evenodd" clip-rule="evenodd" d="M11 6V21L1 19.5V7.5L11 6Z" fill="#207347"/>
</g>
<g id="24/chard/letter/z">
<path id="C" fill-rule="evenodd" clip-rule="evenodd" d="M6.43003 17.12C4.37003 17.12 2.84003 15.53 2.84003 13.52V13.5C2.84003 11.51 4.34003 9.88 6.49003 9.88C7.81003 9.88 8.60003 10.32 9.25003 10.96L8.27003 12.09C7.73003 11.6 7.18003 11.3 6.48003 11.3C5.30003 11.3 4.45003 12.28 4.45003 13.48V13.5C4.45003 14.7 5.28003 15.7 6.48003 15.7C7.28003 15.7 7.77003 15.38 8.32003 14.88L9.30003 15.87C8.58003 16.64 7.78003 17.12 6.43003 17.12Z" fill="white"/>
</g>
</g>
</svg>
