<?xml version="1.0" encoding="UTF-8" standalone="no"?>
<svg width="16px" height="16px" viewBox="0 0 16 16" version="1.1" xmlns="http://www.w3.org/2000/svg" xmlns:xlink="http://www.w3.org/1999/xlink">
    <!-- Generator: Sketch 43.2 (39069) - http://www.bohemiancoding.com/sketch -->
    <title>add2_disabled_16x16</title>
    <desc>Created with Sketch.</desc>
    <defs>
        <path d="M11,5 L11,0.242996216 C11,0.121030807 10.8845734,0 10.7421875,0 L5.2578125,0 C5.10414124,0 5,0.108793112 5,0.242996216 L5,5 L0.242996216,5 C0.121030807,5 0,5.11542659 0,5.2578125 L0,10.7421875 C0,10.8958588 0.108793112,11 0.242996216,11 L5,11 L5,15.7570038 C5,15.8789692 5.11542659,16 5.2578125,16 L10.7421875,16 C10.8958588,16 11,15.8912069 11,15.7570038 L11,11 L15.7570038,11 C15.8789692,11 16,10.8845734 16,10.7421875 L16,5.2578125 C16,5.10414124 15.8912069,5 15.7570038,5 L11,5 Z" id="path-1"></path>
    </defs>
    <g id="16,-24,-32-en-48-svg" stroke="none" stroke-width="1" fill="none" fill-rule="evenodd">
        <g id="add2_disabled_16x16">
            <use fill-opacity="0.3" fill="#888888" fill-rule="evenodd" xlink:href="#path-1"></use>
            <path stroke-opacity="0.2" stroke="#979797" stroke-width="0.25" d="M10.875,5 L11,5.125 L15.7570038,5.125 C15.8251501,5.125 15.875,5.17629021 15.875,5.2578125 L15.875,10.7421875 C15.875,10.8118938 15.8134513,10.875 15.7570038,10.875 L11,10.875 L10.875,11 L10.875,15.7570038 C10.875,15.8251501 10.8237098,15.875 10.7421875,15.875 L5.2578125,15.875 C5.18810621,15.875 5.125,15.8134513 5.125,15.7570038 L5.125,11 L5,10.875 L0.242996216,10.875 C0.174849879,10.875 0.125,10.8237098 0.125,10.7421875 L0.125,5.2578125 C0.125,5.18810621 0.186548658,5.125 0.242996216,5.125 L5,5.125 L5.125,5 L5.125,0.242996216 C5.125,0.174849879 5.17629021,0.125 5.2578125,0.125 L10.7421875,0.125 C10.8118938,0.125 10.875,0.186548658 10.875,0.242996216 L10.875,5 Z"></path>
        </g>
    </g>
</svg>