<?xml version="1.0" encoding="UTF-8" standalone="no"?>
<svg width="24px" height="24px" viewBox="0 0 24 24" version="1.1" xmlns="http://www.w3.org/2000/svg" xmlns:xlink="http://www.w3.org/1999/xlink">
    <!-- Generator: Sketch 43.2 (39069) - http://www.bohemiancoding.com/sketch -->
    <title>add2_disabled_24x24</title>
    <desc>Created with Sketch.</desc>
    <defs>
        <path d="M16,8 L16,1.50083613 C16,1.21774173 15.7759472,1 15.4995642,1 L8.50043583,1 C8.23079681,1 8,1.22423198 8,1.50083613 L8,8 L1.50083613,8 C1.21774173,8 1,8.22405275 1,8.50043583 L1,15.4995642 C1,15.7692032 1.22423198,16 1.50083613,16 L8,16 L8,22.4991639 C8,22.7822583 8.22405275,23 8.50043583,23 L15.4995642,23 C15.7692032,23 16,22.775768 16,22.4991639 L16,16 L22.4991639,16 C22.7822583,16 23,15.7759472 23,15.4995642 L23,8.50043583 C23,8.23079681 22.775768,8 22.4991639,8 L16,8 Z" id="path-1"></path>
    </defs>
    <g id="16,-24,-32-en-48-svg" stroke="none" stroke-width="1" fill="none" fill-rule="evenodd">
        <g id="add2_disabled_24x24">
            <use fill-opacity="0.3" fill="#888888" fill-rule="evenodd" xlink:href="#path-1"></use>
            <path stroke-opacity="0.2" stroke="#979797" stroke-width="0.5" d="M15.75,8 L15.75,8.25 L16,8.25 L22.4991639,8.25 C22.6349113,8.25 22.75,8.36606722 22.75,8.50043583 L22.75,15.4995642 C22.75,15.6405924 22.641485,15.75 22.4991639,15.75 L16,15.75 L15.75,15.75 L15.75,16 L15.75,22.4991639 C15.75,22.6349113 15.6339328,22.75 15.4995642,22.75 L8.50043583,22.75 C8.35940758,22.75 8.25,22.641485 8.25,22.4991639 L8.25,16 L8.25,15.75 L8,15.75 L1.50083613,15.75 C1.36508874,15.75 1.25,15.6339328 1.25,15.4995642 L1.25,8.50043583 C1.25,8.35940758 1.35851499,8.25 1.50083613,8.25 L8,8.25 L8.25,8.25 L8.25,8 L8.25,1.50083613 C8.25,1.36508874 8.36606722,1.25 8.50043583,1.25 L15.4995642,1.25 C15.6405924,1.25 15.75,1.35851499 15.75,1.50083613 L15.75,8 Z"></path>
        </g>
    </g>
</svg>