<svg width="64" height="64" viewBox="0 0 64 64" fill="none" xmlns="http://www.w3.org/2000/svg">
<g id="m/mime_ibook/mime_ibook_64x64">
<g id="64/baseshape">
<g id="64/baseshape_2">
<path id="OutsideBorder" d="M58 60C58 61.1046 57.1046 62 56 62H15C13.8954 62 13 61.1046 13 60V4C13 2.89543 13.8954 2 15 2H44L58 17V60Z" fill="#ECF0F4"/>
</g>
<path id="Spiral 2" fill-rule="evenodd" clip-rule="evenodd" d="M28.8422 38.5637L46.5681 20L48.0764 22.0612L49.346 24.2243L50.371 26.4645L51.1484 28.7572L51.6773 31.0776L51.9598 33.4017L52 35.706L51.8046 37.9679L51.3825 40.1658L50.7443 42.2795L49.9028 44.2902L48.8724 46.1806L47.6688 47.9352L46.3093 49.5403L44.812 50.9841L43.1959 52.2567L41.4807 53.3503L39.6866 54.2591L37.834 54.9792L35.943 55.509L34.034 55.8486L32.1265 56L30.2398 55.9673L28.3921 55.756L26.6011 55.3735L24.8829 54.8286L23.2529 54.1315L21.7249 53.2935L20.3112 52.3273L19.0228 51.2462L17.869 50.0644L16.8575 48.7968L15.9944 47.4586L15.284 46.0653L14.7291 44.6324L14.3308 43.1756L14.0884 41.7103L14 40.2513L14.062 38.8132L14.2693 37.4098L14.6157 36.0544L15.0937 34.759L15.6947 33.535L16.409 32.3926L17.2262 31.341L18.135 30.3881L19.1237 29.5406L20.1801 28.8041L21.2915 28.1826L22.4451 27.6792L23.6282 27.2954L24.8279 27.0317L26.0318 26.8872L27.2276 26.8599L28.4035 26.9467L29.5482 27.1435L30.6512 27.445L31.7025 27.8453L32.6931 28.3373L33.6148 28.9135L34.4603 29.5657L35.2233 30.2851L35.8985 31.0626L36.4817 31.8885L36.9696 32.7533L37.3601 33.647L37.6522 34.5599L37.8457 35.4822L37.9415 36.4043L37.9416 37.3171L37.8486 38.2115L37.6662 39.0792L37.3989 39.9121L37.0517 40.703L36.6305 41.4449L36.1417 42.132L35.5922 42.7589L34.9892 43.321L34.3403 43.8146L33.6534 44.2366L32.9365 44.585L32.1978 44.8583L31.4452 45.0559L30.6867 45.1781L29.9301 45.2258L29.1831 45.2007L28.4527 45.1051L27.746 44.9422L27.0692 44.7153L26.4284 44.4288L25.829 44.0871L25.2757 43.6954L24.7729 43.259L24.324 42.7836L23.9321 42.2752L23.5995 41.7397L23.3278 41.1833L23.1179 40.6124L22.9701 40.0329L22.8842 39.4511L22.8593 38.8727L22.8938 38.3036L22.9856 37.7492L23.1321 37.2147L23.3304 36.7048L23.5769 36.2239L23.8677 35.7762L24.1986 35.365L24.5651 34.9935L24.9626 34.6642L25.3861 34.3793L25.8305 34.1404L26.2909 33.9484L26.7622 33.8041L27.2392 33.7073L27.717 33.6579L28.1908 33.6548L28.656 33.6967L29.108 33.782L29.5428 33.9085L29.9565 34.0737L30.3454 34.2749L30.7065 34.5091L31.0369 34.7728L31.3341 35.0626L31.5962 35.3748L31.8215 35.7056L32.0088 36.0512L32.1573 36.4076L32.2667 36.771L32.3369 37.1375L32.3685 37.5032L32.3623 37.8647L32.3193 38.2183L32.241 38.5607L32.1294 38.8889L31.9864 39.1998L31.8145 39.4909L31.6162 39.7599L31.3942 40.0046L31.1514 40.2233L30.891 40.4146L30.6161 40.5773L30.3297 40.7106L30.0352 40.8141L29.7358 40.8875L29.4345 40.931L29.1345 40.9451L28.8388 40.9303L28.5502 40.8878L28.2714 40.8187L28.0049 40.7245L27.7531 40.6069L27.518 40.4678L27.3016 40.3091L27.1054 40.1331L26.9309 39.9419L26.7792 39.738L26.6512 39.5238L26.5474 39.3018L26.4682 39.0743L26.4137 38.8439L26.3837 38.613L26.3778 38.3838L26.3954 38.1586L26.4355 37.9397L26.4973 37.7289L26.5793 37.5283L26.6803 37.3395L26.7985 37.164L26.9324 37.0033L27.0802 36.8585L27.2399 36.7307L27.4096 36.6206L27.5873 36.5289L27.7709 36.4558L27.9586 36.4017L28.1482 36.3664L28.3378 36.3499L28.5255 36.3517L28.7094 36.3713L28.8879 36.408L29.0592 36.4609L29.2219 36.529L29.3746 36.6112L29.516 36.7062L29.645 36.8128L29.7607 36.9294L29.8624 37.0547L29.9493 37.1872L30.0211 37.3253L30.0775 37.4674L30.1183 37.612L30.1436 37.7575L30.1536 37.9026L30.1486 38.0457L30.1292 38.1854L30.0958 38.3205L30.0493 38.4498L29.9906 38.572L29.9205 38.6861L29.84 38.7914L29.7504 38.8869L29.6528 38.9719L29.5483 39.046L29.4383 39.1087L29.324 39.1596L29.2066 39.1987L29.0875 39.2258L28.9679 39.2411L28.849 39.2448L28.7319 39.237L28.6179 39.2183L28.508 39.1892L28.4031 39.1502L28.212 39.0454L28.0509 38.9102L27.9244 38.7516L27.8356 38.5774L27.7858 38.3952L27.7747 38.2128L27.8007 38.0373L27.8605 37.8753L27.9498 37.7324L28.0635 37.6133L28.1956 37.5212L28.3398 37.4582L28.4899 37.4253L28.6394 37.4219L28.7826 37.4465L28.914 37.4966L29.0293 37.5686L29.1247 37.6586L29.1976 37.7619L29.2464 37.8736L29.2706 37.989L29.2619 38.1583L29.2044 38.3105L29.1071 38.4337L28.9819 38.5195L28.8422 38.5637Z" fill="#91A0AF"/>
</g>
<g id="64/corner">
<path id="InsideWhite" fill-rule="evenodd" clip-rule="evenodd" d="M44 17V2L58 17H44Z" fill="#D8E0E8"/>
</g>
<g id="64/chard/color/yellow">
<path id="Shape" d="M14 19V56L32 59V16L14 19Z" fill="#ECF0F4"/>
<path id="Chard" d="M30 18.4318V56.6364L6 53V22L30 18.4318Z" fill="#FF9C0E"/>
</g>
<g id="64/chard/letter/a">
<path id="I" fill-rule="evenodd" clip-rule="evenodd" d="M16.1519 46V29.2H19.8479V46H16.1519Z" fill="white"/>
</g>
</g>
</svg>
