<svg width="32" height="32" viewBox="0 0 32 32" fill="none" xmlns="http://www.w3.org/2000/svg">
<g id="m/mime_ibook/mime_ibook_32x32">
<g id="32/baseshape">
<g id="32/baseshape_2">
<path id="OutsideBorder" d="M29 30C29 30.5523 28.5523 31 28 31H7C6.44772 31 6 30.5523 6 30V2C6 1.44772 6.44772 1 7 1H22L29 9V30Z" fill="#ECF0F4"/>
</g>
<path id="Spiral 2" fill-rule="evenodd" clip-rule="evenodd" d="M14.0305 19.2818L22.427 10L23.1414 11.0306L23.7428 12.1121L24.2284 13.2323L24.5966 14.3786L24.8472 15.5388L24.9809 16.7009L25 17.853L24.9075 18.9839L24.7075 20.0829L24.4052 21.1397L24.0066 22.1451L23.5185 23.0903L22.9484 23.9676L22.3044 24.7702L21.5951 25.4921L20.8296 26.1284L20.0172 26.6752L19.1674 27.1295L18.2898 27.4896L17.3941 27.7545L16.4898 27.9243L15.5862 28L14.6925 27.9836L13.8173 27.878L12.9689 27.6868L12.1551 27.4143L11.383 27.0657L10.6592 26.6468L9.98952 26.1636L9.37922 25.6231L8.83268 25.0322L8.35356 24.3984L7.94471 23.7293L7.60822 23.0326L7.34537 22.3162L7.15667 21.5878L7.04188 20.8551L7 20.1256L7.02935 19.4066L7.12756 18.7049L7.29166 18.0272L7.51808 17.3795L7.80274 16.7675L8.14109 16.1963L8.52818 15.6705L8.95869 15.194L9.42703 14.7703L9.92741 14.402L10.4539 14.0913L11.0003 13.8396L11.5607 13.6477L12.129 13.5158L12.6993 13.4436L13.2657 13.43L13.8227 13.4734L14.3649 13.5718L14.8874 13.7225L15.3854 13.9226L15.8546 14.1687L16.2912 14.4568L16.6917 14.7829L17.0531 15.1426L17.373 15.5313L17.6492 15.9443L17.8803 16.3766L18.0653 16.8235L18.2037 17.2799L18.2953 17.7411L18.3407 18.2022L18.3407 18.6585L18.2967 19.1058L18.2103 19.5396L18.0837 19.9561L17.9192 20.3515L17.7197 20.7225L17.4882 21.066L17.2279 21.3795L16.9422 21.6605L16.6349 21.9073L16.3095 22.1183L15.9699 22.2925L15.62 22.4291L15.2635 22.5279L14.9042 22.589L14.5459 22.6129L14.192 22.6003L13.846 22.5526L13.5112 22.4711L13.1907 22.3577L12.8871 22.2144L12.6032 22.0436L12.3411 21.8477L12.1029 21.6295L11.8903 21.3918L11.7047 21.1376L11.5471 20.8698L11.4184 20.5917L11.319 20.3062L11.249 20.0165L11.2083 19.7255L11.1965 19.4364L11.2128 19.1518L11.2563 18.8746L11.3257 18.6073L11.4197 18.3524L11.5364 18.112L11.6742 17.8881L11.8309 17.6825L12.0045 17.4967L12.1928 17.3321L12.3934 17.1897L12.6039 17.0702L12.822 16.9742L13.0452 16.902L13.2712 16.8537L13.4975 16.8289L13.722 16.8274L13.9423 16.8484L14.1564 16.891L14.3624 16.9542L14.5583 17.0369L14.7426 17.1375L14.9136 17.2545L15.0701 17.3864L15.2109 17.5313L15.335 17.6874L15.4417 17.8528L15.5305 18.0256L15.6008 18.2038L15.6526 18.3855L15.6859 18.5687L15.7009 18.7516L15.6979 18.9324L15.6775 19.1092L15.6405 19.2804L15.5876 19.4444L15.5199 19.5999L15.4384 19.7455L15.3445 19.8799L15.2393 20.0023L15.1244 20.1116L15.001 20.2073L14.8708 20.2886L14.7351 20.3553L14.5956 20.407L14.4538 20.4438L14.3111 20.4655L14.169 20.4725L14.0289 20.4652L13.8922 20.4439L13.7601 20.4094L13.6339 20.3623L13.5146 20.3035L13.4033 20.2339L13.3008 20.1546L13.2078 20.0665L13.1252 19.971L13.0533 19.869L12.9927 19.7619L12.9435 19.6509L12.906 19.5372L12.8802 19.422L12.8659 19.3065L12.8632 19.1919L12.8715 19.0793L12.8905 18.9698L12.9198 18.8645L12.9586 18.7641L13.0064 18.6697L13.0625 18.582L13.1259 18.5017L13.1959 18.4293L13.2715 18.3654L13.3519 18.3103L13.4361 18.2644L13.5231 18.2279L13.612 18.2008L13.7018 18.1832L13.7916 18.175L13.8805 18.1759L13.9676 18.1857L14.0522 18.204L14.1333 18.2304L14.2104 18.2645L14.2827 18.3056L14.3497 18.3531L14.4108 18.4064L14.4656 18.4647L14.5138 18.5274L14.5549 18.5936L14.589 18.6626L14.6157 18.7337L14.635 18.806L14.647 18.8788L14.6517 18.9513L14.6494 19.0228L14.6401 19.0927L14.6243 19.1603L14.6023 19.2249L14.5745 19.286L14.5413 19.3431L14.5032 19.3957L14.4607 19.4434L14.4145 19.486L14.365 19.523L14.3129 19.5543L14.2587 19.5798L14.2031 19.5993L14.1467 19.6129L14.09 19.6206L14.0337 19.6224L13.9783 19.6185L13.9243 19.6092L13.8722 19.5946L13.8225 19.5751L13.732 19.5227L13.6557 19.4551L13.5958 19.3758L13.5537 19.2887L13.5301 19.1976L13.5249 19.1064L13.5372 19.0186L13.5655 18.9376L13.6078 18.8662L13.6616 18.8066L13.7242 18.7606L13.7926 18.7291L13.8636 18.7126L13.9345 18.7109L14.0023 18.7232L14.0645 18.7483L14.1191 18.7843L14.1643 18.8293L14.1989 18.8809L14.222 18.9368L14.2335 18.9945L14.2293 19.0792L14.2021 19.1553L14.156 19.2168L14.0967 19.2597L14.0305 19.2818Z" fill="#91A0AF"/>
</g>
<g id="32/corner">
<path id="InsideWhite" fill-rule="evenodd" clip-rule="evenodd" d="M22 1L29 9H22V1Z" fill="#D8E0E8"/>
</g>
<g id="64/chard/color/yellow">
<path id="Shape" d="M7 9.5V28L16 29.5V8L7 9.5Z" fill="#ECF0F4"/>
<path id="Chard" d="M15 9.2159V28.3182L3 26.5V11L15 9.2159Z" fill="#FF9C0E"/>
</g>
<g id="64/chard/letter/a">
<path id="I" fill-rule="evenodd" clip-rule="evenodd" d="M8.07617 23V14.6H9.92417V23H8.07617Z" fill="white"/>
</g>
</g>
</svg>
