<svg width="16" height="16" viewBox="0 0 16 16" fill="none" xmlns="http://www.w3.org/2000/svg">
<g id="m/mime_ibook/mime_ibook_16x16">
<g id="16/baseshape">
<g id="16/baseshape_2">
<path id="OutsideBorder" d="M3 0V16H16V4L12 0H3Z" fill="#ECF0F4"/>
</g>
<path id="Spiral 2" fill-rule="evenodd" clip-rule="evenodd" d="M7.51525 9.64091L11.7135 5L12.0707 5.5153L12.3714 6.05607L12.6142 6.61613L12.7983 7.18929L12.9236 7.7694L12.9905 8.35043L13 8.9265L12.9537 9.49196L12.8537 10.0414L12.7026 10.5699L12.5033 11.0725L12.2593 11.5451L11.9742 11.9838L11.6522 12.3851L11.2976 12.746L10.9148 13.0642L10.5086 13.3376L10.0837 13.5648L9.64489 13.7448L9.19703 13.8773L8.74489 13.9621L8.29312 14L7.84626 13.9918L7.40866 13.939L6.98446 13.8434L6.57754 13.7071L6.19149 13.5329L5.82958 13.3234L5.49476 13.0818L5.18961 12.8115L4.91634 12.5161L4.67678 12.1992L4.47236 11.8647L4.30411 11.5163L4.17268 11.1581L4.07834 10.7939L4.02094 10.4276L4 10.0628L4.01467 9.7033L4.06378 9.35246L4.14583 9.01359L4.25904 8.68974L4.40137 8.38374L4.57055 8.09815L4.76409 7.83525L4.97934 7.59702L5.21352 7.38516L5.4637 7.20102L5.72693 7.04565L6.00016 6.91979L6.28036 6.82385L6.56451 6.75792L6.84964 6.72179L7.13285 6.71498L7.41135 6.73669L7.68247 6.78588L7.9437 6.86126L8.1927 6.96132L8.42732 7.08433L8.64562 7.22838L8.84586 7.39143L9.02657 7.57128L9.18648 7.76564L9.3246 7.97213L9.44017 8.18831L9.53267 8.41175L9.60184 8.63997L9.64767 8.87054L9.67037 9.10108L9.67037 9.32927L9.64835 9.55288L9.60516 9.7698L9.54184 9.97803L9.45962 10.1757L9.35987 10.3612L9.2441 10.533L9.11394 10.6897L8.97112 10.8303L8.81743 10.9537L8.65475 11.0592L8.48497 11.1462L8.31 11.2146L8.13175 11.264L7.95211 11.2945L7.77293 11.3064L7.59599 11.3002L7.42301 11.2763L7.25562 11.2355L7.09534 11.1788L6.94357 11.1072L6.8016 11.0218L6.67056 10.9239L6.55147 10.8148L6.44516 10.6959L6.35235 10.5688L6.27357 10.4349L6.20921 10.2958L6.15949 10.1531L6.1245 10.0082L6.10416 9.86276L6.09826 9.71818L6.10642 9.57591L6.12816 9.43731L6.16287 9.30367L6.20983 9.1762L6.2682 9.05599L6.33708 8.94404L6.41545 8.84124L6.50227 8.74837L6.5964 8.66606L6.6967 8.59484L6.80197 8.5351L6.91101 8.48711L7.02262 8.45102L7.1356 8.42684L7.24877 8.41447L7.36099 8.41369L7.47115 8.42418L7.57822 8.4455L7.68119 8.47712L7.77916 8.51843L7.87128 8.56874L7.9568 8.62727L8.03505 8.69319L8.10545 8.76564L8.16752 8.84369L8.22087 8.9264L8.26523 9.01279L8.30041 9.1019L8.32632 9.19274L8.34296 9.28436L8.35044 9.37581L8.34895 9.46618L8.33877 9.55458L8.32024 9.64018L8.2938 9.72221L8.25995 9.79995L8.21922 9.87273L8.17225 9.93996L8.11967 10.0011L8.06218 10.0558L8.00051 10.1036L7.93538 10.1443L7.86757 10.1777L7.79782 10.2035L7.72689 10.2219L7.65554 10.2328L7.5845 10.2363L7.51446 10.2326L7.4461 10.2219L7.38007 10.2047L7.31695 10.1811L7.25731 10.1517L7.20164 10.1169L7.15038 10.0773L7.10392 10.0333L7.06259 9.98548L7.02666 9.93451L6.99633 9.88096L6.97175 9.82545L6.95299 9.76858L6.94008 9.71098L6.93297 9.65324L6.93158 9.59594L6.93574 9.53966L6.94526 9.48492L6.95988 9.43224L6.97931 9.38207L7.00322 9.33487L7.03123 9.291L7.06294 9.25083L7.09794 9.21464L7.13576 9.18268L7.17595 9.15516L7.21804 9.13222L7.26154 9.11395L7.30598 9.10042L7.35089 9.09161L7.39579 9.08748L7.44024 9.08793L7.48381 9.09283L7.52608 9.102L7.56665 9.11522L7.60519 9.13225L7.64135 9.15279L7.67484 9.17655L7.7054 9.20319L7.73281 9.23236L7.75688 9.26369L7.77747 9.2968L7.79448 9.33131L7.80783 9.36684L7.8175 9.40299L7.82349 9.43938L7.82586 9.47565L7.82468 9.51142L7.82006 9.54636L7.81217 9.58013L7.80116 9.61244L7.78724 9.64299L7.77064 9.67154L7.75159 9.69784L7.73036 9.72171L7.70724 9.74298L7.6825 9.7615L7.65644 9.77716L7.62936 9.7899L7.60156 9.79967L7.57335 9.80646L7.54502 9.81028L7.51686 9.81119L7.48914 9.80926L7.46214 9.80458L7.43609 9.79729L7.41125 9.78754L7.366 9.76134L7.32784 9.72754L7.29788 9.68791L7.27685 9.64435L7.26505 9.5988L7.26244 9.55319L7.26858 9.50932L7.28274 9.46882L7.3039 9.43311L7.33082 9.40332L7.36211 9.3803L7.39628 9.36456L7.43181 9.35632L7.46723 9.35547L7.50113 9.36162L7.53227 9.37414L7.55957 9.39216L7.58216 9.41465L7.59943 9.44047L7.611 9.46841L7.61673 9.49725L7.61467 9.53959L7.60104 9.57763L7.578 9.60842L7.54835 9.62987L7.51525 9.64091Z" fill="#91A0AF"/>
</g>
<g id="16/corner">
<path id="InsideWhite" d="M12 4V0V0L16 4V4H12Z" fill="#D8E0E8"/>
</g>
<g id="16/chard/color/aqua">
<path id="Shape" fill-rule="evenodd" clip-rule="evenodd" d="M4 2.66077V14.2205L8 15V2L4 2.66077Z" fill="#ECF0F4"/>
<path id="Chard" d="M0 4L7 3V14L0 12.9V4Z" fill="#FF9C0E"/>
</g>
<g id="16/chard/letter/a">
<path id="I" fill-rule="evenodd" clip-rule="evenodd" d="M2.98682 10.5V5.83333H4.01348V10.5H2.98682Z" fill="white"/>
</g>
</g>
</svg>
