<svg width="24" height="24" viewBox="0 0 24 24" fill="none" xmlns="http://www.w3.org/2000/svg">
<g id="m/mime_ibook/mime_ibook_24x24">
<g id="24/baseshape">
<g id="24/baseshape_2">
<path id="OutsideBorder" fill-rule="evenodd" clip-rule="evenodd" d="M24 22.4998C24 22.776 23.7724 23 23.4998 23H6.50021C6.22395 23 6 22.7823 6 22.4992V1.50084C6 1.22423 6.21991 1 6.49827 1H20L24 5V22.4998Z" fill="#ECF0F4"/>
</g>
<path id="Spiral 2" fill-rule="evenodd" clip-rule="evenodd" d="M12.4389 13.7066L18.9695 6.48856L19.5251 7.29001L19.9929 8.13107L20.3706 9.00213L20.6569 9.89356L20.8518 10.7958L20.9559 11.6995L20.9707 12.5954L20.8987 13.4749L20.7432 14.3295L20.5081 15.1514L20.1981 15.9332L19.8184 16.6682L19.375 17.3504L18.8741 17.9746L18.3225 18.5359L17.7271 19.0308L17.0952 19.456L16.4342 19.8093L15.7516 20.0893L15.055 20.2953L14.3516 20.4274L13.6489 20.4862L12.9538 20.4735L12.2731 20.3914L11.6132 20.2426L10.9802 20.0308L10.3797 19.7597L9.81671 19.4339L9.29588 19.0582L8.82121 18.6378L8.39612 18.1783L8.02347 17.6855L7.70548 17.1651L7.44376 16.6234L7.23932 16.0662L7.09256 15.4998L7.00327 14.93L6.9707 14.3628L6.99353 13.8036L7.06992 13.2579L7.19755 12.7309L7.37365 12.2272L7.59506 11.7513L7.85822 11.3071L8.15928 10.8982L8.49412 10.5277L8.85839 10.1982L9.24757 9.91179L9.65703 9.67016L10.0821 9.47441L10.5179 9.32518L10.9599 9.22264L11.4035 9.16646L11.844 9.15586L12.2772 9.18962L12.699 9.26613L13.1054 9.38337L13.4927 9.53899L13.8576 9.7303L14.1972 9.95436L14.5087 10.2079L14.7898 10.4877L15.0386 10.79L15.2534 11.1111L15.4332 11.4473L15.5771 11.7948L15.6847 12.1498L15.756 12.5084L15.7913 12.867L15.7913 13.2219L15.757 13.5696L15.6898 13.907L15.5913 14.2309L15.4634 14.5384L15.3083 14.8269L15.1282 15.094L14.9257 15.3378L14.7035 15.5563L14.4645 15.7483L14.2114 15.9124L13.9473 16.0478L13.6751 16.1541L13.3979 16.2309L13.1184 16.2784L12.8397 16.297L12.5645 16.2872L12.2954 16.2501L12.035 16.1867L11.7857 16.0985L11.5496 15.9871L11.3287 15.8542L11.1249 15.7019L10.9397 15.5322L10.7743 15.3474L10.6299 15.1497L10.5074 14.9415L10.4072 14.7252L10.3299 14.5031L10.2755 14.2778L10.2438 14.0516L10.2347 13.8267L10.2474 13.6055L10.2812 13.3899L10.3352 13.182L10.4082 12.9838L10.499 12.7968L10.6062 12.6227L10.7281 12.4628L10.8631 12.3184L11.0096 12.1904L11.1656 12.0796L11.3293 11.9867L11.4989 11.9121L11.6726 11.8559L11.8483 11.8183L12.0243 11.7991L12.1989 11.7979L12.3703 11.8142L12.5368 11.8473L12.697 11.8965L12.8494 11.9608L12.9927 12.039L13.1257 12.13L13.2474 12.2326L13.357 12.3452L13.4535 12.4666L13.5365 12.5953L13.6055 12.7296L13.6602 12.8682L13.7005 13.0095L13.7264 13.152L13.7381 13.2942L13.7357 13.4348L13.7199 13.5723L13.6911 13.7054L13.65 13.833L13.5973 13.9539L13.5339 14.0671L13.4609 14.1717L13.3791 14.2668L13.2897 14.3519L13.1937 14.4262L13.0924 14.4895L12.9869 14.5414L12.8784 14.5816L12.7681 14.6101L12.6571 14.6271L12.5466 14.6325L12.4376 14.6268L12.3313 14.6102L12.2286 14.5834L12.1304 14.5468L12.0376 14.501L11.951 14.4469L11.8713 14.3852L11.799 14.3168L11.7347 14.2425L11.6788 14.1632L11.6317 14.0799L11.5934 13.9936L11.5642 13.9051L11.5442 13.8155L11.5331 13.7257L11.5309 13.6366L11.5374 13.5491L11.5522 13.4639L11.575 13.382L11.6052 13.304L11.6424 13.2306L11.6859 13.1623L11.7353 13.0999L11.7897 13.0436L11.8486 12.9939L11.9111 12.9511L11.9765 12.9154L12.0442 12.887L12.1133 12.8659L12.1832 12.8522L12.253 12.8458L12.3222 12.8465L12.39 12.8541L12.4557 12.8684L12.5188 12.889L12.5788 12.9154L12.635 12.9474L12.6871 12.9843L12.7347 13.0258L12.7773 13.0711L12.8147 13.1199L12.8468 13.1714L12.8732 13.225L12.894 13.2803L12.909 13.3365L12.9184 13.3931L12.922 13.4495L12.9202 13.5052L12.913 13.5595L12.9007 13.612L12.8836 13.6623L12.862 13.7098L12.8361 13.7542L12.8065 13.7951L12.7735 13.8322L12.7375 13.8653L12.699 13.8941L12.6585 13.9185L12.6164 13.9383L12.5731 13.9535L12.5293 13.964L12.4852 13.97L12.4414 13.9714L12.3983 13.9684L12.3562 13.9611L12.3157 13.9498L12.2771 13.9346L12.2067 13.8939L12.1473 13.8413L12.1007 13.7797L12.068 13.7119L12.0497 13.6411L12.0456 13.5701L12.0552 13.5019L12.0772 13.4389L12.1101 13.3834L12.152 13.337L12.2006 13.3012L12.2538 13.2767L12.3091 13.2639L12.3642 13.2626L12.4169 13.2722L12.4653 13.2916L12.5078 13.3197L12.543 13.3546L12.5698 13.3948L12.5878 13.4383L12.5967 13.4831L12.5935 13.549L12.5723 13.6081L12.5365 13.656L12.4904 13.6894L12.4389 13.7066Z" fill="#91A0AF"/>
</g>
<g id="24/corner">
<path id="InsideWhite" fill-rule="evenodd" clip-rule="evenodd" d="M20 1L24 5H20V1Z" fill="#D8E0E8"/>
</g>
<g id="24/chard/color/yellow">
<path id="Shape" d="M7 6V21L12 22V5L7 6Z" fill="#ECF0F4"/>
<path id="Chard" d="M11 6V21L1 19.5V7.5L11 6Z" fill="#FF9C0E"/>
</g>
<g id="24/chard/letter/z">
<path id="I" fill-rule="evenodd" clip-rule="evenodd" d="M5.22998 17V10H6.76998V17H5.22998Z" fill="white"/>
</g>
</g>
</svg>
