<svg width="48" height="48" viewBox="0 0 48 48" fill="none" xmlns="http://www.w3.org/2000/svg">
<g id="m/mime_ibook/mime_ibook_48x48">
<g id="48/baseshape">
<g id="48/baseshape_2">
<path id="OutsideBorder" d="M44 44C44 45.1046 43.1046 46 42 46H12C10.8954 46 10 45.1046 10 44V4C10 2.89543 10.8954 2 12 2H34L44 12V44Z" fill="#ECF0F4"/>
</g>
<path id="Spiral 2" fill-rule="evenodd" clip-rule="evenodd" d="M22.3269 28.4384L35.8546 14L37.0056 15.6032L37.9745 17.2856L38.7568 19.028L39.3501 20.8111L39.7537 22.6159L39.9693 24.4236L40 26.2158L39.8509 27.975L39.5287 29.6845L39.0417 31.3285L38.3995 32.8923L37.6131 34.3627L36.6946 35.7274L35.6571 36.9758L34.5144 38.0988L33.281 39.0886L31.9721 39.9391L30.603 40.646L29.1891 41.2061L27.746 41.6181L26.2891 41.8822L24.8334 42L23.3935 41.9745L21.9835 41.8102L20.6166 41.5127L19.3054 41.0889L18.0615 40.5467L16.8953 39.895L15.8164 39.1434L14.8332 38.3026L13.9527 37.3835L13.1807 36.3975L12.522 35.3567L11.9799 34.273L11.5564 33.1586L11.2524 32.0255L11.0675 30.8858L11 29.751L11.0473 28.6325L11.2055 27.541L11.4699 26.4867L11.8347 25.4792L12.2933 24.5272L12.8384 23.6387L13.4621 22.8208L14.1557 22.0796L14.9102 21.4205L15.7164 20.8476L16.5645 20.3643L17.4449 19.9727L18.3478 19.6742L19.2634 19.4691L20.1822 19.3567L21.0947 19.3355L21.9921 19.403L22.8657 19.5561L23.7075 19.7906L24.5098 20.1019L25.2658 20.4846L25.9692 20.9328L26.6144 21.44L27.1967 21.9996L27.712 22.6042L28.1571 23.2466L28.5294 23.9192L28.8275 24.6143L29.0504 25.3243L29.198 26.0417L29.2712 26.7589L29.2712 27.4688L29.2002 28.1645L29.0611 28.8394L28.857 29.4872L28.5921 30.1023L28.2707 30.6794L27.8976 31.2138L27.4782 31.7014L27.018 32.1386L26.5228 32.5225L25.9986 32.8507L25.4516 33.1217L24.8878 33.3342L24.3134 33.4879L23.7346 33.583L23.1572 33.6201L22.5871 33.6005L22.0297 33.5262L21.4903 33.3995L20.9739 33.223L20.4848 33.0002L20.0274 32.7344L19.6051 32.4298L19.2214 32.0904L18.8789 31.7206L18.5798 31.3251L18.3259 30.9086L18.1186 30.4759L17.9584 30.0318L17.8456 29.5812L17.7801 29.1286L17.761 28.6788L17.7873 28.2362L17.8574 27.805L17.9693 27.3892L18.1206 26.9926L18.3087 26.6186L18.5306 26.2703L18.7831 25.9505L19.0629 25.6616L19.3662 25.4055L19.6894 25.1839L20.0286 24.9981L20.3799 24.8488L20.7396 24.7365L21.1036 24.6613L21.4683 24.6228L21.8298 24.6204L22.1848 24.653L22.5298 24.7193L22.8616 24.8177L23.1773 24.9462L23.4741 25.1027L23.7497 25.2848L24.0018 25.4899L24.2287 25.7153L24.4287 25.9581L24.6006 26.2155L24.7435 26.4842L24.8569 26.7615L24.9403 27.0441L24.994 27.3291L25.0181 27.6136L25.0133 27.8948L24.9805 28.1698L24.9208 28.4361L24.8356 28.6913L24.7265 28.9332L24.5953 29.1596L24.4439 29.3688L24.2745 29.5591L24.0893 29.7292L23.8905 29.878L23.6807 30.0046L23.4622 30.1083L23.2374 30.1887L23.0089 30.2458L22.779 30.2797L22.55 30.2906L22.3244 30.2791L22.1041 30.2461L21.8913 30.1923L21.688 30.1191L21.4958 30.0276L21.3164 29.9194L21.1512 29.796L21.0015 29.659L20.8683 29.5104L20.7526 29.3518L20.6548 29.1852L20.5756 29.0125L20.5152 28.8356L20.4736 28.6564L20.4507 28.4767L20.4462 28.2985L20.4596 28.1234L20.4903 27.9531L20.5374 27.7892L20.6 27.6331L20.677 27.4862L20.7673 27.3498L20.8695 27.2248L20.9822 27.1122L21.1041 27.0128L21.2336 26.9272L21.3692 26.8558L21.5094 26.799L21.6526 26.7569L21.7973 26.7294L21.942 26.7166L22.0852 26.718L22.2256 26.7333L22.3618 26.7618L22.4926 26.8029L22.6167 26.8559L22.7332 26.9198L22.8411 26.9937L22.9396 27.0766L23.0279 27.1673L23.1055 27.2648L23.1719 27.3678L23.2267 27.4752L23.2697 27.5857L23.3008 27.6982L23.3201 27.8114L23.3278 27.9242L23.324 28.0355L23.3091 28.1442L23.2836 28.2493L23.2482 28.3498L23.2033 28.4449L23.1498 28.5337L23.0885 28.6155L23.0201 28.6898L22.9455 28.7559L22.8658 28.8135L22.7819 28.8623L22.6946 28.9019L22.605 28.9323L22.5141 28.9534L22.4228 28.9653L22.3321 28.9681L22.2428 28.9621L22.1558 28.9476L22.0719 28.9249L21.9918 28.8946L21.846 28.8131L21.723 28.7079L21.6265 28.5846L21.5587 28.4491L21.5207 28.3074L21.5123 28.1655L21.5321 28.029L21.5777 27.903L21.6459 27.7919L21.7326 27.6992L21.8335 27.6276L21.9436 27.5786L22.0581 27.553L22.1722 27.5504L22.2814 27.5695L22.3818 27.6084L22.4697 27.6645L22.5425 27.7345L22.5982 27.8148L22.6354 27.9017L22.6539 27.9914L22.6473 28.1232L22.6033 28.2415L22.5291 28.3373L22.4336 28.4041L22.3269 28.4384Z" fill="#91A0AF"/>
</g>
<g id="48/corner">
<path id="InsideWhite" fill-rule="evenodd" clip-rule="evenodd" d="M34 2L44 12H34V2Z" fill="#D8E0E8"/>
</g>
<g id="24/chard/color/yellow">
<path id="Shape" d="M14 12V42L24 44V10L14 12Z" fill="#ECF0F4"/>
<path id="Chard" d="M22 12V42L2 39V15L22 12Z" fill="#FF9C0E"/>
</g>
<g id="24/chard/letter/z">
<path id="I" fill-rule="evenodd" clip-rule="evenodd" d="M10.46 34V20H13.54V34H10.46Z" fill="white"/>
</g>
</g>
</svg>
