<svg width="128" height="128" viewBox="0 0 128 128" fill="none" xmlns="http://www.w3.org/2000/svg">
<g id="m/mime_ibook/mime_ibook_128x128">
<g id="64/baseshape">
<g id="64/baseshape_2">
<path id="OutsideBorder" d="M116 120C116 122.209 114.209 124 112 124H30C27.7909 124 26 122.209 26 120V8C26 5.79086 27.7909 4 30 4H88L116 34V120Z" fill="#ECF0F4"/>
</g>
<path id="Spiral 2" fill-rule="evenodd" clip-rule="evenodd" d="M57.6844 77.1273L93.1362 40L96.1527 44.1224L98.6919 48.4486L100.742 52.9291L102.297 57.5143L103.355 62.1552L103.92 66.8034L104 71.412L103.609 75.9357L102.765 80.3315L101.489 84.559L99.8056 88.5803L97.7448 92.3612L95.3377 95.8704L92.6186 99.0806L89.6239 101.968L86.3917 104.513L82.9614 106.701L79.3733 108.518L75.6679 109.958L71.8861 111.018L68.0679 111.697L64.253 112L60.4795 111.935L56.7843 111.512L53.2021 110.747L49.7659 109.657L46.5059 108.263L43.4498 106.587L40.6224 104.655L38.0456 102.492L35.738 100.129L33.715 97.5937L31.9888 94.9172L30.568 92.1305L29.4582 89.2649L28.6615 86.3513L28.1768 83.4205L28 80.5026L28.1239 77.6264L28.5386 74.8197L29.2314 72.1087L30.1874 69.5179L31.3894 67.0699L32.818 64.7852L34.4523 62.682L36.27 60.7762L38.2475 59.0813L40.3602 57.6081L42.5829 56.3652L44.8902 55.3583L47.2564 54.5908L49.6559 54.0633L52.0636 53.7744L54.4552 53.7198L56.807 53.8935L59.0964 54.287L61.3024 54.8901L63.4051 55.6905L65.3863 56.6746L67.2296 57.8271L68.9206 59.1315L70.4466 60.5703L71.797 62.1251L72.9633 63.777L73.9392 65.5065L74.7203 67.294L75.3044 69.1197L75.6914 70.9643L75.8831 72.8087L75.8832 74.6342L75.6972 76.4231L75.3324 78.1584L74.7978 79.8243L74.1034 81.4059L73.2611 82.8899L72.2835 84.2641L71.1844 85.5178L69.9783 86.6421L68.6806 87.6292L67.3068 88.4733L65.8731 89.17L64.3955 89.7165L62.8903 90.1118L61.3734 90.3562L59.8603 90.4516L58.3661 90.4014L56.9054 90.2103L55.4919 89.8843L54.1384 89.4307L52.8568 88.8576L51.6579 88.1743L50.5514 87.3909L49.5457 86.5181L48.648 85.5673L47.8643 84.5503L47.199 83.4793L46.6555 82.3667L46.2357 81.2247L45.9403 80.0658L45.7685 78.9021L45.7186 77.7455L45.7875 76.6073L45.9711 75.4985L46.2643 74.4294L46.6608 73.4096L47.1537 72.4479L47.7353 71.5523L48.3972 70.7299L49.1303 69.9869L49.9252 69.3285L50.7721 68.7587L51.6611 68.2808L52.5819 67.8969L53.5244 67.6081L54.4784 67.4147L55.4341 67.3157L56.3817 67.3095L57.312 67.3934L58.216 67.564L59.0856 67.817L59.9129 68.1475L60.6908 68.5499L61.413 69.0181L62.0738 69.5455L62.6682 70.1251L63.1924 70.7495L63.6429 71.4112L64.0175 72.1023L64.3146 72.8152L64.5333 73.542L64.6739 74.2749L64.7371 75.0065L64.7245 75.7294L64.6385 76.4366L64.4821 77.1215L64.2588 77.7777L63.9729 78.3996L63.629 78.9818L63.2323 79.5197L62.7883 80.0092L62.3029 80.4466L61.7821 80.8292L61.2321 81.1546L60.6595 81.4213L60.0705 81.6282L59.4716 81.775L58.869 81.8621L58.2691 81.8901L57.6776 81.8606L57.1004 81.7756L56.5428 81.6374L56.0098 81.4491L55.5062 81.2139L55.036 80.9356L54.6032 80.6182L54.2109 80.2661L53.8619 79.8838L53.5585 79.4761L53.3023 79.0477L53.0948 78.6036L52.9364 78.1487L52.8273 77.6878L52.7673 77.2259L52.7556 76.7675L52.7907 76.3173L52.8711 75.8794L52.9946 75.4579L53.1586 75.0566L53.3605 74.6789L53.5971 74.328L53.8649 74.0066L54.1604 73.7171L54.4797 73.4614L54.8191 73.2413L55.1745 73.0577L55.5419 72.9116L55.9172 72.8033L56.2964 72.7329L56.6756 72.6998L57.0509 72.7034L57.4188 72.7427L57.7757 72.816L58.1184 72.9218L58.4438 73.058L58.7492 73.2223L59.032 73.4124L59.29 73.6255L59.5215 73.8588L59.7248 74.1095L59.8987 74.3744L60.0423 74.6505L60.155 74.9347L60.2366 75.2239L60.2872 75.5151L60.3072 75.8052L60.2973 76.0914L60.2583 76.3709L60.1916 76.6411L60.0987 76.8995L59.9811 77.1439L59.8409 77.3723L59.6801 77.5828L59.5009 77.7737L59.3056 77.9438L59.0966 78.092L58.8766 78.2173L58.6479 78.3192L58.4132 78.3974L58.175 78.4517L57.9357 78.4823L57.6979 78.4895L57.4639 78.474L57.2358 78.4367L57.0159 78.3784L56.8061 78.3003L56.424 78.0907L56.1017 77.8203L55.8488 77.5033L55.6712 77.1548L55.5716 76.7904L55.5495 76.4255L55.6014 76.0746L55.7209 75.7506L55.8996 75.4649L56.1269 75.2266L56.3911 75.0424L56.6797 74.9165L56.9797 74.8506L57.2788 74.8438L57.5651 74.893L57.8281 74.9931L58.0586 75.1372L58.2494 75.3172L58.3952 75.5238L58.4929 75.7473L58.5412 75.978L58.5239 76.3167L58.4088 76.621L58.2142 76.8673L57.9639 77.039L57.6844 77.1273Z" fill="#91A0AF"/>
</g>
<g id="64/corner">
<path id="InsideWhite" fill-rule="evenodd" clip-rule="evenodd" d="M88 34V4L116 34H88Z" fill="#D8E0E8"/>
</g>
<g id="64/chard/color/yellow">
<path id="Shape" d="M28 38V112L64 118V32L28 38Z" fill="#ECF0F4"/>
<path id="Chard" d="M60 36.8636V113.273L12 106V44L60 36.8636Z" fill="#FF9C0E"/>
</g>
<g id="64/chard/letter/a">
<path id="I" fill-rule="evenodd" clip-rule="evenodd" d="M32.3042 92V58.4H39.6962V92H32.3042Z" fill="white"/>
</g>
</g>
</svg>
