<svg width="48" height="48" viewBox="0 0 48 48" fill="none" xmlns="http://www.w3.org/2000/svg">
<g id="m/mime_data_css/mime_data_css_48x48">
<g id="48/baseshape">
<g id="48/baseshape_2">
<path id="OutsideBorder" d="M44 44C44 45.1046 43.1046 46 42 46H12C10.8954 46 10 45.1046 10 44V4C10 2.89543 10.8954 2 12 2H34L44 12V44Z" fill="#ECF0F4"/>
</g>
<path id="Shape" fill-rule="evenodd" clip-rule="evenodd" d="M40 18.498C39.997 15.415 34.507 13 27.5 13C20.491 13 15 15.416 15 18.5V36.658C15 39.653 20.491 42 27.5 42C34.509 42 40 39.653 40 36.657V18.499V18.498ZM39 36.657C39 38.755 34.379 41 27.5 41C20.621 41 16 38.755 16 36.658V32.638C17.889 34.602 22.271 35.947 27.5 35.947C32.729 35.947 37.111 34.601 39 32.638V36.657ZM27.5 34.947C34.379 34.947 39 32.62 39 30.447V26.638C37.111 28.601 32.729 29.947 27.5 29.947C22.271 29.947 17.889 28.602 16 26.638V30.447C16 32.62 20.621 34.947 27.5 34.947ZM39 24.447C39 26.62 34.379 28.947 27.5 28.947C20.621 28.947 16 26.62 16 24.447V20.691C17.889 22.654 22.271 24 27.5 24C32.729 24 37.111 22.654 39 20.691V24.447ZM16 18.5C16 20.673 20.621 23 27.5 23C34.379 23 39 20.673 39 18.5C39 16.327 34.379 14 27.5 14C20.621 14 16 16.327 16 18.5Z" fill="#91A0AF"/>
</g>
<g id="48/corner">
<path id="InsideWhite" fill-rule="evenodd" clip-rule="evenodd" d="M34 2L44 12H34V2Z" fill="#D8E0E8"/>
</g>
<g id="24/chard/color/yellow">
<path id="Shape_2" d="M14 12V42L24 44V10L14 12Z" fill="#ECF0F4"/>
<path id="Chard" fill-rule="evenodd" clip-rule="evenodd" d="M22 12V42L2 39V15L22 12Z" fill="#951B81"/>
</g>
<g id="24/chard/letter/z">
<path id="C" fill-rule="evenodd" clip-rule="evenodd" d="M12.8599 34.24C8.73993 34.24 5.67993 31.06 5.67993 27.04V27C5.67993 23.02 8.67993 19.76 12.9799 19.76C15.6199 19.76 17.1999 20.64 18.4999 21.92L16.5399 24.18C15.4599 23.2 14.3599 22.6 12.9599 22.6C10.5999 22.6 8.89993 24.56 8.89993 26.96V27C8.89993 29.4 10.5599 31.4 12.9599 31.4C14.5599 31.4 15.5399 30.76 16.6399 29.76L18.5999 31.74C17.1599 33.28 15.5599 34.24 12.8599 34.24Z" fill="white"/>
</g>
</g>
</svg>
