<?xml version="1.0" encoding="UTF-8" standalone="no"?>
<svg width="128px" height="127px" viewBox="0 0 128 127" version="1.1" xmlns="http://www.w3.org/2000/svg" xmlns:xlink="http://www.w3.org/1999/xlink">
    <!-- Generator: Sketch 44.1 (41455) - http://www.bohemiancoding.com/sketch -->
    <title>browser_logo_firefox_128x128</title>
    <desc>Created with Sketch.</desc>
    <defs>
        <linearGradient x1="93.72558%" y1="0%" x2="33.6638773%" y2="75.4340087%" id="linearGradient-1">
            <stop stop-color="#FFE800" offset="0%"></stop>
            <stop stop-color="#FF8000" offset="100%"></stop>
        </linearGradient>
    </defs>
    <g id="Page-1" stroke="none" stroke-width="1" fill="none" fill-rule="evenodd">
        <g id="browser_logo_firefox_128x128" transform="translate(0.000000, -1.000000)">
            <rect id="Rectangle-path" x="0" y="6" width="128" height="128"></rect>
            <g id="Group" transform="translate(1.366800, 0.329560)" fill="#00AAFF">
                <circle id="Oval" cx="62.7256262" cy="63.6328634" r="62.6952291"></circle>
            </g>
            <path d="M44.501,33.278 C45.001,29.042 47.85,23.547 53.214,21.028 C45.155,19.807 38.611,23.547 35.351,28.355 C30.179,27.249 27.001,27.188 21.799,28.151 C18.498,25.671 14.617,20.02 14.921,14.107 C8.676,21.399 7.389,26.897 8.159,33.461 C-15.877,76.082 16.461,127.333 62.556,127.333 C103.968,127.333 128,95.938 128,63.769 C128,42.074 118.093,23.243 107.979,19.171 C111.753,23.294 116.04,34.032 115.219,41.464 C107.055,20.393 86.671,12.249 79.802,12.683 C102.383,21.411 107.787,51.121 105.783,59.89 C103.82,49.608 97.555,40.751 93.808,38.41 C115.677,89.196 62.862,104.8 46.747,87.174 C50.903,88.242 59.106,87.717 65.251,83.638 C71,79.821 71.541,79.597 75.235,79.313 C79.623,78.975 74.971,70.386 65.386,71.839 C61.442,72.437 54.943,77.034 46.95,74.004 C37.305,70.348 37.609,57.297 47.568,61.223 C49.724,58.45 48.132,53.209 48.132,53.209 C51.026,50.582 54.679,48.732 56.904,47.431 C58.363,46.578 62.209,44.216 61.992,39.624 C61.208,39.017 59.942,38.241 57.09,38.403 C45.975,39.102 45.232,35.122 44.501,33.278 Z" id="Mozilla_Firefox_1_" fill="url(#linearGradient-1)"></path>
        </g>
    </g>
</svg>