<?xml version="1.0" encoding="UTF-8"?><svg xmlns="http://www.w3.org/2000/svg" xmlns:xlink="http://www.w3.org/1999/xlink" width="16" height="16" viewBox="0 0 16 16"><title>i/id_card4/id_card4_16x16</title><defs><rect id="a" width="16" height="11" y="3" rx=".667"/></defs><g fill="none" fill-rule="evenodd"><path d="M0 0h16v16H0z"/><use fill="#DDDDEA" xlink:href="#a"/><rect width="15.75" height="10.75" x=".125" y="3.125" stroke="#7A79A9" stroke-opacity=".2" stroke-width=".25" rx=".667"/><path fill="#5D5C65" d="M3.07 8.458c-.081-.124-.154-.456-.154-.617 0-.177-.038-1.16 1.127-1.384.02-.004.042-.006.063-.011a.908.908 0 0 1 .336 0c.02.005.042.007.063.011 1.165.223 1.127 1.207 1.127 1.384 0 .17-.082.658-.168.775a4.36 4.36 0 0 1-.07.459c-.047.216-.213.361-.38.513a.132.132 0 0 1-.011.009c.028.135.075.274.155.42.044.029.093.06.104.063l.605.13c.195.035.706.228.706.702s-.05 1.061-.351 1.064c-.3.003-1.282.003-1.948 0-.555.003-1.512.002-1.884.001-.372 0-.39-.621-.39-1.065 0-.443.486-.667.68-.702.216-.046.642-.143.789-.175l.116-.038a1.31 1.31 0 0 0 .082-.364c-.226-.053-.439-.212-.513-.558a4.726 4.726 0 0 1-.084-.617zM8 7.25c0-.138.104-.25.258-.25h5.484c.143 0 .258.116.258.25 0 .138-.104.25-.258.25H8.258A.257.257 0 0 1 8 7.25zm0 2c0-.138.115-.25.25-.25h3.5c.138 0 .25.116.25.25 0 .138-.115.25-.25.25h-3.5A.253.253 0 0 1 8 9.25zm0 2c0-.138.104-.25.241-.25h4.518c.133 0 .241.116.241.25 0 .138-.104.25-.241.25H8.24a.248.248 0 0 1-.24-.25z"/><path fill="#1A96F1" d="M0 3.666A.67.67 0 0 1 .667 3h14.666c.368 0 .667.295.667.666V5H0V3.666z"/></g></svg>