<?xml version="1.0" encoding="UTF-8"?><svg xmlns="http://www.w3.org/2000/svg" xmlns:xlink="http://www.w3.org/1999/xlink" width="24" height="24" viewBox="0 0 24 24"><title>i/id_card4/id_card4_24x24</title><defs><rect id="a" width="24" height="17" y="4" rx="1"/></defs><g fill="none" fill-rule="evenodd"><path d="M0 0h24v24H0z"/><use fill="#DDDDEA" xlink:href="#a"/><rect width="23.5" height="16.5" x=".25" y="4.25" stroke="#7A79A9" stroke-opacity=".2" stroke-width=".5" rx="1"/><path fill="#5D5C65" d="M4.605 12.535c-.121-.192-.231-.705-.231-.955 0-.273-.057-1.794 1.69-2.138.031-.007.064-.009.095-.018a1.33 1.33 0 0 1 .503 0c.032.008.064.011.096.018 1.746.344 1.69 1.865 1.69 2.138 0 .263-.124 1.018-.252 1.199a7.046 7.046 0 0 1-.105.708c-.07.335-.319.559-.57.793a.2.2 0 0 1-.017.014c.042.208.113.424.232.65.067.044.14.09.157.097.22.05.585.13.907.2.293.054 1.06.354 1.06 1.086 0 .732-.077 1.64-.527 1.645-.451.004-1.923.004-2.922 0-.833.003-2.268.002-2.826 0-.557 0-.585-.96-.585-1.645s.729-1.032 1.021-1.085c.323-.072.962-.222 1.182-.271.017-.007.1-.033.175-.058a2.12 2.12 0 0 0 .123-.563c-.34-.082-.658-.327-.77-.863a7.512 7.512 0 0 1-.126-.952zM12 10.5c0-.276.222-.5.51-.5h7.98a.51.51 0 0 1 .51.5c0 .276-.222.5-.51.5h-7.98a.51.51 0 0 1-.51-.5zm0 3a.5.5 0 0 1 .491-.5h5.018a.5.5 0 0 1 0 1h-5.018a.5.5 0 0 1-.491-.5zm0 3c0-.276.233-.5.503-.5h5.994c.278 0 .503.232.503.5 0 .276-.233.5-.503.5h-5.994a.507.507 0 0 1-.503-.5z"/><path fill="#1A96F1" d="M0 4.999A1 1 0 0 1 1 4h22c.552 0 1 .443 1 .999V7H0V4.999z"/></g></svg>