<svg width="32" height="32" viewBox="0 0 32 32" fill="none" xmlns="http://www.w3.org/2000/svg">
<g id="m/mime_ics/mime_ics_32x32">
<g id="32/baseshape">
<g id="32/baseshape_2">
<path id="OutsideBorder" d="M29 30C29 30.5523 28.5523 31 28 31H7C6.44772 31 6 30.5523 6 30V2C6 1.44772 6.44772 1 7 1H22L29 9V30Z" fill="#ECF0F4"/>
</g>
<path id="Combined Shape" fill-rule="evenodd" clip-rule="evenodd" d="M13.6 13H14.25V14.95H13.6V13ZM22.05 14.3H23.025C23.5672 14.3 24 14.7365 24 15.275V16.25H11V15.275C11 14.7328 11.4365 14.3 11.975 14.3H12.95V15.6H14.9V14.3H20.1V15.6H22.05V14.3ZM21.4 13H20.75V14.95H21.4V13ZM11 16.9H24V24.6962C24 25.4169 23.4206 26 22.706 26H12.294C11.5838 26 11 25.4163 11 24.6962V16.9ZM14.25 22.75V24.05H12.95V22.75H14.25ZM14.25 22.1V20.8H12.95V22.1H14.25ZM14.25 18.85V20.15H12.95V18.85H14.25ZM16.2 24.05V22.75H14.9V24.05H16.2ZM16.2 20.8V22.1H14.9V20.8H16.2ZM16.2 20.15V18.85H14.9V20.15H16.2ZM18.15 22.75V24.05H16.85V22.75H18.15ZM18.15 22.1V20.8H16.85V22.1H18.15ZM18.15 18.85V20.15H16.85V18.85H18.15ZM20.1 24.05V22.75H18.8V24.05H20.1ZM20.1 20.8V22.1H18.8V20.8H20.1ZM20.1 20.15V18.85H18.8V20.15H20.1ZM22.05 22.75V24.05H20.75V22.75H22.05ZM22.05 22.1V20.8H20.75V22.1H22.05ZM22.05 18.85V20.15H20.75V18.85H22.05Z" fill="#91A0AF"/>
</g>
<g id="32/corner">
<path id="InsideWhite" fill-rule="evenodd" clip-rule="evenodd" d="M22 1L29 9H22V1Z" fill="#D8E0E8"/>
</g>
<g id="64/chard/color/yellow">
<path id="Shape" d="M7 9.5V28L16 29.5V8L7 9.5Z" fill="#ECF0F4"/>
<path id="Chard" d="M15 9.2159V28.3182L3 26.5V11L15 9.2159Z" fill="#EC0000"/>
</g>
<g id="64/chard/letter/a">
<path id="I" fill-rule="evenodd" clip-rule="evenodd" d="M8.07617 23V14.6H9.92417V23H8.07617Z" fill="white"/>
</g>
</g>
</svg>
