<svg width="128" height="128" viewBox="0 0 128 128" fill="none" xmlns="http://www.w3.org/2000/svg">
<g id="m/mime_ics/mime_ics_128x128">
<g id="64/baseshape">
<g id="64/baseshape_2">
<path id="OutsideBorder" d="M116 120C116 122.209 114.209 124 112 124H30C27.7909 124 26 122.209 26 120V8C26 5.79086 27.7909 4 30 4H88L116 34V120Z" fill="#ECF0F4"/>
</g>
<path id="Combined Shape" fill-rule="evenodd" clip-rule="evenodd" d="M54 48H57V57H54V48ZM93 54H97.5C100.003 54 102 56.0147 102 58.5V63H42V58.5C42 55.9974 44.0147 54 46.5 54H51V60H60V54H84V60H93V54ZM90 48H87V57H90V48ZM42 66H102V101.982C102 105.309 99.3261 108 96.0276 108H47.9724C44.6946 108 42 105.306 42 101.982V66ZM57 93V99H51V93H57ZM57 90V84H51V90H57ZM57 75V81H51V75H57ZM66 99V93H60V99H66ZM66 84V90H60V84H66ZM66 81V75H60V81H66ZM75 93V99H69V93H75ZM75 90V84H69V90H75ZM75 75V81H69V75H75ZM84 99V93H78V99H84ZM84 84V90H78V84H84ZM84 81V75H78V81H84ZM93 93V99H87V93H93ZM93 90V84H87V90H93ZM93 75V81H87V75H93Z" fill="#91A0AF"/>
</g>
<g id="64/corner">
<path id="InsideWhite" fill-rule="evenodd" clip-rule="evenodd" d="M88 34V4L116 34H88Z" fill="#D8E0E8"/>
</g>
<g id="64/chard/color/yellow">
<path id="Shape" d="M28 38V112L64 118V32L28 38Z" fill="#ECF0F4"/>
<path id="Chard" d="M60 36.8636V113.273L12 106V44L60 36.8636Z" fill="#EC0000"/>
</g>
<g id="64/chard/letter/a">
<path id="I" fill-rule="evenodd" clip-rule="evenodd" d="M32.3042 92V58.4H39.6962V92H32.3042Z" fill="white"/>
</g>
</g>
</svg>
