<svg width="64" height="64" viewBox="0 0 64 64" fill="none" xmlns="http://www.w3.org/2000/svg">
<g id="m/mime_ics/mime_ics_64x64">
<g id="64/baseshape">
<g id="64/baseshape_2">
<path id="OutsideBorder" d="M58 60C58 61.1046 57.1046 62 56 62H15C13.8954 62 13 61.1046 13 60V4C13 2.89543 13.8954 2 15 2H44L58 17V60Z" fill="#ECF0F4"/>
</g>
<path id="Combined Shape" fill-rule="evenodd" clip-rule="evenodd" d="M27 24H28.5V28.5H27V24ZM46.5 27H48.75C50.0013 27 51 28.0074 51 29.25V31.5H21V29.25C21 27.9987 22.0074 27 23.25 27H25.5V30H30V27H42V30H46.5V27ZM45 24H43.5V28.5H45V24ZM21 33H51V50.9912C51 52.6544 49.663 54 48.0138 54H23.9862C22.3473 54 21 52.6529 21 50.9912V33ZM28.5 46.5V49.5H25.5V46.5H28.5ZM28.5 45V42H25.5V45H28.5ZM28.5 37.5V40.5H25.5V37.5H28.5ZM33 49.5V46.5H30V49.5H33ZM33 42V45H30V42H33ZM33 40.5V37.5H30V40.5H33ZM37.5 46.5V49.5H34.5V46.5H37.5ZM37.5 45V42H34.5V45H37.5ZM37.5 37.5V40.5H34.5V37.5H37.5ZM42 49.5V46.5H39V49.5H42ZM42 42V45H39V42H42ZM42 40.5V37.5H39V40.5H42ZM46.5 46.5V49.5H43.5V46.5H46.5ZM46.5 45V42H43.5V45H46.5ZM46.5 37.5V40.5H43.5V37.5H46.5Z" fill="#91A0AF"/>
</g>
<g id="64/corner">
<path id="InsideWhite" fill-rule="evenodd" clip-rule="evenodd" d="M44 17V2L58 17H44Z" fill="#D8E0E8"/>
</g>
<g id="64/chard/color/yellow">
<path id="Shape" d="M14 19V56L32 59V16L14 19Z" fill="#ECF0F4"/>
<path id="Chard" d="M30 18.4318V56.6364L6 53V22L30 18.4318Z" fill="#EC0000"/>
</g>
<g id="64/chard/letter/a">
<path id="I" fill-rule="evenodd" clip-rule="evenodd" d="M16.1519 46V29.2H19.8479V46H16.1519Z" fill="white"/>
</g>
</g>
</svg>
