<svg width="24" height="24" xmlns="http://www.w3.org/2000/svg"><path d="M1.072 22.9A3.803 3.803 0 0 1 0 20.239a3.8 3.8 0 0 1 1.07-2.663L15.781 2.451A4.71 4.71 0 0 1 19.185 1a4.71 4.71 0 0 1 3.405 1.451 4.986 4.986 0 0 1 1.41 3.5 4.988 4.988 0 0 1-1.41 3.501L11.313 21.05l-.925-.951L21.665 8.5a3.631 3.631 0 0 0 1.026-2.549c0-.964-.364-1.87-1.026-2.549a3.433 3.433 0 0 0-4.958 0L1.997 18.528a2.438 2.438 0 0 0-.688 1.71c.001.646.245 1.253.689 1.71.881.906 2.431.913 3.323-.002L18.28 8.62a1.18 1.18 0 0 0 0-1.642 1.139 1.139 0 0 0-1.598.002l-9.524 9.794-.926-.952 9.526-9.796c.928-.947 2.525-.945 3.446 0 .462.474.715 1.103.717 1.77a2.534 2.534 0 0 1-.716 1.775L6.247 22.9A3.604 3.604 0 0 1 3.66 24c-.979 0-1.899-.392-2.588-1.1z" fill="#1A96F1" fill-rule="evenodd"/></svg>