<svg width="16" height="16" xmlns="http://www.w3.org/2000/svg"><path d="M.714 15.282A2.452 2.452 0 0 1 0 13.547c0-.656.254-1.274.713-1.737l9.808-9.864A3.175 3.175 0 0 1 12.79 1c.859 0 1.665.336 2.27.946.605.609.94 1.42.94 2.283s-.334 1.675-.94 2.283l-7.518 7.564-.617-.62 7.519-7.565a2.341 2.341 0 0 0 .683-1.662 2.34 2.34 0 0 0-.683-1.662 2.314 2.314 0 0 0-1.654-.69 2.31 2.31 0 0 0-1.652.69L1.331 12.43a1.572 1.572 0 0 0-.458 1.116c0 .42.163.817.459 1.114.587.592 1.62.596 2.215 0l8.639-8.69a.761.761 0 0 0 0-1.072.771.771 0 0 0-1.065.001l-6.35 6.388-.617-.62 6.35-6.39c.62-.617 1.684-.616 2.298 0 .308.31.477.72.478 1.155-.001.44-.17.85-.477 1.158l-8.638 8.691a2.429 2.429 0 0 1-3.45 0z" fill="#1A96F1" fill-rule="evenodd"/></svg>