<svg width="24" height="24" xmlns="http://www.w3.org/2000/svg"><g fill="none" fill-rule="nonzero"><path d="M.4 1H22c.225 0 .4.17576419.4.40174672v1.6069869c0 .22598254-.175.40174673-.4.40174673h-.4L13.775 14.1572052c-.125.1506551-.175.3264193-.175.5021834v6.0010917c0 .2762009-.125.5021835-.35.6528385l-3.825 2.5611353c-.125.1004367-.275.1004367-.425.0251092-.125-.0753275-.2-.2008733-.2-.3515284v-8.8886463c0-.1757641-.05-.3515283-.175-.5021834L.8 3.41048035H.4c-.225 0-.4-.17576419-.4-.40174673v-1.6069869C0 1.17576419.175 1 .4 1z" fill="#57D31A"/><path d="M13.775 14.1572052c-.125.1506551-.175.3264193-.175.5021834v6.0010917c0 .2762009-.125.5021835-.35.6528385l-3.825 2.5611353c-.125.1004367-.275.1004367-.425.0251092-.125-.0753275-.2-.2008733-.2-.3515284v-8.8886463c0-.1757641-.05-.3515283-.175-.5021834h5.15z" fill="#57D31A"/><path d="M.4 1H22c.225 0 .4.17576419.4.40174672v.40174673H0v-.40174673C0 1.17576419.175 1 .4 1zM21.6 3.41048035l-.575.80349345H1.375L.8 3.41048035zM24 7.4279476c0 1.75764192-1.45 3.2139738-3.2 3.2139738h-4.475c.05-.65283843.475-1.6069869 1.175-1.6069869h3.3c.875 0 1.6-.72816594 1.6-1.6069869 0-.87882096-.725-1.6069869-1.6-1.6069869h-.95c.375-.9290393.775-1.45633188 1.15-1.6069869 1.675.12554585 3 1.50655022 3 3.2139738z" fill="#36C137"/></g></svg>