<svg width="16" height="16" xmlns="http://www.w3.org/2000/svg"><g fill="none" fill-rule="nonzero"><path d="M.26666667 1H14.6666667c.15 0 .2666666.11462882.2666666.26200873v1.04803494c0 .14737991-.1166666.26200873-.2666666.26200873H14.4L9.18333333 9.58078603c-.08333333.09825327-.11666666.21288209-.11666666.32751091v3.91375546c0 .180131-.08333334.3275109-.23333334.4257642l-2.55 1.6703057C6.2 15.9836245 6.1 15.9836245 6 15.9344978c-.08333333-.0491266-.13333333-.1310044-.13333333-.2292576V9.90829694c0-.11462882-.03333334-.22925764-.11666667-.32751091L.53333333 2.5720524H.26666667C.11666667 2.5720524 0 2.45742358 0 2.31004367V1.26200873C0 1.11462882.11666667 1 .26666667 1z" fill="#57D31A"/><path d="M9.18333333 9.58078603c-.08333333.09825327-.11666666.21288209-.11666666.32751091v3.91375546c0 .180131-.08333334.3275109-.23333334.4257642l-2.55 1.6703057C6.2 15.9836245 6.1 15.9836245 6 15.9344978c-.08333333-.0491266-.13333333-.1310044-.13333333-.2292576V9.90829694c0-.11462882-.03333334-.22925764-.11666667-.32751091h3.43333333z" fill="#57D31A"/><path d="M.26666667 1H14.6666667c.15 0 .2666666.11462882.2666666.26200873v.26200874H0v-.26200874C0 1.11462882.11666667 1 .26666667 1zM14.4 2.5720524l-.3833333.52401747H.91666667L.53333333 2.5720524zM16 5.19213974c0 1.14628821-.9666667 2.09606987-2.1333333 2.09606987h-2.9833334c.0333334-.4257642.3166667-1.04803494.7833334-1.04803494h2.2c.5833333 0 1.0666666-.47489083 1.0666666-1.04803493 0-.57314411-.4833333-1.04803494-1.0666666-1.04803494h-.6333334c.25-.60589519.5166667-.94978166.7666667-1.04803493 1.1166667.08187773 2 .98253275 2 2.09606987z" fill="#36C137"/></g></svg>