<?xml version="1.0" encoding="UTF-8"?><svg xmlns="http://www.w3.org/2000/svg" width="24" height="24" viewBox="0 0 24 24"><title>l/linked_application/linked_application_24x24</title><g fill="none" fill-rule="evenodd"><path d="M0 0h24v24H0z"/><path fill="#1A96F1" d="M16.522 1.156c-2.878 0-4.933 2.58-6.988 4.48.274 0 .685-.135 1.096-.135.685 0 1.37.14 2.055.41 1.095-1.09 2.193-2.31 3.837-2.31.822 0 1.78.41 2.466.95 1.37 1.36 1.37 3.53 0 4.89l-3.562 3.53c-.548.55-1.645.95-2.467.95-1.92 0-2.88-1.22-3.57-2.71l-1.78 1.77c1.092 2.038 2.74 3.53 5.203 3.53 1.644 0 3.152-.68 4.11-1.763l3.564-3.53c1.235-1.23 2.055-2.72 2.055-4.486-.274-2.986-3.015-5.566-6.03-5.566z"/><path fill="#F00" d="M10.63 17.586l-1.233 1.222c-.55.543-1.645.95-2.467.95-.822 0-1.78-.407-2.466-.95-1.37-1.358-1.37-3.666 0-4.888l3.562-3.53c.548-.544 1.645-.95 2.467-.95 1.918 0 2.877 1.357 3.562 2.715l1.782-1.765c-1.097-2.037-2.74-3.53-5.207-3.53-1.645 0-3.152.678-4.11 1.764l-3.564 3.53c-2.33 2.31-2.33 5.975 0 8.148 2.193 2.172 6.03 2.308 8.085 0l2.61-2.58c-.41.136-.82.136-1.23.136-.682 0-1.23 0-1.78-.272z"/></g></svg>