<?xml version="1.0" encoding="UTF-8"?><svg xmlns="http://www.w3.org/2000/svg" width="16" height="16" viewBox="0 0 16 16"><title>l/linked_application/linked_application_16x16</title><g fill="none" fill-rule="evenodd"><path d="M0 0h16v16H0z"/><path fill="#1A96F1" d="M11.583 1.104c-1.962 0-3.363 1.72-4.765 2.987.187 0 .467-.09.748-.09.467 0 .934.09 1.4.273.75-.724 1.496-1.538 2.617-1.538.56 0 1.215.27 1.682.633.934.905.934 2.354 0 3.26l-2.43 2.353c-.373.363-1.12.634-1.68.634-1.31 0-1.963-.814-2.43-1.81L5.51 8.98c.748 1.357 1.87 2.353 3.55 2.353 1.122 0 2.15-.452 2.803-1.177l2.43-2.353c.84-.815 1.4-1.81 1.4-2.987-.186-1.992-2.055-3.712-4.11-3.712z"/><path fill="#F00" d="M7.566 12.057l-.84.815c-.375.362-1.122.634-1.683.634-.56 0-1.214-.272-1.68-.634-.936-.905-.936-2.444 0-3.26L5.79 7.26c.374-.362 1.122-.634 1.682-.634 1.308 0 1.962.905 2.43 1.81l1.214-1.176c-.747-1.358-1.87-2.354-3.55-2.354-1.12 0-2.15.453-2.803 1.177l-2.43 2.353c-1.587 1.54-1.587 3.983 0 5.432 1.496 1.448 4.112 1.54 5.513 0l1.775-1.72c-.28.09-.56.09-.84.09-.466 0-.84 0-1.213-.18z"/></g></svg>