<svg xmlns="http://www.w3.org/2000/svg" width="16" height="16" viewBox="0 0 16 16"><path fill="#868686" d="M8,4.94736842 C10.0072727,4.94736842 11.6363636,6.59789474 11.6363636,8.63157895 C11.6363636,9.11052632 11.5418182,9.56 11.3745455,9.98 L13.4981818,12.1315789 C14.5963636,11.2031579 15.4618182,10.0021053 15.9927273,8.63157895 C14.7345455,5.39684211 11.6290909,3.10526316 7.99272727,3.10526316 C6.97454545,3.10526316 6,3.28947368 5.09818182,3.62105263 L6.66909091,5.21263158 C7.08363636,5.04315789 7.52727273,4.94736842 8,4.94736842 Z M0.727272727,2.93578947 L2.38545455,4.61578947 L2.72,4.95473684 C1.51272727,5.90526316 0.567272727,7.17263158 0,8.63157895 C1.25818182,11.8663158 4.36363636,14.1578947 8,14.1578947 C9.12727273,14.1578947 10.2036364,13.9368421 11.1854545,13.5389474 L11.4909091,13.8484211 L13.6218182,16 L14.5454545,15.0642105 L1.65090909,2 L0.727272727,2.93578947 Z M4.74909091,7.01052632 L5.87636364,8.15263158 C5.84,8.30736842 5.81818182,8.46947368 5.81818182,8.63157895 C5.81818182,9.85473684 6.79272727,10.8421053 8,10.8421053 C8.16,10.8421053 8.32,10.82 8.47272727,10.7831579 L9.6,11.9252632 C9.11272727,12.1684211 8.57454545,12.3157895 8,12.3157895 C5.99272727,12.3157895 4.36363636,10.6652632 4.36363636,8.63157895 C4.36363636,8.04947368 4.50909091,7.50421053 4.74909091,7.01052632 L4.74909091,7.01052632 Z M7.88363636,6.43578947 L10.1745455,8.75684211 L10.1890909,8.63894737 C10.1890909,7.41578947 9.21454545,6.42842105 8.00727273,6.42842105 L7.88363636,6.43578947 Z"/></svg>