<svg xmlns="http://www.w3.org/2000/svg" width="24" height="24" viewBox="0 0 24 24"><path fill="#868686" d="M12,7.42105263 C15.0109091,7.42105263 17.4545455,9.89684211 17.4545455,12.9473684 C17.4545455,13.6657895 17.3127273,14.34 17.0618182,14.97 L20.2472727,18.1973684 C21.8945455,16.8047368 23.1927273,15.0031579 23.9890909,12.9473684 C22.1018182,8.09526316 17.4436364,4.65789474 11.9890909,4.65789474 C10.4618182,4.65789474 9,4.93421053 7.64727273,5.43157895 L10.0036364,7.81894737 C10.6254545,7.56473684 11.2909091,7.42105263 12,7.42105263 Z M1.09090909,4.40368421 L3.57818182,6.92368421 L4.08,7.43210526 C2.26909091,8.85789474 0.850909091,10.7589474 0,12.9473684 C1.88727273,17.7994737 6.54545455,21.2368421 12,21.2368421 C13.6909091,21.2368421 15.3054545,20.9052632 16.7781818,20.3084211 L17.2363636,20.7726316 L20.4327273,24 L21.8181818,22.5963158 L2.47636364,3 L1.09090909,4.40368421 Z M7.12363636,10.5157895 L8.81454545,12.2289474 C8.76,12.4610526 8.72727273,12.7042105 8.72727273,12.9473684 C8.72727273,14.7821053 10.1890909,16.2631579 12,16.2631579 C12.24,16.2631579 12.48,16.23 12.7090909,16.1747368 L14.4,17.8878947 C13.6690909,18.2526316 12.8618182,18.4736842 12,18.4736842 C8.98909091,18.4736842 6.54545455,15.9978947 6.54545455,12.9473684 C6.54545455,12.0742105 6.76363636,11.2563158 7.12363636,10.5157895 L7.12363636,10.5157895 Z M11.8254545,9.65368421 L15.2618182,13.1352632 L15.2836364,12.9584211 C15.2836364,11.1236842 13.8218182,9.64263158 12.0109091,9.64263158 L11.8254545,9.65368421 Z"/></svg>