<svg width="24" height="24" xmlns="http://www.w3.org/2000/svg"><g fill="none" fill-rule="evenodd"><ellipse fill="#7BB817" cx="12.684" cy="11.027" rx="3.477" ry="3.57"/><path d="M22.202 5l-.228.235c-.228.234-.57.939-1.026 2.112-1.71 4.108-3.875 7.042-5.926 8.098-.684.353-.912.353-1.938.47-1.823 0-2.963-.352-4.445-1.526-1.481-1.056-2.849-2.7-4.9-5.75-1.254-1.996-1.824-2.583-2.28-2.583l-.342.118-.114.47C.89 8.52 3.74 13.684 6.702 16.735c3.989 4.343 7.066 4.578 10.6.94C20.15 14.74 23 9.225 23 6.29c0-.704-.114-1.056-.456-1.174L22.316 5h-.114z" fill="#0086BE"/></g></svg>