<svg width="16" height="16" viewBox="0 0 16 16" fill="none" xmlns="http://www.w3.org/2000/svg">
<path d="M15.1276 4.36333H8.0001L4.85477 9.818H1.27344V3.66787C2.69764 1.46101 5.17825 0 8.0001 0C11.1088 0 13.8034 1.77319 15.1276 4.36333V4.36333Z" fill="#DB4437"/>
<path d="M1.26661 3.6783L4.83667 9.818H11.1633V12.4547L7.62656 15.9914C3.38165 15.7964 0 12.2931 0 8C0 6.40802 0.46501 4.92464 1.26661 3.6783V3.6783Z" fill="#0F9D58"/>
<path d="M15.127 4.36333C15.6848 5.45442 15.9995 6.69046 15.9995 8C15.9995 12.4183 12.4177 16 7.99947 16C7.87922 16 7.75958 15.9973 7.64062 15.9921L11.1448 9.818L7.99947 4.36333H15.127V4.36333Z" fill="#FFCD40"/>
<path d="M8 4.36333V6.27333L15.1267 4.364L8 4.36333Z" fill="#EFBC2C"/>
<path d="M1.27344 3.682L6.47344 8.882L4.85477 9.818L1.27344 3.682Z" fill="#CC3225"/>
<path d="M7.99995 11.6367C10.0084 11.6367 11.6366 10.0085 11.6366 8C11.6366 5.99153 10.0084 4.36333 7.99995 4.36333C5.99147 4.36333 4.36328 5.99153 4.36328 8C4.36328 10.0085 5.99147 11.6367 7.99995 11.6367Z" fill="#F1F1F1"/>
<path d="M8.00015 10.9093C9.60693 10.9093 10.9095 9.60678 10.9095 8C10.9095 6.39322 9.60693 5.09067 8.00015 5.09067C6.39337 5.09067 5.09082 6.39322 5.09082 8C5.09082 9.60678 6.39337 10.9093 8.00015 10.9093Z" fill="#4285F4"/>
</svg>
