<svg width="24" height="24" viewBox="0 0 24 24" fill="none" xmlns="http://www.w3.org/2000/svg">
<path d="M22.6915 6.545H12.0002L7.28216 14.727H1.91016V5.5018C4.04646 2.19152 7.76738 0 12.0002 0C16.6633 0 20.7052 2.65978 22.6915 6.545Z" fill="#DB4437"/>
<path d="M1.89992 5.51744L7.255 14.727H16.745V18.682L11.4398 23.9872C5.07248 23.6946 0 18.4397 0 12C0 9.61203 0.697515 7.38697 1.89992 5.51744V5.51744Z" fill="#0F9D58"/>
<path d="M22.6915 6.545C23.5282 8.18162 24.0002 10.0357 24.0002 12C24.0002 18.6274 18.6276 24 12.0002 24C11.8198 24 11.6404 23.996 11.4619 23.9881L16.7182 14.727L12.0002 6.545H22.6915V6.545Z" fill="#FFCD40"/>
<path d="M12 6.545V9.41L22.69 6.546L12 6.545Z" fill="#EFBC2C"/>
<path d="M1.91016 5.523L9.71016 13.323L7.28216 14.727L1.91016 5.523Z" fill="#CC3225"/>
<path d="M11.9999 17.455C15.0126 17.455 17.4549 15.0127 17.4549 12C17.4549 8.98728 15.0126 6.545 11.9999 6.545C8.98721 6.545 6.54492 8.98728 6.54492 12C6.54492 15.0127 8.98721 17.455 11.9999 17.455Z" fill="#F1F1F1"/>
<path d="M11.9997 16.364C14.4099 16.364 16.3637 14.4102 16.3637 12C16.3637 9.58983 14.4099 7.636 11.9997 7.636C9.58957 7.636 7.63574 9.58983 7.63574 12C7.63574 14.4102 9.58957 16.364 11.9997 16.364Z" fill="#4285F4"/>
</svg>
