<?xml version="1.0" encoding="UTF-8"?><svg xmlns="http://www.w3.org/2000/svg" width="24" height="24" viewBox="0 0 24 24" xmlns:xlink="http://www.w3.org/1999/xlink"><title>e/email/email_24x24</title><defs><path id="a" d="M1 5h22c.552 0 1 .448 1 1v13c0 1.105-.895 2-2 2H2c-1.105 0-2-.895-2-2V6c0-.552.448-1 1-1z"/></defs><g fill="none" fill-rule="evenodd"><path d="M0 0h24v24H0z"/><use fill="#DDDDEA" xlink:href="#a"/><path stroke="#7A79A9" stroke-opacity=".2" stroke-width=".5" d="M1 5.25c-.414 0-.75.336-.75.75v13c0 .966.784 1.75 1.75 1.75h20c.966 0 1.75-.784 1.75-1.75V6c0-.414-.336-.75-.75-.75H1z"/><path fill="#7A71BB" d="M2 4h20c1.105 0 2 .895 2 2v1H0V6c0-1.105.895-2 2-2z"/><path fill="#7A71BB" d="M4.5 10h4c.276 0 .5.224.5.5s-.224.5-.5.5h-4c-.276 0-.5-.224-.5-.5s.224-.5.5-.5zm0 3h7c.276 0 .5.224.5.5s-.224.5-.5.5h-7c-.276 0-.5-.224-.5-.5s.224-.5.5-.5zm0 3h7c.276 0 .5.224.5.5s-.224.5-.5.5h-7c-.276 0-.5-.224-.5-.5s.224-.5.5-.5z"/><path fill="#FF520E" d="M18.5 9h3c.276 0 .5.224.5.5v4c0 .276-.224.5-.5.5h-3c-.276 0-.5-.224-.5-.5v-4c0-.276.224-.5.5-.5z"/></g></svg>