<svg xmlns="http://www.w3.org/2000/svg" width="16" height="16" viewBox="0 0 16 16">
  <g fill="none" fill-rule="evenodd">
    <path fill="#DDDDEA" d="M0.666666667,3.33333333 L15.3333333,3.33333333 C15.7015232,3.33333333 16,3.63181017 16,4 L16,12.6666667 C16,13.4030463 15.4030463,14 14.6666667,14 L1.33333333,14 C0.596953667,14 9.01805001e-17,13.4030463 0,12.6666667 L0,4 C-4.50902501e-17,3.63181017 0.298476833,3.33333333 0.666666667,3.33333333 Z"/>
    <path fill="#FF520E" d="M12.3333333,6 L14.3333333,6 C14.5174282,6 14.6666667,6.14923842 14.6666667,6.33333333 L14.6666667,9 C14.6666667,9.18409492 14.5174282,9.33333333 14.3333333,9.33333333 L12.3333333,9.33333333 C12.1492384,9.33333333 12,9.18409492 12,9 L12,6.33333333 C12,6.14923842 12.1492384,6 12.3333333,6 Z"/>
    <path fill="#7A71BB" d="M3 6.66666667L5.66666667 6.66666667C5.85076158 6.66666667 6 6.81590508 6 7 6 7.18409492 5.85076158 7.33333333 5.66666667 7.33333333L3 7.33333333C2.81590508 7.33333333 2.66666667 7.18409492 2.66666667 7 2.66666667 6.81590508 2.81590508 6.66666667 3 6.66666667zM3 8.66666667L7.66666667 8.66666667C7.85076158 8.66666667 8 8.81590508 8 9 8 9.18409492 7.85076158 9.33333333 7.66666667 9.33333333L3 9.33333333C2.81590508 9.33333333 2.66666667 9.18409492 2.66666667 9 2.66666667 8.81590508 2.81590508 8.66666667 3 8.66666667zM3 10.6666667L7.66666667 10.6666667C7.85076158 10.6666667 8 10.8159051 8 11 8 11.1840949 7.85076158 11.3333333 7.66666667 11.3333333L3 11.3333333C2.81590508 11.3333333 2.66666667 11.1840949 2.66666667 11 2.66666667 10.8159051 2.81590508 10.6666667 3 10.6666667zM1.33333333 2.66666667L14.6666667 2.66666667C15.4030463 2.66666667 16 3.26362033 16 4L16 4.66666667 0 4.66666667 0 4C-9.01805001e-17 3.26362033.596953667 2.66666667 1.33333333 2.66666667z"/>
  </g>
</svg>
